<svg width="37" height="37" viewBox="0 0 37 37" fill="none" xmlns="http://www.w3.org/2000/svg">
<g clip-path="url(#clip0_195_217)">
<path d="M29.8052 8.07721V10.7392H6.84628V8.07721H4.24475V29.3731H32.3986V8.07721H29.8052ZM22.2253 11.3085C22.1566 12.2943 21.717 13.2172 20.9953 13.8912C20.2736 14.5652 19.3234 14.94 18.3366 14.94C17.3497 14.94 16.3996 14.5652 15.6779 13.8912C14.9562 13.2172 14.5166 12.2943 14.4478 11.3085H22.2253ZM6.85711 11.3085H13.8658C13.9397 12.4426 14.4417 13.5061 15.27 14.2832C16.0982 15.0603 17.1907 15.4927 18.3257 15.4927C19.4608 15.4927 20.5533 15.0603 21.3815 14.2832C22.2098 13.5061 22.7118 12.4426 22.7857 11.3085H29.8052V19.3297H6.84628L6.85711 11.3085ZM6.85711 23.3416V19.9016H29.8052V23.3416C29.8245 23.6081 29.8025 23.876 29.7403 24.1359C29.6717 24.3797 29.5479 24.6045 29.3784 24.7926C29.2088 24.9806 28.9982 25.127 28.763 25.2202C28.522 25.3144 28.2631 25.3542 28.005 25.3367H8.6465C8.38355 25.3504 8.12088 25.305 7.87768 25.2039C7.64281 25.1105 7.43266 24.9641 7.26361 24.776C7.09457 24.5879 6.9712 24.3633 6.90313 24.1196C6.84381 23.8648 6.82462 23.6023 6.84628 23.3416H6.85711ZM31.8491 28.8011H4.81324V8.64918H6.27779V23.3416C6.27779 23.4961 6.27779 23.6127 6.27779 23.797C6.28813 23.9658 6.31626 24.133 6.36171 24.2958C6.4568 24.622 6.62498 24.9222 6.85344 25.1736C7.0819 25.4249 7.36462 25.6207 7.68006 25.7461C7.83727 25.8071 8.00066 25.8507 8.16734 25.8762C8.32627 25.8958 8.4864 25.904 8.6465 25.9006H28.005C28.166 25.9039 28.327 25.8958 28.4869 25.8762C28.6535 25.8504 28.8168 25.8068 28.9741 25.7461C29.3685 25.5902 29.7099 25.3242 29.9575 24.9796C30.2052 24.635 30.3487 24.2264 30.371 23.8024C30.371 23.6262 30.371 23.5015 30.371 23.347V8.64918H31.8328L31.8491 28.8011Z" fill="#FF931E"/>
</g>
<defs>
<clipPath id="clip0_195_217">
<rect width="36.0947" height="36.0947" fill="white" transform="translate(0.274323 0.858276)"/>
</clipPath>
</defs>
</svg>
