<svg width="37" height="37" viewBox="0 0 37 37" fill="none" xmlns="http://www.w3.org/2000/svg">
<g clip-path="url(#clip0_195_164)">
<path d="M32.8461 30.0964V24.675H34.1004V17.0075L30.6415 8.04429V5.17633H16.2845V8.04429L15.2168 10.8086H6.71311V12.9958L4.1596 19.6059V25.3695H5.16511V30.0964H1.22253V32.4012H36.2012V30.0964H32.8461ZM17.0136 8.17559V5.90541H29.9021V8.17559L33.3575 17.1423V23.939H20.037V19.6059L17.4835 12.9958V10.8086H15.9977L17.0136 8.17559ZM32.117 24.675V30.0964H19.111V25.3695H20.037V24.6784L32.117 24.675ZM4.88868 24.6404V19.7407L7.4422 13.1306V11.5377H16.7717V13.1306L19.3218 19.7407V24.6301H4.88868V24.6404ZM18.3819 25.3695V30.0964H5.89419V25.3695H18.3819ZM35.4756 31.6755H1.93434V30.8255H35.4756V31.6755Z" fill="#FF931E"/>
<path d="M32.1168 21.8795H32.8459V17.8713L30.9351 12.9232L30.2544 13.1858L32.1168 18.0095V21.8795Z" fill="#FF931E"/>
<path d="M32.8408 22.4218H32.1169V23.2699H32.8408V22.4218Z" fill="#FF931E"/>
<path d="M4.87828 7.2771C5.33499 7.56013 5.86978 7.6908 6.40555 7.65028H10.2721C10.8924 7.62378 11.5136 7.67603 12.1207 7.80577C12.6883 7.91341 13.2079 8.19617 13.6065 8.61433C13.7868 8.81198 13.9192 9.04843 13.9935 9.3054L14.0108 9.38142H8.15742V10.1174H14.0074L14.4393 10.0898H14.6673H14.7779C14.7779 10.0587 14.7779 10.0172 14.7779 9.98611C14.7917 9.83785 14.7917 9.68863 14.7779 9.54037C14.7779 9.46089 14.7572 9.38142 14.7399 9.30195C14.7288 9.2483 14.7149 9.19525 14.6984 9.143C14.597 8.77732 14.4138 8.43942 14.1628 8.15476C13.665 7.62209 13.0122 7.25945 12.297 7.11815C11.6341 6.97666 10.9563 6.91747 10.279 6.94193H6.35026C5.97611 6.96174 5.60514 6.86387 5.28946 6.66205C5.15389 6.56642 5.0456 6.43707 4.97531 6.28678C4.90501 6.1365 4.87514 5.97048 4.88864 5.80511H4.15956C4.15852 6.08613 4.21742 6.36413 4.33233 6.62058C4.45057 6.8854 4.63946 7.11255 4.87828 7.2771Z" fill="#FF931E"/>
</g>
<defs>
<clipPath id="clip0_195_164">
<rect width="36.0947" height="36.0947" fill="white" transform="translate(0.828308 0.858215)"/>
</clipPath>
</defs>
</svg>
