<svg width="37" height="37" viewBox="0 0 37 37" fill="none" xmlns="http://www.w3.org/2000/svg">
<g clip-path="url(#clip0_195_144)">
<path d="M30.292 22.3269V6.51944L30.9287 6.36408L30.2128 3.38477L13.5646 7.38155L11.8252 4.86528H5.04708V16.0971H7.41408V30.0798H6.10415V34.104H4.61145V34.7132H16.0809V34.104H14.5851V30.0798H11.9348V16.0971H15.6392V10.3883L15.429 10.0836L29.6828 6.65043V22.3269H28.5373V22.9361H31.279V25.6565L30.4322 26.6252H28.845V24.7974H28.2357V27.204H30.6972L31.9157 25.8697V22.3269H30.292ZM13.982 30.686V34.104H6.71037V30.686H13.982ZM11.3317 19.8776V20.4351H8.00506V17.931L11.3317 19.8776ZM8.00506 17.2334V16.0971H11.3317V19.1769L8.00506 17.2334ZM11.3317 21.0383V23.2529L8.00506 21.3063V21.0383H11.3317ZM11.3317 23.9506V24.508H8.00506V22.0039L11.3317 23.9506ZM11.3317 25.1112V27.5483L8.00506 25.6017V25.1021L11.3317 25.1112ZM11.3317 28.2398V28.7973H8.00506V26.2932L11.3317 28.2398ZM11.3317 29.4004V30.0798H8.00506V29.4004H11.3317ZM15.0299 13.2214V15.5061H5.65025V5.4715H11.5083L12.0658 6.27573H8.49248V12.3928H15.0299V13.2214ZM15.0299 11.7987H9.09565V6.88195H12.4832L15.0299 10.5772V11.7987ZM15.0665 9.56577L13.9332 7.91161L16.1875 7.36937L16.6231 9.17584L15.0665 9.56577ZM17.1989 9.0479L16.7633 7.24142L18.5911 6.80275L17.3725 9.00829L17.1989 9.0479ZM18.1615 8.81638L19.3801 6.61083L19.4867 6.58646L19.9223 8.38989L18.1615 8.81638ZM20.5163 8.24976L20.0838 6.44633L21.9116 6.00461L20.693 8.21015L20.5163 8.24976ZM21.479 8.01824L22.6975 5.81269L23.0022 5.73958L23.4347 7.54605L21.479 8.01824ZM24.0318 7.40897L23.5992 5.60554L25.427 5.16382L24.2085 7.36937L24.0318 7.40897ZM24.9975 7.17745L26.216 4.9719L26.3196 4.94753L26.7552 6.75096L24.9975 7.17745ZM27.3523 6.61083L26.9167 4.8074L28.7445 4.36568L27.526 6.57123L27.3523 6.61083ZM29.6767 6.05335L28.315 6.37931L29.5335 4.17377L29.6675 4.14026L29.6767 6.05335Z" fill="#FF931E"/>
</g>
<defs>
<clipPath id="clip0_195_144">
<rect width="36.0947" height="36.0947" fill="white" transform="translate(0.0682373 0.858154)"/>
</clipPath>
</defs>
</svg>
