<svg width="37" height="37" viewBox="0 0 37 37" fill="none" xmlns="http://www.w3.org/2000/svg">
<g clip-path="url(#clip0_195_246)">
<path d="M32.2624 31.3632V24.2977L25.8849 20.6918V23.98L21.8562 21.6948V15.5467H18.9686V12.4574H15.7384V4.83655H12.9006L10.8531 12.4574H9.0736V15.5467H6.1833V31.3632H4.8017V33.2312H33.3179V31.3632H32.2624ZM26.4596 21.6921L31.6738 24.6376V31.3632H26.4652L26.4596 21.6921ZM25.8794 24.6376V31.3632H20.6707V21.6921L25.8794 24.6376ZM13.3483 5.41958H15.1554V12.4574H11.4555L13.3483 5.41958ZM9.65387 13.0405H18.3856V15.5467H9.65387V13.0405ZM6.76633 18.6221H10.1319V20.2966H6.76633V18.6221ZM6.76633 23.3859H10.1319V25.0576H6.76633V23.3859ZM6.76633 25.6407H10.7122V22.8029H6.76633V20.8686H10.7122V18.0391H6.76633V16.127H21.2759V21.3771L20.0877 20.7028V23.98L14.285 20.7028V31.3743H6.76633V25.6407ZM20.0877 24.6376V31.3632H14.8736V21.6921L20.0877 24.6376ZM32.7349 32.6509H5.37921V31.949H32.7349V32.6509Z" fill="#FF931E"/>
<path d="M30.7841 26.5082H27.0731V27.8704H27.6534V27.0912H30.7841V26.5082Z" fill="#FF931E"/>
<path d="M21.8563 27.0912H24.987V26.5082H21.276V27.8704H21.8563V27.0912Z" fill="#FF931E"/>
<path d="M16.0617 27.0912H19.1924V26.5082H15.4786V27.8704H16.0617V27.0912Z" fill="#FF931E"/>
</g>
<defs>
<clipPath id="clip0_195_246">
<rect width="36.0947" height="36.0947" fill="white" transform="translate(0.832642 0.858215)"/>
</clipPath>
</defs>
</svg>
