<svg width="37" height="37" viewBox="0 0 37 37" fill="none" xmlns="http://www.w3.org/2000/svg">
<g clip-path="url(#clip0_195_153)">
<path d="M8.76188 24.0422C8.22977 24.044 7.71471 24.23 7.30431 24.5687C6.8939 24.9074 6.61351 25.3778 6.51083 25.8999C6.40815 26.422 6.48952 26.9635 6.7411 27.4324C6.99268 27.9013 7.39893 28.2685 7.89074 28.4717C8.38255 28.6748 8.92954 28.7012 9.43866 28.5465C9.94778 28.3918 10.3876 28.0655 10.6832 27.6231C10.9789 27.1807 11.1122 26.6495 11.0604 26.12C11.0086 25.5904 10.7749 25.0951 10.3991 24.7184C9.96431 24.2853 9.37558 24.0421 8.76188 24.0422ZM9.97036 27.5612C9.64777 27.8767 9.21451 28.0533 8.76332 28.0533C8.31212 28.0533 7.87886 27.8767 7.55627 27.5612C7.24081 27.2386 7.06418 26.8054 7.06418 26.3542C7.06418 25.903 7.24081 25.4697 7.55627 25.1471C7.8764 24.827 8.31059 24.6472 8.76332 24.6472C9.21604 24.6472 9.65023 24.827 9.97036 25.1471C10.2905 25.4673 10.4703 25.9014 10.4703 26.3542C10.4703 26.8069 10.2905 27.2411 9.97036 27.5612Z" fill="#FF931E"/>
<path d="M33.7688 7.73354C33.5912 7.64175 33.3931 7.59716 33.1933 7.60406H28.5896C28.3312 7.59451 28.0772 7.6722 27.8684 7.82462C27.6597 7.97703 27.5083 8.1953 27.4386 8.44424H26.6128V12.5329H25.4619L17.9521 5.3396L15.1985 8.09321L12.5887 5.58993L4.95226 12.5301H4.13222C3.98547 12.5301 3.88189 12.5301 3.68911 12.5301C3.33864 12.5655 3.01379 12.7297 2.77756 12.991C2.54132 13.2523 2.41052 13.592 2.41052 13.9443C2.41052 14.2965 2.54132 14.6362 2.77756 14.8975C3.01379 15.1588 3.33864 15.3231 3.68911 15.3585C3.88189 15.3585 3.97684 15.3585 4.13222 15.3585H4.81414V22.3619L4.79688 22.3792C4.14265 23.0328 3.65974 23.8376 3.39093 24.7225C3.12213 25.6073 3.07573 26.5448 3.25584 27.4518C3.43596 28.3588 3.83703 29.2075 4.42352 29.9225C5.01001 30.6374 5.76381 31.1967 6.61812 31.5507C7.47243 31.9048 8.40088 32.0426 9.32119 31.952C10.2415 31.8614 11.1253 31.5452 11.8942 31.0315C12.6631 30.5177 13.2934 29.8222 13.7292 29.0066C14.165 28.1909 14.393 27.2804 14.3928 26.3557C14.3928 26.2377 14.3928 26.1226 14.3755 26.0075L19.4425 22.3159L19.9317 28.3583L20.0669 30.007L20.0986 30.4185L20.1158 30.6227C20.121 30.7019 20.1306 30.7806 20.1446 30.8587C20.1924 31.1603 20.2896 31.4519 20.4323 31.7219C20.5799 32.0157 20.7997 32.2672 21.0711 32.4527C21.3505 32.6327 21.674 32.7322 22.0062 32.7405H23.9743V19.0271L25.6547 17.8071V15.3757H26.2877C26.4344 15.3757 26.538 15.3757 26.7308 15.3757C27.0345 15.3415 27.319 15.2103 27.5422 15.0016C27.7655 14.7929 27.9155 14.5178 27.9701 14.2172C28.0246 13.9165 27.9809 13.6062 27.8452 13.3324C27.7096 13.0586 27.4893 12.8357 27.2171 12.6969V9.05136H27.4386C27.4809 9.20286 27.5538 9.34409 27.6528 9.46632C27.7517 9.58856 27.8747 9.68921 28.0141 9.76206C28.1925 9.85142 28.3901 9.89587 28.5896 9.89154H33.1933C33.3928 9.89575 33.5903 9.85131 33.7688 9.76206C33.9487 9.66253 34.0986 9.51663 34.203 9.33953C34.3074 9.16243 34.3625 8.96059 34.3625 8.755C34.3625 8.54941 34.3074 8.34757 34.203 8.17046C34.0986 7.99336 33.9487 7.84746 33.7688 7.74793V7.73354ZM17.9434 6.19129L24.5613 12.5214H19.8223L15.6416 8.5133L17.9434 6.19129ZM12.5542 6.4186L18.9505 12.5301H5.85862L12.5542 6.4186ZM12.2866 29.9005C11.4661 30.7221 10.386 31.2337 9.23053 31.3482C8.07503 31.4626 6.91561 31.1728 5.94987 30.5281C4.98414 29.8834 4.27185 28.9238 3.93443 27.8128C3.59701 26.7017 3.65532 25.5081 4.09944 24.4352C4.54357 23.3624 5.346 22.4767 6.36998 21.9292C7.39396 21.3818 8.57611 21.2064 9.71495 21.4329C10.8538 21.6594 11.8788 22.2739 12.6153 23.1715C13.3519 24.0692 13.7543 25.1945 13.754 26.3557C13.7605 27.6818 13.2411 28.9565 12.3096 29.9005H12.2866ZM23.3413 32.1621H22.0034C21.7792 32.1592 21.5605 32.0927 21.3725 31.9705C21.1846 31.8483 21.0352 31.6753 20.9416 31.4716C20.8314 31.2534 20.7557 31.0195 20.7172 30.7781C20.7172 30.7148 20.7172 30.6602 20.697 30.5997L20.6798 30.3954L20.6481 29.9811L20.533 28.3266L20.018 21.9044L23.3643 19.4702L23.3413 32.1621ZM25.0188 17.4877L14.2863 25.3169C14.1097 24.3809 13.6976 23.5052 13.089 22.7725C12.4804 22.0397 11.6952 21.474 10.8075 21.1286C9.91972 20.7831 8.95867 20.6694 8.01484 20.7981C7.07101 20.9268 6.17548 21.2937 5.41263 21.8641V15.3757H25.0418L25.0188 17.4877ZM27.3725 13.9486C27.3702 14.1501 27.2944 14.3438 27.1592 14.4932C27.0241 14.6427 26.839 14.7375 26.6387 14.76H3.74378C3.54264 14.7392 3.35634 14.6447 3.2209 14.4945C3.08546 14.3444 3.01049 14.1494 3.01049 13.9471C3.01049 13.7449 3.08546 13.5499 3.2209 13.3998C3.35634 13.2496 3.54264 13.1551 3.74378 13.1343H26.6618C26.8632 13.1575 27.0492 13.2538 27.1844 13.405C27.3196 13.5561 27.3947 13.7516 27.3955 13.9543L27.3725 13.9486ZM33.4782 9.21825C33.3831 9.26652 33.2765 9.28743 33.1703 9.27867H28.5896C28.4843 9.2869 28.3788 9.26599 28.2846 9.21825C28.197 9.17331 28.1235 9.10509 28.0721 9.02107C28.0208 8.93705 27.9936 8.84051 27.9936 8.74205C27.9936 8.64359 28.0208 8.54704 28.0721 8.46303C28.1235 8.37901 28.197 8.31078 28.2846 8.26585C28.3781 8.21629 28.4842 8.19529 28.5896 8.20543H33.1933C33.2996 8.19539 33.4066 8.21638 33.5012 8.26585C33.5888 8.31078 33.6623 8.37901 33.7136 8.46303C33.765 8.54704 33.7921 8.64359 33.7921 8.74205C33.7921 8.84051 33.765 8.93705 33.7136 9.02107C33.6623 9.10509 33.5888 9.17331 33.5012 9.21825H33.4782Z" fill="#FF931E"/>
<path d="M12.0984 7.4571L7.9046 11.2705L8.31304 11.7197L12.5069 7.90629L12.0984 7.4571Z" fill="#FF931E"/>
</g>
<defs>
<clipPath id="clip0_195_153">
<rect width="36.0947" height="36.0947" fill="white" transform="translate(0.433502 0.858215)"/>
</clipPath>
</defs>
</svg>
