<?xml version="1.0" encoding="utf-8"?>
<!-- Generator: Adobe Illustrator 24.2.3, SVG Export Plug-In . SVG Version: 6.00 Build 0)  -->
<svg version="1.1" id="Layer_1" xmlns="http://www.w3.org/2000/svg" xmlns:xlink="http://www.w3.org/1999/xlink" x="0px" y="0px"
	 viewBox="0 0 1903.1 1293.9" style="enable-background:new 0 0 1903.1 1293.9;" xml:space="preserve">
<style type="text/css">
	.st0{fill:#FF931E;}
	.st1{fill:#FFFFFF;}
	.st2{fill:none;stroke:#FFFFFF;stroke-width:2;stroke-miterlimit:10;}
	.st3{fill:none;stroke:#FFFFFF;stroke-miterlimit:10;}
	.st4{fill:#1A1A1A;}
	.st5{opacity:0.15;}
	.st6{clip-path:url(#SVGID_2_);fill:none;stroke:#FFFFFF;stroke-miterlimit:10;}
</style>
<g>
	<rect x="-9.1" y="-3.4" class="st4" width="1920" height="1304"/>
	<g class="st5">
		<g>
			<defs>
				<rect id="SVGID_1_" x="-9.6" y="-6.7" width="1922.3" height="1305"/>
			</defs>
			<clipPath id="SVGID_2_">
				<use xlink:href="#SVGID_1_"  style="overflow:visible;"/>
			</clipPath>
			<polygon class="st6" points="679.6,844.9 805,599.2 526.8,789.2 			"/>
			<polygon class="st6" points="-9.1,856.4 -9.1,893.9 23.7,862.4 			"/>
			<polygon class="st6" points="85.8,1108 -9.1,1264.2 -9.1,1291.3 175.9,1164.5 			"/>
			<polygon class="st6" points="99.9,696.1 -9.1,809.3 -9.1,856.4 23.7,862.4 			"/>
			<polygon class="st6" points="-9.1,893.9 -9.1,925.1 23.7,862.4 			"/>
			<polygon class="st6" points="-9.1,925.1 -9.1,982.9 103,883.2 23.7,862.4 			"/>
			<polygon class="st6" points="23.7,862.4 103,883.2 186.8,705.4 			"/>
			<polygon class="st6" points="186.8,705.4 103,883.2 284.9,722.6 			"/>
			<polygon class="st6" points="186.8,705.4 259.4,528.8 99.9,696.1 			"/>
			<polygon class="st6" points="99.9,696.1 165,531.3 22.2,693.1 			"/>
			<polygon class="st6" points="103,883.2 192.1,913.4 284.9,722.6 			"/>
			<polygon class="st6" points="284.9,722.6 366.6,532.4 186.8,705.4 			"/>
			<polygon class="st6" points="259.4,528.8 165,531.3 99.9,696.1 			"/>
			<polygon class="st6" points="192.1,913.4 396.9,749.7 284.9,722.6 			"/>
			<polygon class="st6" points="490,543.7 366.6,532.4 284.9,722.6 			"/>
			<polygon class="st6" points="396.9,749.7 490,543.7 284.9,722.6 			"/>
			<polygon class="st6" points="366.6,532.4 259.4,528.8 186.8,705.4 			"/>
			<polygon class="st6" points="863,922.4 1012.4,651.2 679.6,844.9 			"/>
			<polygon class="st6" points="-9.1,1291.3 -9.1,1297.8 93.5,1297.8 175.9,1164.5 			"/>
			<polygon class="st6" points="1088.1,1029.6 1270.3,727.9 863,922.4 			"/>
			<polygon class="st6" points="1012.4,651.2 1158.9,367.6 805,599.2 			"/>
			<polygon class="st6" points="1270.3,727.9 1012.4,651.2 863,922.4 			"/>
			<polygon class="st6" points="634,564.9 924.5,344.7 733.5,334.5 			"/>
			<polygon class="st6" points="1158.9,367.6 924.5,344.7 805,599.2 			"/>
			<polygon class="st6" points="706.6,1188.4 1088.1,1029.6 863,922.4 			"/>
			<polygon class="st6" points="924.5,344.7 1040.7,75.3 733.5,334.5 			"/>
			<polygon class="st6" points="805,599.2 924.5,344.7 634,564.9 			"/>
			<polygon class="st6" points="679.6,844.9 1012.4,651.2 805,599.2 			"/>
			<polygon class="st6" points="545.2,1087.6 278.9,1237.9 354.1,1297.8 419.3,1297.8 			"/>
			<polygon class="st6" points="545.2,1087.6 679.6,844.9 409.4,1011.9 			"/>
			<polygon class="st6" points="241.1,1297.8 354.1,1297.8 278.9,1237.9 			"/>
			<polygon class="st6" points="175.9,1164.5 93.5,1297.8 180.1,1297.8 278.9,1237.9 			"/>
			<polygon class="st6" points="180.1,1297.8 241.1,1297.8 278.9,1237.9 			"/>
			<polygon class="st6" points="278.9,1237.9 545.2,1087.6 409.4,1011.9 			"/>
			<polygon class="st6" points="638.2,1297.8 865.5,1297.8 706.6,1188.4 			"/>
			<polygon class="st6" points="473.2,1297.8 638.2,1297.8 706.6,1188.4 			"/>
			<polygon class="st6" points="1040.7,75.3 827.5,93.1 733.5,334.5 			"/>
			<polygon class="st6" points="865.5,1297.8 918.7,1297.8 1088.1,1029.6 706.6,1188.4 			"/>
			<polygon class="st6" points="545.2,1087.6 419.3,1297.8 473.2,1297.8 706.6,1188.4 			"/>
			<polygon class="st6" points="1454.8,408.6 1912.2,171.3 1912.2,66.8 1647.5,60.6 			"/>
			<polygon class="st6" points="5.5,550.3 130.4,384.5 49.7,405.9 			"/>
			<polygon class="st6" points="81,538.8 130.4,384.5 5.5,550.3 			"/>
			<polygon class="st6" points="1912.2,66.8 1912.2,-6.2 1757.8,-6.2 1647.5,60.6 			"/>
			<polygon class="st6" points="1757.8,-6.2 1683.1,-6.2 1647.5,60.6 			"/>
			<polygon class="st6" points="1454.8,408.6 1842.1,476.6 1912.2,368.5 1912.2,171.3 			"/>
			<polygon class="st6" points="1601.4,840.5 1912.2,738.7 1912.2,491.2 1842.1,476.6 			"/>
			<polygon class="st6" points="1912.2,491.2 1912.2,448 1842.1,476.6 			"/>
			<polygon class="st6" points="1912.2,448 1912.2,368.5 1842.1,476.6 			"/>
			<polygon class="st6" points="1306.2,63.5 1647.5,60.6 1683.1,-6.2 1403.4,-6.2 			"/>
			<polygon class="st6" points="1912.2,958.4 1912.2,738.7 1601.4,840.5 			"/>
			<polygon class="st6" points="574.4,333.5 439.2,339.4 366.6,532.4 			"/>
			<polygon class="st6" points="439.2,339.4 322.6,350.5 259.4,528.8 			"/>
			<polygon class="st6" points="490,543.7 574.4,333.5 366.6,532.4 			"/>
			<polygon class="st6" points="366.6,532.4 439.2,339.4 259.4,528.8 			"/>
			<polygon class="st6" points="220.6,365.9 130.4,384.5 81,538.8 			"/>
			<polygon class="st6" points="165,531.3 220.6,365.9 81,538.8 			"/>
			<polygon class="st6" points="165,531.3 81,538.8 22.2,693.1 			"/>
			<polygon class="st6" points="322.6,350.5 220.6,365.9 165,531.3 			"/>
			<polygon class="st6" points="259.4,528.8 322.6,350.5 165,531.3 			"/>
			<polygon class="st6" points="-9.1,569.2 5.5,550.3 -9.1,553.5 			"/>
			<polygon class="st6" points="-9.1,553.5 5.5,550.3 49.7,405.9 -9.1,489.1 			"/>
			<polygon class="st6" points="49.7,405.9 -9.1,424.9 -9.1,489.1 			"/>
			<polygon class="st6" points="1372.5,1179.4 1912.2,1042 1912.2,958.4 1601.4,840.5 			"/>
			<polygon class="st6" points="-9.1,589.9 5.5,550.3 -9.1,569.2 			"/>
			<polygon class="st6" points="-9.1,694 22.2,693.1 81,538.8 -9.1,648.1 			"/>
			<polygon class="st6" points="526.8,789.2 634,564.9 396.9,749.7 			"/>
			<polygon class="st6" points="1912.2,1297.8 1912.2,1178 1818.9,1297.8 			"/>
			<polygon class="st6" points="-9.1,648.1 81,538.8 5.5,550.3 -9.1,589.9 			"/>
			<polygon class="st6" points="805,599.2 634,564.9 526.8,789.2 			"/>
			<polygon class="st6" points="-9.1,424.9 49.7,405.9 85.5,260.2 -9.1,407.6 			"/>
			<polygon class="st6" points="171.3,228.2 85.5,260.2 49.7,405.9 			"/>
			<polygon class="st6" points="130.4,384.5 171.3,228.2 49.7,405.9 			"/>
			<polygon class="st6" points="396.9,749.7 634,564.9 490,543.7 			"/>
			<polygon class="st6" points="1579.3,1297.8 1818.9,1297.8 1912.2,1178 1912.2,1042 1372.5,1179.4 			"/>
			<polygon class="st6" points="8.3,293.1 -9.1,301.5 -9.1,321.9 			"/>
			<polygon class="st6" points="634,564.9 733.5,334.5 490,543.7 			"/>
			<polygon class="st6" points="-9.1,407.6 85.5,260.2 8.3,293.1 -9.1,368.6 			"/>
			<polygon class="st6" points="-9.1,368.6 8.3,293.1 -9.1,321.9 			"/>
			<polygon class="st6" points="409.4,1011.9 679.6,844.9 526.8,789.2 			"/>
			<polygon class="st6" points="1012.4,651.2 1454.8,408.6 1158.9,367.6 			"/>
			<polygon class="st6" points="1040.7,75.3 1073,-6.2 933.1,-6.2 827.5,93.1 			"/>
			<polygon class="st6" points="1306.2,63.5 1337.9,-6.2 1139.1,-6.2 1040.7,75.3 			"/>
			<polygon class="st6" points="933.1,-6.2 862.2,-6.2 827.5,93.1 			"/>
			<polygon class="st6" points="924.5,344.7 1306.2,63.5 1040.7,75.3 			"/>
			<polygon class="st6" points="1647.5,60.6 1306.2,63.5 1158.9,367.6 			"/>
			<polygon class="st6" points="1454.8,408.6 1647.5,60.6 1158.9,367.6 			"/>
			<polygon class="st6" points="827.5,93.1 862.2,-6.2 767.2,-6.2 651.8,115.2 			"/>
			<polygon class="st6" points="733.5,334.5 827.5,93.1 574.4,333.5 			"/>
			<polygon class="st6" points="1139.1,-6.2 1073,-6.2 1040.7,75.3 			"/>
			<polygon class="st6" points="651.8,115.2 689.7,-6.2 630,-6.2 504.1,140.5 			"/>
			<polygon class="st6" points="-9.1,-6.2 -9.1,20.9 2.7,-6.2 			"/>
			<polygon class="st6" points="630,-6.2 545.1,-6.2 504.1,140.5 			"/>
			<polygon class="st6" points="377.7,168 504.1,140.5 545.1,-6.2 514.1,-6.2 			"/>
			<polygon class="st6" points="421.6,-6.2 414.4,-6.2 267.9,197.4 377.7,168 			"/>
			<polygon class="st6" points="129.4,-6.2 115.8,-6.2 32.1,154.6 113.5,111.6 			"/>
			<polygon class="st6" points="514.1,-6.2 421.6,-6.2 377.7,168 			"/>
			<polygon class="st6" points="767.2,-6.2 689.7,-6.2 651.8,115.2 			"/>
			<polygon class="st6" points="179.2,-6.2 129.4,-6.2 113.5,111.6 			"/>
			<polygon class="st6" points="6,1065.1 192.1,913.4 103,883.2 			"/>
			<polygon class="st6" points="526.8,789.2 396.9,749.7 293.2,955.3 			"/>
			<polygon class="st6" points="293.2,955.3 396.9,749.7 192.1,913.4 			"/>
			<polygon class="st6" points="-9.1,1264.2 85.8,1108 -9.1,1180 			"/>
			<polygon class="st6" points="267.9,197.4 414.4,-6.2 385.5,-6.2 307.6,23.6 			"/>
			<polygon class="st6" points="409.4,1011.9 526.8,789.2 293.2,955.3 			"/>
			<polygon class="st6" points="-9.1,763.1 22.2,693.1 -9.1,727.8 			"/>
			<polygon class="st6" points="186.8,705.4 99.9,696.1 23.7,862.4 			"/>
			<polygon class="st6" points="22.2,693.1 -9.1,694 -9.1,727.8 			"/>
			<polygon class="st6" points="-9.1,809.3 99.9,696.1 22.2,693.1 -9.1,763.1 			"/>
			<polygon class="st6" points="733.5,334.5 574.4,333.5 490,543.7 			"/>
			<polygon class="st6" points="1372.5,1179.4 1601.4,840.5 1088.1,1029.6 			"/>
			<polygon class="st6" points="1088.1,1029.6 1601.4,840.5 1270.3,727.9 			"/>
			<polygon class="st6" points="863,922.4 679.6,844.9 545.2,1087.6 			"/>
			<polygon class="st6" points="1842.1,476.6 1454.8,408.6 1270.3,727.9 			"/>
			<polygon class="st6" points="1601.4,840.5 1842.1,476.6 1270.3,727.9 			"/>
			<polygon class="st6" points="706.6,1188.4 863,922.4 545.2,1087.6 			"/>
			<polygon class="st6" points="1270.3,727.9 1454.8,408.6 1012.4,651.2 			"/>
			<polygon class="st6" points="1290.7,1297.8 1372.5,1179.4 986,1297.8 			"/>
			<polygon class="st6" points="918.7,1297.8 986,1297.8 1372.5,1179.4 1088.1,1029.6 			"/>
			<polygon class="st6" points="1158.9,367.6 1306.2,63.5 924.5,344.7 			"/>
			<polygon class="st6" points="204.6,67.9 113.5,111.6 85.5,260.2 			"/>
			<polygon class="st6" points="85.5,260.2 113.5,111.6 8.3,293.1 			"/>
			<polygon class="st6" points="171.3,228.2 204.6,67.9 85.5,260.2 			"/>
			<polygon class="st6" points="307.6,23.6 204.6,67.9 171.3,228.2 			"/>
			<polygon class="st6" points="-9.1,178.6 32.1,154.6 48.7,12.6 -9.1,131.2 			"/>
			<polygon class="st6" points="-9.1,230.4 32.1,154.6 -9.1,178.6 			"/>
			<polygon class="st6" points="267.9,197.4 307.6,23.6 171.3,228.2 			"/>
			<polygon class="st6" points="113.5,111.6 32.1,154.6 8.3,293.1 			"/>
			<polygon class="st6" points="-9.1,301.5 8.3,293.1 32.1,154.6 -9.1,230.4 			"/>
			<polygon class="st6" points="574.4,333.5 651.8,115.2 439.2,339.4 			"/>
			<polygon class="st6" points="48.7,12.6 -9.1,52 -9.1,131.2 			"/>
			<polygon class="st6" points="651.8,115.2 504.1,140.5 439.2,339.4 			"/>
			<polygon class="st6" points="827.5,93.1 651.8,115.2 574.4,333.5 			"/>
			<polygon class="st6" points="439.2,339.4 504.1,140.5 322.6,350.5 			"/>
			<polygon class="st6" points="377.7,168 267.9,197.4 220.6,365.9 			"/>
			<polygon class="st6" points="130.4,384.5 267.9,197.4 171.3,228.2 			"/>
			<polygon class="st6" points="504.1,140.5 377.7,168 322.6,350.5 			"/>
			<polygon class="st6" points="220.6,365.9 267.9,197.4 130.4,384.5 			"/>
			<polygon class="st6" points="322.6,350.5 377.7,168 220.6,365.9 			"/>
			<polygon class="st6" points="6,1065.1 85.8,1108 192.1,913.4 			"/>
			<polygon class="st6" points="113.5,111.6 204.6,67.9 216.2,-6.2 179.2,-6.2 			"/>
			<polygon class="st6" points="103,883.2 -9.1,982.9 -9.1,1058.3 6,1065.1 			"/>
			<polygon class="st6" points="-9.1,1058.3 -9.1,1077.5 6,1065.1 			"/>
			<polygon class="st6" points="249.1,-6.2 216.2,-6.2 204.6,67.9 			"/>
			<polygon class="st6" points="-9.1,1077.5 -9.1,1090.2 6,1065.1 			"/>
			<polygon class="st6" points="1403.4,-6.2 1337.9,-6.2 1306.2,63.5 			"/>
			<polygon class="st6" points="1579.3,1297.8 1372.5,1179.4 1290.7,1297.8 			"/>
			<polygon class="st6" points="327,-6.2 312.9,-6.2 307.6,23.6 			"/>
			<polygon class="st6" points="307.6,23.6 312.9,-6.2 249.1,-6.2 204.6,67.9 			"/>
			<polygon class="st6" points="85.8,1108 175.9,1164.5 293.2,955.3 			"/>
			<polygon class="st6" points="192.1,913.4 85.8,1108 293.2,955.3 			"/>
			<polygon class="st6" points="385.5,-6.2 327,-6.2 307.6,23.6 			"/>
			<polygon class="st6" points="-9.1,1090.2 -9.1,1180 85.8,1108 6,1065.1 			"/>
			<polygon class="st6" points="293.2,955.3 175.9,1164.5 409.4,1011.9 			"/>
			<polygon class="st6" points="175.9,1164.5 278.9,1237.9 409.4,1011.9 			"/>
			<polygon class="st6" points="32.1,154.6 115.8,-6.2 78.3,-6.2 48.7,12.6 			"/>
			<polygon class="st6" points="78.3,-6.2 57.4,-6.2 48.7,12.6 			"/>
			<polygon class="st6" points="57.4,-6.2 49.9,-6.2 48.7,12.6 			"/>
			<polygon class="st6" points="-9.1,20.9 -9.1,52 48.7,12.6 49.9,-6.2 2.7,-6.2 			"/>
		</g>
	</g>
</g>
</svg>
