<svg id="Layer_1" data-name="Layer 1" xmlns="http://www.w3.org/2000/svg" viewBox="0 0 617.66 80.22"><defs><style>.cls-1{fill:#fff;}</style></defs><path class="cls-1" d="M538.5,32.41c0,5.5,0,11,0,16.47a13.17,13.17,0,0,1-13,13.38c-6.8.18-13.6,0-20.4,0v0c-6.56,0-13.12-.08-19.69,0-2.57,0-3.68-.82-3.63-3.49q.18-9.67,0-19.33c0-2.69,1.17-3.52,3.64-3.61,7.2-.27,7.2-.33,7.21,6.77V47c0,5.75.72,6.5,6.62,6.59,6.09.08,12.18.12,18.26.06,6.58-.06,9.87-3.34,10.06-9.91.07-2.39,0-4.77-.06-7.16-.15-6.59-3.2-9.78-10-9.9-9.3-.17-18.61-.05-27.92-.05a32.89,32.89,0,0,0-3.58,0c-3.28.37-4.38-1.06-4.4-4.3s.94-4.48,4.3-4.44c12.76.12,25.53-.06,38.29,0C532.8,18,538.4,23.81,538.5,32.41Z"/><path class="cls-1" d="M472.52,41.94c.28,4.17.47,8.34.44,12.51,0,5.12-2.86,7.83-8,7.84-14.07,0-28.15-.09-42.21.1-3.58,0-4.58-1.39-4.52-4.64.09-4.3.36-4.77,4.62-4.79,9.89,0,19.79,0,29.69,0,1.31,0,2.62,0,3.93-.1,2.72-.19,4.61-1.44,4.69-4.36.08-3.09-2-4.13-4.67-4.2-3.29-.11-6.59,0-10.5,0,5.49-8,12.22-10.24,20.5-8.61C470.45,36.39,472.25,38,472.52,41.94Z"/><path class="cls-1" d="M469.5,18.07c.16.32.31.63.45,1-3.47,3.21-6,7.67-11.85,7.62-11.21-.1-22.43,0-33.64,0-4,0-4.47-.68-4.6-5-.11-3.43,1.89-3.76,4.62-3.75,14,.06,27.92,0,41.88,0C467.41,17.88,468.46,18,469.5,18.07Z"/><path class="cls-1" d="M404.57,54.13a28.8,28.8,0,0,1-.33,8.43c-.08.46-2.09.85-3.21.87-5.6.09-11.21,0-16.82,0h0c-5.25,0-10.5.05-15.75,0a15.51,15.51,0,0,1-15.63-15.66c-.05-5.25,0-10.5,0-15.76A15.82,15.82,0,0,1,368,16.64c10.73-.13,21.48,0,32.21-.08,2.84,0,4.07,1,4.13,4,.15,6.86.26,6.86-6.71,6.86-8.35,0-16.71-.18-25.05.12-2.13.08-4.37,1.4-6.23,2.65a3.66,3.66,0,0,0-.81,3.46c.34.82,2,1.49,3.14,1.5,10,.12,20.05,0,30.07.17,1.63,0,4.38.5,4.63,1.37a15.25,15.25,0,0,1-.05,7c-.1.59-2.16,1.16-3.33,1.17-9.66.1-19.33,0-29,.12-2.21,0-5.48-1.24-5.66,2.89-.12,2.58,2.54,4.67,6.09,4.7,9.55.07,19.1,0,28.64.13C401.66,52.69,404.47,53.42,404.57,54.13Z"/><path class="cls-1" d="M345.61,45.05c0,3.33.1,6.68,0,10-.23,6-2.68,8.35-8.71,8.38-7.88,0-15.76,0-23.64,0s-15.51-.12-23.27.06c-3.4.09-4.95-1-4.55-4.5a12.39,12.39,0,0,0,0-2.51c-.29-3,1.09-4,4-3.94,12.05.1,24.11,0,36.16,0,4.43,0,6.61-1.26,6.55-3.72s-2.57-4-6.56-4c-9.55,0-19.1,0-28.65,0-7.13,0-9.76-2.55-9.81-9.59,0-3.34-.08-6.69,0-10,.14-5,3.32-8.53,8.22-8.58,14.8-.16,29.59-.05,44.4-.1,2.15,0,2.87,1.06,3.06,3.05.71,7.42.43,7.8-6.79,7.8H307c-.95,0-2.08-.3-2.83.1a26.2,26.2,0,0,0-3.62,2.83c1.07,1.22,1.93,2.8,3.26,3.56,1.13.63,2.79.4,4.21.4q13.43,0,26.86,0C343,34.32,345.59,36.85,345.61,45.05Z"/><path class="cls-1" d="M278.76,59.08c0,3.2-1,4.52-4.29,4.46-10.12-.17-8.51.72-8.67-8.58-.09-5,0-10,0-15h0c0-6.44.05-12.87,0-19.31,0-2.74.75-4.14,3.86-4.09,10.14.17,9-1.09,9,8.93C278.75,36.68,278.62,47.88,278.76,59.08Z"/><path class="cls-1" d="M253.38,52.55c3.33-.06,4.61,1.15,4.24,4.39-.15,1.3.2,2.69-.16,3.91-.28,1-1.31,2.43-2,2.42-13.31-.32-26.73,1.82-39.91-1.15-6.22-1.4-9.9-6.79-10-13.24-.09-6-.12-11.93,0-17.9a14.93,14.93,0,0,1,14.8-14.41c5.38,0,10.75,0,16.11,0v0c5.37,0,10.74,0,16.11,0,4.25,0,4.62.4,4.65,4.76,0,.72-.06,1.44,0,2.15.25,2.92-1,4-4,4-8.11-.14-16.22-.1-24.33-.05-7.32.05-10.34,3.18-10.37,10.55,0,2,0,4.06,0,6.09.08,5.61,3,8.47,8.7,8.5C236,52.62,244.68,52.72,253.38,52.55Z"/><path class="cls-1" d="M195.3,52.55c3.1,0,4.16,1,4.16,4.11,0,6.81.12,6.81-6.83,6.81H178.68c-5.25,0-10.51-.18-15.74,0-8.63.36-16.88-7.82-16.3-16.25.34-5,.06-10,.06-15,0-7.9,7-15.38,15-15.55,11-.24,21.95,0,32.92-.11,2.48,0,3.26,1.15,3.39,3.48.42,7.35.44,7.37-6.89,7.35-8.23,0-16.45-.06-24.68.06-1.59,0-3.59.28-4.63,1.25a8.4,8.4,0,0,0-2,4.8c0,.4,2.36,1.61,3.65,1.63,9.67.15,19.33.08,29,.09,5.15,0,5.24.12,5.24,4.76,0,4.87,0,4.9-5.37,4.9-9.42,0-18.84,0-28.27,0-2,0-4.26-.52-4.47,2.62-.2,2.84,1.58,4.1,3.88,4.79a13.08,13.08,0,0,0,3.55.26C176.46,52.6,185.89,52.7,195.3,52.55Z"/><path class="cls-1" d="M141.39,61.08c.11.63-1,1.53-1.6,2.23-.18.19-.69.12-1,.11-2.85-.05-6.23.78-8.4-.48-1.76-1-2.05-4.57-3-7a9,9,0,0,1-.47-1.35c-2.09-9.8-3.58-8.64-12.42-8.72-6.08-.05-12.17,0-18.26,0-5.18,0-5.32.14-5.33,5.46,0,2.87-.05,5.73,0,8.6.06,5.27-4,3.47-6.48,3.41s-6.55,2-6.55-3.34c0-7,.09-14.08,0-21.11-.06-2.88,1.1-3.7,3.81-3.68,11.58.1,23.15,0,34.72,0,1.2,0,2.67.36,3.52-.19a27.61,27.61,0,0,0,4-3.91c-1.32-1.2-2.47-2.73-4-3.5-1.16-.58-2.81-.22-4.24-.22-11.1,0-22.2-.09-33.29.07-3.33,0-5-.85-4.5-4.43a10.47,10.47,0,0,0,0-2.5c-.28-2.93,1-4.07,4-4,7.76.09,15.51,0,23.27,0v0c7.4,0,14.8,0,22.19,0,6.82.05,9.75,3,9.89,9.84a43.87,43.87,0,0,1,0,7.86,16.25,16.25,0,0,1-2.5,6.3c-1,1.49-1.3,2.26.11,3.54C139.61,48.69,140.24,55,141.39,61.08Z"/><path class="cls-1" d="M71.63,27.39c0,3.22,0,6.44,0,9.66-.18,5.93-3.18,8.8-9.34,8.82-10.49,0-21,0-31.49,0-5.42,0-5.59.23-5.56,5.69,0,3,.11,6-.06,8.94-.28,4.63-4,2.87-6.3,2.87s-6.18,1.81-6.32-2.8c-.25-7.63-.12-15.27-.16-22.9,0-2.57,1.9-2.38,3.54-2.39,8.11,0,16.22,0,24.33,0,4.53,0,9.07,0,13.6,0,2.48,0,4.74-1.13,4.43-3.48-.19-1.56-2.34-3.5-4-4.08-2.15-.73-4.71-.27-7.1-.28-10.14,0-20.28-.11-30.41.06-3.17.05-4.49-.64-4.39-4.14.21-6.72,0-6.72,6.86-6.72H38.88v0c7.27,0,14.55,0,21.83,0C68.42,16.55,71.59,19.66,71.63,27.39Z"/><path class="cls-1" d="M552.83,62.3a65.16,65.16,0,0,1-6.58-.4,5.09,5.09,0,0,1-.25-1.28c-.08-3.89-.07-7.86,0-11.71,0-1.44,0-2.88,0-4.32V42.67h0c0-.89,0-1.79,0-2.68,0-3.41,0-7,0-10.41.13-7.35,8.37-13,19.16-13,3.74,0,7.49,0,11.24,0h10c10,0,18.75,5.91,18.87,12.61.1,5.78.09,11.65.08,17.34,0,4.4,0,9,0,13.43,0,1.17,0,2-3.42,2h-.41l-2.93,0c-2.78,0-3.43-.21-3.58-.34-.31-.34-.31-2.38-.31-4.18,0-2.19,0-4.38,0-6.56,0-5.72.1-11.63-.19-17.47-.14-2.63-2.15-5.09-4.1-7.15-1.41-1.5-4.62-1.54-5-1.54a6.35,6.35,0,0,0-1.79.22,5.42,5.42,0,0,0-3.44,4.81c-.08,4.63-.1,9.34-.11,13.89,0,4.86,0,9.89-.12,14.83a6.56,6.56,0,0,1-.62,2.65,18.26,18.26,0,0,1-3.2.26,38.13,38.13,0,0,1-4.63-.33,4,4,0,0,1-.4-1.38c-.06-4.3-.06-8.68-.06-12.91,0-4.85,0-9.86-.1-14.79a6.94,6.94,0,0,1,.09-1c.17-1.29.39-3.06-.91-4.51-1-1.12-2.64-1.7-5-1.77h-.28a7.92,7.92,0,0,0-8.15,7.72q0,5.48,0,11c0,5.37,0,10.93-.14,16.39a6.27,6.27,0,0,1-.72,2.47C554.87,62.26,553.87,62.3,552.83,62.3Z"/></svg>