<?xml version="1.0" encoding="utf-8"?>
<!-- Generator: Adobe Illustrator 24.3.0, SVG Export Plug-In . SVG Version: 6.00 Build 0)  -->
<svg version="1.1" id="Layer_1" xmlns="http://www.w3.org/2000/svg" xmlns:xlink="http://www.w3.org/1999/xlink" x="0px" y="0px"
	 viewBox="0 0 50 50" style="enable-background:new 0 0 50 50;" xml:space="preserve">
<style type="text/css">
	.st0{fill:#FFFFFF;}
</style>
<g>
	<g>
		<g>
			<g>
				<path class="st0" d="M31.83,26.36H18.17c-0.75,0-1.36-0.61-1.36-1.36c0-0.75,0.61-1.36,1.36-1.36h13.67
					c0.75,0,1.36,0.61,1.36,1.36C33.19,25.75,32.58,26.36,31.83,26.36z"/>
			</g>
			<g>
				<path class="st0" d="M27.28,30.91c-0.35,0-0.7-0.13-0.96-0.4c-0.53-0.53-0.53-1.39,0-1.92L29.91,25l-3.59-3.59
					c-0.53-0.53-0.53-1.39,0-1.92c0.53-0.53,1.39-0.53,1.92,0l4.56,4.56c0.53,0.53,0.53,1.39,0,1.92l-4.56,4.56
					C27.97,30.78,27.63,30.91,27.28,30.91z"/>
			</g>
		</g>
	</g>
	<g>
		<path class="st0" d="M25,40.33c-8.46,0-15.33-6.88-15.33-15.33c0-8.46,6.88-15.33,15.33-15.33S40.33,16.54,40.33,25
			C40.33,33.46,33.46,40.33,25,40.33z M25,11.31c-7.55,0-13.69,6.14-13.69,13.69c0,7.55,6.14,13.69,13.69,13.69
			c7.55,0,13.69-6.14,13.69-13.69C38.69,17.45,32.55,11.31,25,11.31z"/>
	</g>
</g>
</svg>
