<svg id="Layer_1" data-name="Layer 1" xmlns="http://www.w3.org/2000/svg" viewBox="0 0 360 240"><path id="Path_9460" data-name="Path 9460" d="M234.24,60.89H130.46a6.78,6.78,0,0,0-6.74,6.8V172.31a6.78,6.78,0,0,0,6.74,6.8H234.24a6.78,6.78,0,0,0,6.75-6.8V67.69A6.78,6.78,0,0,0,234.24,60.89ZM130.46,63.66H234.24a4,4,0,0,1,4,4h0v14.4H126.47V67.69a4,4,0,0,1,4-4ZM234.24,176.33H130.46a4,4,0,0,1-4-4V84.87H238.24v87.44a4,4,0,0,1-4,4Z"/><path id="Path_9461" data-name="Path 9461" d="M138.31,78.61a5.31,5.31,0,1,0-3.76-1.55A5.25,5.25,0,0,0,138.31,78.61Zm0-7.76a2.44,2.44,0,1,1-1.74.72A2.47,2.47,0,0,1,138.31,70.85Z"/><path id="Path_9462" data-name="Path 9462" d="M151.7,78.61a5.31,5.31,0,1,0-3.76-1.55A5.31,5.31,0,0,0,151.7,78.61Zm0-7.76a2.44,2.44,0,1,1-1.74.72A2.47,2.47,0,0,1,151.7,70.85Z"/><path id="Path_9463" data-name="Path 9463" d="M165.5,78.61a5.31,5.31,0,1,0-3.76-1.55A5.31,5.31,0,0,0,165.5,78.61Zm0-7.76a2.45,2.45,0,1,1-2.45,2.45h0A2.45,2.45,0,0,1,165.5,70.85Z"/><path id="Path_9464" data-name="Path 9464" d="M174,74.73h54.12a1.43,1.43,0,1,0,0-2.86H174a1.43,1.43,0,1,0,0,2.86Z"/><path id="Path_9465" data-name="Path 9465" d="M227.39,94.19H214.45A1.43,1.43,0,0,0,213,95.62h0v12.9a1.46,1.46,0,0,0,1.44,1.44h12.94a1.45,1.45,0,0,0,1.44-1.43V95.63a1.43,1.43,0,0,0-1.4-1.44h0ZM226,107.09H215.88v-10H226Z"/><path id="Path_9466" data-name="Path 9466" d="M227.39,113.17H214.45A1.43,1.43,0,0,0,213,114.6h0v12.9a1.46,1.46,0,0,0,1.44,1.44h12.94a1.44,1.44,0,0,0,1.44-1.43v-12.9a1.43,1.43,0,0,0-1.4-1.44h0ZM226,126.07H215.88V116H226Z"/><path id="Path_9467" data-name="Path 9467" d="M227.39,132.15H214.45a1.45,1.45,0,0,0-1.44,1.43v12.9a1.43,1.43,0,0,0,1.44,1.44h12.94a1.44,1.44,0,0,0,1.44-1.43v-12.9a1.44,1.44,0,0,0-1.43-1.44ZM226,145.05H215.88V135H226Z"/><path id="Path_9468" data-name="Path 9468" d="M227.39,150.64H214.45a1.44,1.44,0,0,0-1.44,1.43V165a1.46,1.46,0,0,0,1.44,1.44h12.94a1.45,1.45,0,0,0,1.44-1.43v-12.9a1.44,1.44,0,0,0-1.43-1.44ZM226,163.56H215.88v-10H226Z"/><path id="Path_9469" data-name="Path 9469" d="M199.65,103.65h0a1.24,1.24,0,0,0-.15-.6.54.54,0,0,1-.07-.13,2.11,2.11,0,0,0-.35-.38.27.27,0,0,0-.07-.08H199l-.12-.07L169.2,88.87a1.43,1.43,0,0,0-1.18,0l-29.64,13.46-.11.07h-.06c-.06,0,0,.06-.08.08a1.45,1.45,0,0,0-.36.38.75.75,0,0,0-.07.12,1.37,1.37,0,0,0-.16.63h0V140.7a1.43,1.43,0,0,0,.84,1.3l16,7.28-.72,3.84a1.45,1.45,0,0,0,.51,1.4,1.41,1.41,0,0,0,.88.31,1.38,1.38,0,0,0,.6-.13l4.49-2,6.75,15a1.4,1.4,0,0,0,.8.75,1.84,1.84,0,0,0,.52.1,1.35,1.35,0,0,0,.59-.14l7.72-3.48a1.44,1.44,0,0,0,.74-1.88h0l-4.19-9.3L198.85,142a1.42,1.42,0,0,0,.85-1.3v-37ZM168.59,91.74l26.17,11.89-26.17,11.89-26.18-11.89Zm-28.2,48v-33.9L167.15,118v20.68L159.24,134a1.38,1.38,0,0,0-1.32-.08,1.45,1.45,0,0,0-.82,1l-2.16,11.43Zm19.14-2.29,11.75,7-11,5h0L157,150.92Zm9.38,27.68-6.15-13.67,5.1-2.3,2,4.36h0l4.16,9.25Zm27.88-25.39L171.88,151.1,170.5,148l4.49-2a1.45,1.45,0,0,0,.72-1.91,1.42,1.42,0,0,0-.56-.63l-5.1-3V118l26.76-12.17v33.94Z"/></svg>