<svg id="Layer_1" data-name="Layer 1" xmlns="http://www.w3.org/2000/svg" viewBox="0 0 360 240"><g id="noun_3D_printing_2837894" data-name="noun 3D printing 2837894"><g id="Group_6" data-name="Group 6"><path id="Path_38" data-name="Path 38" d="M292.13,20.63H72.2c-12.14,0-22,7.21-22,16.1v161c0,8.89,9.85,16.09,22,16.1H292.13c12.14,0,22-7.21,22-16.1v-161C314.11,27.84,304.27,20.64,292.13,20.63Zm13.2,177.08c0,5.33-5.91,9.65-13.2,9.66H72.2c-7.28,0-13.19-4.33-13.2-9.66v-161c0-5.33,5.91-9.65,13.2-9.66H292.13c7.28,0,13.19,4.33,13.2,9.66Z"/><path id="Path_39" data-name="Path 39" d="M291.8,28.66H72.53c-7.89,0-14.29,4.58-14.3,10.22V195.57c0,5.64,6.41,10.21,14.3,10.22H291.8c7.89,0,14.29-4.58,14.3-10.22V38.88C306.09,33.24,299.69,28.66,291.8,28.66ZM156.89,171.72H93.33L67.76,156.5v-5.22h228.8v6.82H186.93a6.18,6.18,0,0,0-2.64.57Zm20.51-45.9-38.13-10.9v-13.1l38.13,10.9Zm-38.13-3.56,38.13,10.9v9.69L139.27,132Zm47.66,20.59v-9.69l38.13-10.9V132Zm38.13-27.93-38.13,10.9v-13.1l38.13-10.9Zm-38.13-9.54v-5.19H177.4v5.19l-30.07-8.6,30.07-8.59V90c0,1.88,2.13,3.41,4.76,3.41s4.77-1.53,4.77-3.41V88.19L217,96.78Zm0-32.44c0,1.88-2.13,3.41-4.77,3.41s-4.76-1.53-4.76-3.41V69.53h9.53Zm4.77-10.22H172.63V55.91H191.7Zm-28.6-6.81V66.13c0,1.88,2.13,3.4,4.77,3.4v3.41c0,3.54,2.57,6.83,6.8,8.69l-41.94,12c-1.81.52-3,1.77-3,3.16v34.07h-62V55.91ZM67.76,137.66h65.82l23.83,6.81H67.76Zm228.8,6.81H206.92l23.83-6.81h65.82Zm-62-13.62V96.78c0-1.39-1.19-2.64-3-3.16l-41.94-12c4.23-1.86,6.8-5.15,6.8-8.69V69.53c2.64,0,4.77-1.52,4.77-3.4V55.91h95.33v74.94Zm62-92V49.1H206V35.47h85.8c2.63,0,4.76,1.53,4.77,3.41Zm-100.1-3.41V49.1h-28.6V35.47Zm-123.93,0h85.8V49.1H67.76V38.88c0-1.88,2.14-3.41,4.77-3.41Zm-4.77,160.1v-30.2l20.79,12.38a6,6,0,0,0,3,.78h62V199h-81c-2.63,0-4.76-1.52-4.77-3.4Zm224,3.41H163.1V177l25.27-12h108.2v30.66c0,1.88-2.14,3.4-4.77,3.4Z"/><path id="Path_40" data-name="Path 40" d="M230.09,185.72H206a2,2,0,0,0-2,2h0v8a2,2,0,0,0,2,2h24.07a2,2,0,0,0,2-2h0v-8a2,2,0,0,0-2-2Zm-6,4h4v4h-4Zm-4,4h-4v-4h4Zm-12-4h4v4h-4Z"/><path id="Path_41" data-name="Path 41" d="M292.06,185.72a6,6,0,1,0,6,6,6,6,0,0,0-6-6Zm0,8a2,2,0,1,1,2-2,2,2,0,0,1-2,2Z"/><rect id="Rectangle_9" data-name="Rectangle 9" x="211.84" y="66.75" width="4" height="4"/><rect id="Rectangle_10" data-name="Rectangle 10" x="229.71" y="66.75" width="4" height="4"/><rect id="Rectangle_11" data-name="Rectangle 11" x="247.58" y="66.75" width="4" height="4"/><rect id="Rectangle_12" data-name="Rectangle 12" x="290.12" y="66.75" width="8" height="4"/></g></g></svg>