<svg id="Layer_1" data-name="Layer 1" xmlns="http://www.w3.org/2000/svg" viewBox="0 0 360 240"><defs><style>.cls-1,.cls-2{fill:none;stroke:#010101;stroke-linejoin:round;stroke-width:4px;}.cls-2{stroke-linecap:round;}</style></defs><g id="iconfinder_981320_cartesian_enclosed_fdm_printer_icon" data-name="iconfinder 981320 cartesian enclosed fdm printer icon"><path id="Path_9455" data-name="Path 9455" class="cls-1" d="M234,27.61h61.07V211H274.71V196.11H91.52V211H71.16V27.61H218.74"/><path id="Path_9456" data-name="Path 9456" class="cls-1" d="M238.39,81.88h30.4l16.58,6.93v67.93H80.87V88.81l16.58-6.93H221.8"/><g id="Group_11531" data-name="Group 11531"><path id="Path_9457" data-name="Path 9457" class="cls-2" d="M196.84,162.54H150.39a3.47,3.47,0,0,1,0-6.94h65a3.44,3.44,0,0,1,3.47,3.4v.07a3.32,3.32,0,0,1-3.17,3.46H205.15"/></g><line id="Line_17" data-name="Line 17" class="cls-1" x1="131.98" y1="172.99" x2="131.98" y2="170.23"/><line id="Line_18" data-name="Line 18" class="cls-1" x1="233.35" y1="172.99" x2="233.35" y2="170.23"/><rect id="Rectangle_1141" data-name="Rectangle 1141" class="cls-2" x="174.35" y="94.22" width="16.57" height="17.49"/><line id="Line_19" data-name="Line 19" class="cls-1" x1="187.74" y1="86.23" x2="187.74" y2="80.71"/><g id="Group_11532" data-name="Group 11532"><path id="Path_9458" data-name="Path 9458" class="cls-1" d="M178.82,123.26c-.7-1-.28-1.66.83-1.66h6.93c1.11,0,1.53.69.83,1.66l-3,4.3a1.43,1.43,0,0,1-2,.55,1.45,1.45,0,0,1-.55-.55Z"/></g><g id="Group_11533" data-name="Group 11533"><path id="Path_9459" data-name="Path 9459" class="cls-1" d="M199.15,51.18V48.41c0-1.52,2.5-2.77,5.54-2.77h9.7A5.57,5.57,0,0,0,220,40.09V20.68a5.55,5.55,0,0,0-5.55-5.54h-6.93c-3.05,0-5.55,1.94-5.55,4.16v4.16"/></g><line id="Line_20" data-name="Line 20" class="cls-1" x1="81.29" y1="98.17" x2="119.95" y2="98.17"/><line id="Line_21" data-name="Line 21" class="cls-1" x1="246.71" y1="98.17" x2="285.38" y2="98.17"/></g></svg>