**ABCDEFGHIJKLMNOPQRSTUVWXYZabcdefghijklmnopqrstuvwxyz**************************
**PARASOLID !"#$%&'()*+,-./:;<=>?@[\]^_`{|}~0123456789**************************
**PART1;
MC=Intel x86/Windows NT;
MC_MODEL=genuineintel family 6 model 10 stepping 7, intel(r) core(tm) i3-2350m cpu @ 2.30ghz;
MC_ID=ravindra-pc;
OS=windows nt;
OS_RELEASE=6.1 (workstation) (build 7601: service pack 1) ;
FRU=mdc_ugii_v7.0_djl_can_vrh;
APPL=unigraphics;
SITE=unknown;
USER=Ravindra;
FORMAT=text;
GUISE=transmit;
KEY=LONG BOTTOM SAMPLE;
FILE=C:\Users\Ravindra\Desktop\LONG BOTTOM SAMPLE.x_t;
DATE=26-nov-2022;
**PART2;
SCH=SCH_1901198_19008;
USFLD_SIZE=0;
**PART3;
**END_OF_HEADER*****************************************************************
T51 : TRANSMIT FILE created by modeller version 190119823 SCH_1901198_19008_1300
6186 0 12 27 CCCCCCCCCCCCCCCCCCCCCCCA16 index_map_offset0 0 1 dA9 index_map82 0
 A17 node_id_index_map82 0 A20 schema_embedding_map82 0 Z1 1714 2 3 0 0 0 0 1e3
 1e-8 0 0 0 1 0 1 1 4 5 6 7 8 9 10 0 0 0 0 81 255 2 2 1655 11 1 0 0 0 0 12 13 70
 11 CI9 list_type0 0 1 uI10 notransmit0 0 1 lCCCDCCDI12 finger_index0 0 1 dI12 f
inger_block1012 0 CZ3 0 4 T1 0 0 3 20 1 14 14 13 255 4 5 0 1 0 15 0 0 16 0 50 25
5 5 1256 0 17 18 0 0 +-.01235188125134226 .001 0 762384909613841e-31 -1 0 1 7623
84909613841e-31 0 133 255 6 830 0 19 20 0 0 +21 -.00584122023999761 -.0055 -.010
77221388972182 -.00591548484320711 -1388316603876772e-33 -.01084110414440276 -.0
00499884829760718 .00500104791829344 29 255 7 461 0 10 22 0 .00397396692578436 0
 .00904008915181548 19 255 8 3 0 1 16 0 23 V16 255 9 464 0 ?24 0 25 26 0 0 1 18
 255 10 459 0 27 0 28 7 1e-8 1 17 255 27 0 29 30 31 10 32 33 0 24 -18 28 331 0 3
4 10 35 22 1e-8 1 17 34 0 36 37 38 28 39 40 0 41 -18 35 62 0 42 28 43 44 1e-8 1
 29 22 333 0 28 45 7 -.003973966925784365 0 -.00904008915181548 29 45 150 0 43 4
4 22 -.00591548484320711 -1392532787923544e-33 -.01084110414440276 18 43 50 0 38
 35 46 45 1e-8 1 29 44 145 0 35 47 45 .00591548484320711 -490557512421445e-33 -.
01084110414440276 29 47 433 0 46 48 44 .00397396692578436 -462681955036236e-49 -
.00904008915181548 18 46 369 0 49 43 50 47 1e-8 1 29 48 572 0 50 51 47 .00591548
484320711 -696401544617481e-33 .01084110414440278 18 50 511 0 30 46 52 48 1e-8 1
 29 51 573 0 52 53 48 -.00591548484320711 -159837682011958e-32 .0108411041444027
6 18 52 512 0 54 50 55 51 1e-8 1 29 53 574 0 55 56 51 -.00397396692578436 0 .009
04008915181548 18 55 510 0 31 52 57 53 1e-8 1 29 56 771 0 58 59 53 .004153817346
83249 .001 -.00784292206063247 18 58 682 0 60 61 62 56 ?1 29 59 774 0 63 64 56 -
.00415381734683249 .001 -.00784292206063247 18 63 678 0 65 57 66 59 ?1 29 64 775
 0 66 67 59 .00606392528373698 .001 -.0096148001365204 18 66 680 0 68 63 61 64 ?
1 29 67 776 0 62 69 64 .00606392528373698 .001 .0096148001365204 18 62 685 0 70
 58 71 67 ?1 29 69 777 0 61 72 67 -.00606392528373698 .001 -.0096148001365204 18
 61 686 0 73 66 58 69 ?1 29 72 779 0 74 75 69 -.00415381734683249 .001 .00784292
206063247 18 74 683 0 76 71 77 72 ?1 29 75 780 0 71 78 72 -.00606392528373698 .0
01 .0096148001365204 18 71 676 0 79 62 74 75 ?1 29 78 782 0 57 80 75 .0041538173
4683249 .001 .00784292206063247 18 57 684 0 81 55 63 78 ?1 29 80 951 0 77 82 78
 -.00584122023999761 -.0055 .01077221388972182 18 77 910 0 83 74 84 80 ?1 29 82
 953 0 84 85 80 -.00584122023999761 -.0055 -.01077221388972182 18 84 911 0 86 77
 87 82 ?1 29 85 954 0 87 88 82 .00584122023999761 -.0055 -.01077221388972182 18
 87 897 0 89 84 90 85 ?1 29 88 1187 0 91 92 85 .00597781580930415 -.0055 -.00953
492219510886 18 91 1034 0 93 94 95 88 ?1 29 92 1188 0 95 96 88 .0059778158093041
5 -.0055 .00953492219510886 18 95 1033 0 97 91 98 92 ?1 29 96 1191 0 98 99 92 -.
00597781580930415 -.0055 .00953492219510886 18 98 1061 0 100 95 101 96 ?1 29 99
 1192 0 101 102 96 -.00597781580930415 -.0055 -.00953492219510886 18 101 1045 0
 103 98 104 99 ?1 29 102 1195 0 104 105 99 .00584122023999762 -.0055 .0107722138
8972182 18 104 1041 0 106 101 0 102 ?1 29 105 1201 0 90 107 102 -.00415381734683
243 -.021 -.00784292206063238 18 90 1058 0 108 87 109 105 ?1 29 107 1202 0 109 1
10 105 .004153817346832495 -.021 -.00784292206063247 18 109 1057 0 111 90 112 10
7 ?1 29 110 1203 0 112 113 107 .00597781580930415 -.021 -.00953492219510886 18 1
12 1056 0 114 109 115 110 ?1 29 113 1204 0 115 116 110 .00597781580930415 -.021
 .00953492219510886 18 115 1055 0 117 112 118 113 ?1 29 116 1205 0 118 119 113 .
00415381734683244 -.021 .00784292206063237 18 118 1054 0 120 115 121 116 ?1 29 1
19 1206 0 121 122 116 -.004153817346832485 -.021 .00784292206063247 18 121 1053
 0 123 118 124 119 ?1 29 122 1207 0 124 125 119 -.00597781580930415 -.021 .00953
492219510886 18 124 1031 0 126 121 127 122 ?1 29 125 1208 0 127 128 122 -.005977
81580930415 -.021 -.00953492219510886 18 127 1059 0 129 124 130 125 ?1 29 128 12
09 0 130 131 125 -.00397396692578436 -.021 .00904008915181548 18 130 1051 0 132
 127 133 128 ?1 29 131 1210 0 133 134 128 .003973966925784365 -.021 .00904008915
181548 18 133 1050 0 135 130 136 131 ?1 29 134 1211 0 136 137 131 .0058412202399
9762 -.021 .01077221388972182 18 136 1049 0 138 133 139 134 ?1 29 137 1212 0 139
 140 134 .00584122023999761 -.021 -.01077221388972182 18 139 1048 0 141 136 142
 137 ?1 29 140 1213 0 142 143 137 .003973966925784365 -.021 -.00904008915181548
 18 142 1047 0 144 139 145 140 ?1 29 143 1214 0 145 146 140 -.00397396692578436
 -.021 -.00904008915181548 18 145 1046 0 37 142 147 143 ?1 29 146 1215 0 147 148
 143 -.00584122023999761 -.021 -.01077221388972182 18 147 1038 0 149 145 94 146
 ?1 29 148 1216 0 94 0 146 -.00584122023999761 -.021 .01077221388972182 18 94 10
52 0 150 147 91 148 ?1 17 150 0 151 152 153 94 154 155 0 156 +15 255 151 1112 0
 152 157 158 17 152 0 151 159 150 147 160 161 0 162 +17 153 0 151 150 163 130 16
4 165 0 154 +17 154 0 166 167 156 130 150 155 0 0 -16 155 1021 0 ?150 168 165 16
9 0 0 1 17 156 0 166 154 170 94 171 172 0 160 -15 166 857 0 170 173 0 17 170 0 1
66 156 174 77 54 175 0 171 -17 171 0 176 177 160 77 156 172 0 0 +16 172 997 0 ?1
71 178 179 180 0 0 1 17 160 0 176 171 162 94 152 161 0 0 -15 176 1085 0 177 181
 0 17 162 0 176 160 177 147 182 183 0 0 -16 161 1014 0 ?152 184 185 186 0 0 1 16
 184 1015 0 ?159 187 161 188 0 0 1 16 185 1372 0 ?189 161 190 191 0 0 1 31 255 1
86 1184 0 161 191 188 0 +1516431830319265e-33 -.021 -534552942018439e-65 7078194
387301e-29 -1 0 -1 -7078194387301e-29 1224646799147352e-31 .0122539971428948 31
 191 1517 0 185 192 186 0 +481482486096809e-49 -1517883041479705e-33 12037062152
42022e-50 -3526111298696955e-32 1 -380119448945406e-31 .733136660802857 0 -.6800
81345565982 .01935 30 255 188 1183 0 184 186 193 0 +-.00584122023999761 -.021 -.
01077221388972182 .733136660802857 0 .680081345565982 31 193 1182 0 187 188 194
 0 +1422644971348794e-33 -.021 -1336382355046098e-66 7078194387301e-29 -1 0 -1 -
7078194387301e-29 1224646799147352e-31 .009875 16 187 1016 0 ?195 196 184 193 0
 0 1 30 194 1181 0 196 193 197 0 +.00397396692578436 -.021 -.00904008915181548 .
733136660802857 0 -.680081345565982 16 196 1017 0 ?141 198 187 194 0 0 1 31 197
 1180 0 198 194 199 0 +1516431830319265e-33 -.021 -534552942018439e-65 707819438
7301e-29 -1 0 -1 -7078194387301e-29 1224646799147352e-31 .0122539971428948 16 19
8 1018 0 ?138 200 196 197 0 0 1 30 199 1179 0 200 197 201 0 +.00584122023999762
 -.021 .01077221388972182 -.733136660802857 0 -.680081345565982 16 200 1019 0 ?1
63 165 198 199 0 0 1 31 201 1178 0 165 199 169 0 +1422644971348794e-33 -.021 -13
36382355046098e-66 7078194387301e-29 -1 0 -1 -7078194387301e-29 1224646799147352
e-31 .009875 16 165 1020 0 ?153 155 200 201 0 0 1 30 169 1177 0 155 201 202 0 +-
.00397396692578436 -.021 .00904008915181548 -.733136660802857 0 .680081345565982
 31 202 1176 0 168 169 203 0 +10925331861296e-31 -.021 0 0 1 0 1 0 6123233995736
77e-31 .0112538448148509 16 168 1022 0 ?204 205 155 202 0 0 1 30 203 1175 0 205
 202 206 0 +-.00597781580930415 -.021 .00953492219510886 .733136660802857 0 -.68
0081345565982 16 205 1023 0 ?207 208 168 203 0 0 1 31 206 1174 0 208 203 209 0 +
978911880016589e-33 -.021 0 0 1 0 1 0 612323399573677e-31 .008875 16 208 1024 0
 ?210 211 205 206 0 0 1 30 209 1173 0 211 206 212 0 +.004153817346832495 -.021 .
00784292206063247 .733136660802857 0 .680081345565982 16 211 1025 0 ?117 213 208
 209 0 0 1 31 212 1172 0 213 209 214 0 +10925331861296e-31 -.021 0 0 1 0 1 0 612
323399573677e-31 .0112538448148509 16 213 1026 0 ?114 215 211 212 0 0 1 30 214 1
171 0 215 212 216 0 +.00597781580930415 -.021 -.00953492219510886 -.733136660802
857 0 .680081345565982 16 215 1027 0 ?217 218 213 214 0 0 1 31 216 1170 0 218 21
4 219 0 +978911880016589e-33 -.021 0 0 1 0 1 0 612323399573677e-31 .008875 16 21
8 1028 0 ?220 179 215 216 0 0 1 30 219 1169 0 179 216 221 0 +-.00415381734683241
5 -.021 -.0078429220606324 -.733136660802857 0 -.680081345565982 16 179 1029 0 ?
129 172 218 219 0 0 1 30 221 1150 0 222 219 223 0 +.00597781580930415 -.021 -.00
953492219510886 -7078194387301e-29 1 0 16 222 993 0 ?224 225 226 221 0 0 1 30 22
3 1149 0 225 221 227 0 +.00597781580930415 -.021 .00953492219510886 -70781943873
01e-29 1 0 16 225 991 0 ?228 229 222 223 0 0 1 30 227 1146 0 229 223 230 0 +-.00
597781580930415 -.021 .00953492219510886 -7078194387301e-29 1 0 16 229 985 0 ?10
0 231 225 227 0 0 1 30 230 1145 0 226 227 232 0 +-.00597781580930415 -.021 -.009
53492219510886 -7078194387301e-29 1 0 16 226 983 0 ?103 222 183 230 0 0 1 30 232
 1142 0 178 230 233 0 +.00584122023999762 -.021 .01077221388972182 -707819438730
1e-29 1 0 16 178 1007 0 ?234 235 172 232 0 0 1 30 233 1141 0 235 232 236 0 +.005
84122023999761 -.021 -.01077221388972182 -7078194387301e-29 1 0 16 235 1005 0 ?2
37 183 178 233 0 0 1 30 236 1138 0 183 233 180 0 +-.00584122023999761 -.021 -.01
077221388972182 -7078194387301e-29 1 0 16 183 999 0 ?182 226 235 236 0 0 1 30 18
0 1137 0 172 236 238 0 +-.00584122023999761 -.021 .01077221388972182 -7078194387
301e-29 1 0 31 238 935 0 231 180 239 0 -4193117002876125e-34 -.0055 0 -762384909
613841e-31 1 0 -1 -762384909613841e-31 0 .0122539971428948 16 231 890 0 ?240 241
 229 238 0 0 1 31 239 934 0 241 238 242 0 -4193117002876125e-34 -.0055 0 -762384
909613841e-31 1 0 -1 -762384909613841e-31 0 .0122539971428948 16 241 889 0 ?177
 243 231 239 0 0 1 30 242 767 0 244 239 245 0 +.004153817346832405 .001 .0078429
2206063239 762384909613841e-31 -1 0 16 244 653 0 ?120 246 247 242 0 0 1 31 245 7
66 0 248 242 249 0 +-76238490961389e-33 .001 0 762384909613841e-31 -1 0 1 762384
909613841e-31 0 .008875 16 248 649 0 ?250 251 243 245 0 0 1 30 249 765 0 247 245
 252 0 +-.004153817346832405 .001 .00784292206063239 762384909613841e-31 -1 0 16
 247 650 0 ?123 244 253 249 0 0 1 30 252 763 0 243 249 254 0 +-.0046497668549584
5 .001 .00830298091030141 -.733136660802857 -558932326880779e-31 .68008134556598
2 16 243 651 0 ?255 248 241 252 0 0 1 38 255 254 762 0 256 252 257 0 +258 259 26
0 261 262 16 256 663 0 ?79 263 264 254 0 0 1 31 257 759 0 263 254 265 0 +-762384
90961384e-33 .001 0 762384909613841e-31 -1 0 1 762384909613841e-31 0 .0113673027
368843 52 255 258 740 0 266 267 259 268 +3798619096764975e-34 -.0049825475935627
2 0 -762384909613841e-31 1 0 .0112628769802025 .0174524064372828 .99984769515639
1 -1 -762384909613841e-31 0 50 259 739 0 269 258 270 271 +-.00465404827135035 .0
483714100858167 .00830695249101262 .680081345565982 518483755169381e-31 .7331366
60802857 .733136660802857 0 -.680081345565982 40 255 2 260 0 1 2 424436212970248
e-22 1298763654376414e-20 ??-.00597781580930415 -.0055 .00953492219510886 -.0060
6392528373698 .001 .0096148001365204 41 255 1 261 L-.00597781580930415 -.0055 .0
0953492219510886 41 1 262 L-.00606392528373698 .001 .0096148001365204 14 255 269
 694 272 ?273 274 275 4 259 -0 0 273 274 23 50 270 738 0 273 259 276 277 +.00465
404827135034 .0483714100858167 .00830695249101262 -.680081345565982 -51848375516
9381e-31 .733136660802857 .733136660802857 0 .680081345565982 141 255 271 254 27
1 271 259 14 273 697 278 ?279 269 280 4 270 -0 0 279 269 23 50 276 737 0 281 270
 282 283 +.00465404827135034 .0483714100858167 -.00830695249101262 .680081345565
982 518483755169381e-31 .733136660802857 .733136660802857 0 -.680081345565982 14
1 277 284 277 277 270 38 284 753 0 285 286 287 0 +258 270 288 289 290 16 285 666
 0 ?97 291 292 284 0 0 1 30 286 754 0 251 293 284 0 +-.00464976685495845 .001 -.
00830298091030141 -.733136660802857 -558932326880779e-31 -.680081345565982 31 28
7 751 0 294 284 295 0 +4193117002876125e-34 -.0055 0 762384909613841e-31 -1 0 1
 762384909613841e-31 0 .0112538448148509 40 2 288 0 1 2 4244362129765275e-23 129
8763654384268e-20 ??.00606392528373698 .001 .0096148001365204 .00597781580930415
 -.0055 .00953492219510886 41 1 289 L.00606392528373698 .001 .0096148001365204 4
1 1 290 L.00597781580930415 -.0055 .00953492219510886 16 294 670 0 ?296 297 291
 287 0 0 1 38 295 750 0 253 287 298 0 +258 276 299 300 301 16 253 657 0 ?93 247
 302 295 0 0 1 30 298 748 0 297 295 303 0 +.004153817346832405 .001 -.0078429220
6063239 762384909613841e-31 -1 0 40 2 299 0 1 2 4244362129765275e-23 12987636543
84268e-20 ??.00606392528373698 .001 -.0096148001365204 .00597781580930415 -.0055
 -.00953492219510886 41 1 300 L.00606392528373698 .001 -.0096148001365204 41 1 3
01 L.00597781580930415 -.0055 -.00953492219510886 16 297 673 0 ?111 304 294 298
 0 0 1 31 303 747 0 291 298 305 0 +4193117002876125e-34 -.0055 0 762384909613841
e-31 -1 0 1 762384909613841e-31 0 .0112538448148509 16 291 669 0 ?306 294 285 30
3 0 0 1 30 305 744 0 304 303 307 0 +-.004153817346832405 .001 -.0078429220606323
9 762384909613841e-31 -1 0 16 304 654 0 ?108 302 297 305 0 0 1 38 307 743 0 302
 305 308 0 +258 282 309 310 311 16 302 656 0 ?73 253 304 307 0 0 1 30 308 568 0
 1 307 312 313 +-.00930832407208542 -185704176300385e-32 -.00328099478380184 -.7
33136660802857 -55893232688078e-30 -.680081345565982 50 282 736 0 279 276 314 31
5 +-.00465404827135035 .0483714100858167 -.00830695249101262 -.680081345565982 -
518483755169381e-31 .733136660802857 .733136660802857 0 .680081345565982 40 2 30
9 0 1 2 424436212970248e-22 1298763654376414e-20 ??-.00597781580930415 -.0055 -.
00953492219510886 -.00606392528373698 .001 -.0096148001365204 41 1 310 L-.005977
81580930415 -.0055 -.00953492219510886 41 1 311 L-.00606392528373698 .001 -.0096
148001365204 14 279 700 316 ?281 273 317 4 282 +0 0 281 273 23 51 255 314 735 0
 274 282 318 0 +-3687763310616945e-33 .0483714100858167 0 762384909613841e-31 -1
 0 .008875 1 762384909613841e-31 0 141 315 307 315 315 282 14 274 691 319 ?269 3
20 321 4 314 -0 0 269 320 23 51 318 731 0 322 314 323 0 --3687763310616945e-33 .
0483714100858167 0 762384909613841e-31 -1 0 .008875 1 762384909613841e-31 0 14 3
22 726 324 ?325 326 327 4 318 +0 0 325 326 23 50 323 114 0 328 318 329 330 +-.00
3973966925784365 .0483714100858167 -.00904008915181548 -.680081345565982 -518483
755169381e-31 .733136660802857 .733136660802857 0 .680081345565982 14 328 94 331
 ?332 333 36 4 323 -0 0 332 333 23 51 329 115 0 320 323 334 0 --3687763310616945
e-33 .0483714100858167 0 762384909613841e-31 -1 0 .009875 1 762384909613841e-31
 0 141 330 21 330 330 323 38 21 452 0 1 335 336 337 +338 323 339 340 341 133 335
 450 0 342 343 21 0 +344 -.00591548484320711 -1392532787923544e-33 .010841104144
40276 -.00591548484320711 -1392532787923544e-33 -.01084110414440276 2.0702962579
5064 4.21288904922895 133 336 462 0 345 21 26 0 +346 .00397396692578436 0 .00904
008915181548 .003973966925784365 -.021 .00904008915181548 .0483714100858167 .069
3714100858167 141 337 6 337 337 21 52 338 157 0 347 334 348 349 +381192454806920
5e-34 -.005 0 -762384909613841e-31 1 0 .0122627246753589 .0174524064372828 .9998
47695156391 -1 -762384909613841e-31 0 40 3 339 -.018983765073641 1.0000000004011
42 3 573145101458169e-21 594724509154716e-19 ??-.00559118340983409 -.02398073356
123965 -.01054027161621386 -.00584797158989486 -.0050002 -.01077847666086394 -.0
0591548754254902 199999999999361e-21 -.01084110664839988 41 1 340 L-.00559118340
983409 -.02398073356123965 -.01054027161621386 41 1 341 L-.00591548754254902 199
999999999361e-21 -.01084110664839988 14 347 78 350 ?351 352 353 4 338 +351 351 3
51 352 23 50 334 116 0 332 329 338 354 +.00397396692578436 .0483714100858167 -.0
0904008915181548 .680081345565982 518483755169381e-31 .733136660802857 .73313666
0802857 0 -.680081345565982 50 348 158 0 352 338 355 0 +-.01235188125134226 -208
907796950508e-32 0 762384909613841e-31 -1 0 1 762384909613841e-31 0 141 349 356
 357 358 338 38 356 448 0 1 359 343 360 +338 334 361 362 363 141 357 21 364 349
 338 141 358 365 349 364 338 38 365 593 0 1 366 20 367 +338 368 369 370 371 141
 364 366 358 357 338 38 366 589 0 1 372 365 373 +338 18 374 375 376 133 372 588
 0 377 378 366 0 +366 .00591548484320711 -573690445103972e-33 .01084110414440276
 .00584122023999762 -.0055 .01077221388972182 2000338882450015e-22 .005501132781
94236 141 373 372 373 373 366 50 18 162 0 333 368 5 379 +.00397396692578436 .048
3714100858167 .00904008915181548 -.680081345565982 -518483755169381e-31 .7331366
60802857 .733136660802857 0 .680081345565982 40 3 374 0 1 3 573145101460592e-21
 594724509155489e-19 ??.00591548754254902 200000000000052e-21 .01084110664839988
 .00584797158989486 -.0050002 .01077847666086394 .0055911834098341 -.02398073356
123965 .01054027161621386 41 1 375 L.00591548754254902 200000000000052e-21 .0108
4110664839988 41 1 376 L.0055911834098341 -.02398073356123965 .01054027161621386
 14 333 110 380 ?328 173 381 4 18 +0 0 328 173 23 50 368 161 0 173 355 18 382 +-
.003973966925784365 .0483714100858167 .00904008915181548 .680081345565982 518483
755169381e-31 .733136660802857 .733136660802857 0 -.680081345565982 141 379 366
 379 379 18 14 173 106 383 ?333 384 166 4 368 +0 0 333 384 23 51 355 160 0 384 3
48 368 0 +-3687763310616945e-33 .0483714100858167 0 762384909613841e-31 -1 0 .00
9875 1 762384909613841e-31 0 141 382 365 382 382 368 14 384 102 385 ?173 15 386
 4 355 +0 0 173 15 23 81 1 385 1662 387 384 388 0 389 383 390 14 15 1585 389 ?38
4 0 391 4 392 +0 0 384 0 23 15 386 861 0 132 384 0 13 23 4 0 0 0 0 0 0 8 15 17 1
32 0 386 164 32 130 167 393 0 153 +17 164 0 386 394 132 133 153 165 0 0 -17 32 0
 386 132 394 55 27 33 0 167 +17 167 0 166 174 154 55 132 393 0 0 -16 393 38 0 ?1
32 345 395 396 0 0 1 16 345 41 0 ?135 25 393 336 0 0 1 16 395 35 0 ?397 393 19 3
59 0 0 1 133 396 475 0 393 26 378 0 +398 -.00397396692578436 0 .0090400891518154
8 -.00397396692578436 -.021 .00904008915181548 .0483714100858167 .06937141008581
67 133 26 466 0 9 336 396 0 +308 .0059154848432071 -696401544617482e-33 .0108411
0414440276 .00397396692578436 651668393349909e-32 .00904008915181548 -.020765308
47416765 -.01811707381175615 133 378 585 0 33 396 372 0 +399 .00397396692578436
 3029692415522505e-34 .00904008915181548 -.003973966925784365 -3029692415522505e
-34 .00904008915181548 1.15662983827462 1.984962815315175 30 398 163 0 1 400 346
 401 +-.003973966925784365 .0483714100858167 .00904008915181548 762384909613841e
-31 -1 0 30 400 130 0 1 402 398 403 +.003973966925784355 .0483714100858167 -.009
04008915181548 762384909613841e-31 -1 0 30 346 164 0 1 398 344 404 +.00397396692
578436 .0483714100858167 .00904008915181548 762384909613841e-31 -1 0 141 401 396
 401 401 398 31 344 178 0 1 346 405 406 +717819814211608e-49 -941545150172495e-3
3 0 762384909613841e-31 -1 0 1 762384909613841e-31 0 .01235 141 404 336 404 404
 346 133 405 321 0 407 344 408 0 +400 .00397396692578436 0 -.00904008915181548 .
003973966925784365 -.021 -.00904008915181548 .0483714100858167 .0693714100858167
 141 406 343 409 409 344 133 343 449 0 410 356 335 0 +344 .0059154848432071 -490
557512421445e-33 -.01084110414440276 .00591548484320711 -490557512421445e-33 .01
084110414440276 5.21188891154043 7.35448170281874 141 409 335 406 406 344 16 410
 16 0 ?411 377 342 343 0 0 1 17 411 0 412 106 413 50 414 410 0 415 +16 377 17 0
 ?106 407 410 372 0 0 1 16 342 15 0 ?416 410 175 335 0 0 1 17 416 0 353 86 54 43
 417 342 0 39 +16 175 14 0 ?54 342 418 20 0 0 1 17 54 0 353 416 83 52 170 175 0
 174 +16 418 365 0 ?419 175 40 420 0 0 1 133 20 826 0 175 365 6 0 +365 -.0058412
2023999761 -.0055 .01077221388972182 -.00591548484320711 -159416061304632e-32 .0
1084110414440276 -.000499884829760718 .00500104791829344 17 419 0 421 144 41 46
 422 418 0 423 +16 40 357 0 ?39 418 33 424 0 0 1 133 420 444 0 418 425 359 0 +42
6 -.00397396692578436 -30296924155225e-32 -.00904008915181548 .00397396692578436
 3029692415522505e-34 -.00904008915181548 4.29822249186441 5.12655546890497 133
 425 334 0 427 408 420 0 +402 -.003973966925784365 0 -.00904008915181548 -.00397
396692578436 -.021 -.00904008915181548 .0483714100858167 .0693714100858167 133 3
59 447 0 395 420 356 0 +356 .00591548484320711 -458109908790208e-33 -.0108411041
4440276 .00584122023999762 -.0055 -.01077221388972182 2000338882453765e-22 .0055
0113278194236 31 426 419 0 1 428 424 429 +0 0 0 762384909613841e-31 -1 0 1 76238
4909613841e-31 0 .009875 30 428 423 0 1 430 426 431 +-.00930832407208542 -185704
176300385e-32 .00328099478380184 -.733136660802857 -55893232688078e-30 .68008134
5565982 133 424 415 0 40 426 402 0 +430 -.00397396692578436 -1450358423920782e-3
3 -.00904008915181548 -.00591548484320711 -159837682011958e-32 -.010841104144402
76 583986127117151e-20 .00265407452368267 141 429 420 429 429 426 30 402 129 0 1
 424 400 432 +-.003973966925784365 .0483714100858167 -.00904008915181548 7623849
09613841e-31 -1 0 30 430 424 0 1 433 428 434 +-.00396968550939246 -1450032015195
886e-33 -.00903611757110427 -.733136660802857 -55893232688078e-30 -.680081345565
982 133 433 558 0 435 399 430 0 +312 -.00397396692578436 -1450358423920782e-33 .
00904008915181548 -.00591548484320711 -159837682011958e-32 .01084110414440276 58
3986127117215e-20 .00265407452368267 141 434 424 434 434 430 16 435 504 0 ?174 3
3 436 433 0 0 1 31 399 560 0 1 312 433 437 +0 0 0 762384909613841e-31 -1 0 1 762
384909613841e-31 0 .009875 30 312 566 0 1 308 399 438 +-.00396968550939246 -1450
032015195886e-33 .00903611757110427 -.733136660802857 -55893232688078e-30 .68008
1345565982 141 438 433 438 438 312 141 437 378 437 437 399 17 174 0 166 170 167
 52 31 435 0 417 +16 33 502 0 ?32 40 435 378 0 0 1 16 436 652 0 ?439 435 246 265
 0 0 1 17 439 0 440 250 441 57 70 436 0 442 +16 246 661 0 ?443 436 244 444 0 0 1
 30 265 758 0 436 257 445 0 +-.00862824272651943 .001 -.0040141314446047 -.73313
6660802857 -558932326880779e-31 -.680081345565982 31 445 757 0 292 265 444 0 +-7
6238490961384e-33 .001 0 762384909613841e-31 -1 0 1 762384909613841e-31 0 .01136
73027368843 16 292 665 0 ?441 285 263 445 0 0 1 30 444 756 0 246 445 293 0 +-.00
862824272651943 .001 .0040141314446047 -.733136660802857 -558932326880779e-31 .6
80081345565982 31 293 755 0 264 444 286 0 +-76238490961389e-33 .001 0 7623849096
13841e-31 -1 0 1 762384909613841e-31 0 .008875 16 264 672 0 ?446 256 251 293 0 0
 1 17 446 0 440 68 65 58 447 264 0 443 +16 251 662 0 ?448 264 248 286 0 0 1 17 4
48 0 317 449 450 61 65 251 0 0 +15 317 1292 0 448 279 0 17 449 0 317 451 448 101
 73 302 0 0 -17 450 0 317 448 452 63 108 304 0 447 -17 65 0 440 446 453 63 448 2
51 0 450 -15 440 713 0 453 17 0 17 453 0 440 65 255 61 454 263 0 448 +17 255 0 4
40 453 250 71 76 243 0 454 +17 454 0 455 456 73 71 453 263 0 0 -16 263 664 0 ?45
3 292 256 257 0 0 1 15 455 716 0 306 266 0 17 456 0 455 306 454 98 79 256 0 0 -1
7 73 0 455 454 306 61 449 302 0 453 +17 306 0 455 73 456 101 457 291 0 449 +17 4
57 0 458 459 103 98 306 291 0 456 -15 458 1064 0 457 325 0 17 459 0 458 460 457
 124 100 229 0 0 -17 103 0 458 457 460 101 451 226 0 306 +17 460 0 458 103 459 1
27 204 168 0 0 -17 451 0 317 452 449 127 103 226 0 460 -17 452 0 317 450 451 90
 129 179 0 0 -17 129 0 158 204 220 127 452 179 0 451 +15 158 1113 0 204 157 0 17
 204 0 158 207 129 124 460 168 0 459 +17 220 0 158 129 217 90 461 218 0 452 +17
 217 0 158 220 114 109 462 215 0 461 +17 461 0 327 60 108 109 220 218 0 0 -15 32
7 1268 0 108 322 0 17 60 0 327 447 461 58 111 297 0 446 -17 108 0 327 461 447 90
 450 304 0 220 +17 447 0 327 108 60 63 446 264 0 0 -17 111 0 463 462 443 109 60
 297 0 217 +15 463 1286 0 111 281 0 17 462 0 463 224 111 112 217 215 0 0 -17 443
 0 463 111 464 58 68 246 0 0 +17 464 0 463 443 224 66 93 253 0 465 -17 68 0 440
 441 446 66 443 246 0 464 -17 441 0 440 439 68 62 465 292 0 466 +17 465 0 467 93
 466 66 441 292 0 0 -17 466 0 467 465 296 62 97 285 0 0 -15 467 719 0 465 326 0
 17 296 0 467 466 93 95 468 294 0 0 +17 97 0 280 469 70 95 466 285 0 228 +15 280
 699 0 97 273 0 17 469 0 280 470 97 115 228 225 0 471 -17 70 0 280 97 442 62 439
 436 0 441 -17 228 0 472 468 471 95 469 225 0 296 +15 472 1076 0 468 473 0 17 46
8 0 472 474 228 91 296 294 0 224 -17 471 0 472 228 474 115 114 213 0 0 -17 474 0
 472 471 468 112 224 222 0 462 -17 114 0 158 217 117 112 471 213 0 474 +17 117 0
 158 114 210 115 470 211 0 469 +17 210 0 158 117 207 118 475 208 0 470 +17 470 0
 280 442 469 118 117 211 0 0 -17 442 0 280 70 470 57 120 244 0 0 -17 120 0 321 4
75 81 118 442 244 0 210 +15 321 693 0 120 274 0 17 475 0 321 476 120 121 210 208
 0 0 -17 81 0 321 120 476 57 250 248 0 439 -17 476 0 321 81 475 74 123 247 0 0 -
17 250 0 440 255 439 74 81 248 0 476 +17 123 0 275 126 76 121 476 247 0 207 +15
 275 696 0 123 269 0 17 126 0 275 100 123 124 207 205 0 204 -17 76 0 275 123 79
 74 255 243 0 250 -17 207 0 158 210 204 121 126 205 0 475 +17 79 0 275 76 100 71
 456 256 0 255 +17 100 0 275 79 126 98 459 229 0 457 +17 224 0 463 464 462 91 47
4 222 0 0 +14 473 1074 477 ?181 325 472 4 478 -0 0 181 325 23 81 1 477 1700 387
 473 479 0 480 481 482 14 181 1083 481 ?483 473 176 4 267 -0 0 483 473 23 14 325
 1062 480 ?473 322 458 4 484 -0 0 473 322 23 51 478 1131 0 473 485 484 0 +109253
31861296e-31 -.021 0 -7078194387301e-29 1 0 .0112538448148509 -1 -7078194387301e
-29 0 50 485 1136 0 157 486 478 0 +1516431830319265e-33 -.021 -534552942018439e-
65 7078194387301e-29 -1 0 1 7078194387301e-29 0 51 484 1127 0 325 478 487 0 +109
25331861296e-31 -.021 0 -7078194387301e-29 1 0 .0112538448148509 -1 -70781943873
01e-29 0 51 487 1123 0 483 484 267 0 -1516431830319265e-33 -.021 -53455294201843
9e-65 -7078194387301e-29 1 0 .0122539971428948 -1 -7078194387301e-29 0 14 483 10
95 488 ?157 181 489 4 487 -0 0 157 181 23 51 267 1119 0 181 487 258 0 -151643183
0319265e-33 -.021 -534552942018439e-65 -7078194387301e-29 1 0 .0122539971428948
 -1 -7078194387301e-29 0 81 1 488 1704 387 483 490 0 481 491 492 14 157 1110 491
 ?493 483 151 4 485 +0 0 493 483 23 15 489 1097 0 240 483 0 17 240 0 489 494 237
 104 89 231 0 234 +17 494 0 489 495 240 136 234 178 0 496 -17 237 0 489 240 495
 87 497 235 0 0 +17 89 0 412 413 106 87 240 231 0 397 -17 234 0 381 415 496 104
 494 178 0 0 +15 381 849 0 135 333 0 17 415 0 381 24 234 50 106 377 0 0 -17 496
 0 381 234 135 136 163 200 0 0 -17 135 0 381 496 24 133 394 345 0 163 +17 163 0
 151 153 138 133 496 200 0 164 +17 138 0 151 163 141 136 495 198 0 494 +17 141 0
 151 138 195 139 498 196 0 497 +17 495 0 489 237 494 139 138 198 0 0 -17 195 0 1
51 141 159 142 499 187 0 498 +17 498 0 500 49 497 142 141 196 0 0 -17 497 0 500
 498 397 139 237 235 0 495 -15 500 324 0 397 332 0 17 397 0 500 497 42 87 413 39
5 0 237 +17 42 0 500 397 49 35 423 25 0 413 -17 413 0 412 411 89 35 397 395 0 41
4 -15 412 821 0 89 351 0 17 414 0 29 423 30 35 411 410 0 0 -15 29 74 0 417 352 5
01 17 423 0 29 422 414 46 42 25 0 0 +17 30 0 29 414 27 50 24 9 0 411 -17 24 0 38
1 135 415 10 30 9 0 394 +17 394 0 386 32 164 10 135 345 0 0 -17 422 0 29 39 423
 28 419 418 0 0 -16 25 323 0 ?423 9 345 408 0 0 1 133 408 325 0 25 405 425 0 +42
8 .0059154848432071 -696401544617482e-33 -.01084110414440276 .00397396692578436
 -462681955036236e-49 -.00904008915181548 -.02076530847416765 -.0181170738117561
5 17 39 0 29 417 422 43 34 40 0 0 +17 417 0 29 31 39 52 416 342 0 0 -17 31 0 29
 27 417 55 174 435 0 32 -14 352 72 502 ?347 332 29 4 348 +0 0 347 332 23 15 501
 1452 0 503 352 0 17 503 0 501 503 503 0 189 185 0 0 -17 189 0 504 189 189 0 503
 185 0 0 +15 504 1444 0 189 493 505 14 493 1442 506 ?507 157 504 4 486 +0 0 507
 157 23 15 505 1579 0 508 493 0 17 508 0 505 508 508 0 509 190 0 0 -17 509 0 391
 509 509 0 508 190 0 0 +16 190 1575 0 ?509 185 510 511 0 0 1 16 510 1576 0 ?512
 190 513 192 0 0 1 31 511 1601 0 190 514 192 0 +-141044451947878e-33 .004 -15204
77795781625e-34 -3526111298696955e-32 1 -380119448945406e-31 .733136660802857 0
 -.680081345565982 .01935 31 514 1646 0 515 516 511 0 +0 .004 0 0 1 0 1 0 612323
399573677e-31 .01875 31 192 1598 0 510 511 191 0 +782409039907315e-49 .001 36111
1864572607e-49 -3526111298696955e-32 1 -380119448945406e-31 .733136660802857 0 -
.680081345565982 .0176 16 515 1620 0 ?517 518 0 514 0 0 1 31 516 1647 0 513 519
 514 0 +0 .0105 0 0 1 0 1 0 612323399573677e-31 .0176 16 513 1621 0 ?520 510 518
 516 0 0 1 31 519 1648 0 518 0 516 0 +0 .0105 0 0 1 0 1 0 612323399573677e-31 .0
1875 16 518 1622 0 ?521 513 515 519 0 0 1 17 521 0 522 521 521 0 523 518 0 0 +15
 522 1634 0 521 524 525 17 523 0 526 523 523 0 521 518 0 0 -15 526 1626 0 523 52
7 528 14 527 1624 529 ?524 507 526 4 530 -0 0 524 507 23 15 528 1627 0 517 527 0
 17 517 0 528 517 517 0 531 515 0 0 +17 531 0 532 531 531 0 517 515 0 0 -15 532
 1610 0 531 15 0 81 1 529 1712 387 527 533 0 534 535 536 14 524 1632 535 ?0 527
 522 4 537 +0 0 0 527 23 14 507 1581 534 ?527 493 538 4 539 +0 0 527 493 23 51 5
30 1641 0 527 537 392 0 -0 .0105 0 0 -1 0 .01875 0 0 -1 50 537 1644 0 524 0 530
 0 +0 .0105 0 0 1 0 0 0 1 50 392 1597 0 15 530 539 0 +-1234138954543932e-34 .004
 -133041807130892e-33 -3526111298696955e-32 1 -380119448945406e-31 0 38011944894
5406e-31 1 51 539 1595 0 507 392 486 0 --1057833389609084e-34 .004 -114035834683
6216e-34 3526111298696955e-32 -1 380119448945406e-31 .0176 0 -380119448945406e-3
1 -1 51 486 1459 0 493 539 485 0 +481482486096809e-49 -1517883041479705e-33 1203
706215242022e-50 -3526111298696955e-32 1 -380119448945406e-31 .01935 0 380119448
945406e-31 1 81 1 534 1710 387 507 540 0 506 529 541 15 538 1584 0 542 507 543 1
7 542 0 538 542 542 0 512 510 0 0 -15 543 1630 0 520 507 0 17 520 0 543 520 520
 0 544 513 0 0 +17 544 0 525 544 544 0 520 513 0 0 -15 525 1635 0 544 524 0 17 5
12 0 545 512 512 0 542 510 0 0 +15 545 1561 0 512 17 440 14 17 87 546 ?320 351 5
45 4 5 -0 0 320 351 23 81 1 546 1678 387 17 547 0 548 549 550 14 320 90 549 ?274
 17 421 4 329 -0 0 274 17 23 14 351 81 548 ?17 347 412 4 338 +347 347 17 347 23
 81 1 548 1676 387 351 551 0 350 546 552 80 255 1 387 0 553 8001 0 0 0 0 3 5 0 0
 0 FFFFTFTFFFFFFF2 81 1 551 1675 554 351 0 548 555 547 556 81 1 350 1674 387 347
 555 0 502 548 557 83 255 3 552 .5960784 .6666667 .6862745 81 1 555 1673 554 347
 0 350 558 551 559 81 1 502 1672 387 352 558 0 560 350 561 83 3 557 .5960784 .66
66667 .6862745 81 1 558 1671 554 352 0 502 562 555 563 81 1 560 1670 387 332 562
 0 331 502 564 83 3 561 .5960784 .6666667 .6862745 14 332 98 560 ?352 328 500 4
 334 -0 0 352 328 23 81 1 562 1669 554 332 0 560 565 558 566 81 1 331 1668 387 3
28 565 0 380 560 567 83 3 564 .5960784 .6666667 .6862745 81 1 565 1667 554 328 0
 331 568 562 569 81 1 380 1666 387 333 568 0 383 331 570 83 3 567 .5960784 .6666
667 .6862745 81 1 568 1665 554 333 0 380 571 565 572 81 1 383 1664 387 173 571 0
 385 380 573 83 3 570 .5960784 .6666667 .6862745 81 1 571 1663 554 173 0 383 388
 568 574 83 3 573 .5960784 .6666667 .6862745 80 1 554 575 576 8015 0 0 0 0 3 5 0
 0 0 FFFFTFFFFFFFFF2 81 1 388 1661 554 384 0 385 577 571 578 83 1 574 0 81 1 577
 1659 554 15 0 389 0 388 579 83 1 578 0 81 1 389 1660 387 15 577 0 0 385 580 83
 1 579 0 83 3 580 .5960784 .6666667 .6862745 79 255 21 576 SDL/TYSA_TRANSLUCENCY
83 1 572 0 83 1 569 0 83 1 566 0 83 1 563 0 83 1 559 0 81 1 547 1677 554 17 0 54
6 551 581 582 83 1 556 0 81 1 581 1679 554 320 0 549 547 583 584 83 1 582 0 81 1
 549 1680 387 320 581 0 546 319 585 81 1 583 1681 554 274 0 319 581 586 587 83 1
 584 0 81 1 319 1682 387 274 583 0 549 272 588 81 1 586 1683 554 269 0 272 583 5
89 590 83 1 587 0 81 1 272 1684 387 269 586 0 319 278 591 81 1 589 1685 554 273
 0 278 586 592 593 83 1 590 0 81 1 278 1686 387 273 589 0 272 316 594 81 1 592 1
687 554 279 0 316 589 595 596 83 1 593 0 81 1 316 1688 387 279 592 0 278 597 598
 81 1 595 1689 554 281 0 597 592 599 600 83 1 596 0 14 281 703 597 ?266 279 463
 4 276 +0 0 266 279 23 81 1 597 1690 387 281 595 0 316 601 602 81 1 599 1691 554
 266 0 601 595 603 604 83 1 600 0 14 266 714 601 ?326 281 455 4 258 -326 326 326
 281 23 81 1 601 1692 387 266 599 0 597 605 606 81 1 603 1693 554 326 0 605 599
 607 608 83 1 604 0 14 326 717 605 ?322 266 467 4 258 -266 266 322 266 23 81 1 6
05 1694 387 326 603 0 601 324 609 81 1 607 1695 554 322 0 324 603 610 611 83 1 6
08 0 81 1 324 1696 387 322 607 0 605 480 612 81 1 610 1697 554 325 0 480 607 479
 613 83 1 611 0 81 1 480 1698 387 325 610 0 324 477 614 81 1 479 1699 554 473 0
 477 610 615 616 83 1 613 0 81 1 615 1701 554 181 0 481 479 490 617 83 1 616 0 8
1 1 481 1702 387 181 615 0 477 488 618 81 1 490 1703 554 483 0 488 615 619 620 8
3 1 617 0 81 1 619 1705 554 157 0 491 490 621 622 83 1 620 0 81 1 491 1706 387 1
57 619 0 488 506 623 81 1 621 1707 554 493 0 506 619 540 624 83 1 622 0 81 1 506
 1708 387 493 621 0 491 534 625 81 1 540 1709 554 507 0 534 621 533 626 83 1 624
 0 81 1 533 1711 554 527 0 529 540 627 628 83 1 626 0 81 1 627 1713 554 524 0 53
5 533 0 629 83 1 628 0 81 1 535 1714 387 524 627 0 529 0 630 83 1 629 0 83 3 630
 .5960784 .6666667 .6862745 83 3 625 .5960784 .6666667 .6862745 83 3 623 .596078
4 .6666667 .6862745 83 3 618 .5960784 .6666667 .6862745 83 3 614 .5960784 .66666
67 .6862745 83 3 612 .5960784 .6666667 .6862745 83 3 609 .5960784 .6666667 .6862
745 83 3 606 .5960784 .6666667 .6862745 83 3 602 .5960784 .6666667 .6862745 83 3
 598 .5960784 .6666667 .6862745 83 3 594 .5960784 .6666667 .6862745 83 3 591 .59
60784 .6666667 .6862745 83 3 588 .5960784 .6666667 .6862745 83 3 585 .5960784 .6
666667 .6862745 79 15 553 SDL/TYSA_COLOUR15 421 93 0 144 320 0 17 144 0 421 499
 419 142 49 407 0 195 +17 499 0 421 41 144 145 195 187 0 0 -17 49 0 500 42 498 4
6 144 407 0 419 -16 407 26 0 ?144 427 377 405 0 0 1 16 427 28 0 ?37 19 407 425 0
 0 1 17 37 0 36 149 34 145 41 427 0 159 +16 19 30 0 ?38 395 427 6 0 0 1 17 38 0
 36 34 182 43 86 19 0 416 +15 36 337 0 37 328 0 17 182 0 36 38 149 84 162 183 0
 177 +17 86 0 353 83 416 84 38 19 0 182 -15 353 833 0 83 347 0 17 83 0 353 54 86
 77 177 241 0 170 -17 177 0 176 162 171 84 83 241 0 0 +17 149 0 36 182 37 147 15
9 184 0 152 -17 159 0 151 195 152 145 149 184 0 499 +17 41 0 421 419 499 28 37 4
27 0 422 -83 3 550 .5960784 .6666667 .6862745 83 3 541 .5960784 .6666667 .686274
5 83 3 536 .5960784 .6666667 .6862745 15 391 1587 0 509 15 532 17 106 0 412 89 4
11 104 415 377 0 240 +83 3 492 .5960784 .6666667 .6862745 83 3 482 .5960784 .666
6667 .6862745 17 93 0 467 296 465 91 464 253 0 468 +141 432 425 432 432 402 141
 431 408 431 431 428 141 403 405 403 403 400 83 3 390 .5960784 .6666667 .6862745
 141 367 20 367 367 365 40 3 369 -.018983765073641 1.000000000401142 3 573145101
458169e-21 594724509154716e-19 ??-.00559118340983409 -.02398073356123965 .010540
27161621386 -.00584797158989486 -.0050002 .01077847666086394 -.00591548754254902
 199999999999361e-21 .01084110664839988 41 1 370 L-.00559118340983409 -.02398073
356123965 .01054027161621386 41 1 371 L-.00591548754254902 199999999999361e-21 .
01084110664839988 141 360 359 360 360 356 40 3 361 0 1 3 573145101460048e-21 594
724509155476e-19 ??.00591548754254902 2000000000005425e-22 -.01084110664839988 .
00584797158989486 -.0050002 -.01077847666086394 .0055911834098341 -.023980733561
23965 -.01054027161621386 41 1 362 L.00591548754254902 2000000000005425e-22 -.01
084110664839988 41 1 363 L.0055911834098341 -.02398073356123965 -.01054027161621
386 141 354 356 354 354 334 141 313 26 313 313 308 141 283 295 283 283 276 141 2
68 254 631 632 258 141 631 307 633 268 258 141 632 284 268 633 258 141 633 295 6
32 631 258 19 16 1 0 1 0 8 4 S74 4 CI16 index_map_offset0 0 1 dCCZ20 14 3 0 0 2
 627 535 0 0 0 0 0 0 0 0 0 0 0 0 0 0 0 0 0 80 2 11 634 635 8004 0 0 0 0 3 5 0 0
 0 FFTFFFFFFFFFFF2 3 83 1 12 7830.64 84 255 8 13 Kg/Cu M 79 16 635 SDL/TYSA_DENS
ITY1 0 
