<?xml version="1.0" encoding="utf-8"?>
<!-- Generator: Adobe Illustrator 24.2.3, SVG Export Plug-In . SVG Version: 6.00 Build 0)  -->
<svg version="1.1" id="Layer_1" xmlns="http://www.w3.org/2000/svg" xmlns:xlink="http://www.w3.org/1999/xlink" x="0px" y="0px"
	 viewBox="0 0 330.1 340.7" style="enable-background:new 0 0 330.1 340.7;" xml:space="preserve">
<style type="text/css">
	.st0{clip-path:url(#SVGID_2_);}
	.st1{opacity:0.55;clip-path:url(#SVGID_2_);}
	.st2{clip-path:url(#SVGID_4_);}
	.st3{clip-path:url(#SVGID_6_);}
	.st4{opacity:0.52;clip-path:url(#SVGID_2_);}
	.st5{clip-path:url(#SVGID_10_);}
	.st6{opacity:0.52;}
	.st7{clip-path:url(#SVGID_22_);}
	.st8{fill:none;stroke:#FFFFFF;stroke-width:2.7;stroke-miterlimit:10;}
	.st9{fill:#FFFFFF;}
</style>
<g>
	<ellipse transform="matrix(0.1891 -0.982 0.982 0.1891 72.7345 212.5449)" class="st8" cx="165.1" cy="62.2" rx="22.7" ry="22.7"/>
	<g>
		<path class="st9" d="M170.9,56.8c0,3-1.9,4.7-4.5,5.3c2.9,0.2,5.2,2.1,5.2,5.6c0,4-3,7-7.7,7c-2.8,0-5.1-1-6.9-3.1l1.8-1.6
			c1.6,1.6,3.1,2.3,5,2.3c3,0,4.8-1.9,4.8-4.7c0-3.3-1.8-4.3-4.7-4.3h-1.7l0.3-2.2h1.2c2.3,0,4.3-1.4,4.3-4.2c0-2.3-1.6-3.7-4-3.7
			c-1.8,0-3.2,0.6-4.8,2.1l-1.5-1.7c1.9-1.8,4-2.7,6.5-2.7C168.5,51,170.9,53.7,170.9,56.8z"/>
	</g>
</g>
<path class="st9" d="M219.6,282.8H59.4v-87.1h160.2V282.8z M220.8,194.6H58.3V284h162.5v-57.3V194.6z"/>
<path class="st9" d="M216.9,195.7l-77.4,51.1l-77.4-51.1H216.9z M220.8,194.6H58.3l81.3,53.7L220.8,194.6z"/>
<g>
	<path class="st9" d="M75.8,269.9l-1.4,1.6c-0.6-0.5-1.3-0.8-2-0.8c-0.6,0-0.9,0.2-0.9,0.5c0,0.4,0.3,0.5,1.7,1
		c2.1,0.7,2.9,1.6,2.9,3.3c0,1.9-1.6,3.3-4.2,3.3c-2,0-3.3-0.8-4.1-1.5l1.6-1.7c0.7,0.6,1.5,0.9,2.4,0.9c0.8,0,1-0.3,1-0.7
		c0-0.5-0.3-0.7-1.5-1.1c-2.5-0.8-3.1-1.8-3.1-3.2c0-1.9,1.7-3.1,3.9-3.1C73.7,268.6,74.9,269,75.8,269.9z"/>
	<path class="st9" d="M82.9,271.1h-3.1v1.5h2.7v2.1h-2.7v1.7h3.3v2.2h-6.5v-9.7h6.6L82.9,271.1z"/>
	<path class="st9" d="M91.3,269.7l-1.5,1.7c-0.5-0.3-1-0.6-1.6-0.6c-1,0-1.6,1-1.6,2.9c0,1.9,0.6,2.8,1.6,2.8c0.6,0,1.2-0.3,1.7-0.8
		l1.4,1.8c-0.8,0.8-1.9,1.4-3.3,1.4c-3,0-4.8-1.8-4.8-5.2c0-3.2,1.9-5.1,4.8-5.1C89.4,268.6,90.5,269,91.3,269.7z"/>
	<path class="st9" d="M99.9,275.3c0,2-1.3,3.6-4.2,3.6s-4.2-1.5-4.2-3.6v-6.4h3.2v6.3c0,1,0.3,1.4,1,1.4s1-0.5,1-1.4v-6.3h3.2V275.3
		z"/>
	<path class="st9" d="M104.1,275.3h-0.3v3.3h-3.2v-9.7h3.8c2.9,0,4.3,1,4.3,3.2c0,1.2-0.5,1.9-1.6,2.7l2.3,3.9h-3.5L104.1,275.3z
		 M103.8,273.1h0.6c0.7,0,1-0.4,1-1.1c0-0.7-0.4-1-1.1-1h-0.5V273.1z"/>
	<path class="st9" d="M115.7,271.1h-3.1v1.5h2.7v2.1h-2.7v1.7h3.3v2.2h-6.5v-9.7h6.6L115.7,271.1z"/>
	<path class="st9" d="M119.5,268.8h6.4l-0.3,2.2h-2.9v1.9h2.5v2.2h-2.5v3.5h-3.2V268.8z"/>
	<path class="st9" d="M129.4,278.6h-3.2v-9.7h3.2V278.6z"/>
	<path class="st9" d="M133.5,276.1h3.6l-0.3,2.4h-6.5v-9.7h3.2V276.1z"/>
	<path class="st9" d="M143.9,271.1h-3.1v1.5h2.7v2.1h-2.7v1.7h3.3v2.2h-6.5v-9.7h6.6L143.9,271.1z"/>
	<path class="st9" d="M155,271.2h-2.1v7.3h-3.2v-7.3h-2.3v-2.4h7.9L155,271.2z"/>
	<path class="st9" d="M159.1,275.3h-0.3v3.3h-3.2v-9.7h3.8c2.9,0,4.3,1,4.3,3.2c0,1.2-0.5,1.9-1.6,2.7l2.3,3.9h-3.5L159.1,275.3z
		 M158.8,273.1h0.6c0.7,0,1-0.4,1-1.1c0-0.7-0.4-1-1.1-1h-0.5V273.1z"/>
	<path class="st9" d="M169.1,276.8h-2l-0.3,1.8h-3.4l2.8-9.7h3.8l2.8,9.7h-3.4L169.1,276.8z M168.7,274.6l-0.6-3.5l-0.6,3.5H168.7z"
		/>
	<path class="st9" d="M181,278.6h-4l-1.7-6.8c0.2,1,0.4,2.3,0.4,4.2v2.7h-2.8v-9.7h3.9l1.8,6.9c-0.2-1.3-0.4-2.4-0.4-4.2v-2.6h2.8
		V278.6z"/>
	<path class="st9" d="M189.4,269.9l-1.4,1.6c-0.6-0.5-1.3-0.8-2-0.8c-0.6,0-0.9,0.2-0.9,0.5c0,0.4,0.3,0.5,1.7,1
		c2.1,0.7,2.9,1.6,2.9,3.3c0,1.9-1.6,3.3-4.2,3.3c-2,0-3.3-0.8-4.1-1.5l1.6-1.7c0.7,0.6,1.5,0.9,2.4,0.9c0.8,0,1-0.3,1-0.7
		c0-0.5-0.3-0.7-1.5-1.1c-2.5-0.8-3.1-1.8-3.1-3.2c0-1.9,1.7-3.1,3.9-3.1C187.3,268.6,188.5,269,189.4,269.9z"/>
	<path class="st9" d="M190.1,268.8h6.4l-0.3,2.2h-2.9v1.9h2.5v2.2h-2.5v3.5h-3.2V268.8z"/>
	<path class="st9" d="M203.2,271.1h-3.1v1.5h2.7v2.1h-2.7v1.7h3.3v2.2h-6.5v-9.7h6.6L203.2,271.1z"/>
	<path class="st9" d="M207.6,275.3h-0.3v3.3h-3.2v-9.7h3.8c2.9,0,4.3,1,4.3,3.2c0,1.2-0.5,1.9-1.6,2.7l2.3,3.9h-3.5L207.6,275.3z
		 M207.3,273.1h0.6c0.7,0,1-0.4,1-1.1c0-0.7-0.4-1-1.1-1h-0.5V273.1z"/>
</g>
<polygon class="st9" points="271.9,243.1 243.5,222.7 243.5,233.4 210.9,233.4 210.9,243.1 210.9,252.7 243.5,252.7 243.5,263.4 "/>
</svg>
