<?xml version="1.0" encoding="utf-8"?>
<!-- Generator: Adobe Illustrator 24.2.3, SVG Export Plug-In . SVG Version: 6.00 Build 0)  -->
<svg version="1.1" id="Layer_1" xmlns="http://www.w3.org/2000/svg" xmlns:xlink="http://www.w3.org/1999/xlink" x="0px" y="0px"
	 viewBox="0 0 330.1 340.7" style="enable-background:new 0 0 330.1 340.7;" xml:space="preserve">
<style type="text/css">
	.st0{clip-path:url(#SVGID_2_);}
	.st1{opacity:0.55;clip-path:url(#SVGID_2_);}
	.st2{clip-path:url(#SVGID_4_);}
	.st3{clip-path:url(#SVGID_6_);}
	.st4{opacity:0.52;clip-path:url(#SVGID_2_);}
	.st5{clip-path:url(#SVGID_10_);}
	.st6{opacity:0.52;}
	.st7{clip-path:url(#SVGID_22_);}
	.st8{fill:none;stroke:#FFFFFF;stroke-width:2.7;stroke-miterlimit:10;}
	.st9{fill:#FFFFFF;}
	.st10{fill:none;stroke:#FFFFFF;stroke-width:2;stroke-miterlimit:10;}
	.st11{fill:none;stroke:#FFFFFF;stroke-miterlimit:10;}
</style>
<g>
	<path class="st8" d="M187.7,64.1c0,12.5-10.1,22.7-22.7,22.7c-12.5,0-22.7-10.1-22.7-22.7c0-12.5,10.1-22.7,22.7-22.7
		C177.6,41.4,187.7,51.6,187.7,64.1z"/>
	<g>
		<path class="st9" d="M168.6,76.2h-2.9V56.3l-5.4,3.3l-1.3-2.1l7.1-4.4h2.5V76.2z"/>
	</g>
	<rect x="125.9" y="209.2" class="st9" width="105.7" height="12.6"/>
	<rect x="125.4" y="227.3" class="st9" width="105.7" height="12.6"/>
	<rect x="125.4" y="245.3" class="st9" width="105.7" height="12.6"/>
	<polygon class="st9" points="249.7,187.1 249.7,201.8 257.9,198.1 	"/>
	<rect x="62.8" y="160.4" class="st10" width="204.5" height="138.9"/>
	<line class="st10" x1="62.8" y1="168.5" x2="267.3" y2="168.5"/>
	<path class="st9" d="M62.8,168.5h204.5v-8H62.8V168.5z M249.9,166.8c-1.3,0-2.4-1.1-2.4-2.4c0-1.3,1.1-2.4,2.4-2.4
		c1.3,0,2.4,1.1,2.4,2.4C252.2,165.8,251.1,166.8,249.9,166.8 M256.2,166.8c-1.3,0-2.4-1.1-2.4-2.4c0-1.3,1.1-2.4,2.4-2.4
		c1.3,0,2.4,1.1,2.4,2.4C258.6,165.8,257.5,166.8,256.2,166.8 M262.6,166.8c-1.3,0-2.4-1.1-2.4-2.4c0-1.3,1.1-2.4,2.4-2.4
		c1.3,0,2.4,1.1,2.4,2.4C264.9,165.8,263.9,166.8,262.6,166.8"/>
	<rect x="186.7" y="266.1" class="st9" width="44.4" height="13.7"/>
	<line class="st11" x1="98.1" y1="215.5" x2="117.2" y2="215.5"/>
	<line class="st11" x1="98.1" y1="233.6" x2="117.2" y2="233.6"/>
	<line class="st11" x1="98.1" y1="251.6" x2="117.2" y2="251.6"/>
</g>
</svg>
