<?xml version="1.0" encoding="utf-8"?>
<!-- Generator: Adobe Illustrator 24.2.3, SVG Export Plug-In . SVG Version: 6.00 Build 0)  -->
<svg version="1.1" xmlns="http://www.w3.org/2000/svg" xmlns:xlink="http://www.w3.org/1999/xlink" x="0px" y="0px"
	 viewBox="0 0 330.1 340.7" style="enable-background:new 0 0 330.1 340.7;" xml:space="preserve">
<style type="text/css">
	.st0{fill:#FFFFFF;}
	.st1{fill:#1A1A1A;}
	.st2{fill:#FF931E;}
	.st3{opacity:0.5;}
	.st4{fill:none;}
	.st5{opacity:0.55;}
	.st6{fill:none;stroke:#FFFFFF;stroke-width:2.81;stroke-miterlimit:10;}
	.st7{fill:none;stroke:#FFFFFF;stroke-width:3;stroke-miterlimit:10;}
	.st8{fill:none;stroke:#FFFFFF;stroke-width:2.5498;stroke-miterlimit:10;}
	.st9{fill:none;stroke:#FFFFFF;stroke-width:2.5497;stroke-miterlimit:10;}
	.st10{fill:#FFFFFF;stroke:#FFFFFF;stroke-miterlimit:10;}
	.st11{fill:#FFFFFF;stroke:#FFFFFF;stroke-width:0.7244;stroke-miterlimit:10;}
	.st12{opacity:0.52;}
	.st13{fill:none;stroke:#FFFFFF;stroke-width:2;stroke-miterlimit:10;}
	.st14{stroke:#FFFFFF;stroke-width:0.8104;stroke-miterlimit:10;}
	.st15{opacity:0.46;fill:#006978;}
	.st16{opacity:0.22;clip-path:url(#SVGID_4_);}
	.st17{fill:none;stroke:#FFFFFF;stroke-width:1.059;stroke-miterlimit:10;}
	.st18{fill:#232323;}
	.st19{opacity:0.72;}
	.st20{fill:none;stroke:#ED1E79;stroke-width:4;stroke-miterlimit:10;}
	.st21{fill:#FF0000;}
</style>
<g id="Enquiry">
</g>
<g id="FAQ">
</g>
<g id="location">
	<g>
		<g>
			<circle class="st6" cx="151.7" cy="59.8" r="24.6"/>
			<g>
				<path class="st0" d="M155.5,72.9h-3.1V51.3l-5.9,3.6l-1.4-2.2l7.7-4.8h2.8V72.9z"/>
			</g>
		</g>
		<g>
			<polyline class="st13" points="176.5,149 176.5,173.7 203,173.7 			"/>
			<polygon class="st13" points="230.1,179.8 165.1,264.1 162,280.3 177.7,274.9 245.1,190.6 			"/>
			<line class="st13" x1="221.7" y1="190.6" x2="236.1" y2="202"/>
			<polyline class="st13" points="203,244.2 203,305.6 86.2,305.6 85,149 177.7,149 203,174.3 203,214.5 			"/>
			<polyline class="st13" points="95.8,176.1 100,181.6 109.1,169.5 			"/>
			<polyline class="st13" points="95.8,270.7 100,276.1 109.1,264.1 			"/>
			<polyline class="st13" points="96.1,211.4 109.4,211.4 109.4,224.6 96.1,224.6 96.4,211.1 			"/>
			<line class="st13" x1="118.1" y1="169.5" x2="162" y2="169.5"/>
			<line class="st13" x1="118.1" y1="179.8" x2="180.7" y2="179.8"/>
			<line class="st13" x1="118.1" y1="211.7" x2="162" y2="211.7"/>
			<line class="st13" x1="118.1" y1="221.9" x2="180.7" y2="221.9"/>
			<line class="st13" x1="118.1" y1="264.1" x2="162" y2="264.1"/>
			<line class="st13" x1="118.1" y1="274.3" x2="159" y2="274.3"/>
		</g>
	</g>
</g>
<g id="Gallery">
</g>
<g id="specs">
</g>
<g id="Key_features">
</g>
<g id="Gom_Main">
</g>
<g id="infos">
</g>
</svg>
