<svg id="Layer_1" data-name="Layer 1" xmlns="http://www.w3.org/2000/svg" viewBox="0 0 164 150"><defs><style>.cls-1,.cls-3{fill:none;stroke:#fff;stroke-miterlimit:10;}.cls-1{stroke-width:1.22px;}.cls-2{fill:#fff;}.cls-3{stroke-width:2.2px;}</style></defs><rect class="cls-1" x="7.98" y="4.5" width="148.04" height="100.55"/><path class="cls-1" d="M8,4.5v5.82H156V4.5ZM65.21,38.63,85.46,28.51l20,10L85.2,48.68ZM105.5,77.21,85.2,87.36l-20-10m20-28.63V87.36m20.3-48.83V77.21M65.21,38.63V77.31m41.88-41.82L110.6,39l9.16-9.17M109.07,76.15l3.51,3.51,9.17-9.17M53,73.06l8.3,8.3m-8.3,0,8.3-8.3"/><path class="cls-2" d="M8,4.5v5.82H156V4.5ZM143.39,9.12a1.7,1.7,0,1,1,1.7-1.7A1.7,1.7,0,0,1,143.39,9.12Zm4.61,0a1.7,1.7,0,1,1,1.71-1.7A1.7,1.7,0,0,1,148,9.12Zm4.62,0a1.7,1.7,0,1,1,1.7-1.7A1.7,1.7,0,0,1,152.62,9.12Z"/><circle class="cls-3" cx="82" cy="131.62" r="13.7"/><path class="cls-2" d="M85.55,128.34a3.19,3.19,0,0,1-2.73,3.21A3.2,3.2,0,0,1,86,134.94c0,2.44-1.81,4.25-4.66,4.25a5.22,5.22,0,0,1-4.15-1.85l1.07-1a3.94,3.94,0,0,0,3,1.4,2.66,2.66,0,0,0,2.89-2.82c0-2-1.1-2.6-2.83-2.6h-1l.21-1.35h.7a2.42,2.42,0,0,0,2.59-2.54,2.14,2.14,0,0,0-2.4-2.21,4,4,0,0,0-2.91,1.25l-.92-1a5.56,5.56,0,0,1,3.94-1.63C84.09,124.82,85.55,126.45,85.55,128.34Z"/></svg>