<svg id="Layer_1" data-name="Layer 1" xmlns="http://www.w3.org/2000/svg" viewBox="0 0 164 150"><defs><style>.cls-1,.cls-3{fill:none;stroke:#fff;stroke-miterlimit:10;}.cls-1{stroke-width:2.2px;}.cls-2{fill:#fff;}.cls-3{stroke-width:1.22px;}</style></defs><circle class="cls-1" cx="82" cy="131.37" r="13.92"/><path class="cls-2" d="M85.54,126.08H80v4.31a5,5,0,0,1,2.3-.57c2.39,0,4,1.67,4,4.46a4.56,4.56,0,0,1-4.82,4.78,5.47,5.47,0,0,1-4.13-1.78l1.06-1a4,4,0,0,0,3.07,1.35c1.81,0,3-1.22,3-3.36s-1.17-3-2.69-3a4.14,4.14,0,0,0-2.07.53h-1.4v-7.06h7.53Z"/><circle class="cls-3" cx="82" cy="38.41" r="25.62"/><path class="cls-3" d="M97.34,102.17H66.66c-12.63,0-23-2.09-23-14.72V78.74C43.7,66.11,54,64,66.66,64H97.34c12.63,0,23,2.09,23,14.72v8.71C120.3,100.08,110,102.17,97.34,102.17Z"/><rect class="cls-3" x="46.97" y="29.65" width="9.41" height="17.51" rx="4.61"/><rect class="cls-3" x="107.62" y="29.65" width="9.41" height="17.51" rx="4.61"/><path class="cls-3" d="M112.62,29.78a31.11,31.11,0,0,0-61.24,0"/><path class="cls-3" d="M112.32,39.71s-6.88,9.41-21.08,7.45"/><ellipse class="cls-3" cx="87.91" cy="47.16" rx="3.53" ry="1.93"/></svg>