<svg id="Layer_1" data-name="Layer 1" xmlns="http://www.w3.org/2000/svg" viewBox="0 0 164 150"><defs><style>.cls-1,.cls-3{fill:none;stroke:#fff;stroke-miterlimit:10;}.cls-1{stroke-width:1.22px;}.cls-2,.cls-4{fill:#fff;}.cls-3{stroke-width:2.2px;}.cls-4{font-size:20px;font-family:FiraSans-Book, Fira Sans;}</style></defs><g id="icon-2"><polyline class="cls-1" points="68.2 66.85 5.3 66.85 5.3 3.89 98 3.89 98 50.57"/><path class="cls-2" d="M5.3,3.89V7.53H98V3.89ZM90.09,6.78a1.07,1.07,0,1,1,1.07-1.06A1.06,1.06,0,0,1,90.09,6.78Zm2.89,0A1.07,1.07,0,1,1,94,5.72,1.06,1.06,0,0,1,93,6.78Zm2.89,0a1.07,1.07,0,1,1,1.06-1.06A1.06,1.06,0,0,1,95.87,6.78Z"/><polyline class="cls-1" points="84.08 60.88 84.08 7.66 18.6 7.66 18.6 66.85 67.62 66.85"/><rect class="cls-2" x="62.34" y="46.33" width="7.65" height="7.65"/><circle class="cls-2" cx="66.16" cy="43.07" r="2.48"/><rect class="cls-2" x="64.67" y="43.07" width="3.04" height="3.93"/><polygon class="cls-2" points="50.73 17.8 67.08 41.8 65.24 43.07 48.96 18.93 50.73 17.8"/><circle class="cls-2" cx="49.38" cy="18.5" r="1.73"/><polygon class="cls-2" points="47.65 17.8 35.86 32.88 37.7 34.72 49.38 19.56 47.65 17.8"/><path class="cls-1" d="M33.47,42.21l2-2a.52.52,0,0,0,0-.72l-.17-.18a.55.55,0,0,1-.09-.56,3.19,3.19,0,0,1,1-1.16.51.51,0,0,0,.09-.74l-.84-1a.52.52,0,0,1,.23-.83l.68-.22a.5.5,0,0,1,.53.12l5.32,5.25a1,1,0,0,1,.08.11c.16.28.84,1.5,0,1.5s-1.47.84-1.69,1.15a.6.6,0,0,1-.21.18l-.44.2a.51.51,0,0,1-.42,0c-.58-.26-2.1-1-2-1.39v0a.51.51,0,0,0-.68-.6l-.86.34a.47.47,0,0,0-.25.21l-.6.94a.52.52,0,0,0,0,.5c.17.37.35,1-.63.68a1.56,1.56,0,0,1-1.19-1.35A.49.49,0,0,1,33.47,42.21Z"/><circle class="cls-2" cx="36.28" cy="34.29" r="2.17"/><line class="cls-1" x1="42.74" y1="41.58" x2="44.64" y2="44.07"/><line class="cls-1" x1="42.3" y1="41.8" x2="44.64" y2="44.07"/><path class="cls-1" d="M37.1,41.28s-.21.76-.53.76a3.09,3.09,0,0,1-.8-.17"/><path class="cls-1" d="M36.43,37.35l3.68,3.52S40,42.5,37.56,41.94"/><circle class="cls-1" cx="119.7" cy="26.2" r="16.95"/><path class="cls-1" d="M110.89,44.93l-5.08.39s-3.9.39-5.46,3.52S89,64.46,89,64.46l-19.53-9a5,5,0,0,0-5.85,2.74c-2,3.9.78,5.86.78,5.86L85.9,74.22s5.85,2,9.37-1.56,4.3-5.47,4.3-5.47L100,79.3l.39,10.15,39.44-.39V87.89l16.4-14.06A8.27,8.27,0,0,0,157,62.9c-4.3-6.25-19.53-16.8-19.53-16.8S132.37,43.37,110.89,44.93Z"/><polygon class="cls-1" points="140.57 62.51 140.57 73.83 147.21 67.97 140.57 62.51"/><circle class="cls-3" cx="82" cy="131.64" r="13.16"/><text class="cls-4" transform="translate(77.08 138.67)">2</text></g></svg>