<svg id="Layer_1" data-name="Layer 1" xmlns="http://www.w3.org/2000/svg" viewBox="0 0 164 150"><defs><style>.cls-1,.cls-2{fill:#fff;}.cls-2{font-size:20.05px;font-family:FiraSans-Book, Fira Sans;}.cls-3{fill:none;stroke:#fff;stroke-miterlimit:10;stroke-width:1.22px;}</style></defs><g id="note-pad-icon"><path class="cls-1" d="M82,145.64a14.41,14.41,0,1,1,14.41-14.4A14.43,14.43,0,0,1,82,145.64Zm0-26.37a12,12,0,1,0,12,12A12,12,0,0,0,82,119.27Z"/><text class="cls-2" transform="translate(77.7 138.28)">1</text><g id="note-pad"><polyline class="cls-3" points="89.23 4.8 89.25 20.45 106.04 20.45"/><polygon class="cls-3" points="123.22 24.27 82 77.69 80.09 88 90.01 84.56 132.76 31.14 123.22 24.27"/><line class="cls-3" x1="117.87" y1="31.14" x2="127.03" y2="38.39"/><polyline class="cls-3" points="106.04 65.13 106.04 104.03 32.01 104.03 31.24 4.8 90.01 4.8 106.04 20.83 106.04 46.26"/><polyline class="cls-3" points="38.11 21.98 40.78 25.41 46.51 17.78"/><polyline class="cls-3" points="38.11 81.89 40.78 85.33 46.51 77.69"/><polyline class="cls-3" points="38.3 44.3 46.7 44.3 46.7 52.7 38.3 52.7 38.5 44.15"/><line class="cls-3" x1="52.23" y1="17.78" x2="80.09" y2="17.78"/><line class="cls-3" x1="52.23" y1="24.27" x2="91.92" y2="24.27"/><line class="cls-3" x1="52.23" y1="44.49" x2="80.09" y2="44.49"/><line class="cls-3" x1="52.23" y1="50.98" x2="91.92" y2="50.98"/><line class="cls-3" x1="52.23" y1="77.7" x2="80.09" y2="77.7"/><line class="cls-3" x1="52.23" y1="84.18" x2="78.18" y2="84.18"/></g></g></svg>