<svg id="Layer_1" data-name="Layer 1" xmlns="http://www.w3.org/2000/svg" viewBox="0 0 164 150"><defs><style>.cls-1{fill:none;stroke:#fff;stroke-miterlimit:10;stroke-width:1.22px;}.cls-2{fill:#fff;}</style></defs><path class="cls-1" d="M158.62,78.23a13.87,13.87,0,0,0-1.69-2.43H145.84l-2.73-1.9H155c-3.18-2.53-8.2-4.47-16.13-4.47h-93L29.46,51.16H15.89L26.41,75v6.06a4.31,4.31,0,0,0,4.31,4.31H86.3L54,94.84A1.12,1.12,0,0,0,53.88,97c5.91,2,8.11,5.32,23.56,2.13l35.35-13.74s24.32.16,41.63.05A4.84,4.84,0,0,0,158.62,78.23ZM52.51,76a1.17,1.17,0,0,1-2.34,0v-.89a1.17,1.17,0,0,1,2.34,0Zm4.06,0a1.17,1.17,0,0,1-2.34,0v-.89a1.17,1.17,0,0,1,2.34,0Zm4.06,0a1.17,1.17,0,0,1-2.34,0v-.89a1.17,1.17,0,0,1,2.34,0Zm4.06,0a1.17,1.17,0,1,1-2.34,0v-.89a1.17,1.17,0,0,1,2.34,0Zm4.06,0a1.17,1.17,0,0,1-2.34,0v-.89a1.17,1.17,0,0,1,2.34,0Zm4.06,0a1.17,1.17,0,0,1-2.34,0v-.89a1.17,1.17,0,0,1,2.34,0Zm8.13,0a1.18,1.18,0,0,1-2.35,0v-.89a1.18,1.18,0,0,1,2.35,0ZM85,76a1.18,1.18,0,0,1-2.35,0v-.89a1.18,1.18,0,0,1,2.35,0Zm4.06,0a1.18,1.18,0,0,1-2.35,0v-.89a1.18,1.18,0,0,1,2.35,0Zm4.06,0a1.18,1.18,0,0,1-2.35,0v-.89a1.18,1.18,0,0,1,2.35,0Zm4.06,0a1.18,1.18,0,0,1-2.35,0v-.89a1.18,1.18,0,0,1,2.35,0Zm4.06,0a1.18,1.18,0,0,1-2.35,0v-.89a1.18,1.18,0,0,1,2.35,0Zm4.06,0A1.18,1.18,0,0,1,103,76v-.89a1.18,1.18,0,0,1,2.35,0Zm4.06,0A1.17,1.17,0,0,1,107,76v-.89a1.17,1.17,0,0,1,2.34,0Zm4.06,0a1.17,1.17,0,0,1-2.34,0v-.89a1.17,1.17,0,0,1,2.34,0Zm8.12,0a1.17,1.17,0,0,1-2.34,0v-.89a1.17,1.17,0,0,1,2.34,0Zm4.06,0a1.17,1.17,0,0,1-2.34,0v-.89a1.17,1.17,0,0,1,2.34,0Zm4.06,0a1.17,1.17,0,1,1-2.34,0v-.89a1.17,1.17,0,1,1,2.34,0Zm4.07,0a1.18,1.18,0,0,1-2.35,0v-.89a1.18,1.18,0,0,1,2.35,0Z"/><path class="cls-1" d="M149.13,36.71A7.76,7.76,0,0,0,134.56,33a6.75,6.75,0,0,0-9.49,3.78,8.5,8.5,0,0,0-12.4-2.13,5.69,5.69,0,0,0-7-3.35,11.44,11.44,0,1,0-10,20.55,7.77,7.77,0,0,0-.07,1,7.7,7.7,0,0,0,14.65,3.3,9,9,0,0,0,5.44-.29A10.06,10.06,0,0,0,131.29,55a9.1,9.1,0,0,0,14-11.6A7.74,7.74,0,0,0,149.13,36.71Z"/><path class="cls-1" d="M65.08,7a7.73,7.73,0,0,0-2.82.53,6.76,6.76,0,0,0-12.38.74A10,10,0,0,0,45,7a10.19,10.19,0,0,0-3.09.48A7.69,7.69,0,0,0,28,9.41a5.66,5.66,0,0,0-10.27,3.28v.11a11.84,11.84,0,0,0-1.48-.11,11.44,11.44,0,1,0,8.6,19,9.18,9.18,0,0,0,10.37-2.23,8.53,8.53,0,0,0,16,1.08,9.11,9.11,0,0,0,13.5-8v0l.43,0a7.75,7.75,0,0,0,0-15.5Z"/><path class="cls-2" d="M82,146.67a14.6,14.6,0,1,1,14.6-14.6A14.62,14.62,0,0,1,82,146.67Zm0-27a12.4,12.4,0,1,0,12.4,12.4A12.41,12.41,0,0,0,82,119.67Z"/><path class="cls-2" d="M86.76,135.85H85v3.43H83.29v-3.43H77.4V134.6l4.15-9.23L83,126l-3.75,8.5h4.08l.17-3.76H85v3.76h1.79Z"/></svg>