<?xml version="1.0" encoding="utf-8"?>
<!-- Generator: Adobe Illustrator 24.2.3, SVG Export Plug-In . SVG Version: 6.00 Build 0)  -->
<svg version="1.1" xmlns="http://www.w3.org/2000/svg" xmlns:xlink="http://www.w3.org/1999/xlink" x="0px" y="0px"
	 viewBox="0 0 315 227" style="enable-background:new 0 0 315 227;" xml:space="preserve">
<style type="text/css">
	.st0{opacity:0.51;}
	.st1{opacity:0.25;}
	.st2{fill:#FF931E;}
</style>
<g id="Enquiry">
</g>
<g id="FAQ">
</g>
<g id="location">
</g>
<g id="Gallery">
</g>
<g id="specs">
</g>
<g id="Key_features">
</g>
<g id="Gom_Main">
	<g>
		<rect class="st0" width="315" height="227"/>
		<g class="st1">
			<path class="st2" d="M75.5,102.13l-0.96,1.2c-1.38-1.08-2.52-1.56-4.2-1.56c-3.57,0-6.54,2.52-6.54,9.06
				c0,6.24,2.85,9.03,6.45,9.03c2.13,0,3.36-0.75,4.56-1.71l0.93,1.17c-1.23,1.17-3,2.13-5.55,2.13c-4.74,0-8.28-3.69-8.28-10.62
				c0-7.02,3.75-10.59,8.31-10.59C72.65,100.24,74.03,100.93,75.5,102.13z"/>
			<path class="st2" d="M94.57,110.86c0,6.75-3.3,10.59-8.4,10.59c-4.95,0-8.37-3.72-8.37-10.56c0-6.78,3.45-10.65,8.37-10.65
				C91.19,100.24,94.57,103.93,94.57,110.86z M79.7,110.89c0,6.15,2.67,9.03,6.48,9.03c4.02,0,6.51-2.88,6.51-9.06
				c0-6.24-2.55-9.09-6.51-9.09C82.31,101.77,79.7,104.65,79.7,110.89z"/>
			<path class="st2" d="M117.4,121.12h-1.74l-0.93-9.84c-0.33-3.3-0.66-7.08-0.78-8.94l-5.16,16.35h-1.71l-5.34-16.35
				c-0.09,2.04-0.42,5.73-0.69,8.88l-0.9,9.9h-1.71l1.95-20.55h2.49l5.1,15.99l4.92-15.99h2.52L117.4,121.12z"/>
			<path class="st2" d="M124.61,121.12h-1.8v-20.55h1.8V121.12z"/>
			<path class="st2" d="M144.79,121.12h-2.37l-9.69-18.57c0.09,1.41,0.24,3.39,0.24,7.08v11.49h-1.71v-20.55h2.31l9.75,18.57
				c-0.06-0.87-0.24-3.42-0.24-6.09v-12.48h1.71V121.12z"/>
			<path class="st2" d="M164.32,102.28l-1.08,1.14c-1.44-1.14-2.73-1.65-4.56-1.65c-3.3,0-6.69,2.46-6.69,9
				c0,6.3,2.55,9.15,6.6,9.15c1.68,0,3.03-0.36,4.32-1.08v-7.29h-4.02l-0.21-1.5h6v9.72c-1.83,1.05-3.87,1.68-6.09,1.68
				c-5.1,0-8.49-3.57-8.49-10.68c0-7.08,4.17-10.53,8.58-10.53C161.08,100.24,162.64,100.93,164.32,102.28z"/>
			<path class="st2" d="M188.95,102.52l-1.05,1.14c-1.53-1.32-2.91-1.89-4.8-1.89c-2.52,0-4.26,1.32-4.26,3.48
				c0,2.1,1.11,3.06,4.8,4.17c3.69,1.14,5.94,2.46,5.94,6.09c0,3.51-2.67,5.94-6.81,5.94c-2.82,0-4.89-0.99-6.57-2.58l1.02-1.14
				c1.53,1.32,3.12,2.19,5.52,2.19c2.88,0,5.01-1.59,5.01-4.35c0-2.49-1.23-3.51-4.89-4.65c-4.08-1.26-5.85-2.67-5.85-5.64
				c0-2.91,2.43-5.04,6.03-5.04C185.71,100.24,187.33,101.08,188.95,102.52z"/>
			<path class="st2" d="M209.95,110.86c0,6.75-3.3,10.59-8.4,10.59c-4.95,0-8.37-3.72-8.37-10.56c0-6.78,3.45-10.65,8.37-10.65
				C206.56,100.24,209.95,103.93,209.95,110.86z M195.07,110.89c0,6.15,2.67,9.03,6.48,9.03c4.02,0,6.51-2.88,6.51-9.06
				c0-6.24-2.55-9.09-6.51-9.09C197.68,101.77,195.07,104.65,195.07,110.89z"/>
			<path class="st2" d="M230.68,110.86c0,6.75-3.3,10.59-8.4,10.59c-4.95,0-8.37-3.72-8.37-10.56c0-6.78,3.45-10.65,8.37-10.65
				C227.29,100.24,230.68,103.93,230.68,110.86z M215.8,110.89c0,6.15,2.67,9.03,6.48,9.03c4.02,0,6.51-2.88,6.51-9.06
				c0-6.24-2.55-9.09-6.51-9.09C218.41,101.77,215.8,104.65,215.8,110.89z"/>
			<path class="st2" d="M249.52,121.12h-2.37l-9.69-18.57c0.09,1.41,0.24,3.39,0.24,7.08v11.49h-1.71v-20.55h2.31l9.75,18.57
				c-0.06-0.87-0.24-3.42-0.24-6.09v-12.48h1.71V121.12z"/>
		</g>
	</g>
</g>
<g id="infos">
</g>
</svg>
