<svg id="Layer_1" data-name="Layer 1" xmlns="http://www.w3.org/2000/svg" viewBox="0 0 169.19 168.2"><defs><style>.cls-1{fill:#ff931e;}</style></defs><path class="cls-1" d="M110.24,68.53a28.47,28.47,0,1,0-50.57,0l-23.79,32,19,25.47h7.34v-40h45.56v40h7.34l19-25.47ZM60,83.75v40H55.93l-17.35-23.3L60.85,70.57a27.57,27.57,0,0,0,4,5,28.46,28.46,0,0,0,17,8.15Zm23.86-9.69v7.66a26.3,26.3,0,1,1,27.34-27.34h-7.66l0-.36a15.9,15.9,0,0,0-.2-1.69A18.64,18.64,0,1,0,81.84,73.83c.56.09,1.11.17,1.68.21l.37,0Zm-2.72-22.4a5.36,5.36,0,1,1-1.58,3.8A5.34,5.34,0,0,1,81.16,51.66Zm-3.64,2.72h-9A16.44,16.44,0,0,1,83.88,39v9a7.39,7.39,0,0,0-6.36,6.35ZM86,72h-.3l-.8,0-.81,0-.43,0a14.78,14.78,0,0,1-1.49-.18A16.33,16.33,0,0,1,68.59,56.55h8.93a7.53,7.53,0,1,0,12.77-6.42A7.48,7.48,0,0,0,86,48V39.1a16.22,16.22,0,0,1,9.18,3.49,16.39,16.39,0,0,1,6,10.11,12.37,12.37,0,0,1,.18,1.49l0,.43,0,.81,0,.8v.2c0,.08,0,.14.09.12h9.67A26.2,26.2,0,0,1,86,81.72V72.05S86.05,72,86,72Zm28,51.82h-4.08v-40H88.13a28.4,28.4,0,0,0,17-8.15,27.2,27.2,0,0,0,4-5l22.27,29.92Z"/><path class="cls-1" d="M93.28,89.05H76.63v7.71H69.9v44.45H100V96.76H93.28ZM78.79,91.21H91.12v5.55H78.79Zm19.06,40.28H79.58V105H97.85Zm0-32.56v3.87H77.41v30.86H97.85v5.39H72.06V98.93Z"/><path class="cls-1" d="M84.6,165.6a81.5,81.5,0,1,1,81.5-81.5A81.59,81.59,0,0,1,84.6,165.6Zm0-162a80.5,80.5,0,1,0,80.5,80.5A80.59,80.59,0,0,0,84.6,3.6Z"/></svg>