<svg id="Layer_1" data-name="Layer 1" xmlns="http://www.w3.org/2000/svg" viewBox="0 0 169.19 168.2"><defs><style>.cls-1{fill:#ff931e;}</style></defs><path class="cls-1" d="M84.6,165.6a81.5,81.5,0,1,1,81.5-81.5A81.59,81.59,0,0,1,84.6,165.6Zm0-162a80.5,80.5,0,1,0,80.5,80.5A80.59,80.59,0,0,0,84.6,3.6Z"/><path class="cls-1" d="M86.35,142.53,84.84,141l-1.51,1.5v-3L16.17,72.35,44,44.53H125.7l27.81,27.82L86.34,139.53ZM19,72.35,84.84,138.2l65.85-65.85L124.87,46.53H44.81Z"/><rect class="cls-1" x="17.58" y="71.35" width="134.52" height="2"/><polygon class="cls-1" points="83.43 140.52 52.29 71.35 65.17 45.09 66.96 45.97 54.5 71.38 85.25 139.7 83.43 140.52"/><polygon class="cls-1" points="85.25 140.52 83.43 139.7 114.18 71.38 101.72 45.97 103.51 45.09 116.39 71.35 85.25 140.52"/></svg>