<svg id="Layer_1" data-name="Layer 1" xmlns="http://www.w3.org/2000/svg" viewBox="0 0 169.19 168.2"><defs><style>.cls-1{fill:#ff931e;}</style></defs><path class="cls-1" d="M125.52,116.82V101.13h3.63V78.94L119.14,53V44.7H77.59V53L74.5,61H49.89v6.33L42.5,86.46v16.68h2.91v13.68H34v6.67H135.23v-6.67ZM79.7,53.38V46.81H117v6.57l10,25.95V99H88.45V86.46L81.06,67.33V61h-4.3Zm43.71,47.75v15.69H85.77V103.14h2.68v-2Zm-78.8-.1V86.85L52,67.72V63.11H79v4.61l7.38,19.13V101H44.61Zm39.05,2.11v13.68H47.52V103.14H83.66Zm49.47,18.25H36.06v-2.46h97.07Z"/><polygon class="cls-1" points="123.41 93.04 125.52 93.04 125.52 81.44 119.99 67.12 118.02 67.88 123.41 81.84 123.41 93.04"/><rect class="cls-1" x="123.41" y="94.61" width="2.1" height="2.46"/><path class="cls-1" d="M44.58,50.78A7.34,7.34,0,0,0,49,51.86H60.19a21.26,21.26,0,0,1,5.35.45,8,8,0,0,1,4.3,2.34,5.05,5.05,0,0,1,1.12,2l.05.22H54.07V59H71l1.25-.08.66,0,.32,0c0-.09,0-.21,0-.3a6.94,6.94,0,0,0,0-1.29c0-.23-.06-.46-.11-.69a4.72,4.72,0,0,0-.12-.46,7.26,7.26,0,0,0-1.55-2.86,10.06,10.06,0,0,0-5.4-3,23.85,23.85,0,0,0-5.84-.51H48.84A5.19,5.19,0,0,1,45.77,49a2.76,2.76,0,0,1-1.16-2.48H42.5A5.72,5.72,0,0,0,43,48.88,4.57,4.57,0,0,0,44.58,50.78Z"/><path class="cls-1" d="M84.6,165.6a81.5,81.5,0,1,1,81.5-81.5A81.59,81.59,0,0,1,84.6,165.6Zm0-162a80.5,80.5,0,1,0,80.5,80.5A80.59,80.59,0,0,0,84.6,3.6Z"/></svg>