<svg id="Layer_1" data-name="Layer 1" xmlns="http://www.w3.org/2000/svg" viewBox="0 0 169.19 168.2"><defs><style>.cls-1{fill:#ff931e;}</style></defs><rect class="cls-1" x="113.13" y="75.02" width="2.1" height="15.31"/><rect class="cls-1" x="113.13" y="93.53" width="2.1" height="5.89"/><path class="cls-1" d="M120.24,75.69v-7h-9.55V58H99.21V50.4a4.88,4.88,0,0,0,.58.34,5.24,5.24,0,0,0,1.28.44,6.3,6.3,0,0,0,1.25.08h21.13a6.25,6.25,0,0,0,1.24-.08,5.24,5.24,0,0,0,1.28-.44A4.88,4.88,0,0,0,126,42a4.73,4.73,0,0,0-1.28-.44,7.22,7.22,0,0,0-1.24-.09H102.32a7.26,7.26,0,0,0-1.25.09,4.85,4.85,0,0,0-1.28.44,5,5,0,0,0-.69.43,3.34,3.34,0,0,0-.26-.71,3.76,3.76,0,0,0-1.16-1.33,5.21,5.21,0,0,0-3.06-.94,5.15,5.15,0,0,0-3,.94,3.88,3.88,0,0,0-1.17,1.33,4,4,0,0,0-.27.71,3.4,3.4,0,0,0-.68-.43,4.78,4.78,0,0,0-1.27-.44,7.4,7.4,0,0,0-1.25-.09H65.81a7.26,7.26,0,0,0-1.25.09,4.66,4.66,0,0,0-1.27.44,4.87,4.87,0,0,0,0,8.71,5.31,5.31,0,0,0,1.27.44,6.44,6.44,0,0,0,1.26.08H86.94a6.39,6.39,0,0,0,1.25-.08,5.17,5.17,0,0,0,1.27-.44A4.88,4.88,0,0,0,90,50.4V58H78.55v10.7H69v6H57.08c-1,0-2.08,0-3.21,0a17.36,17.36,0,0,0-3.27.57A17.78,17.78,0,0,0,37.76,89.15a16.71,16.71,0,0,0-.3,3.29v10.43H56.62v-9H69v12.42h51.23V94.87h11.47V75.69Zm-19.5-31.78a3.07,3.07,0,0,1,.72-.25,4.26,4.26,0,0,1,.86,0h21.13a4.21,4.21,0,0,1,.85,0,3.24,3.24,0,0,1,.72.25,2.77,2.77,0,0,1,0,5,3.24,3.24,0,0,1-.72.25,5.1,5.1,0,0,1-.85,0H102.32a5.16,5.16,0,0,1-.86,0,3.07,3.07,0,0,1-.72-.25,2.77,2.77,0,0,1,0-5ZM56.09,93.37Zm0,.07s0,0,0,0h0ZM69,91.74H56.76a7.23,7.23,0,0,0-.79,0,1.13,1.13,0,0,0-.3.07l-.16.05-.08,0,0,0h0l-.12.07a1.54,1.54,0,0,0-.17.13,1.58,1.58,0,0,0-.54,1,1.07,1.07,0,0,0,0,.25v7.41h-15v-8.3a15.63,15.63,0,0,1,.27-2.92A15.69,15.69,0,0,1,51.16,77.32a14.62,14.62,0,0,1,2.87-.5c.95-.07,2,0,3,0H69ZM92.14,48.66V46.43s0,0,0,0,0,0,0,0V43.49c-.16-1.11,1.13-1.9,2.48-1.91s2.65.8,2.48,1.91V58h-5Zm-3.63.2a2.92,2.92,0,0,1-.72.25,5.1,5.1,0,0,1-.85,0H65.81a5.16,5.16,0,0,1-.86,0,3.24,3.24,0,0,1-.72-.25,2.77,2.77,0,0,1,0-5,3.24,3.24,0,0,1,.72-.25,4.26,4.26,0,0,1,.86,0H86.94a4.21,4.21,0,0,1,.85,0,2.92,2.92,0,0,1,.72.25A2.78,2.78,0,0,1,90,46.37v0A2.78,2.78,0,0,1,88.51,48.86Zm-7.85,11.2h27.93v8.59H80.66Zm37.48,33.56v10.53h-47V70.75h47Zm11.46-.85h-9.36v-15h9.36Z"/><path class="cls-1" d="M54.15,121.67a6.11,6.11,0,0,0-.42-1.21l-.44-1-.9-1.88L50.51,114l-1.92-3.65L45.71,105l-3.44,6.4-2.46,4.73c-.81,1.61-1.62,3.13-2.34,4.91,0,.12-.09.24-.13.4a1.56,1.56,0,0,0-.06.27l0,.19a6.14,6.14,0,0,0-.08.75,8.59,8.59,0,0,0,0,1.52A8.37,8.37,0,0,0,38.1,127a8.57,8.57,0,0,0,15,.49,8.53,8.53,0,0,0,1.09-5.84Zm-2.08.36a6.32,6.32,0,0,1-.82,4.39,6.46,6.46,0,0,1-8,2.66,6.54,6.54,0,0,1-3.31-3,6.41,6.41,0,0,1-.66-2.18,6.11,6.11,0,0,1,0-1.13,5.51,5.51,0,0,1,.06-.57l0-.15h0s-.54-.1-.24,0l.2,0h0v0l.08-.24c.62-1.51,1.46-3.14,2.24-4.69l2.45-4.71,1.58-3,2.93,5.53,1.86,3.64.89,1.83.41.9.17.44.07.19,0,.08v0h0l.29,0,.82-.14Z"/><path class="cls-1" d="M84.6,165.6a81.5,81.5,0,1,1,81.5-81.5A81.59,81.59,0,0,1,84.6,165.6Zm0-162a80.5,80.5,0,1,0,80.5,80.5A80.59,80.59,0,0,0,84.6,3.6Z"/></svg>