<svg id="Layer_1" data-name="Layer 1" xmlns="http://www.w3.org/2000/svg" viewBox="0 0 169.19 168.2"><defs><style>.cls-1{fill:#ff931e;}</style></defs><path class="cls-1" d="M84.6,165.6a81.5,81.5,0,1,1,81.5-81.5A81.59,81.59,0,0,1,84.6,165.6Zm0-162a80.5,80.5,0,1,0,80.5,80.5A80.59,80.59,0,0,0,84.6,3.6Z"/><path class="cls-1" d="M120,130H45.44a12.68,12.68,0,1,1,0-25.36H120A12.68,12.68,0,0,1,120,130ZM45.44,106.63a10.68,10.68,0,0,0,0,21.36H120a10.68,10.68,0,0,0,0-21.36Z"/><path class="cls-1" d="M115.31,104.13H41.26v-27h51Zm-72.05-2H111l-19.66-23h-48Z"/><polygon class="cls-1" points="87.32 75.07 87.3 73.07 141.04 72.55 138.4 69.01 87.47 69.51 87.45 67.51 139.4 67 145 74.51 87.32 75.07"/><path class="cls-1" d="M45.72,123.65a6.53,6.53,0,1,1,6.52-6.52A6.54,6.54,0,0,1,45.72,123.65Zm0-11.05a4.53,4.53,0,1,0,4.52,4.53A4.53,4.53,0,0,0,45.72,112.6Z"/><path class="cls-1" d="M117.86,123.65a6.53,6.53,0,1,1,6.52-6.52A6.53,6.53,0,0,1,117.86,123.65Zm0-11.05a4.53,4.53,0,1,0,4.52,4.53A4.53,4.53,0,0,0,117.86,112.6Z"/><path class="cls-1" d="M63.75,123.65a6.53,6.53,0,1,1,6.52-6.52A6.53,6.53,0,0,1,63.75,123.65Zm0-11.05a4.53,4.53,0,1,0,4.52,4.53A4.53,4.53,0,0,0,63.75,112.6Z"/><path class="cls-1" d="M99.82,123.65a6.53,6.53,0,1,1,6.53-6.52A6.53,6.53,0,0,1,99.82,123.65Zm0-11.05a4.53,4.53,0,1,0,4.53,4.53A4.53,4.53,0,0,0,99.82,112.6Z"/><path class="cls-1" d="M81.79,123.65a6.53,6.53,0,1,1,6.52-6.52A6.53,6.53,0,0,1,81.79,123.65Zm0-11.05a4.53,4.53,0,1,0,4.52,4.53A4.52,4.52,0,0,0,81.79,112.6Z"/><path class="cls-1" d="M88.31,79.17H46.76V57.79H88.31Zm-39.55-2H86.31V59.79H48.76Z"/></svg>