<svg id="Layer_1" data-name="Layer 1" xmlns="http://www.w3.org/2000/svg" viewBox="0 0 169.19 168.2"><defs><style>.cls-1{fill:#ff931e;}</style></defs><path class="cls-1" d="M84.6,165.6a81.5,81.5,0,1,1,81.5-81.5A81.59,81.59,0,0,1,84.6,165.6Zm0-162a80.5,80.5,0,1,0,80.5,80.5A80.59,80.59,0,0,0,84.6,3.6Z"/><path class="cls-1" d="M70.47,106.51a21.45,21.45,0,0,1-4.28-.51c-.82-.15-1.68-.32-2.61-.41a1.9,1.9,0,0,1-.69-3.57l17.52-9.71-36.68,8.26a4.43,4.43,0,0,1-5.32-3.36l-1-4.54L24.16,74.8,36.7,72l16,11.41,72.35-16.32c5.68-1.28,10.41-1,14.07.74L141.71,69l-.4.09a12.62,12.62,0,0,1,1.77,1.65h0a4.89,4.89,0,0,1-2.54,8c-12.67,2.94-30.39,6.83-32.41,7.27L82.91,103C76.85,105.77,73.24,106.51,70.47,106.51Zm-6.37-2.87c.88.1,1.69.25,2.46.4,3.35.63,6.51,1.23,15.44-2.81l25.33-17,.19,0c.19,0,19.2-4.2,32.57-7.3a2.84,2.84,0,0,0,2.09-1.92,2.9,2.9,0,0,0-.6-2.82,9.92,9.92,0,0,0-1.24-1.18l-8.53,1.92-5.71-2.33,8.8-2a23.69,23.69,0,0,0-9.4.48L52.27,85.52l-16-11.4-8.68,2L39.24,91.82l1.12,5a2.43,2.43,0,0,0,2.93,1.85l50.3-11.34ZM58,90.53a1.9,1.9,0,0,1-1-.3A1.93,1.93,0,0,1,56.09,89l-.16-.7A2,2,0,0,1,57.4,86a1.91,1.91,0,0,1,1.78.51,2.53,2.53,0,0,1,.18-.37,2,2,0,0,1,1.22-.86,1.93,1.93,0,0,1,1.46.26,2,2,0,0,1,.32.25,1.93,1.93,0,0,1,1.39-1.22,2,2,0,0,1,1.79.5,2,2,0,0,1,.18-.36,1.93,1.93,0,0,1,2.68-.6,1.85,1.85,0,0,1,.32.25,1.94,1.94,0,0,1,3.17-.72,1.95,1.95,0,0,1,3.72.24l.15.7a1.9,1.9,0,0,1-.25,1.47,2,2,0,0,1-1.21.85,1.9,1.9,0,0,1-1.47-.25,3.92,3.92,0,0,1-.32-.25,2,2,0,0,1-1.39,1.22,1.92,1.92,0,0,1-1.78-.51,2.53,2.53,0,0,1-.18.37,1.91,1.91,0,0,1-1.22.85,1.88,1.88,0,0,1-1.46-.25,2,2,0,0,1-.32-.25,2,2,0,0,1-.18.36,1.95,1.95,0,0,1-2.68.61,3.92,3.92,0,0,1-.32-.25,1.94,1.94,0,0,1-3.18.71,1.41,1.41,0,0,1-.18.37,1.89,1.89,0,0,1-1.21.85A1.58,1.58,0,0,1,58,90.53Zm.06-2,.86-.2Zm6.08-2.11-.86.2Zm6.63-.76.86-.19Zm9.47-.19a2,2,0,0,1-1-.3A2,2,0,0,1,78.33,84l-.16-.69a1.94,1.94,0,0,1,3.25-1.82,1.78,1.78,0,0,1,.19-.36,1.88,1.88,0,0,1,1.21-.86,2,2,0,0,1,1.46.25,1.65,1.65,0,0,1,.32.26,1.94,1.94,0,0,1,3.18-.72,2.53,2.53,0,0,1,.18-.37,2,2,0,0,1,2.68-.6,2.51,2.51,0,0,1,.32.25,2,2,0,0,1,1.39-1.22,1.92,1.92,0,0,1,1.78.51,1.94,1.94,0,0,1,1.4-1.23,2,2,0,0,1,1.78.51,2,2,0,0,1,.18-.36,1.92,1.92,0,0,1,1.22-.86,1.88,1.88,0,0,1,1.46.25,3.92,3.92,0,0,1,.32.25,1.94,1.94,0,0,1,3.18-.71,1.41,1.41,0,0,1,.18-.37,1.89,1.89,0,0,1,1.21-.85,1.94,1.94,0,0,1,2.32,1.46l.16.7a2,2,0,0,1-1.47,2.32,1.91,1.91,0,0,1-1.78-.51,2.53,2.53,0,0,1-.18.37,1.91,1.91,0,0,1-1.22.85,1.88,1.88,0,0,1-1.46-.25,2,2,0,0,1-.32-.25,1.94,1.94,0,0,1-3.18.71,1.41,1.41,0,0,1-.18.37,2,2,0,0,1-1.21.86,1.92,1.92,0,0,1-1.46-.26,2,2,0,0,1-.33-.25,1.91,1.91,0,0,1-1.39,1.22,1.94,1.94,0,0,1-1.78-.5,2.42,2.42,0,0,1-.18.36,1.92,1.92,0,0,1-1.22.86,2,2,0,0,1-1.46-.25,2,2,0,0,1-.32-.26A1.94,1.94,0,0,1,87,84a2,2,0,0,1-1.79-.51,1.94,1.94,0,0,1-3.17.72,1.78,1.78,0,0,1-.19.36,1.88,1.88,0,0,1-1.21.86A2,2,0,0,1,80.22,85.52Zm3.24-2.67.86-.2Zm3.18-.72.86-.19ZM92.72,80l-.86.19Zm6.63-.76.86-.2ZM112,78.35a1.93,1.93,0,0,1-1-.3,2,2,0,0,1-.86-1.21l-.15-.7a1.88,1.88,0,0,1,.25-1.46,2,2,0,0,1,1.22-.86,1.93,1.93,0,0,1,1.46.26,1.85,1.85,0,0,1,.32.25,1.93,1.93,0,0,1,1.39-1.22,1.9,1.9,0,0,1,1.47.25,2.51,2.51,0,0,1,.32.25,1.93,1.93,0,0,1,3.17-.71,2.53,2.53,0,0,1,.18-.37,2,2,0,0,1,1.22-.86,2,2,0,0,1,2.32,1.47l.15.7A1.94,1.94,0,0,1,122,76.16a2,2,0,0,1-1.79-.51A1.41,1.41,0,0,1,120,76a1.91,1.91,0,0,1-1.21.85,1.88,1.88,0,0,1-1.46-.25,1.61,1.61,0,0,1-.32-.25,2,2,0,0,1-1.4,1.22,1.92,1.92,0,0,1-1.78-.51,2.53,2.53,0,0,1-.18.37,2,2,0,0,1-1.22.86A2,2,0,0,1,112,78.35Zm.06-1.95.86-.19Zm6.08-2.1-.86.19Zm3.18-.72-.86.19Z"/></svg>