<svg id="Layer_1" data-name="Layer 1" xmlns="http://www.w3.org/2000/svg" viewBox="0 0 169.19 168.2"><defs><style>.cls-1{fill:#ff931e;}</style></defs><path class="cls-1" d="M138.37,91.85A13.93,13.93,0,0,0,136,85.9a19.84,19.84,0,0,0-4.4-4.51,30.28,30.28,0,0,0-5.31-3.19c-.93-.44-1.87-.85-2.83-1.21-.48-.19-1-.36-1.45-.52l-1-.31-.55-1.3c-.26-.59-.53-1.18-.83-1.76-.58-1.15-1.22-2.28-1.92-3.38a39.32,39.32,0,0,0-4.79-6.11,46.43,46.43,0,0,0-12.42-9.15c-9.19-4.7-19.39-6.88-29.53-7.71a106.9,106.9,0,0,0-15.29-.1A15.15,15.15,0,0,0,48,49.08a14.73,14.73,0,0,0-5,6.29,32.83,32.83,0,0,0-2.16,7.5,72.27,72.27,0,0,1-1.42,7.28,3.38,3.38,0,0,1-.64,1.24c-.27.22-.11.14-1.15.23a6.13,6.13,0,0,0-3.88,2.18,12.17,12.17,0,0,0-2,3.61,17.65,17.65,0,0,0-.6,1.91,18.66,18.66,0,0,0-.4,2.05v8.92c0,1.49-.05,2.88.05,4.49a17.36,17.36,0,0,0,.95,4.59,23.42,23.42,0,0,0,4.81,7.85,29.23,29.23,0,0,0,3.33,3.16c.3.25.6.48.92.71s.58.48,1,.4h1.9a11.33,11.33,0,0,0,22.56,0h40.51a11.33,11.33,0,0,0,22.57,0h2.06a5.29,5.29,0,0,0,3.33-1.5,12,12,0,0,0,2.89-5.82,34.68,34.68,0,0,0,.86-6.12c.08-1,.1-2,.12-3A18.83,18.83,0,0,0,138.37,91.85ZM61.41,117a9.23,9.23,0,1,1,2.7-6.53A9.25,9.25,0,0,1,61.41,117Zm63.08,0a9.21,9.21,0,1,1,2.71-6.53A9.28,9.28,0,0,1,124.49,117Zm11.8-19a32.93,32.93,0,0,1-.8,5.74,10.06,10.06,0,0,1-2.31,4.79,3.09,3.09,0,0,1-2,.93h-1.93a11.33,11.33,0,0,0-22.57,0H66.17a11.33,11.33,0,0,0-22.56,0H42c-.28-.21-.56-.42-.83-.65a27.42,27.42,0,0,1-3.08-2.92,21.27,21.27,0,0,1-4.38-7.14,15.32,15.32,0,0,1-.85-4.05c-.08-1.33,0-2.9,0-4.34V81.51a13.35,13.35,0,0,1,2.54-6.33,4,4,0,0,1,2.54-1.47c.26,0,.4,0,1-.09a2.64,2.64,0,0,0,1.34-.74,5.24,5.24,0,0,0,1.16-2,71.73,71.73,0,0,0,1.49-7.58,30.21,30.21,0,0,1,2-7,12.42,12.42,0,0,1,4.29-5.41,13,13,0,0,1,6.61-2.06,102.6,102.6,0,0,1,15,.09c9.94.81,19.89,3,28.73,7.49a44,44,0,0,1,11.87,8.72,37.3,37.3,0,0,1,4.53,5.79,32.7,32.7,0,0,1,1.82,3.21c.28.54.54,1.1.79,1.66l.37.85.54,1.35c1.2.31,1.37.38,1.89.54l1.36.49c.91.35,1.81.73,2.68,1.15a28.85,28.85,0,0,1,4.94,3c3,2.28,5.48,5.43,6,9.1A32.54,32.54,0,0,1,136.29,97.92Z"/><path class="cls-1" d="M115.59,77.17l-.38-.93-.31-.71c-.29-.62-.61-1.24-.93-1.85a31.32,31.32,0,0,0-7.91-9.5,43.79,43.79,0,0,0-14.49-7.53,70.75,70.75,0,0,0-16-2.93,78.35,78.35,0,0,0-8.11-.18l-1,0-.8.05-1,.07-.25,0c-.07,0-.2,0-.16.1V72.57a6.19,6.19,0,0,0,1.81,4.33,6.27,6.27,0,0,0,2,1.29,6.81,6.81,0,0,0,2.34.53h45.51c.53.14.12-.36.06-.63Zm-33.16-.56h-12a5.12,5.12,0,0,1-1.54-.37,4,4,0,0,1-1.35-.86,4,4,0,0,1-1.15-2.89l0-4V55.69l1.19,0a74.4,74.4,0,0,1,7.9.17,68.32,68.32,0,0,1,15.5,2.84,41.52,41.52,0,0,1,13.79,7.16,30.28,30.28,0,0,1,5.32,5.59,31,31,0,0,1,2.07,3.27c.3.57.6,1.14.86,1.73l.09.2Z"/><path class="cls-1" d="M83.1,85.56a3.28,3.28,0,0,0-1.58-.51c-.51,0-.8,0-1.22,0H71.09c-.41,0-.71,0-1.22,0a3.28,3.28,0,0,0-1.58.51,3.33,3.33,0,0,0,0,5.64,3.18,3.18,0,0,0,1.58.51c.51,0,.81,0,1.22,0H80.3c.42,0,.71,0,1.22,0a3.28,3.28,0,0,0,1.58-.51,3.33,3.33,0,0,0,0-5.64ZM82,89.42a1.25,1.25,0,0,1-.59.19H70a1.23,1.23,0,0,1,0-2.46H81.39A1.23,1.23,0,0,1,82,89.42Z"/><path class="cls-1" d="M84.6,165.6a81.5,81.5,0,1,1,81.5-81.5A81.59,81.59,0,0,1,84.6,165.6Zm0-162a80.5,80.5,0,1,0,80.5,80.5A80.59,80.59,0,0,0,84.6,3.6Z"/></svg>