<svg id="Layer_1" data-name="Layer 1" xmlns="http://www.w3.org/2000/svg" viewBox="0 0 169.19 168.2"><defs><style>.cls-1{fill:#ff931e;}</style></defs><path class="cls-1" d="M84.6,165.6a81.5,81.5,0,1,1,81.5-81.5A81.59,81.59,0,0,1,84.6,165.6Zm0-162a80.5,80.5,0,1,0,80.5,80.5A80.59,80.59,0,0,0,84.6,3.6Z"/><path class="cls-1" d="M138.37,91.85A14,14,0,0,0,136,85.9a19.84,19.84,0,0,0-4.4-4.51,30.9,30.9,0,0,0-5.31-3.19c-.93-.44-1.88-.85-2.83-1.21-.49-.18-1-.36-1.45-.52l-1-.31-.54-1.3c-.27-.59-.54-1.18-.84-1.75a36.29,36.29,0,0,0-1.92-3.38,39.4,39.4,0,0,0-4.79-6.12,46.43,46.43,0,0,0-12.42-9.15c-9.2-4.7-19.39-6.88-29.53-7.71a104.06,104.06,0,0,0-15.29-.09A15.05,15.05,0,0,0,48,49.09a14.63,14.63,0,0,0-5,6.28,33,33,0,0,0-2.16,7.5c-.49,2.49-.74,5.09-1.42,7.28a3.3,3.3,0,0,1-.64,1.24c-.28.22-.12.15-1.15.23a6.12,6.12,0,0,0-3.88,2.19,11.67,11.67,0,0,0-2,3.6,19.16,19.16,0,0,0-.6,1.91,17,17,0,0,0-.4,2.05v8.92c0,1.5-.05,2.88,0,4.5a17.56,17.56,0,0,0,1,4.59,23.27,23.27,0,0,0,4.8,7.85,30.14,30.14,0,0,0,3.33,3.16l.92.71c.29.21.58.47,1,.4H43.6a11.34,11.34,0,0,0,22.58,0h40.5a11.33,11.33,0,0,0,22.57,0h2.06a5.29,5.29,0,0,0,3.33-1.5,12,12,0,0,0,2.89-5.83,35.69,35.69,0,0,0,.87-6.11c.07-1,.09-2,.11-3A18.94,18.94,0,0,0,138.37,91.85ZM61.41,117a9.22,9.22,0,1,1,0-13,9.2,9.2,0,0,1,0,13Zm63.08,0a9.22,9.22,0,1,1,2.7-6.51A9.21,9.21,0,0,1,124.49,117Zm11.8-19a33.91,33.91,0,0,1-.8,5.74,10.14,10.14,0,0,1-2.31,4.8,3.1,3.1,0,0,1-2,.92h-1.93a11.33,11.33,0,0,0-22.57,0H66.18a11.34,11.34,0,0,0-22.58,0H42c-.29-.2-.56-.42-.84-.64a26.67,26.67,0,0,1-3.08-2.93,21.17,21.17,0,0,1-4.38-7.14,15.67,15.67,0,0,1-.86-4c-.07-1.33,0-2.91,0-4.35V81.51a13.4,13.4,0,0,1,2.53-6.32,4,4,0,0,1,2.55-1.47c.26,0,.4,0,1-.1a2.7,2.7,0,0,0,1.34-.73,5.34,5.34,0,0,0,1.16-2.06,71.24,71.24,0,0,0,1.49-7.58,30.84,30.84,0,0,1,2-7,12.56,12.56,0,0,1,4.3-5.4,13,13,0,0,1,6.61-2.07,102.6,102.6,0,0,1,15,.09c9.94.81,19.89,3,28.73,7.49a44.25,44.25,0,0,1,11.87,8.72,37.38,37.38,0,0,1,4.53,5.8c.66,1,1.26,2.1,1.82,3.2.28.55.54,1.1.79,1.66l.37.85.54,1.35c1.2.31,1.37.39,1.89.55s.91.32,1.37.49c.9.34,1.8.72,2.67,1.14a29.38,29.38,0,0,1,5,3c3,2.28,5.47,5.43,6,9.09A32.55,32.55,0,0,1,136.29,97.92Z"/><path class="cls-1" d="M90.92,63,90,64.85a19.14,19.14,0,0,1,9.37,10.58H79.67l13-19.75L63.4,83.14H79L65.78,103.35,99.5,75.89A19,19,0,0,1,74.36,99.47l-.79,2A21.1,21.1,0,0,0,90.92,63ZM75,93.16,82.88,81H68.73L81.08,69.46l-5.33,8.08H94.14Z"/><path class="cls-1" d="M67.59,94.81a18.88,18.88,0,0,1-4.84-9.74A19,19,0,0,1,81.47,62.85v-2.1A21.15,21.15,0,0,0,62.11,73.44,21.16,21.16,0,0,0,66,96.25Z"/></svg>