<svg id="Layer_1" data-name="Layer 1" xmlns="http://www.w3.org/2000/svg" viewBox="0 0 169.19 168.2"><defs><style>.cls-1{fill:#ff931e;}</style></defs><path class="cls-1" d="M84.6,165.6a81.5,81.5,0,1,1,81.5-81.5A81.59,81.59,0,0,1,84.6,165.6Zm0-162a80.5,80.5,0,1,0,80.5,80.5A80.59,80.59,0,0,0,84.6,3.6Z"/><path class="cls-1" d="M133.38,118.72V93.15L110.3,80.1V92L95.72,83.73V61.48H85.27V50.3H73.58V22.72H63.31L55.9,50.3H49.46V61.48H39v57.24H34v6.76H137.2v-6.76Zm-21-35,18.87,10.66v24.34H112.4Zm-2.1,10.66v24.34H91.43v-35ZM64.93,24.83h6.54V50.3H58.08ZM51.56,52.41h31.6v9.07H51.56ZM41.11,72.61H53.29v6.06H41.11Zm0,17.24H53.29V95.9H41.11Zm0,8.16H55.39V87.74H41.11v-7H55.39V70.5H41.11V63.58H93.62v19l-4.3-2.44V92l-21-11.86v38.62H41.11Zm48.21-3.63v24.34H70.45v-35Zm45.77,29h-99v-2.54h99Z"/><polygon class="cls-1" points="128.03 101.15 114.6 101.15 114.6 106.08 116.7 106.08 116.7 103.26 128.03 103.26 128.03 101.15"/><polygon class="cls-1" points="95.72 103.26 107.05 103.26 107.05 101.15 93.62 101.15 93.62 106.08 95.72 106.08 95.72 103.26"/><polygon class="cls-1" points="74.75 103.26 86.08 103.26 86.08 101.15 72.64 101.15 72.64 106.08 74.75 106.08 74.75 103.26"/></svg>