<svg id="Layer_1" data-name="Layer 1" xmlns="http://www.w3.org/2000/svg" viewBox="0 0 169.19 168.2"><defs><style>.cls-1{fill:#ff931e;}</style></defs><path class="cls-1" d="M84.6,165.6a81.5,81.5,0,1,1,81.5-81.5A81.59,81.59,0,0,1,84.6,165.6Zm0-162a80.5,80.5,0,1,0,80.5,80.5A80.59,80.59,0,0,0,84.6,3.6Z"/><path class="cls-1" d="M51.09,101.43a8,8,0,1,0,5.69,2.35A8.06,8.06,0,0,0,51.09,101.43Zm4.2,12.23a6,6,0,0,1-8.39,0,6,6,0,0,1,0-8.39,5.93,5.93,0,0,1,8.39,8.39Z"/><path class="cls-1" d="M138,44.75a4.05,4.05,0,0,0-2-.45H120a4,4,0,0,0-4,2.92h-2.87V61.43h-4l-26.1-25L73.46,46,64.39,37.3,37.85,61.42H35c-.51,0-.87,0-1.54,0a4.94,4.94,0,0,0,0,9.83c.67,0,1,0,1.54,0h2.37V95.59l-.06.06a19.54,19.54,0,1,0,33.35,13.82c0-.41,0-.81-.06-1.21L88.21,95.43l1.7,21,.47,5.73.11,1.43.06.71a7.35,7.35,0,0,0,.1.82,9.66,9.66,0,0,0,1,3,6.74,6.74,0,0,0,2.22,2.54,6.29,6.29,0,0,0,3.25,1h6.84V84l5.84-4.24V71.31H112c.51,0,.87,0,1.54,0A4.94,4.94,0,0,0,115.23,62V49.33H116a4,4,0,0,0,2,2.47,4.26,4.26,0,0,0,2,.45h16a4.27,4.27,0,0,0,2-.45,4,4,0,0,0,0-7Zm-55-5.36,23,22H89.53L75,47.46Zm-18.73.79L86.5,61.42H41Zm-.93,81.61a17.44,17.44,0,1,1,5.1-12.32A17.42,17.42,0,0,1,63.42,121.79Zm38.42,7.86-4.65,0a4.12,4.12,0,0,1-3.69-2.4,8.21,8.21,0,0,1-.78-2.41c0-.22,0-.41-.07-.62l-.06-.71-.11-1.44L92,116.32,90.21,94l11.63-8.46Zm5.83-51L70.29,105.86a19.5,19.5,0,0,0-30.84-12V71.31h68.22Zm8.18-12.3a2.87,2.87,0,0,1-2.55,2.82H33.65a2.84,2.84,0,0,1,0-5.65H113.3A2.88,2.88,0,0,1,115.85,66.37Zm21.22-16.44a2,2,0,0,1-1.07.21H120a2,2,0,0,1-1.06-.21,1.86,1.86,0,0,1,0-3.31,1.88,1.88,0,0,1,1.06-.21h16a1.92,1.92,0,0,1,1.07.21,1.86,1.86,0,0,1,0,3.31Z"/><rect class="cls-1" x="46.25" y="50.14" width="19.7" height="2.11" transform="translate(-19.84 51.06) rotate(-42.28)"/></svg>