<?xml version="1.0" encoding="utf-8"?>
<!-- Generator: Adobe Illustrator 24.2.3, SVG Export Plug-In . SVG Version: 6.00 Build 0)  -->
<svg version="1.1" xmlns="http://www.w3.org/2000/svg" xmlns:xlink="http://www.w3.org/1999/xlink" x="0px" y="0px"
	 viewBox="0 0 372 356" style="enable-background:new 0 0 372 356;" xml:space="preserve">
<style type="text/css">
	.st0{fill:none;stroke:#FFFFFF;stroke-width:2.5497;stroke-miterlimit:10;}
	.st1{fill:#FFFFFF;}
	.st2{fill:none;stroke:#FFFFFF;stroke-width:3;stroke-miterlimit:10;}
	.st3{opacity:0.46;fill:#006978;}
	.st4{opacity:0.22;clip-path:url(#SVGID_2_);}
</style>
<g id="Enquiry">
</g>
<g id="FAQ">
</g>
<g id="location">
	<g>
		<circle class="st0" cx="183" cy="53.3" r="27.3"/>
		<g>
			<path class="st1" d="M174.2,66.3v-2.2l2.9-2.8c6.9-6.6,10-10,10-14.1c0-2.7-1.3-5.3-5.4-5.3c-2.4,0-4.5,1.2-5.7,2.3l-1.2-2.6
				c1.9-1.6,4.5-2.7,7.6-2.7c5.8,0,8.3,4,8.3,7.8c0,5-3.6,9-9.3,14.5l-2.2,2v0.1h12.1v3H174.2z"/>
		</g>
		<rect x="73.2" y="319.5" class="st2" width="225.6" height="10.5"/>
		<rect x="80.4" y="232" class="st2" width="9.2" height="87.5"/>
		<rect x="89" y="232" class="st2" width="9.2" height="87.5"/>
		<rect x="273.2" y="232" class="st2" width="9.2" height="87.5"/>
		<rect x="281.7" y="232" class="st2" width="9.2" height="87.5"/>
		<polyline class="st2" points="98.2,232 98.2,210.9 121.9,219.5 		"/>
		<path class="st2" d="M121.9,319.5V176.7c0,0,13.8-19.7,63.8-19.7s63.1,19.1,63.1,19.1v143.4"/>
		<polyline class="st2" points="248.8,219.1 273.2,210.9 273.2,232 		"/>
		<path class="st2" d="M121.9,221.5c0,0,19.7-13.2,63.1-13.2s63.8,12.4,63.8,12.4"/>
		<path class="st2" d="M121.9,246.5c0,0,19.7-10.5,63.1-10.5s63.8,9.9,63.8,9.9"/>
		<path class="st2" d="M121.9,272.8c0,0,19.7-9.2,63.1-9.2s63.8,8.7,63.8,8.7"/>
		<path class="st2" d="M121.9,296.5c0,0,19.7-7.9,63.1-7.9s63.8,7.4,63.8,7.4"/>
		<line class="st2" x1="185" y1="208.3" x2="185" y2="319.5"/>
		<line class="st2" x1="217.9" y1="210.9" x2="217.9" y2="319.5"/>
		<line class="st2" x1="236.3" y1="215.6" x2="236.3" y2="316.8"/>
		<line class="st2" x1="154.8" y1="210.9" x2="154.8" y2="319.5"/>
		<line class="st2" x1="167.9" y1="289.2" x2="167.9" y2="319.5"/>
		<line class="st2" x1="201.8" y1="289.2" x2="201.8" y2="319.5"/>
		<line class="st2" x1="135" y1="215.6" x2="135" y2="319.5"/>
	</g>
</g>
<g id="Gallery">
</g>
<g id="specs">
</g>
<g id="Key_features">
</g>
<g id="Gom_Main">
</g>
<g id="infos">
</g>
</svg>
