<svg id="Layer_1" data-name="Layer 1" xmlns="http://www.w3.org/2000/svg" viewBox="0 0 234.69 293.97"><defs><style>.cls-1{fill:#fff;}</style></defs><path class="cls-1" d="M115.84,243.85l-.17,0c-22-5.9-22.18-7.16-22.27-7.92C93.22,234.52,95,79,95.24,61.3v-.13l0-.13c0-.21,1.47-5.09,5.35-6.4,2.3-.81,13.81-4.78,16.28-4.42s17.66,2.16,17.81,2.17L206.11,60l.07,0c.3.07,7.46,2.09,8.5,21.78v.16l0,.16c-.06.21-1.47,5.37-5,8.56l-.17.15-.22.07c-.11,0-11.19,3.4-21.92,7.67-19.47,7.74-20.32,11.4-20.11,12.34l0,.22v65.45l-.06.17c-.09.26-2.1,6.68,10.6,12.87,13.62,6.65,32.41,15.05,32.6,15.13l.2.09,3,3.36c.19.22,4.2,5.06,1.08,13.35-.18,1.77-1.48,12.34-5.93,14.47l-.17.08-.19,0ZM95.4,235.34c1.76,1.07,11.59,4,20.62,6.47l92-7.71c2.6-1.48,4.24-8.65,4.67-12.9v-.14l0-.12c2.76-7.2-.53-11.27-.67-11.44l-2.7-3c-2.05-.92-19.57-8.78-32.47-15.07-13.39-6.53-12-13.88-11.67-15.19v-65c-.45-2.45,1.45-6.62,21.37-14.54,10-4,20.23-7.16,21.86-7.66a17.9,17.9,0,0,0,4.2-7.29c-.92-16.89-6.35-19.52-6.93-19.75L134.5,54.4c-.65-.08-15.53-1.85-17.87-2.18-1.48-.21-9.85,2.4-15.34,4.32h0c-2.59.88-3.81,4.25-4,4.92C97.19,67.23,95.33,226.6,95.4,235.34Z"/><path class="cls-1" d="M114.92,242.9c-.18-2.8,3.31-31.51,4.57-37.46,1.3-6.17,14.67-17.69,17.14-19.77,0-6.09-.33-68.39,0-77.63.23-6.52-7.19-14.12-12.1-19.15-2.16-2.21-3.72-3.81-4.28-4.92-1.73-3.47-2.38-29.51-2.45-32.46l2,0c.25,11,1.09,29.3,2.24,31.61A30.24,30.24,0,0,0,126,87.48c5.15,5.28,12.94,13.25,12.68,20.63-.33,9.63,0,77.34,0,78v.48l-.37.3c-4.32,3.59-15.78,14-16.82,19-1.33,6.3-4.68,34.6-4.52,36.9Z"/><path class="cls-1" d="M99.72,238.35,98,237.25c2.1-3.21,1.92-10,1.92-10,0-1.51,1.35-147.2,1.68-156.86C102,61,100,56,100,56l1.88-.74c.08.21,2.09,5.35,1.75,15.21-.33,9.63-1.67,155.29-1.68,156.76C102,227.46,102.16,234.61,99.72,238.35Z"/><path class="cls-1" d="M173.61,189.42l-.09-2c8.8-.37,9.8-9,9.87-9.72V119.77c.92-10.41-12.21-13.27-12.77-13.39l.41-2c.15,0,15.41,3.34,14.38,15.5v57.91C185.4,177.92,184.4,189,173.61,189.42Z"/><rect class="cls-1" x="207.95" y="89.91" width="2.02" height="114.62"/><path class="cls-1" d="M96.68,80.12a78.46,78.46,0,0,1-12.49-5.66l1.1-2A77,77,0,0,0,97.42,78Zm-24-13c-3.86-2.75-7.64-5.69-10.84-8.21l1.4-1.77c3.17,2.5,6.93,5.42,10.75,8.14ZM51.22,50.54c-4.16-3.2-7.62-5.7-10.91-7.87l1.24-1.89c3.34,2.21,6.85,4.74,11,8Z"/><path class="cls-1" d="M86.88,99.46c-4.11-1.13-8.34-2.54-12.95-4.3l.81-2.11c4.54,1.74,8.71,3.12,12.74,4.23Zm-25.5-9.55c-4-1.78-8-3.66-11.86-5.47l-.45-.21,1-2,.45.21c3.87,1.81,7.87,3.68,11.83,5.45ZM36.79,78.59c-4.64-2.06-8.72-3.73-12.46-5.13l.79-2.11c3.78,1.41,7.9,3.1,12.58,5.18Z"/><path class="cls-1" d="M93.1,125.06c-4.31-.41-8.72-1-13.49-1.66l.33-2.23c4.73.7,9.1,1.24,13.37,1.65Zm-26.88-3.92c-3.9-.72-8.12-1.56-13.31-2.63l.46-2.21c5.17,1.07,9.38,1.9,13.26,2.62Zm-26.56-5.41c-3.93-.82-8.58-1.78-13.25-2.69l.43-2.22c4.69.91,9.34,1.88,13.28,2.71Z"/><path class="cls-1" d="M18.85,149.58v-2.26l13.53,0v2.26Zm27.08-.08v-2.26l13.54,0v2.26ZM73,149.42v-2.25l13.54,0v2.26Z"/><path class="cls-1" d="M26.76,184.48l-.42-2.22c4.68-.9,9.33-1.85,13.25-2.67l.46,2.21C36.12,182.62,31.46,183.57,26.76,184.48ZM53.3,179l-.45-2.21c5.2-1.06,9.43-1.89,13.31-2.61l.41,2.22C62.7,177.15,58.49,178,53.3,179Zm26.58-4.81L79.55,172c4.78-.69,9.2-1.22,13.51-1.6l.2,2.25C89,173,84.61,173.54,79.88,174.23Z"/><path class="cls-1" d="M24.93,224l-.79-2.12c3.75-1.38,7.84-3,12.49-5l.9,2.07C32.84,220.9,28.72,222.57,24.93,224Zm25-10.65-.5-1-.43-1c4-1.83,8.21-3.73,12.35-5.52l.9,2.07C58.14,209.6,54,211.49,49.94,213.32Zm24.81-10.57L74,200.64c4.6-1.71,8.85-3.09,13-4.21l.59,2.17C83.47,199.71,79.29,201.06,74.75,202.75Z"/><path class="cls-1" d="M44.5,253.19l-1.3-1.85c4-2.8,7.83-5.82,10.74-8.13l1.4,1.77C52.41,247.31,48.52,250.35,44.5,253.19Zm21.43-16.64-1.39-1.78c4.23-3.31,7.71-5.88,11-8.08l1.26,1.87C73.56,230.73,70.12,233.27,65.93,236.55Zm22.35-14.77-1-2a70.47,70.47,0,0,1,12.83-4.89l.59,2.17A67.82,67.82,0,0,0,88.28,221.78Z"/></svg>