<svg id="Layer_1" data-name="Layer 1" xmlns="http://www.w3.org/2000/svg" viewBox="0 0 120 150"><defs><style>.cls-1,.cls-2{fill:#fff;}.cls-2{font-size:6.01px;font-family:FiraSans-Bold, Fira Sans;font-weight:700;}.cls-3{letter-spacing:-0.02em;}.cls-4{letter-spacing:-0.05em;}</style></defs><path class="cls-1" d="M25.88,138.2a6.75,6.75,0,1,1,6.75-6.75A6.75,6.75,0,0,1,25.88,138.2Zm0-12.8a6,6,0,1,0,6.05,6A6.06,6.06,0,0,0,25.88,125.4Z"/><path class="cls-1" d="M42.27,138.2A6.75,6.75,0,1,1,49,131.45,6.76,6.76,0,0,1,42.27,138.2Zm0-12.8a6.05,6.05,0,1,0,6,6A6.06,6.06,0,0,0,42.27,125.4Z"/><path class="cls-1" d="M98.14,138.2a6.75,6.75,0,1,1,6.75-6.75A6.75,6.75,0,0,1,98.14,138.2Zm0-12.8a6,6,0,1,0,6,6A6.06,6.06,0,0,0,98.14,125.4Z"/><path class="cls-1" d="M110.17,129.82h-5.85l-.07-.24a6.39,6.39,0,0,0-12.21,0l-.07.24H48.44l-.07-.24a6.39,6.39,0,0,0-12.21,0l-.07.24h-4l-.07-.24a6.39,6.39,0,0,0-12.21,0l-.07.24H9.83V89.54H82.72l2.31,2v25.2h1.86V97.93H104l6.19,12Zm-5.34-.7h4.65v-19l-5.92-11.46h-16v18.86H84.33V91.9l-1.88-1.66H10.52v38.88h8.67a7.09,7.09,0,0,1,13.38,0h3a7.09,7.09,0,0,1,13.38,0H91.45a7.09,7.09,0,0,1,13.38,0Z"/><path class="cls-1" d="M108.42,110h-20V99.41h14.06Zm-19.34-.7h18.15l-5.2-9.22h-13Z"/><path class="cls-1" d="M17.61,94.33a1.75,1.75,0,0,1-1.41,1.73,1.69,1.69,0,0,1,1.65,1.78c0,1.16-1,2.19-2.89,2.19a3.21,3.21,0,0,1-2.63-1.15l1.07-1.06a1.92,1.92,0,0,0,1.41.66.81.81,0,0,0,.92-.81c0-.6-.32-.87-1-.87h-.62l.23-1.39h.43c.58,0,.87-.28.87-.72S15.3,94,14.81,94a1.91,1.91,0,0,0-1.34.6l-1-1.07a3.64,3.64,0,0,1,2.62-1C16.73,92.53,17.61,93.31,17.61,94.33Z"/><path class="cls-1" d="M24.72,96.15c0,2.91-1.72,3.67-3.75,3.67H18.51V92.53h2.33C22.84,92.53,24.72,93.15,24.72,96.15Zm-4-2.1v4.26h.42c1,0,1.41-.51,1.41-2.16s-.47-2.1-1.39-2.1Z"/><path class="cls-1" d="M32.25,94H29.84v1.36H32v1.46H29.84v1.47h2.58v1.5H27.68V92.53h4.79Z"/><path class="cls-1" d="M40.07,100l-1.27,1.66A3.52,3.52,0,0,0,36,100c-2,0-3.25-1.4-3.25-3.82s1.22-3.85,3.41-3.85,3.4,1.43,3.4,3.85a3.44,3.44,0,0,1-1.73,3.15A3.44,3.44,0,0,1,40.07,100ZM36.14,98.5c.84,0,1.16-.65,1.16-2.33s-.34-2.32-1.16-2.32S35,94.48,35,96.17,35.32,98.5,36.14,98.5Z"/><path class="cls-1" d="M46.16,97.35c0,1.49-1,2.68-3,2.68s-3-1.09-3-2.68V92.53h2.16v4.76c0,.81.24,1.19.87,1.19s.87-.38.87-1.19V92.53h2.16Z"/><path class="cls-1" d="M49.11,99.82H47V92.53h2.16Z"/><path class="cls-1" d="M55.8,95c0,1.71-1.19,2.57-2.92,2.57h-.71v2.27H50V92.53h2.63C54.6,92.53,55.8,93.35,55.8,95Zm-2.2,0c0-.59-.28-1-1-1h-.44v2h.5C53.28,96,53.6,95.7,53.6,95Z"/><path class="cls-1" d="M63.78,99.82H61.65l0-2.58a27.75,27.75,0,0,1,.07-3l-.86,4.83h-2l-.92-4.83a22.57,22.57,0,0,1,.13,3l0,2.59H55.81l.52-7.29H59l.84,4.73.75-4.73h2.67Z"/><path class="cls-1" d="M69,94H66.54v1.36h2.12v1.46H66.54v1.47h2.58v1.5H64.39V92.53h4.78Z"/><path class="cls-1" d="M75.75,99.82h-2.7L71.46,94.5a19.37,19.37,0,0,1,.28,3.06v2.26H69.83V92.53h2.65l1.66,5.35a16.35,16.35,0,0,1-.29-3V92.53h1.9Z"/><path class="cls-1" d="M81.84,94.15H80.18v5.67H78V94.15H76.26V92.53h5.8Z"/><text class="cls-2" transform="translate(12.64 105.74)">TRANSPO<tspan class="cls-3" x="25.69" y="0">R</tspan><tspan class="cls-4" x="29.28" y="0">TA</tspan><tspan x="35.48" y="0">TION</tspan></text><path class="cls-1" d="M110.37,86.52H9.63V46.86H110.37ZM10,86.13H110V47.26H10Z"/><path class="cls-1" d="M23.76,74.48H13.91V64.81h9.85Zm-9.45-.39h9V65.2h-9Z"/><path class="cls-1" d="M36.41,74.48H26.57V64.81h9.84ZM27,74.09H36V65.2H27Z"/><path class="cls-1" d="M94.05,74.48H84.21V64.81h9.84Zm-9.45-.39h9.06V65.2H84.6Z"/><path class="cls-1" d="M52.08,86.52H38.86V64.81H52.08Zm-12.82-.39H51.68V65.2H39.26Z"/><path class="cls-1" d="M15.4,51.42a1.32,1.32,0,0,1-1.06,1.31,1.28,1.28,0,0,1,1.24,1.36c0,.85-.72,1.66-2.25,1.66a2.55,2.55,0,0,1-2.08-.91l.9-.88a1.44,1.44,0,0,0,1,.49c.33,0,.61-.16.61-.53s-.2-.58-.69-.58h-.5l.2-1.15h.33c.42,0,.59-.19.59-.46s-.21-.42-.55-.42a1.39,1.39,0,0,0-1,.44l-.85-.89a2.9,2.9,0,0,1,2.07-.81C14.72,50.05,15.4,50.63,15.4,51.42Z"/><path class="cls-1" d="M20.78,52.8c0,2.19-1.28,2.77-2.89,2.77h-2v-5.5h1.9C19.34,50.07,20.78,50.54,20.78,52.8Zm-3-1.46v3H18c.71,0,.91-.38.91-1.5s-.24-1.46-.89-1.46Z"/><path class="cls-1" d="M27.05,50.68l-.79.93a1.77,1.77,0,0,0-1.16-.44c-.36,0-.5.13-.5.31s.19.3.93.54c1.19.39,1.64.91,1.64,1.88s-.9,1.85-2.39,1.85a3.23,3.23,0,0,1-2.3-.86l.89-1a2,2,0,0,0,1.33.53c.43,0,.57-.19.57-.38s-.15-.41-.82-.61c-1.38-.44-1.73-1-1.73-1.82,0-1.09,1-1.74,2.22-1.74A2.88,2.88,0,0,1,27.05,50.68Z"/><path class="cls-1" d="M31.87,50.57l-.83,1a1.55,1.55,0,0,0-.92-.35c-.58,0-.89.57-.89,1.61s.32,1.59.93,1.59a1.53,1.53,0,0,0,1-.44l.79,1a2.68,2.68,0,0,1-1.86.81c-1.68,0-2.73-1-2.73-3A2.61,2.61,0,0,1,30,49.9,2.7,2.7,0,0,1,31.87,50.57Z"/><path class="cls-1" d="M34.83,54.58H33.71l-.16,1H31.64l1.57-5.5h2.16l1.56,5.5H35Zm-.22-1.26-.35-2-.33,2Z"/><path class="cls-1" d="M41.52,55.57H39.25l-1-3.87a14.53,14.53,0,0,1,.23,2.35v1.52h-1.6v-5.5h2.23l1,3.89a12.92,12.92,0,0,1-.24-2.4V50.07h1.6Z"/><path class="cls-1" d="M46.6,55.57H44.33l-1-3.87a14.53,14.53,0,0,1,.23,2.35v1.52H42v-5.5h2.23l1,3.89a12.92,12.92,0,0,1-.24-2.4V50.07h1.6Z"/><path class="cls-1" d="M48.89,55.57H47.07v-5.5h1.82Z"/><path class="cls-1" d="M54,55.57H51.7l-1-3.87A13.29,13.29,0,0,1,51,54.05v1.52h-1.6v-5.5h2.22l1,3.89a13.84,13.84,0,0,1-.24-2.4V50.07H54Z"/><path class="cls-1" d="M59.18,50.64l-.86.9a1.75,1.75,0,0,0-1-.38c-.75,0-1.11.55-1.11,1.66,0,1.31.23,1.65.8,1.65a1.1,1.1,0,0,0,.45-.1v-.86H57L56.8,52.3h2.37v2.78a4,4,0,0,1-2.15.67c-1.93,0-2.72-1.07-2.72-2.94a2.69,2.69,0,0,1,2.86-2.91A3.09,3.09,0,0,1,59.18,50.64Z"/><path class="cls-1" d="M65.67,50.57l-.82,1a1.58,1.58,0,0,0-.92-.35c-.58,0-.89.57-.89,1.61s.31,1.59.92,1.59A1.53,1.53,0,0,0,65,54l.79,1a2.68,2.68,0,0,1-1.86.81c-1.68,0-2.73-1-2.73-3a2.61,2.61,0,0,1,2.69-2.9A2.69,2.69,0,0,1,65.67,50.57Z"/><path class="cls-1" d="M69.51,51.32H67.75v.85h1.54v1.21H67.75v.94h1.87v1.25H65.93v-5.5h3.76Z"/><path class="cls-1" d="M74.62,55.57H72.34l-1-3.87a13.29,13.29,0,0,1,.24,2.35v1.52H70v-5.5h2.22l1,3.89a12.92,12.92,0,0,1-.24-2.4V50.07h1.6Z"/><path class="cls-1" d="M79.17,51.42H78v4.15H76.16V51.42H74.88V50.07h4.48Z"/><path class="cls-1" d="M83.09,51.32H81.34v.85h1.54v1.21H81.34v.94h1.87v1.25H79.52v-5.5h3.75Z"/><path class="cls-1" d="M85.6,53.7h-.18v1.87H83.6v-5.5h2.14c1.62,0,2.42.54,2.42,1.79a1.62,1.62,0,0,1-.92,1.5l1.31,2.21h-2Zm-.18-1.21h.35c.37,0,.55-.21.55-.63s-.24-.55-.62-.55h-.28Z"/><path class="cls-1" d="M63.92,12.2V41.4H10.22V12.2h53.7m.39-.4H9.83v30H64.31v-30Z"/><path class="cls-1" d="M63,12.2,37.07,29.34,11.14,12.2H63m1.31-.4H9.83l27.24,18,27.24-18Z"/><path class="cls-1" d="M17.94,32.3l-.83,1a1.53,1.53,0,0,0-.91-.35c-.59,0-.89.57-.89,1.62s.31,1.58.92,1.58a1.58,1.58,0,0,0,1-.44l.78,1a2.64,2.64,0,0,1-1.86.81c-1.68,0-2.73-1-2.73-2.94a2.62,2.62,0,0,1,2.7-2.91A2.7,2.7,0,0,1,17.94,32.3Z"/><path class="cls-1" d="M23.15,34.54c0,1.78-.91,2.94-2.62,2.94s-2.63-1.11-2.63-2.94.91-2.91,2.63-2.91S23.15,32.72,23.15,34.54Zm-3.36,0c0,1.2.18,1.66.74,1.66s.73-.46.73-1.66-.19-1.64-.73-1.64S19.79,33.34,19.79,34.54Z"/><path class="cls-1" d="M28.14,35.42c0,1.13-.75,2.06-2.37,2.06s-2.36-.84-2.36-2.06V31.8h1.82v3.57c0,.55.14.81.54.81s.55-.26.55-.81V31.8h1.82Z"/><path class="cls-1" d="M30.53,35.43h-.18V37.3H28.53V31.8h2.15c1.61,0,2.42.54,2.42,1.79a1.66,1.66,0,0,1-.92,1.51l1.3,2.2h-2Zm-.18-1.21h.36c.37,0,.54-.2.54-.63S31,33,30.63,33h-.28Z"/><path class="cls-1" d="M35.31,37.3H33.48V31.8h1.83Z"/><path class="cls-1" d="M39.35,33.05H37.6v.85h1.54v1.21H37.6v.94h1.87V37.3H35.78V31.8h3.75Z"/><path class="cls-1" d="M41.86,35.43h-.18V37.3H39.86V31.8H42c1.62,0,2.42.54,2.42,1.79a1.65,1.65,0,0,1-.92,1.51l1.31,2.2h-2Zm-.18-1.21H42c.37,0,.55-.2.55-.63S42.34,33,42,33h-.27Z"/></svg>