<svg width="35" height="34" viewBox="0 0 35 34" fill="none" xmlns="http://www.w3.org/2000/svg">
<ellipse cx="17.0526" cy="16.8197" rx="17.0526" ry="16.8197" fill="#101010"/>
<mask id="mask0_873_968" style="mask-type:alpha" maskUnits="userSpaceOnUse" x="9" y="9" width="16" height="16">
<rect x="9.47266" y="9.34424" width="15.1579" height="14.9508" fill="#D9D9D9"/>
</mask>
<g mask="url(#mask0_873_968)">
<path d="M17.0514 22.426C15.4725 22.426 14.1303 21.8809 13.0251 20.7908C11.9198 19.7006 11.3672 18.3768 11.3672 16.8194C11.3672 15.2621 11.9198 13.9383 13.0251 12.8481C14.1303 11.758 15.4725 11.2129 17.0514 11.2129C17.1988 11.2129 17.3435 11.2181 17.4856 11.2285C17.6277 11.2388 17.7672 11.2544 17.904 11.2752C17.4725 11.5763 17.1277 11.9682 16.8698 12.451C16.6119 12.9338 16.483 13.4555 16.483 14.0162C16.483 14.9506 16.8146 15.7449 17.4777 16.399C18.1409 17.0531 18.9461 17.3801 19.8935 17.3801C20.4725 17.3801 21.004 17.2529 21.4882 16.9985C21.9725 16.7442 22.3672 16.4041 22.6725 15.9785C22.6935 16.1134 22.7093 16.251 22.7198 16.3912C22.7303 16.5313 22.7356 16.6741 22.7356 16.8194C22.7356 18.3768 22.183 19.7006 21.0777 20.7908C19.9725 21.8809 18.6303 22.426 17.0514 22.426Z" fill="white"/>
</g>
</svg>
