<svg width="25" height="24" viewBox="0 0 25 24" fill="none" xmlns="http://www.w3.org/2000/svg">
<path d="M23.3736 9.59725H21.9972C21.9972 7.05197 20.9861 4.61098 19.1863 2.81094C17.3867 1.01107 14.9454 0 12.4 0C9.85457 0 7.41346 1.01107 5.61365 2.81094C3.81378 4.6108 2.80271 7.05186 2.80271 9.59725H1.42652C1.07265 9.57682 0.725665 9.7022 0.466652 9.944C0.207391 10.186 0.0585909 10.5234 0.0546875 10.8779V13.7123C0.0546875 14.0763 0.199356 14.4251 0.456547 14.6823C0.713738 14.9395 1.06258 15.0842 1.42652 15.0842H2.79813C3.16187 15.0842 3.51068 14.9395 3.76787 14.6823C4.02529 14.4251 4.16973 14.0763 4.16973 13.7123V9.88386V9.88409C4.14034 7.85043 4.84784 5.87491 6.1616 4.32236C7.47512 2.7698 9.30621 1.74492 11.3165 1.437C13.6672 1.12814 16.0371 1.84667 17.82 3.40934C19.6034 4.97177 20.6271 7.22659 20.6298 9.59721V13.7123C20.6264 15.7018 19.9031 17.6227 18.5934 19.1204C17.2838 20.6179 15.4764 21.5908 13.5052 21.8593C13.259 21.4879 12.8452 21.2625 12.3997 21.2567C12.0708 21.2533 11.7517 21.3681 11.5004 21.5803C11.2492 21.7924 11.0825 22.088 11.0308 22.4127C10.9789 22.7374 11.0457 23.0701 11.2186 23.3498C11.3918 23.6295 11.6595 23.8378 11.9732 23.9365C12.2869 24.0355 12.6256 24.0183 12.9276 23.8883C13.2298 23.7583 13.475 23.5241 13.619 23.2283C15.6986 22.9614 17.6333 22.0204 19.1275 20.5496C20.6217 19.0788 21.5929 17.159 21.8923 15.0841H23.3732C23.7369 15.0841 24.0857 14.9394 24.3429 14.6822C24.6003 14.425 24.7448 14.0762 24.7448 13.7122V10.8778C24.7409 10.5233 24.5921 10.1859 24.333 9.94389C24.0738 9.70208 23.727 9.5767 23.3732 9.59714L23.3736 9.59725Z" fill="white"/>
<path d="M15.1295 13.7123H9.67083C9.40997 13.713 9.17161 13.8604 9.05452 14.0935C8.9374 14.3266 8.96152 14.6058 9.11698 14.8152C9.89243 15.8481 11.1086 16.4557 12.4001 16.4557C13.6916 16.4557 14.9077 15.8481 15.6834 14.8152C15.8387 14.6058 15.8628 14.3265 15.7457 14.0935C15.6285 13.8604 15.3904 13.713 15.1296 13.7123H15.1295Z" fill="white"/>
<path d="M9.65654 9.59732C9.65654 10.3549 9.04252 10.9692 8.28494 10.9692C7.52736 10.9692 6.91333 10.3549 6.91333 9.59732C6.91333 8.83973 7.52736 8.22571 8.28494 8.22571C9.04252 8.22571 9.65654 8.83973 9.65654 9.59732Z" fill="white"/>
<path d="M17.8863 9.59732C17.8863 10.3549 17.2723 10.9692 16.5147 10.9692C15.7571 10.9692 15.1431 10.3549 15.1431 9.59732C15.1431 8.83973 15.7571 8.22571 16.5147 8.22571C17.2723 8.22571 17.8863 8.83973 17.8863 9.59732Z" fill="white"/>
</svg>
