<svg width="18" height="25" viewBox="0 0 18 25" fill="none" xmlns="http://www.w3.org/2000/svg">
<path d="M0 2.60107C0 1.4965 0.895431 0.601074 2 0.601074H15.3925C16.497 0.601074 17.3925 1.4965 17.3925 2.60107V22.6011C17.3925 23.7056 16.497 24.6011 15.3925 24.6011H2C0.89543 24.6011 0 23.7056 0 22.6011L0 2.60107ZM8.69623 1.29671C4.48203 1.29671 1.04355 4.73513 1.04355 8.94939C1.04355 13.1636 4.48222 16.6021 8.69623 16.6021C12.9104 16.6021 16.3489 13.1636 16.3489 8.94939C16.3489 4.73513 12.9102 1.29671 8.69623 1.29671ZM8.69623 3.38368C11.7824 3.38368 14.2619 5.86297 14.2619 8.94914C14.2619 12.0351 11.7824 14.5146 8.69623 14.5146C5.61006 14.5146 3.13052 12.0353 3.13052 8.94914C3.13052 5.86322 5.61006 3.38368 8.69623 3.38368ZM8.68531 4.05751C8.40675 4.06042 8.14082 4.17471 7.94669 4.37489C7.75282 4.57507 7.64678 4.8444 7.65261 5.12295V5.12295C7.65261 5.18763 7.6104 5.24438 7.54963 5.26653C6.59054 5.61606 5.91336 6.56306 5.91336 7.55783C5.91336 8.95084 7.23525 9.99271 8.69621 9.99271C9.33458 9.99271 9.39185 10.1919 9.39185 10.3407C9.39185 10.6287 9.39646 10.6886 9.0439 10.6886H6.95668C6.6774 10.6845 6.40832 10.7925 6.20936 10.9885C6.01064 11.1848 5.89854 11.4524 5.89854 11.7317C5.89854 12.011 6.01064 12.2789 6.20936 12.4749C6.40832 12.671 6.67766 12.7792 6.95693 12.7753V12.7753C7.33954 12.7753 7.63453 13.1197 7.86689 13.4237C7.89333 13.4583 7.92205 13.4913 7.95295 13.5226C8.149 13.7216 8.41688 13.8337 8.69616 13.8337C8.97545 13.8337 9.24332 13.7216 9.43938 13.5226C9.63543 13.3239 9.74365 13.0546 9.73977 12.7753V12.7753C9.73977 12.7171 9.77771 12.6661 9.83245 12.6464C10.797 12.2992 11.479 11.3388 11.479 10.3404C11.479 8.94742 10.1574 7.90555 8.69616 7.90555C8.05779 7.90555 8.00052 7.70635 8.00052 7.55761C8.00052 7.26959 7.99591 7.20966 8.34847 7.20966H10.4357C10.715 7.21354 10.9841 7.10581 11.183 6.90951C11.3817 6.71346 11.4938 6.44583 11.4938 6.16655C11.4938 5.88702 11.3817 5.61939 11.183 5.42333C10.984 5.22728 10.7147 5.11906 10.4354 5.12294V5.12294C10.0536 5.12294 9.75963 4.77812 9.52976 4.47321C9.50174 4.43603 9.4711 4.40057 9.43797 4.36712C9.23949 4.16645 8.96773 4.05461 8.68531 4.05751ZM2.3265 17.9927C2.04917 18.0062 1.78857 18.1295 1.60248 18.3357C1.41613 18.5417 1.3198 18.8133 1.33412 19.0906C1.34868 19.3679 1.47291 19.628 1.6794 19.8137C1.88613 19.9993 2.15788 20.0949 2.43522 20.0796H14.9578C15.2371 20.0837 15.5064 19.9755 15.7054 19.7795C15.9046 19.5832 16.0164 19.3155 16.0164 19.036C16.0164 18.7567 15.9046 18.4888 15.7054 18.2928C15.5064 18.0967 15.2371 17.9885 14.9578 17.9926H2.43522C2.39907 17.9907 2.36265 17.9907 2.3265 17.9927ZM2.3265 20.7753C2.04917 20.7888 1.78857 20.9123 1.60248 21.1183C1.41613 21.3243 1.3198 21.5961 1.33412 21.8732C1.34868 22.1505 1.47291 22.4109 1.6794 22.5963C1.88613 22.7819 2.15788 22.8775 2.43522 22.8622H14.9578C15.2371 22.8663 15.5064 22.7581 15.7054 22.5621C15.9046 22.366 16.0164 22.0981 16.0164 21.8188C16.0164 21.5393 15.9046 21.2717 15.7054 21.0756C15.5064 20.8793 15.2371 20.7711 14.9578 20.7752H2.43522C2.39907 20.7733 2.36265 20.7733 2.3265 20.7753Z" fill="white"/>
</svg>
