<svg width="19" height="24" viewBox="0 0 19 24" fill="none" xmlns="http://www.w3.org/2000/svg">
<path d="M17.1053 4.04724L14.0509 0.97087V0.971052C13.4367 0.350317 12.6003 0.000748042 11.7272 0H3.87277C3.00495 0 2.17252 0.344801 1.55871 0.958616C0.944897 1.57243 0.600098 2.40486 0.600098 3.27268V20.7273C0.600098 21.5951 0.944897 22.4276 1.55871 23.0414C2.17252 23.6552 3.00495 24 3.87277 24H14.782C15.6498 24 16.4822 23.6552 17.096 23.0414C17.7098 22.4276 18.0546 21.5951 18.0546 20.7273V6.34901C18.0539 5.48666 17.7128 4.65951 17.1055 4.04719L17.1053 4.04724ZM15.4253 5.45459H13.6907C13.4014 5.45459 13.124 5.33972 12.9195 5.13499C12.7148 4.93045 12.5999 4.65302 12.5999 4.36376V2.60745L15.4253 5.45459ZM14.7817 21.818H3.87253C3.58325 21.818 3.30585 21.7031 3.10131 21.4984C2.89658 21.2939 2.78171 21.0164 2.78171 20.7272V3.27255C2.78171 2.98327 2.89658 2.70586 3.10131 2.50132C3.30585 2.2966 3.58328 2.18173 3.87253 2.18173H10.4179V4.36358C10.4179 5.2314 10.7627 6.06383 11.3765 6.67765C11.9903 7.29146 12.8227 7.63626 13.6905 7.63626H15.8724V20.727C15.8724 21.0163 15.7575 21.2937 15.5528 21.4982C15.3482 21.703 15.0708 21.8178 14.7816 21.8178L14.7817 21.818ZM12.4145 12.4801C12.5632 12.7002 12.6266 12.9668 12.5926 13.2302C12.5588 13.4935 12.43 13.7355 12.2306 13.9106C12.031 14.086 11.7746 14.1824 11.509 14.182H10.418V17.4547C10.418 17.8444 10.2102 18.2046 9.87271 18.3994C9.53522 18.5943 9.1192 18.5943 8.7817 18.3994C8.44419 18.2046 8.23638 17.8444 8.23638 17.4547V14.182H7.14536C6.94812 14.1815 6.75454 14.1274 6.58541 14.0255C6.41648 13.9238 6.27823 13.7781 6.18545 13.6038C6.09779 13.4333 6.0567 13.2426 6.06638 13.051C6.07588 12.8594 6.13578 12.6739 6.23987 12.5128L8.42172 9.24013C8.61731 8.9271 8.95811 8.73426 9.32717 8.72748C9.69005 8.72693 10.0294 8.90682 10.2326 9.20745L12.4145 12.4801Z" fill="white"/>
</svg>
