<svg id="Layer_1" data-name="Layer 1" xmlns="http://www.w3.org/2000/svg" xmlns:xlink="http://www.w3.org/1999/xlink" viewBox="0 0 1920 1369.12"><defs><style>.cls-1{fill:none;}.cls-2{clip-path:url(#clip-path);}.cls-3{opacity:0.22;}.cls-4,.cls-8{fill:#fff;}.cls-5{fill:#006978;opacity:0.46;}.cls-6{clip-path:url(#clip-path-2);}.cls-7{opacity:0.08;}.cls-8{stroke:#fff;stroke-miterlimit:10;}</style><clipPath id="clip-path"><rect class="cls-1" x="-2072.57" y="-13.02" width="1920" height="1382.14"/></clipPath><clipPath id="clip-path-2"><rect class="cls-1" x="-17.68" y="-25.73" width="1955.31" height="1407.55"/></clipPath></defs><g class="cls-2"><g class="cls-3"><path class="cls-4" d="M-1145.3,978.9l-1.6,3m0,0-11.52,22.63m0,0-11.12,23.33m0,0-10.73,24m0,0-10.35,24.76m0,0-10,25.48m0,0-9.58,26.22m0,0-9.22,27m0,0-8.84,27.75m0,0-8.46,28.54m0,0-8.1,29.35m0,0-7.71,30.19m0,0-7.34,31.05m0,0-7,31.93m0,0-6.58,32.85m0,0-6.18,33.8m0,0-5.78,34.78m0,0-3.54,23.57m-124.57-338.71.1-.07M958.52,1425l-38.38,34.15m38.38-730.76L827.64,670.43m0,0L958.52,658M827.64,670.43,958.52,536.2m0,720.08L535.24,981.57m0,0,423.28-4.76m-423.28,4.76,292.4-311.14M478.16,1459.1,271.5,1273.76m0,0,687,46.27m-687-46.27L535.24,981.57M111.13,1459.1,271.5,1273.76m687-1420.35-72.37-5.5m0,0,72.37-27.8m-72.37,27.8,72.37-91.66m0,514.06L617.65,189.39m0,0L958.52,88.51M617.65,189.39l268.5-341.48M827.64,670.43,384.51,487.28m0,0,574-122.19m-574,122.19L617.65,189.39M535.24,981.57,172.76,759.23m0,0,654.88-88.8m-654.88,88.8,211.75-272m-113,786.48-299.42-255.4m0,0,563.16-36.79m-563.16,36.79L172.76,759.23M-68,1459.1l-158.22-183.25m0,0,497.69-2.09m-497.69,2.09,198.27-257.49M-366.51,1459.1l140.32-183.25M886.15-152.09,427.43-175.9m0,0L958.52-438.63M427.43-175.9,632.64-498.06m-15,687.45L241.46,110.88m0,0,644.69-263m-644.69,263,186-286.78M384.51,487.28,71.1,368.46m0,0L617.65,189.39M71.1,368.46,241.46,110.88m-68.7,648.35-263.68-151m0,0,475.43-121m-475.43,121,162-239.82m-99,649.9L-250.6,839.51m0,0,423.36-80.28M-250.6,839.51-90.92,608.28m-135.27,667.57-187.45-205.47m0,0,385.72-52m-385.72,52,163-230.87M-486.15,1459.1l-100-149.79m0,0,359.91-33.46m-359.91,33.46,172.46-238.93M-696.51,1459.1l110.41-149.79M561.06-498.06l-310,37.8m0,0,54-37.8m-54,37.8,19.41-37.8m157,322.16-323.7-7.64m0,0L623.05-498.06M103.73-183.54,251-460.26m-9.57,571.14L-32.67,62.74m0,0L427.43-175.9M-32.67,62.74l136.4-246.28m-32.63,552-234.32-79.75m0,0L241.46,110.88M-163.22,288.71l130.55-226M-90.92,608.28l-201.26-106m0,0L71.1,368.46M-292.18,502.28l129-213.57m-87.38,550.8L-423.47,710.17m0,0L-90.92,608.28M-423.47,710.17l131.29-207.89m-121.46,568.1L-561.18,918.69m0,0,310.58-79.18m-310.58,79.18,137.71-208.52M-586.1,1309.31-710,1134.49m0,0,296.39-64.11M-710,1134.49l148.85-215.8m-314.77,446.67,289.85-56m-289.85,56L-710,1134.49M251-460.26-30-418.14m0,0,98.09-79.92M-30-418.14,4.36-498.06m99.37,314.52-241.58,2.07m0,0L251-460.26M-137.85-181.47-30-418.14M-32.67,62.74l-209.45-29m0,0L103.73-183.54M-242.12,33.73l104.27-215.2m-25.37,470.18-182.53-54.29m0,0L-32.67,62.74M-345.75,234.42-242.12,33.73m-50.06,468.55L-451.5,426.37m0,0,288.28-137.66M-451.5,426.37l105.75-192m-77.72,475.75-138.69-95.49m0,0,270-112.4m-270,112.4L-451.5,426.37M-561.18,918.69-680.9,804.35m0,0,257.43-94.18M-680.9,804.35l118.74-189.67M-710,1134.49l-101.54-133.74m0,0,250.39-82.06m-250.39,82.06,130.67-196.4m-278.28,405.94,249.15-75.8m-249.15,75.8,147.61-209.54M-30-418.14l-213.91,38.8m0,0,127.53-118.72M-243.91-379.34l43.41-118.72m62.65,316.59-187.91,8.36m0,0L-30-418.14m-295.76,245,81.85-206.23m1.79,413.07L-408,17.53m0,0,270.15-199M-408,17.53l82.24-190.64m-20,407.53-146.78-36.79m0,0,250.41-163.9m-250.41,163.9L-408,17.53m-43.5,408.84-129.77-54.81m0,0,235.52-137.14M-581.27,371.56l88.74-173.93m-69.63,417.05-114.23-71.36m0,0,224.89-117m-224.89,117,95.12-171.76M-680.9,804.35-780.45,717m0,0,218.29-102.28M-780.45,717l104.06-173.64m-135.18,457.43-85.17-103.81m0,0,215.84-92.59m-215.84,92.59,116.29-180m-249.14,371.64,218-87.85m-218,87.85,132.85-191.66M-243.91-379.34l-168.92,36.51m0,0,148-155.23m-148,155.23L-364-498.06m38.27,325-150.9,12.62m0,0,232.75-218.85M-476.66-160.49l63.83-182.34M-408,17.53-543.14,10.3m0,0,217.38-183.41M-543.14,10.3l66.48-170.79m-15.87,358.12-121-24.27m0,0L-408,17.53M-613.57,173.36-543.14,10.3m-38.13,361.26-108.17-39.47m0,0,196.91-134.46M-689.44,332.09l75.87-158.73m-62.82,370-96.1-53.58m0,0,191.22-118.18M-772.49,489.74l83-157.65m-91,384.87-84.46-67.3m0,0,188.52-106.34M-864.91,649.66l92.42-159.92m-124.25,407.2-72.81-81.34m0,0L-780.45,717m-189.1,98.64,104.64-165.94M-1090.27,992.1l193.53-95.16m-193.53,95.16,120.72-176.5M-463.5-498.06l-38.91,14.88m0,0L-491-498.06m-11.44,14.88,3.52-14.88m86.06,155.23L-550.12-308m0,0,162.68-190.1M-550.12-308l47.71-175.22m25.75,322.69L-601-144.85m0,0,188.13-198M-601-144.85-550.12-308m7,318.26-112.62-.71m0,0,179.1-170.08M-655.76,9.59-601-144.85m-12.61,318.21-101.92-15m0,0,172.35-148m-172.35,148L-655.76,9.59m-33.68,322.5-91.9-27.95m0,0,167.77-130.78M-781.34,304.14l65.85-145.8m-57,331.4-82.3-40.09m0,0,165.35-117.56M-854.79,449.65l73.45-145.51m-83.57,345.52-72.87-51.94m0,0,165.29-108m-165.29,108,83-148.07m-114.76,366-63.28-64.05"/></g></g><rect x="-14.48" y="-12.47" width="1954.8" height="1394.29"/><rect class="cls-5" x="-16.97" y="-7.5" width="1954.8" height="1389.33"/><g class="cls-6"><g class="cls-7"><path class="cls-8" d="M926.65,984.43l-1.64,3m0,0-11.73,23.06m0,0L902,1034.26m0,0L891,1058.74m0,0-10.54,25.2m0,0-10.15,26m0,0-9.76,26.7m0,0-9.38,27.48m0,0-9,28.26m0,0-8.63,29.06m0,0-8.24,29.89m0,0L817.47,1282m0,0L810,1313.65m0,0-7.09,32.52m0,0-6.7,33.45m0,0L789.92,1414m0,0L784,1449.46m0,0-3.6,24M653.57,1128.53l.1-.08m2415.48,310.23-39.09,34.79m39.09-744.21-133.28-59m0,0,133.28-12.67m-133.28,12.67,133.28-136.7m0,733.32L2638.09,987.16m0,0,431.06-4.86m-431.06,4.86,297.78-316.87M2580,1473.47,2369.5,1284.71m0,0,699.65,47.12m-699.65-47.12,268.59-297.55m-431.91,486.31,163.32-188.76M3069.15-161.76l-73.7-5.59m0,0,73.7-28.32m-73.7,28.32,73.7-93.35m0,523.51L2722,180.4m0,0L3069.15,77.67M2722,180.4l273.43-347.75m-59.58,837.64L2484.58,483.78m0,0,584.57-124.44M2484.58,483.78,2722,180.4m-83.93,806.76L2268.94,760.72m0,0,666.93-90.43m-666.93,90.43,215.64-276.94M2369.5,1284.71l-304.92-260.09m0,0,573.51-37.46m-573.51,37.46,204.36-263.9m-245.15,712.75-161.13-186.63m0,0,506.84-2.13m-506.84,2.13,201.92-262.22m-344.82,448.85,142.9-186.63M2995.45-167.35,2528.29-191.6m0,0,540.86-267.56M2528.29-191.6l209-328.08M2722,180.4l-383.11-79.95m0,0,656.54-267.8m-656.54,267.8,189.38-292m-43.71,675.38-319.17-121m0,0L2722,180.4M2165.41,362.77l173.5-262.32m-70,660.27L2000.42,607m0,0,484.16-123.22M2000.42,607l165-244.23m-100.83,661.85L1837.8,842.48m0,0,431.14-81.76M1837.8,842.48,2000.42,607m-137.76,679.84-190.9-209.24m0,0,392.82-53m-392.82,53,166-235.12m-239.88,631-101.79-152.56m0,0,366.53-34.07m-366.53,34.07,175.63-243.31m-288.08,395.87,112.45-152.56M2664.38-519.68l-315.72,38.49m0,0,55-38.49m-55,38.49,19.76-38.49M2528.29-191.6l-329.65-7.79m0,0,528.87-320.29M2198.64-199.39l150-281.8m-9.75,581.64-279.17-49m0,0,468.55-243m-468.55,243,138.9-250.81m-33.23,562.16-238.63-81.22m0,0,412.13-181.1m-412.13,181.1,133-230.13M2000.42,607l-205-107.95m0,0,369.95-136.28M1795.46,499.05l131.32-217.5m-89,560.93-176-131.72m0,0L2000.42,607M1661.75,710.76l133.71-211.71m-123.7,578.55L1521.5,923.12m0,0,316.3-80.64m-316.3,80.64,140.25-212.36m-165.62,610.15-126.21-178m0,0,301.84-65.29m-301.84,65.29L1521.5,923.12M1201,1378l295.18-57.09M1201,1378l169-235.11M2348.66-481.19,2062.45-438.3m0,0,99.9-81.38m-99.9,81.38,35-81.38m101.19,320.29-246,2.12m0,0,396-283.92m-396,283.92,109.83-241m-2.71,489.72-213.3-29.54m0,0,352.2-221.27M1846.44,21.88l106.18-219.15m-25.84,478.82L1740.9,226.27m0,0L2059.74,51.42M1740.9,226.27,1846.44,21.88m-51,477.17-162.25-77.31m0,0,293.57-140.19M1633.21,421.74,1740.9,226.27m-79.15,484.49L1520.5,613.51m0,0,275-114.46m-275,114.46,112.71-191.77M1521.5,923.12,1399.58,806.67m0,0,262.17-95.91m-262.17,95.91L1520.5,613.51m-150.58,529.38-103.41-136.2m0,0,255-83.57m-255,83.57,133.07-200m-283.39,413.4,253.73-77.18m-253.73,77.18,150.32-213.38m795.94-1445-217.84,39.51m0,0,129.87-120.89M1844.61-398.79l44.21-120.89m63.8,322.41-191.36,8.51m0,0L2062.45-438.3M1761.26-188.76l83.35-210m1.83,420.67L1677.5,5.38m0,0,275.12-202.65M1677.5,5.38l83.76-194.14m-20.36,415L1591.42,188.8m0,0,255-166.92m-255,166.92L1677.5,5.38m-44.29,416.36-132.16-55.82m0,0L1740.9,226.27M1501.05,365.92l90.37-177.12M1520.5,613.51l-116.32-72.67m0,0,229-119.1m-229,119.1,96.87-174.92M1399.58,806.67l-101.38-89m0,0,222.3-104.17M1298.2,717.68l106-176.84m-137.67,465.85L1179.78,901m0,0,219.8-94.3M1179.78,901,1298.2,717.68m-253.71,378.47,222-89.46m-222,89.46L1179.78,901M1844.61-398.79l-172,37.19m0,0,150.73-158.08M1672.58-361.6l49.7-158.08m39,330.92-153.67,12.85m0,0,237-222.88m-237,222.88,65-185.69m4.92,367L1539.88-2m0,0,221.38-186.78M1539.88-2l67.71-173.93M1591.42,188.8l-123.27-24.72m0,0L1677.5,5.38m-209.35,158.7L1539.88-2m-38.83,367.9-110.16-40.19m0,0L1591.42,188.8M1390.89,325.73l77.26-161.65m-64,376.76-97.87-54.56m0,0,194.74-120.36M1306.31,486.28l84.58-160.55M1298.2,717.68l-86-68.54m0,0,192-108.3m-192,108.3,94.12-162.86M1179.78,901l-74.16-82.84m0,0L1298.2,717.68M1105.62,818.13l106.57-169M982.69,997.87,1179.78,901m-197.09,96.9,122.93-179.74M1621-519.68l-39.63,15.15m0,0L1593-519.68m-11.66,15.15,3.59-15.15m87.64,158.08-139.81,35.51m0,0,165.68-193.59M1532.77-326.09l48.58-178.44m26.24,328.62L1481-160m0,0L1672.58-361.6M1481-160l51.78-166.11M1539.88-2,1425.19-2.7m0,0,182.4-173.21M1425.19-2.7,1481-160m-12.84,324.06-103.79-15.29m0,0L1539.88-2M1364.36,148.79,1425.19-2.7m-34.3,328.43-93.59-28.47m0,0,170.85-133.18M1297.3,297.26l67.06-148.47m-58,337.49-83.82-40.82m0,0,168.4-119.73m-168.4,119.73,74.81-148.2m-85.11,351.88-74.2-52.9m0,0,168.32-110M1138,596.24l84.5-150.78M1105.62,818.13l-64.43-65.23"/><path class="cls-8" d="M1041.19,752.9l171-103.76m-171,103.76L1138,596.24M928.57,919.39l177-101.26m-177,101.26L1041.19,752.9M1581.35-504.53l-127.12,53.26m0,0L1502-519.68m-47.74,68.41,13.54-68.41m65,193.59-116.3,34.26m0,0,164.88-212.7m-164.88,212.7,37.76-159.44M1481-160l-106.46,18.17m0,0,158.24-184.28M1374.53-141.81l41.94-150M1425.19-2.7l-97.4,4.25m0,0L1481-160M1327.79,1.55l46.74-143.36m-10.17,290.6-88.91-8.14m0,0L1425.19-2.7M1275.45,140.65l52.34-139.1M1297.3,297.26l-80.79-19.46m0,0,147.85-129m-147.85,129,58.94-137.15m-53,304.81-72.86-30.18m0,0,147.67-118m-147.67,118,66.88-137.48M1138,596.24l-64.94-40.68m0,0,149.44-110.1m-149.44,110.1,76.58-140.28M1041.19,752.9l-56.77-51.41m0,0L1138,596.24M984.42,701.49l88.63-145.93m-192.52,301L1041.19,752.9M880.53,856.53l103.89-155M1454.23-451.27l-106.67,48.88m0,0,74.7-117.29m-74.7,117.29,19.29-117.29m49.62,227.85-98.61,33.28m0,0,136.37-192.72M1317.86-258.55l29.7-143.84m27,260.58-91.12,19.87m0,0,133.06-169.89M1283.41-121.94l34.45-136.61m9.93,260.1-84,8.06m0,0,130.79-151.42M1243.74,9.61l39.67-131.55m-8,262.59-77.28-2.57m0,0L1327.79,1.55M1198.17,138.08,1243.74,9.61M1216.51,277.8l-70.7-12.4m0,0,129.64-124.75M1145.81,265.4l52.36-127.32m-48.54,277.2-64.17-21.76m0,0,131-115.72m-131,115.72,60.35-128.12m-72.76,290.16-57.54-30.95m0,0,134.12-109.33M1015.51,524.61l70-131.09m-101,308L933.8,661.14m0,0,139.25-105.58M933.8,661.14l81.71-136.53M837.39,806.18l147-104.69m-147,104.69,96.41-145M1314.36-519.68l-39.2,24.34m0,0,12.72-24.34m-12.72,24.34,2.29-24.34m70.11,117.29-91.13,45.51m0,0,95.17-162.8m-95.17,162.8,18.73-138.46m42.7,236.79-85,32.53m0,0,114.68-176.37M1232.88-226l23.55-130.86m27,234.94-79.13,21.17m0,0,113.58-157.78M1204.28-100.77,1232.88-226M1243.74,9.61l-73.51,11.05m0,0,113.18-142.6M1170.23,20.66l34-121.43m-6.11,238.85-68,1.84m0,0L1243.74,9.61M1130.15,139.92l40.08-119.26M1145.81,265.4l-62.61-6.76m0,0,115-120.56m-115,120.56,47-118.72m-44.69,253.6-57.15-15m0,0,117.5-113.15m-117.5,113.15,54.89-119.91m-67.69,266L964,501.52m0,0,121.48-108M964,501.52l64.33-123M933.8,661.14l-45.59-31.38m0,0,127.3-105.15M888.21,629.76,964,501.52M798.26,766,933.8,661.14M798.26,766l90-136.26m387-1125.1-84,55.51m0,0,38.36-79.85m-38.36,79.85,5.24-79.85m60,162.8-79,42.91m0,0,97.76-181.37M1177.4-314l13.76-125.86M1232.88-226l-74.24,31.93m0,0,97.79-162.79m-97.79,162.79L1177.4-314m26.88,213.2-69.59,22.21m0,0L1232.88-226M1134.69-78.56l24-115.53m11.59,214.75-65,13.44m0,0,99.1-134.87M1105.18,34.1l29.51-112.66m-4.54,218.48-60.55,5.38m0,0L1170.23,20.66M1069.6,145.3l35.58-111.2m-22,224.54-56-2.17m0,0,103-116.55m-103,116.55L1069.6,145.3m-41.29,233.25-51.4-9.45m0,0L1083.2,258.64M976.91,369.1l50.28-112.63M964,501.52l-46.59-16.64m0,0,110.92-106.33M917.39,484.88,976.91,369.1m-88.7,260.66-41.46-24m0,0L964,501.52M846.75,605.78l70.64-120.9M762.44,734.26l125.77-104.5M762.44,734.26l84.31-128.48M1191.16-439.83l-73.29,51.48m0,0,58.2-131.33m-58.2,131.33,4.84-121.47m0,0,12-9.86M1177.4-314,1108-273.14m0,0,83.19-166.69M1108-273.14l9.9-115.21m40.77,194.26L1093-162.64m0,0L1177.4-314M1093-162.64l15-110.5m26.72,194.58-61.9,23m0,0,85.85-138.57M1072.79-55.52,1093-162.64M1105.18,34.1,1047,49.49m0,0,87.66-128M1047,49.49l25.76-105M1069.6,145.3l-54.4,8.3m0,0,90-119.5m-90,119.5L1047,49.49m-19.84,207-50.58,1.6m0,0,93-112.77m-93,112.77L1015.2,153.6M976.91,369.1l-46.63-4.87m0,0,96.91-107.76M930.28,364.23l46.33-106.16M917.39,484.88,874.92,473.6m0,0,102-104.5m-102,104.5,55.36-109.37M846.75,605.78l-38-17.83m0,0L917.39,484.88M808.76,588,874.92,473.6M729.4,709.53,846.75,605.78M729.4,709.53,808.76,588m309.11-976.3-64.74,48.27m0,0,69.58-169.74m-69.58,169.74,1.81-111.12m0,0,67.77-58.62M1108-273.14,1046.28-234m0,0,71.59-154.39M1046.28-234l6.85-106.12M1093-162.64l-58.64,31m0,0L1108-273.14m-73.61,141.55L1046.28-234m26.51,178.44L1017.22-31.8m0,0L1093-162.64M1017.22-31.8l17.14-99.79M1047,49.49l-52.48,17m0,0,78.24-122m-78.24,122,22.67-98.28m-2,185.4-49.31,10.72m0,0L1047,49.49M965.89,164.32l28.66-97.84M976.61,258.07l-46.05,4.76m0,0L1015.2,153.6M930.56,262.83l35.33-98.51M930.28,364.23l-42.63-1m0,0,89-105.14m-89,105.14,42.91-100.38M874.92,473.6l-39-6.77m0,0,94.37-102.6m-94.37,102.6,51.74-103.62M808.76,588l-35.07-12.63m0,0L874.92,473.6M773.69,575.32l62.22-108.49M698.7,690.72,808.76,588M698.7,690.72l75-115.4m279.44-915.4-57.8,45.68m0,0,59.61-156.8M995.33-294.4l-.57-102.27m0,0,60.18-54.53M1046.28-234l-55.37,37.82m0,0,62.22-143.94M990.91-196.14l4.42-98.26m39,162.81-52.88,30.75"/><path class="cls-8" d="M981.48-100.84,1046.28-234m-64.8,133.12,9.43-95.3M1017.22-31.8,966.88-7.5m0,0,67.48-124.09M966.88-7.5l14.6-93.34M994.55,66.48,946.82,84.82m0,0,70.4-116.62M946.82,84.82,966.88-7.5m-1,171.82-45,12.75m0,0,73.7-110.59m-73.7,110.59,26-92.25m-16.26,178-42.22,7.41m0,0,77.55-105.92M888.34,270.24l32.51-93.17m-33.2,186.14-39.25,2.22m0,0,82.16-102.6M848.4,365.43l39.94-95.19M835.91,466.83l-36.07-2.95m0,0,87.81-100.67M799.84,463.88l48.56-98.45M773.69,575.32l-32.6-8.22m0,0,94.82-100.27M741.09,567.1l58.75-103.22M670,677l103.7-101.64M670,677l71.1-109.86M995.33-294.4l-52.1,43.58m0,0,51.53-145.85M943.23-250.82l-2.45-94.64m0,0,54-51.21m-3.85,200.53-50.13,36.72m0,0,54.55-135m-54.55,135,2.45-91.4m38.25,150L933.4-70.33m0,0,57.51-125.81M933.4-70.33l7.38-89.09M966.88-7.5l-46,24.8m0,0,60.55-118.14M920.93,17.3,933.4-70.33M946.82,84.82l-43.73,19.49m0,0L966.88-7.5M903.09,104.31l17.84-87m-.08,159.77-41.41,14.49m0,0L946.82,84.82M879.44,191.56l23.65-87.25M888.34,270.24l-39,9.69m0,0,71.48-102.86M849.37,279.93l30.07-88.37m-31,173.87-36.37,5m0,0,76.31-100.2M812,370.44l37.34-90.51m-49.53,184-33.55.35m0,0,82.11-98.8m-82.11,98.8L812,370.44M741.09,567.1l-30.46-4.41m0,0,89.21-98.81m-89.21,98.81,55.66-98.46M643,667.55l98.1-100.45M643,667.55l67.64-104.86m232.6-813.51L895.87-209m0,0,44.91-136.47M895.87-209l-4-88m0,0,48.88-48.49m0,186L895-123.6m0,0,48.19-127.22M895-123.6l.83-85.39M933.4-70.33,889.36-40m0,0,51.42-119.41M889.36-40,895-123.6M920.93,17.3,878.69,42.54m0,0L933.4-70.33M878.69,42.54,889.36-40m13.73,144.32L862.76,124.8m0,0L920.93,17.3M862.76,124.8l15.93-82.26m.75,149-38.32,16m0,0,62-103.23m-62,103.23,21.64-82.74M849.37,279.93l-36.19,11.66m0,0,66.26-100m-66.26,100,27.94-84M812,370.44l-33.89,7.41m0,0,71.23-97.92m-71.23,97.92,35-86.26M766.29,464.23l-31.4,3.19m0,0,77.14-97m-77.14,97,43.25-89.57M710.63,562.69,682,561.57m0,0,84.3-97.34M682,561.57l52.9-94.15M617.48,661.92l93.15-99.23m-93.15,99.23L682,561.57M895.87-209l-43.38,40.4m0,0L891.9-297M852.49-168.59l-5.2-82.13m0,0L891.9-297M895-123.6,853-88.52m0,0L895.87-209M853-88.52l-.51-80.07M889.36-40,848.76-9.83m0,0L895-123.6M848.76-9.83,853-88.52M878.69,42.54,839.63,68.17m0,0L889.36-40M839.63,68.17l9.13-78m14,134.63-37.43,21.36m0,0L878.69,42.54M825.33,146.16l14.3-78m1.49,139.37-35.67,17.29m0,0,57.31-100m-57.31,100,19.88-78.67M813.18,291.59,779.39,305m0,0,61.73-97.41M779.39,305l26.06-80.12m-27.31,153-31.75,9.53m0,0,66.79-95.79m-66.79,95.79,33-82.43m-44.5,162.47-29.52,5.68m0,0,72.77-95.25M705.37,473.1l41-85.72M682,561.57l-27,1.76m0,0,79.94-95.91M655,563.33l50.42-90.23M593.24,659.58l88.75-98m-88.75,98L655,563.33M852.49-168.59l-40,39.21m0,0,34.81-121.34M812.48-129.38l-6.21-77m0,0,41-44.38M853-88.52,814.1-54m0,0,38.39-114.54M814.1-54l-1.62-75.33M848.76-9.83,811.09,20.26m0,0L853-88.52M811.09,20.26l3-74.31M839.63,68.17l-36.34,26m0,0,45.47-104m-45.47,104,7.8-73.91m14.24,125.9L790.42,168.3m0,0L839.63,68.17M790.42,168.3l12.87-74.13m2.16,130.66-33.37,18.45m0,0,53.25-97.12m-53.25,97.12,18.34-75M779.39,305l-31.7,14.89m0,0,57.76-95m-57.76,95,24.39-76.56m-25.69,144.1L716.5,398.75m0,0L779.39,305m-62.89,93.8,31.19-78.91M705.37,473.1,677.49,481m0,0,68.9-93.59M677.49,481l39-82.22M655,563.33l-25.65,4.3m0,0,76.07-94.53M629.3,567.63,677.49,481M570.12,660.16,655,563.33m-84.83,96.83,59.18-92.53m183.18-697L775.34-91.16m0,0,30.93-115.18M775.34-91.16l-7.05-72.36m0,0,38-42.82M814.1-54l-36.19,34m0,0,34.57-109.31M777.91-20.07l-2.57-71.09M811.09,20.26,776,50.3m0,0L814.1-54M776,50.3l1.95-70.37M803.29,94.17l-34,26.35m0,0L811.09,20.26M769.3,120.52,776,50.3m14.46,118-32.73,22.84m0,0,45.6-97m-45.6,97,11.61-70.62m2.78,122.76-31.37,19.49m0,0,49.71-94.47m-49.71,94.47,17-71.63m-10,128.7-29.88,16.23m0,0,54.27-92.79m-54.27,92.79,22.9-73.3m-24.21,136-28.25,13m0,0,59.44-91.94m-59.44,91.94,29.56-75.71M677.49,481,651,490.8m0,0,65.47-92.05M651,490.8l37.22-79m-59,155.85-24.44,6.57m0,0L677.49,481M604.86,574.2,651,490.8M548,663.33l81.32-95.7M548,663.33l56.88-89.13M775.34-91.16l-34.67,37.4m0,0,27.62-109.76M740.67-53.76,732.93-122m0,0,35.36-41.52m9.62,143.45L744.06,13.51m0,0L775.34-91.16M744.06,13.51l-3.39-67.27M776,50.3l-33,30m0,0,34.9-100.39M743,80.32l1-66.81"/><path class="cls-8" d="M769.3,120.52l-31.93,26.67m0,0L776,50.3m-38.59,96.89L743,80.32m14.68,110.82-30.83,23.48m0,0,42.44-94.1m-42.44,94.1,10.51-67.43m3.34,115.58-29.62,20.42m0,0,46.6-92.05m-46.6,92.05,15.77-68.57m-9.05,121.45-28.29,17.44m0,0,51.19-90.74m-51.19,90.74,21.57-70.32M688.25,411.78,661.42,426.3m0,0,56.39-90.23M661.42,426.3l28.1-72.79M651,490.8l-25.19,11.59m0,0,62.41-90.61m-62.41,90.61,35.58-76.09M604.86,574.2l-23.37,8.6m0,0,69.54-92m-69.54,92,44.35-80.41M548,663.33l-21.27,5.48m0,0,78.15-94.61m-78.15,94.61,54.78-86M740.67-53.76,708.15-17m0,0,24.78-105M708.15-17l-8.34-64.53m0,0L732.93-122M744.06,13.51,712.22,46.79m0,0L740.67-53.76M712.22,46.79,708.15-17M743,80.32l-31,30.05m0,0,32.09-96.86M712,110.37l.25-63.58m25.15,100.4-30.16,27m0,0L743,80.32m-35.8,93.86L712,110.37m14.89,104.25-29.17,24.09m0,0,39.68-91.52m-39.68,91.52,9.52-64.53m3.88,109L683,304.47m0,0,43.86-89.85M683,304.47l14.69-65.76m-8.17,114.8-26.89,18.55m0,0,48.46-88.87m-48.46,88.87L683,304.47M661.42,426.3l-25.57,15.86m0,0,53.67-88.65m-53.67,88.65,26.78-70.1M625.84,502.39l-24.09,13.17m0,0,59.67-89.26m-59.67,89.26,34.1-73.4M581.49,582.8l-22.42,10.43m0,0,66.77-90.84m-66.77,90.84,42.68-77.67M506.18,676.4l75.31-93.6m-75.31,93.6,52.89-83.17M708.15-17,677.47,19.13m0,0,22.34-100.7M677.47,19.13,668.63-42m0,0,31.18-39.52M712.22,46.79l-30.06,33m0,0,26-96.87m-26,96.87-4.69-60.7M712,110.37l-29.37,30.1m0,0,29.62-93.68M682.6,140.47l-.44-60.64m25.05,94.35-28.58,27.31m0,0L712,110.37m-33.34,91.12,4-61m15.09,98.24L670,263.35m0,0,37.22-89.17M670,263.35l8.64-61.86m4.37,103-26.73,22.08m0,0,41.42-87.84m-41.42,87.84L670,263.35m-7.36,108.71L637,391.63m0,0,46-87.16m-46,87.16,19.29-65.08M635.85,442.16,611.4,459.25m0,0,51.23-87.19M611.4,459.25,637,391.63M601.75,515.56l-23.12,14.61m0,0,57.22-88m-57.22,88,32.77-70.92m-52.33,134-21.6,12.09m0,0,64.28-89.76m-64.28,89.76,41.16-75.15m-92.3,155.71,72.74-92.65m-72.74,92.65,51.14-80.56m140-586.19L648.42,54.86m0,0L668.63-42M648.42,54.86,639.13-3.28m0,0L668.63-42M682.16,79.83l-28.53,32.88m0,0,23.84-93.58m-23.84,93.58-5.21-57.85m34.18,85.61-27.9,30.19m0,0,27.46-90.83M654.7,170.66l-1.07-57.95m25,88.78-27.2,27.64m0,0,31.17-88.66m-31.17,88.66,3.27-58.47M670,263.35l-26.42,25.19m0,0,35.06-87.05m-35.06,87.05,7.86-59.41m4.84,97.42-25.53,22.81m0,0,39.25-86m-39.25,86,12.83-60.82M637,391.63l-24.56,20.51m0,0,43.85-85.59m-43.85,85.59,18.32-62.78M611.4,459.25l-23.46,18.23m0,0,49-85.85m-49,85.85,24.48-65.34m-33.79,118-22.24,15.94m0,0,55-86.86m-55,86.86,31.55-68.63M537.47,605.32,516.62,619m0,0,62-88.78m-62,88.78,39.77-72.84m-89.33,151,70.41-91.79m-70.41,91.79L516.62,619M648.42,54.86,620.78,90.24m0,0L639.13-3.28M620.78,90.24l-9.67-55.37m0,0,28-38.15m14.5,116-27.16,32.77m0,0,21.95-90.62m-21.95,90.62-5.69-55.24m33.92,80.42L628.08,201m0,0,25.55-88.26M628.08,201l-1.61-55.49m25,83.65-26,28m0,0,29.25-86.43m-29.25,86.43L628.08,201m15.49,87.57-25.27,25.7m0,0,33.13-85.11M618.3,314.24l7.15-57.15m5.29,92.27-24.47,23.53m0,0,37.3-84.35m-37.3,84.35,12-58.65m-5.88,97.9-23.58,21.39m0,0,41.9-84.17m-41.9,84.17,17.43-60.64M587.94,477.48l-22.59,19.28m0,0,47.07-84.62m-47.07,84.62,23.49-63.23M556.39,546.11l-21.47,17.18m0,0,53-85.81m-53,85.81,30.43-66.53M516.62,619l-20.21,15m0,0,60-87.88m-60,87.88,38.51-70.7M448.31,709.94l68.31-91m-68.31,91,48.1-76M620.78,90.24l-26.39,35.12m0,0,16.72-90.49m-16.72,90.49-10-52.83m0,0,26.73-37.66m15.36,110.61-26,32.73m0,0,20.28-88m-20.28,88-6.11-52.85M628.08,201l-25.47,30.46m0,0,23.86-86m-23.86,86-2.11-53.22m25,78.88-24.91,28.29m0,0L628.08,201m-27.54,84.41,2.07-53.95m15.69,82.81L594,340.45m0,0,31.41-83.36M594,340.45l6.5-55.07m5.73,87.51-23.54,24.19m0,0,35.57-82.84m-35.57,82.84L594,340.45m-5.2,93.08-22.72,22.22m0,0,40.15-82.86m-40.15,82.86,16.61-58.67m-17.38,99.68L543.53,517m0,0,45.31-83.51M543.53,517l22.59-61.29m-31.2,107.54-20.79,18.33m0,0,51.22-84.86m-51.22,84.86L543.53,517M496.41,634l-19.63,16.36m0,0,58.14-87.06m-58.14,87.06,37.35-68.73M430,724.27,496.41,634M430,724.27l46.77-73.92m117.61-525L569.1,160.29m0,0,15.28-87.76M569.1,160.29l-10.32-50.51m0,0,25.6-37.25M600.5,178.21l-24.92,32.73m0,0,18.81-85.58m-18.81,85.58-6.48-50.65m33.51,71.14-24.47,30.64m0,0,22.36-83.86m-22.36,83.86-2.56-51.13m25,74.44L576.6,314"/><path class="cls-8" d="M576.6,314l26-82.59M576.6,314l1.54-51.95M594,340.45l-23.35,26.72m0,0,29.85-81.79m-29.85,81.79L576.6,314m6.13,83.06L560,421.93m0,0,34-81.48m-34,81.48,10.65-54.76m-4.57,88.58-22,23m0,0,38.57-81.7m-38.57,81.7L560,421.93M543.53,517l-21.12,21.22m0,0,43.71-82.51m-43.71,82.51,21.75-59.48m-30,102.84L494,601m0,0,49.58-84M494,601l28.46-62.78M476.78,650.35,457.67,668m0,0,56.46-86.33M457.67,668,494,601M412.12,740l64.66-89.64M412.12,740l45.55-72M569.1,160.29,544.77,195.1m0,0,14-85.32m-14,85.32-10.59-48.35m0,0,24.6-37m16.8,101.16-24,32.79m0,0,17.5-83.44m-17.5,83.44-6.83-48.63m33.37,67-23.57,30.85m0,0,21-82m-21,82-3-49.19m25,70.29-23.1,29m0,0,24.64-80.95M553.5,343l1.07-50.1m16.12,74.25-22.56,27.22m0,0L576.6,314m-28.47,80.37L553.5,343M560,421.93l-21.95,25.49m0,0,32.6-80.25m-32.6,80.25,10-53m-4,84.39-21.27,23.79m0,0L560,421.93m-37.15,80.64,15.2-55.15m-15.68,90.84-20.5,22.12m0,0,42.25-81.6m-42.25,81.6,21-57.81M494,601,474.31,621.5m0,0,48.1-83.24m-48.1,83.24,27.6-61.12M457.67,668,439,686.72m0,0L494,601M439,686.72l35.31-65.22M394.58,757,457.67,668M394.58,757,439,686.72M544.77,195.1l-23.48,34.77m0,0,12.89-83.12m-12.89,83.12L510.44,183.5m0,0,23.74-36.75m17.42,97-23.16,32.89m0,0,16.33-81.52m-16.33,81.52-7.15-46.75m33.28,63.05L531.79,324m0,0,19.81-80.29M531.79,324l-3.35-47.4M553.5,343,531.16,372.4m0,0,23.41-79.48M531.16,372.4l.63-48.38m16.34,70.37-21.85,27.72m0,0L553.5,343m-27.22,79.09,4.88-49.71m6.93,75L516.8,473.53m0,0,31.33-79.14M516.8,473.53l9.48-51.42m-3.39,80.46L502.23,527.1m0,0,35.86-79.68M502.23,527.1l14.57-53.57m-14.89,86.85-20,23m0,0,40.94-80.79M482,583.36l20.28-56.26m-27.92,94.4-19.17,21.44m0,0,46.77-82.56m-46.77,82.56L482,583.36M439,686.72,420.74,706.6m0,0,53.57-85.1m-53.57,85.1,34.4-63.66M377.35,775.33,439,686.72m-61.65,88.61,43.39-68.73M521.29,229.87l-22.72,34.79m0,0,11.87-81.16m-11.87,81.16-11.09-44.55m0,0,23-36.61m18,93.12-22.42,33m0,0,15.27-79.78M506,309.65l-7.45-45M531.79,324l-22.08,31.37m0,0,18.73-78.77m-18.73,78.77L506,309.65m25.14,62.75-21.68,29.78m0,0L531.79,324m-22.31,78.16.23-46.79m16.57,66.72-21.21,28.23m0,0,26.09-77.94m-26.09,77.94,4.41-48.16m7.32,71.35-20.7,26.73m0,0,30.18-78.15M496.1,500.26l9-49.92m-2.84,76.76-20.11,25.27m0,0,34.68-78.84m-34.68,78.84,14-52.11M482,583.36l-19.47,23.83m0,0,39.75-80.09m-39.75,80.09,19.64-54.82m-27,90.57L436.4,665.33m0,0,45.55-82m-45.55,82,26.08-58.14M420.74,706.6l-17.91,21m0,0,52.31-84.62m-52.31,84.62,33.57-62.23m-76,129.48,60.35-88.21m-60.35,88.21,42.44-67.25m95.74-462.9-22.06,34.85m0,0,11-79.4m-11,79.4-11.32-42.84m0,0,22.29-36.56M506,309.65l-21.79,33.24m0,0,14.34-78.23m-14.34,78.23-7.72-43.38m33.2,55.88-21.45,31.68m0,0L506,309.65m-17.76,77.42-4-44.18m25.25,59.29L488.4,432.37m0,0,21.31-77m-21.31,77-.14-45.3m16.81,63.27-20.66,28.75m0,0,25.07-76.91m-25.07,76.91,4-46.72m7.7,67.89-20.17,27.36m0,0,29.14-77.28m-29.14,77.28,8.48-48.53m-2.29,73.28-19.64,26m0,0,33.62-78.11m-33.62,78.11,13.45-50.75m-13.45,79.57-19,24.65m0,0,38.68-79.47m-38.68,79.47,19-53.47m-26.08,87L418,688.65m0,0,44.44-81.46M418,688.65l25.4-56.81m-40.61,95.72-17.61,22m0,0,51.18-84.22m-51.18,84.22L418,688.65m-74.39,126.8,59.18-87.89m-59.18,87.89,41.57-65.9m91.29-450-21.49,35m0,0,10.17-77.82M455,334.49l-11.53-41.24m0,0,21.7-36.58m19,86.22L463,376.35m0,0,13.5-76.84M463,376.35l-8-41.86m33.24,52.58-20.91,32m0,0,16.88-76.2m-16.88,76.2L463,376.35m25.39,56L467.85,463m0,0,20.41-75.93M467.85,463l-.5-43.91m17.06,60-20.15,29.29m0,0,24.14-76m-24.14,76L467.85,463m8.08,64.62-19.71,28m0,0,28.19-76.51M456.22,555.6l8-47.22m-1.78,70-19.22,26.71m0,0,32.67-77.46m-32.67,77.46,13-49.48m-12.78,76.24-18.66,25.47m0,0,37.7-78.94m-37.7,78.94,18.48-52.23M418,688.65,400,712.89m0,0,43.45-81m-43.45,81,24.79-55.58m-39.56,92.24-17.34,23m0,0L418,688.65m-50.16,83.89L400,712.89M327.11,837.21l58.11-87.66m-58.11,87.66,40.77-64.67m87.14-438-21,35.17m0,0,9.44-76.41m-9.44,76.41L422.31,329.9m0,0,21.18-36.65M463,376.35,442.3,410.1m0,0L455,334.49M442.3,410.1l-8.25-40.44m33.3,49.43-20.42,32.4m0,0L463,376.35m-16.08,75.14L442.3,410.1M467.85,463l-20.09,31.09m0,0,19.59-75m-19.59,75-.83-42.6"/><path class="cls-8" d="M464.26,508.38l-19.72,29.83m0,0L467.85,463m-23.31,75.21,3.22-44.12m8.46,61.51-19.3,28.62m0,0,27.34-75.84m-27.34,75.84,7.62-46m-1.28,66.87-18.84,27.43m0,0,31.8-76.91m-31.8,76.91,12.5-48.29m-12.14,73.09-18.33,26.27m0,0,36.81-78.5m-36.81,78.5,18-51.07M400,712.89,382.24,738m0,0,42.54-80.7M382.24,738l24.21-54.43m-38.57,89-17.11,24m0,0L400,712.89m-49.22,83.64L382.24,738m-71.51,122,57.15-87.51m-57.15,87.51,40-63.52m83.28-426.87-20.52,35.4m0,0,8.78-75.16m-8.78,75.16-12-38.36m0,0,20.74-36.8m20,80.2L422,444.18m0,0,12-74.52m-12,74.52-8.49-39.12m33.4,46.43-20,32.8m0,0L442.3,410.1m-15.37,74.19L422,444.18m25.74,49.91-19.68,31.58m0,0,18.85-74.18m-18.85,74.18-1.15-41.38m17.61,53.92-19.33,30.41m0,0,22.55-74.53m-22.55,74.53,2.87-43m8.84,58.55L418,613.49m0,0,26.56-75.28M418,613.49l7.23-44.87m-.79,63.89-18.51,28.16m0,0,31-76.45m-31,76.45L418,613.49m-11.53,70.09-18,27.08m0,0,36-78.15m-36,78.15,17.49-50M382.24,738l-17.51,26m0,0,41.72-80.45M364.73,764l23.69-53.37m-37.65,85.87-16.92,25m0,0L382.24,738M333.85,821.5,364.73,764M294.47,884l56.3-87.43M294.47,884l39.38-62.46m79.68-416.44-20.14,35.7m0,0,8.18-74.06m-8.18,74.06L381.22,403.7m0,0,20.35-37M422,444.18l-19.9,34.45m0,0,11.41-73.57m-11.41,73.57-8.73-37.87m33.54,43.53L407.3,517.54m0,0L422,444.18M407.3,517.54l-5.18-38.91m26,47-19.33,32.11m0,0,18.18-73.49m-18.18,73.49-1.45-40.24m17.91,51.08-19,31m0,0,21.86-74m-21.86,74,2.53-41.84M418,613.49l-18.63,29.93m0,0,25.86-74.8m-25.86,74.8,6.87-43.8m-.31,61-18.23,28.9m0,0L418,613.49m-30.3,76.08,11.67-46.15m-10.93,67.24-17.79,27.89m0,0,35.28-77.88m-35.28,77.88,17.05-49M364.73,764l-17.31,26.9m0,0,41-80.27m-41,80.27,23.21-52.38m-36.78,83-16.77,25.93m0,0L364.73,764m-47.65,83.4,30.34-56.5m-69.1,118,55.53-87.43m59.54-380.74-19.81,36m0,0,7.64-73.1m-7.64,73.1L361.2,441m0,0,20-37.27m20.9,74.93-19.57,34.86m0,0,10.84-72.73m-10.84,72.73-9-36.69m33.72,40.74L388,551.28m0,0,14.13-72.65M388,551.28l-5.44-37.79m26.2,44.29-19,32.65m0,0,17.57-72.89m-17.57,72.89L388,551.28m18.23,48.34-18.7,31.62m0,0,21.23-73.46m-21.23,73.46,2.21-40.81m9.62,53L381,674m0,0,25.23-74.42M381,674l6.53-42.8m.16,58.33-18,29.65m0,0,29.65-75.8m-29.65,75.8L381,674m-10.36,64.51-17.58,28.71m0,0,34.63-77.69m-34.63,77.69,16.65-48m-22.28,71.71-17.12,27.8m0,0,40.33-80.18M330.3,818.73l22.75-51.47m-49.9,102.27,44.27-78.6m-45.12,80,28-52.16m-44.85,79.19.05-.08m5.26-8.13.06-.09M373.58,476.8l-19.53,36.43m0,0L361.2,441m-7.15,72.26-12.59-34.66m0,0L361.2,441m21.35,72.52-19.3,35.32m0,0,10.33-72m-10.33,72-9.2-35.58m33.94,38-19,34.26m0,0,13.59-72m-13.59,72-5.71-36.73m26.48,41.62L371,623.67m0,0,17-72.39m-17,72.39-2-38.13m18.56,45.7L369.06,663.5m0,0,20.67-73.07M369.06,663.5,371,623.67M381,674l-18.13,31.32m0,0,24.66-74.12m-24.66,74.12,6.2-41.86m.64,55.72-17.78,30.42m0,0L381,674m-29.07,75.6,10.94-44.28m-9.81,61.9-17.4,29.54m0,0,34.05-77.58M335.65,796.8l16.27-47.16M330.3,818.73l-17,28.69m0,0,39.74-80.16m-39.74,80.16,22.34-50.62M294,884.06l36.3-65.33m-38.62,69,21.63-40.32m40.74-334.19-19.3,36.88m0,0,6.71-71.54m-6.71,71.54-12.81-33.55m0,0,19.52-38m21.79,70.24-19.06,35.83m0,0,9.86-71.41m-9.86,71.41-9.44-34.53M369,585.54l-18.81,34.82m0,0,13.1-71.55m-13.1,71.55-6-35.72m26.79,39-18.54,33.86m0,0,16.52-72m-16.52,72-2.29-37.17m18.91,43.14-18.24,32.94m0,0L371,623.67m-20.16,72.77,1.62-38.91m10.42,47.83-17.94,32.06m0,0,24.14-73.92m-24.14,73.92,5.9-41m1.1,53.2-17.61,31.21m0,0,28.55-75.49m-28.55,75.49,10.61-43.43m-9.27,59.38L318.4,827.2m0,0,33.52-77.56M318.4,827.2l15.91-46.35m-21,66.57L296.44,877m0,0,39.21-80.23M296.44,877l22-49.83M288,893.52l25.27-46.1m-28.26,50.84L296.44,877m38.31-326.92L315.64,587.5m0,0,6.3-70.94m-6.3,70.94-13-32.5m0,0,19.33-38.44m22.25,68.08L325.32,621m0,0,9.43-70.91M325.32,621l-9.68-33.52m34.51,32.86-18.62,35.43m0,0,12.66-71.15m-12.66,71.15L325.32,621m27.12,36.51-18.35,34.53m0,0,16.06-71.7m-16.06,71.7-2.56-36.27m19.29,40.65L332.74,730.1m0,0,19.7-72.57m-19.7,72.57,1.35-38m10.83,45.36-17.78,32.82m0,0,23.68-73.8m-23.68,73.8,5.6-40.14m1.57,50.75-17.47,32m0,0,28.08-75.45m-28.08,75.45,10.3-42.63m-8.74,57-17.14,31.26"/><path class="cls-8" d="M301.26,858.46l33.05-77.61m-33.05,77.61,15.58-45.59M296.44,877,282.81,901.8m-1.66,2.64L318.4,827.2m-37.69,77.93,20.55-46.67m-16.94,41L296.44,877m19.2-289.53-19,38m0,0L302.61,555m-5.94,70.45L283.41,594m0,0,19.2-39m22.71,66L306.6,658m0,0,9-70.52m-9,70.52-9.93-32.57m34.86,30.34-18.47,36.09m0,0L325.32,621m-12.26,70.86L306.6,658m27.49,34-18.21,35.22m0,0,15.65-71.49m-15.65,71.49-2.82-35.4m19.68,38.22L314.8,764.5m0,0,19.29-72.44M314.8,764.5l1.08-37.22m11.26,43-17.66,33.62m0,0,23.26-73.76m-23.26,73.76,5.32-39.36m2,48.37-17.37,32.88m0,0,27.67-75.51m-27.67,75.51,10-41.89m-8.22,54.6-17.07,32.17m0,0,32.65-77.76m-32.65,77.76,15.28-44.88m-2.8-220.3L277.81,664m0,0,5.6-70.07M277.81,664,264.3,633.48m0,0L283.41,594M306.6,658,288,695.68m0,0,8.69-70.23M288,695.68,277.81,664m35.25,27.86L294.7,728.67m0,0L306.6,658m-11.9,70.65-6.72-33m27.9,31.6-18.1,36m0,0,15.28-71.37m-15.28,71.37-3.08-34.58m20.1,35.83L297,799.69m0,0,18.91-72.41M297,799.69l.81-36.44m11.7,40.61-17.56,34.45m0,0L314.8,764.5m-22.88,73.81L297,799.69m2.5,46.06L282.18,879.5m0,0,27.3-75.64m-27.3,75.64,9.74-41.19m-7.73,52.32-17,33.09m0,0,32.28-78m-32.28,78,15-44.22M277.81,664,259,703.27m0,0,5.29-69.79M259,703.27l-13.76-29.62m0,0,19.05-40.17M288,695.68l-18.54,38.37m0,0,8.37-70m-8.37,70L259,703.27m35.69,25.4-18.29,37.55m0,0L288,695.68m-11.57,70.54-7-32.17m28.34,29.2-18,36.76m0,0,14.95-71.34M279.75,800l-3.34-33.79M297,799.69l-17.77,36m0,0,18.58-72.46M279.2,835.71l.55-35.7m12.17,38.3-17.51,35.32m0,0L297,799.69m-22.56,73.94,4.79-37.92m3,43.79-17.24,34.67m0,0,27-75.86m-27,75.86,9.47-40.54M259,703.27l-18.77,40m0,0,5-69.61m-5,69.61-14-28.72m0,0,19-40.89m24.19,60.4-18.51,39.16m0,0L259,703.27m-8.08,69.94-10.69-30m36.17,23-18.24,38.36m0,0,11.27-70.53m-11.27,70.53-7.24-31.37M279.75,800l-18,37.61m0,0,14.65-71.4m-14.65,71.4-3.59-33m21,31.13-17.73,36.9m0,0L279.75,800m-18.28,72.6.29-35m12.65,36-17.48,36.24m0,0,22.27-74.16m-22.27,74.16,4.54-37.26m3.47,41.56L247.7,949.79m0,0,26.71-76.16M247.7,949.79l9.23-39.92M240.24,743.26l-18.78,40.81m0,0,4.75-69.53m-4.75,69.53-14.31-27.86m0,0,19.06-41.67m24.72,58.67-18.5,40m0,0,7.81-69.94m-7.81,69.94-11-29.13m36.71,20.51-18.24,39.23m0,0,11-70.6m-11,70.6-7.5-30.61m29.33,24.42-18,38.52m0,0,14.39-71.56m-14.39,71.56-3.85-32.33m21.54,28.8-17.73,37.84m0,0,18-72.83m-18,72.83,0-34.31m13.15,33.73-17.49,37.22m0,0,22-74.48m-22,74.48,4.3-36.64m4,39.34-17.25,36.63m0,0,26.48-76.55m-26.48,76.55,9-39.33m-18-163-18.83,41.69m0,0,4.52-69.55m-4.52,69.55-14.61-27m0,0,19.13-42.53m25.28,57-18.55,40.9m0,0,7.58-70m-7.58,70-11.25-28.34m37.3,18L221.66,884m0,0,10.77-70.77M221.66,884l-7.78-29.87m29.9,22-18,39.47m0,0,14.15-71.8m-14.15,71.8L221.66,884m22.08,26.48L226,949.28m0,0,17.8-73.14M226,949.28l-.2-33.67m13.66,31.48-17.52,38.23m0,0,21.82-74.87m-21.82,74.87,4.06-36M202.63,825.76l-18.92,42.65m0,0L188,798.74m-4.31,69.67L168.79,842.2m0,0L188,798.74m25.86,55.36L195.26,896m0,0,7.37-70.23M195.26,896l-11.55-27.58M221.66,884l-18.33,41.17m0,0,10.55-71m-10.55,71L195.26,896m30.52,19.62L207.71,956.1m0,0L221.66,884M207.71,956.1l-4.38-31M226,949.28l-17.82,39.87m0,0,17.62-73.54m-17.62,73.54-.45-33m14.21,29.22-17.58,39.31m0,0L226,949.28m-21.64,75.35,3.82-35.48M183.71,868.41l-19,43.69m0,0,4.11-69.9m-4.11,69.9-15.26-25.4m0,0,19.37-44.5M195.26,896l-18.72,42.93m0,0,7.17-70.51m-7.17,70.51L164.68,912.1m38.65,13-18.44,42.23m0,0L195.26,896m-10.37,71.38-8.35-28.45m31.17,17.18-18.16,41.59m0,0,13.78-72.55m-13.78,72.55-4.66-30.32m23.27,21.78-17.9,41m0,0,17.45-74.05m-17.45,74.05-.71-32.46m14.79,26.94-17.68,40.45m0,0,21.5-75.93m-21.5,75.93,3.6-34.93M164.68,912.1l-19.2,44.81m0,0,3.94-70.21m-3.94,70.21L129.86,932.3m0,0,19.56-45.6m27.12,52.22L157.67,983m0,0,7-70.89m-7,70.89-12.19-26.08m39.41,10.46-18.56,43.39m0,0,10.21-71.84m-10.21,71.84L157.67,983m31.88,14.7-18.28,42.75m0,0,13.62-73.07m-13.62,73.07-4.94-29.68m23.93,19.39-18,42.18m0,0,17.32-74.64m-17.32,74.64-1-31.89m15.39,24.64-17.8,41.66m0,0,21.4-76.59m-21.4,76.59,3.37-34.41M145.48,956.91l-19.4,46m0,0,3.78-70.63"/><path class="cls-8" d="M126.08,1002.93l-16-23.81m0,0,19.77-46.82M157.67,983l-19,45.3m0,0,6.85-71.38m-6.85,71.38-12.55-25.36m40.25,7.83-18.73,44.62m0,0L157.67,983m-10.07,72.39-9-27.09m32.64,12.15-18.44,44m0,0,13.5-73.69m-13.5,73.69-5.23-29.07m24.63,16.95-18.18,43.44m0,0,17.22-75.33m-17.22,75.33-1.22-31.32m-26.75-81.52-19.63,47.34m0,0,3.64-71.15m-3.64,71.15-16.4-23m0,0,20-48.12m28.54,49.17-19.27,46.61m0,0,6.72-72m-6.72,72-12.91-24.63m41.15,5.11-18.93,45.94m0,0,10-73m-10,73-9.31-26.42m33.47,9.55-18.64,45.34m0,0,13.41-74.41m-13.41,74.41-5.52-28.47m25.38,14.45-18.37,44.79m0,0,17.15-76.11m-17.15,76.11-1.49-30.77m-27.74-79.52L86.53,1099m0,0,3.52-71.8M86.53,1099,69.7,1076.8m0,0,20.35-49.56m29.31,47.66-19.53,48m0,0,6.62-72.67m-6.62,72.67L86.53,1099m42.14,2.28-19.17,47.37m0,0,9.86-73.79m-9.86,73.79-9.67-25.75m34.36,6.85-18.86,46.76m0,0,13.34-75.23m-13.34,75.23-5.83-27.86m26.18,11.87-18.6,46.24m0,0,17.11-77m-17.11,77-1.75-30.25m.72,42.93,1-12.68M86.53,1099l-20.24,50.3m0,0,3.41-72.54m-3.41,72.54L49,1127.9m0,0,20.71-51.1m30.13,46.14L80,1172.5m0,0L86.53,1099M80,1172.5l-13.72-23.16m43.21-.65L90,1197.59m0,0,9.79-74.65M90,1197.59,80,1172.5m35.32,4-19.13,48.3m0,0,13.3-76.16m-13.3,76.16L90,1197.59m27,9.21-18.85,47.77m0,0,17.1-78m-17.1,78-2-29.72m14.11,7.46,6.77-25.51M12.73,1464,9,1473.47m57.31-324.13-20.61,52m0,0L49,1127.9m-3.31,73.4-17.79-20.63m0,0L49,1127.9m31,44.6-20.17,51.22m0,0,6.45-74.38m-6.45,74.38L45.68,1201.3M90,1197.59l-19.77,50.55m0,0L80,1172.5m-9.74,75.64-10.43-24.42m36.36,1.13-19.43,50m0,0L90,1197.59M76.77,1274.8l-6.5-26.66M45.68,1201.3l-21,53.76m0,0,3.24-74.39m-3.24,74.39L6.32,1235.27m0,0,21.57-54.6m32,43-20.55,53m0,0,6.39-75.42m-6.39,75.42-14.64-21.66m45.62-6.92-20.14,52.32m0,0,9.71-76.74m-9.71,76.74-10.84-23.74m37.48-1.92L57,1326.52m0,0,13.29-78.38M57,1326.52l-6.85-26.06m-25.48-45.4-21.5,55.71m0,0,3.17-75.5m-3.17,75.5-18.9-18.92m0,0,22.07-56.58m33,41.45-21,54.94m0,0,6.36-76.6m-6.36,76.6L3.15,1310.77m47-10.31-20.56,54.23m0,0,9.72-78m-9.72,78-11.28-23M57,1326.52l-20.17,53.62m0,0,13.32-79.68m-13.32,79.68-7.24-25.45M3.15,1310.77l-22,57.83m0,0,3.13-76.75m-3.13,76.75-19.51-18m0,0,22.64-58.72m34,39.81-21.48,57m0,0,6.34-77.9m-6.34,77.9-15.69-20.07m48.45-13.91-21,56.3m0,0,9.73-79.33M8.56,1411l-11.75-22.32m40-8.53L16.2,1435.8m0,0,13.37-81.11M16.2,1435.8,8.56,1411m-27.44-42.39-22.61,60.12m0,0,3.1-78.15m-3.1,78.15-20.18-17.08m0,0,23.28-61.07m35.2,38.1-22,59.28m0,0,6.34-79.35M-25.22,1448l-16.27-19.23M8.56,1411-13,1469.52m0,0,9.77-80.85M-13,1469.52-25.22,1448M16.2,1435.8,2.46,1473.47m-4.07,0L8.56,1411m-20.21,62.48-1.31-4m21.4,4,7.76-37.67m-57.69-7.08-16.62,44.75m-6,0,2.39-61.83M-85,1473.47l23.31-61.83M-25.22,1448l-9.36,25.52m-10.43,0,3.52-44.75m28.53,40.8-1.43,4m-13.87,0,3-25.52m11.62,25.52.64-4m918.26-507-.1.23M675.64,1100.89l-4.12,5.8m0,0-23.79,29.48m23.79-29.48-37.78,49.16m61.58-76.78-23.8,27.62m0,0-13.93,20.92m0,0-23.85,28.25m23.85-28.25L620,1176.51m84.5-106.91-10.58,15.83m0,0-22.41,21.26m22.41-21.26-36.34,42.18m75-83.7-3.49,5.21m0,0-13,9.4m13-9.4-35.16,36.31m55.1-54.57-19.94,18.26m-71.5,78.49-13.66,21.86m0,0-23.92,27m23.92-27-37.4,48.68m87.4-112.72-13.79,22m0,0-22.55,20.19m22.55-20.19-36.21,42m85.16-100.35-13.87,22m0,0-21.29,14.28m21.29-14.28-35.08,36.27m79.78-84.4-10.7,16.92m0,0-20.13,9.18m20.13-9.18-34,31.21m71.39-64.89-4.41,6.92m0,0-12.31,3.08m12.31-3.08-33,26.76m56.47-43.47-23.49,16.71M643.93,1149.47l-13.39,22.8m0,0-24,25.88m24-25.88-37.25,48.49m86.85-113.34-13.49,22.89m0,0-22.72,19.16m22.72-19.16-36.11,42m84.68-101.12-13.56,22.9m0,0-21.52,13.37m21.52-13.37-35,36.26m82.57-90.37-13.59,22.83m0,0-20.41,8.38m20.41-8.38-34,31.28m80.54-80.87-13.57,22.71m0,0-19.41,4m19.41-4-33,26.88m76.63-69.09-11.55,19.22m0,0-18.51.28m18.51-.28-32.08,23m68.9-51.76-5.59,9.24m0,0-13.55-2.29m13.55,2.29-31.23,19.53M861,977.7l-29.06,15.67m-201.4,178.9L617.4,1196m0,0-24.11,24.75M617.4,1196l-37.13,48.34m86.38-114-13.22,23.8m0,0-22.89,18.16m22.89-18.16-36,41.9m84.26-102-13.25,23.77m0,0-21.76,12.49"/><path class="cls-8" d="M688.41,1117.82l-35,36.29m82.2-91.34-13.25,23.68m0,0-20.72,7.6m20.72-7.6-34,31.37m80.22-81.93-13.23,23.53m0,0-19.77,3.35m19.77-3.35-33,27m78.33-73.55-13.17,23.32m0,0-18.91-.33m18.91.33-32.14,23.2m76.54-66.05-13.09,23.06m0,0-18.14-3.53m18.14,3.53-31.31,19.79m74.54-58.73L849.4,999.71m0,0-17.46-6.34m17.46,6.34-30.55,16.72m67.32-42.74-6.91,12m0,0-16.17-8.42m16.17,8.42-29.86,14m60.3-27.54-1.21,2.11m0,0-3.06-2m3.06,2-29.23,11.46m35.54-13.49-6.31,2M617.4,1196l-12.9,24.69m0,0-24.23,23.65m24.23-23.65-37,48.22m86-114.81-12.95,24.71m0,0L617.4,1196m23.08-17.19-36,41.88m83.91-102.88-13,24.66m0,0-22,11.63m22-11.63-35,36.34m81.9-92.37L709.44,1111m0,0-21,6.83m21-6.83-34,31.49m79.95-83.06-12.89,24.35m0,0-20.13,2.68m20.13-2.68L709.44,1111m78.1-74.77-12.82,24.11m0,0-19.32-.91m19.32.91-32.21,23.44m76.34-67.34-12.72,23.84m0,0-18.59-4m18.59,4-31.41,20.06m74.68-60.62-12.6,23.51m0,0-17.95-6.79m17.95,6.79-30.67,17m73.13-54.53-12.47,23.16m0,0-17.39-9.19m17.39,9.19-30,14.32m71.69-48.94-12.31,22.77m0,0-16.92-11.31m16.92,11.31-29.39,11.85M925,987.44l-16.52-13.16M925,987.44l-28.83,9.61M604.5,1220.7l-12.68,25.65m0,0-24.36,22.57m24.36-22.57-37,48.14m85.63-115.67-12.69,25.64m0,0L604.5,1220.7m23.29-16.24-36,41.89m83.63-103.87L662.76,1168m0,0-22.28,10.79M662.76,1168l-35,36.43M709.44,1111l-12.65,25.4m0,0-21.34,6.09m21.34-6.09-34,31.64m79.75-84.26L729.94,1109m0,0-20.5,2m20.5-2-33.15,27.43m77.93-76.06-12.48,24.93m0,0-19.73-1.49m19.73,1.49-32.3,23.7m76.19-68.69-12.37,24.62m0,0-19-4.56m19,4.56-31.52,20.37m74.56-62-12.23,24.28m0,0-18.44-7.23m18.44,7.23-30.81,17.39m73-56-12.08,23.9m0,0-17.91-9.58m17.91,9.58-30.14,14.7m71.61-50.45-11.92,23.49m0,0-17.47-11.64m17.47,11.64-29.55,12.26m58.57-22.3-17.1-13.45m17.1,13.45-29,10M591.82,1246.35,579.37,1273m0,0-24.52,21.52M579.37,1273l-36.94,48.1m85.36-116.61L615.34,1231m0,0-23.52,15.31M615.34,1231l-36,41.93M662.76,1168l-12.41,26.46m0,0-22.56,10m22.56-10-35,36.55m81.45-94.65-12.34,26.27m0,0L662.76,1168m21.69-5.37-34.1,31.83M729.94,1109l-12.26,26m0,0-20.89,1.4m20.89-1.4-33.23,27.67m77.79-77.4L750.09,1111m0,0-20.15-2m20.15,2-32.41,24m76.08-70.1-12,25.42m0,0-19.51-5m19.51,5L750.09,1111m74.48-63.5-11.87,25m0,0-18.94-7.66m18.94,7.66-31,17.76m73-57.51L843,1057.45m0,0-18.44-10m18.44,10-30.31,15.1m71.56-52-11.51,24.22m0,0-18-12m18,12L843,1057.45m59-23.19-17.7-13.72m17.7,13.72-29.21,10.5M579.37,1273l-12.24,27.61m0,0-24.7,20.49m24.7-20.49-36.94,48.09M615.34,1231l-12.22,27.52m0,0L579.37,1273m23.75-14.41-36,42m83.22-106.09-12.16,27.37m0,0L615.34,1231m22.85-9.18-35.07,36.7m81.33-95.9-12.07,27.16m0,0-22,4.67m22-4.67-34.19,32M717.68,1135l-12,26.89m0,0-21.27.78m21.27-.78-33.34,27.94M750.09,1111l-11.82,26.58m0,0L717.68,1135m20.59,2.59-32.55,24.3m76-71.57-11.67,26.22m0,0-20-5.53m20,5.53-31.81,21m74.43-65-11.51,25.83m0,0-19.44-8.07m19.44,8.07-31.11,18.15M843,1057.45l-11.32,25.41m0,0-19-10.31m19,10.31-30.5,15.52m71.56-53.62-11.14,25m0,0L843,1057.45m18.6,12.26-29.92,13.15M891,1058.74l-18.28-14m18.28,14-29.42,11M567.13,1300.58l-12,28.61m0,0-24.89,19.48m24.89-19.48-37,48.13m85-118.76-12,28.5m0,0-24,13.52m24-13.52-36,42.13m83.11-107.33-11.9,28.31m0,0-23.17,8.39m23.17-8.39-35.16,36.89m81.25-97.24-11.79,28.06m0,0-22.4,4m22.4-4-34.3,32.29m79.43-88.29-11.66,27.77m0,0-21.68.17m21.68-.17-33.47,28.23m77.68-80.3L726.76,1165m0,0-21-3.13m21,3.13-32.7,24.64m76-73.12-11.34,27m0,0-20.47-6m20.47,6-32,21.44m74.43-66.63L790,1125m0,0-20-8.48m20,8.48-31.3,18.56m73-60.71-11,26.18m0,0-19.54-10.66M820.73,1109,790,1125m71.57-55.3-10.75,25.71m0,0-19.17-12.56m19.17,12.56L820.73,1109m59.76-25.1-18.88-14.23m18.88,14.23-29.63,11.48M555.08,1329.19l-11.85,29.64m0,0-25.1,18.49m25.1-18.49-37,48.19m84.9-120-11.77,29.49m0,0-24.28,12.64m24.28-12.64-36.13,42.28m83.06-108.66-11.66,29.27m0,0-23.5,7.62m23.5-7.62-35.27,37.11m81.23-98.67-11.53,29m0,0-22.77,3.3m22.77-3.3-34.43,32.57m79.43-89.79-11.37,28.66m0,0-22.1-.43m22.1.43-33.63,28.56m77.7-81.86-11.19,28.29m0,0-21.51-3.65"/><path class="cls-8" d="M715.57,1193.3l-32.88,25m76-74.74-11,27.89m0,0-21-6.45m21,6.45-32.16,21.84M790,1125l-10.81,27.44m0,0-20.49-8.88m20.49,8.88-31.5,19m73-62.42-10.6,27m0,0L790,1125m20.09,11-30.9,16.44m71.63-57-10.38,26.47m0,0L820.73,1109m19.75,12.85L810.13,1136m60.21-26.12-19.48-14.47m19.48,14.47-29.86,12M543.23,1358.83l-11.67,30.69m0,0L506.23,1407m25.33-17.5-37.07,48.3m84.87-121.27-11.56,30.51m0,0-24.57,11.77m24.57-11.77-36.24,42.46m83.07-110.08-11.42,30.25m0,0-23.85,6.86m23.85-6.86-35.41,37.37m81.26-100.19-11.26,29.94m0,0-23.17,2.63m23.17-2.63-34.59,32.88m79.48-91.38-11.08,29.58m0,0-22.55-1m22.55,1-33.81,28.92m77.77-83.51-10.9,29.18m0,0-22-4.17m22,4.17-33.06,25.41m76.12-76.43L737,1200.2m0,0-21.47-6.9m21.47,6.9-32.37,22.28m74.56-70-10.47,28.27m0,0-21-9.26m21,9.26L737,1200.2M810.13,1136l-10.25,27.78m0,0-20.65-11.34m20.65,11.34-31.12,16.93m71.72-58.83-10,27.25m0,0L810.13,1136m20.34,13.13-30.59,14.65m60.7-27.2-20.1-14.7m20.1,14.7-30.11,12.55M531.56,1389.52l-11.49,31.77m0,0-25.58,16.53m25.58-16.53-37.17,48.44m84.9-122.67-11.35,31.54m0,0-24.89,10.92m24.89-10.92-36.38,42.69m83.14-111.6L592,1341m0,0-24.21,6.11M592,1341l-35.56,37.65m81.35-101.79-11,30.92m0,0-23.58,2m23.58-2L592,1341m79.6-93.06-10.81,30.52m0,0-23-1.6m23,1.6-34,29.32m77.88-85.25-10.6,30.08m0,0-22.46-4.67m22.46,4.67-33.27,25.85M737,1200.2l-10.37,29.62m0,0-22-7.34m22,7.34-32.6,22.74m74.69-71.84-10.14,29.13m0,0L737,1200.2m21.58,9.65-32,20m73.21-66L790,1192.38m0,0-21.23-11.66M790,1192.38l-31.37,17.47m71.85-60.71-9.64,28m0,0-21-13.4m21,13.4L790,1192.38m61.21-28.31-20.73-14.93m20.73,14.93-30.37,13.12m-300.76,244.1-11.32,32.88m0,0-25.85,15.56m25.85-15.56-14.8,19.3m62.5-94.87-11.16,32.62m0,0-25.22,10.07m25.22-10.07-36.54,43M592,1341l-11,32.3m0,0-24.59,5.35m24.59-5.35-35.75,38m81.5-103.49L616,1339.64m0,0L592,1341m24-1.31-35,33.61m79.76-94.84-10.54,31.49m0,0-23.47-2.17m23.47,2.17L616,1339.64m78-87.08-10.3,31m0,0-23-5.18m23,5.18-33.51,26.31m76.41-80.08-10.06,30.52m0,0-22.54-7.78m22.54,7.78-32.84,23.25m74.85-73.74-9.8,30m0,0-22.15-10m22.15,10-32.21,20.5m73.38-68-9.54,29.44m0,0-21.83-12m21.83,12-31.63,18m72-62.65-9.27,28.86m0,0L790,1192.38m21.57,13.67-31.11,15.77m61.74-29.49-21.36-15.14m21.36,15.14-30.63,13.72M508.75,1454.17l-6.32,19.3m42.86-62.25-11,33.73m0,0-25.58,9.22m25.58-9.22-24.22,28.52M581,1373.25l-10.75,33.36m0,0-25,4.61m25-4.61-36,38.34M616,1339.64l-10.52,32.95m0,0-24.47.66m24.47-.66-35.22,34m80-96.71L640,1342.38m0,0-24-2.74m24,2.74-34.48,30.21m78.26-89-10,32m0,0-23.5-5.67m23.5,5.67L640,1342.38m76.62-82-9.74,31.45m0,0-23.1-8.2m23.1,8.2-33.11,23.78m75.06-75.73-9.47,30.89m0,0-22.74-10.39m22.74,10.39-32.48,21.06m73.58-70-9.19,30.31m0,0-22.44-12.29m22.44,12.29-31.91,18.6m72.21-64.68-8.91,29.69m0,0-22.2-13.92m22.2,13.92-31.39,16.39m62.31-30.74-22-15.34m22,15.34-30.92,14.35M534.33,1445l-8.82,28.52m44.78-66.86-10.53,34.47m0,0L534.33,1445m25.43-3.87-30.28,32.39m76-100.88-10.28,34m0,0H570.29m24.94,0-35.47,34.48m80.23-98.7-10,33.52m0,0-24.47-3.31M630,1375.9l-34.75,30.7m78.53-91-9.72,33m0,0-24-6.17m24,6.17L630,1375.9m76.89-84.11-9.44,32.41m0,0-23.67-8.63m23.67,8.63L664,1348.55m75.31-77.82-9.14,31.82m0,0-23.34-10.76m23.34,10.76-32.78,21.65m73.83-72.07-8.84,31.19m0,0-23.07-12.59m23.07,12.59-32.21,19.23m72.44-66.81-8.55,30.56m0,0-22.84-14.17m22.84,14.17-31.68,17m62.91-32-22.68-15.54m22.68,15.54-31.23,15M559.76,1441.08l-9.39,32.39m44.86-66.87-10,35.12m0,0-25.43-.64m25.43.64-32.46,31.75M630,1375.9l-9.74,34.58m0,0-25-3.88m25,3.88-35,31.24M664,1348.55l-9.44,34m0,0L630,1375.9m24.62,6.66-34.36,27.92m77.19-86.28-9.13,33.4m0,0-24.26-9m24.26,9-33.7,25m75.61-80-8.82,32.77m0,0-24-11.12m24,11.12L688.3,1357.6m74.12-74.28-8.5,32.12m0,0-23.71-12.89m23.71,12.89-32.53,19.88m72.71-69-8.17,31.44m0,0-23.51-14.42m23.51,14.42-32,17.7M817.47,1282,794.1,1266.3M817.47,1282l-31.54,15.71m-200.74,144-8.59,31.75m43.64-63-9.49,35.68m0,0-25.56-4.44m25.56,4.44-30.35,27.31m74.2-90.91-9.16,35.06m0,0-25.2-7.14m25.2,7.14-34.69,28.54m77.55-88.56L679.48,1392"/><path class="cls-8" d="M679.48,1392l-24.88-9.47m24.88,9.47-34,25.59m75.95-82.3-8.48,33.75m0,0L688.3,1357.6m24.61,11.47-33.43,23m74.44-76.59-8.15,33.06m0,0-24.38-13.18m24.38,13.18-32.86,20.57m73-71.33-7.81,32.35m0,0-24.2-14.65m24.2,14.65-32.35,18.41M810,1313.65l-24.06-15.91M810,1313.65l-31.87,16.44M610.75,1446.16l-6.83,27.31m41.52-55.85-8.86,36.18m0,0-25.83-7.64m25.83,7.64L613,1473.47M679.48,1392l-8.5,35.48m0,0-25.54-9.89m25.54,9.89-34.4,26.29m76.33-84.73-8.15,34.78m0,0L679.48,1392m25.28,11.82L671,1427.51m74.79-79-7.79,34m0,0-25.07-13.47M738,1382.54l-33.22,21.31m73.36-73.76-7.44,33.29m0,0-24.91-14.88m24.91,14.88L738,1382.54m64.93-36.37-24.79-16.08m24.79,16.08-32.23,17.21m-134.1,90.42-4.53,19.67m38.93-46-8.2,36.59m0,0-26.2-10.3m26.2,10.3-12.06,9.37m54-69.62L697,1439.68m0,0-26-12.17m26,12.17-34.17,24.42m75.2-81.56-7.44,35.06m0,0-25.78-13.75m25.78,13.75L697,1439.68m73.73-76.3-7.06,34.26m0,0L738,1382.54m25.64,15.1-33.08,20m65.67-38-25.53-16.24m25.53,16.24-32.59,18M662.78,1464.1l-2,9.37M697,1439.68l-6.84,33.79m-7.35,0-20-9.37m67.76-46.5-7.07,36.11m0,0-26.52-14m26.52,14-29.33,19.76m69.48-75.83-6.69,35.28m0,0-26.39-15.32m26.39,15.32-33.46,20.79M789.92,1414l-26.3-16.4m26.3,16.4-33,18.88m-33.46,20.79-3.57,19.76m37-40.55-6.29,36.31m0,0-27.17-15.52m27.17,15.52-6.62,4.24m40-24-27.1-16.54m27.1,16.54-33.39,19.77m0,0-.67,4.24m34.06-24-3.6,24m-22.71,0-7.08-4.24m480.25,4.24-18.54-37.75m0,0,18,37.75m-18-37.75,16.18,37.75M1201,1378.05l40.25,95.42M1201,1378l11.39,57.71m15.93,37.75-70.39-134.77m54.46,97-77.67-148m0,0,93.65,185.78m-93.65-185.78,23.21,51m-41.68-118.59,96.14,215.61m-96.15-215.63,18.48,67.6m23.21,51L1095,1226.41m39.69,61.28-67-118.71m0,0,90.16,169.72M1067.73,1169l27.26,57.43m-50.48-130.23,90.17,191.51m-90.18-191.53,23.23,72.82m27.26,57.43-55.8-92.3m28.54,34.87-58.59-96m0,0L1095,1226.41M1009.14,1073l30.05,61.09M982.7,997.89l85,171.09m-85-171.1,26.45,75.14m0,0-51.95-78m0,0,82,139.07M957.19,995l32,62.91M928.58,919.41,1009.14,1073M928.57,919.4,957.19,995m58.09,102.68-35.87-50m9.75,10.27-45.28-63m0,0,67.76,97.18M943.88,995l35.53,52.69M957.19,995l-46.58-63.52m0,0L989.16,1058M910.61,931.52,943.88,995M880.54,856.54,957.19,995M880.54,856.53l30.07,75M943.88,995l-41.32-52m0,0,76.85,104.69M902.56,943l36.35,53.28m-28.3-64.75-42.19-51.74m0,0L943.88,995M868.42,879.78,902.56,943M837.4,806.19l73.21,125.33M837.4,806.18l31,73.6M944.23,1003,939.81,998m0,0,2.27,2.33M902.56,943l-38-42.83m0,0,74.34,96.11m-74.34-96.11,36.89,53.25m-33-73.63-38.52-42m0,0L902.56,943M829.9,837.79l34.67,62.37M798.27,766l70.15,113.76M798.27,766l31.63,71.77m71.56,115.62-34.83-35.55m0,0L939.81,998m-73.18-80.1,38.69,44.65m-40.75-62.35-35.14-35.07m0,0,72,88.32m-72-88.32,37.2,52.77M829.9,837.79l-35.47-33.86m0,0,70.14,96.23m-70.14-96.23,35,61.16m-67-130.82L829.9,837.79M762.45,734.27l32,69.66m72.2,113.93-32.55-29.24m0,0,71.24,73.89m-71.24-73.89L873,933m-43.53-67.93-32.72-28.43m0,0,69.92,81.2m-69.92-81.2,37.37,52m-39.65-84.69-32.87-27m0,0,67.87,88.13M761.56,777l35.15,59.7M729.4,709.53l65,94.4m-65-94.4L761.56,777M907.21,965l2,1.58M873,933l-30.49-24.27m0,0,70.21,61.33m-70.21-61.33,39.92,37m-48.31-57.13-30.57-23.75m0,0L873,933m-69.45-68.15,39,43.88m-45.76-72.09-30.62-22.73m0,0,68,74.69m-68-74.69,37.42,50.94m-42-87.91-30.65-21.11m0,0,65.8,80.81m-65.8-80.81,35.18,58.08M698.7,690.72,761.56,777M698.7,690.72l32.21,65.13M910,967.27l-1.09-.76m-26.47-20.76-28.79-20m0,0L896,956.69m-42.4-30.93L894,956.17m-51.56-47.42-28.83-19.67m0,0,68.75,56.67m-68.75-56.67,40,36.68m-50.09-60.89-28.84-19m0,0,67.8,62.83m-67.8-62.83,39,43.16m-47.55-75.15-28.8-17.78m0,0,66.22,68.72m-66.22-68.72,37.38,49.77m-43.76-90.07-28.75-16.07m0,0,63.93,74.15m-63.93-74.15,35.13,56.37M670,677l60.92,78.88M670,677l32.17,62.81m204.17,224,.63.37M853.6,925.76l-27.37-16.08m0,0L894,956.17m-67.8-46.49,40.46,30.2m-53.05-50.8-27.35-15.57m0,0,67.31,52.25m-67.31-52.25,39.94,36.17m-51.56-63.76L747.38,831.2m0,0,66.26,57.88M747.38,831.2l38.91,42.31m-49-77.36-27.2-13.44m0,0,64.58,63.21m-64.58-63.21,37.29,48.49m-45.22-91.42-27.1-11.69m0,0,62.23,68.06m-62.23-68.06,35,54.62M643,667.56l59.16,72.22M643,667.56l32.06,60.53M907,964.25l-.32-.16m-40-24.21L840.57,927m0,0,59.24,33.23m6.72,3.77.45.25M840.57,927l40.55,24.34m-54.89-41.63-26.1-12.56"/><path class="cls-8" d="M800.13,897.12l66.56,42.76m-66.56-42.76L840.57,927m-54.28-53.46-26-11.94m0,0,66,48.11m-66-48.11,39.88,35.55M747.38,831.2l-25.94-11m0,0,64.85,53.28m-64.85-53.28,38.81,41.34m-50.16-78.86-25.81-9.63m0,0,63.1,58.12m-63.1-58.12,37.16,47.15m-46.38-92.14-25.65-7.87m0,0,60.68,62.49m-60.68-62.49,34.87,52.86m-66.8-111.16,57.58,66.17m-57.58-66.17,31.93,58.3M904.54,963.54l-8.15-3.31m-15.27-8.92-25-10.1m0,0,45.65,20.41M856.1,941.21l40.29,19M840.57,927l-25-9.86m0,0,65.56,34.2m-65.56-34.2,40.54,24.1m-56-44.09-25-9.39m0,0L840.57,927m-65.4-39.24,40.39,29.38m-55.31-55.54-24.87-8.65m0,0,64.75,44.2m-64.75-44.2,39.79,34.81m-53.73-67.5L696.7,812.6m0,0,63.55,49m-63.55-49,38.68,40.32m-51.1-79.84-24.58-6.26m0,0,61.74,53.41M659.7,766.82l37,45.78m-47.29-92.38L625,715.72m0,0,59.28,57.36M625,715.72l34.7,51.1M593.24,659.58l56.17,60.64m-56.17-60.64L625,715.72M896.39,960.23l-24-7.59m0,0,32.36,11.05m-32.36-11.05,33.41,11.89M856.1,941.21l-24-7.41m0,0,64.32,26.43M832.07,933.8l40.29,18.84m-56.8-35.53-24-7.06m0,0,64.54,31.16m-64.54-31.16,40.51,23.75m-56.9-46.07-23.92-6.51m0,0,64.31,35.89m-64.31-35.89,40.31,28.83m-56.18-57.13-23.81-5.72m0,0,63.6,40.53m-63.6-40.53,39.68,34M696.7,812.6,673,808m0,0,62.34,44.95M673,808l38.53,39.23M659.7,766.82l-23.48-3.24m0,0,60.48,49m-60.48-49L673,808m-48-92.25-23.3-1.51m0,0,58,52.61m-58-52.61,34.52,49.37m-66.1-103.42L625,715.72m-54.88-55.56,31.58,54.05M907.16,965.65,889,961.45m0,0L907.54,966M889,961.45l18.81,4.68m-35.4-13.49-23.15-5.21m0,0L906.39,965m-57.18-17.6,39.74,14M832.07,933.8l-23.13-4.95m0,0,63.42,23.79m-63.42-23.79,40.27,18.58m-57.65-37.38-23.07-4.52m0,0,63.58,28.27m-63.58-28.27,40.45,23.32m-57.69-47.63-23-3.89m0,0,63.3,32.72m-63.3-32.72,40.23,28.2M711.57,847.2l-22.86-3m0,0,62.54,37.06m-62.54-37.06,39.55,33.17M673,808,650.33,806m0,0,61.24,41.16M650.33,806l38.38,38.12m-52.49-80.58L613.7,763m0,0L673,808M613.7,763l36.63,43M601.7,714.21l-22.32,1.15m0,0,56.84,48.22m-56.84-48.22L613.7,763M548,663.33l53.71,50.88M548,663.33l31.39,52m332,253.34-.16,0m-.31,0-5.3-.79m0,0,5.3.79m.31,0,.16,0m-5.77-.86,5.3.79m.31,0,.16,0M889,961.45l-22.33-3.21m0,0,42.44,8.94m.67.14.34.07m-43.45-9.15,39,9.6m-56.36-20.41-22.33-3m0,0,62.07,17m-62.07-17,39.74,13.82m-57.68-29.39-22.3-2.67m0,0,62.57,21.25m-62.57-21.25,40.24,18.24m-58.39-38.89-22.23-2.17m0,0,62.68,25.49m-62.68-25.49,40.38,22.82m-58.38-48.85-22.13-1.5m0,0,62.36,29.7m-62.36-29.7,40.13,27.53m-57.55-59.2-22-.6m0,0,61.56,33.77M666.7,843.56l39.43,32.27M650.33,806l-21.84.52m0,0,60.22,37.6m-60.22-37.6,38.21,37M613.7,763,592,764.94m0,0L650.33,806M592,764.94l36.45,41.62m-49.11-91.2-21.46,3.56m0,0L613.7,763m-55.78-44.12,34.12,46M548,663.33l-21.28,5.48m0,0,52.67,46.55m-52.67-46.55,31.21,50.11M905.57,967.84,884,966.45m0,0,28.34,3.34M884,966.45l29.36,4.3m-46.72-12.51L845,957m0,0,60.54,10.83M845,957l39,9.44m-57.1-22-21.57-1m0,0,61.31,14.78m-61.31-14.78L845,957m-58.39-30.83-21.53-.57m0,0,61.77,18.81m-61.77-18.81,40.2,17.85m-59-40.1-21.46,0m0,0,61.84,22.84M724.8,903.34l40.31,22.27m-59-49.78-21.37.71m0,0,61.5,26.82m-61.5-26.82,40,26.8m-58.1-59.78-21.23,1.63m0,0,60.66,30.64m-60.66-30.64,39.29,31.35m-56.27-70-21.07,2.75m0,0,59.28,34.25m-59.28-34.25,38.05,35.88M592,764.94l-20.89,4.12m0,0,57.34,37.5m-57.34-37.5,36.27,40.25m-49.5-90.39-20.71,5.72m0,0L592,764.94m-54.83-40.3,33.94,44.42m-65-92.66,51.74,42.52M506.18,676.4l31,48.24M884,966.45l-20.89.41m0,0,50.78,4.44m-50.78-4.44L901,972.29M845,957l-20.89.62m0,0L884,966.45m-59.84-8.82,39,9.23m-57.78-23.4-20.87.94m0,0L845,957M784.44,944.4l39.7,13.23m-59-32L744.29,927m0,0,61,16.45m-61-16.45,40.15,17.39M724.8,903.34l-20.76,2m0,0,61.07,20.28M704,905.33,744.29,927m-59.53-50.47-20.65,2.74m0,0,60.69,24.06m-60.69-24.06L704,905.33m-58.57-60.14-20.53,3.67m0,0,59.82,27.68m-59.82-27.68,39.17,30.42m-56.69-70-20.37,4.81m0,0,58.42,31.07m-58.42-31.07,37.89,34.74m-53.79-79.8L551,775.21m0,0,56.47,34.1M551,775.21l36.1,38.91m-49.84-89.48-20,7.71m0,0,54,36.71m-54-36.71L551,775.21m-64.62-89.33,50.88,38.76m-50.88-38.76,30.86,46.47m345.9,234.51L842.84,969m0,0L901,972.29M842.84,969l37.94,5.25m-56.64-16.57L803.9,960"/><path class="cls-8" d="M803.9,960l59.19,6.88M803.9,960l38.94,9m-58.4-24.55-20.22,2.72m0,0,59.92,10.51m-59.92-10.51L803.9,960m-59.61-33-20.18,3.22m0,0,60.33,14.17m-60.33-14.17,40.11,16.89M704,905.33l-20.11,3.84m0,0L744.29,927m-60.36-17.84,40.18,21.06m-60-51-20,4.63m0,0L704,905.33m-59.95-21.42,39.84,25.26m-59-60.31-19.89,5.57m0,0,59.06,24.85m-59.06-24.85,39,29.48m-57-69.79-19.75,6.7m0,0,57.64,28m-57.64-28,37.75,33.61M551,775.21l-19.59,8m0,0,55.69,30.9m-55.69-30.9,35.94,37.6m-50.11-88.47-19.43,9.52m0,0L551,775.21m-53.19-33.34,33.6,41.35m-64.3-86.11,50.13,35.24m-50.13-35.24,30.7,44.76M842.84,969l-19.64,3.68m0,0,57.58,1.57m-57.58-1.57,37.95,5M803.9,960l-19.63,4m0,0,58.57,5m-58.57-5,38.93,8.66m-59-25.51-19.62,4.41m0,0L803.9,960m-59.3-8.45L784.27,964m-60.16-33.74-19.58,4.92m0,0,59.69,12m-59.69-12,40.07,16.38m-60.67-42.36-19.51,5.59m0,0,59.69,15.47m-59.69-15.47,40.11,20.39m-60.44-51.24-19.43,6.38m0,0,59.27,18.88m-59.27-18.88,39.76,24.47m-59.37-60.33-19.31,7.34m0,0,58.35,22.14m-58.35-22.14,38.92,28.52M567.3,820.82l-19.19,8.45m0,0,56.94,25.16m-56.94-25.16,37.63,32.5m-54.38-78.55-19,9.74m0,0,55,27.86m-55-27.86,35.79,36.31m-50.35-87.4-18.89,11.21m0,0,52.49,30.14m-52.49-30.14L512.32,793m-64-83,49.45,31.93m-49.45-31.93,30.56,43.14M823.2,972.63l-19.07,5.18m0,0,57-.15m-57,.15,38,4.77M784.27,964l-19.08,5.53m0,0,58,3.13m-58-3.13,38.94,8.31M744.6,951.53l-19.05,6m0,0L784.27,964m-58.72-6.46,39.64,12m-60.66-34.35-19,6.54m0,0,59.09,9.84m-59.09-9.84,40,15.82m-61.13-42.75-19,7.22m0,0,59.08,13.17M645.45,922l40.06,19.71m-60.85-51.4-18.89,8m0,0,58.65,16.44m-58.65-16.44L645.45,922m-59.71-60.21-18.8,9m0,0,57.72,19.54m-57.72-19.54,38.83,27.57m-57.66-69.05-18.67,10.09m0,0,56.3,22.41m-56.3-22.41,37.5,31.39M512.32,793l-18.55,11.35m0,0,54.34,25m-54.34-25,35.67,35.05m-50.57-86.28-18.41,12.76m0,0L512.32,793m-51.86-27.12,33.31,38.47m-63.75-80,48.85,28.81M430,724.27l30.44,41.57m343.67,212-18.54,6.61m0,0,56.49-1.84m-56.49,1.84,38,4.47M765.19,969.5l-18.54,7m0,0,57.48,1.31m-57.48-1.31,38.94,7.92m-60-26.91L707,965m0,0,58.18,4.52M707,965l39.64,11.52m-61.14-34.81L667,949.75m0,0,58.55,7.76M667,949.75,707,965m-61.56-43L627,930.73m0,0,58.53,11m-58.53-11,40,19m-61.23-51.43-18.4,9.58m0,0L645.45,922M587.37,907.9,627,930.73m-60-60-18.32,10.54m0,0,57.15,17m-57.15-17,38.75,26.61m-57.93-68.54L511.22,851m0,0,55.72,19.76M511.22,851l37.4,30.3m-54.85-77-18.11,12.85m0,0,53.78,22.2m-53.78-22.2L511.22,851m-50.76-85.15-18,14.22m0,0,51.31,24.25m-51.31-24.25,33.2,37.1M412.13,740l48.33,25.85M412.13,740l30.33,40.07M785.59,984.42l-18,8m0,0,56-3.5m-56,3.5,38,4.14m-58.88-20-18,8.38m0,0,57-.46m-57,.46,38.95,7.51M707,965l-18,8.89m0,0,57.69,2.63M689,973.87l39.64,11M667,949.75l-18,9.5m0,0L707,965m-58-5.73,40,14.62m-62-43.14-18,10.21m0,0,58,8.81m-58-8.81,40,18.31M587.37,907.9l-18,11m0,0L627,930.73m-57.57-11.79,39.57,22m-60.36-59.65-17.89,12m0,0,56.64,14.62m-56.64-14.62,38.68,25.66m-58.19-68-17.81,13.07m0,0,55.21,17.23m-55.21-17.23,37.32,29.22m-55.07-76.12-17.72,14.28m0,0L511.22,851m-53.28-19.55,35.47,32.62m-51-84-17.62,15.6m0,0,50.82,21.5m-50.82-21.5,33.1,35.78M394.59,757l47.87,23m-47.87-23,30.25,38.63M767.55,992.39,750,1001.66m0,0,55.54-5.13M750,1001.66l38,3.78m0,0,17.54-8.91M728.6,984.88,711,994.6m0,0,56.54-2.21M711,994.6l39,7.06m-61-27.79-17.6,10.25m0,0,57.24.76m-57.24-.76L711,994.6m-62-35.35-17.59,10.87m0,0L689,973.87m-57.59-3.75,40,14M609,940.94l-17.59,11.6m0,0L649,959.25m-57.57-6.71,40,17.58m-62-51.18-17.55,12.44m0,0L609,940.94m-57.12-9.56,39.53,21.16m-60.66-59.26-17.5,13.38m0,0,56.18,12.28m-56.18-12.28,38.63,24.72m-58.45-67.32L476,878.5m0,0,54.76,14.78M476,878.5l37.26,28.16m-55.29-75.22-17.36,15.62m0,0,52.83,17m-52.83-17L476,878.5m-51.13-82.84-17.3,16.9m0,0,50.4,18.88m-50.4-18.88,33,34.5m-63.22-71.73,47.48,20.33m-47.48-20.33,30.18,37.23M750,1001.66l-17.13,10.52m0,0,55.13-6.74m-55.13,6.74,38,3.39M711,994.6l-17.15,11m0,0,56.13-3.92m-56.13,3.92,39,6.6m-61.5-28.06-17.18,11.54m0,0L711,994.6m-56.83,1.06,39.68,9.92m-62.49-35.46-17.2,12.18m0,0,57.19,1.82"/><path class="cls-8" d="M614.17,982.3l40,13.36m-62.79-43.12L574.2,965.47m0,0,57.17,4.65m-57.17-4.65,40,16.83m-62.31-50.92-17.17,13.76m0,0,56.7,7.4m-56.7-7.4,39.51,20.33m-61-58.81-17.14,14.71m0,0,55.77,10m-55.77-10,38.6,23.77M476,878.5l-17.11,15.75m0,0,54.37,12.41m-54.37-12.41,37.23,27.12m-55.51-74.31L423.52,864m0,0L476,878.5M423.52,864l35.34,30.29m-51.32-81.69-17,18.16m0,0,50.05,16.34m-50.05-16.34,33,33.24m-63.13-69.14,47.15,17.74m-47.15-17.74,30.14,35.9m342.33,181.46-16.71,11.72m0,0,54.75-8.33m-54.75,8.33,38.08,3m-60.37-21.3-16.76,12.21m0,0,55.76-5.61m-55.76,5.61,39,6.11m-62-28.24-16.79,12.78m0,0,56.47-2.86m-56.47,2.86,39.71,9.35M614.17,982.3l-16.81,13.44m0,0,56.82-.08m-56.82.08,40,12.7m-63.19-43-16.83,14.19m0,0,56.8,2.64m-56.8-2.64,40,16.08m-62.67-50.6-16.84,15m0,0,56.35,5.29m-56.35-5.29,39.52,19.48m-61.28-58.29-16.83,16m0,0,55.43,7.8m-55.43-7.8,38.59,22.84m-59-65.93-16.8,17m0,0,54,10.11m-54-10.11,37.2,26.08M423.52,864l-16.79,18.13m0,0,52.13,12.16m-52.13-12.16,35.33,29.17m-51.53-80.54-16.75,19.34m0,0L423.52,864m-49.74-13.9,33,32m-63.08-66.64,46.88,15.27m-46.88-15.27,30.13,34.61M716.15,1023.9l-16.32,12.88m0,0,54.4-9.9m-54.4,9.9,38.14,2.54m-60.87-21.53-16.37,13.39m0,0,55.42-7.28m-55.42,7.28,39.1,5.6m-62.44-28.34-16.42,14m0,0,56.13-4.63M621,1022.42l39.76,8.76m-63.37-35.44-16.48,14.66m0,0,56.51-2m-56.51,2,40.09,12m-63.6-42.76-16.51,15.42m0,0,56.5.66m-56.5-.66,40,15.32m-63-50.22-16.53,16.26m0,0,56.05,3.22m-56.05-3.22,39.54,18.64m-61.6-57.74-16.55,17.21m0,0,55.14,5.63m-55.14-5.63,38.61,21.89m-59.26-65.18-16.55,18.22m0,0,53.75,7.86m-53.75-7.86,37.2,25.07m-56-72.46-16.54,19.33m0,0,51.87,9.84m-51.87-9.84,35.32,28.06m-51.73-79.42-16.55,20.51m0,0,49.5,11.52m-49.5-11.52,33,30.85m-63.08-64.21,46.67,12.85m-46.67-12.85,30.12,33.36m342.6,166.21-16,14m0,0L738,1039.32m-54.09,11.46,38.21,2.08m-61.36-21.68-16,14.54m0,0,55.12-8.94m-55.12,8.94,39.17,5.06M621,1022.42l-16.09,15.15m0,0,55.85-6.39m-55.85,6.39,39.83,8.15m-63.83-35.32-16.15,15.84m0,0,56.24-3.82m-56.24,3.82,40.15,11.33m-64-42.49-16.2,16.6m0,0,56.22-1.28m-56.22,1.28,40.07,14.56m-63.41-49.8L485.07,993.9m0,0,55.79,1.18m-55.79-1.18,39.59,17.78m-61.95-57.13-16.28,18.38m0,0,54.89,3.51m-54.89-3.51,38.64,21m-59.56-64.42-16.31,19.4m0,0,53.51,5.67m-53.51-5.67,37.23,24m-56.24-71.51L373.85,921.9m0,0,51.66,7.58m-51.66-7.58,35.35,27m-52-78.31L340.88,892.2m0,0,49.31,9.22m-49.31-9.22,33,29.7m-63.12-61.85,46.5,10.52m-46.5-10.52,30.15,32.15m343,158.58-15.61,15.09m0,0,53.82-13m-53.82,13,38.3,1.6m-61.86-21.75L629,1061.37m0,0,54.86-10.59M629,1061.37l39.25,4.5m-63.39-28.3-15.78,16.28m0,0,55.61-8.13m-55.61,8.13,39.92,7.52m-64.29-35.13-15.85,17m0,0,56-5.65m-56,5.65,40.22,10.63m-64.44-42.17-15.93,17.76m0,0,56-3.2m-56,3.2,40.15,13.78M485.07,993.9l-16,18.62m0,0,55.59-.84m-55.59.84,39.66,16.92m-62.3-56.51-16.06,19.55m0,0,54.7,1.42m-54.7-1.42,38.7,20M409.2,948.88l-16.11,20.55m0,0,53.34,3.5m-53.34-3.5,37.28,23.05M373.85,921.9,357.7,943.51m0,0,51.5,5.37m-51.5-5.37,35.39,25.92M340.88,892.2l-16.21,22.74m0,0,49.18,7m-49.18-7,33,28.57M294.48,884l46.4,8.24M294.48,884l30.19,31m343.6,150.93L653,1082m0,0,53.58-14.57M653,1082l38.4,1.09M629,1061.37l-15.39,16.74m0,0,54.64-12.24m-54.64,12.24L653,1082m-63.89-28.19-15.48,17.38m0,0,55.4-9.86m-55.4,9.86,40,6.88m-64.75-34.89-15.59,18.1m0,0,55.81-7.47m-55.81,7.47,40.33,9.91m-64.89-41.79-15.68,18.9m0,0,55.83-5.12m-55.83,5.12,40.24,13m-64.22-48.8-15.76,19.75m0,0,55.42-2.83m-55.42,2.83,39.74,16.07m-62.68-55.86-15.85,20.68m0,0,54.55-.64m-54.55.64,38.79,19.11m-60.22-62.84L377.16,991.1m0,0,53.21,1.38m-53.21-1.38,37.36,22.06M357.7,943.51l-16,22.72m0,0,51.4,3.2m-51.4-3.2,35.47,24.87m-52.49-76.16L308.6,938.76m0,0,49.1,4.75m-49.1-4.75,33.09,27.47m-63.37-57.3,46.35,6m-46.35-6,30.28,29.83M653,1082l-15,17.21m0,0,53.37-16.12M638,1099.25l38.51.56m0,0,14.86-16.68m-77.76-5-15.09,17.81m0,0L653,1082m-54.45,13.88,39.48,3.33m-64.4-28L558.4,1089.7m0,0,55.23-11.59M558.4,1089.7l40.14,6.22m-65.25-34.6L518,1080.52m0,0,55.66-9.29M518,1080.52l40.44,9.18m-65.35-41.36-15.46,20m0,0,55.7-7m-55.7,7L518,1080.52m-64.65-48.25-15.57,20.86m0,0,55.31-4.79m-55.31,4.79,39.85,15.21"/><path class="cls-8" d="M414.52,1013.16,398.84,1035m0,0,54.47-2.68M398.84,1035l38.9,18.18m-60.58-62-15.78,22.78m0,0,53.14-.72m-53.14.72L398.84,1035m-57.15-68.72-15.88,23.83m0,0,51.35,1m-51.35-1,35.57,23.82M308.6,938.76l-16,24.91m0,0,49.07,2.56m-49.07-2.56,33.19,26.39M262.25,935l46.35,3.81M262.25,935l30.37,28.72M638,1099.25l-14.68,18.24m0,0,53.19-17.68m-53.19,17.68H662m-63.44-21.58-14.82,18.85m0,0,54.3-15.52m-54.3,15.52,39.62,2.72M558.4,1089.7l-15,19.54m0,0,55.1-13.32m-55.1,13.32,40.28,5.53M518,1080.52l-15.11,20.29m0,0,55.55-11.11m-55.55,11.11,40.59,8.43m-65.85-40.9-15.24,21.09m0,0,55.61-8.91m-55.61,8.91,40.5,11.38m-65.11-47.68-15.39,22m0,0,55.24-6.76m-55.24,6.76,40,14.33M398.84,1035l-15.52,22.9m0,0,54.42-4.72m-54.42,4.72,39,17.25m-61-61.22-15.66,23.88m0,0,53.12-2.81m-53.12,2.81,37.6,20.09m-57.51-67.79L310,1015m0,0,51.35-1.08M310,1015l35.69,22.8m-53.1-74.09-15.91,26m0,0,49.1.42m-49.1-.42L310,1015M246.21,962l46.41,1.65M246.21,962l30.5,27.62m346.63,127.85-14.41,19.26m0,0L662,1117.5m-53.05,19.25,38.79-.56m-64-21.42-14.57,19.9m0,0,54.19-17.18m-54.19,17.18,39.78,2.08m-65.49-27.51-14.73,20.59m0,0,55-15.06m-55,15.06,40.44,4.84m-66.3-33.86L488,1122.17m0,0,55.48-12.93M488,1122.17l40.75,7.66m-66.36-40.4-15.07,22.18m0,0,55.57-10.8m-55.57,10.8L488,1122.17m-65.61-47.07-15.22,23.06m0,0,55.22-8.73m-55.22,8.73,40.15,13.45m-64-53.76-15.39,24m0,0,54.42-6.75m-54.42,6.75,39.2,16.31m-61.41-60.4-15.54,25m0,0,53.14-4.89m-53.14,4.89,37.75,19.11M310,1015l-15.7,26m0,0,51.39-3.2m-51.39,3.2,35.85,21.78m-53.47-73.1-15.85,27.05m0,0L310,1015m-49.17,1.73L294.33,1041M230.2,990.14l46.51-.5m-46.51.5,30.66,26.55m348.07,120.06L594.78,1157m0,0,52.94-20.83M594.78,1157l39-1.15m-64.58-21.2-14.33,20.92m0,0,54.11-18.84m-54.11,18.84,40,1.43m-66.07-27.19-14.51,21.65m0,0,54.95-16.81m-54.95,16.81,40.62,4.11M488,1122.17l-14.71,22.42m0,0,55.46-14.76m-55.46,14.76,41,6.89m-66.92-39.87-14.89,23.27m0,0L488,1122.17m-55.57,12.71,40.86,9.71m-66.12-46.43L392,1122.32m0,0,55.24-10.71M392,1122.32l40.35,12.56m-64.46-53-15.28,25.09m0,0,54.48-8.78m-54.48,8.78L392,1122.32m-61.86-59.58-15.47,26.07m0,0,53.22-7m-53.22,7,37.94,18.13m-58.32-66-15.65,27.09m0,0,51.5-5.31m-51.5,5.31,36,20.76m-53.85-72.12L245,1044.82m0,0,49.31-3.86M245,1044.82l33.66,23.23m-64.49-48.72,46.67-2.64m-46.67,2.64L245,1044.82M594.78,1157l-13.92,21.27m0,0,52.87-22.42m-52.87,22.42,39.15-1.77m-65.19-20.93-14.11,22m0,0L594.78,1157m-54.07,20.52,40.15.75m-66.66-26.81-14.32,22.69m0,0,54.94-18.58m-54.94,18.58,40.83,3.37m-67.46-33-14.53,23.49m0,0,55.48-16.6m-55.48,16.6,41.16,6.09m-67.49-39.29-14.75,24.34m0,0,55.61-14.63m-55.61,14.63,41.08,8.86M392,1122.32l-15,25.24m0,0,55.32-12.68m-55.32,12.68,40.57,11.66m-65-52.28-15.18,26.19m0,0L392,1122.32m-54.57,10.81,39.6,14.43m-62.36-58.75L299.3,1116m0,0,53.35-9m-53.35,9,38.17,17.14m-58.79-65.08-15.62,28.2m0,0,51.65-7.44m-51.65,7.44L299.3,1116M245,1044.82l-15.83,29.23m0,0,49.49-6m-49.49,6,33.87,22.2m-64.91-46.65,46.87-4.78m-46.87,4.78,31,24.45m351.67,104.24-13.68,22.27m0,0,52.83-24m-52.83,24,39.35-2.41m-65.82-20.61-13.9,23m0,0,54.05-22.22m-54.05,22.22,40.37,0m-67.3-26.39-14.14,23.73m0,0,55-20.36m-55,20.36,41.07,2.61m-68.09-32.43-14.38,24.55m0,0,55.54-18.46m-55.54,18.46,41.4,5.27m-68.1-38.68L403,1184.64m0,0,55.7-16.56M403,1184.64l41.32,8m-67.27-45.07L362.2,1173.9m0,0,55.44-14.68M362.2,1173.9,403,1184.64m-65.55-51.51-15.12,27.3m0,0,54.72-12.87m-54.72,12.87,39.85,13.47M299.3,1116l-15.36,28.29m0,0,53.53-11.15m-53.53,11.15,38.41,16.15m-59.29-64.18-15.62,29.31m0,0L299.3,1116m-51.86,9.57,36.5,18.72m-54.75-70.23-15.86,30.34m0,0,49.73-8.14m-49.73,8.14,34.11,21.17M182.05,1081l47.14-6.93M182.05,1081l31.28,23.41m353.85,96.17-13.47,23.27m0,0,52.82-25.68m-52.82,25.68,39.58-3.07m-66.48-20.25-13.72,24m0,0,54.09-24m-54.09,24,40.62-.68m-68-25.93-14,24.78m0,0,55-22.17m-55,22.17,41.32,1.83m-68.75-31.88-14.23,25.62m0,0,55.63-20.35m-55.63,20.35,41.66,4.43m-68.75-38-14.51,26.52m0,0,55.83-18.53m-55.83,18.53,41.6,7.09M362.2,1173.9l-14.79,27.45m0,0L403,1184.64m-55.61,16.71,41.1,9.81m-66.16-50.73-15.07,28.43m0,0,54.92-15m-54.92,15,40.13,12.49m-63.47-57.07-15.35,29.43m0,0,53.76-13.28m-53.76,13.28,38.69,15.15m-59.84-63.3L231.81,1156m0,0,52.13-11.72"/><path class="cls-8" d="M231.81,1156l36.78,17.71m-55.26-69.32-15.9,31.47m0,0,50-10.3m-50,10.3L231.81,1156m-65.93-42.52,47.45-9.09m-47.45,9.09,31.55,22.38m356.28,88-13.27,24.28m0,0,52.85-27.35m-52.85,27.35,39.82-3.76m-67.17-19.84-13.54,25m0,0,54.16-25.71m-54.16,25.71,40.89-1.43m-68.67-25.43L458,1248.53m0,0,55.14-24m-55.14,24,41.6,1m-69.44-31.29L416,1245m0,0,55.78-22.28M416,1245l42,3.57m-69.44-37.37-14.42,27.61m0,0,56-20.52m-56,20.52L416,1245m-68.58-43.61-14.72,28.58m0,0,55.82-18.77m-55.82,18.77,41.4,8.84m-66.81-49.91-15,29.56m0,0,55.17-17.07m-55.17,17.07,40.45,11.51m-64.1-56.22-15.35,30.57m0,0,54-15.42m-54,15.42,39,14.14M231.81,1156l-15.66,31.6m0,0,52.44-13.89m-52.44,13.89,37.09,16.68m-55.81-68.42-16,32.64m0,0,50.35-12.5m-50.35,12.5,34.69,19.1m-66.54-40.45,47.82-11.29m-47.82,11.29,31.85,21.35m359,79.61-13.09,25.29m0,0,52.91-29.05m-52.91,29.05,40.11-4.48m-67.91-19.38-13.37,26.08m0,0,54.26-27.51m-54.26,27.51,41.17-2.22M458,1248.53l-13.68,26.91m0,0,55.28-25.9m-55.28,25.9,41.91.18M416,1245l-14,27.8m0,0,56-24.23m-56,24.23,42.28,2.68m-70.18-36.67-14.34,28.74m0,0L416,1245m-56.24,22.55,42.24,5.25m-69.3-42.83L318,1259.64m0,0,56.08-20.87M318,1259.64l41.74,7.87m-67.51-49.09-15,30.72m0,0,55.48-19.21m-55.48,19.21,40.8,10.5m-64.77-55.36L237.86,1236m0,0,54.38-17.61M237.86,1236l39.35,13.11m-61.06-61.54-15.72,32.8m0,0,52.81-16.12m-52.81,16.12L237.86,1236m-56.4-67.53-16.06,33.84m0,0,50.75-14.74m-50.75,14.74,35,18.06M133.21,1182l48.25-13.51M133.21,1182l32.19,20.33m362,71.06-12.9,26.32m0,0,53-30.8m-53,30.8,40.4-5.23m-68.67-18.87L473,1302.75m0,0,54.39-29.35M473,1302.75l41.49-3m-70.18-24.28-13.56,28m0,0,55.47-27.81m-55.47,27.81,42.25-.68m-71-30-13.91,28.92m0,0,56.19-26.24m-56.19,26.24,42.63,1.75m-71-35.92-14.27,29.88m0,0L402,1272.76m-56.51,24.63,42.6,4.29m-70.07-42-14.66,30.88m0,0,56.4-23m-56.4,23,42.13,6.87m-68.27-48.25-15,31.91m0,0L318,1259.64m-55.83,21.41,41.17,9.47M237.86,1236l-15.42,33m0,0,54.77-19.85M222.44,1269l39.74,12.06m-61.75-60.65-15.8,34m0,0L237.86,1236m-53.23,18.38L222.44,1269m-57-66.65-16.18,35.06m0,0,51.21-17m-51.21,17,35.41,17m-68-36.29,48.74-15.78m-48.74,15.78,32.56,19.28m365.23,62.32-12.74,27.36m0,0,53.14-32.59m-53.14,32.59,40.72-6M473,1302.75,459.88,1331m0,0,54.57-31.23M459.88,1331l41.83-3.87m-71-23.65-13.45,29.1m0,0,55.7-29.78m-55.7,29.78,42.62-1.58m-71.8-29.27-13.83,30m0,0,56.46-28.3m-56.46,28.3,43,.8m-71.78-35.14-14.23,31m0,0,56.83-26.76m-56.83,26.76,43,3.29m-70.9-41.21-14.64,32.08m0,0,56.77-25.21m-56.77,25.21,42.54,5.84m-69.07-47.39-15.06,33.13m0,0,56.23-23.66m-56.23,23.66,41.59,8.42M222.44,1269,207,1303.19m0,0,55.22-22.14M207,1303.19l40.16,11m-62.49-59.77-15.9,35.28m0,0,53.71-20.7m-53.71,20.7,38.23,13.5m-57.74-65.79-16.32,36.35m0,0,51.73-19.34m-51.73,19.34,35.83,15.94m-68.79-34.18,49.28-18.11m-49.28,18.11,33,18.24m368.81,53.33-12.58,28.42m0,0,53.3-34.43m-53.3,34.43,41.06-6.83M459.88,1331l-13,29.29m0,0,54.79-33.16m-54.79,33.16,42.21-4.74m-71.87-23-13.35,30.23m0,0,56-31.81m-56,31.81,43-2.52m-72.67-28.51-13.77,31.21m0,0,56.78-30.41m-56.78,30.41,43.43-.18m-72.66-34.32-14.2,32.23m0,0,57.2-28.94m-57.2,28.94,43.43,2.27m-71.77-40.34-14.65,33.3m0,0,57.19-27.46m-57.19,27.46,43,4.77m-69.93-46.49L232,1348.57m0,0,56.69-26m-56.69,26,42,7.33M207,1303.19l-15.56,35.49m0,0,55.72-24.5m-55.72,24.5,40.62,9.89m-63.29-58.88-16,36.58m0,0L207,1303.19m-54.26,23.08,38.7,12.41m-58.5-64.93-16.48,37.67m0,0,52.31-21.73m-52.31,21.73,36.28,14.85m-69.69-32,49.89-20.5M83,1294.25l33.41,17.17m372.71,44.08L476.69,1385m0,0,53.5-36.32M476.69,1385l41.44-7.67m-71.21-17.08-12.83,30.41m0,0,55-35.15m-55,35.15,42.6-5.66m-72.78-22.23-13.26,31.38m0,0,56.27-33.9m-56.27,33.9,43.44-3.49m-73.61-27.71-13.71,32.4m0,0,57.14-32.58m-57.14,32.58,43.88-1.2m-73.6-33.47-14.19,33.47m0,0,57.62-31.2m-57.62,31.2,43.91,1.2m-72.71-39.44-14.67,34.56m0,0,57.66-29.79m-57.66,29.79,43.47,3.68M232,1348.57l-15.17,35.68m0,0,57.21-28.35m-57.21,28.35,42.54,6.21m-68-51.78-15.67,36.81m0,0L232,1348.57m-56.29,26.92,41.12,8.76m-64.15-58-16.17,38m0,0,54.87-25.54m-54.87,25.54,39.2,11.27m-59.31-64.07-16.67,39.06m0,0,52.95-24.21m-52.95,24.21,36.78,13.74m-70.67-29.83,50.56-23m-50.56,23,33.89,16.09M476.69,1385l-12.3,30.6m0,0,53.74-38.27"/><path class="cls-8" d="M464.39,1415.59l41.84-8.56m-72.14-16.38-12.73,31.55m0,0L476.69,1385m-55.33,37.21,43-6.61m-73.74-21.45-13.19,32.56m0,0,56.63-36m-56.63,36,43.9-4.5m-74.59-26.86L333.09,1429m0,0,57.56-34.83M333.09,1429l44.37-2.27m-74.6-32.56-14.19,34.73m0,0,58.1-33.53m-58.1,33.53,44.42.1m-73.7-38.51-14.71,35.87m0,0,58.18-32.19m-58.18,32.19,44,2.54m-71.82-44.62-15.25,37m0,0,57.79-30.82m-57.79,30.82,43.08,5m-69-50.84-15.8,38.2m0,0,56.92-29.44m-56.92,29.44,41.67,7.59m-65.07-57.06-16.34,39.35m0,0,55.54-28.08m-55.54,28.08,39.74,10.12m-60.18-63.21L82.86,1391m0,0,53.67-26.76M82.86,1391l37.33,12.59M48.45,1376l51.3-25.53M48.45,1376l34.41,15m381.53,24.61-12.17,31.72m0,0,54-40.28m-54,40.28,42.27-9.49m-73.13-15.62-12.64,32.72m0,0,55.67-39.33m-55.67,39.33,43.5-7.61m-74.76-20.61-13.13,33.78m0,0,57-38.28m-57,38.28,44.39-5.56m-75.63-26-13.66,34.88m0,0,58-37.15m-58,37.15,44.9-3.37m-75.66-31.61-14.2,36m0,0L333.09,1429m-58.62,35.94,45-1.06m-74.75-37.52-14.77,37.22m0,0,58.76-34.68m-58.76,34.68,44.56,1.36m-72.87-43.63-15.36,38.43m0,0,58.44-33.38m-58.44,33.38,43.67,3.84m-70-49.86-16,39.64m0,0,57.62-32m-57.62,32,42.26,6.38m-66.05-56.14-16.54,40.84m0,0,56.28-30.72m-56.28,30.72,40.33,8.92M82.86,1391l-17.12,42m0,0,54.45-29.43M65.74,1433l37.91,11.41m-72.9-25.24L82.86,1391m-52.11,28.19,35,13.83m386.48,14.31-9.58,26.16m6.16,0,45.69-35.65m-26.83,35.65,15.24-3.74m-74.18-14.81-6.86,18.55m15.07,0,35.29-26.16m-87.89,13.17-4.85,13m23,0,26.26-18.55m-89.29,8.93-3.62,9.62m29.31,0,19.21-13m-89.86,4.43-3.25,8.56m33.42,0,14.79-9.62m-89.52-.3-3.81,9.92m34.74,0,13.63-8.56m-88.23-5.2-5.34,13.76m32.74,0,16.27-9.92M144,1453.33l-7.89,20.14m27,0,23.11-13.76m-82.59-15.3-11.49,29.06m17.47,0L144,1453.33M65.74,1433,49.6,1473.47m4.14,0,49.91-29.06M12.73,1464l53-31m-53,31,26.77,9.51m438.81,0,4.59-3.74m-1.3,3.74,1.3-3.74M12.73,1464,9,1473.47M890.72,949.2l-.08.16m0,0,0,.11m-1.72,3.62,0,.09M886,951.49l0-.09m.75-5.49v-.12m0,0,0-.15M899.3,957l-.11.23m0,0-.08.17m-5.56-1.4,0-.13m.51-3.17,0-.17m0,0,0-.23m6.65,6.66,0-.21m0,0,.06-.3m348,515L1201,1378.05m0,0-84.74-157.89m0,0-71.68-123.89m0,0L982.7,997.89m0,0-54.11-78.46m0,0-48-62.85m0,0L837.4,806.19m0,0L798.27,766m0,0-35.81-31.75m0,0-33-24.73m0,0-30.7-18.81m0,0L670,677m0,0-27-9.4m0,0-25.51-5.63m-22.22-2.14-2-.2m0,0-16.08.4m0,0-7,.18m0,0-17.25,2.47m0,0-4.89.7m-21.27,5.48-6.1,2.25m-14.43,5.34-15.67,7.48m0,0-4.18,2m0,0-13.42,7.82m-5.85,3.41-7.41,5.07m0,0-11.34,7.76M435.41,720l-5.4,4.23m0,0-6.67,5.86m0,0L412.12,740m0,0-2.39,2.33M394.58,757l-2.06,2.2m-15.17,16.1-8.09,9.3m0,0-8.87,10.18m0,0-2.32,2.86m0,0-14.42,17.78m-9.84,12.95-6.7,8.81m0,0-11.56,16.12m0,0-4.82,6.72m-48.45,74.84.08-.12M252.17,952l-6,10M235,981.75l-4.78,8.39m-15.92,29-.09.16m59.43-102.79,27.64-58.08m-30.47,62.66,13.4-30.49m-85,157-1.06,2M267,927.32l17.23-36.69m-21.9,44.25,4.9-11.16M184,1077.19l-1.94,3.79m85.14-157.26L258.09,942m-4.6,7.76,28.69-70.23m-30,72.47,12.77-37.8M261,937l6.17-13.3M166.93,1111.38l-1.05,2.1m78.37-148,20.69-51.3M239.79,973.3l7.91-23.51m-96.19,193.42-1.9,3.94M235,981.75l12.72-32m-20.06,45,2.81-8.39m-96.51,194-.73,1.56m97.24-195.59-9.14,19.93m-5.53,10.08,23.66-69.34m-25.16,72.08,7.64-33.85m4,12.61,4.52-11.51M133.21,1182l-8,17.37m0,0-8.59,18.74M204,1038.59l17.94-53.27m-22.71,62.27,5.13-23m-94,207.68-10.37,23.2m92.21-194.22,12.19-36.66M184,1077.19l2.67-12.11m-91.6,201.6-12,27.57m97.26-209.69,6.39-19.48m-18.08,43,.28-1.32M79.05,1303.53,65.86,1334.4m103-227.66-1.93,4.64m-12.67,26.13,18-65.18m-20.72,70.88,2.54-27.44m14.12-6.9.69-2.13M59.16,1350.39,48.44,1376m91.45-208.21,14.16-52m-20.11,64.68,1.74-19.89M38.82,1399.48l-8.07,19.69m94.5-219.79,10.43-38.82M18,1450.91l-5.25,13m85.06-203.53.44-5.86m0,0-16.84,43.48m-2.06,4.82,16.87-78m-17.15,78.68-2.28-28.73m18.29-8.12,3.17-12.11m-36.08,88.69,14.62-68.46m-17.61,75.59L57,1326.52m-12.45,59,12.45-59m-18.16,73-2-19.34m-10.37,49.72,10.37-49.72M18,1450.91,16.2,1435.8m880-481.64-.13.17m0,0-.1.12m-4.2-4.32-.07.16m0,0-.06.12m-1.54,3.39,0,.09"/><path class="cls-8" d="M886.17,945.06l-.08.09M663.45,1115.72l-9.78,12.73m0,0-5.84,7.59M883.66,942.77l0,.08m6.39,5.69-.16.07m0,0-.11,0M885,950.79l-.09,0m12.25,4.25-.11.19m0,0-.09.14m5.09,4.12-.28.11m0,0-.2.07m25.73,23.52-.07.12m112,150.76-23.91-36.39m-35.87-50L944.23,1003M939.81,998l1.36,1.27m0,0,.25.23m-1.61-1.5-13.16-13.53m3.41,2.21,1.28,1.25m0,0,1.63,1.58m-5.6-6.37.19.18m1.59,1.83-1-1m0,0-.86-.78m-3.94-4.57.53.43m0,0,.63.52m-2.89-3,.4.3m0,0,.48.37m4.85,5.78,1.05,1M896,956.69l-13.61-10.94m37.41,29,.39.3m0,0,.46.36M918,972.6l.33.25m0,0,.4.3m.51.59-.36-.25m0,0-.3-.21m-2.45-3,.27.17m-11.52-7.78.68.41m8.9,5.38.19.11m0,0,.23.14m-8.17-4.26,1.58,1.15m0,0,.31.23m9.67,7,.32.23m0,0,.38.28m-3.8-4.35-.23-.14m0,0-.19-.11m-.88-1,.15.08m0,0,.19.1m-.8-.71.14.07m0,0,.17.08m-7.52-3.82.48.29m7.91,4.75.19.11m0,0,.22.14m-19.25-11.47.7.42m5.68,4-.36-.18m0,0-20.63-10.31M905.18,963l.37.18m7.32,3.54.14.06m0,0,.16.08m-8-4.08.61.29m6.62,3.13.13.06m0,0,.15.08m.79.9-.15-.06m0,0-.13,0m-1-1.21.11,0m0,0,.12.05m-6.56-2.5.11,0m6.8,3,.13.06m0,0,.15.07M595.26,659.78l-2-.2M913.55,967.25l-.14,0m0,0-.11,0M593.24,659.58l-16.08.4m0,0-7,.18M913.5,967.4l.11,0m0,0,.12,0m-.05.15.11,0m0,0,.12,0M570.12,660.16l-17.25,2.47m0,0-4.88.7m367.34,306-.13,0m0,0-.1,0m0,0,.11,0m0,0,.12,0m-.23,0,.11,0m0,0,.12,0m-1.08-1,.11,0m0,0,.13,0m1.55,1.91h.13m.65,1,.13,0m0,0,.14,0m-410.5-295-.41.15M917.1,971.59h.12m0,0h.14m-16.34.68,4.41-.06m12.09-.16h.11m0,0h.13M506.18,676.4l-15.67,7.48m0,0-4.18,2M880.78,974.2l5.39-.51m0,0,14.85-1.4M486.33,685.88l-13.42,7.82m388.24,284,.93-.17m-395-280.38-7.41,5.07m0,0-11.34,7.76M842.08,982.58,861,977.7m0,0,.15,0M435.41,720,430,724.27M823.55,988.89l14-4.76m0,0,4.55-1.55M430,724.27l-6.68,5.87m0,0L412.13,740m393.4,256.54.16-.06M412.13,740l-2.4,2.33M394.59,757l-2.08,2.2M770.9,1015.57l15.71-9.31m0,0,1.38-.82M377.36,775.33l-8.1,9.29m0,0-8.87,10.2m393.84,232.06,5.69-3.86M360.39,794.82l-2.32,2.85m0,0-14.42,17.78M738,1039.32l11.06-8.46m0,0,5.2-4M333.81,828.4l-6.7,8.81m395,215.65,10.49-8.95m0,0,5.39-4.59M327.11,837.21l-11.56,16.12m0,0-4.82,6.72m395.84,207.42,9.5-9m0,0,6-5.66m-30.7,30.27,3.93-4.06M662,1117.5l1.47-1.78m-9.88,12.81,8.41-11m-28.24,38.35,14-19.66M620,1176.51l13.72-20.64m-27.2,42.28L620,1176.52m-26.72,44.24,13.24-22.61m-26.26,46.2,13-23.59m-25.83,48.16,12.8-24.57m-25.41,50.14,12.61-25.57m-25,52.15,12.42-26.58m-438.19-76.37L99.94,1255.5m430.25,93.17,12.24-27.6m-24.3,56.25,12.06-28.65m-24,58.35,11.9-29.7m-23.64,60.5L506.23,1407m-23.33,62.7,11.59-31.91M927.37,983.1l-.07.12m0,0-.07.12M617.48,661.92l-3.72-.36m0,0-18.5-1.78m-88.67,16.47-.41.15m-33.27,17.3-5,2.93m0,0-.82.48m-18.75,12.83-2.81,2.19m0,0L435.41,720m-25.68,22.28-8.35,8.12m0,0-6.8,6.59m-2.06,2.2-12.91,13.7m0,0-2.26,2.4m-40.62,49.22-2.92,3.85m-23.08,31.65-9.24,13.59m0,0-4.95,7.28m0,0-1.85,2.73m0,0-.22.31m-11,17-1.37,2.1m-1.56,2.42-2.26,3.49m0,0,2.39-3.8M267,927.32l-4.67,7.56m-8.8,14.85L252.17,952M239.79,973.3,235,981.75m-19.2,34.68-1.5,2.74m-.09.16L204,1038.59m0,0-4.77,9m-1.06,2-6,11.69m0,0-8.16,15.9m-15.82,31.68-1.24,2.51m-1.05,2.1-11.62,24m0,0-2.75,5.7m-1.9,3.94-9.72,20.65m0,0-5.95,12.65m-17.28,37.67-.61,1.36m0,0-5.74,12.83m-10.37,23.2-2.15,4.92m0,0-2.73,6.25m-15.73,36.19-.28.66M65.86,1334.4l-3.71,8.86m0,0-3,7.13M48.44,1376l-3.91,9.54m0,0-5.71,13.93m-8.07,19.69-4.31,10.69m0,0L18,1450.91M926.65,984.43l-1.64,3m0,0-11.73,23m0,0L902,1034.25m0,0L891,1058.73m0,0-10.54,25.2m0,0-10.14,26m0,0-9.76,26.7m0,0-9.38,27.47m0,0-9,28.25"/><path class="cls-8" d="M842.19,1192.33l-8.62,29.05m0,0-8.24,29.88m0,0L817.47,1282m0,0L810,1313.64m0,0-7.08,32.51m0,0-6.69,33.44m0,0L789.92,1414m0,0L784,1449.45m231.25-351.73-3.64-5.55m0,0L989.16,1058M944.23,1003l-2.15-2.74m-3.17-4-5.94-6.8m8.2,9.76.72.83m-42.78-42.64,1.68,1.56m3.29,4.19L896,956.69m8.46,5.71.4.31m0,0,.32.24m-5.37-2.75-3.38-2.36m0,0-.67-.47M916,970.22l.15.1m-10.53-7.18.86.52M880.28,948l-1.66-1m0,0,1.65,1m25.27,15.18.33.19m0,0,.33.2m-11.86-7,1.41.86m9.85,5.72.67.32m-1.85-1.11.63.3m0,0,.17.08m.76.77.22.1m0,0,.35.16m-289-301.84-3.72-.36m0,0-18.5-1.78M916,970.22H916m-10.61,2,4.27-.06m0,0,4.95-.07M472.91,693.7l-5,2.93m0,0-.82.48m395,280.38,1-.17m0,0,17.69-3.12M448.31,709.94l-2.81,2.2m0,0L435.41,720M805.69,996.47l6.57-2.79M409.73,742.32l-8.35,8.12m0,0L394.59,757m-2.08,2.2-12.9,13.7m0,0-2.25,2.4M759.92,1023l10-6.76m0,0,1-.69m-434.17-191-2.92,3.84m-23.08,31.65-9.23,13.58m0,0-5,7.31m0,0-1.86,2.74m0,0-.19.28m400.84,195.11,9.19-9.47m0,0,2.06-2.13M285.45,897.92l-1.27,2m-5.86,9-4.7,7.62m389.83,199.17,12.19-14.83m0,0,.89-1.08M647.83,1136l5.74-7.51M246.21,962l-2,3.46m-30.06,53.85L204,1038.59m-20,38.61-1.93,3.76m-15.14,30.44-1,2.06m0,0-11.62,24m-4.65,9.63-9.72,20.66m-6.68,14.2-8,17.37m0,0-8.58,18.72m-16.73,37.41-2.15,4.92M83,1294.25l-1.64,3.84M59.16,1350.4,48.45,1376m0,0-3.92,9.55M18,1450.91l-5.24,13M520.61,671.06l-14,5.19M343.65,815.45,341.71,818m0,0-5,6.54m-52.54,75.31-.68,1.06m-1.37,2.1-1.21,1.87m0,0-.35.55m.13-.31.44-.69m0,0,1.66-2.64m0,0,1.51-2.38m0,0,.73-1.16m0,0,3-4.74m-17.25,27.6-3.83,6.2M258.09,942l-4.6,7.76M246.21,962l-2,3.45m0,0-4.46,7.83m-18.48,33.05-5.53,10.08m-47.2,91.63-.41.81M83,1294.25l-1.62,3.8m0,0-2.06,4.82m848-319.77-.07.12m14.12,16.24-2.51-3.19m-11.35-13-.18-.2M904.2,956.55l-2.45-2.8m0,0-.29-.34m29.88,34.48,9.83,11.34m-13.93-15.87,2.82,3.28m0,0L939.81,998m-14.23-16.52.88.82m0,0,.91.84M905.3,962.5l-3.25-3m0,0-1.16-1.06m0,0L899.3,957m-22.13-20.16L873,933m0,0,4.19,3.87m22,20.36,1.64,1.52m0,0,.94.87m0,0,3.26,3m21.38,19.74.86.8M900.79,959l.78.73m3,3.83-.46-.37m2.07.51.18.14m0,0,.2.15m-2.45-.8-2-1.37m0,0-2.3-1.6m-4-2.83-.29-.2M876.3,945.61,875,944.8m0,0-2.66-1.58m-.45-.25.44.27m0,0,2.72,1.63M526.71,668.81l-6.1,2.25m0,0-14,5.19M812.26,993.68l6.13-2.6m0,0,5.16-2.19M343.65,815.45,341.71,818m0,0-5,6.55M294.48,884l-3,4.65m0,0-.71,1.1m0,0L290,891m-16.33,25.6-2.83,4.57M258.08,942l-4.59,7.75m0,0L252.16,952m0,0-5.91,10m401.48,174.21.1-.13M244.25,965.48l-4.46,7.83m-9.59,16.83-2.56,4.68m-11.86,21.61-1.51,2.75m0,0-.07.12M204,1038.59l-4.77,9m0,0-1.05,2m0,0-6,11.69m0,0L184,1077.2m-29.73,60.32-2.75,5.7m0,0-1.89,3.91m-9.73,20.68-5.95,12.64m0,0-.72,1.55m-35.43,78.43-2.74,6.26m0,0-12,27.55m-1.65,3.85-2.05,4.79m-13.46,31.51-3.71,8.88m0,0-3,7.13m-14.63,35.16-5.71,13.92m0,0-8.07,19.68m0,0-4.31,10.7m0,0-8.46,21M285.5,897.84l-1.31,2m-5.87,9.07-4.7,7.61m0,0-2.83,4.58M262.24,935,261,937m0,0-2.93,5m-32.16,56-4.62,8.42M182.05,1081l-1.78,3.58m0,0-11.69,23.5m773.5-107.77-.19-.23m0,0-.47-.6m-8.45-10-3.82-4.36M908.94,962l-2.27-2.59m-5.21-6,.29.34m25.55,29.48.8.91m0,0,3.24,3.75m-29.88-34.48.29.34m0,0,2.47,2.87m2.22,7-.19-.2m-14.52-13.33-1-.93M879.43,939l2.07,1.91m9.14,8.45,1,.93M873,933l4.17,3.89m0,0,1.71,1.59m.57.54,2.06,1.92m9.12,8.51,1,.94m13.12,13.28-.18-.15m.64-.59.34.26m1,.76.16.12m0,0,.61.46m-11.83-7.38-1.06-.74m0,0-.38-.26m-4-2.37-1.19-.71M878.62,947l-.7-.41m0,0-1.62-1m-4-2.39-.43-.26m-2.68-1.58,2.66,1.59m3.16,1.9,1.29.78m12.54,7.53,1.19.71m-12.11-7.24.67.41m0,0,1.65,1M290,891l-3.35,5.18m0,0-1.15,1.79"/><path class="cls-8" d="M284.18,899.88l-.68,1m0,0L282.13,903m0,0-1.2,1.86m-10.14,16.22L267,927.33m0,0-4.59,7.44m-.11.18L261,937m0,0-2.93,5m-18.29,31.32L235,981.76m0,0-4.74,8.34m-8.93,16.27-5.52,10.06M182.05,1081l-1.79,3.59m0,0-11.68,23.49m0,0-.41.82m0,0-1.25,2.52m-87.6,191.48-.27.65m0,0-13.19,30.85M286.61,896.12l-1.11,1.72m2.54-4.32,3.64-5.78m0,0,2.32-3.68m9.15-14.53,13.93-22.1M230.2,990.14l-2.56,4.67m0,0-1.71,3.12m703.22-12.82-.8-.92m0,0-.79-.91m-20.89-23.9-1-1.21m0,0-1.42-1.62m-2.45-2.8,2.46,2.84m2.43,2.85,2.25,2.6M907,964.19l-.3-.3m0,0-.13-.13m0,0-.09-.1m-.19-.2-.44-.44m0,0-.49-.51m-14.6-13.31-.72-.66m-3.83-3.48-2.51-2.29m0,0-2.13-1.94m0,0-2-1.87m0,0-.61-.55m0,0-1.68-1.53m4.33,4,2.11,1.94m0,0,2.48,2.3m3.75,3.46.8.75M906,963.5l.19.18m0,0,2.12,2m0,0,.9.83m-30.33-28,.54.51m6.66,6.21.74.69m0,0,3,2.75m0,0,.86.81m1,.94,2.48,2.31m7.49,7,2.83,2.64m1.12.86.33.24m0,0,.3.23M894,956.17l-.46-.28m0,0-3.51-2.09m-1.19-.71L886,951.4m0,0-1-.61m0,0-2.22-1.33m0,0-2.5-1.48m-8.42-5-2.68-1.59m-2.49-1.49,1.12.68m0,0,1.37.82m7.11,4.27,1.62,1m0,0,.69.41m1.65,1,2.49,1.49m0,0,2.17,1.31m0,0,1.1.66m0,0,2.82,1.69m5.53,3.32,1.11.67M280.93,904.9l-.35.55m0,0-2.26,3.48m-50.68,85.89-1.72,3.12m0,0-4.62,8.43M290,890.94l-3.35,5.18M294,884.06l8.3-13.17m0,0,.85-1.36M912.41,966l-3.47-4m-4.72-5.35,1.35,1.57m0,0,1.07,1.25m16.66,19.35,2.28,2.65m0,0,.83.95m0,0,.82,1M899.3,957l-2.14-1.94m0,0-1-.92m0,0-2-1.84m0,0-2.41-2.19M890,948.54l-3.19-2.9m0,0-.64-.58m-9-8.17,1.69,1.56m0,0,.58.54m6.67,6.16.7.64m0,0,3.05,2.82m1.82,1.68,2.45,2.26m0,0,1.92,1.78m0,0,1,.94m0,0,2.14,2m6.66,6.15.11.1M881.47,941l2.1,1.95m0,0,2.47,2.31m8,7.5,1.85,1.73m8.53,7.95,2.23,2.09m0,0,.52.48m0,0,1.65,1.54m-1.32-.55-.38-.31m0,0-.77-.62m-37.21-23.66-1.36-.82m0,0-1.13-.67m23.33,14,3.53,2.13m0,0,.81.48M875,944.91l1.25.76m0,0,1.64,1m8.1,4.9,2.79,1.68m0,0L890,954M290.82,889.62l-.86,1.32m630.69,84.44-1.43-1.64m0,0-.27-.31m0,0-.24-.28m-12.05-13.74,2.25,2.6m12.66,14.76,1.73,2m-16-14.24-.29-.3m-2-1.6.51.47m-9.61-8.67,1,1m0,0,2.15,2m9.75,9.09.87.81m-2-1.19-.22-.17m-1.15-.93-.62-.5m0,0-1-.84m-38-23.81,1.12.68m0,0,1.37.83m3.09,1.86,2.75,1.66m5.21,3.15,2.48,1.5M890,954l3.55,2.14m0,0,.78.47M294.47,884l-3,4.63m0,0-.66,1m631.63,87.82-1.8-2.06m-3.56-4.08-.71-.81m0,0-.21-.25m-12-13.65,1.38,1.59m0,0,1.07,1.23m11.65,13.44.26.3m0,0,.29.34m.94,1.23,1.77,2m-13-10.9-1.28-1.32m-1.75-1.42.3.27m3.88,3.92,1.45,1.35m-2.12-1.49-1.3-1m-38.58-24.74,2.64,1.59m0,0,.45.27m10.44,6.31,2.15,1.29m0,0,1.15.7m41.37,31.53-2.92-3.34m0,0-2-2.3m-5.09-5.83-.27-.31m-4.38-5-.3-.34m-3.5-3.94,3.38,3.89m6.57,7.59,1.33,1.53m-11-8.55-.59-.6m2.29,2.76-1.81-1.45m9.65,6-1-1.09m0,0-.4-.45m-5.07-5.71.27.31m7.63,8.81,1.78,2.05m-3.41-3.79,1.24,1.44m-6.63-7.91-.13-.14m0,0-.33-.38M922,977.07l1.86,2.15M908.89,962l3.29,3.83m0,0,.25.28M918,972.6l.27.32m0,0,.31.36m8.09,11.15L914.8,972.25m-3.62-3.58,1.21,1.13m0,0,.25.24m.86-2.85-.33-.38m2.87,3.42.07.09m0,0,.84,1m6.88,7.94,2.63,3m0,0,.81.93M912.7,970.1l-.38-.31m0,0-1.45-1.16m2.83-1.21-.15-.17m3.4,4,.27.32m-1.3-1.38.9,1m-6.87-4-.71-.72m5,1.43-.28-.32m0,0-.18-.2m-1.17-1.25.33.39m0,0,.12.13m0,0,.34.4m3.87,4.47.41.46m0,0,.68.79m-4.46-5.05.4.47m0,0,.19.23m0,0,.13.14m0,0,.16.19m0,0,.37.42m1.72,2,.28.33m-3.76-.84-.64-.65m2.16-1.35-.37-.43"/><path class="cls-8" d="M914.49,968.32l-.3-.34m-.51-.37.17.19m3.25,3.79.42.48m0,0,.46.53m-4.11-1.3-.53-.55m-2-2-1.27-1.31m0,0-.12-.12m5.38,2-.18-.21m0,0-.17-.19m0,0-.12-.14m-1.33-1.41.08.09m0,0,.18.2m-1.36-1.48.33.39m0,0,.11.13m0,0,.35.41m.17.19.11.13m0,0,.18.21m1.42,1.64.79.92m-1.09,2.08-.15-.15m0,0-.78-.8m-.46-4.1.12.14m.26.29.21.25m-.78-.8.08.09m0,0,.09.1m-.75,2.77-.23-.24m0,0-1.07-1.1m4.83,1.54-.84-1M914,967.88l.36.41m0,0,.27.32m0,0,.13.14m0,0,.16.19m0,0,.28.33m0,0,.83,1"/></g></g></svg>