<svg id="Layer_1" data-name="Layer 1" xmlns="http://www.w3.org/2000/svg" xmlns:xlink="http://www.w3.org/1999/xlink" viewBox="0 0 1919 3734"><defs><style>.cls-1{fill:none;}.cls-2{fill:#006978;opacity:0.46;}.cls-3{clip-path:url(#clip-path);}.cls-4{opacity:0.08;}.cls-5{fill:#fff;stroke:#fff;stroke-miterlimit:10;}</style><clipPath id="clip-path"><rect class="cls-1" x="0.38" width="1918.25" height="3734"/></clipPath></defs><rect x="1" y="0.32" width="1917" height="3733.68"/><rect class="cls-2" x="0.69" width="1917.63" height="3734"/><g class="cls-3"><g class="cls-4"><path class="cls-5" d="M774,2822.61l-3.14,5.81m0,0L748.36,2873m0,0-21.75,45.89m0,0-21,47.28m0,0-20.24,48.69m0,0-19.5,50.12m0,0-18.75,51.57m0,0-18,53.06m0,0-17.29,54.59m0,0-16.56,56.13m0,0L579.42,3338m0,0-15.1,59.38m0,0L550,3458.47m0,0-13.61,62.82m0,0-12.86,64.61m0,0-12.09,66.48m0,0-11.32,68.41m0,0-6.92,46.37M249.48,3100.92l.19-.15M4889.56,3700l-75.08,67.18m75.08-1437.4-256-113.9m0,0,256-24.47m-256,24.47,256-264m0,1416.38-828-540.33m0,0,828-9.37m-828,9.37,572-612m-683.66,1551.3-404.27-364.58m0,0,1344,91m-1344-91,515.93-574.71m-829.65,939.29,313.72-364.58m1344-2793.79L4748,598m0,0,141.56-54.68M4748,598l141.56-180.29m0,1011.13-666.8-159.16m0,0,666.8-198.43m-666.8,198.43L4748,598M4633.54,2215.86l-866.87-360.25m0,0,1122.89-240.35M3766.67,1855.61l456.09-585.95M4061.54,2827.87l-709.09-437.36m0,0,1281.09-174.65M3352.45,2390.51l414.22-534.9m-221.06,1547-585.73-502.35m0,0,1101.66-72.36m-1101.66,72.36,392.57-509.72M2881.53,3767.16,2572,3406.7m0,0,973.59-4.12M2572,3406.7l387.86-506.47m-662.37,866.93L2572,3406.7M4748,598l-897.36-46.83m0,0L4889.56,34.36M3850.64,551.15,4252.08-82.53m-29.32,1352.19-735.91-154.43m0,0L4748,598M3486.85,1115.23l363.79-564.08m-84,1304.46-613.1-233.72m0,0,1069.19-352.23M3153.57,1621.89l333.28-506.66m-134.4,1275.28-515.81-296.9m0,0,930-238m-930,238,316.93-471.72M2959.88,2900.23l-435.62-351.8m0,0,828.19-157.92m-828.19,157.92,312.38-454.82M2572,3406.7l-366.7-404.15m0,0,754.56-102.32m-754.56,102.32,318.94-454.12M2063.47,3767.16l-195.53-294.65m0,0L2572,3406.7m-704.08,65.81,337.38-470M1652,3767.16l216-294.65m2244.11-3555L3505.57-8.18m0,0,105.57-74.35M3505.57-8.18l38-74.35m307.11,633.68-633.23-15m0,0L4233.31-82.53M3217.41,536.11,3505.57-8.18m-18.72,1123.41-536.26-94.7m0,0,900-469.38m-900,469.38,266.82-484.42m-63.84,1085.78L2695.2,1465m0,0,791.65-349.79M2695.2,1465l255.39-444.49m-114,1073.08-393.71-208.49m0,0,710.64-263.23m-710.64,263.23L2695.2,1465M2524.26,2548.43,2186.09,2294m0,0,650.55-200.42M2186.09,2294l256.84-408.91M2205.32,3002.55,1916.7,2704.18m0,0,607.56-155.75M1916.7,2704.18,2186.09,2294M1867.94,3472.51l-242.41-343.85m0,0,579.79-126.11m-579.79,126.11,291.17-424.48M1301,3582.76l567-110.25m-567,110.25,324.58-454.1M3505.57-8.18,2955.8,74.66m0,0L3147.69-82.53M2955.8,74.66,3023-82.53m194.39,618.64-472.58,4.09m0,0L3505.57-8.18M2744.83,540.2l211-465.54m-5.21,945.87-409.73-57m0,0,676.55-427.37M2540.86,963.48l204-423.28M2695.2,1465l-357.08-106.78m0,0,612.47-337.71m-612.47,337.71,202.74-394.76m-97.93,921.64L2131.26,1735.8m0,0L2695.2,1465M2131.26,1735.8l206.86-377.56m-152,935.79L1914.77,2106.2m0,0,528.16-221.08M1914.77,2106.2l216.49-370.4M1916.7,2704.18l-234.21-224.92m0,0L2186.09,2294m-503.6,185.23,232.28-373.06M1625.53,3128.66l-198.65-263.07m0,0,489.82-161.41m-489.82,161.41,255.61-386.33m-544.37,798.48,487.41-149.08m-487.41,149.08,288.76-412.15M2955.8,74.66,2537.34,151m0,0,249.48-233.5M2537.34,151l84.93-233.5M2744.83,540.2l-367.59,16.43m0,0,578.56-482m-578.56,482L2537.34,151m3.52,812.51-324.51-31.87m0,0L2744.83,540.2M2216.35,931.61l160.89-375m-39.12,801.61L2051,1285.88m0,0,489.86-322.4M2051,1285.88l165.35-354.27m-85.09,804.19L1877.39,1628m0,0,460.73-269.74M1877.39,1628,2051,1285.88M1914.77,2106.2l-223.44-140.38m0,0,439.93-230m-439.93,230L1877.39,1628m-194.9,851.28-194.74-171.88m0,0,427-201.18m-427,201.18,203.58-341.56m-264.45,899.77-166.6-204.19m0,0,422.21-182.14M1260.28,2661.4l227.47-354m-487.35,731,426.48-172.8m-426.48,172.8,259.88-377M2537.34,151,2206.9,222.8m0,0L2496.43-82.53M2206.9,222.8l95.47-305.33m74.87,639.16-295.19,24.82m0,0L2537.34,151M2082.05,581.45,2206.9,222.8m9.45,708.81L1952,917.39m0,0,425.24-360.76M1952,917.39l130.05-335.94M2051,1285.88l-236.8-47.75m0,0,402.15-306.52M1814.2,1238.13,1952,917.39M1877.39,1628l-211.6-77.62m0,0L2051,1285.88m-385.21,264.48,148.41-312.23m-122.87,727.69-188-105.37m0,0L1877.39,1628m-374.06,232.47,162.46-310.09m-178,757L1322.53,2175m0,0,368.8-209.19M1322.53,2175l180.8-314.56m-243,801-142.45-160m0,0,369.92-194m-369.92,194,204.7-326.4M881.68,2848.56l378.6-187.16m-378.6,187.16,236.15-347.15M2107.77-82.53l-76.11,29.26m0,0,22.39-29.26m-22.39,29.26,6.88-29.26M2206.9,222.8l-268.57,68.59m0,0L2256.58-82.53M1938.33,291.39l93.33-344.66m50.39,634.72-243.17,30.76m0,0,368-389.41m-368,389.41,99.45-320.82m13.67,626L1731.69,916m0,0,350.36-334.55M1731.69,916l107.19-303.79m-24.68,625.92-199.36-29.54m0,0L1952,917.39m-337.16,291.2L1731.69,916m-65.9,634.36-179.77-55m0,0,328.18-257.24M1486,1495.37l128.82-286.78m-111.51,651.86-161-78.85m0,0,323.46-231.24M1342.33,1781.6,1486,1495.37M1322.53,2175,1180,2072.84m0,0,323.34-212.39M1180,2072.84l162.34-291.24m-224.5,719.81-123.78-126"/><path class="cls-5" d="M994.05,2375.41,1322.53,2175m-328.48,200.4L1180,2072.84M777.72,2697l340.11-195.58M777.72,2697l216.33-321.58M2031.66-53.27,1787.47,49.62m0,0,91.7-132.15m-91.7,132.15,26-132.15m124.86,373.92-223.39,66.16m0,0L2031.66-53.27M1714.94,357.55l72.53-307.93m51.41,562.59-204.52,35.11m0,0,304-355.93m-304,355.93,80.58-289.77M1731.69,916l-187.11,8.2m0,0,294.3-312m-294.3,312,89.78-276.88m-19.52,561.27-170.78-15.71m0,0L1731.69,916m-287.63,276.88L1544.58,924.2M1486,1495.37l-155.19-37.6m0,0,284-249.18m-284,249.18,113.23-264.89M1342.33,1781.6l-140-58.29m0,0L1486,1495.37m-283.66,227.94,128.47-265.54M1180,2072.84l-124.74-78.57m0,0,287.08-212.67m-287.08,212.67,147.11-271m-208.31,652.1-109-99.29m0,0,295-203.28M885,2276.12l170.25-281.85m-369.8,581.29,308.6-200.15m-308.6,200.15L885,2276.12M1787.47,49.62,1582.56,144m0,0,143.5-226.54M1582.56,144l37-226.54m95.33,440.08-189.43,64.3m0,0,262-372.23m-262,372.23,57-277.84m51.8,503.31-175,38.37m0,0,255.6-328.14m-255.6,328.14,66.17-263.84m19.07,502.35-161.44,15.57m0,0,251.22-292.45M1383.14,939.77l76.2-254.08m-15.28,507.19-148.45-5m0,0,249-263.71m-249,263.71,87.53-248.14m-52.31,518-135.8-24m0,0,249-240.94m-249,240.94,100.58-245.91m-93.25,535.4-123.27-42m0,0,251.74-223.52m-251.74,223.52L1195,1433.82m-139.78,560.45-110.53-59.79m0,0,257.64-211.17M944.72,1934.48l134.37-253.19M885,2276.12l-97.22-77.94m0,0,267.47-203.91M787.78,2198.18l156.94-263.7M602.59,2478.31,885,2276.12M602.59,2478.31l185.19-280.13m731-2280.71-75.29,47m0,0,24.44-47m-24.44,47,4.4-47M1582.56,144l-175,87.92m0,0,182.8-314.46m-182.8,314.46,36-267.45m82,457.37-163.23,62.82m0,0L1582.56,144M1362.28,484.67l45.24-252.74m51.82,453.76-152,40.9m0,0,218.17-304.74M1307.34,726.59l54.94-241.92m20.86,455.1-141.2,21.35m0,0,217.4-275.43m-217.4,275.43,65.4-234.53m-11.73,461.32-130.68,3.55m0,0,218.21-251.69m-218.21,251.69,77-230.34M1195,1433.82l-120.27-13m0,0,220.85-232.86m-220.85,232.86,90.17-229.31m-85.84,489.83-109.77-28.93m0,0L1195,1433.82M969.32,1652.36l105.44-231.59m-130,513.71-99-44.6m0,0,233.35-208.59M845.74,1889.88l123.58-237.52M787.78,2198.18l-87.59-60.6m0,0,244.53-203.1m-244.53,203.1,145.55-247.7M527.42,2400.75l260.36-202.57M527.42,2400.75l172.77-263.17m743.3-2173.1L1282.13,71.7m0,0,73.7-154.23M1282.13,71.7,1292.2-82.53m115.32,314.46L1255.71,314.8m0,0L1443.49-35.52M1255.71,314.8l26.42-243.1m80.15,413-142.6,61.67m0,0,187.84-314.41M1219.68,546.34l36-231.54m51.63,411.79-133.68,42.89m0,0,188.62-284.81M1173.66,769.48l46-223.14m22.26,414.78-125,26m0,0,190.35-260.49M1117,987.08l56.67-217.6m-8.73,422-116.29,10.4m0,0,193.3-240.74m-193.3,240.74L1117,987.08m-42.23,433.69-107.6-4.19m0,0,197.77-225.12M967.16,1416.58l81.48-214.72m-79.32,450.5-98.73-18.24m0,0,204.17-213.35M870.59,1634.12l96.57-217.54m-121.42,473.3-89.48-32.14m0,0,213.06-205.38M756.26,1857.74l114.33-223.62m-170.4,503.46-79.62-46.32m0,0,225.17-201.38M620.57,2091.26l135.69-233.52M458.62,2339.42l241.57-201.84M458.62,2339.42l162-248.16M1282.13,71.7l-140.78,99.43m0,0,111.8-253.66m-111.8,253.66,9.3-234.61m0,0,23-19.05m82.1,397.33-133.37,78.87m0,0,159.79-322m-159.79,322,19-222.54m78.33,375.21-126.09,60.74m0,0L1255.71,314.8M1093.59,607.08l28.75-213.41m51.32,375.81L1054.77,814m0,0,164.91-267.63M1054.77,814l38.82-206.89m23.4,380-111.72,29.72m0,0,168.39-247.32M1005.27,1016.8,1054.77,814m-6.13,387.89-104.51,16m0,0L1117,987.08M944.13,1217.89l61.14-201.09m-38.11,399.78L870,1419.67m0,0,178.64-217.81M870,1419.67l74.13-201.78m-73.54,416.23-89.57-9.4m0,0,186.14-208.14M781,1624.72l89-205M756.26,1857.74,674.68,1836m0,0,195.91-201.83M674.68,1836,781,1624.72M620.57,2091.26l-73-34.43m0,0,208.67-199.09M547.59,2056.83,674.68,1836M395.14,2291.64l225.43-200.38M395.14,2291.64l152.45-234.81m593.76-1885.7L1017,264.36m0,0L1150.65-63.48M1017,264.36l3.46-214.62m0,0L1150.65-63.48m-28.31,457.15-118.51,75.65m0,0,137.52-298.19M1003.83,469.32l13.17-205m76.59,342.72-112.65,60m0,0,141.4-273.39M980.94,667.06l22.89-197.74M1054.77,814,948,859.79m0,0,145.58-252.71M948,859.79l32.93-192.73m24.33,349.74-100.8,32.82m0,0L1054.77,814m-150.3,235.65L948,859.79m-3.88,358.1-94.72,20.7m0,0,155.86-221.79M849.41,1238.59l55.06-189M870,1419.67l-88.45,9.19m0,0,162.58-211m-162.58,211,67.86-190.27M781,1624.72l-81.9-2m0,0L870,1419.67M699.12,1622.74l82.43-193.88M674.68,1836l-74.93-13.08m0,0L781,1624.72M599.75,1822.87l99.37-200.13M547.59,2056.83l-67.38-24.41m0,0L674.68,1836M480.21,2032.42l119.54-209.55M336.17,2255.32l211.42-198.49M336.17,2255.32l144-222.9M1017,264.36,906,352.6m0,0L1020.46,49.74M906,352.6l-1.1-197.54m0,0L1020.46,49.74m-16.63,419.58L897.48,542.38m0,0,119.52-278m-119.52,278L906,352.6m75,314.46L879.36,726.45"/><path class="cls-5" d="M879.36,726.45l124.47-257.13M879.36,726.45l18.12-184.07M948,859.79l-96.7,46.94m0,0L980.94,667.06M851.31,906.73l28.05-180.28m25.11,323.17-91.69,35.43m0,0L948,859.79M812.78,1085.05l38.53-178.32m-1.9,331.86-86.5,24.63m0,0,141.56-213.6m-141.56,213.6,49.87-178.17m-31.23,343.81-81.1,14.32m0,0,149-204.59m-149,204.59,62.46-180m-63.79,359.52-75.4,4.29m0,0,157.83-198.17M623.72,1627l76.73-183.85m-100.7,379.69-69.29-5.68m0,0,168.66-194.45M530.46,1817.19,623.72,1627M480.21,2032.42l-62.61-15.87m0,0,182.15-193.68M417.6,2016.55l112.86-199.36M281,2228.75l199.19-196.33M281,2228.75l136.58-212.2M906,352.6,805.9,436.76m0,0,99-281.7m-99,281.7L801.17,254m0,0,103.7-98.92m-7.39,387.32L801.19,613.3m0,0L906,352.6M801.19,613.3l4.71-176.54m73.46,289.69L787,785.37m0,0,110.47-243M787,785.37,801.19,613.3m50.12,293.43-88.26,47.9m0,0L879.36,726.45M763.05,954.63l24-169.26m25.77,299.68-84,37.64m0,0,122.53-216m-122.53,216,34.27-168.06m-.14,308.59-79.56,28m0,0,129.43-206.15M683.35,1291.2l45.43-168.51m-28.33,320.49-74.86,18.71m0,0,137.32-198.67M625.59,1461.89l57.76-170.69M623.72,1627l-69.86,9.67m0,0,146.59-193.52M553.86,1636.7l71.73-174.81m-95.13,355.3-64.46.66m0,0L623.72,1627M466,1817.85l87.86-181.15M417.6,2016.55,359.08,2008m0,0,171.38-190.83M359.08,2008,466,1817.85M229.17,2210.57l188.43-194m-188.43,194L359.08,2008M805.9,436.76l-91,80.81m0,0L801.17,254M714.92,517.57l-7.63-169.93m0,0L801.17,254m0,359.32-87.87,69.18m0,0L805.9,436.76M713.32,682.48l1.6-164.91M787,785.37l-84.59,58.56m0,0L801.19,613.3M702.42,843.93l10.9-161.45m49.73,272.15-81.13,48.75m0,0L787,785.37m-105.09,218,20.5-159.45m26.36,278.76-77.48,39.57m0,0L763.05,954.63M651.3,1162.26l30.62-158.88m1.43,287.82-73.61,30.87m0,0,119-199.38m-119,199.38,41.56-159.81m-25.71,299.63-69.51,22.51m0,0,127.27-193.2M556.08,1484.4l53.66-162.33M553.86,1636.7,488.76,1651m0,0,136.83-189.14M488.76,1651l67.32-166.63M466,1817.85,405.69,1824m0,0L553.86,1636.7M405.69,1824l83.07-173M359.08,2008l-55-2.16m0,0,161.92-188m-161.92,188L405.69,1824M180.15,2199.68,359.08,2008M180.15,2199.68l123.93-193.82M714.92,517.57l-83.33,78m0,0,75.7-248m-75.7,248L621.6,437m0,0,85.69-89.32m6,334.84-80.76,67.75m0,0,82.36-232.66M632.56,750.23l-1-154.63m70.83,248.33-78,58.3m0,0,88.9-219.75m-88.9,219.75,8.14-152m49.36,253.15-75,49.51m0,0,95.53-209m-95.53,209,17.53-150.66m26.88,260-71.88,41.26m0,0,102.5-200.14m-102.5,200.14,27.47-150.63m2.85,269.18-68.52,33.41m0,0L651.3,1162.26M541.22,1355.48l38.2-152M556.08,1484.4l-64.9,25.82m0,0,118.56-188.15M491.18,1510.22l50-154.74M488.76,1651l-61,18.39m0,0,128.31-185m-128.31,185,63.41-159.2M405.69,1824,349,1835m0,0,139.77-184M349,1835l78.78-165.57M304.08,2005.86l-51.94,3.4m0,0L405.69,1824M252.14,2009.26,349,1835m-215.4,360.18,170.49-189.31M133.59,2195.17l118.55-185.91M631.59,595.6l-76.87,75.73m0,0L621.6,437M554.72,671.33,542.8,522.68m0,0L621.6,437m11,313.27-74.71,66.59m0,0L631.59,595.6M557.85,816.82l-3.13-145.49m69.7,230.9-72.35,58.12m0,0,80.49-210.12M552.07,960.35l5.78-143.53m49,236.07-69.81,50.22m0,0,87.34-200.88m-87.34,200.88,15-142.76m27.35,243.17-67.06,42.76m0,0,94.53-193.39m-94.53,193.39,24.72-143.17m4.14,252.37-64.1,35.63m0,0,102.3-187.59m-102.3,187.59,35.24-144.83m-21.18,263.94L430.28,1539m0,0,110.94-183.49M430.28,1539l46.84-147.86m-49.35,278.31-57.4,22m0,0,120.81-181.17M370.37,1691.39,430.28,1539M349,1835l-53.56,15.21m0,0,132.34-180.78M295.43,1850.2l74.94-158.81M252.14,2009.26l-49.28,8.32m0,0L349,1835M202.86,2017.58l92.57-167.38M89.19,2196.29l163-187m-162.95,187,113.67-178.71M554.72,671.33l-71.33,73.82m0,0L542.8,522.68M483.39,745.15,469.86,605.39m0,0,72.94-82.71m15.05,294.14-69.52,65.62m0,0,66.39-211.11M488.33,882.44l-4.94-137.29m68.68,215.2-67.5,58m0,0,73.28-201.55m-73.28,201.55,3.76-135.93m48.75,220.67L471.8,1154m0,0,80.27-193.64M471.8,1154l12.77-135.62m27.79,227.91-62.87,44.11m0,0,87.59-187.28m-87.59,187.28L471.8,1154m5.32,237.12-60.25,37.64m0,0,95.49-182.47m-95.49,182.47,32.62-138.36M430.28,1539l-57.4,31.35m0,0,104.24-179.21M372.88,1570.32l44-141.57m-46.5,262.64-54.28,25.17m0,0L430.28,1539M316.09,1716.56l56.79-146.24M295.43,1850.2l-50.82,19m0,0,125.76-177.79M244.61,1869.18l71.48-152.62m-113.23,301-46.94,12.69m0,0L295.43,1850.2M155.92,2030.27l88.69-161.09m-198,333.22,156.2-184.82M46.66,2202.4l109.26-172.13M483.39,745.15,416.8,817.38m0,0,53.06-212m-53.06,212-14.88-131.8m0,0,67.94-80.19m18.47,277.05-65,64.87m0,0,60.09-202.16M423.3,947.31l-6.5-129.93m67.77,201-63.29,58m0,0,67.05-193.92m-67.05,193.92,2-129"/><path class="cls-5" d="M471.8,1154l-61.36,51.51m0,0,74.13-187.13M410.44,1205.5l10.84-129.14m28.21,214-59.23,45.36m0,0L471.8,1154m-81.54,181.76,20.18-130.25m6.43,223.25L360,1468.19m0,0,89.52-177.8M360,1468.19l30.29-132.44m-17.38,234.57L318.53,1604m0,0,98.34-175.26M318.53,1604,360,1468.19m-43.88,248.37-51.53,28m0,0,108.32-174.28M264.56,1744.6l54-140.59m-73.92,265.17-48.4,22.38m0,0,119.88-175m-119.88,175,68.35-147M155.92,2030.27,111,2046.87m0,0,133.58-177.69M111,2046.87l85.18-155.31M46.66,2202.4,5.79,2213m0,0,150.13-182.73M5.79,2213,111,2046.87M416.8,817.38l-62.48,70.93m0,0,47.6-202.73m-47.6,202.73-16-124.64m0,0,63.62-78.09M423.3,947.31l-61.15,64.28m0,0L416.8,817.38m-54.65,194.21-7.83-123.28m67,188-59.62,58m0,0L423.3,947.31m-61.64,187.08.49-122.8m48.29,193.91-57.91,52.14m0,0,68.75-181.28m-68.75,181.28,9.13-123.25m28.6,201.36-56,46.52m0,0,76.21-176.77m-76.21,176.77,18.3-124.63M360,1468.19l-54,41.1m0,0,84.24-173.54M306,1509.29l28.21-127M318.53,1604l-51.65,35.83m0,0L360,1468.19m-93.09,171.65L306,1509.29M264.56,1744.6l-49.11,30.63m0,0L318.53,1604M215.45,1775.23l51.43-135.39m-70.67,251.72L149.93,1917m0,0L264.56,1744.6M149.93,1917l65.52-141.76M111,2046.87,68,2067m0,0,128.26-175.45M68,2067l82-150M-33.64,2227.65,111,2046.87M-33.64,2227.65,68,2067M354.32,888.31,295.4,958.17m0,0,42.9-194.5m-42.9,194.5L278.4,840m0,0,59.9-76.34m23.85,247.92-57.76,63.82m0,0,49.93-187.1m-49.93,187.1-9-117.24m66.26,176.22-56.41,58.14m0,0,56.9-180.94m-56.9,180.94-.86-117.12m48.14,182.23-54.91,52.75m0,0,64-176m-64,176,7.63-117.86m29,189.74L281,1429.87m0,0,71.52-172.23M281,1429.87l16.61-119.48m8.4,198.9-51.35,42.64m0,0,79.56-169.66m-79.56,169.66L281,1429.87m-14.13,210-49.27,37.8m0,0L306,1509.29m-88.41,168.35,37.06-125.71m-39.22,223.3-47,33m0,0,98.4-168.4m-98.4,168.4,49.13-130.6M149.93,1917l-44.39,28.23m0,0,109.91-170m-109.91,170,62.94-137M68,2067l-41.48,23.36m0,0L149.93,1917M26.47,2090.37l79.07-145.15M-71.78,2246,68,2067M-71.78,2246l98.25-155.59M295.4,958.17l-55.82,69m0,0L278.4,840m-38.82,187.17L221.75,914.89m0,0L278.4,840m26,235.4-54.79,63.5m0,0,45.8-180.74m-45.8,180.74-10-111.73m65.67,165.35-53.61,58.31m0,0,52.75-175.43m-52.75,175.43-2-111.93m48,171.48-52.25,53.37m0,0,59.88-171.23m-59.88,171.23,6.27-112.92m29.37,179-50.73,48.64m0,0,67.34-168.12m-67.34,168.12,15.09-114.75m9.3,188.17-49,44.07m0,0L281,1429.87M205.62,1596l24.66-117.49m-12.67,199.13-47.17,39.61m0,0,84.23-165.32m-84.23,165.32L205.62,1596m-37.14,212.24-45.08,35.2m0,0,94.21-165.8m-94.21,165.8,47-126.19m-64.9,228L62.81,1976m0,0,105.67-167.78M62.81,1976l60.59-132.58M26.47,2090.37l-40.07,26.32m0,0,119.14-171.47M-13.6,2116.69,62.81,1976m-171.6,291.63L26.47,2090.37m-135.26,177.28,95.19-151M239.58,1027.18l-53.08,68.33m0,0,35.25-180.62M186.5,1095.51,167.93,988.57m0,0,53.82-73.68m27.85,224-52.18,63.3m0,0,42.16-175m-42.16,175-10.92-106.7m65.14,155.33-51.12,58.54m0,0,49.08-170.47m-49.08,170.47-3.1-107.17m48,161.55-49.91,54m0,0,56.18-166.93m-56.18,166.93,5.06-108.39m29.76,169.13-48.55,49.65m0,0,63.64-164.4m-63.64,164.4,13.73-110.39M205.62,1596l-47,45.43m0,0,71.67-162.92m-71.67,162.92,23.12-113.27m-11.29,189.09-45.31,41.31m0,0L205.62,1596m-80.49,162.56,33.48-117.13m-35.21,202L80,1880.69m0,0,90.43-163.44M80,1880.69l45.12-122.13M62.81,1976l-41.25,33.17m0,0L123.4,1843.44M21.56,2009.19,80,1880.69m-93.61,236-38.81,29m0,0L62.81,1976M-52.41,2145.74l74-136.55m-166.37,283.25L-13.6,2116.69m-131.21,175.75,92.4-146.7M186.5,1095.51l-50.69,67.83m0,0,32.12-174.77m-32.12,174.77-19.23-102m0,0,51.35-72.73m29.49,213.64-49.88,63.21m0,0,39-169.91m-39,169.91-11.73-102.08m64.71,146-48.93,58.83m0,0,45.83-166m-45.83,166-4.05-102.79m47.92,152.35-47.84,54.65m0,0,52.9-163m-52.9,163,4-104.21m30.14,160-46.59,50.63m0,0,60.32-161m-60.32,161,12.48-106.37m11,169-45.2,46.74m0,0,68.32-160m-68.32,160,21.73-109.38m-10,179.77-43.64,42.93m0,0,77.12-160.06M81.49,1801.49l31.92-113.32M80,1880.69l-41.9,39.17m0,0,87-161.3m-87,161.3,43.38-118.37m-59.93,207.7-39.93,35.41m0,0L80,1880.69M-18.37,2044.6l56.48-124.74m-90.52,225.88-37.7,31.6m0,0L21.56,2009.19M-90.11,2177.34l71.74-132.74m-161.58,275.51,127.54-174.37m-127.54,174.37,89.84-142.77m225.92-1014-48.59,67.47m0,0,29.36-169.51M87.22,1230.81l-19.81-97.55m0,0,49.17-72m31,204.12-47.86,63.22m0,0,36.13-165.3m-36.13,165.3-12.46-97.83m64.37,137.4-47,59.18m0,0,42.95-162m-42.95,162-4.91-98.75m47.94,143.78-46,55.32"/><path class="cls-5" d="M101.62,1527.74l50-159.53m-50,159.53,3-100.35m30.55,151.4-44.87,51.6m0,0,57.35-158m-57.35,158,11.35-102.65m11.79,160.43-43.6,48m0,0,65.33-157.37M69.81,1736.16l20.46-105.77m-8.78,171.1L39.32,1846m0,0,74.09-157.78M39.32,1846l30.49-109.79m-31.7,183.7-40.57,41m0,0,83.95-159.35M-2.46,1960.84,39.32,1846M-18.37,2044.6l-38.77,37.51m0,0,95.25-162.25m-95.25,162.25,54.68-121.27m-87.65,216.5-36.72,34m0,0L-18.37,2044.6m-108.46,166.73,69.69-129.22m-157.17,268.37,124.2-173.14m-124.2,173.14,87.48-139.15M87.22,1230.81l-46.73,67.24m0,0,26.92-164.79M40.49,1298.05l-20.35-93.4m0,0,47.27-71.39m32.27,195.38L53.61,1392m0,0,33.61-161.15M53.61,1392l-13.12-93.91m64.1,129.34L59.31,1487m0,0,40.37-158.35M59.31,1487l-5.7-95m48,135.78-44.36,56m0,0,47.33-156.36M57.26,1583.75,59.31,1487m31,143.4L46.94,1683m0,0,54.68-155.22M46.94,1683l10.32-99.21m12.55,152.41-42.16,49.22m0,0,62.62-155m-62.62,155L46.94,1683m-7.62,163-40.86,46m0,0,71.35-155.74M-1.54,1891.9l29.19-106.52M-2.46,1960.84l-39.38,42.72m0,0L39.32,1846m-81.16,157.61,40.3-111.66m-55.6,190.21-37.73,39.5m0,0,92.41-160.77m-92.41,160.77,53-118.05m-85,207.77-35.85,36.25m0,0,105.54-165.47m-105.54,165.47,67.81-126M-248,2383.4l121.17-172.07M-248,2383.4l85.32-135.82M40.49,1298.05l-45.1,67.16m0,0,24.75-160.56M-4.61,1365.21l-20.84-89.58m0,0,45.59-71M53.61,1392,9.12,1455.49m0,0,31.37-157.44M9.12,1455.49l-13.73-90.28M59.31,1487l-43.75,60.06m0,0L53.61,1392m-38,155.09-6.44-91.56m48.14,128.26L14.34,1640.5m0,0,45-153.51m-45,153.51,1.22-93.45M46.94,1683,5,1736.5m0,0,52.29-152.75M5,1736.5l9.37-96m13.31,144.88-40.89,50.43m0,0L46.94,1683m-60.18,152.85L5,1736.5m-6.51,155.4-39.68,47.39m0,0,68.87-153.91m-68.87,153.91,28-103.48m-28.6,167.75L-80.18,2048m0,0L-1.54,1891.9M-80.18,2048l39-108.67m-53.65,182.32L-131.68,2163m0,0,89.84-159.46M-131.68,2163-80.18,2048m-82.5,199.62L-197.76,2286m0,0,102.89-164.38M-197.76,2286l66.08-123M-281.1,2418.73l118.42-171.15M-281.1,2418.73-197.76,2286M-4.61,1365.21l-43.65,67.18m0,0,22.81-156.76m-22.81,156.76-21.3-86m0,0,44.11-70.73M9.12,1455.49-34,1519.3m0,0,29.35-154.09M-34,1519.3l-14.3-86.91m63.82,114.66-42.41,60.59m0,0,36-152.15m-36,152.15L-34,1519.3m48.3,121.2L-27.29,1698m0,0,42.85-151m-42.85,151,.44-90.36M5,1736.5-35.78,1791m0,0L14.34,1640.5M-35.78,1791l8.49-93m14.05,137.81L-53,1887.45m0,0,58-151m-58,151L-35.78,1791m-5.44,148.26-38.65,48.81m0,0,66.63-152.29M-79.87,1988.1-53,1887.45M-80.18,2048l-37.4,46m0,0,76.36-154.69M-117.58,2094l37.71-105.88M-131.68,2163l-36,43.26m0,0L-80.18,2048m-87.49,158.32,50.09-112.3m-80.18,192-34.41,40.47m0,0L-131.68,2163m-100.49,163.44,64.5-120.18m-146,250.09L-197.76,2286m-115.93,170.38,81.52-129.91m183.91-894.07-42.38,67.32m0,0,21.08-153.35m-21.08,153.35L-112.38,1417m0,0,42.82-70.61M-34,1519.3l-41.84,64.19m0,0,27.54-151.1m-27.54,151.1-14.84-83.78m63.79,107.93-41.22,61.19m0,0L-34,1519.3m-34.11,149.53-7.73-85.34M-27.29,1698l-40.49,58.31m0,0,40.93-148.67m-40.93,148.67-.29-87.48M-35.78,1791l-39.67,55.53m0,0L-27.29,1698m-48.16,148.56,7.67-90.25M-53,1887.45l-38.75,52.84m0,0,56-149.26m-56,149.26,16.3-93.73m-4.42,141.54-37.72,50.21m0,0L-53,1887.45m-64.59,150.86,25.84-98M-117.58,2094l-36.57,47.62m0,0,74.28-153.5m-74.28,153.5,36.56-103.29m-50.08,168-35.29,45m0,0L-117.58,2094M-203,2251.33l48.81-109.73m-78,184.86L-266,2368.94m0,0,98.32-162.66M-266,2368.94l63-117.61m-142.88,244.9,113.67-169.77m-113.67,169.77L-266,2368.94m175.35-869.23-41.27,67.57m0,0L-112.38,1417m-19.53,150.31-22.15-79.67m0,0,41.68-70.64m36.58,166.52-40.76,64.64m0,0,25.92-148.42m-25.92,148.42-15.35-80.85m63.84,101.55-40.16,61.85m0,0,32.43-147.19m-32.43,147.19-8.33-82.55m48.78,108.18-39.48,59.16m0,0,39.19-146.64m-39.19,146.64-1-84.79m32.78,115.88-38.71,56.57m0,0,46.38-146.82m-46.38,146.82,6.9-87.66m15.51,124.82-37.86,54m0,0,54.16-147.77m-54.16,147.77,15.45-91.2m-3.43,135.18-36.91,51.59m0,0,62.75-149.61M-154.5,2089.9l24.89-95.57m-24.54,147.27L-190,2190.78m0,0,72.41-152.47M-190,2190.78l35.5-100.88M-203,2251.33l-34.65,46.8m0,0,83.46-156.53m-83.46,156.53L-190,2190.78m-76,178.16-33.31,44.42m0,0,96.34-162m-96.34,162,61.69-115.23m-140,240.12L-266,2368.94m-111.63,169.31,78.32-124.89m167.39-846.08-40.28,67.92m0,0,18.13-147.59m-18.13,147.59-22.56-76.79m0,0,40.69-70.8m37.5,160.52-39.79,65.19m0,0,24.44-146m-24.44,146-15.84-78.12m64,95.48-39.23,62.57m0,0,30.9-145.12m-30.9,145.12-8.89-79.93m49.09,102.15-38.6,60.06m0,0,37.63-144.85m-37.63,144.85-1.6-82.28"/><path class="cls-5" d="M-763.77,2858.34l-30.73-46m0,0,38-90.42m53.43,97.91-36.59,87.48m0,0,13.16-137.86m-13.16,137.86-24.1-49m77.32,15.12-36,86.18m0,0,19.35-139.81m-19.35,139.81-17.24-52.33m62.7,23.48-35.42,85m0,0,25.94-142.32m-25.94,142.32-10-56.14m47.31,32.73L-710,3076.28m0,0L-677,2930.79M-710,3076.28l-2.34-60.5m-51.38-157.44-37.72,91.44m0,0,7-137.44m-7,137.44L-833,2905.3m0,0,38.49-93m54.83,95-37,90m0,0,12.91-139m-12.91,139-24.81-47.57m79.06,9.86-36.37,88.74m0,0,19.13-141.07m-19.13,141.07-17.88-51m64.29,18.43-35.8,87.57m0,0,25.76-143.71m-25.76,143.71-10.61-55m48.75,27.9-35.29,86.52m0,0,33-147m-33,147-2.85-59.45m-53.3-153.57L-839.75,3044m0,0L-833,2905.3M-839.75,3044-872.08,3001m0,0L-833,2905.3m56.31,92-37.51,92.77m0,0,12.7-140.34m-12.7,140.34L-839.75,3044m81,4.42-36.83,91.49m0,0,19-142.52m-19,142.52-18.56-49.75m66,13.23-36.23,90.33m0,0,25.62-145.3m-25.62,145.3-11.21-53.81m50.29,22.93-35.72,89.3m0,0,32.87-148.75m-32.87,148.75-3.36-58.42m1.38,82.92,2-24.5M-839.75,3044l-38.88,97.16m0,0,6.55-140.11m-6.55,140.11-33.22-41.42m0,0,39.77-98.69m57.89,89.11-38.08,95.74m0,0,12.52-141.9m-12.52,141.9-26.36-44.74m83-1.25L-833,3234.32m0,0,18.81-144.2M-833,3234.32l-19.27-48.46m67.85,7.82-36.75,93.3m0,0,25.54-147.11M-821.17,3287-833,3234.32m51.94,17.78-36.21,92.27m0,0,32.85-150.69m-32.85,150.69-3.9-57.39m27.11,14.39,13-49.27m-200.45,496.69-7.21,18.37m110.09-626-39.59,100.36m0,0,6.37-141.78m-6.37,141.78-34.17-39.84m0,0,40.54-101.94m59.58,86.16L-891,3284.78m0,0,12.38-143.66M-891,3284.78l-27.21-43.3m85.22-7.16L-871,3332m0,0,18.72-146.09M-871,3332l-20-47.17m69.84,2.2-37.33,96.47m0,0,25.5-149.13m-25.5,149.13L-871,3332m-47.23-90.47-40.39,103.84m0,0,6.22-143.68m-6.22,143.68-35.2-38.23m0,0,41.42-105.45m61.38,83.14-39.48,102.38m0,0,12.27-145.68m-12.27,145.68-28.12-41.84M-871,3332-909.68,3433m0,0L-891,3284.78M-909.68,3433l-20.81-45.84m72-3.71-38,99.88m0,0L-871,3332m-25.51,151.38L-909.68,3433m-48.93-87.68-41.3,107.6m0,0,6.1-145.83m-6.1,145.83-36.3-36.55m0,0,42.4-109.28m63.32,80.07-40.33,106.1m0,0,12.21-147.94m-12.21,147.94-29.09-40.34m90.23-19.92-39.47,104.75m0,0,18.66-150.59m-18.66,150.59-21.67-44.49m74.32-9.93-38.76,103.56m0,0L-909.68,3433m-25.58,153.89-13.89-49.14m-50.76-84.83-42.31,111.7m0,0,6-148.25m-6,148.25-37.49-34.83m0,0,43.5-113.42m65.39,76.89-41.27,110.12m0,0,12.18-150.46m-12.18,150.46-30.13-38.76m93.07-26.87-40.36,108.74m0,0,18.69-153.23m-18.69,153.23-22.58-43.11m76.83-16.49-39.59,107.52m0,0,25.7-156.66m-25.7,156.66-14.66-47.92m-52.71-81.87-43.44,116.12m0,0,6-150.95m-6,150.95-38.76-33m0,0,44.71-117.94m67.62,73.59-42.31,114.5m0,0,12.18-153.26m-12.18,153.26-31.26-37.14m96.15-34.25-41.35,113.05m0,0,18.77-156.16m-18.77,156.16-23.54-41.66m79.55-23.47-26.38,72.75m-7.83,0,19.55-120.67m-38.83,120.67-2.52-7.62m41.11,7.62,14.9-72.75m-110.81-13.67-31.93,86.42m-11.43,0,4.6-119.43m-44.78,119.43,44.78-119.43m70,70.15-18,49.28m-20,0,6.76-86.42m54.8,78.8-2.75,7.62m-26.64,0,5.85-49.28m22.32,49.28,1.22-7.62M733,2780.24l-.2.45m-441,266.85-7.92,11.2m0,0-45.69,57m45.69-57-72.57,95m118.29-148.31L284,3058.74m0,0-26.77,40.41m0,0-45.81,54.57m45.81-54.57L185,3193.6m162.3-206.5L327,3017.68m0,0-43,41.06m43-41.06-69.81,81.47m144.06-161.66-6.71,10.05m0,0-25,18.17m25-18.17L327,3017.68m105.85-105.41-38.31,35.27M257.19,3099.15,231,3141.37m0,0L185,3193.61M231,3141.37l-71.83,94M327,3017.68l-26.48,42.47m0,0-43.33,39m43.33-39L231,3141.37m163.58-193.83-26.64,42.55m0,0L327,3017.68m40.9-27.59-67.38,70.06m153.25-163-20.56,32.68m0,0-38.67,17.73m38.67-17.73-65.31,60.28M505,2864.77l-8.46,13.37m0,0-23.65,5.94m23.65-5.94-63.36,51.67m108.48-84-45.12,32.29M231,3141.37l-25.72,44m0,0-46.11,50m46.11-50-71.55,93.66m166.83-218.91-25.92,44.22m0,0-43.64,37m43.64-37-69.36,81M367.9,2990.09l-26,44.24m0,0-41.34,25.82m41.34-25.82-67.26,70m158.61-174.56-26.09,44.11m0,0-39.22,16.17m39.22-16.17-65.26,60.41m154.71-156.19L470.5,2922m0,0-37.29,7.81M470.5,2922l-63.38,51.92m147.19-133.45-22.19,37.12m0,0-35.55.55m35.55-.55L470.5,2922m132.34-100-10.73,17.85m0,0-26-4.43m26,4.43-60,37.71m115.82-68-55.83,30.28M205.24,3185.4,180,3231.26m0,0-46.32,47.8m46.32-47.8-71.33,93.36M274.6,3104.37l-25.38,46m0,0-44,35.07m44-35.07L180,3231.26m161.86-196.93-25.46,45.92m0,0-41.8,24.12"/><path class="cls-5" d="M316.4,3080.25l-67.18,70.08m157.9-176.41-25.46,45.74m0,0-39.8,14.67m39.8-14.67-65.26,60.59M470.5,2922l-25.41,45.44m0,0-38,6.48m38-6.48-63.43,52.22m150.46-142.07-25.3,45m0,0L470.5,2922m36.32.63-61.73,44.81m147-127.56L567,2884.42m0,0-34.85-6.83m34.85,6.83-60.15,38.21M650,2809.21l-24.35,42.91m0,0-33.54-12.24m33.54,12.24L567,2884.42m129.32-82.56L683,2825.14m0,0-31-16.28m31,16.28-57.36,27m115.83-53.2-2.33,4.07m0,0-5.88-3.95m5.88,3.95L683,2825.14m68.26-26-12.12,3.9M180,3231.26,155.21,3279m0,0-46.54,45.67M155.21,3279l-71.14,93.13m165.15-221.75-24.88,47.74m0,0L180,3231.26m44.34-33.19L155.21,3279m161.19-198.7-24.9,47.63m0,0-42.28,22.45m42.28-22.45-67.16,70.19m157.32-178.41-24.87,47.39m0,0-40.39,13.2m40.39-13.2-65.29,60.83m153.59-160.44-24.77,47m0,0-38.66,5.18m38.66-5.18-63.53,52.57m150-144.42-24.63,46.58m0,0-37.1-1.77m37.1,1.77-61.87,45.27M567,2884.42l-24.44,46m0,0-35.71-7.83m35.71,7.83-60.34,38.75m143.46-117.09-24.21,45.41m0,0L567,2884.42m34.47,13.11-58.91,32.93M683,2825.14l-24,44.73m0,0-33.41-17.75m33.41,17.75-57.62,27.66M739.15,2803l-23.65,44m0,0L683,2825.14M715.5,2847l-56.44,22.9m111.83-41.45L739.15,2803m31.74,25.43L715.5,2847M155.21,3279l-24.34,49.54m0,0-46.8,43.6m46.8-43.6-71,93m164.49-223.4L200,3247.58m0,0L155.21,3279M200,3247.58l-69.08,80.91M291.5,3127.88l-24.36,49.35m0,0-42.8,20.84m42.8-20.84L200,3247.58m156.84-180.53-24.28,49m0,0-41,11.78m41-11.78-65.37,61.13m153.18-162.75-24.15,48.64m0,0-39.38,3.93m39.38-3.93-63.66,53m149.68-146.89-24,48.14m0,0-37.9-2.87m37.9,2.87-62.05,45.77m146.36-132.66L518.78,2978m0,0-36.59-8.8m36.59,8.8-60.56,39.34m143.22-119.82L578,2944.43m0,0-35.42-14m35.42,14L518.78,2978m140.28-108.14L635.86,2916m0,0-34.42-18.5m34.42,18.5L578,2944.43M715.5,2847l-22.88,45.37m0,0-33.56-22.47m33.56,22.47L635.86,2916M748.36,2873l-32.86-26m32.86,26-55.74,19.39M130.87,3328.49,107,3379.9m0,0-47.1,41.58M107,3379.9l-71,92.91m164-225.23L176,3298.91m0,0-45.17,29.58M176,3298.91l-69.09,81m160.19-202.67-23.85,51.09m0,0L200,3247.58m43.34-19.26L176,3298.91M332.51,3116.1l-23.72,50.74m0,0-41.65,10.39m41.65-10.39-65.5,61.48m152.88-165.2-23.54,50.28m0,0-40.12,2.7m40.12-2.7-63.84,53.44m149.43-149.49-23.33,49.73m0,0-38.72-4m38.72,4-62.26,46.32M518.78,2978,495.7,3027.1m0,0-37.48-9.75m37.48,9.75-60.81,40M578,2944.43l-22.79,48.38m0,0L518.78,2978m36.38,14.8L495.7,3027.1M635.86,2916l-22.48,47.61m0,0L578,2944.43m35.43,19.21-58.22,29.17m137.46-100.47-22.13,46.78m0,0L635.86,2916m34.63,23.09-57.11,24.52m113.23-44.8-34-26.5m34,26.5-56.12,20.28M107,3379.9l-23.52,53.33m0,0L36,3472.81m47.44-39.58-70.94,92.89M176,3298.91l-23.47,53.17m0,0L107,3379.9m45.62-27.82-69.14,81.15m159.86-204.91L220,3281.19m0,0L176,3298.91M220,3281.19l-67.38,70.89m156.22-185.24-23.18,52.46m0,0-42.32,9m42.32-9L220,3281.19M372.63,3113.4l-23,51.94m0,0-40.87,1.5m40.87-1.5-64.05,54m149.28-152.22-22.71,51.33m0,0-39.55-5m39.55,5-62.52,46.93m146-138.24-22.42,50.65m0,0-38.39-10.67m38.39,10.67-61.1,40.66m143-125.6-22.11,49.89m0,0-37.35-15.6m37.35,15.6-59.77,35.05m140.1-114.11-21.75,49.08m0,0-36.47-19.91m36.47,19.91-58.58,30m137.44-103.58-21.38,48.21m0,0-35.73-23.69m35.73,23.69-57.48,25.39m114-46.6-35.12-27m35.12,27-56.5,21.21M83.43,3433.23,60.3,3488.49m0,0-47.81,37.63m47.81-37.63-71,93m163.25-229.37-23,55.05m0,0-46.11,26.1m46.11-26.1L60.3,3488.49M220,3281.19l-22.87,54.69m0,0-44.51,16.2m44.51-16.2-67.54,71.25M285.61,3219.3,263,3273.51m0,0-43,7.68m43-7.68-65.88,62.37m152.58-170.54L327.27,3219m0,0-41.66.33m41.66-.33L263,3273.51m149.22-155.1-22.1,53m0,0-40.42-6m40.42,6L327.27,3219m146-141.22L451.5,3130m0,0-39.32-11.57M451.5,3130l-61.42,41.4m143-128.68-21.43,51.43m0,0-38.34-16.38m38.34,16.38L451.5,3130m140.13-117.26-21.06,50.57m0,0-37.52-20.59m37.52,20.59-59,30.84m137.49-106.8L628.45,3037m0,0-36.82-24.26M628.45,3037l-57.88,26.31m114.81-48.48-36.27-27.48m36.27,27.48L628.45,3037M60.3,3488.49l-22.77,57.25m0,0-48.21,35.71m48.21-35.71-71.07,93.08m163.08-231.69-22.6,56.95m0,0L60.3,3488.49m46.64-24.41-69.41,81.66m159.55-209.86-22.39,56.53m0,0-45.15,14.72m45.15-14.72-67.75,71.67m156-190.57-22.14,56m0,0-43.74,6.38m43.74-6.38-66.13,62.91M327.27,3219l-21.84,55.36m0,0-42.47-.82m42.47.82-64.61,55.17m149.26-158.12L368.57,3226m0,0-41.3-7.06"/><path class="cls-5" d="M368.57,3226l-63.14,48.3M451.5,3130l-21.15,53.86m0,0-40.27-12.46m40.27,12.46L368.57,3226m143.05-131.9-20.76,53m0,0L451.5,3130m39.36,17.15-60.51,36.71m140.22-120.55-20.36,52.09m0,0-38.59-21.25m38.59,21.25-59.35,31.75M628.45,3037l-19.94,51.13m0,0-37.94-24.82m37.94,24.82-58.3,27.27m115.67-50.45L628.45,3037m37.43,27.95-57.37,23.18m-571,457.63L15.12,3605m0,0-48.66,33.81M15.12,3605l-71.21,93.29m163-234.23L84.73,3523m0,0-47.2,22.74M84.73,3523l-69.61,82m159.57-212.61-21.95,58.43m0,0-45.8,13.24m45.8-13.24-68,72.16m156.09-193.5-21.63,57.83m0,0-44.5,5.08m44.5-5.08-66.45,63.51m152.69-176.51-21.3,57.14m0,0-43.31-2m43.31,2-64.94,55.86M368.57,3226l-20.93,56.35m0,0-42.21-8.05m42.21,8.05-63.51,49.09m146.22-147.63-20.54,55.51m0,0L368.57,3226m41.24,13.32-62.17,43m143.22-135.25-20.12,54.61m0,0-40.39-17.9m40.39,17.9-60.93,37.61m140.4-124L530.53,3169m0,0-39.67-21.89M530.53,3169l-59.79,32.72m137.77-113.63-19.22,52.63m0,0-39.08-25.36m39.08,25.36L530.53,3169m116.59-52.52-38.61-28.39m38.61,28.39-57.83,24.24M15.12,3605l-22.07,61.36m0,0-49.15,31.93m49.15-31.93-71.41,93.56M84.73,3523l-21.81,60.94m0,0L15.12,3605m47.8-21.08-69.87,82.44m159.69-215.54-21.5,60.37m0,0L84.73,3523m46.51-11.79-68.32,72.73m156.27-196.61L198,3447m0,0-45.29,3.8M198,3447l-66.79,64.17m152.89-179.74-20.77,59m0,0-44.17-3.09m44.17,3.09L198,3447m149.61-164.66-20.35,58.12m0,0-43.16-9m43.16,9-63.93,49.92m146.45-151.07-19.92,57.21m0,0-42.25-14.18m42.25,14.18-62.6,43.94m143.45-138.76L451.28,3258m0,0-41.47-18.64M451.28,3258l-61.39,38.57M530.53,3169l-19,55.23m0,0-40.79-22.51m40.79,22.51L451.28,3258m138-117.25-18.52,54.17m0,0L530.53,3169m40.24,25.89-59.24,29.34m117.57-54.69-39.81-28.82m39.81,28.82-58.33,25.35M-6.95,3666.38l-21.75,63.51m0,0L-78.37,3760m49.67-30.06-28.44,37.27M62.92,3583.94l-21.43,63m0,0-48.44,19.44m48.44-19.44-70.19,82.95m159.94-218.68-21.07,62.38m0,0-47.25,10.35m47.25-10.35-68.68,73.35M198,3447l-20.67,61.64m0,0-46.12,2.53m46.12-2.53-67.19,64.91m153.19-183.17-20.24,60.82m0,0L198,3447m45.09,4.2-65.76,57.44M327.29,3340.5l-19.8,59.91m0,0-44.13-10m44.13,10-64.37,50.83m146.77-154.68-19.31,59m0,0-43.29-15m43.29,15-63.09,44.9M451.28,3258l-18.83,57.93m0,0-42.56-19.36m42.56,19.36-61.87,39.59m141-131.26-18.32,56.86m0,0L451.28,3258m41.93,23.12-60.76,34.81m138.32-121L553,3250.65m0,0-41.43-26.4m41.43,26.4-59.75,30.46m118.6-57-41-29.24m41,29.24L553,3250.65M-28.7,3729.89l-12.15,37.27m82.34-120.22-21.07,65.14m0,0-49.12,17.81m49.12-17.81-46.52,55.08m136.27-193.57L89.52,3638m0,0-48,8.91m48-8.91-69.1,74m156.94-203.4-20.2,63.64m0,0-47,1.27m47-1.27L89.52,3638m153.6-186.79L223.39,3514m0,0-46-5.3m46,5.3-66.23,58.34m150.33-171.91-19.23,61.78m0,0-45.14-11m45.14,11L223.39,3514m147.19-158.47-18.72,60.75m0,0-44.37-15.85m44.37,15.85-63.6,45.93m144.19-146.27-18.2,59.66m0,0-43.67-20.07m43.67,20.07-62.39,40.68m141.35-135.15-17.66,58.54m0,0-43.1-23.73m43.1,23.73-61.3,35.93M553,3250.65,535.84,3308m0,0-42.63-26.89M535.84,3308l-60.29,31.65m119.69-59.37L553,3250.65m42.28,29.63L535.84,3308M20.42,3712.08,3.49,3767.16m86-129.13-20.24,66.58m0,0-48.86,7.47m48.86-7.47-58.15,62.55m146-194.84L137.42,3638m0,0-47.9,0m47.9,0-68.14,66.6M223.39,3514l-19.22,64.73m0,0-47-6.39m47,6.39L137.42,3638m150.84-175.82-18.68,63.7m0,0L223.39,3514m46.19,11.91-65.41,52.82m147.69-162.45-18.13,62.6m0,0-45.47-16.67m45.47,16.67-64.15,47m144.67-150.31L396.69,3437m0,0-44.83-20.77M396.69,3437l-63,41.83m141.82-139.21-17,60.25m0,0-44.31-24.32m44.31,24.32L396.69,3437m139.15-129-16.41,59m0,0-43.88-27.37M519.43,3367l-60.87,32.88M579.41,3338l-43.57-30m43.57,30-60,29M69.28,3704.61l-18,62.55M137.42,3638l-19.29,67.83m0,0-48.85-1.23m48.85,1.23-62.36,61.32m148.4-188.45-18.72,66.79m0,0-48-7.49m48,7.49-67.32,60.34m151.45-180-18.13,65.68m0,0-47.28-12.86m47.28,12.86-66,53.93m148.28-166.64-17.53,64.51m0,0-46.62-17.48m46.62,17.48-64.75,48.2M396.69,3437l-16.92,63.3m0,0-46-21.47m46,21.47-63.57,43M458.56,3399.9l-16.32,62m0,0L396.69,3437m45.55,24.9-62.47,38.4M519.43,3367l-15.71,60.72m0,0-45.16-27.84m45.16,27.84-61.48,34.19m122.08-64.53L519.43,3367m44.89,30.38-60.6,30.34m-385.59,278.1-16.49,61.32m83.81-121.66-18.21,68.92m0,0-49.11-8.58m49.11,8.58-58.31,52.74m142.52-175.59-17.58,67.73m0,0-48.42-13.8m48.42,13.8-66.63,55.12m149-171.05-16.94,66.49"/><path class="cls-5" d="M299.26,3609.86l-47.81-18.29m47.81,18.29-65.39,49.44m145.9-159-16.3,65.19m0,0-47.27-22.15m47.27,22.15-64.21,44.34m143-147.93-15.64,63.86m0,0-46.83-25.46m46.83,25.46-63.13,39.73m140.25-137.78-15,62.49m0,0-46.48-28.3m46.48,28.3-62.12,35.56M550,3458.47l-46.24-30.73M550,3458.47l-61.24,31.76M167.24,3714.42l-13.14,52.74m79.77-107.86-17,69.87m0,0-49.6-14.75m49.6,14.75-45.36,38m127.78-157.3-16.35,68.54m0,0-49-19.1m49,19.1-66.07,50.77m146.63-163.65-15.65,67.17m0,0-48.56-22.83m48.56,22.83-64.91,45.71M426.6,3525.79l-15,65.75m0,0-48.16-26m48.16,26-63.81,41.15m140.9-142.46-14.29,64.3m0,0-47.83-28.74m47.83,28.74-62.8,37m124.71-70.25-47.62-31.06m47.62,31.06-61.91,33.24M216.84,3729.17l-8.69,38m74.76-88.76-15.74,70.67m0,0-50.33-19.9m50.33,19.9L244,3767.16m103.82-134.47-15,69.21m0,0-49.89-23.5m49.89,23.5-65.63,47.17m144.46-157.53-14.29,67.71m0,0-49.52-26.56m49.52,26.56L332.8,3701.9m141.63-147.37-13.56,66.18m0,0-49.24-29.17m49.24,29.17-63.53,38.54m126.15-73.35-49.06-31.37m49.06,31.37-62.62,34.81m-193.7,128.36-3.76,18.09m69.39-65.26-13.14,65.26m-14.1,0-38.39-18.09m130.17-89.82L383.75,3729m0,0-50.95-27.1m50.95,27.1-56.34,38.16m133.46-146.45L448,3688.84m0,0-50.69-29.59M448,3688.84,383.75,3729m127.64-76.62-50.52-31.67m50.52,31.67L448,3688.84M383.75,3729l-6.85,38.16M448,3688.84,435.94,3759m0,0-52.19-30m52.19,30-12.71,8.18m76.85-46.37L448,3688.84m52.05,31.95L435.94,3759m0,0-1.28,8.18m65.42-46.37-6.92,46.37m-43.61,0L435.94,3759m922.51,8.18-35.62-72.9m0,0,34.66,72.9m-34.66-72.9,31.09,72.9M1301,3582.86l77.32,184.3M1301,3582.78l21.87,111.48m30.61,72.9-135.21-260.3m104.6,187.4-149.19-285.93m0,0,179.89,358.83m-179.89-358.83,44.59,98.53m-80.07-229,184.67,416.44m-184.69-416.49,35.5,130.56m44.59,98.53L1097.4,3290m76.24,118.34L1045,3179.06m0,0,173.19,327.8M1045,3179.06,1097.4,3290m-97-251.54,173.21,369.88m-173.23-369.91L1045,3179.06M1097.4,3290,990.21,3111.71m54.83,67.35L932.49,2993.72m0,0L1097.4,3290M932.49,2993.72l57.72,118m-108.5-263.1L1045,3179.06M881.69,2848.58l50.8,145.14m0,0L832.7,2843.1m0,0,157.51,268.61M832.7,2843.1l61.41,121.5M777.74,2697l154.75,296.7M777.74,2697l55,146.09m111.6,198.32-68.91-96.65m18.72,19.83-87-121.59m0,0,130.17,187.7M807.13,2843l68.26,101.76M832.7,2843.1l-89.48-122.7m0,0,150.89,244.2M743.22,2720.4,807.13,2843M685.47,2575.59,832.7,2843.1M685.46,2575.58l57.76,144.82M807.13,2843l-79.37-100.45m0,0,147.63,202.21M727.76,2742.56l69.83,102.92M743.22,2720.4l-81-99.92m0,0L807.13,2843M662.19,2620.48l65.57,122.08M602.6,2478.33,743.22,2720.4M602.6,2478.33l59.59,142.15m145.62,238.05-8.5-9.79m0,0,4.36,4.5m-75.91-110.68-73-82.72m0,0,142.79,185.64M654.8,2659.84l70.84,102.85m-63.45-142.21-74-81.11m0,0,139.58,203.19M588.18,2539.37l66.62,120.47M527.43,2400.76l134.76,219.72M527.43,2400.75l60.75,138.62m137.46,223.32L658.74,2694m0,0,140.57,154.72M658.74,2694l74.33,86.25M654.8,2659.84l-67.52-67.73m0,0,138.36,170.58M587.28,2592.11,658.74,2694m-70.56-154.65L520.06,2474m0,0L654.8,2659.84M520.06,2474l67.22,118.13M458.63,2339.43l129.55,199.94M458.62,2339.42,520.06,2474m138.68,220-62.53-56.47m0,0,136.86,142.72M596.21,2637.55l74.7,85.76m-83.63-131.2-62.84-54.92m0,0L658.74,2694m-134.3-156.83,71.77,100.36M520.06,2474l-63.14-52.1m0,0,130.36,170.23M456.92,2421.88l67.52,115.31M395.15,2291.65,520.06,2474M395.15,2291.65l61.77,130.23M736.7,2785l3.91,3m-69.7-64.75-58.57-46.88m0,0,134.87,118.46M612.34,2676.43,689,2747.9m-92.81-110.35-58.72-45.87m0,0,133.42,131.63M537.49,2591.68l74.85,84.75m-87.9-139.24-58.82-43.9m0,0,130.59,144.26M465.62,2493.29l71.87,98.39m-80.57-169.8L398,2381.11m0,0,126.4,156.08M398,2381.11l67.58,112.18m-129.45-238,120.75,166.56M336.17,2255.32,398,2381.11M742,2789.46l-2.09-1.46M689,2747.9l-55.3-38.62m0,0L715.17,2769m-81.45-59.74L711.39,2768m-99-91.58-55.37-38m0,0L689,2747.9M557,2638.45l76.75,70.83m-96.23-117.6-55.38-36.6m0,0,130.23,121.35M482.11,2555.08,557,2638.45m-91.35-145.16L410.3,2459m0,0,127.19,132.72M410.3,2459l71.81,96.12m-84.07-174-55.22-31m0,0,122.8,143.21m-122.8-143.21L410.3,2459M281,2228.75l117,152.36M281,2228.75l61.79,121.33M735,2782.79l1.2.73m-102.49-74.24-52.58-31.06m0,0L711.39,2768m-130.25-89.79,77.72,58.34M557,2638.45l-52.55-30.09m0,0,129.3,100.92m-129.3-100.92,76.72,69.86m-99-123.14-52.44-28.43m0,0L557,2638.45m-127.3-111.8,74.75,81.71M410.3,2459l-52.25-26m0,0,124.06,122.09M358.05,2433l71.62,93.66m-86.85-176.57-52.05-22.59m0,0L410.3,2459M290.77,2327.49,358.05,2433M229.17,2210.57l113.65,139.51M229.17,2210.57l61.6,116.92m445.54,456.13-.6-.3m-76.85-46.76-50.17-24.94m0,0,113.8,64.18m12.9,7.28.87.49m-127.57-72,77.88,47m-105.43-80.42L531,2654"/><path class="cls-5" d="M531,2654l127.86,82.6M531,2654l77.69,57.66M504.42,2608.36l-50-23.05m0,0,126.75,92.91m-126.75-92.91L531,2654M429.67,2526.65l-49.83-21.19m0,0,124.58,102.9m-124.58-102.9,74.55,79.85M358.05,2433l-49.58-18.61m0,0,121.2,112.27m-121.2-112.27,71.37,91.08m-89.07-178-49.29-15.19m0,0L358.05,2433M241.48,2312.3l67,102.08m-128.32-214.7,110.62,127.81M180.15,2199.68l61.33,112.62m490.08,470-15.65-6.4m-29.34-17.22-48.05-19.51m0,0,87.69,39.42m-87.69-39.42,77.39,36.73m-107.22-64.24-48-19m0,0,125.92,66m-125.92-66,77.87,46.54M531,2654l-47.94-18.13m0,0,125.63,75.79m-125.63-75.79,77.59,56.76M454.39,2585.31l-47.76-16.72m0,0L531,2654m-124.37-85.37,76.43,67.24M379.84,2505.46l-47.51-14.74m0,0,122.06,94.59m-122.06-94.59,74.3,77.87m-98.16-154.21-47.21-12.08m0,0,118.58,103.16M261.26,2402.3l71.07,88.42M241.48,2312.3l-46.87-8.7m0,0,113.86,110.78M194.61,2303.6l66.65,98.7M133.6,2195.17,241.48,2312.3M133.6,2195.17l61,108.43m521.3,472.26-46.16-14.66m0,0,62.17,21.35m-62.17-21.35,64.18,23m-95.41-45-46.17-14.32m0,0,123.56,51.05m-123.56-51.05,77.4,36.39m-109.1-68.61-46.1-13.65m0,0,124,60.19m-124-60.19,77.8,45.87m-109.29-89-45.95-12.57m0,0,123.54,69.33m-123.54-69.33,77.44,55.68M406.63,2568.59l-45.74-11m0,0,122.17,78.27m-122.17-78.27,76.22,65.7M332.33,2490.72l-45.46-8.95m0,0,119.76,86.82m-119.76-86.82,74,75.79M261.26,2402.3,216.15,2396m0,0,116.18,94.68M216.15,2396l70.72,85.73M194.61,2303.6l-44.76-2.92m0,0L261.26,2402.3M149.85,2300.68l66.3,95.36m-127-199.75L194.61,2303.6M89.19,2196.29l60.66,104.39M736.6,2786.33l-35-8.11m0,0,35.7,8.7m-35.7-8.7,36.13,9m-68-26.06-44.47-10.07m0,0,109.83,34m-109.83-34,76.35,27.09m-109.28-53.41-44.42-9.56m0,0,121.82,45.95m-121.82-45.95,77.35,35.88m-110.73-72.19-44.32-8.72m0,0,122.12,54.59m-122.12-54.59,77.7,45m-110.82-92L393,2615.74m0,0,121.6,63.2M393,2615.74l77.28,54.48M360.89,2557.56,317,2551.69m0,0,120.14,71.57M317,2551.69l76,64m-106.08-134L243.26,2478m0,0,117.63,79.52M243.26,2478,317,2551.69M216.15,2396,172.89,2395m0,0,114,86.78m-114-86.78L243.26,2478m-93.41-177.36L107,2302.91m0,0L216.15,2396M107,2302.91,172.89,2395M46.67,2202.41l103.18,98.27M46.67,2202.41l60.3,100.5m637.65,489.3-.3,0m-.6-.09-10.18-1.51m0,0,10.19,1.51m.59.09.31,0m-11.09-1.65,10.19,1.51m.59.09.31,0m-43-14-42.9-6.2m0,0,81.53,17.26m1.27.27.65.14M658.73,2772l74.81,18.55m-108.26-39.44-42.89-5.81m0,0,119.24,32.9m-119.24-32.9,76.34,26.7m-110.8-56.77-42.83-5.16m0,0,120.18,41m-120.18-41,77.29,35.23m-112.16-75.1L427.52,2666m0,0,120.41,49.24M427.52,2666l77.58,44.08M393,2615.74l-42.52-2.88m0,0,119.8,57.36m-119.8-57.36L427.52,2666M317,2551.69l-42.26-1.17m0,0L393,2615.74m-118.24-65.22,75.72,62.34M243.26,2478l-41.95,1m0,0L317,2551.69m-115.66-72.64,73.4,71.47M172.89,2395l-41.6,3.68m0,0,112,79.37m-112-79.37,70,80.38M107,2302.91l-41.23,6.87m0,0L172.89,2395M65.74,2309.78l65.55,88.89M46.67,2202.41,5.79,2213m0,0L107,2302.91M5.79,2213l60,96.78m667.8,480.79-41.46-2.68m0,0,54.43,6.44m-54.43-6.44,56.38,8.29M658.73,2772l-41.47-2.38m0,0,116.28,20.93m-116.28-20.93,74.82,18.25m-109.69-42.57L541,2743.46m0,0L658.73,2772M541,2743.46l76.3,26.18M505.1,2710.09,463.74,2709m0,0,118.65,36.32M463.74,2709,541,2743.46M427.52,2666l-41.22,0m0,0,118.8,44.11M386.3,2666l77.44,43m-113.31-96.14-41,1.36m0,0L427.52,2666M309.4,2614.22,386.3,2666M274.71,2550.52l-40.78,3.14m0,0,116.5,59.2m-116.5-59.2,75.47,60.56M201.31,2479.05l-40.47,5.32m0,0,113.87,66.15m-113.87-66.15,73.09,69.29m-102.64-155-40.13,7.95m0,0,110.15,72.43M91.16,2406.62l69.68,77.75m-95.1-174.59L26,2320.84m0,0,105.32,77.83M26,2320.84l65.19,85.78m-124.79-179,99.37,82.13m-99.37-82.13L26,2320.84m666.11,467-40.14.78m0,0,97.55,8.58m-97.55-8.58,72.87,10.48m-107.55-29.51-40.13,1.19m0,0,115,17.06m-115-17.06,74.81,17.84m-111-45.21-40.09,1.82m0,0,116.39,24.36m-116.39-24.36,76.26,25.55M463.74,2709l-40,2.69m0,0L541,2743.46m-117.22-31.77,77.13,33.59M386.3,2666l-39.87,3.84m0,0L463.74,2709m-117.31-39.18,77.31,41.87M309.4,2614.22l-39.68,5.3m0,0L386.3,2666m-116.58-46.46,76.71,50.3m-112.5-116.16-39.44,7.1m0,0,114.91,53.46m-114.91-53.46,75.23,58.76M160.84,2484.37l-39.14,9.29m0,0,112.23,60m-112.23-60,72.79,67.1M91.16,2406.62,52.35,2418.5m0,0,108.49,65.87M52.35,2418.5l69.35,75.16M26,2320.84l-38.46,14.88m0,0,103.65,70.9m-103.65-70.9,64.84,82.78M-71.78,2246,26,2320.84M-71.78,2246l59.29,89.76m664.43,453-38.89,4m0,0,111.76,6.45m-111.76-6.45,72.88,10.15m-108.8-32-38.88,4.56"/><path class="cls-5" d="M538.25,2775.39l113.69,13.28m-113.69-13.28,74.8,17.31m-112.18-47.42L462,2750.55m0,0,115.1,20.28M462,2750.55l76.22,24.84m-114.51-63.7L385,2717.91m0,0,115.89,27.37M385,2717.91l77,32.64m-115.6-80.73-38.63,7.43m0,0,115.94,34.44M307.8,2677.25,385,2717.91m-115.26-98.39-38.45,8.93m0,0,115.16,41.37m-115.16-41.37,76.53,48.8M194.49,2560.76l-38.21,10.76m0,0,113.44,48m-113.44-48,75,56.93M121.7,2493.66,83.76,2506.6m0,0,110.73,54.16M83.76,2506.6l72.52,64.92m-103.93-153L14.72,2434m0,0,107,59.68M14.72,2434l69,72.62m-96.25-170.88-37.32,18.4m0,0L52.35,2418.5m-102.16-64.38L14.72,2434m-123.51-166.33,96.3,68.07m-96.3-68.07,59,86.47M613.05,2792.7l-37.72,7.11m0,0,110.6,3m-110.6-3,72.88,9.72m-110-34.14-37.72,7.7m0,0,112.52,9.61m-112.52-9.61,74.8,16.72M462,2750.55l-37.68,8.5m0,0,113.9,16.34m-113.9-16.34,76.18,24M385,2717.91l-37.61,9.52m0,0L462,2750.55m-114.66-23.12,77,31.62m-116.55-81.8L270.31,2688m0,0L385,2717.91M270.31,2688l77.06,39.39m-116.1-99L194,2640.78m0,0,113.84,36.47M194,2640.78,270.31,2688m-114-116.52-37.1,14.17m0,0,112.09,42.76m-112.09-42.76L194,2640.78M83.76,2506.6l-36.85,16.33m0,0,109.37,48.59M46.91,2522.93l72.27,62.76M14.72,2434l-36.57,18.81m0,0L83.76,2506.6m-105.61-53.81,68.76,70.14m-96.72-168.81-36.28,21.63m0,0L14.72,2434m-100.81-58.23,64.24,77m-123-160.35,95,61.68m-95-61.68,58.71,83.31m661.42,424.06-36.64,10m0,0,109.52-.29m-109.52.29,72.9,9.21m-111.06-35.94-36.63,10.69m0,0,111.43,6m-111.43-6,74.79,16m-114.34-50.77-36.61,11.55m0,0,112.79,12.49M387.74,2770.6l76.16,23.18m-116.53-66.35-36.54,12.63m0,0,113.52,19m-113.52-19,76.91,30.54M270.31,2688,233.88,2702m0,0,113.49,25.45M233.88,2702l76.95,38.08M194,2640.78l-36.29,15.51m0,0L270.31,2688m-112.64-31.75L233.88,2702m-114.7-116.29L83.08,2603m0,0L194,2640.78M83.08,2603l74.59,53.25M46.91,2522.93,11,2542.41m0,0,108.15,43.28M11,2542.41,83.08,2603M-21.85,2452.79l-35.63,21.92m0,0,104.39,48.22m-104.39-48.22L11,2542.41m-97.12-166.66-35.38,24.65m0,0,99.62,52.39m-99.62-52.39,64,74.31m-122.46-154.6,93.85,55.64m-93.85-55.64,58.47,80.29m660.16,409.42-35.61,12.77m0,0L611.59,2819m-108.51,3.56,72.92,8.64m-112.1-37.45-35.62,13.51m0,0,110.41,2.53m-110.41-2.53,74.8,15.3m-115.34-52L352.14,2785m0,0,111.76,8.74M352.14,2785l76.14,22.25m-117.45-67.23-35.55,15.56m0,0,112.46,15m-112.46-15L352.14,2785M233.88,2702l-35.48,16.91m0,0,112.43,21.17M198.4,2718.89l76.88,36.73m-117.61-99.33-35.35,18.5m0,0L233.88,2702m-111.56-27.19,76.08,44.1M83.08,2603l-35.2,20.35m0,0,109.79,32.9m-109.79-32.9,74.44,51.4M11,2542.41l-35,22.45m0,0L83.08,2603m-107-38.18,71.85,58.53M-57.48,2474.71l-34.79,24.83m0,0L11,2542.41m-103.3-42.87,68.3,65.32m-97.5-164.46L-156,2427.88m0,0,98.56,46.83M-156,2427.88l63.77,71.66m-122-149.06,92.84,49.92m-92.84-49.92,58.27,77.4m659.12,394.71L468.43,2838m0,0L576,2831.23M468.43,2838l72.95,8m-113.1-38.69-34.67,16.19m0,0,109.47-.89m-109.47.89,74.82,14.5M352.14,2785l-34.67,17.17m0,0,110.81,5.08m-110.81-5.08,76.14,21.27m-118.33-67.86L240.63,2774m0,0L352.14,2785M240.63,2774l76.84,28.24M198.4,2718.89l-34.58,19.72m0,0,111.46,17m-111.46-17L240.63,2774m-118.31-99.18-34.49,21.33m0,0,110.57,22.77M87.83,2696.12l76,42.49M47.88,2623.39l-34.36,23.16m0,0,108.8,28.24m-108.8-28.24,74.31,49.57M-24,2564.86l-34.2,25.25m0,0,106.05,33.28m-106-33.28,71.69,56.44m-105.79-147-34,27.57m0,0L-24,2564.86m-102.33-37.75,68.13,63M-156,2427.88-189.89,2458m0,0,97.62,41.54M-189.89,2458l63.59,69.11M-248,2383.4l92,44.48m-92-44.48,58.11,74.6m658.32,380-33.75,17.91m0,0,106.7-9.91m-106.7,9.91,73,7.3m0,0L541.38,2846m-147.77-22.5-33.78,18.76m0,0,108.6-4.26m-108.6,4.26,74.85,13.65m-117.21-53.68L283.66,2822m0,0,110,1.48M283.66,2822l76.17,20.24M240.63,2774l-33.8,21m0,0,110.64,7.25M206.83,2795l76.83,27m-119.84-83.39L130.05,2761m0,0L240.63,2774M130.05,2761,206.83,2795m-119-98.84-33.71,24m0,0,109.7,18.47m-109.7-18.47L130.05,2761M13.52,2646.55l-33.61,25.85m0,0,107.92,23.72M-20.09,2672.4l74.21,47.74m-112.29-130L-91.67,2618m0,0,105.19,28.55M-91.67,2618l71.58,54.4M-126.3,2527.11l-33.36,30.16m0,0,101.49,32.84m-101.49-32.84,68,60.73m-98.22-160-33.22,32.65m0,0,96.81,36.46m-96.81-36.46,63.45,66.62M-281.1,2418.73l91.21,39.27m-91.21-39.27,58,71.92m657.79,365.24-32.89,20.31m0,0,105.9-13m-105.9,13,73.07,6.55m-115-40.51-33,21.22m0,0,107.81-7.57m-107.81,7.57,74.92,12.74M283.66,2822l-33,22.29m0,0,109.17-2.05m-109.17,2.05,76.21,19.17m-120-68.5-33,23.53m0,0L283.66,2822"/><path class="cls-5" d="M173.8,2818.49l76.86,25.8M130.05,2761l-33,25m0,0,109.81,9M97,2786l76.78,32.51M54.12,2720.14l-33,26.58m0,0L130.05,2761m-108.93-14.3L97,2786M-20.09,2672.4-53,2700.8m0,0,107.15,19.34M-53,2700.8l74.15,45.92M-91.67,2618l-32.86,30.43m0,0,104.44,24m-104.44-24L-53,2700.8m-106.63-143.53-32.77,32.65m0,0L-91.67,2618m-100.76-28.08,67.9,58.51m-98.58-157.78-32.68,35.06m0,0,96.13,31.56m-96.13-31.56,63.36,64.21m-121.26-133.55,90.58,34.28m-90.58-34.28,57.9,69.34M401.79,2876.2l-32.1,22.64m0,0,105.17-16.09m-105.17,16.09,73.15,5.75m-116-41.13L294.69,2887m0,0,107.1-10.84M294.69,2887l75,11.8m-119-54.55L218.41,2869m0,0,108.46-5.52M218.41,2869,294.69,2887M173.8,2818.49l-32.3,26m0,0,109.16-.17m-109.16.17L218.41,2869M97,2786l-32.33,27.41m0,0,109.11,5.1m-109.11-5.1,76.81,31.07M21.12,2746.72l-32.34,29m0,0L97,2786m-108.24-10.22,75.91,37.63M-53,2700.8l-32.33,30.86m0,0,106.48,15.06m-106.48-15.06,74.14,44.1m-113.31-127.33-32.29,32.85m0,0L-53,2700.8m-103.79-19.52,71.46,50.38m-107.07-141.74-32.24,35m0,0,100.14,23.48M-224.67,2625l67.85,56.33m-99-155.57L-288,2563.08m0,0,95.54,26.84M-288,2563.08l63.3,61.87m-121.17-128.72,90,29.48m-90-29.48,57.87,66.85m657.66,335.76-31.35,24.87m0,0,104.5-19.12m-104.5,19.12,73.26,4.9M294.69,2887l-31.46,25.87m0,0,106.46-14.07m-106.46,14.07,75.11,10.8M218.41,2869l-31.56,27m0,0L294.69,2887M186.85,2896l76.38,16.93M141.5,2844.46l-31.64,28.31m0,0L218.41,2869m-108.55,3.79,77,23.21M64.69,2813.39,33,2843.17m0,0,108.52,1.29M33,2843.17l76.88,29.6m-121.08-97L-43,2807.18m0,0,107.66,6.21M-43,2807.18l75.95,36M-85.36,2731.66l-31.77,33.22m0,0,105.91,10.88m-105.91-10.88,74.16,42.3m-113.85-125.9-31.78,35.2m0,0,103.24,15.18m-103.24-15.18,71.47,48.4M-224.67,2625l-31.78,37.32m0,0,99.63,19m-99.63-19,67.85,54.21M-288,2563.08l-31.78,39.61m0,0,95.08,22.26m-95.08-22.26,63.3,59.58m-121.16-124,89.64,24.83m-89.64-24.83,57.86,64.44m658.09,321-30.64,27m0,0,103.9-22.14m-103.9,22.14,73.4,4m-117.87-41.86L232.46,2941m0,0,105.88-17.27M232.46,2941l75.24,9.77M186.85,2896,156,2925.24m0,0,107.28-12.33M156,2925.24,232.46,2941m-122.6-68.21-31,30.59m0,0,108-7.38m-108,7.38L156,2925.24M33,2843.17,1.85,2875.24m0,0,108-2.47m-108,2.47,77,28.12M-43,2807.18l-31.22,33.71m0,0L33,2843.17m-107.17-2.28,76,34.35m-119-110.36-31.29,35.52m0,0L-43,2807.18m-105.45-6.78,74.23,40.49M-188.6,2716.48l-31.34,37.46m0,0,102.81,10.94m-102.81-10.94,71.52,46.46m-108-138.13-31.38,39.56m0,0,99.23,14.65m-99.23-14.65,67.89,52.11m-99.81-151.25-31.42,41.78m0,0,94.72,17.8m-94.72-17.8,63.34,57.36m-121.25-119.46,89.33,20.32m-89.33-20.32,57.91,62.1M307.7,2950.75l-30,29.16m0,0,103.38-25.14m-103.38,25.14,73.56,3.08m-118.82-42-30.15,30.23m0,0,105.39-20.46m-105.39,20.46,75.41,8.7M156,2925.24l-30.31,31.44m0,0L232.46,2941m-106.82,15.7,76.67,14.53M78.83,2903.36l-30.46,32.79m0,0L156,2925.24M48.37,2936.15l77.27,20.53M1.85,2875.24l-30.6,34.31m0,0,107.58-6.19m-107.58,6.19,77.12,26.6m-122.56-95.26-30.73,36m0,0,106.77-1.61m-106.77,1.61,76.17,32.7M-148.42,2800.4l-30.84,37.75m0,0,105.07,2.74m-105.07-2.74,74.34,38.7m-115-122.91-30.94,39.69m0,0,102.46,6.77m-102.46-6.77,71.62,44.52m-108.57-136.32-31,41.74m0,0,98.92,10.37m-98.92-10.37,68,50.06m-100.29-149.16-31.12,43.92m0,0,94.46,13.44m-94.46-13.44,63.43,55.18m-121.44-115,89.13,15.91m-89.13-15.91,58,59.83m660,291.52-29.35,31.22m0,0L351.28,2983m-102.91,28.14,73.76,2.1m-119.82-42-29.54,32.33m0,0,105-23.63m-105,23.63,75.6,7.59m-122.73-54.45L95.9,2990.26m0,0,106.41-19.05M95.9,2990.26l76.87,13.28m-124.4-67.39-29.93,35m0,0,107.2-14.44m-107.2,14.44,77.46,19.14m-124.65-80.71L-58.87,2946m0,0,107.24-9.88M-58.87,2946l77.31,25.09m-123.36-94.27L-135.21,2915m0,0,106.46-5.45M-135.21,2915l76.34,31m-120.39-107.88-30.45,39.94m0,0,104.79-1.24m-104.79,1.24,74.5,36.91m-115.67-121.37-30.6,41.85m0,0,102.22,2.67m-102.22-2.67,71.77,42.61m-109.15-134.52-30.75,43.89m0,0,98.73,6.17m-98.73-6.17,68.13,48m-100.81-147.09-30.89,46m0,0,94.32,9.17m-94.32-9.17,63.57,53.06m-121.72-110.68,89,11.61m-89-11.61,58.15,57.62m661.55,276.73-28.75,33.24m0,0,102.51-31.14m-102.51,31.14,74,1.09m0,0,28.54-32.23m-149.36-9.69-29,34.4m0,0,104.59-26.81m-104.59,26.81,75.84,6.43M95.9,2990.26l-29.22,35.67m0,0,106.09-22.39M66.68,3025.93l77.1,12M18.44,2971.12-11,3008.2m0,0L95.9,2990.26M-11,3008.2l77.7,17.73M-58.87,2946l-29.68,38.64m0,0,107-13.55m-107,13.55L-11,3008.2M-135.21,2915l-29.9,40.3m0,0L-58.87,2946m-106.24,9.27,76.56,29.37"/><path class="cls-5" d="M-209.71,2878.09l-30.11,42.09m0,0,104.61-5.18m-104.61,5.18,74.71,35.12m-116.37-119.82-30.31,44m0,0,102.08-1.39m-102.08,1.39,72,40.7m-109.79-132.72-30.5,46m0,0,98.63,2m-98.63-2,68.32,46M-413.18,2734.4l-30.69,48.1m0,0,94.26,5m-94.26-5,63.76,51M-502.21,2727l89,7.37m-89-7.37,58.34,55.47m663.49,261.87-28.21,35.24m0,0,102.18-34.15m-102.18,34.15,74.23,0m-121.86-41.69-28.47,36.42m0,0,104.31-30m-104.31,30,76.1,5.25M66.68,3025.93l-28.74,37.74m0,0,105.84-25.73M37.94,3063.67l77.37,10.69M-11,3008.2l-29,39.18m0,0,106.71-21.45M-40,3047.38l78,16.29m-126.49-79-29.29,40.74m0,0L-11,3008.2m-106.82,17.21,77.81,22m-125.08-92.08-29.55,42.43m0,0,106.11-13.06m-106.11,13.06,76.82,27.68m-122-105.23-29.82,44.23m0,0,104.53-9.11m-104.53,9.11,75,33.32m-117.13-118.25-30.07,46.13m0,0,102-5.43m-102,5.43,72.22,38.8m-110.47-130.94-30.31,48.11m0,0,98.63-2.1m-98.63,2.1,68.56,44m-102-143.11-30.55,50.17m0,0,94.31.8m-94.31-.8,64,48.91M-533,2779.32l89.14,3.18m-89.14-3.18,58.59,53.35m665.83,246.94-27.68,37.2m0,0,101.91-37.18m-101.91,37.18,74.51-1.08m-122.93-41.37-28,38.42m0,0,104.08-33.17M87.33,3112.78l76.4,4M37.94,3063.67l-28.3,39.77m0,0,105.67-29.08M9.64,3103.44l77.69,9.34M-40,3047.38l-28.62,41.26m0,0,106.59-25m-106.59,25,78.29,14.8m-127.48-78-28.93,42.84m0,0L-40,3047.38m-106.74,20.87,78.12,20.39m-126-90.91-29.25,44.55m0,0,106.07-16.87m-106.07,16.87,77.14,26m-122.87-103.84-29.56,46.35m0,0,104.54-13m-104.54,13,75.29,31.52m-118-116.67-29.87,48.25m0,0,102.09-9.45m-102.09,9.45,72.53,36.9m-111.22-129.18-30.17,50.22m0,0,98.73-6.19m-98.73,6.19,68.86,42.06m-102.69-141.19-30.46,52.24m0,0,94.46-3.33m-94.46,3.33,64.29,46.89m-123.17-98.16,89.34-1m-89.34,1,58.88,51.27m668.61,231.9L136.54,3156m0,0,101.7-40.22M136.54,3156l74.84-2.22m-124-40.95L59.8,3153.2m0,0,103.93-36.39M59.8,3153.2l76.74,2.75M9.64,3103.44l-27.88,41.81m0,0,105.57-32.47m-105.57,32.47,78,7.95m-128.45-64.56L-96.89,3132m0,0L9.64,3103.44M-96.89,3132l78.65,13.3m-128.53-77-28.62,44.93m0,0,106.74-24.54m-106.74,24.54,78.5,18.77m-127-89.67-29,46.65m0,0,106.13-20.68m-106.13,20.68,77.51,24.25M-299.2,3010.76l-29.35,48.47m0,0,104.64-16.95m-104.64,16.95,75.65,29.7m-118.83-115.07-29.71,50.36m0,0,102.24-13.46m-102.24,13.46,72.89,35m-112-127.43-30.06,52.32m0,0,98.92-10.26m-98.92,10.26,69.21,40.1m-103.44-139.31-30.42,54.34m0,0,94.71-7.45m-94.71,7.45,64.65,44.87M-594.52,2890l89.64-5.1m-89.64,5.1,59.22,49.24M136.54,3156,109.82,3197m0,0,101.56-43.3M109.82,3197l75.19-3.41M59.8,3153.2l-27.11,42.39m0,0L136.54,3156M32.69,3195.59l77.13,1.44m-128.06-51.78-27.51,43.82m0,0L59.8,3153.2m-105.55,35.87,78.44,6.52M-96.89,3132l-27.92,45.36m0,0,106.57-32.06m-106.57,32.06,79.06,11.76m-129.64-75.89-28.33,47m0,0L-96.89,3132m-106.83,28.25,78.91,17.11m-128.09-88.38-28.75,48.76m0,0,106.26-24.51m-106.26,24.51,77.93,22.51m-124.83-101-29.17,50.59m0,0,104.82-20.89m-104.82,20.89,76.07,27.87m-119.79-113.47L-431,3076.71m0,0,102.48-17.48M-431,3076.71l73.31,33.11m-112.93-125.7-30,54.45m0,0,99.22-14.35m-99.22,14.35,69.63,38.14M-535.3,2939.25l-30.41,56.45m0,0,95.06-11.58m-95.06,11.58,65.05,42.87m-124.68-90.09,90-9.23m-90,9.23,59.63,47.22M109.82,3197l-26.29,43m0,0L185,3193.62M83.53,3240.05l75.59-4.65M32.69,3195.59,6,3240m0,0L109.82,3197M6,3240l77.55.09m-129.28-51-27.15,45.84m0,0,105.59-39.32M-72.9,3234.91,6,3240m-130.79-62.65-27.61,47.42m0,0,106.67-35.66m-106.67,35.66,79.52,10.18m-130.82-74.71-28.09,49.1m0,0,107-32m-107,32,79.39,15.43m-129.23-87-28.56,50.88m0,0,106.49-28.37m-106.49,28.37,78.4,20.73m-125.91-99.48-29,52.73m0,0,105.11-24.86m-105.11,24.86,76.55,26M-431,3076.71l-29.52,54.65m0,0,102.83-21.54m-102.83,21.54,73.79,31.19m-113.9-124-30,56.61m0,0,99.62-18.47m-99.62,18.47,70.1,36.18M-565.71,2995.7l-30.46,58.6m0,0,95.51-15.73m-95.51,15.73,65.52,40.88m-125.61-86.1,90.55-13.38m-90.55,13.38,60.09,45.22m679.7,185.75L57.65,3285m0,0,101.47-49.6M57.65,3285l76-5.93M6,3240l-26.34,46.35m0,0,103.89-46.26m-103.89,46.26,78-1.31M-72.9,3234.91l-26.84,47.87m0,0L6,3240m-105.72,42.82,79.38,3.53m-132.06-61.58-27.35,49.5m0,0,106.87-39.32m-106.87,39.32,80,8.55m-132.07-73.48-27.87,51.22m0,0,107.26-35.79m-107.26,35.79,79.91,13.71m-130.44-85.66-28.41,53m0,0,106.81-32.28m-106.81,32.28,78.94,18.94m-127.08-98-28.95,54.9m0,0,105.5-28.88m-105.5,28.88,77.09,24.13m-121.93-110.22L-490,3188.19m0,0,103.27-25.64M-490,3188.19l74.32,29.26m-114.94-122.27-30,58.8m0,0,100.12-22.62"/><path class="cls-5" d="M-560.67,3154l70.64,34.21M-596.17,3054.3l-30.55,60.79m0,0,96.07-19.91m-96.07,19.91,66.05,38.89m-126.65-82.12,91.15-17.56m-91.15,17.56,60.6,43.23M57.65,3285l-25.49,46.89m0,0,101.52-52.82M32.16,3331.89l76.51-7.26m-129-38.32-26,48.35m0,0,104-49.66m-104,49.66,78.53-2.77m-131.9-49.11-26.55,49.92m0,0,105.93-46.39m-105.93,46.39,79.92,2m-133.4-60.43-27.11,51.58m0,0,107.14-43m-107.14,43,80.59,6.89m-133.39-72.18-27.69,53.34m0,0,107.6-39.63m-107.6,39.63,80.49,11.95m-131.74-84.23-28.29,55.19m0,0,107.23-36.25m-107.23,36.25,79.54,17.09m-128.34-96.41-28.89,57.09m0,0,106-33m-106,33,77.69,22.23M-490,3188.19l-29.49,59m0,0,103.81-29.79m-103.81,29.79,74.92,27.3M-560.67,3154l-30.08,61m0,0L-490,3188.19M-590.75,3215l71.23,32.22m-107.2-132.15-30.67,63m0,0,96.72-24.15m-96.72,24.15,66.64,36.89m-127.83-78.13,91.86-21.8m-91.86,21.8,61.19,41.24M32.16,3331.89,7,3380.75m0,0,101.64-56.12M7,3380.75l77-8.66m-130.43-37.43L-72.06,3385m0,0,104.22-53.13M-72.06,3385,7,3380.75m-133.32-48.05-26.28,52m0,0,106.2-50m-106.2,50,80.51.34m-134.82-59.21-26.9,53.7m0,0,107.49-46.81m-107.49,46.81,81.21,5.17m-134.8-70.82-27.54,55.51m0,0,108-43.56m-108,43.56,81.13,10.14m-133.13-82.74-28.2,57.39m0,0,107.74-40.3m-107.74,40.3,80.2,15.21m-129.69-94.83-28.86,59.34m0,0,106.55-37.11m-106.55,37.11,78.35,20.28m-124.41-106.92L-549,3308.57m0,0,104.45-34m-104.45,34,75.59,25.31M-590.75,3215l-30.2,63.34m0,0,101.43-31.12m-101.43,31.12,71.9,30.21m-108.34-130.44-30.86,65.35m0,0,97.5-28.46m-97.5,28.46,67.3,34.88m-129.13-74.14,92.69-26.09m-92.69,26.09,61.83,39.26M7,3380.75l-24.79,50.83m0,0,101.82-59.49m-101.82,59.49,77.6-10.1M-72.06,3385l-25.39,52.4m0,0L7,3380.75m-104.48,56.67,79.69-5.84m-134.81-46.9-26,54.07m0,0L-72.06,3385m-106.55,53.73,81.16-1.33m-136.33-57.91-26.72,55.85m0,0,107.93-50.68m-107.93,50.68,81.89,3.39m-136.3-69.38-27.42,57.71m0,0,108.55-47.57m-108.55,47.57,81.83,8.28m-134.61-81.2-28.14,59.65m0,0,108.34-44.44m-108.34,44.44,80.92,13.27m-131.13-93.2-28.88,61.63m0,0,107.23-41.35m-107.23,41.35,79.09,18.3M-549,3308.57l-29.62,63.65m0,0,105.21-38.34m-105.21,38.34,76.33,23.29m-118.61-117.15-30.36,65.7m0,0L-549,3308.57m-102.26,35.49,72.64,28.16m-109.58-128.74-31.08,67.73m0,0,98.38-32.85m-98.38,32.85,68,32.85M-781.87,3274l93.62-30.48M-781.87,3274l62.54,37.25m701.57,120.37-24.46,52.84m0,0,102.06-62.94m-102.06,62.94L36,3472.82m-133.44-35.4-25.13,54.47m0,0,104.82-60.31m-104.82,60.31,80.36-7.47m-136.39-45.67-25.83,56.2m0,0,107-57.53m-107,57.53,81.86-3.06m-137.92-56.53-26.57,58m0,0,108.46-54.64m-108.46,54.64,82.63,1.56m-137.89-67.87-27.34,60m0,0,109.17-51.68M-369.67,3487l82.6,6.35m-136.18-79.58-28.12,62m0,0,109-48.68m-109,48.68,81.7,11.28m-132.67-91.53-28.93,64m0,0,108-45.69m-108,45.69,79.9,16.26m-127.3-103.54-29.74,66.06m0,0,106.07-42.77m-106.07,42.77,77.14,21.22m-120-115.44-30.54,68.13m0,0,103.18-40m-103.18,40,73.44,26.09m-110.92-127.07-31.34,70.2m0,0,99.36-37.35m-99.36,37.35,68.82,30.78m-132.14-66,94.66-35m-94.66,35,63.32,35.22m708.45,103-24.17,54.89m0,0L36,3472.82m-102.38,66.49,78.88-13.18m-135.07-34.24-24.89,56.58m0,0,105.25-64m-105.25,64,81.08-9.16m-138-44.36-25.64,58.38m0,0,107.5-61.44m-107.5,61.44,82.61-4.86m-139.6-55.08-26.45,60.29m0,0L-204.44,3495m-109.08,58.73,83.44-.35M-369.67,3487l-27.28,62.26m0,0,109.88-55.91m-109.88,55.91,83.43,4.38m-137.85-77.92-28.14,64.32m0,0,109.84-53m-109.84,53,82.56,9.22m-134.32-89.8-29,66.42m0,0,108.91-50.16m-108.91,50.16,80.77,14.16m-128.9-101.8-29.9,68.54m0,0,107-47.32m-107,47.32,78,19.1m-121.57-113.73-30.79,70.67m0,0,104.23-44.58m-104.23,44.58,74.33,24m-112.36-125.41-31.66,72.77m0,0,100.48-42m-100.48,42,69.69,28.68M-846.5,3421l95.83-39.6M-846.5,3421l64.17,33.17m715.94,85.13-23.89,57m0,0,102.77-70.14m-102.77,70.14,79.6-14.82m-136.79-33-24.66,58.73m0,0,105.74-67.89m-105.74,67.89,81.85-10.93m-139.8-42.94-25.48,60.61m0,0,108.09-65.47m-108.09,65.47,83.43-6.74m-141.39-53.52-26.34,62.58m0,0,109.78-62.93m-109.78,62.93,84.3-2.32m-141.39-64.64-27.25,64.64m0,0,110.68-60.26m-110.68,60.26,84.34,2.32m-139.65-76.18-28.18,66.75m0,0,110.74-57.53m-110.74,57.53,83.49,7.11m-136.08-88-29.13,68.92m0,0,109.9-54.76m-109.9,54.76,81.72,12m-130.62-100-30.1,71.11m0,0,108.13-52m-108.13,52,79,16.91m-123.23-112-31.06,73.29m0,0,105.39-49.33m-105.39,49.33,75.29,21.78m-113.92-123.75-32,75.44m0,0,101.71-46.76m-101.71,46.76,70.65,26.53m-135.76-57.6,97.13-44.37m-97.13,44.37,65.11,31.07m724.07,66.65-23.63,59.1m0,0,103.23-73.92"/><path class="cls-5" d="M-113.91,3655.37l80.37-16.54m-138.59-31.63-24.45,60.93m0,0,106.3-71.86m-106.3,71.86,82.67-12.76m-141.65-41.43-25.34,62.89m0,0,108.77-69.63m-108.77,69.63,84.32-8.7m-143.28-51.87-26.27,64.95m0,0,110.57-67.27m-110.57,67.27,85.23-4.38m-143.3-62.89L-451.45,3681m0,0,111.59-64.76M-451.45,3681l85.32.19m-141.56-74.38-28.26,69.29m0,0,111.75-62.18m-111.75,62.18,84.5,4.9m-138-86.18-29.3,71.52m0,0,111-59.53m-111,59.53,82.76,9.76m-132.46-98.19-30.34,73.77m0,0,109.34-56.86m-109.34,56.86,80,14.66m-125-110.21-31.4,76m0,0,106.69-54.24m-106.69,54.24,76.35,19.53m-115.6-122.08-32.44,78.23m0,0,103.09-51.7m-103.09,51.7,71.69,24.32m-137.8-53.25,98.55-49.3m-98.55,49.3,66.11,28.93m732.88,47.52-23.38,61.28m0,0,103.75-77.82m-103.75,77.82,81.19-18.34m-140.48-30.18-24.27,63.21m0,0,106.94-76m-106.94,76,83.56-14.69m-143.61-39.82-25.23,65.25m0,0,109.55-73.95m-109.55,73.95,85.28-10.74m-145.28-50.13-26.23,67.38m0,0,111.46-71.76m-111.46,71.76,86.23-6.51M-451.45,3681l-27.28,69.62m0,0,112.6-69.43m-112.6,69.43,86.37-2m-143.59-72.47L-564.33,3748m0,0,112.88-67m-112.88,67,85.6,2.63m-140-84.28-29.49,74.22m0,0,112.25-64.46m-112.25,64.46,83.87,7.43m-134.42-96.31-30.63,76.56m0,0,110.67-61.9m-110.67,61.9,81.18,12.32m-126.9-108.41L-806.87,3711m0,0,108.12-59.34M-806.87,3711l77.49,17.22m-117.41-120.41L-879.68,3689m0,0,104.58-56.83M-879.68,3689l72.81,22m-140-48.75,100.11-54.44m-100.11,54.44,67.22,26.71m742.39,27.65-18.41,50.51m11.84,0,87.76-68.85m-51.54,68.85,29.27-7.21m-142.48-28.61L-234,3767.16m28.95,0,67.79-50.51m-168.84,25.43-9.31,25.08m44.15,0,50.44-35.82m-171.51,17.25-7,18.57m56.29,0,36.9-25.08m-172.6,8.56-6.25,16.52m64.19,0,28.43-18.57m-172-.58-7.32,19.15m66.73,0,26.19-16.52m-169.47-10.06-10.26,26.58m62.88,0,31.25-19.15m-165-19.75-15.16,38.9m51.94,0,44.4-26.58M-806.87,3711l-22.06,56.12m33.55,0,66-38.9M-879.68,3689l-31,78.16m8,0,95.86-56.12m-174.63,37.75L-879.68,3689m-101.82,59.79,51.42,18.37m842.91,0,8.8-7.21m-2.48,7.21,2.48-7.21m-903.13-11.16-7.22,18.37M705,2754.57l-.14.29m0,0-.1.22m-3.31,7-.08.17M696,2759l0-.18m1.43-10.6,0-.22m0,0,0-.29m24,22-.2.44m0,0-.15.32m-10.68-2.7,0-.24m1-6.13,0-.32m0,0,.07-.45m12.77,12.87.08-.42m0,0,.1-.57M1393,3767.16l-92-184.3m0-.1-162.79-304.94m0-.08-137.69-239.29m0-.06L881.71,2848.61m0-.05L777.74,2697m0,0-92.25-121.4m0,0-82.85-97.23m0,0-75.16-77.55m0,0-68.79-61.32m0,0-63.47-47.77m0,0-59-36.32m0,0L281,2228.75m0,0-51.85-18.18m0,0-49-10.89m-42.69-4.13-3.87-.38m0,0-30.89.78m0,0-13.51.34m0,0-33.14,4.76m0,0-9.39,1.35M5.79,2213l-11.71,4.35m-27.72,10.3-30.11,14.46m0,0-8,3.85m0,0-25.77,15.1m-11.24,6.59-14.23,9.79m0,0-21.79,15m-24.77,19.5-10.37,8.17m0,0-12.82,11.33m0,0-21.54,19m0,0-4.6,4.5M-248,2383.4l-4,4.24m-29.12,31.09-15.55,18m0,0-17,19.68m0,0-4.45,5.51m0,0-27.7,34.35m-18.91,25-12.87,17m0,0-22.21,31.14m0,0-9.26,13m-93.05,144.54.14-.23m-19.58,33.22L-533,2779.32m-21.58,38.12-9.18,16.2m-30.59,56.07-.17.3m114.17-198.54,53.08-112.17m-58.52,121,25.75-58.88m-163.24,303.16-2.05,3.89m132.18-236.19,33.11-70.86m-42.09,85.48,9.42-21.56m-159.81,296.42-3.73,7.31m163.54-303.73-17.49,35.25m-8.82,15,55.11-135.65m-57.66,140,24.53-73m-7.52,44.14,11.85-25.68M-685.31,3067.8l-2,4.06M-536.78,2786l39.73-99.09m-48.3,114.22,15.2-45.41m-184.78,373.59-3.65,7.6m164-319.45,24.44-61.74m-38.54,87,5.4-16.2M-748.67,3201.2l-1.41,3m186.79-377.77-17.56,38.48m-10.62,19.46L-546,2750.47m-48.34,139.24,14.69-65.39m7.69,24.37,8.69-22.23m-186.79,377.77-15.29,33.54m0,0-16.5,36.19m167.74-346.76,34.46-102.88m-43.62,120.27,9.85-44.35m-180.62,401.13L-814,3346.19m177.13-375.14,23.42-70.81m-39.09,101.53,5.13-23.4m-176,389.39L-846.51,3421m186.82-405,12.29-37.64m-34.74,83,.55-2.55m-172.53,380.09-25.34,59.62m197.87-439.71-3.72,9m-24.33,50.47,34.52-125.9m-39.81,136.92,4.88-53m27.14-13.33,1.32-4.11m-210.73,470.61-20.58,49.48m175.66-402.15,27.19-100.5m-38.62,124.92,3.33-38.4m-186,461.45-15.51,38m181.53-424.52,20-75m-226.09,560.79-10.08,25.2m163.39-393.11.85-11.31m0,0-32.35,84m-4,9.31L-821.17,3287m-33,151.95-4.38-55.48m35.13-15.69,6.1-23.39m-69.31,171.3,28.08-132.22m-33.82,146-4.18-46.12m-23.92,114,23.92-114m-34.89,140.92-3.87-37.36m-19.9,96.05,19.9-96.05m-36.17,136.7-3.42-29.18M715.46,2764.14l-.24.32m0,0-.18.24m-8.08-8.35-.14.32m0,0-.1.23m-3,6.54-.08.18"/><path class="cls-5" d="M696.27,2746.55l-.14.19M268.46,3076.18l-18.79,24.59m0,0-11.21,14.67m453-373.3-.1.16m12.27,11-.3.14m0,0-.21.09m-9.08,4.11-.17.07m23.53,8.21-.23.37m0,0-.16.27m9.77,8-.52.21m0,0-.39.14m49.42,45.42-.13.24m215.05,291.19-45.91-70.29m-68.91-96.65-67.58-86.24m-8.5-9.79,2.62,2.45m0,0,.47.44m-3.09-2.89L774,2822.61m6.56,4.26,2.47,2.42m0,0,3.12,3.06M775.42,2820l.36.34m3.07,3.54-2-1.87m0,0-1.65-1.51m-7.56-8.83,1,.82m0,0,1.21,1m-5.55-5.73.77.59m0,0,.93.7m9.32,11.17,2,1.87M715.17,2769,689,2747.9m71.86,55.94.74.58m0,0,.9.7m-5.13-5.36.63.49m0,0,.77.58m1,1.12-.69-.48m0,0-.58-.41m-4.7-5.71.52.33m-22.14-15,1.32.79m17.09,10.39.37.22m0,0,.43.26m-15.69-8.23,3,2.23m0,0,.61.44m18.57,13.62.61.45m0,0,.73.54M752,2793l-.44-.27m0,0-.36-.22m-1.71-2,.31.15m0,0,.35.19m-1.53-1.37.27.13m0,0,.32.15m-14.45-7.37.93.56m15.19,9.17.36.23m0,0,.44.26m-37-22.16,1.34.82m10.9,7.64-.68-.34m0,0-39.64-19.91m46.23,22.47.72.35m14.05,6.83.26.13m0,0,.31.15m-15.3-7.88,1.17.55m12.71,6.06.25.12m0,0,.29.14m1.52,1.74-.29-.11m0,0-.24-.1m-2-2.34.2.07m0,0,.25.09m-12.62-4.82.21.09m13.08,5.88.24.11m0,0,.29.13M137.46,2195.55l-3.86-.38m615.27,594.25-.25-.09m0,0-.22-.07M133.6,2195.17l-30.89.78m0,0-13.52.34m659.59,593.42.2.05m0,0,.24.06m-.1.29.21,0m0,0,.24.06M89.19,2196.29l-33.14,4.77m0,0-9.38,1.35m705.63,591-.25,0m0,0-.21,0m0,0,.21,0m0,0,.24,0m-.45-.07.21,0m0,0,.24,0m-2.08-2,.21.05m0,0,.24,0m3,3.68.25,0m1.27,2,.23,0m0,0,.28,0M-32.86,2227.36l-.77.29M755.7,2797.8l.23,0m0,0,.26,0m-31.38,1.31,8.46-.11m23.23-.32h.21m0,0H757M-33.63,2227.65l-30.12,14.46m0,0-8,3.85m757.71,556.89,10.36-1m0,0,28.52-2.71M-71.78,2246l-25.78,15.11m745.77,548.46,1.79-.32m-758.79-541.56-14.23,9.79m0,0-21.78,15M611.59,2819l36.35-9.43m0,0,.27-.07M-169.58,2312l-10.36,8.16M576,2831.23l26.84-9.2m0,0,8.75-3m-791.53-498.92-12.83,11.34m0,0-21.54,19M541.38,2846l.31-.13m-756-495.37-4.6,4.5M-248,2383.4l-4,4.25m726.84,495.1,30.17-18m0,0,2.66-1.58M-281.1,2418.73l-15.55,18m0,0-17,19.68m756.53,448.22,10.93-7.46m-767.46-440.76-4.45,5.52m0,0-27.7,34.34M411.6,2928.61l21.25-16.34m0,0,10-7.68m-807.59-383.35-12.86,17M381.1,2954.77l20.15-17.28m0,0,10.35-8.88m-789.21-390.36-22.22,31.14m0,0-9.25,13M351.28,2983l18.26-17.28m0,0,11.56-10.94m-59,58.46,7.55-7.84m-64,74.24,2.82-3.45m-19,24.74,16.16-21.29m-54.25,74.07,26.85-38M185,3193.6l26.36-39.87m-52.25,81.66L185,3193.62m-51.32,85.44,25.43-43.66m-50.45,89.22,25-45.55m-49.61,93,24.6-47.45m-48.82,96.84,24.21-49.38M36,3472.81l23.85-51.33M-781.87,3274l-32.11,72.2m826.47,180,23.5-53.3m-46.67,108.63,23.17-55.32m-46,112.69,22.86-57.37m-45.41,116.86,22.55-59.48m-44.82,121.11,22.26-61.63M775.42,2820l-.12.23m0,0-.13.25m-595-620.85L173,2199m0,0-35.56-3.44m-170.32,31.81-.78.29m-63.91,33.41-9.66,5.66m0,0-1.58.93m-36,24.79-5.38,4.24m0,0-19.39,15.26m-49.33,43L-235,2370.65m0,0-13,12.75m-4,4.24-24.78,26.46m0,0-4.34,4.63m-78,95.08-5.62,7.43m-44.34,61.13-17.73,26.24m0,0-9.51,14.07m0,0-3.57,5.27m0,0-.41.61m-21.06,32.74-2.62,4.07m-3,4.67-4.34,6.74m0,0,4.59-7.33m-26.42,42.84-9,14.62M-519,2755.58l-2.55,4.32m-23.77,41.21-9.24,16.33m-36.88,67-2.89,5.31m-.17.3-19.6,37.19m0,0-9.16,17.39m-2.05,3.89-11.52,22.57m0,0-15.67,30.72M-682.91,3063l-2.4,4.85m-2,4.06-22.32,46.41m0,0-5.29,11m-3.65,7.6-18.66,39.89m0,0-11.43,24.42m-33.2,72.76-1.17,2.64m0,0-11,24.77M-814,3346.19l-4.13,9.49m0,0-5.25,12.08m-30.21,69.9-.54,1.27m-25.34,59.62-7.12,17.12m0,0-5.74,13.78m-20.58,49.48-7.52,18.42m0,0-11,26.9m-15.51,38-8.26,20.65m0,0-16.27,40.65M774,2822.61l-3.13,5.81m0,0-22.52,44.52m0,0-21.75,45.88m0,0-21,47.27m0,0-20.23,48.68m0,0-19.49,50.11m0,0-18.75,51.56m0,0-18,53.05m0,0-17.29,54.57"/><path class="cls-5" d="M611.81,3224.15l-16.56,56.12m0,0L579.42,3338m0,0-15.09,59.36m0,0-14.36,61m0,0-13.61,62.8m0,0-12.85,64.6m0,0-12.09,66.46m0,0-11.3,68.39M944.3,3041.42l-7-10.71m0,0-43.19-66.11m-86.3-106.07-4.14-5.29m-6.08-7.76-11.41-13.13m15.75,18.84,1.39,1.6m-82.17-82.36,3.22,3m6.31,8.09L715.17,2769m16.24,11,.77.59m0,0,.62.46m-10.31-5.31-6.5-4.55m0,0-1.28-.91m38.79,24.82.3.19m-20.23-13.86,1.64,1M685,2752.2l-3.2-1.92m0,.09,3.18,1.92m48.54,29.32.64.38m0,0,.62.38m-22.78-13.59,2.72,1.65m18.92,11.06,1.28.62m-3.56-2.16,1.23.58m0,0,.32.16m1.45,1.49.42.19m0,0,.69.31m-555.25-583L173,2199m0,0-35.56-3.44m616,599.61h.15M733.27,2799l8.21-.12m0,0,9.51-.12M-97.56,2261.07l-9.65,5.65m0,0-1.58.93M650,2809.21l2-.35m0,0,34-6M-144.8,2292.44l-5.39,4.24m0,0L-169.58,2312m711.27,533.9,12.62-5.38M-218.91,2355-235,2370.66m0,0-13,12.74m-4,4.25-24.78,26.45m0,0-4.34,4.63m734.87,478.4,19.15-13.05m0,0,1.94-1.33m-834-368.94-5.62,7.43m-44.33,61.13-17.74,26.24m0,0-9.53,14.1m0,0-3.58,5.29m0,0-.37.56m770,376.83,17.64-18.29m0,0,4-4.11m-808.93-327.48-2.43,3.79m-11.25,17.48-9,14.72m748.83,384.68,23.42-28.64m0,0,1.71-2.08m-55.13,70,11-14.52M-533,2779.32l-3.78,6.67m-57.73,104-19.62,37.21m-38.4,74.57-3.7,7.25m-29.09,58.79-2,4m0,0-22.32,46.43m-8.94,18.6-18.67,39.91m-12.83,27.42-15.29,33.56m0,0-16.48,36.16M-814,3346.19l-4.13,9.5M-846.5,3421l-3.15,7.41m-42.67,101-20.57,49.45m0,0-7.52,18.45m-51,126.23-10.07,25.17M-5.92,2217.35l-26.94,10m-313,268.87-3.73,4.93m0,0-9.56,12.65m-100.94,145.46-1.3,2m-2.62,4.07-2.33,3.61m0,0L-467,2670m.25-.59.84-1.34m0,0,3.2-5.1m0,0,2.89-4.61m0,0,1.4-2.23m0,0,5.74-9.16m-33.13,53.3-7.36,12m-17,28.31-8.82,15m-14,23.74-3.77,6.66m0,0-8.57,15.13m-35.5,63.83-10.62,19.46m-90.67,177-.77,1.56M-846.51,3421l-3.11,7.34m0,0-4,9.31M775.42,2820l-.12.23m27.1,31.36-4.81-6.15m-21.81-25.1-.33-.38m-44.54-51.25-4.69-5.41m0,0-.58-.65m57.42,66.6,18.87,21.9m-26.76-30.65,5.42,6.33m0,0,18.72,21.87M772,2816.82l1.69,1.59m0,0,1.74,1.63M733,2780.24l-6.26-5.73m0,0-2.23-2m0,0-3-2.8m-42.5-39-8.09-7.41m0,0,8.05,7.47m42.34,39.33,3.15,2.93m0,0,1.81,1.68m0,0,6.26,5.81m41.05,38.14,1.67,1.55m-50.87-46.76,1.5,1.4m5.69,7.4-.88-.71m4,1,.35.26m0,0,.38.29m-4.71-1.53-3.79-2.66m0,0-4.4-3.09m-7.78-5.46-.57-.39m-36.81-22.33-2.59-1.55m0,0-5.12-3.07m-.87-.47.85.51m0,0,5.22,3.15M5.79,2213l-11.7,4.35m0,0-26.95,10m587.17,613.11,11.78-5m0,0,9.91-4.22m-921.84-335-3.73,4.94m0,0-9.56,12.64m-81.17,114.75-5.77,9m0,0-1.38,2.14m0,0-1.54,2.39m-31.38,49.45-5.43,8.83m-24.42,40.3-8.82,15m0,0-2.54,4.31m0,0-11.36,19.29m771.21,336.49.19-.25M-536.79,2786l-8.57,15.14m-18.4,32.51-4.94,9m-22.77,41.74-2.89,5.3m0,0-.13.24m-19.65,37.26-9.15,17.38m0,0-2,3.84m0,0-11.52,22.58m0,0-15.68,30.73m-57.1,116.5-5.29,11m0,0-3.63,7.55m-18.69,40-11.42,24.41m0,0-1.4,3m-68,151.49-5.25,12.09m0,0L-846.49,3421m-3.16,7.43-3.94,9.26m-25.87,60.87-7.13,17.13m0,0-5.73,13.77m-28.1,67.92-11,26.88m0,0-15.5,38m0,0-8.27,20.66m0,0-16.26,40.65m513.88-1068.24-2.52,3.91m-11.26,17.51-9,14.69m0,0-5.44,8.84M-502.22,2727l-2.35,4m0,0-5.64,9.57M-572,2848.69l-8.87,16.25m-75.41,144.14-3.43,6.93m0,0-22.45,45.38M803.67,2853.24l-.35-.45m0,0-.92-1.16m-16.22-19.28-7.33-8.43M740,2779.22l-4.35-5m-10-11.52.57.66m49.08,56.93,1.53,1.77m0,0,6.24,7.24m-57.42-66.6.57.66m0,0,4.75,5.54m4.25,13.59-.36-.37M707,2756.35l-1.94-1.78m-21.68-19.72,4,3.69m17.57,16.32,1.94,1.81m-35.91-33.36,8,7.51m0,0,3.28,3.08m1.1,1,4,3.71m17.52,16.44,1.94,1.82m25.2,25.65-.36-.29m1.24-1.15.65.5m1.94,1.47.32.24m0,0,1.16.88M714.14,2770l-2-1.42m0,0-.73-.52m-7.64-4.57-2.28-1.36m-19.69-11.8-1.35-.81m0,0-3.1-1.85m-7.71-4.62-.83-.5m-5.14-3.05,5.1,3.08m6.07,3.66,2.47,1.5m24.1,14.56,2.28,1.37m-23.26-14,1.3.79m0,0,3.17,1.92M-449,2642.05l-6.43,10m0,0-2.23,3.45"/><path class="cls-5" d="M-460.08,2659.3l-1.31,2m0,0-2.62,4.07m0,0-2.32,3.6m-19.47,31.33-7.37,12m0,0-8.83,14.37m-.21.35-2.38,4m0,0-5.63,9.57m-35.14,60.5-9.24,16.32m0,0-9.12,16.11M-580.86,2865l-10.61,19.44m-64.79,124.66-3.43,6.94m0,0-22.45,45.38m0,0-.78,1.57m0,0-2.41,4.86m-168.26,369.85-.53,1.26m0,0-25.33,59.58m424-846.49-2.14,3.33m4.88-8.35,7-11.15m0,0,4.46-7.12m17.59-28.06,26.75-42.69m-166.89,275.65-4.92,9m0,0-3.29,6m1350.83-24.77-1.54-1.78m0,0-1.53-1.76m-40.12-46.17-2-2.33m0,0-2.73-3.13m-4.7-5.4,4.73,5.48m4.67,5.5,4.31,5m-3.71,4.17-.57-.59m0,0-.24-.25m0,0-.19-.2m-.36-.37-.84-.87m0,0-.94-1M705,2754.57l-1.39-1.28m-7.36-6.74-4.81-4.41m0,0-4.08-3.74m0,0-4-3.62m0,0-1.17-1.06m0,0-3.22-3m8.31,7.82,4.05,3.76m0,0,4.77,4.44m7.2,6.69,1.55,1.43m29.41,27.32.37.35m0,0,4.07,3.78m0,0,1.74,1.61m-58.27-54,1,1m12.78,12,1.41,1.33m0,0,5.68,5.32m0,0,1.66,1.56m1.94,1.82,4.76,4.46m14.39,13.5,5.42,5.09m2.16,1.66.63.48m0,0,.58.44M711.39,2768l-.88-.52m0,0-6.76-4m-2.28-1.36L696,2758.8m0,0-2-1.17m0,0-4.27-2.56m0,0L685,2752.2m-16.19-9.7-5.14-3.07m-4.79-2.87,2.16,1.3m0,0,2.63,1.59m13.64,8.24,3.12,1.89m0,0,1.32.79m3.18,1.92,4.78,2.89m0,0,4.18,2.52m0,0L696,2759m0,0,5.41,3.27m10.63,6.41,2.12,1.29M-466.33,2669l-.67,1.05m0,0-4.33,6.73m-97.37,165.9-3.29,6m0,0-8.87,16.28M-449,2642l-6.44,10m14.19-23.29,15.94-25.43m0,0,1.65-2.63M746.7,2786.91l-6.69-7.69m-9-10.33,2.59,3m0,0,2.06,2.41m32,37.38,4.38,5.11m0,0,1.58,1.85m0,0,1.59,1.85m-53.66-50.85-4.1-3.76m0,0-1.94-1.77m0,0-3.86-3.55m0,0-4.64-4.24m-3.33-3.06-6.12-5.6m0,0-1.24-1.14M679,2730.78l3.25,3m0,0,1.11,1m12.81,11.9,1.34,1.24m0,0,5.86,5.45m3.49,3.24,4.71,4.37m0,0,3.69,3.42m0,0,1.95,1.82m0,0,4.13,3.83M734.09,2782l.2.19m-47-43.54,4,3.78m0,0,4.75,4.45m15.45,14.49,3.56,3.34m16.37,15.36,4.29,4m0,0,1,.94m0,0,3.17,3m-2.54-1.08-.73-.59m0,0-1.49-1.2m-71.46-45.7-2.63-1.58m0,0-2.16-1.29m44.81,27.06,6.8,4.11m0,0,1.55.93m-37.15-22.38,2.4,1.46m0,0,3.14,1.9m15.56,9.45,5.37,3.26m0,0,2.28,1.38M-447.33,2639.47-449,2642M762.52,2805.12l-2.75-3.17m0,0-.52-.59m0,0-.46-.53m-23.16-26.56,4.33,5m24.32,28.52,3.33,3.9m-30.74-27.51-.56-.58m-3.79-3.09,1,.91M715,2764.7l2,1.85m0,0,4.14,3.88M739.87,2788l1.66,1.55m-3.77-2.29-.43-.34m-2.22-1.79-1.18-1m0,0-2-1.62m-73.06-46,2.16,1.31m0,0,2.63,1.59m5.93,3.61,5.29,3.21m10,6.07,4.76,2.89m14,8.49,6.82,4.15m0,0,1.49.9M-440.31,2628.56l-5.74,8.93m0,0-1.28,2M766,2809.1l-3.46-4m-6.84-7.88-1.36-1.56m0,0-.42-.48m-23-26.37,2.65,3.07m0,0,2,2.37m22.39,26,.5.57m0,0,.56.65m1.8,2.37,3.4,4m-24.94-21.06-2.47-2.55m-3.35-2.74.57.53m7.44,7.56,2.79,2.62m-4.06-2.89-2.5-2m-74.11-47.8,5.07,3.08m0,0,.86.53m20.06,12.17,4.13,2.51m0,0,2.2,1.34M775.45,2820l-5.62-6.46m0,0L766,2809.1m-9.79-11.26-.51-.6m-8.42-9.68-.56-.65m-6.74-7.62,6.49,7.53m12.63,14.65,2.54,3m-21.15-16.5-1.13-1.17m4.38,5.33-3.46-2.8m18.53,11.55-1.84-2.11m0,0-.76-.88m-9.74-11,.52.6m14.65,17,3.43,4m-6.55-7.34,2.38,2.78m-12.74-15.27-.24-.27m0,0-.64-.74m17.79,20.84,3.57,4.13m-28.7-33.18,6.33,7.4m0,0,.47.55m10.67,12.46.52.61m0,0,.59.69M774,2822.61l-22.76-23.52m-6.95-6.92,2.32,2.17m0,0,.49.46m1.65-5.5-.64-.73m5.51,6.6.15.18m0,0,1.6,1.85m13.22,15.33,5.06,5.88m0,0,1.56,1.81m-28-25.29-.74-.6m0,0-2.78-2.25m5.43-2.34-.29-.32m6.53,7.78.53.62m-2.49-2.67,1.73,2M742,2789.46l-1.35-1.4m9.49,2.77-.53-.61m0,0-.35-.4m-2.25-2.4.64.75m0,0,.22.25m0,0,.66.77m7.44,8.63.78.9m0,0,1.31,1.53m-8.58-9.76.78.9m0,0,.37.44m0,0,.24.27m0,0,.32.37m0,0,.69.82m3.33,3.88.53.63m-7.24-1.62-1.21-1.25m4.14-2.62-.72-.82"/><path class="cls-5" d="M750.67,2791.49l-.57-.66m-1-.72.32.38m6.26,7.31.8.92m0,0,.89,1m-7.9-2.51-1-1.07m-3.84-4-2.44-2.52m0,0-.22-.23m10.34,3.9-.35-.4m0,0-.32-.37m0,0-.24-.28m-2.55-2.72.14.17m0,0,.35.4m-2.61-2.86.65.76m0,0,.2.23m0,0,.68.8m.32.37.21.25m0,0,.34.4m2.73,3.18,1.52,1.78m-2.1,4-.28-.29m0,0-1.5-1.55m-.87-7.92.22.26m.49.57.42.48m-1.5-1.55.15.17m0,0,.17.2m-1.44,5.34-.44-.45m0,0-2.06-2.13m9.27,3-1.6-1.84m-2.55-2.72.68.8m0,0,.53.61m0,0,.23.28m0,0,.32.36m0,0,.54.63m0,0,1.59,1.85"/></g></g></svg>