<svg id="Layer_1" data-name="Layer 1" xmlns="http://www.w3.org/2000/svg" viewBox="0 0 233.15 277.02"><defs><style>.cls-1{fill:#ff931e;}</style></defs><path class="cls-1" d="M226.28,149.69c0-1.44,0-2.83-1.49-3.63-1.33-.72-2.6-1.55-3.9-2.33l-29-17.55q-10.63-6.45-21.24-12.9c-6.72-4.07-13.43-8.16-20.18-12.18a3.32,3.32,0,0,1-1.75-3.24c0-11.51,0-23,0-34.51,0-2.67.47-2.91,2.72-1.67C165.3,69.33,179.15,77,193.08,84.55a5,5,0,0,1,3,5.19c-.15,7.57-.11,15.14,0,22.71a3.44,3.44,0,0,0,1.12,2.51c3,1.88,6.1,3.54,9.19,5.25q8.7,4.79,17.41,9.53a12.91,12.91,0,0,0,2.1.69,11.88,11.88,0,0,0,.39-2.08c0-19,0-38,.08-57A4.11,4.11,0,0,0,224,67.29c-6.38-3.63-12.7-7.4-19-11.12L175.68,39q-12.57-7.39-25.14-14.81Q136.68,16,122.81,7.8c-.25-.14-.66,0-1.1,0,0,.76-.12,1.41-.12,2.07q-.24,51.53-.51,103.07a4.91,4.91,0,0,0,2.78,4.89c10.19,5.94,20.31,12,30.47,18q19.8,11.68,39.65,23.28a3.63,3.63,0,0,1,2,3.54q-.09,9.35,0,18.7a3.82,3.82,0,0,1-2,3.59c-12.31,7.95-24.57,16-36.86,24-12,7.8-24,15.53-35.91,23.4-2,1.32-3.58,1.93-5.83.55-8.85-5.43-17.81-10.68-26.71-16-17-10.19-34-20.42-51.05-30.53a5.16,5.16,0,0,1-2.83-5.13c.08-24.19,0-48.38,0-72.58,0-5.79.07-11.57,0-17.36a4.39,4.39,0,0,1,2.3-4.33c3.1-1.84,6.11-3.82,9.16-5.74Q62.41,71,78.54,60.93a11.69,11.69,0,0,1,2.3-.85,12.27,12.27,0,0,1,.52,2.49c0,11.27,0,22.55.06,33.83a4.4,4.4,0,0,1-2.08,4c-9,6.23-17.86,12.5-26.83,18.7a4.53,4.53,0,0,0-2.21,4.18c.08,9.94,0,19.89.05,29.83,0,.73.07,1.45.13,2.51a9.27,9.27,0,0,0,1.55-.52c3-1.84,6-3.72,9-5.55q12.74-7.77,25.49-15.51c8.12-4.94,16.21-9.93,24.39-14.75,2-1.21,2.59-2.71,2.58-5q-.09-45.2,0-90.39c0-4.75,0-9.5,0-14.25,0-1.94-.53-2.26-2-1.43q-9.78,5.71-19.58,11.4Q78,27.67,64,35.7,36.41,51.6,8.76,67.48a3.39,3.39,0,0,0-1.93,3.33q.07,46.86.06,93.73,0,18.15,0,36.29c0,1.36,0,2.59,1.4,3.43q20.82,12.36,41.6,24.81,19.48,11.64,39,23.24c9.34,5.57,18.65,11.19,28,16.72a2.6,2.6,0,0,0,2.26,0c7.86-5,15.67-10,23.48-15.06q20.46-13.2,40.91-26.41t41-26.3a3.44,3.44,0,0,0,1.74-3.26c-.06-5.05,0-10.09,0-15.14Q226.26,166.27,226.28,149.69Z"/><path class="cls-1" d="M58.65,192.25c.86.11-2-.4-4.34-.83l.43.26,1.23.72,0,0,.07,0c13.67,8,29.3,16,43.92,24.13-3.66-2-7.38-4.05-11.13-6.08,3.75,2,7.47,4.05,11.13,6.08l3.65,2c1.8,1,3.56,2,5.31,3l3.46,2V125.57l-57.67,35a1.89,1.89,0,0,0,.21.09l44.22-13.09v22.75l-32.49,5.29,32.49,5.28v22.26Zm-1-.14-1-.13Zm-2.88-.43h0l.42.24Z"/><path class="cls-1" d="M160.81,199.53c7.2-4.65,14.43-9.25,21.59-14a3.26,3.26,0,0,0,1.37-2.22c.1-6.52.11-13,0-19.57a3.65,3.65,0,0,0-1.59-2.46c-4.37-2.77-8.86-5.36-13.28-8-6-3.63-11.9-7.31-17.87-10.92-6.9-4.17-13.82-8.29-20.73-12.44-2.51-1.51-5-3-8-4.85V224.2c1-.54,1.75-.84,2.41-1.26,3.46-2.21,6.9-4.45,10.35-6.68Q147.92,207.89,160.81,199.53Zm-26.14-52.75,35.93,19.84V180L134.67,203Z"/></svg>