<svg xmlns="http://www.w3.org/2000/svg" xmlns:xlink="http://www.w3.org/1999/xlink" viewBox="0 0 1919 1021"><defs><style>.cls-1{fill:none;}.cls-1,.cls-5{stroke:#fff;stroke-miterlimit:10;}.cls-2{fill:#ff931e;}.cls-3{clip-path:url(#clip-path);}.cls-4{opacity:0.22;}.cls-5{fill:#fff;}</style><clipPath id="clip-path"><rect class="cls-1" width="1919" height="1021"/></clipPath></defs><g id="specs"><rect class="cls-2" x="-0.25" width="1919.5" height="1021"/><g id="line"><g class="cls-3"><g class="cls-4"><path class="cls-5" d="M512,1172.17l-1.24,2.53m0,0-8.86,19.37m0,0-8.55,20m0,0-8.26,20.56m0,0-8,21.17m0,0-7.67,21.8m0,0L462.1,1300m0,0L455,1323.07m0,0-6.81,23.73m0,0-6.51,24.42m0,0-6.23,25.11m0,0-5.93,25.82m0,0-5.65,26.56m0,0L418.53,1476m0,0-5,28.11m0,0-4.76,28.91m0,0-4.45,29.75m0,0L401.55,1583m-95.84-289.76.07-.06m1824.91,260.6L2101.17,1583m29.52-625.14L2030,908.29m0,0,100.69-10.64M2030,908.29l100.69-114.83m0,616-325.66-235m0,0,325.66-4.08M1805,1174.46l225-266.17M1761.11,1583l-159-158.56m0,0L2130.69,1464m-528.58-39.58,202.92-250M1478.72,1583l123.39-158.56M2130.69,209.36l-55.67-4.7m0,0,55.67-23.78M2075,204.66l55.67-78.41m0,439.75-262.25-69.22m0,0,262.25-86.3m-262.25,86.3L2075,204.66m-45,703.63-341-156.67m0,0,441.64-104.53M1689.05,751.62l179.39-254.84M1805,1174.46l-278.9-190.21m0,0,503.87-76m-503.87,76,162.92-232.63m-86.94,672.79-230.38-218.48m0,0,433.3-31.47m-433.3,31.47,154.4-221.68M1340.92,1583,1219.18,1426.2m0,0,382.93-1.79m-382.93,1.79,152.55-220.27m-260.51,377,108-156.77M2075,204.66,1722.08,184.3m0,0L2130.69-40.46M1722.08,184.3,1880-91.3m-11.53,588.08L1579,429.62m0,0,496-225m-496,225L1722.08,184.3m-33,567.32L1447.91,650m0,0,420.53-153.19M1447.91,650,1579,429.62m-52.86,554.63L1323.26,855.13m0,0,365.79-103.51M1323.26,855.13,1447.91,650m-76.18,556-171.33-153m0,0,325.73-68.68m-325.73,68.68,122.86-197.8M1219.18,1426.2,1075,1250.43m0,0,296.77-44.5M1075,1250.43l125.44-197.5m-181.23,530-76.91-128.15m0,0,276.92-28.62m-276.92,28.62L1075,1250.43M857.31,1583l85-128.15M1824.89-91.3,1586.36-59m0,0,41.52-32.34M1586.36-59l14.93-32.34m120.79,275.6L1473,177.75m0,0,399.56-269M1473,177.75,1586.36-59M1579,429.62l-210.91-41.18m0,0,354-204.14m-354,204.14L1473,177.75M1447.91,650l-180.28-68.22m0,0L1579,429.62M1267.63,581.75l100.45-193.31m-44.82,466.69-154.85-90.68m0,0L1447.91,650m-279.5,114.48,99.22-182.7m-67.23,471.18-133-110.64m0,0,255.86-87.16M1067.4,942.29l101-177.84m-93.45,486L961.44,1120.67m0,0,239-67.74m-239,67.74,106-178.38M942.26,1454.82l-95.34-149.55m0,0,228-54.84m-228,54.84,114.52-184.6m-242.18,382.1,223-48m-223,48,127.66-197.5M1586.36-59l-216.23,36m0,0L1445.6-91.3m-75.47,68.37,26.44-68.37M1473,177.75l-185.87,1.78m0,0L1586.36-59M1287.15,179.53l83-202.46m-2.05,411.37-161.15-24.82m0,0L1473,177.75M1206.93,363.62l80.22-184.09m-19.52,402.22-140.44-46.44m0,0,240.89-146.87M1127.19,535.31l79.74-171.69m-38.52,400.83-122.58-64.94m0,0,221.8-117.76m-221.8,117.76,81.36-164.2m-59.79,407L960.68,860.6m0,0,207.73-96.15M960.68,860.6l85.15-161.09m-84.39,421.16-92.11-97.82m0,0,198.07-80.56m-198.07,80.56L960.68,860.6M846.92,1305.27l-78.13-114.4m0,0,192.65-70.2m-192.65,70.2,100.54-168M655.22,1370.11l191.7-64.84m-191.7,64.84,113.57-179.24M1370.13-22.93,1205.54,10.26m0,0L1303.67-91.3M1205.54,10.26,1239-91.3m48.2,270.83-144.57,7.15m0,0L1370.13-22.93M1142.58,186.68l63-176.42m1.39,353.36L1079.3,349.76m0,0,207.85-170.23M1079.3,349.76l63.28-163.08m-15.39,348.63-112.93-31.47m0,0,192.67-140.22M1014.26,503.84l65-154.08m-33.47,349.75L946,652.62m0,0,181.21-117.31M946,652.62l68.28-148.78M960.68,860.6,872.8,799.55m0,0,173-100m-173,100L946,652.62m-76.65,370.23-76.6-74.75m0,0,167.95-87.5M792.73,948.1,872.8,799.55m-104,391.32-65.53-88.81m0,0,166.07-79.21m-166.07,79.21,89.47-154M601.05,1266l167.74-75.15M601.05,1266l102.21-164M1205.54,10.26l-130,31.24m0,0L1189.45-91.3M1075.58,41.5l37.55-132.8m29.45,278-116.11,10.8m0,0L1205.54,10.26M1026.47,197.48l49.11-156m3.72,308.26-104-6.18m0,0,167.26-156.9M975.32,343.58l51.15-146.1m-12.21,306.36-93.13-20.77m0,0L1079.3,349.76M921.13,483.07l54.19-139.49M946,652.62l-83.22-33.76m0,0,151.5-115m-151.5,115,58.37-135.79M872.8,799.55l-73.94-45.83m0,0L946,652.62M798.86,753.72l63.9-134.86m-70,329.24-65-57.58m0,0,145-91m-145,91,71.11-136.8m-95.6,348.34-56-69.58m0,0L792.73,948.1m-145.49,84.38,80.51-142M554.36,1183.46l148.9-81.4m-148.9,81.4,92.88-151M1036.59-91.3l-29.94,12.73m0,0,8.81-12.73m-8.81,12.73,2.71-12.73m66.22,132.8L970,71.32m0,0L1095.12-91.3M970,71.32l36.7-149.89m19.82,276-95.64,13.37m0,0L1075.58,41.5M930.83,210.85,970,71.32m5.37,272.26L888.67,343m0,0,137.8-145.49M888.67,343l42.16-132.12m-9.7,272.22-78.42-12.85m0,0L975.32,343.58M842.71,470.22l46-127.25M862.76,618.86l-70.71-23.92m0,0L921.13,483.07M792.05,594.94l50.66-124.72m-43.85,283.5-63.33-34.29m0,0L862.76,618.86M735.53,719.43l56.52-124.49m-64.3,295.58-56.06-44.43m0,0,127.17-92.37M671.69,846.09l63.84-126.66m-88.29,313.05-48.69-54.8"/><path class="cls-5" d="M598.55,977.68l129.2-87.16m-129.2,87.16,73.14-131.59M513.47,1117.54l133.77-85.06m-133.77,85.06,85.08-139.86M1006.65-78.57l-96,44.75m0,0L946.68-91.3M910.61-33.82,920.84-91.3M970,71.32,882.09,100.1m0,0L1006.65-78.57M882.09,100.1,910.61-33.82m20.22,244.67-80.44,15.27m0,0L970,71.32M850.39,226.12l31.7-126M888.67,343l-73.59,3.57m0,0L930.83,210.85M815.08,346.54l35.31-120.42m-7.68,244.1-67.16-6.83m0,0L888.67,343M775.55,463.39l39.53-116.85m-23,248.4-61-16.35m0,0,111.7-108.37M731,578.59l44.54-115.2m-40,256-55-25.35m0,0,111.57-99.14M680.48,694.08,731,578.59m-59.32,267.5-49.07-34.17m0,0,112.91-92.49M622.62,811.92l57.86-117.84m-81.93,283.6L555.66,934.5m0,0,116-88.41m-116,88.41,67-122.58M477.18,1064.73l121.37-87.05m-121.37,87.05L555.66,934.5m355-968.32L830,7.23m0,0L886.46-91.3M830,7.23,844.59-91.3m37.5,191.4-74.51,28m0,0,103-161.88m-103,161.88L830,7.23m20.37,218.89-68.83,16.69m0,0L882.09,100.1M781.56,242.81l26-114.75m7.5,218.48-63.49,6.77m0,0,98.8-127.19m-98.8,127.19,30-110.5m-6,220.58-58.39-2.16m0,0,97.92-114.69M717.16,461.23l34.43-107.92M731,578.59,677.6,568.18m0,0,97.95-104.79M677.6,568.18l39.56-106.95M680.48,694.08,632,675.81m0,0,99-97.22m-99,97.22,45.6-107.63m-55,243.74-43.47-26m0,0,101.33-91.84M579.15,785.92,632,675.81M555.66,934.5l-38.24-33.9m0,0,105.2-88.68M517.42,900.6l61.73-114.68M444.59,1022.44,555.66,934.5m-111.07,87.94L517.42,900.6M804.94-91.3,775.32-70.85m0,0,9.62-20.45m-9.62,20.45,1.73-20.45M830,7.23,761.17,45.46m0,0L833.07-91.3M761.17,45.46,775.32-70.85m32.26,198.91-64.2,27.33m0,0L830,7.23M743.38,155.39,761.17,45.46m20.39,197.35L721.77,260.6m0,0,85.81-132.54M721.77,260.6l21.61-105.21m8.21,197.92-55.54,9.28m0,0,85.51-119.78M696.05,362.59l25.72-102m-4.61,200.63-51.4,1.54m0,0,85.83-109.46M665.76,462.77l30.29-100.18M677.6,568.18l-47.3-5.68m0,0,86.86-101.27M630.3,562.5l35.46-99.73M632,675.81l-43.18-12.59m0,0,88.78-95m-88.78,95L630.3,562.5M579.15,785.92l-38.93-19.4m0,0L632,675.81m-91.78,90.71,48.6-103.3M517.42,900.6,483,874.25m0,0,96.17-88.33M483,874.25l57.24-107.73M415,988.7l102.4-88.1M415,988.7l68-114.45M775.32-70.85,711.86-24.22m0,0,29-67.08m-29,67.08,4-67.08M761.17,45.46l-59.7,36m0,0L775.32-70.85M701.47,81.5,711.86-24.22m31.52,179.61-56.09,26.82m0,0L761.17,45.46M687.29,182.21,701.47,81.5m20.3,179.1-52.58,18.65m0,0,74.19-123.86M669.19,279.25l18.1-97m8.76,180.38-49.14,11.3m0,0L721.77,260.6M646.91,373.89l22.28-94.64m-3.43,183.52L620,467.3m0,0,76-104.71M620,467.3l26.89-93.41M630.3,562.5,588,560.68m0,0,77.78-97.91M588,560.68l32-93.38m-31.2,195.92L550,655.29m0,0L630.3,562.5M550,655.29l38-94.61M540.22,766.52l-35.19-14m0,0,83.79-89.32M505,752.54l45-97.25m-67,219L451.66,854.1m0,0,88.56-87.58M451.66,854.1,505,752.54M388,962l95-87.78M388,962l63.7-107.93M711.86-24.22,656.49,19m0,0,44-110.32M656.49,19l3.65-102m0,0,9-8.29M701.47,81.5,649,115.81m0,0,62.85-140M649,115.81,656.49,19m30.8,163.19L637.7,208.62m0,0L701.47,81.5M637.7,208.62,649,115.81m20.18,163.44L622.43,298.6m0,0,64.86-116.39M622.43,298.6l15.27-90m9.21,165.27L603,386.81m0,0,66.22-107.56M603,386.81l19.46-88.21M620,467.3l-41.1,7m0,0,68-100.38m-68,100.38L603,386.81M588,560.68,549.76,562m0,0L620,467.3M549.76,562l29.16-87.75M550,655.29l-35.23-4.09m0,0L588,560.68M514.76,651.2l35-89.18M505,752.54l-32.09-9.47m0,0L550,655.29m-77.05,87.78,41.82-91.87m-63.1,202.9-28.7-15m0,0L505,752.54M423,839.13l50-96.06M363,941.25l88.66-87.15M363,941.25l60-102.12M656.49,19,607.58,59.57m0,0L660.14-83M607.58,59.57l1.36-93.34m0,0L660.14-83M649,115.81l-46.61,32.9m0,0L656.49,19M602.4,148.71l5.18-89.14M637.7,208.62l-44.3,26.09m0,0L649,115.81M593.4,234.71l9-86m20,149.89-42,19.93m0,0L637.7,208.62M580.44,318.53l13-83.82M603,386.81l-39.65,14.27m0,0L622.43,298.6M563.32,401.08l17.12-82.55m-1.52,155.74-37.25,9m0,0L603,386.81m-61.3,96.46,21.65-82.19M549.76,562,515,566m0,0,63.94-91.75M515,566l26.69-82.75M514.76,651.2l-32.2-.86m0,0L549.76,562m-67.2,88.32L515,566m-42,177.05-29.47-5.69m0,0,71.29-86.18m-71.29,86.18,39.09-87M423,839.13l-26.5-10.62m0,0,76.48-85.44m-76.48,85.44,47-91.13M339.8,925.45,423,839.13M339.8,925.45l56.66-96.94M607.58,59.57,563.91,98m0,0,45-131.72M563.91,98,563.48,12m0,0,45.46-45.81M602.4,148.71l-41.83,31.77m0,0,47-120.91m-47,120.91L563.91,98M593.4,234.71l-40,25.83"/><path class="cls-5" d="M553.44,260.54l49-111.83m-49,111.83,7.13-80.06m19.87,138-38,20.41m0,0,51-104.23m-51,104.23,11-78.4m9.88,140.54-36.06,15.41m0,0,53.18-98m-53.18,98,15.15-77.55m-.74,144.33-34,10.71m0,0,55.68-92.9M507.64,494l19.62-77.49M515,566l-31.9,6.23m0,0,58.59-89m-58.59,89L507.64,494M482.56,650.34,452.9,652.2m0,0L515,566M452.9,652.2l30.18-80M443.47,737.38l-27.25-2.47m0,0,66.34-84.57m-66.34,84.57L452.9,652.2M396.46,828.51l-24.63-6.9m0,0,71.64-84.23m-71.64,84.23,44.39-86.7m-98.11,179,78.35-85.39M318.11,913.9l53.72-92.29M563.91,98l-39.36,36.6m0,0L563.48,12M524.55,134.55l-1.86-79.5m0,0,40.79-43m-2.91,168.44L522.7,211.33m0,0L563.91,98M522.7,211.33l1.85-76.78m28.89,126-36.32,25.62m0,0,43.45-105.68M517.12,286.16l5.58-74.83m19.71,127.61L507.7,359.77m0,0,45.74-99.23M507.7,359.77l9.42-73.61m10.14,130.33-33,16.38m0,0,48.19-93.93m-48.19,93.93,13.48-73.1M507.64,494l-31.29,12.17m0,0,50.91-89.66m-50.91,89.66,17.87-73.28M483.08,572.25l-29.45,8.14m0,0,54-86.41m-54,86.41,22.72-74.24M452.9,652.2l-27.48,4.21m0,0,57.66-84.16m-57.66,84.16,28.21-76M416.22,734.91l-25.35.28m0,0,62-83m-62,83,34.55-78.78m-53.59,165.2-23-3.71m0,0,67.41-83m-67.41,83,42.06-82.71M297.72,906l74.11-84.38M297.72,906l51.09-88.09M524.55,134.55l-35.78,35.14m0,0L522.69,55.05M488.77,169.69l-3-73.9m0,0,36.92-40.74m0,156.28-34.56,30.08m0,0,36.41-106.86M488.14,241.41l.63-71.72m28.35,116.47-33.27,25.47m0,0,38.85-100.3m-38.85,100.3,4.29-70.22M507.7,359.77,475.79,381m0,0,41.33-94.81M475.79,381l8.06-69.34m10.37,121.24-30.47,17.21m0,0,43.95-90.31m-43.95,90.31,12-69.11m.56,125.18-29,13.43m0,0,46.82-86.71M447.4,519.58l16.35-69.5M453.63,580.39l-27.34,9.79m0,0,50.06-84m-50.06,84,21.11-70.6m-22,136.83-25.6,6.23m0,0,53.81-82.25m-53.81,82.25,26.47-72.46m-35.42,145-23.72,2.69m0,0,58.27-81.47m-58.27,81.47,32.67-75.24m-51,155.26L327.18,817m0,0,63.69-81.77M327.18,817l40-79.08M278.44,901.26l70.37-83.36m-70.37,83.36L327.18,817M488.77,169.69,456,203.63m0,0L485.77,95.79M456,203.63l-3.93-69m0,0,33.71-38.85m2.37,145.62-31.77,29.47m0,0,32.4-101.19m-32.4,101.19L456,203.63m27.86,108L453.18,337m0,0,35-95.57m-35,95.57,3.19-66.1M475.79,381l-29.51,21.54m0,0,37.57-90.88m-37.57,90.88,6.9-65.53m10.57,113.1L435.48,468m0,0,40.31-87m-40.31,87,10.8-65.51m1.12,117.07L420.45,534.1m0,0,43.3-84m-43.3,84,15-66.08m-9.19,122.16-25.52,11.23m0,0,46.63-81.83m-46.63,81.83,19.68-67.31M399.82,662.64l-24,8m0,0,50.46-80.46m-50.46,80.46,24.94-69.23M367.15,737.88l-22.3,4.77m0,0,55-80m-55,80,31-72M327.18,817l-20.43,1.48m0,0,60.4-80.56m-60.4,80.56,38.1-75.79M260.13,899.29,327.18,817m-67.05,82.33,46.62-80.85M456,203.63l-30.23,32.93m0,0,26.3-101.92m-26.3,101.92-4.69-64.64m0,0,31-37.28m4.31,136.24-29.38,29m0,0,29-96.21m-29,96.21-1.23-63.28M453.18,337l-28.46,25.28m0,0,31.65-91.38m-31.65,91.38L427,299.84m19.29,102.67-27.46,21.84m0,0L453.18,337m-34.36,87.37,5.9-62.09M435.48,468,409.1,486.61m0,0,37.18-84.1m-37.18,84.1,9.72-62.26m1.63,109.75-25.21,15.5m0,0L435.48,468M395.24,549.6l13.86-63m-8.33,114.8-23.95,12.5m0,0,43.63-79.81m-43.63,79.81,18.42-64.31m-19.41,121-22.58,9.56m0,0,47.52-78.79M353.25,680.2l23.57-66.29m-32,128.74-21.07,6.61m0,0,52.05-78.62m-52.05,78.62,29.47-69.06m-46.5,138.24-19.38,3.62m0,0,57.48-79.41m-57.48,79.41,36.41-72.8M242.66,899.78l64.09-81.34m-64.09,81.34,44.71-77.72m138.39-585.5-28.05,32.11m0,0,23.36-96.75m-23.36,96.75-5.33-60.78m0,0,28.69-36M427,299.84l-27.34,28.54m0,0,26.11-91.82m-26.11,91.82-1.94-59.71m27,93.59-26.55,25.23m0,0L427,299.84m-28.82,87.65,1.48-59.11m19.17,96-25.67,22.13m0,0,31.57-84.22m-31.57,84.22,5-59m10.93,99.12L384.37,505.8m0,0,34.45-81.45M384.37,505.8l8.78-59.32m2.09,103.12L371.54,566m0,0,37.56-79.36M371.54,566l12.83-60.17m-7.55,108.11-22.58,13.63m0,0,41-77.94m-41,77.94L371.54,566M353.25,680.2l-21.34,10.94m0,0,44.91-77.23m-44.91,77.23,22.33-63.6M323.78,749.26l-20,8.26m0,0,49.46-77.32m-49.46,77.32,28.12-66.38M287.37,822.06l-18.46,5.52m0,0,54.87-78.32m-54.87,78.32,34.88-70.06M225.94,902.44l61.43-80.38m-61.43,80.38,43-74.86m128.8-558.91-26.2,31.41m0,0,20.87-92.19m-20.87,92.19-5.85-57.32m0,0,26.72-34.87m7.27,120.49-25.58,28.21m0,0,23.64-87.92m-23.64,87.92-2.56-56.51m26.66,87.41-24.89,25.22m0,0,26.37-84.33m-26.37,84.33.79-56.12"/><path class="cls-5" d="M393.15,446.48,369,468.88m0,0,29.15-81.39M369,468.88l4.26-56.17m11.09,93.09-23.29,19.73m0,0,32.07-79m-32.07,79L369,468.88M371.54,566l-22.38,17.16m0,0,35.21-77.33m-35.21,77.33,11.92-57.6m-6.84,102L332.87,642.2m0,0L371.54,566M332.87,642.2l16.29-59.07m-17.25,108-20.27,12.2m0,0,42.6-75.8m-42.6,75.8,21.23-61.14M303.79,757.52l-19,9.73m0,0,47.16-76.11m-47.16,76.11,26.89-63.91M268.91,827.58l-17.66,7.22m0,0,52.54-77.28M251.25,834.8l33.5-67.55M225.94,902.44l-16.08,4.61m0,0,59.05-79.47m-59.05,79.47,41.39-72.25M371.51,300.08l-24.57,30.85m0,0,18.72-88.17m-18.72,88.17-6.3-54.21m0,0,25-34m8.41,113.83-24.05,28m0,0,21.49-84.46M350,384.54l-3.08-53.61m26.34,81.78L349.83,438m0,0,24.24-81.36M349.83,438l.19-53.41m19,84.34-22.78,22.67m0,0,27-78.84m-27,78.84,3.59-53.6m11.25,87.58-22,20.23m0,0,30-76.88m-30,76.88,7.2-54.21m2.92,91.58L328,601m0,0,33.13-75.47M328,601,339,545.76m-6.17,96.44-20.32,15.58m0,0,36.61-74.65m-36.61,74.65L328,601M311.64,703.34l-19.32,13.32m0,0,40.55-74.46m-40.55,74.46,20.23-58.88m-27.8,109.47-18.2,11.06m0,0,45.09-75m-45.09,75,25.77-61.65M251.25,834.8l-16.94,8.76m0,0,50.44-76.31m-50.44,76.31,32.24-65.25m-72.2,135.11,56.9-78.62m-56.9,78.62,40-69.86M346.94,330.93l-23.17,30.38m0,0,16.87-84.59m-16.87,84.59-6.69-51.39m0,0,23.56-33.2M350,384.54,327.31,412.3m0,0,19.63-81.37M327.31,412.3l-3.54-51M349.83,438l-22.19,25.29m0,0L350,384.54m-22.38,78.7-.33-50.94m18.93,79.25-21.6,22.95m0,0L349.83,438M324.64,514.5l3-51.26M339,545.76l-20.93,20.7m0,0,28.13-74.91m-28.13,74.91,6.53-52M328,601l-20.2,18.54m0,0L339,545.76m-31.29,73.78,10.36-53.08m-5.56,91.32-19.38,16.43m0,0L328,601m-34.78,73.21,14.58-54.67m-15.43,97.12L273.85,731m0,0,38.7-73.24M273.85,731l19.32-56.81m-26.62,104.1-17.46,12.28m0,0,43.23-73.93m-43.23,73.93L273.85,731M234.31,843.56,218,853.72m0,0,48.55-75.41M218,853.72l31.09-63.13m-69.74,130.8,55-77.83m-55,77.83L218,853.72M323.77,361.31l-21.95,30m0,0,15.26-81.41m-15.26,81.41-7-48.84m0,0,22.28-32.57M327.31,412.3l-21.55,27.62m0,0,18-78.61m-18,78.61-3.94-48.59m25.82,71.91L306.56,488.6m0,0,20.75-76.3m-20.75,76.3-.8-48.68m18.88,74.58-20.55,23.21m0,0,23.55-74.47m-23.55,74.47,2.47-49.11m11.55,77.86-20,21.16m0,0,26.49-73.12m-26.49,73.12,5.94-49.91m3.66,81.83-19.29,19.17m0,0,29.65-72.25m-29.65,72.25,9.69-51.09m-5,86.59-18.55,17.23m0,0,33.13-71.9m-33.13,71.9,13.84-52.73M273.85,731l-17.73,15.31m0,0,37.05-72.12m-37.05,72.12,18.5-54.89m-25.53,99.15L232.29,804m0,0,41.56-73m-41.56,73,23.83-57.65M218,853.72l-15.76,11.44m0,0,46.85-74.57m-46.85,74.57,30-61.18M164.8,930.82l53.2-77.1m-53.2,77.1,37.44-65.66m99.58-473.83L280.94,421m0,0,13.86-78.55M280.94,421l-7.31-46.5m0,0,21.17-32.05m11,97.43-20.53,27.53m0,0,16.59-76.12m-16.59,76.12L280.94,421m25.62,67.56-20.11,25.46m0,0,19.31-74.14m-19.31,74.14-1.22-46.61m18.86,70.26L284.46,561.2m0,0,22.1-72.6m-22.1,72.6,2-47.14m11.7,73.56-19.09,21.59m0,0,25-71.5m-25,71.5,5.4-48m4,77.51L270,658.47m0,0,28.18-70.85M270,658.47l9.09-49.26m-4.44,82.23-17.82,18m0,0,31.66-70.7m-31.66,70.7L270,658.47m-13.85,87.86-17.07,16.2m0,0,35.57-71.09m-35.57,71.09,17.75-53.12M232.29,804l-16.22,14.43m0,0,40.05-72.08m-40.05,72.08,23-55.88M202.24,865.16,187,877.8m0,0L232.29,804M187,877.8l29.1-59.39M150.63,941.6l51.61-76.44M150.63,941.6,187,877.8m94-456.76L261,450.54m0,0,12.63-76m-12.63,76-7.56-44.38m0,0,20.19-31.62m11.6,92.91-19.62,27.49m0,0L280.94,421m-15.33,73.9L261,450.54m25.45,63.52-19.24,25.58m0,0,18-72.19m-18,72.19-1.6-44.7m18.85,66.26L265.65,585m0,0,20.8-70.9M265.65,585l1.56-45.32m11.85,69.57-18.33,22m0,0,23.73-70m-23.73,70L265.65,585M270,658.47l-17.78,20.32m0,0,26.87-69.58m-26.87,69.58,8.54-47.56m-3.93,78.18-17.17,18.67m0,0L270,658.47m-30.34,69.61,12.56-49.29m-13.14,83.74-16.48,17m0,0,34.23-70.15m-34.23,70.15,17.06-51.48m-23.56,90.33-15.71,15.4m0,0,38.69-71.28m-38.69,71.28,22.21-54.25M187,877.8l-14.83,13.74m0,0,43.93-73.13m-43.93,73.13,28.22-57.73M136.81,953.63,187,877.8m-50.16,75.83,35.33-62.09m88.86-441-19.11,29.35m0,0,11.55-73.73m-11.55,73.73-7.79-42.43m0,0,19.34-31.3m12.17,88.78-18.82,27.49m0,0L261,450.54m-14.21,71.89-4.9-42.54m25.32,59.75-18.49,25.74m0,0,16.89-70.44m-16.89,70.44-1.93-43M265.65,585,247.55,609"/><path class="cls-5" d="M247.55,609l19.66-69.38M247.55,609l1.17-43.64m12,65.85-17.64,22.44m0,0L265.65,585m-22.56,68.71L247.55,609m4.64,69.77L235,699.67m0,0,25.69-68.44M235,699.67l8.05-46m-3.46,74.41-16.58,19.34m0,0,29.14-68.63m-29.14,68.63,12-47.75m-12.47,79.89-15.95,17.82m0,0,33-69.3m-33,69.3,16.43-50m-22.69,86.39-15.25,16.31m0,0,37.46-70.56m-37.46,70.56,21.51-52.74m-34.48,94.16L157.7,906.32m0,0,42.66-72.51M157.7,906.32l27.41-56.2M123.29,966.84l48.85-75.3m-48.85,75.3,34.41-60.52m84.19-426.43-18.38,29.24m0,0,10.59-71.67m-10.59,71.67-8-40.62m0,0,18.59-31.05m12.69,85L228.67,550m0,0,13.22-70.08M228.67,550l-5.16-40.84m25.21,56.25L230.91,591.3m0,0,15.88-68.87M230.91,591.3,228.67,550m18.88,59L230.1,633.38m0,0,18.62-68m-18.62,68,.81-42.08m12.18,62.37-17,22.86m0,0L247.55,609m-21.5,67.51,4-43.15M235,699.67l-16.58,21.4m0,0,24.63-67.4m-24.63,67.4,7.59-44.54m-3,70.89L207,767.4m0,0L235,699.67M207,767.4l11.48-46.33m-11.84,76.31L191.13,816m0,0,31.92-68.54M191.13,816,207,767.4m-21.87,82.72L170.27,867.3m0,0,36.35-69.92M170.27,867.3,191.13,816M157.7,906.32l-14.1,15.77m0,0,41.51-72m-41.51,72,26.67-54.79M110,981.16l47.66-74.84M110,981.16l33.56-59.07m79.91-413-17.74,29.21m0,0,9.74-69.83m-9.74,69.83-8.2-39m0,0,17.94-30.87M228.67,550l-17.5,27.63m0,0,12.34-68.47M211.17,577.6l-5.4-39.26m25.14,53L213.7,617.42m0,0,15-67.45m-15,67.45-2.53-39.82m18.93,55.78-16.88,24.68m0,0,17.69-66.76m-17.69,66.76.48-40.64m12.35,59.11-16.51,23.29m0,0,20.56-66.44m-20.56,66.44,3.68-41.76m5.24,63L202.38,743m0,0,23.67-66.48M202.38,743l7.16-43.19M207,767.4,191.37,788m0,0,27.09-66.94M191.37,788l11-45m-11.25,73-15.08,19.31m0,0L207,767.4m-30.93,67.87L191.37,788m-21.1,79.29-14.48,18m0,0L191.13,816m-35.34,69.35,20.26-50M143.6,922.09l-13.8,16.7m0,0,40.47-71.49M129.8,938.79l26-53.48M97,996.52l46.58-74.43M97,996.52l32.78-57.73m76-400.45L188.6,567.55m0,0,9-68.17m-9,68.17-8.38-37.41m0,0,17.35-30.76m13.6,78.22-16.94,27.75m0,0,11.54-67m-11.54,67-5.63-37.8m25.1,49.87L197,643.77m0,0,14.15-66.17M197,643.77l-2.79-38.42m19,52.71-16.37,25m0,0,16.85-65.65m-16.85,65.65.17-39.3m12.52,56.05-16,23.71m0,0,19.71-65.47m-19.71,65.47,3.34-40.46M202.38,743l-15.64,22.45m0,0,22.8-65.64m-22.8,65.64,6.77-41.93M191.37,788l-15.2,21.23m0,0L202.38,743m-26.21,66.23,10.57-43.78m-10.69,69.81-14.71,20m0,0,30-67.28m-30,67.28,14.83-46m-20.38,76.07-14.15,18.82m0,0,34.41-68.86m-34.41,68.86,19.7-48.84m-31.54,83.5-13.53,17.6m0,0,39.52-71.08m-39.52,71.08,25.37-52.26M84.21,1012.89l45.59-74.1m-45.59,74.1,32.06-56.5M188.6,567.55l-16.67,29.28m0,0,8.29-66.69m-8.29,66.69-8.55-36m0,0,16.84-30.71m14,75.21-16.46,27.92m0,0,10.83-65.72m-10.83,65.72-5.84-36.44M197,643.77l-16.21,26.62m0,0,13.42-65m-13.42,65-3-37.12m19.08,49.8-15.93,25.36m0,0L197,643.77m-16.1,64.66-.11-38m12.7,53.14-15.6,24.15m0,0,18.94-64.61m-18.94,64.61,3-39.25m5.82,57-15.24,23m0,0,22-64.91m-22,64.91,6.41-40.76m-1.74,61.56-14.84,21.83m0,0,25.41-65.61m-25.41,65.61,10.17-42.63m-10.16,66.85L147,876m0,0,29.22-66.75M147,876l14.38-44.92m-19.69,73.06-13.88,19.59m0,0,33.58-68.43m-33.58,68.43L147,876m-30.68,80.4L103,974.87m0,0,38.67-70.74M103,974.87l24.79-51.15m-56.2,106.51,44.71-73.84m-44.71,73.84L103,974.87m69-378L155.7,626.22m0,0,7.68-65.37m-7.68,65.37L147,591.57m0,0,16.39-30.72m14.39,72.42-16,28.11m0,0,10.19-64.55m-10.19,64.55-6-35.16m25.11,44.17L165,697.28m0,0,12.75-64m-12.75,64-3.28-35.9m19.18,47L165.4,734.16m0,0,15.41-63.77M165.4,734.16,165,697.28m12.89,50.4-15.23,24.6m0,0,18.24-63.85m-18.24,63.85,2.72-38.12m6.1,54.28L156.61,812m0,0,21.3-64.27M156.61,812l6.07-39.67m-1.35,58.79-14.51,22.44m0,0,24.68-65.07m-24.68,65.07L156.61,812M147,876l-14.09,21.4m0,0,28.47-66.32m-28.47,66.32,14-43.88m-19.06,70.21-13.63,20.35m0,0L147,876m-32.82,68.08,18.73-46.68M103,974.87l-13.1,19.32m0,0,37.89-70.47M89.87,994.19l24.26-50.12M59.06,1048.5,103,974.87M59.06,1048.5l30.81-54.31m65.83-368-15.84,29.54m0,0L147,591.57m-7.13,64.19L131,622.36m0,0,16-30.79m14.75,69.81-15.65,28.35m0,0,9.61-63.51m-9.61,63.51-6.23-34M165,697.28l-15.43,27.21m0,0,12.15-63.11m-12.15,63.11-3.5-34.76m19.31,44.43-15.18,26.12m0,0,14.8-63m-14.8,63-.63-35.79"/><path class="cls-5" d="M162.68,772.28l-14.89,25.07m0,0,17.61-63.19m-17.61,63.19,2.43-37.07M156.61,812,142,836m0,0,20.66-63.71M142,836l5.77-38.64m-1,56.16-14.24,23m0,0,24-64.61m-24,64.61L142,836m-9.16,61.4L119,919.45m0,0,27.81-65.94M119,919.45l13.57-42.89m-18.45,67.51-13.42,21.11m0,0,32.15-67.79m-32.15,67.79L119,919.45M89.87,994.19l-12.93,20.15m0,0,37.19-70.27m-37.19,70.27,23.77-49.16m-54,102.51,43.18-73.5m-43.18,73.5,30.25-53.35m62.92-358.58L124.35,685.5m0,0L131,622.36m-6.64,63.14-9-32.23m0,0L131,622.36m15.1,67.37-15.32,28.63m0,0,9.09-62.6m-9.09,62.6-6.42-32.86m25.24,39-15.11,27.56m0,0,11.61-62.32m-11.61,62.32-3.71-33.69m19.45,41.92-14.87,26.53m0,0,14.24-62.32m-14.24,62.32-.87-34.76m13.31,45.3-14.61,25.54m0,0,17-62.61m-17,62.61,2.17-36.08M142,836l-14.31,24.59m0,0,20.08-63.23m-20.08,63.23,5.47-37.69m-.6,53.67-14,23.65m0,0L142,836M118.6,900.21l9.11-39.63M119,919.45,105.38,942.2m0,0,27.2-65.64m-27.2,65.64,13.22-42m-17.89,65L87.48,987m0,0L119,919.45M87.48,987l17.9-44.83m-28.44,72.14-12.79,21m0,0,36.56-70.13m-36.56,70.13L87.48,987M34.41,1087.78l42.53-73.44m-42.53,73.44,29.74-52.47m60.2-349.81-15.21,30m0,0,6.18-62.21m-6.18,62.21L100,684.35m0,0,15.37-31.08m15.45,65.09-15,28.93m0,0,8.62-61.79m-8.62,61.79-6.59-31.81m25.34,36.57L119.65,780m0,0,11.12-61.62M119.65,780l-3.92-32.69m19.62,39.52-14.6,27m0,0,13.73-61.73m-13.73,61.73-1.1-33.8m13.53,42.91-14.35,26m0,0,16.52-62.12m-16.52,62.12,1.92-35.15m7,46.8-14.07,25.14m0,0,19.54-62.83m-19.54,62.83,5.19-36.79m-.23,51.28-13.77,24.28m0,0,22.88-63.91m-22.88,63.91,8.81-38.77m-8.26,56.48L91.94,965.63m0,0,26.66-65.42M91.94,965.63l12.89-41.14M87.48,987l-13.07,22.6m0,0,31-67.43m-31,67.43,17.53-44m-27.79,69.68-12.66,21.78m0,0,36-70.06m-36,70.06,22.92-47.46M22.2,1108.75l42-73.44m45-319.83-15,30.27m0,0,5.78-61.4m-5.78,61.4-9.35-30.09m0,0L100,684.35m15.78,62.94L101,776.57m0,0,8.19-61.09M101,776.57l-6.78-30.82M119.65,780l-14.59,28.34m0,0,10.67-61m-10.67,61L101,776.57m19.8,37.21-14.37,27.43m0,0L119.65,780m-13.27,61.23-1.32-32.89m13.77,40.61L104.7,875.49m0,0,16-61.71m-16,61.71,1.68-34.28m7.26,44.51L99.77,911.44m0,0,19.06-62.51M99.77,911.44l4.93-36m.13,49-13.59,24.9m0,0,22.4-63.67m-22.4,63.67,8.53-37.95m-7.83,54.19L78.66,989.75m0,0,26.17-65.26M78.66,989.75l12.58-40.36m-16.83,60.24L61.47,1033m0,0,30.47-67.35M61.47,1033l17.19-43.23M41,1075.66l33.44-66M40.32,1076.8,61.47,1033M27.59,1099.5l0-.07m4-6.82,0-.08M94.17,745.75,79.42,776.36m0,0,5.4-60.7m-5.4,60.7-9.51-29.12m0,0,14.91-31.58M101,776.57,86.37,806.24m0,0,7.8-60.49m-7.8,60.49-7-29.88m25.64,32L90.68,837.1m0,0L101,776.57M90.68,837.1l-4.31-30.86m20,35L92.21,869.13m0,0,12.85-60.81M92.21,869.13l-1.53-32m14,38.39-13.94,27.1m0,0,15.62-61.38M90.76,902.59l1.45-33.46m7.56,42.31-13.7,26.31m0,0,18.63-62.26M86.07,937.75l4.69-35.16m.48,46.8L77.81,974.94m0,0,22-63.5m-22,63.5,8.26-37.19m-7.41,52-13.14,24.81m0,0,25.72-65.17m-25.72,65.17,12.29-39.62m-16.34,58-12.83,24.1m0,0,30-67.33m-30,67.33,16.88-42.52m-31.47,73.3L61.47,1033m-29.18,58,16.35-33.87M79.42,776.36l-14.58,31m0,0,5.07-60.1m-5.07,60.1-9.68-28.19m0,0,14.75-31.91m16.46,59L72,836.34m0,0,7.45-60m-7.45,60-7.13-29M90.68,837.1,76.47,866.35m0,0,9.9-60.11m-9.9,60.11-4.5-30m20.24,32.79-14,28.44m0,0L90.68,837.1M78.2,897.57l-1.73-31.22m14.29,36.24L77,930.26m0,0,15.24-61.13M77,930.26l1.23-32.69m7.87,40.18L72.52,964.68m0,0,18.24-62.09M72.52,964.68,77,930.26m.84,44.68L64.5,1001.16m0,0,21.57-63.41M64.5,1001.16l8-36.48m-7,49.88-13,25.53m0,0,25.33-65.15m-25.33,65.15,12-38.93m-15.86,55.92L35.89,1082m0,0,29.63-67.4M35.89,1082l16.59-41.87M29.55,1095.8l19.09-38.72m-21.35,42.71,8.6-17.83m29-274.62L50.4,838.74m0,0,4.76-59.59M50.4,838.74l-9.85-27.3m0,0,14.61-32.29M72,836.34,57.71,866.91m0,0,7.13-59.57m-7.13,59.57L50.4,838.74m26.07,27.61L62.4,896.11m0,0L72,836.34M62.4,896.11l-4.69-29.2M78.2,897.57l-13.86,29m0,0,12.13-60.22M64.34,926.57,62.4,896.11M77,930.26,63.32,958.53m0,0,14.88-61m-14.88,61,1-32m8.18,38.11L59.09,992.25m0,0,17.88-62m-17.88,62,4.23-33.72m1.18,42.63-13.19,26.9m0,0,21.21-63.38m-21.21,63.38,7.78-35.81m-6.61,47.84-12.95,26.27"/><path class="cls-5" d="M39.53,1066.36l25-65.2m-25,65.2,11.78-38.3M35.89,1082l-10.29,20.8M24.34,1105l28.14-64.89M24,1105.56l15.52-39.2m-12.8,34.4,9.16-18.8M50.4,838.74,36.07,870.62m0,0,4.48-59.18m-4.48,59.18-10-26.46m0,0,14.5-32.72m17.16,55.47L43.57,898m0,0,6.83-59.24M43.57,898l-7.5-27.36M62.4,896.11,48.45,926.43m0,0,9.26-59.52m-9.26,59.52L43.57,898m20.77,28.59L50.58,956.16m0,0,11.82-60m-11.82,60-2.13-29.73m14.87,32.1L49.77,987.42m0,0,14.57-60.85M49.77,987.42l.81-31.26m8.51,36.09-13.34,28.24m0,0,17.57-62m-17.57,62,4-33.07m1.54,40.64-13.12,27.61m0,0,20.9-63.42m-20.9,63.42,7.56-35.18m-6.22,45.87-12.89,27m0,0,24.67-65.32m-24.67,65.32,11.55-37.71M36.07,870.62,21.82,903m0,0,4.23-58.86M21.82,903,11.61,877.37m0,0,14.44-33.21M43.57,898,29.5,929.61m0,0,6.57-59m-6.57,59L21.82,903m26.63,23.41-13.87,30.9m0,0,9-59.35m-9,59.35L29.5,929.61m21.08,26.55L36.9,986.38m0,0,11.55-60m-11.55,60-2.32-29m15.19,30.09L36.29,1017m0,0,14.29-60.82M36.29,1017l.61-30.6m8.85,34.11-13.27,28.94m0,0,17.29-62m-17.29,62L36.29,1017m1.9,38.69L25.12,1084m0,0,20.63-63.54M25.12,1084l7.36-34.6m-5.84,44-12.85,27.79m0,0,24.4-65.5m-24.4,65.5L25.12,1084m-3.3-181L7.62,936m0,0,4-58.62M7.62,936l-10.4-24.88m0,0,14.39-33.74M29.5,929.61l-14,32.24m0,0L21.82,903m-6.33,58.83L7.62,936m27,21.34L20.76,988.87m0,0,8.74-59.26m-8.74,59.26-5.27-27M36.9,986.38l-13.62,30.88m0,0,11.3-59.93m-11.3,59.93-2.52-28.39M36.29,1017l-13.42,30.26m0,0,14-60.86m-14,60.86.41-30m9.2,32.17L19.25,1079.1m0,0,17-62.12m-17,62.12,3.62-31.86M25.12,1084l-13,29.12m0,0,20.39-63.72m-20.39,63.72,7.16-34.05M7.62,936l-14.19,33.6m0,0,3.79-58.48m-3.79,58.48-10.6-24.13m0,0,14.39-34.35m18.27,50.74-14,32.89m0,0L7.62,936M1.51,994.74l-8.08-25.15m27.33,19.28L7,1021.1m0,0,8.51-59.25M7,1021.1,1.51,994.74m21.77,22.52L9.69,1048.85m0,0,11.07-60m-11.07,60L7,1021.1m15.89,26.14-13.4,31m0,0,13.81-61m-13.81,61,.22-29.39m9.56,30.25L6,1109.54m0,0,16.83-62.3M6,1109.54l3.43-31.3m2.62,34.91-13,29.92m0,0,20.18-64m-20.18,64,7-33.53M-6.57,969.59l-14.19,34.28m0,0,3.59-58.41m-3.59,58.41-10.81-23.41m0,0,14.4-35M1.51,994.74l-14,33.6m0,0,5.9-58.75m-5.9,58.75-8.29-24.47M7,1021.1-6.8,1054.05m0,0,8.31-59.31m-8.31,59.31-5.67-25.71m22.16,20.51L-3.89,1081.2m0,0L7,1021.1m-10.87,60.1-2.91-27.15m16.27,24.19L-3.93,1110m0,0,13.62-61.18M-3.93,1110l0-28.83M6,1109.54-7.17,1140.8m0,0,16.64-62.56M-7.17,1140.8-3.93,1110m3,33-13,30.78m0,0,20-64.31m-20,64.31,6.79-33m-13.59-136.93-14.22,35m0,0,3.41-58.43M-35,1038.89l-11-22.7m0,0,14.45-35.73m19.1,47.88-14,34.36m0,0,5.72-58.83m-5.72,58.83-8.5-23.81m28.18,15.16-13.8,33.74m0,0,8.13-59.45m-8.13,59.45-5.88-25.09m22.59,18.5-13.6,33.16m0,0,10.69-60.31m-10.69,60.31-3.11-26.57M-3.93,1110l-13.41,32.61m0,0,13.45-61.44m-13.45,61.44-.15-28.28m10.32,26.44-13.23,32.12m0,0L-3.93,1110m-16.47,62.89,3.06-30.28M-35,1038.89l-14.29,35.82m0,0,3.25-58.52m-3.25,58.52-11.28-22m0,0L-46,1016.19m19.54,46.51-14.07,35.18m0,0,5.57-59m-5.57,59-8.72-23.17m28.67,13.08-13.86,34.57m0,0,8-59.66m-8,59.66-6.09-24.48m23.06,16.48-13.65,34m0,0,10.54-60.58m-10.54,60.58-3.32-26m17.12,20.28-13.46,33.5m0,0,13.31-61.78m-13.31,61.78-.34-27.77m10.74,24.55-13.29,33m0,0,16.35-63.3m-16.35,63.3,2.89-29.8m-18.47-101.43-14.39,36.7m0,0,3.11-58.71m-3.11,58.71-11.52-21.34m0,0,14.63-37.37m20,45.18-14.14,36.06m0,0,5.42-59.23m-5.42,59.23-9-22.53m29.2,10.95-13.92,35.48m0,0,7.83-60m-7.83,60-6.31-23.9m23.55,14.43-13.72,34.94m0,0,10.4-61m-10.4,61-3.52-25.47m17.58,18.3-13.53,34.43m0,0,13.19-62.2m-13.19,62.2-.53-27.26m11.17,22.63-13.35,34m0,0,16.24-63.78M-47,1239.92l2.71-29.35m-19.33-99.16-14.5,37.64m0,0,3-59m-3,59L-90,1128.38m0,0,14.78-38.31m20.49,43.87-14.26,37m0,0,5.29-59.55M-68.95,1171l-9.21-21.91m29.78,8.79-14,36.45m0,0,7.71-60.35m-7.71,60.35L-68.95,1171m24.09,12.35-13.81,35.91m0,0,10.29-61.38m-10.29,61.38-3.73-24.93m18.07,16.28L-57.95,1246m0,0,13.09-62.69M-57.95,1246l-.72-26.78m11.63,20.7-13.45,35m0,0,16.16-64.34m-16.16,64.34,2.54-28.91m-20.21-97-14.65,38.66m0,0,2.85-59.33"/><path class="cls-5" d="M325.29,1514.56l-18.81-8m18.81,8-25.72,21.5M357,1466.92l-6.41,28.35m0,0L332,1485.64m18.59,9.63-25.25,19.29m56.23-64.34L375.37,1478m0,0L357,1466.92M375.37,1478l-24.83,17.28m55.16-59.92-5.9,27.18m0,0-18.28-12.31m18.28,12.31L375.37,1478m48.52-29.28-18.19-13.36m18.19,13.36-24.09,13.82M273.36,1560,268.19,1583m31.38-46.91-6.7,30.38m0,0L273.36,1560m19.51,6.41L275,1583m50.26-68.41-6.43,29.8m0,0-19.29-8.3m19.29,8.3-26,22.08m57.67-71.17-6.16,29.21m0,0-19.09-9.92m19.09,9.92-25.52,19.88M375.37,1478l-5.89,28.6m0,0-18.94-11.32m18.94,11.32-25.1,17.89m55.42-62-5.62,28m0,0L375.37,1478m18.81,12.5-24.7,16.1m49-30.56-18.73-13.5m18.73,13.5-24.35,14.46m-101.31,76L289.45,1583m29.41-38.61-6.19,30.74m0,0-19.8-8.66m19.8,8.66-9.12,7.87m40.83-58.49-5.9,30.1m0,0-19.62-10.22m19.62,10.22-25.81,20.52m56.81-68.51L363.86,1536m0,0-19.48-11.56M363.86,1536l-25.38,18.54m55.7-64.09-5.33,28.78m0,0-19.37-12.68m19.37,12.68-25,16.77m49.62-31.9-19.3-13.65m19.3,13.65-24.63,15.13m-76.18,55.83-1.48,7.87m27.29-28.39L333.31,1583m-5.55,0-15.09-7.87M363.86,1536l-5.34,30.33m0,0-20-11.79m20,11.79L336.36,1583m52.49-63.7-5.05,29.63m0,0L363.86,1536m19.94,12.86-25.28,17.47m50.2-33.32-19.87-13.78m19.87,13.78L383.8,1548.9m-25.28,17.47-2.7,16.6m28-34.07L379,1579.41m0,0-20.52-13m20.52,13-5,3.56m30.22-20.17-20.47-13.9m20.47,13.9L379,1579.41m0,0-.5,3.56m25.73-20.17L401.55,1583m-17.15,0-5.36-3.56M741.87,1583l-14-31.71m0,0L741.5,1583m-13.63-31.71L740.09,1583m-20.81-80.16L749.69,1583m-30.43-80.19,8.61,48.48m12,31.71-53.19-113.21m41.15,81.5-58.68-124.35m0,0L739.94,1583m-70.75-156.06,17.53,42.85m-31.48-99.61,72.63,181.11m-72.65-181.13,14,56.78m17.53,42.85-47.52-94.32m30,51.47-50.58-99.71m0,0,68.11,142.56M618.61,1327.2l20.59,48.24M601.06,1266l68.13,160.87M601.05,1266l17.56,61.17m20.59,48.24L597,1297.9m21.57,29.3-44.27-80.61m0,0,64.86,128.85m-64.86-128.85L597,1297.9m-42.67-114.42,64.24,143.72m-64.25-143.73,20,63.12m0,0-39.25-65.51m0,0L597,1297.9m-61.95-116.82,24.15,52.85m-45.76-116.38,60.86,129m-60.87-129,21.62,63.53m43.9,86.26-27.11-42m7.36,8.63L525,1181m0,0,51.19,81.64M525,1181l26.84,44.26m-16.79-44.22-35.19-53.36m0,0,59.34,106.21M499.9,1127.72,525,1181m-47.85-116.3,57.9,116.34m-57.91-116.34,22.72,63M525,1181l-31.22-43.68m0,0,58.06,87.94m-58.06-87.94,27.46,44.76m-21.38-54.4L468,1084.26m0,0L525,1181m-57-96.78,25.79,53.1m-49.23-114.92,55.31,105.28m-55.31-105.28L468,1084.26m57.27,103.53-3.34-4.25m0,0,1.72,2m-29.86-48.14-28.7-36m0,0,56.16,80.74m-56.16-80.74L493,1146.11m-25-61.85L438.92,1049m0,0,54.9,88.37M438.92,1049l26.2,52.39M415,988.71l53,95.55m-53-95.55L438.92,1049M493,1146.11l-26.32-29.86m0,0L522,1183.54m-55.29-67.29,29.24,37.51m-30.79-52.38-26.55-29.45m0,0L493,1146.11m-54.42-74.18,28.1,44.32M438.92,1049l-26.79-28.44m0,0,53,80.83m-53-80.83,26.44,51.38M388,962l50.95,87M388,962l24.16,58.52m54.54,95.7-24.59-24.56m0,0,53.83,62.07m-53.83-62.07L471.46,1129m-32.89-57L413.85,1048m0,0,52.82,68.21M413.85,1048l28.23,43.65m-29.95-71.14-24.84-22.66m0,0,51.28,74m-51.28-74L413.85,1048M363,941.25l49.13,79.3M363,941.25l24.29,56.64m110,157.94,1.53,1.32M471.46,1129l-23-20.38m0,0,53.05,51.52m-53.05-51.52,30.16,31.08m-36.5-48-23.1-20m0,0L471.46,1129M419,1071.74l29.44,36.86M413.85,1048,390.72,1029m0,0,51.36,62.74M390.72,1029,419,1071.74m-31.69-73.85-23.15-17.73m0,0L413.85,1048m-49.71-67.88L390.72,1029M339.8,925.46l47.49,72.43M339.8,925.45l24.34,54.71m135.26,177.6-.82-.64m-20-17.44-21.75-16.8m0,0,32,26m-32-26,30.55,25.55m-39-39.83-21.78-16.52m0,0,51.94,47.6m-51.94-47.6,30.19,30.8M419,1071.74l-21.78-15.92m0,0,51.22,52.78m-51.22-52.78,29.44,36.26M390.72,1029,369,1014m0,0,50,57.72M369,1014l28.24,41.8m-33.06-75.66-21.72-13.5m0,0,48.3,62.29m-48.3-62.29L369,1014M318.11,913.9l46,66.26m-46-66.26,24.31,52.76m154.25,188.2.47.31m-40.31-32.29-20.68-13.5m0,0,51.23,39m-51.23-39,30.57,25.37m-40.08-42.67L406,1079m0,0,50.85,43.89M406,1079l30.17,30.39m-38.95-53.56-20.62-12.36m0,0,50.06,48.62m-50.06-48.62L406,1079m-37-65-20.55-11.3m0,0,48.79,53.1m-48.79-53.1,28.17,40.74m-34.16-76.8L322,956.84m0,0L369,1014m-47-57.18,26.46,45.88M297.72,906l44.7,60.67M297.72,906,322,956.84m175.23,198.38-.24-.14m-30.22-20.33L447,1123.9m0,0,44.76,27.92m5.07,3.16.34.21M447,1123.9l30.63,20.45m-41.47-35-19.72-10.55"/><path class="cls-5" d="M416.43,1098.83l50.29,35.92m-50.29-35.92L447,1123.9M406,1079l-19.68-10m0,0,49.85,40.41M386.3,1069l30.13,29.86m-39.85-55.37-19.6-9.22m0,0L406,1079m-49-44.75L386.3,1069m-37.89-66.25-19.5-8.09m0,0,47.67,48.83m-47.67-48.83L357,1034.24m-35-77.4-19.39-6.61m0,0,45.85,52.49m-45.85-52.49,26.35,44.4m-50.47-93.37L322,956.84m-43.51-55.58,24.12,49m192.75,204.39-6.15-2.78m-11.54-7.49-18.9-8.48m0,0L493.21,1153m-34.49-17.14,30.44,16M447,1123.9l-18.9-8.27m0,0,49.53,28.72m-49.53-28.72,30.63,20.24m-42.29-37-18.85-7.89m0,0,49.41,33m-49.41-33,30.51,24.69M386.3,1069l-18.79-7.27m0,0,48.92,37.13m-48.92-37.13,30.07,29.24m-40.6-56.7-18.69-6.41m0,0,48,41.14m-48-41.14,29.22,33.87m-38.6-67.07-18.57-5.25m0,0L357,1034.24m-46.64-44.86,28,38.45m-35.73-77.6-18.44-3.78m0,0,44.79,48.18m-44.79-48.18,26.22,42.93m-50.21-90.09,42.43,50.94m-42.43-50.94,24,47.16m205,205.39L471,1145.46m0,0,24.45,9.29M471,1145.46l25.25,10m-37.53-19.59-18.16-6.23m0,0,48.6,22.2m-48.6-22.2L471,1145.46m-42.91-29.83L410,1109.69m0,0,48.76,26.18M410,1109.69l30.6,20m-43-38.7-18.08-5.47m0,0,48.59,30.16m-48.59-30.16L410,1109.69m-42.45-48-18-4.8m0,0,48.06,34m-48.06-34,30,28.57m-41.21-57.64-17.88-3.89m0,0,47.1,37.76m-47.1-37.76,29.11,33m-39.18-67.52-17.74-2.73m0,0,45.69,41.18M292.6,986.65l27.81,37.29m-36.29-77.49-17.6-1.27m0,0,43.82,44.2m-43.82-44.2,26.08,41.47m-49.94-86.87,41.46,46.67m-41.46-46.67,23.86,45.4m230.77,211.21-13.75-3.52m0,0,14,3.78m-14-3.78,14.21,3.93M471,1145.46l-17.49-4.37m0,0,43.2,14.78m-43.2-14.78,30,11.78m-43-23.23-17.47-4.16m0,0,47.91,20m-47.91-20,30.42,15.61M410,1109.69l-17.43-3.79m0,0,48,23.74m-48-23.74,30.56,19.58m-43.59-40-17.36-3.26m0,0L410,1109.69m-47.82-27.48,30.39,23.69m-43-49-17.27-2.55m0,0,47.25,31.12m-47.25-31.12,29.89,27.86m-41.73-58.27-17.15-1.62m0,0,46.26,34.58m-46.26-34.58,29,32m-39.65-67.7-17-.45m0,0,44.83,37.74M275.58,986.2l27.68,36.12m-36.74-77.14-16.86,1m0,0,42.94,40.5m-42.94-40.5,25.92,40.05m-49.64-83.76,40.58,42.74m-40.58-42.74,23.72,43.71M500.45,1159l-.12,0m-.23,0-4-.66m0,0,4,.66m.23,0h.12m-4.36-.71,4,.66m.23,0,.12,0m-16.91-6.09-16.87-2.7m0,0,32.07,7.51m.5.12.25.06m-32.82-7.69,29.42,8.07m-42.58-17.15-16.87-2.53m0,0,46.9,14.31m-46.9-14.31,30,11.61m-43.58-24.69-16.85-2.24m0,0,47.27,17.85m-47.27-17.85,30.4,15.32m-44.11-32.66-16.8-1.83m0,0,47.36,21.41m-47.36-21.41,30.51,19.17m-44.1-41L345.41,1081m0,0,47.12,25m-47.12-25,30.32,23.12m-43.48-49.72-16.62-.51m0,0,46.51,28.37m-46.51-28.37L345.41,1081m-42.15-58.63-16.5.44m0,0,45.49,31.59m-45.49-31.59,28.87,31.08M275.58,986.2l-16.36,1.6m0,0,44,34.52m-44-34.52,27.54,35m-37.1-76.61-16.22,3m0,0,42.14,37.06m-42.14-37.06,25.78,38.66m-33.28-85.36-16.08,4.61m0,0,39.8,39.1m-39.8-39.1,23.58,42.09m262.65,209.1-16.31-1.17m0,0,21.41,2.8m-21.41-2.8,22.18,3.61m-35.29-10.51-16.31-1m0,0,45.73,9.1m-45.73-9.1,29.42,7.93m-43.14-18.51-16.29-.81m0,0,46.32,12.42m-46.32-12.42,30,11.39m-44.12-25.9-16.26-.48m0,0,46.66,15.8M390,1122.76l30.37,15m-44.62-33.68H359.52m0,0,46.72,19.18m-46.72-19.18,30.46,18.7M345.41,1081l-16.14.59m0,0,46.46,22.53m-46.46-22.53,30.25,22.52m-43.89-50.22-16,1.36m0,0L345.41,1081m-45.82-25.75,29.68,26.34m-42.51-58.78-15.92,2.31m0,0,44.79,28.77m-44.79-28.77,28.75,30.13m-40.37-67.4-15.78,3.46m0,0,43.32,31.5m-43.32-31.5,27.4,33.81m-37.4-75.93L217.8,954m0,0,41.42,33.85M217.8,954l25.64,37.31m-49.08-77.84,39.08,35.72m-39.08-35.72L217.8,954m262,203.12-15.78.34m0,0,38.37,3.73M464,1157.41l28.66,4.56m-42.3-12.83-15.78.52m0,0,45.2,7.41m-45.2-7.41,29.42,7.75m-43.65-19.66-15.77.79m0,0,45.78,10.6m-45.78-10.6,30,11.12m-44.6-26.9-15.74,1.17m0,0,46.11,13.82m-46.11-13.82,30.34,14.61m-45.06-34.48-15.68,1.66m0,0,46.14,17m-46.14-17,30.4,18.21m-45-42.39-15.6,2.31m0,0,45.85,20.21m-45.85-20.21,30.17,21.87m-44.25-50.52-15.51,3.09m0,0,45.19,23.25m-45.19-23.25,29.59,25.56m-42.83-58.78-15.39,4m0,0,44.14,26.09m-44.14-26.09,28.63,29.18m-40.64-67-15.26,5.16m0,0,42.66,28.65m-42.66-28.65,27.27,32.69M217.8,954l-15.13,6.47m0,0,40.77,30.84m-40.77-30.84,25.51,36m-48.83-75L217.8,954m-38.45-32.56,23.32,39m261.33,197-15.3,1.76m0,0,44,2.8m-44-2.8,28.67,4.41m-42.79-13.92-15.3,2"/><path class="cls-5" d="M419.28,1151.63l44.72,5.78m-44.72-5.78,29.42,7.54m-44.12-20.63-15.28,2.29m0,0,45.28,8.83m-45.28-8.83,30,10.8m-45-27.7L359,1126.64m0,0,45.58,11.9M359,1126.64l30.3,14.19m-45.46-35.11-15.2,3.23m0,0,45.6,15m-45.6-15L359,1126.64m-45.33-42.79-15.12,3.88m0,0,45.29,18m-45.29-18L328.64,1109m-44.56-50.66-15,4.68m0,0,44.62,20.88M269.05,1063l29.5,24.76m-43.1-58.62-14.92,5.63m0,0,43.55,23.55m-43.55-23.55L269.05,1063m-40.87-66.55-14.81,6.73m0,0,42.08,26m-42.08-26,27.16,31.59m-37.86-74.32-14.68,8m0,0,40.19,28m-40.19-28,25.38,34.73M164.8,930.82l37.87,29.6m-37.87-29.6L188,968.42M448.7,1159.17l-14.83,3.09m0,0,43.5,1.32m-43.5-1.32,28.66,4.22m-43.25-14.85L404.45,1155m0,0,44.25,4.18M404.45,1155l29.42,7.27m-44.57-21.43-14.82,3.7m0,0,44.8,7.1m-44.8-7.1,30,10.46M359,1126.64l-14.79,4.14m0,0,45.09,10m-45.09-10,30.27,13.75M328.64,1109l-14.74,4.7m0,0,45.1,13m-45.1-13,30.31,17.13m-45.66-43-14.68,5.36m0,0L328.64,1109m-44.77-15.86,30,20.56M269.05,1063l-14.59,6.17m0,0,44.09,18.59m-44.09-18.59,29.41,23.95m-43.34-58.35-14.5,7.1m0,0,43,21.13m-43-21.13,28.43,27.3m-41.09-66L199,1011.34m0,0,41.54,23.4M199,1011.34l27,30.5m-38-73.42-14.27,9.41m0,0,39.65,25.32m-39.65-25.32L199,1011.34M150.63,941.6,188,968.42M150.63,941.6l23.09,36.23m260.15,184.43-14.41,4.35m0,0,43.07-.13m-43.07.13,28.67,4M404.45,1155,390,1159.63m0,0,43.83,2.63M390,1159.63l29.42,7m-45-22.08-14.39,5m0,0,44.36,5.43m-44.36-5.43,30,10.07m-45.83-28.85-14.37,5.49m0,0,44.64,8.26m-44.64-8.26,30.25,13.29m-46.19-35.91-14.33,6.06m0,0,44.64,11.07m-44.64-11.07,30.27,16.56m-46-43.18-14.27,6.75m0,0,44.3,13.81m-44.3-13.81,30,19.87m-45.11-50.57-14.2,7.54m0,0,43.61,16.41m-43.61-16.41,29.34,23.16m-43.57-58-14.11,8.47m0,0,42.54,18.83m-42.54-18.83,28.34,26.37M199,1011.34l-14,9.53m0,0,41.05,21m-41.05-21,26.94,29.44m-38.2-72.48-13.91,10.72m0,0L199,1011.34m-39.18-22.79L185,1020.87m-48.17-67.24,36.91,24.2m-36.91-24.2,23,34.92m259.65,178.06-14,5.55m0,0,42.68-1.54m-42.68,1.54,28.68,3.76M390,1159.63l-14,5.88m0,0,43.43,1.1m-43.43-1.1,29.42,6.65m-45.36-22.6-14,6.27m0,0,44,3.8m-44-3.8,29.95,9.68m-46.19-29.24-14,6.77m0,0,44.24,6.52M315.85,1143l30.23,12.79m-46.51-36.12-13.95,7.35m0,0,44.22,9.21m-44.22-9.21,30.23,16m-46.25-43.2-13.91,8.05m0,0,43.88,11.82m-43.88-11.82,29.93,19.17m-45.36-50.38-13.84,8.85m0,0,43.18,14.31m-43.18-14.31,29.27,22.36m-43.77-57.58-13.76,9.77m0,0,42.1,16.6m-42.1-16.6,28.26,25.45M185,1020.87l-13.69,10.8m0,0,40.63,18.64m-40.63-18.64,26.87,28.41m-38.35-71.53-13.6,12m0,0L185,1020.87m-38.77-20.37,25.08,31.17m-48-64.83,36.52,21.71m-36.52-21.71,22.92,33.66m259.24,171.66-13.63,6.7m0,0,42.31-2.94m-42.31,2.94,28.69,3.48M376,1165.51l-13.63,7m0,0,43.05-.39m-43.05.39,29.42,6.31m-45.74-23-13.63,7.47m0,0,43.58,2.21m-43.58-2.21,29.95,9.25M315.85,1143l-13.62,8m0,0,43.85,4.81M302.23,1151l30.22,12.28m-46.83-36.24-13.6,8.58m0,0,43.83,7.4m-43.83-7.4L302.23,1151m-46.54-43.13-13.56,9.27m0,0,43.49,9.9m-43.49-9.9L272,1135.64m-45.6-50.11-13.52,10.08m0,0,42.79,12.28m-42.79-12.28,29.23,21.55m-44-57.08-13.46,11m0,0,41.72,14.47m-41.72-14.47,28.2,24.55m-41.61-63.94-13.38,12m0,0,40.25,16.42m-40.25-16.42,26.79,27.4m-38.49-70.56-13.31,13.1m0,0,38.39,18.07M132.9,1013.6l25,30.06M110,981.16l36.17,19.34M110,981.16l22.86,32.44m258.92,165.26-13.27,7.79m0,0,42-4.31m-42,4.31,28.71,3.17m0,0,13.25-7.48m-58.11-9.79-13.29,8.16m0,0,42.71-1.85m-42.71,1.85,29.44,5.94m-46.1-23.35-13.3,8.61m0,0,43.25.64m-43.25-.64,30,8.8M302.23,1151l-13.3,9.13m0,0,43.52,3.15m-43.52-3.15,30.22,11.76M272,1135.64l-13.29,9.75m0,0,43.5,5.63m-43.5-5.63,30.2,14.76m-46.8-43-13.26,10.45m0,0,43.15,8m-43.15-8,29.86,17.78m-45.83-49.78-13.22,11.24m0,0,42.45,10.31m-42.45-10.31,29.19,20.76m-44.17-56.55-13.17,12.13m0,0,41.37,12.42m-41.37-12.42,28.15,23.66m-41.77-63.19-13.12,13.12m0,0,39.91,14.28m-39.91-14.28,26.74,26.41M132.9,1013.6l-13.07,14.2m0,0,38.08,15.86m-38.08-15.86,25,29M97,996.52l35.87,17.08M97,996.52l22.8,31.28m258.72,158.85-12.94,8.83m0,0,41.65-5.66m-41.65,5.66,28.74,2.85m-45.24-17.62-13,9.23m0,0,42.41-3.29m-42.41,3.29,29.47,5.54m-46.46-23.57-13,9.69m0,0,42.94-.89m-42.94.89,30,8.34m-47.21-29.79-13,10.23m0,0,43.21,1.53"/><path class="cls-5" d="M275.94,1170.38l30.23,11.22m-47.44-36.21-13,10.85m0,0,43.19,3.91m-43.19-3.91,30.2,14.14m-47.07-42.77-13,11.56m0,0,42.84,6.22m-42.84-6.22,29.85,17.07m-46.06-49.39-13,12.35m0,0,42.14,8.41m-42.14-8.41,29.16,20m-44.36-56-12.92,13.23m0,0,41.07,10.43m-41.07-10.43,28.12,22.78m-41.94-62.42L131.9,1071m0,0,39.63,12.22M131.9,1071l26.71,25.45m-38.78-68.62L107,1043.05m0,0,37.81,13.73M107,1043.05,131.9,1071m-47.69-58.08,35.62,14.91m-35.62-14.91L107,1043.05m258.63,152.43L353,1205.32m0,0,41.36-7m-41.36,7,28.77,2.51m-45.62-17.89-12.65,10.26m0,0,42.12-4.72m-42.12,4.72,29.5,5.12m-46.82-23.72-12.68,10.74m0,0,42.65-2.4m-42.65,2.4,30,7.86m-47.55-29.82-12.7,11.29m0,0,42.93-.07m-42.93.07,30.25,10.67m-47.75-36.1L233,1168.16m0,0,42.91,2.22M233,1168.16l30.21,13.51m-47.35-42.5-12.72,12.63m0,0,42.57,4.44m-42.57-4.44L233,1168.16m-46.3-49L174,1132.62m0,0,41.88,6.55M174,1132.62l29.16,19.18m-44.56-55.38-12.7,14.29m0,0,40.82,8.49m-40.82-8.49,28.1,21.91M131.9,1071l-12.68,15.24m0,0,39.39,10.21m-39.39-10.21,26.69,24.5M107,1043.05,94.32,1059.3m0,0L131.9,1071M94.32,1059.3l24.9,26.91m-47.66-56L107,1043.05m-35.42-12.82,22.76,29.07m258.67,146-12.33,10.82m0,0,41.1-8.31m-41.1,8.31,28.81,2.13m-46-18.07-12.37,11.24m0,0,41.87-6.12m-41.87,6.12,29.54,4.7m-47.17-23.8-12.41,11.74m0,0,42.41-3.88m-42.41,3.88,30,7.36m-47.88-29.77L250.79,1194m0,0,42.7-1.65m-42.7,1.65,30.29,10.09m-48-35.92-12.47,12.95m0,0,42.68.56m-42.68-.56L250.79,1194m-47.62-42.19-12.49,13.66m0,0,42.35,2.7m-42.35-2.7,29.88,15.65M174,1132.62l-12.5,14.45m0,0,41.66,4.73m-41.66-4.73,29.17,18.39m-44.77-54.75L133.41,1126m0,0,40.6,6.6m-40.6-6.6,28.1,21m-42.29-60.86-12.5,16.23m0,0,39.19,8.27m-39.19-8.27L133.41,1126M94.32,1059.3l-12.5,17.23m0,0,37.4,9.68m-37.4-9.68,24.9,25.91M59.06,1048.5l35.26,10.8m-35.26-10.8,22.76,28m258.84,139.61-12.05,11.76m0,0,40.86-9.63m-40.86,9.63,28.86,1.75m-46.35-18.21L299,1223.65m0,0,41.65-7.51M299,1223.65l29.6,4.25m-47.53-23.82-12.16,12.73m0,0,42.2-5.37m-42.2,5.37,30.09,6.84M250.79,1194l-12.2,13.3m0,0,42.49-3.21m-42.49,3.21,30.33,9.52m-48.36-35.7-12.25,14m0,0,42.48-1.07m-42.48,1.07,30.28,12.23m-47.91-41.83-12.27,14.67m0,0,42.15,1m-42.15-1,29.9,14.93m-46.8-48-12.3,15.44m0,0,41.47,3m-41.47-3,29.2,17.62m-45-54.11-12.33,16.29m0,0,40.43,4.76m-40.43-4.76,28.13,20.2m-42.49-60.07-12.34,17.21m0,0,39,6.37m-39-6.37,26.7,22.66m-39.26-65.78L69.47,1094.7m0,0,37.25,7.74m-37.25-7.74,24.91,25m-47.69-52,35.13,8.84m-35.13-8.84,22.78,27m259.14,133.2-11.79,12.68m0,0,40.65-10.93m-40.65,10.93,28.93,1.34M299,1223.65l-11.85,13.15m0,0,41.45-8.9m-41.45,8.9,29.66,3.78m-47.9-23.77L257,1230.48m0,0,42-6.83m-42,6.83,30.16,6.32m-48.57-29.51-12,14.26m0,0,42.31-4.74m-42.31,4.74,30.39,8.93m-48.69-35.42-12,14.92m0,0,42.31-2.69M196.28,1210l30.33,11.57m-48.2-41.42-12.09,15.63m0,0,42-.7m-42,.7,30,14.22m-47.07-47.47-12.13,16.42m0,0,41.33,1.2m-41.33-1.2,29.24,16.83m-45.24-53.45-12.17,17.26m0,0,40.3,2.94m-40.3-2.94,28.17,19.36m-42.7-59.28L82.17,1137.8m0,0,38.91,4.51m-38.91-4.51,26.74,21.77M69.47,1094.7l-12.25,19.1m0,0,37.16,5.85m-37.16-5.85,25,24m-47.76-50,35.06,6.92m-35.06-6.92,22.81,26m259.6,126.78-11.55,13.58m0,0,40.48-12.24m-40.48,12.24,29,.92m-47.12-18.28-11.62,14.06m0,0,41.28-10.28m-41.28,10.28,29.73,3.3M257,1230.48l-11.7,14.6m0,0,41.86-8.28m-41.86,8.28,30.24,5.78m-48.93-29.31-11.77,15.21m0,0,42.16-6.28m-42.16,6.28,30.46,8.32m-49-35.1-11.85,15.87m0,0,42.18-4.3m-42.18,4.3,30.41,10.91m-48.52-41-11.91,16.59m0,0,41.87-2.37m-41.87,2.37,30,13.5m-47.35-46.92-12,17.37m0,0,41.22-.54m-41.22.54,29.31,16m-45.5-52.78-12,18.2m0,0,40.21,1.16m-40.21-1.16,28.23,18.53m-42.93-58.5-12.09,19.09m0,0,38.83,2.68m-38.83-2.68,26.79,20.88m-39.65-64-12.14,20m0,0,37.09,4m-37.09-4,25,23.08m-47.87-48.14,35,5m-35-5,22.87,25.06m260.19,120.35L294,1268.62m0,0,40.32-13.54M294,1268.62l29.09.47m0,0,11.23-14m-58.74-4.22-11.41,15m0,0,41.14-11.66m-41.14,11.66,29.83,2.8m-48.66-23.54-11.49,15.52m0,0,41.73-9.74m-41.73,9.74,30.32,5.22m-49.29-29.06-11.59,16.13m0,0,42.05-7.81m-42.05,7.81,30.56,7.71m-49.38-34.75-11.67,16.8m0,0,42.08-5.89m-42.08,5.89,30.49,10.24m-48.84-40.54-11.77,17.53m0,0,41.79-4m-41.79,4,30.12,12.77"/><path class="cls-5" d="M162.78,1534.35l31.61-7.2m-54.5-13.75-9.62,26.5m0,0,41.81-31.25m-41.81,31.25,32.51-5.55m-55.71-18-10,27.35m0,0,42.79-30.28M97.1,1543.68l33.17-3.78m-56.36-22.56-10.33,28.24m0,0,43.49-29.25m-43.49,29.25,33.52-1.9m-56.36-27.35L30,1545.5m0,0,43.88-28.16M30,1545.5l33.55.08M7.9,1513.24l-11.11,30.13m0,0,44-27m-43.95,27L30,1545.5M-24.24,1508l-11.52,31.11m0,0L7.9,1513.24m-43.66,25.89,32.55,4.24m-52.1-42.7-11.93,32.08m0,0,43-24.73m-43,24.73,31.48,6.38m-49.16-47.94-12.35,33.07m0,0,42-23.59m-42,23.59,30,8.49m-45.47-53.09-12.75,34m0,0,40.54-22.49m-40.54,22.49,28.19,10.58m-54.2-23.16,38.76-21.44m-38.76,21.44,26,12.58m288.24,20.67L153.59,1561m0,0,40.8-33.85M153.59,1561l31.93-8m-55.25-13.12-9.55,27.49m0,0,42.06-33m-42.06,33,32.87-6.39M97.1,1543.68l-9.92,28.38m0,0,43.09-32.16m-43.09,32.16,33.54-4.67m-57.14-21.81-10.32,29.31m0,0,43.84-31.21m-43.84,31.21,33.92-2.83M30,1545.5,19.3,1575.78m0,0,44.28-30.2m-44.28,30.2,34-.89m-56.47-31.52-11.16,31.27m0,0L30,1545.5m-44.4,29.14,33.67,1.14m-55.06-36.65-11.6,32.28m0,0,44.15-28m-44.15,28,33,3.23m-52.87-41.89-12.05,33.3m0,0,43.53-26.92m-43.53,26.92,31.93,5.36m-49.91-47.15-12.49,34.3m0,0,42.52-25.81m-42.52,25.81,30.47,7.49m-46.17-52.37L-138.4,1549m0,0,41.13-24.71M-138.4,1549l28.64,9.59m-55.08-21.2,39.38-23.68m-39.38,23.68L-138.4,1549m292,12-7.24,22m4.65,0,34.52-30m-20.27,30,11.51-3.14m-56-12.44L115.54,1583m11.38,0,26.67-22m-66.41,11.06L83.52,1583m17.36,0,19.84-15.58m-67.46,7.5L50.53,1583m22.14,0,14.51-10.91m-67.88,3.72L16.84,1583m25.25,0,11.17-8.08m-67.63-.25-2.88,8.33M9,1583l10.31-7.19m-66.66-4.37-4,11.56m24.74,0,12.29-8.33m-64.92-8.59-6,16.92m20.43,0,17.46-11.56m-62.4-12.85-8.68,24.41m13.19,0,26-16.92M-138.4,1549l-12.2,34m3.13,0,37.71-24.41M-178.45,1575l40-26m-40,26,20.22,8m331.53,0,3.46-3.14m-1,3.14,1-3.14M-178.45,1575l-2.84,8m666.16-440.39-.05.13m0,0,0,.09m-1.3,3,0,.07m-2.13-1.42v-.08m.57-4.61v-.09m0,0v-.13m9.44,9.56-.08.19m0,0-.06.14m-4.2-1.18v-.1m.38-2.67,0-.14m0,0,0-.19m5,5.6,0-.19m0,0,0-.24M755.45,1583l-36.17-80.16m0,0-64-132.62m0,0L601.06,1266m0,0-46.68-82.54m0,0-40.88-65.91m0,0-36.28-52.8m0,0-32.59-42.29m0,0L415,988.71m0,0L388,962m0,0-25-20.78m0,0-23.2-15.79m0,0L318.11,913.9m0,0L297.72,906m0,0-19.28-4.73m-16.79-1.8-1.52-.17m0,0-12.15.34m0,0-5.32.15m0,0-13,2.07m0,0-3.69.59m-16.08,4.61-4.6,1.89m-10.91,4.48-11.84,6.29m0,0-3.16,1.68m0,0L169.22,928m-4.42,2.87-5.6,4.26m0,0-8.57,6.52m-9.74,8.48-4.08,3.55m0,0-5,4.93m0,0-8.48,8.28m0,0-1.81,2M110,981.16,108.48,983M97,996.52l-6.11,7.81m0,0-6.7,8.56m0,0-1.75,2.4m0,0-10.9,14.94m-7.44,10.88-5.06,7.39m0,0-8.73,13.55m0,0-3.64,5.64m-36.6,62.86.05-.1m-7.7,14.45L-2,1153.34m-8.49,16.58-3.61,7m-12,24.38-.07.14m44.9-86.35,20.88-48.78m-23,52.63,10.12-25.61m-64.2,131.84-.81,1.7m52-102.72,13-30.82m-16.55,37.17,3.7-9.38m-62.85,128.92-1.47,3.18m64.32-132.1L6.92,1136.5M3.44,1143l21.68-59M2.44,1144.9l9.65-31.75m-3,19.2,4.66-11.18M-62,1278.81l-.79,1.76m59.21-124.33,15.63-43.09m-19,49.67,6-19.75m-72.68,162.48-1.43,3.3m64.5-138.93,9.61-26.85m-15.16,37.82,2.13-7m-72.91,163-.56,1.31M-14,1173.85l-6.91,16.73m-4.18,8.47,17.88-58.25m-19,60.55,5.78-28.43m3,10.59,3.42-9.66m-73.47,164.29-6,14.59m0,0-6.49,15.74m66-150.81,13.56-44.74m-17.16,52.3,3.87-19.28m-71,174.45-7.84,19.49m69.67-163.15,9.21-30.79m-15.37,44.15,2-10.17m-69.21,169.34-9.1,23.16m73.47-176.14,4.84-16.36M-60.71,1276l.22-1.11m-67.86,165.31-10,25.92m77.83-191.23-1.47,3.9m-9.56,22L-57.95,1246m-15.66,59.55,1.92-23m10.68-5.8.52-1.79m-82.88,204.67-8.1,21.52m69.09-174.89,10.69-43.71m-15.18,54.33,1.3-16.7m-73.17,200.68-6.1,16.55m71.4-184.63,7.87-32.6M-174.49,1564l-4,11m64.26-171,.33-4.92m0,0-12.72,36.52m-1.56,4.05,12.75-65.53m-13,66.09-1.72-24.13m13.82-6.83,2.39-10.17m-27.26,74.5,11.05-57.5m-13.3,63.49-1.65-20m-9.41,49.58,9.41-49.58m-13.72,61.28-1.52-16.24m-7.83,41.77,7.83-41.77M-174.49,1564l-1.34-12.69M489,1146.74l-.09.15m0,0-.07.1m-3.18-3.63-.06.13m0,0,0,.1m-1.16,2.85,0,.08"/><path class="cls-5" d="M481.44,1139.1l-.06.08M313.17,1282.45l-7.39,10.7m0,0-4.41,6.38m178.17-162.35,0,.07m4.83,4.78-.12,0m0,0-.08.05m-3.57,1.78-.07,0m9.25,3.58-.08.16m0,0-.07.11m3.85,3.47-.21.08m0,0-.15.07m19.43,19.75,0,.11M597,1297.9l-18-30.56m-27.11-42-26.58-37.51m-3.34-4.25,1,1.06m0,0,.19.19m-1.22-1.25L512,1172.17m2.58,1.86,1,1m0,0,1.23,1.33m-4.24-5.35.15.14m1.2,1.54-.8-.81m0,0-.64-.66m-3-3.84.4.36m0,0,.48.44m-2.19-2.49.31.25m0,0,.36.31m3.67,4.86.79.81m-24.44-23.1-10.29-9.19M506.84,1164l.3.25m0,0,.35.31m-2-2.33.25.21m0,0,.3.25m.39.49-.27-.21m0,0-.23-.18m-1.85-2.48.2.14m-8.7-6.54.52.35m6.72,4.52.14.09m0,0,.17.12m-6.17-3.58,1.19,1m0,0,.24.2m7.31,5.92.24.2m0,0,.28.23m-2.87-3.65-.17-.12m0,0-.14-.09m-.67-.87.12.07m0,0,.14.08m-.61-.59.11,0m0,0,.13.07m-5.69-3.21.37.25m6,4,.15.09m0,0,.17.12m-14.55-9.64.53.35m4.29,3.33-.27-.15m0,0-15.59-8.66m18.18,9.78.28.15m5.53,3,.1,0m0,0,.12.07m-6-3.43.46.24m5,2.64.09,0m0,0,.12.06m.59.76-.11,0m0,0-.09-.05m-.79-1,.08,0m0,0,.1,0m-5-2.1.08,0m5.14,2.56.1,0m0,0,.11.06M261.65,899.46l-1.52-.17m242,258.45-.1,0m0,0-.08,0M260.13,899.29l-12.15.34m0,0-5.32.15m259.43,258.09.08,0m0,0,.09,0m0,.13.08,0m0,0,.1,0M242.66,899.78l-13,2.07m0,0-3.69.59m277.53,257-.1,0m0,0h-.08m0,0,.08,0m0,0h.1m-.18,0,.09,0m0,0h.09m-.82-.85.09,0m0,0,.09,0m1.17,1.6h.1m.5.86h.09m0,0,.11,0M194.66,913.29l-.3.13m310.45,248h.09m0,0h.1m-12.34.57,3.33,0m9.13-.14h.08m0,0h.1M194.36,913.42l-11.85,6.29m0,0-3.16,1.68m298,242.19,4.07-.43m0,0,11.22-1.18M179.35,921.39,169.21,928m293.32,238.53.71-.14M164.8,930.82l-5.6,4.26m0,0-8.57,6.52m297.5,229,14.3-4.11m0,0,.1,0M140.89,950.08l-4.08,3.55m297.32,222.29,10.56-4m0,0,3.44-1.3m-311.32-217-5,4.93m0,0-8.48,8.28m297.22,215.5.13-.06M123.29,966.84l-1.8,2M110,981.16,108.48,983m285.87,215.33,11.87-7.82m0,0,1-.69M97,996.52l-6.12,7.81m0,0-6.7,8.56m297.55,194.94,4.3-3.25M84.21,1012.89l-1.75,2.4m0,0-10.9,14.94m297.91,188,8.36-7.1m0,0,3.93-3.34M64.12,1041.11l-5.06,7.39m298.41,181.15,7.93-7.52m0,0,4.07-3.86M59.06,1048.5l-8.73,13.55m0,0-3.64,5.64m299.06,174.23,7.18-7.51m0,0,4.54-4.76m-23.19,25.43,3-3.41M312.06,1284l1.11-1.5m-7.46,10.76,6.35-9.26m-21.33,32.22,10.56-16.52m-20.93,33.87,10.36-17.34m-20.55,35.51,10.18-18.16m-20.19,37.16,10-19m-19.84,38.8,9.83-19.81m-19.51,40.45,9.67-20.64m-19.2,42.12,9.53-21.47M221.74,1455l9.38-22.32m-331-64.16-12.63,31.4m325.06,78.27,9.24-23.19m-18.36,47.25,9.12-24.06m-18.11,49,9-25M185.52,1553l8.87-25.87m-17.63,52.68,8.76-26.81m327-382,0,.1m0,0,0,.11m-234-270-2.81-.3m0,0-14-1.5m-67,13.83-.31.13M169.22,928l-3.8,2.46m0,0-.62.41M150.63,941.6l-2.12,1.84m0,0-7.62,6.64M121.48,968.8l-6.31,6.81m0,0L110,981.16M108.48,983l-9.75,11.51m0,0-1.71,2m-30.69,41.35-2.21,3.24m-17.43,26.58-7,11.41m0,0L36,1085.22m0,0-1.4,2.29m0,0-.16.27M26.12,1102l-1,1.77m-1.18,2-1.71,2.93m0,0,1.81-3.19M13.62,1124.2l-3.53,6.35M3.44,1143l-1,1.88m-9.35,17.92-3.63,7.1M-25,1199.05l-1.13,2.3m-.07.14L-34,1217.66m0,0-3.6,7.56m-.81,1.7-4.53,9.81m0,0-6.16,13.36M-61,1276.7l-1,2.11m-.79,1.76-8.77,20.19m0,0-2.09,4.79m-1.43,3.3-7.34,17.36m0,0-4.49,10.62m-13.06,31.64-.46,1.15m0,0-4.34,10.77m-7.84,19.49-1.62,4.13m0,0-2.06,5.25m-11.89,30.4-.21.56m-10,25.92-2.8,7.45m0,0-2.25,6m-8.1,21.52-3,8m0,0-4.31,11.7m-6.1,16.55-3.25,9m0,0-6.4,17.68M512,1172.17l-1.23,2.53m0,0-8.86,19.36m0,0-8.55,20m0,0-8.26,20.55m0,0-8,21.17m0,0-7.67,21.8m0,0L462.11,1300m0,0L455,1323.06m0,0-6.8,23.73"/><path class="cls-5" d="M448.21,1346.8l-6.51,24.41m0,0-6.23,25.1m0,0-5.93,25.82m0,0-5.64,26.56m0,0L418.53,1476m0,0-5,28.1m0,0-4.76,28.9m0,0-4.45,29.74M579,1267.34l-2.76-4.66m0,0-17-28.75m-33.94-46.14-1.62-2.29m-2.4-3.38-4.48-5.71m6.19,8.19.55.7m-32.32-35.82,1.27,1.32m2.48,3.51-6.1-5.44m6.39,4.8.3.25m0,0,.24.21m-4.05-2.31-2.56-2m0,0-.51-.39m15.26,10.79.12.09m-8-6,.65.43M477,1141.55l-1.26-.83m0,0,1.25.83m19.09,12.75.25.17m0,0,.24.16m-9-5.91,1.07.72m7.44,4.81.51.27m-1.4-.94.48.25m0,0,.13.07m.57.65.16.08m0,0,.27.14M278.44,901.26l-2.81-.3m0,0-14-1.5m242.29,260.77H504m-8,1.68,3.23-.05m0,0,3.74,0M169.21,928l-3.79,2.46m0,0-.62.41m298.44,235.52.76-.15m0,0,13.37-2.61m-326.74-222-2.12,1.84m0,0-7.62,6.64m279.75,232.2,5-2.34M121.49,968.8l-6.32,6.81m0,0L110,981.16M108.48,983l-9.75,11.51m0,0-1.7,2m289,208.06,7.53-5.67m0,0,.76-.58m-328-160.46-2.21,3.24m-17.43,26.58-7,11.41m0,0L36,1085.24m0,0-1.4,2.3m0,0-.15.24m302.84,163.89,6.94-8m0,0,1.56-1.79M27.59,1099.5l-1,1.65m-4.42,7.6-3.56,6.4m294.52,167.3,9.21-12.45m0,0,.67-.91m-21.68,30.44,4.34-6.32M-2,1153.34l-1.49,2.91m-22.71,45.24L-34,1217.67m-15.1,32.43-1.46,3.15M-62,1278.82l-.78,1.74m0,0-8.77,20.2m-3.52,8.08-7.34,17.36m-5.05,11.93-6,14.59m0,0-6.49,15.73m-12.64,31.42-1.62,4.13m-11.16,28.41-1.24,3.23m-16.78,43.93-8.1,21.51m0,0-3,8m-20.06,54.9-4,11m383.71-666-10.6,4.35M71.56,1030.23l-1.46,2.14m0,0-3.77,5.5m-39.69,63.27-.52.88m-1,1.77-.91,1.57m0,0-.27.46m.1-.26.33-.58m0,0,1.26-2.22m0,0,1.13-2m0,0,.56-1m0,0,2.26-4m-13,23.19-2.9,5.21m-6.7,12.3L3.44,1143M-2,1153.34l-1.49,2.9m0,0-3.37,6.58m-14,27.76-4.18,8.47m-35.66,77-.3.68m-64.34,155.72-1.23,3.19m0,0-1.56,4.05m640.7-268.6,0,.1m10.66,13.63-1.9-2.67m-8.57-10.92-.14-.16m-17.51-22.29-1.85-2.35m0,0-.22-.29m22.58,29,7.42,9.52m-10.52-13.33,2.13,2.76m0,0,7.36,9.51m-10.74-13.88.66.69m0,0,.68.71m-16.67-17.31-2.45-2.49m0,0-.88-.89m0,0-1.2-1.22m-16.72-16.94-3.18-3.23m0,0,3.16,3.26m16.66,17.1,1.24,1.27m0,0,.71.73m0,0,2.46,2.53m16.15,16.59.65.67m-20-20.33.59.61m2.23,3.21-.34-.31m1.56.43.14.12m0,0,.15.12m-1.85-.67-1.49-1.15m0,0-1.73-1.34m-3.07-2.38-.22-.17M474,1139.56l-1-.68m0,0-2-1.33m-.34-.2.33.22m0,0,2.06,1.37M209.86,907.05l-4.6,1.89m0,0-10.6,4.35M425.6,1179.94l4.63-2.18m0,0,3.9-1.84M71.56,1030.23l-1.47,2.15m0,0-3.76,5.49m-31.92,49.91-2.27,3.9m0,0-.54.93m0,0-.61,1m-12.34,21.5L16.51,1119m-9.6,17.53L3.44,1143m0,0-1,1.88m0,0L-2,1153.29M301.3,1299.64l.07-.11M-3.54,1156.25l-3.37,6.58M-14.15,1177l-1.94,3.93m-9,18.15-1.13,2.31m0,0-.06.1M-34,1217.67l-3.6,7.56m0,0-.8,1.67m0,0-4.53,9.82m0,0-6.16,13.36m-22.46,50.67-2.09,4.78m0,0-1.42,3.29m-7.35,17.37-4.49,10.62m0,0-.55,1.3M-114.19,1404l-2.07,5.26m0,0-9.09,23.14m-1.24,3.24-1.55,4m-10.17,26.47-2.81,7.46m0,0-2.25,6m-11.06,29.54-4.31,11.69m0,0-6.1,16.54m0,0-3.25,9m0,0-6.4,17.68M27.63,1099.43l-1,1.71m-4.44,7.61-3.55,6.39m0,0L16.52,1119m-6.46,11.62-.93,1.74m0,0-2.21,4.15m-24.3,47-3.49,7.07m-29.66,62.69-1.35,3m0,0L-60.71,1276m584.39-90.52-.14-.2m0,0-.36-.51m-6.38-8.38-2.89-3.67m-15.27-19.44-1.71-2.18m-3.94-5,.22.29m19.3,24.76.6.77m0,0,2.46,3.15m-22.58-29,.22.29m0,0,1.87,2.41m1.67,5.91-.14-.16m-11-11.2-.77-.78m-8.52-8.57,1.56,1.6m6.91,7.1.76.78M471.46,1129l3.15,3.27m0,0,1.29,1.34m.43.45,1.56,1.62m6.89,7.14.76.79m9.91,11.16-.14-.13m.49-.49.26.21m.76.64.12.1m0,0,.46.39m-8.94-6.2-.79-.62m0,0-.29-.22m-3-2-.9-.59m-7.75-5.13-.53-.36m0,0-1.22-.8m-3-2-.32-.22m-2-1.32,2,1.34m2.39,1.59,1,.65m9.48,6.33.9.6m-9.16-6.08.52.34m0,0,1.24.84m-446-48L28.46,1098m0,0-.87,1.5"/></g></g><rect class="cls-1" width="1919" height="1021"/></g></g></svg>