<?xml version="1.0" encoding="utf-8"?>
<!-- Generator: Adobe Illustrator 24.3.0, SVG Export Plug-In . SVG Version: 6.00 Build 0)  -->
<svg version="1.1" id="Layer_1" xmlns="http://www.w3.org/2000/svg" xmlns:xlink="http://www.w3.org/1999/xlink" x="0px" y="0px"
	 viewBox="0 0 50 50" style="enable-background:new 0 0 50 50;" xml:space="preserve">
<style type="text/css">
	.st0{fill:#FFFFFF;}
</style>
<g>
	<g>
		<g>
			<g>
				<path class="st0" d="M23.34,30.19V13.46c0-0.92,0.74-1.66,1.66-1.66c0.92,0,1.66,0.74,1.66,1.66v16.73
					c0,0.92-0.74,1.66-1.66,1.66C24.08,31.85,23.34,31.11,23.34,30.19z"/>
			</g>
			<g>
				<path class="st0" d="M17.76,24.62c0-0.43,0.16-0.85,0.49-1.18c0.65-0.65,1.7-0.65,2.35,0l4.4,4.4l4.4-4.4
					c0.65-0.65,1.7-0.65,2.35,0c0.65,0.65,0.65,1.7,0,2.35l-5.58,5.58c-0.65,0.65-1.7,0.65-2.35,0l-5.58-5.58
					C17.92,25.47,17.76,25.04,17.76,24.62z"/>
			</g>
		</g>
	</g>
	<g>
		<path class="st0" d="M6.23,25C6.23,14.65,14.65,6.23,25,6.23c10.35,0,18.77,8.42,18.77,18.77S35.35,43.77,25,43.77
			C14.65,43.77,6.23,35.35,6.23,25z M41.75,25c0-9.24-7.52-16.75-16.75-16.75C15.76,8.25,8.25,15.76,8.25,25
			c0,9.24,7.52,16.75,16.75,16.75C34.24,41.75,41.75,34.24,41.75,25z"/>
	</g>
	<g>
		<path class="st0" d="M17.79,33.03h15c0.82,0,1.49,0.74,1.49,1.66c0,0.92-0.67,1.66-1.49,1.66h-15c-0.82,0-1.49-0.74-1.49-1.66
			C16.3,33.77,16.96,33.03,17.79,33.03z"/>
	</g>
</g>
</svg>
