<svg id="Layer_1" data-name="Layer 1" xmlns="http://www.w3.org/2000/svg" viewBox="0 0 61.61 8.05"><defs><style>.cls-1{fill:#ff931e;}.cls-2{fill:#fff;}</style></defs><path class="cls-1" d="M6.83,4.23l-.09-.06L6,3.76l-.52-.31L5,3.16a.08.08,0,0,1,0-.07V2.27c0-.06,0-.07.06,0l1,.54a.12.12,0,0,1,.07.12v.54a.07.07,0,0,0,0,.06l.22.12.43.23.05,0a.43.43,0,0,1,0,0V2.46a.1.1,0,0,0-.06-.1L6.35,2.1l-.72-.4L5,1.35,4.33,1h0A.09.09,0,0,0,4.3,1c0,.81,0,1.62,0,2.43a.12.12,0,0,0,.07.12L5.11,4l1,.55a.11.11,0,0,1,0,.09v.44a.09.09,0,0,1,0,.08l-.9.57-.89.55a.12.12,0,0,1-.14,0L3.5,5.9,2.24,5.18a.13.13,0,0,1-.07-.12c0-.58,0-1.15,0-1.72,0-.14,0-.27,0-.41a.1.1,0,0,1,.06-.1l.23-.14.79-.48,0,0a.14.14,0,0,1,0,.06v.8a.12.12,0,0,1,0,.1l-.66.44a.1.1,0,0,0-.06.1c0,.23,0,.47,0,.7v.06h0l.22-.13.62-.37L4,3.59a.11.11,0,0,0,.06-.12V1s0-.05,0,0l-.48.27-.69.38-1.36.75a.08.08,0,0,0,0,.08V5.52a.08.08,0,0,0,0,.08l1,.59,1,.55.69.39h0l.58-.36,1-.62,1-.62a.08.08,0,0,0,0-.08V4.31s0-.07,0-.08"/><path class="cls-1" d="M2.69,5.3h0l0,0h0c.33.19.72.38,1.07.57l.09.05L4,6l.09,0V3.74L2.7,4.57h0l1.08-.18V4.8L3,4.92l.79.13v.43H3.65l-.84-.14h0l-.17,0"/><path class="cls-1" d="M5.24,5.49l.53-.33,0,0V4.64a.07.07,0,0,0,0,0L5.43,4.4,5,4.14l-.51-.3-.2-.11V6.07l.06,0,.25-.16.64-.39M4.6,4.24l.88.47V5l-.88.54Z"/><path class="cls-2" d="M53.93,3.84c0,.47,0,1,0,1.42a1.13,1.13,0,0,1-1.12,1.16c-.59,0-1.18,0-1.77,0h-1.7c-.23,0-.32-.07-.32-.3q0-.84,0-1.68c0-.23.1-.3.32-.31.62,0,.62,0,.62.59V5.1c0,.5.06.56.58.57h1.58A.78.78,0,0,0,53,4.82c0-.21,0-.42,0-.62a.77.77,0,0,0-.87-.86c-.8,0-1.61,0-2.41,0h-.31C49.1,3.37,49,3.25,49,3s.09-.39.38-.39h3.31a1.19,1.19,0,0,1,1.24,1.26"/><path class="cls-2" d="M48.22,4.66c0,.36,0,.72,0,1.09a.62.62,0,0,1-.69.68H43.91c-.31,0-.4-.12-.39-.4s0-.41.4-.41h2.91c.23,0,.4-.13.4-.38s-.17-.36-.4-.37h-.91a1.59,1.59,0,0,1,1.78-.74c.34.06.49.2.52.54"/><path class="cls-2" d="M48,2.59a.36.36,0,0,1,0,.09c-.3.28-.52.66-1,.66H44.05c-.35,0-.39-.06-.4-.43s.17-.32.4-.32H48"/><path class="cls-2" d="M42.33,5.72a2.56,2.56,0,0,1,0,.73s-.18.07-.28.07H39.2a1.34,1.34,0,0,1-1.35-1.36c0-.45,0-.91,0-1.36a1.37,1.37,0,0,1,1.31-1.34H42c.25,0,.35.09.36.35,0,.59,0,.59-.58.59s-1.45,0-2.17,0a1.23,1.23,0,0,0-.54.23.3.3,0,0,0-.07.3.34.34,0,0,0,.27.13l2.6,0c.15,0,.38,0,.41.12a1.35,1.35,0,0,1,0,.6c0,.05-.19.1-.29.1H39.42c-.19,0-.47-.1-.49.25s.22.41.53.41h2.48c.14,0,.38.07.39.13"/><path class="cls-2" d="M37.22,4.93c0,.29,0,.58,0,.87,0,.52-.23.72-.76.73h-2c-.68,0-1.35,0-2,0-.3,0-.43-.09-.4-.39a.79.79,0,0,0,0-.22c0-.25.09-.34.34-.34h3.14c.38,0,.57-.11.56-.33s-.22-.34-.56-.34H33c-.61,0-.84-.23-.85-.83,0-.29,0-.58,0-.87a.71.71,0,0,1,.71-.75c1.28,0,2.56,0,3.84,0,.19,0,.25.09.27.26.06.64,0,.68-.59.68-.84,0-1.67,0-2.51,0a.7.7,0,0,0-.25,0,3.76,3.76,0,0,0-.31.25A1.67,1.67,0,0,0,33.6,4,.89.89,0,0,0,34,4h2.32c.71,0,.93.22.93.93"/><path class="cls-2" d="M31.43,6.15c0,.27-.09.39-.37.38-.88,0-.74.07-.75-.74,0-.43,0-.87,0-1.3h0V2.82c0-.24.06-.36.33-.36.88,0,.78-.09.79.78s0,1.94,0,2.91"/><path class="cls-2" d="M29.23,5.58c.29,0,.4.1.37.38a1.9,1.9,0,0,1,0,.34c0,.08-.12.21-.18.21A17.29,17.29,0,0,1,26,6.41a1.14,1.14,0,0,1-.87-1.15c0-.51,0-1,0-1.55a1.3,1.3,0,0,1,1.28-1.25h2.79c.37,0,.4,0,.41.41,0,.06,0,.12,0,.19,0,.25-.08.34-.34.34-.7,0-1.4,0-2.11,0s-.89.27-.9.91c0,.18,0,.35,0,.53a.66.66,0,0,0,.75.73c.75,0,1.51,0,2.26,0"/><path class="cls-2" d="M24.2,5.58c.27,0,.36.09.36.36,0,.59,0,.59-.59.59H22.76c-.45,0-.91,0-1.36,0A1.41,1.41,0,0,1,20,5.12c0-.43,0-.86,0-1.3a1.39,1.39,0,0,1,1.3-1.34c.95,0,1.9,0,2.85,0,.22,0,.29.1.3.3,0,.63,0,.64-.6.63H21.7a.61.61,0,0,0-.4.11.72.72,0,0,0-.17.41s.2.14.32.14c.83,0,1.67,0,2.51,0,.44,0,.45,0,.45.41s0,.43-.47.43H21.5c-.17,0-.37,0-.39.23s.14.35.33.41a1.08,1.08,0,0,0,.31,0H24.2"/><path class="cls-2" d="M19.53,6.32c0,.06-.08.13-.14.19s-.06,0-.09,0c-.25,0-.54.07-.73,0s-.17-.39-.26-.6c0,0,0-.08,0-.12C18.09,4.91,18,5,17.2,5H15.62c-.45,0-.47,0-.47.48v.74c0,.46-.34.3-.56.3S14,6.68,14,6.23C14,5.62,14,5,14,4.4c0-.25.09-.32.33-.32h3c.1,0,.23,0,.3,0A2.26,2.26,0,0,0,18,3.73a1.65,1.65,0,0,0-.34-.31.92.92,0,0,0-.37,0c-1,0-1.92,0-2.89,0-.28,0-.43-.07-.39-.38a.81.81,0,0,0,0-.22c0-.25.09-.35.34-.35.68,0,1.35,0,2,0h0c.64,0,1.28,0,1.92,0s.85.26.86.85a3.85,3.85,0,0,1,0,.68,1.53,1.53,0,0,1-.21.55c-.09.13-.11.19,0,.31a2.39,2.39,0,0,1,.58,1.46"/><path class="cls-2" d="M13.49,3.4c0,.28,0,.56,0,.84,0,.51-.27.76-.81.76H10c-.47,0-.49,0-.48.5,0,.25,0,.51,0,.77s-.35.25-.55.25-.53.16-.54-.24c0-.66,0-1.33,0-2,0-.22.17-.2.31-.2H12c.21,0,.41-.09.38-.3A.58.58,0,0,0,12,3.43a1.82,1.82,0,0,0-.62,0c-.87,0-1.75,0-2.63,0-.27,0-.39-.06-.38-.36,0-.58,0-.58.59-.58h3.6c.67,0,.94.26,1,.93"/><path class="cls-2" d="M55.17,6.43a4.93,4.93,0,0,1-.57,0,.43.43,0,0,1,0-.11c0-.34,0-.68,0-1V4.73h0V4.49c0-.29,0-.6,0-.9,0-.64.72-1.12,1.66-1.13h1.84c.86,0,1.62.51,1.63,1.09s0,1,0,1.5V6.22c0,.1,0,.17-.3.17h-.29a.76.76,0,0,1-.31,0,1.59,1.59,0,0,1,0-.37V5.43c0-.49,0-1,0-1.51a1.06,1.06,0,0,0-.35-.62A.67.67,0,0,0,58,3.17a.41.41,0,0,0-.16,0,.49.49,0,0,0-.3.41V4.81c0,.42,0,.85,0,1.28a.83.83,0,0,1-.06.23,1.19,1.19,0,0,1-.28,0,3,3,0,0,1-.4,0,.7.7,0,0,1,0-.12c0-.38,0-.76,0-1.12s0-.86,0-1.28c0,0,0-.06,0-.09a.41.41,0,0,0-.08-.39.57.57,0,0,0-.43-.16h0a.68.68,0,0,0-.7.67c0,.32,0,.64,0,1,0,.47,0,1,0,1.42a.51.51,0,0,1-.06.22h-.26"/></svg>