<?xml version="1.0" encoding="utf-8"?>
<!-- Generator: Adobe Illustrator 24.2.3, SVG Export Plug-In . SVG Version: 6.00 Build 0)  -->
<svg version="1.1" id="Layer_1" xmlns="http://www.w3.org/2000/svg" xmlns:xlink="http://www.w3.org/1999/xlink" x="0px" y="0px"
	 viewBox="0 0 330.1 340.7" style="enable-background:new 0 0 330.1 340.7;" xml:space="preserve">
<style type="text/css">
	.st0{clip-path:url(#SVGID_2_);}
	.st1{opacity:0.55;clip-path:url(#SVGID_2_);}
	.st2{clip-path:url(#SVGID_4_);}
	.st3{clip-path:url(#SVGID_6_);}
	.st4{opacity:0.52;clip-path:url(#SVGID_2_);}
	.st5{clip-path:url(#SVGID_10_);}
	.st6{opacity:0.52;}
	.st7{clip-path:url(#SVGID_22_);}
	.st8{fill:none;stroke:#FFFFFF;stroke-width:2.7;stroke-miterlimit:10;}
	.st9{fill:#FFFFFF;}
	.st10{fill:none;stroke:#FFFFFF;stroke-width:2;stroke-miterlimit:10;}
	.st11{fill:none;stroke:#FFFFFF;stroke-miterlimit:10;}
</style>
<g>
	
		<ellipse transform="matrix(0.1735 -0.9848 0.9848 0.1735 78.8691 210.8539)" class="st8" cx="165.1" cy="58.4" rx="22.7" ry="22.7"/>
	<g>
		<path class="st9" d="M171.6,53.4c0,4.4-2.7,7.4-9.9,14.7h10.5l-0.3,2.4h-13.4v-2.3c8.2-8.6,10.2-10.9,10.2-14.7c0-2.5-1.6-4-3.9-4
			c-2,0-3.3,0.8-4.9,2.5l-1.9-1.5c1.9-2.3,4-3.4,6.9-3.4C169,47.2,171.6,49.9,171.6,53.4z"/>
	</g>
	<path class="st9" d="M112,230c-0.5,1.6-1,3.1-1.5,4.7c-0.8,2.4-6.3,4.6-8.3,3.1c-2.7-2-5.2-4.2-7.5-6.7c3-1.8,6.4-1.2,7.2-5
		c-2.3,0-4.8,2.5-6.9,0.3c-1.4-1.4-2.3-3.3-3.5-5.1c3.7-3.3,8.2-1.5,12.5-2.5c0.8-1.4,0.2-7.2-1.4-7.6c-3.2-0.8-1.9-2.8-1.7-4.6
		c-1.2-0.6-2.3-1.2-3.9-2c1.5-2.3,2.9-4.5,4.3-6.7c3.8,2.1,7,1.2,9.3-2c1.1-1.5,2.5-2.7,3.6-4.1c1-1.2,1.7-2.6,2.6-3.9
		c0.3-0.4,0.4-1.2,0.8-1.3c2.6-0.9,2.7-3.9,4.7-5.3c0.4-0.3,0.7-1.1,0.7-1.7c-0.4-3.3,0.6-5.7,4.7-6.5c-2.2-1.4-3.6-2.8-5.4-3.5
		c-2.8-1-4.3-2.4-4.5-5.7c-0.2-2.7-0.9-5.1,1.9-6.8c0.4-0.3,0.6-0.9,1.2-1.7c-2.5-1.9-4.9-3.7-7.7-5.9c0-1.1,2.1-3.7,3.8-4.1
		c1.8-0.4,3.7-0.9,5.4-1.5c3.2-1.2,7.1,0.9,7.7,4.2c0.1,0.3,0,0.7,0.2,1c0.9,2.3,8.7,4.8,10.9,3.5c5.1-3,5.1-3,9.7,0.4
		c0.4,0.3,1,0.4,1.5,0.6c-0.6,4.2-3.5,6.6-6.8,9.3c-1.5,3,2.5,4.6,2.6,7.6c-1.4,1.7-2.9,1.6-4.5-0.4c-0.2,0.2-0.4,0.3-0.6,0.5
		c0.5,2.4,1.1,4.8,1.6,7.2c3.6,2.3,7.3,4.7,10.5,6.7c-1.1,2.2-2.2,4.5-3.4,6.7c-0.8,1.4-0.3,2.3,0.9,2.9c4.7,2.4,9.4,4.9,14.2,7.1
		c1.2,0.5,2.9-0.1,4.4,0c1.5,0.1,3,0.1,3.5,2c0.1,0.4,0.7,0.9,1.2,1c5.2,1.4,10.3,3.3,16.1,2.7v-8.4c1.1-0.4,2.1-0.7,3.6-1.2
		c0,1.6,0.1,2.8,0,4c-0.3,2.6,1.4,3.7,3.4,3.7c4.4,0,8.7-0.3,13.9-0.6c-1-1.9-1.7-3.3-2.6-5c3.3-0.2,5.7-2,7.9-4.6
		c1.6-1.8,4.2-2.8,6.3-4.1c0.2-0.1,0.5-0.2,0.6-0.2c2.7,2,4.9-0.3,7.6-1.1c-0.7,2.2,4.2,2.5,0.9,5.5c1,0.2,1.7,0.4,2.4,0.6
		c3.4,0.9,3.4,1.1,1.2,3.9c-0.5,0.6-0.3,1.7-0.5,2.5c-4.3-2-5.8,3.1-8.2,3.6c-1.3,2.7-2.4,4.6-3.2,6.7c-0.3,0.9,0.2,2.1-0.1,3
		c-0.7,1.9-1.6,3.7-2.5,5.7c-1.4-0.3-2.6-0.5-3.7-0.8c-0.5,3.2-0.9,6.2-1.5,9.2c-0.1,0.6-1,1.1-1.5,1.7c-0.4-0.5-1.1-0.9-1.3-1.5
		c-0.7-2.4-1.3-4.9-2-7.4c-0.2-0.1-0.5-0.1-0.7-0.2c-0.6,1.2-1.2,2.4-2.2,4.4c-0.9-1.5-1.9-2.6-2.1-3.8c-0.2-1.4,1-2.1,2.4-2.8
		c1.7-0.8,2.8-2.8,4.6-4.8c-1.9-0.5-3.1-1-4.3-1.1c-1.2-0.2-2.4,0-3.6,0c-5.6,0.2-5.6,0.2-6.5-4.6c-1.2-0.5-2.4-0.8-3.5-1.3
		c-1.1-0.5-2-1.2-3.1-1.8c-0.8,1.4-1.5,2.6-2.2,3.9c1.5,1,2.8,1.9,4.1,2.8c-1.7,1.3-3,2.4-4.8,3.8c1.5,1,2.6,1.7,3.2,2.2
		c0.9,4.8,1.8,9.3,2.7,14c-1.2,0.2-2.4,0.8-2.9,0.5c-2.9-2.4-4.8,0.2-6.9,1.3c-0.5,0.2-0.9,0.5-1.3,0.8c0,5.4-3.5,9-7.8,7.9
		c-3.2,6-8.6,9.9-14,13.9c-0.6,0.4-1.2,1-1.4,1.6c-0.6,2-1.8,2.8-3.9,3.3c-2.2,0.6-4.4,1.9-6.3,3.3c-0.9,0.7-1.5,2.3-1.5,3.4
		c0.1,3,0.8,6,1.1,9.1c0.1,1.3,0.3,3.2-0.4,4c-2.6,3.2-2.3,6.6-1.6,10.1c0.1,0.4-0.1,0.8-0.2,1.3c-0.2-0.1-0.4-0.3-0.6-0.4
		c-1,1.1-2.2,2.1-3.1,3.3c-1,1.5-1.4,3.3-3.7,3.9c-0.8,0.2-1.3,1.8-1.8,2.9c-1.1,2.4-2.6,2.8-4.5,1c-2.3-2.2-3.9-4.5-4.4-7.9
		c-0.5-3.4-2.5-6.6-4.2-9.7c-1.6-2.8-3.1-5.5-3.8-8.8c-0.6-2.8-1.8-5.5-3.3-8c-2.8-4.6-4.6-9.4-5.1-14.8c-0.3-3-1.1-6-1.4-9
		c-0.2-2,0.2-4,0.1-6c-0.1-2.2-0.4-4.5-0.7-6.7c-0.1-1-0.5-1.9-0.8-2.8C112.4,230.1,112.2,230,112,230"/>
</g>
</svg>
