<?xml version="1.0" encoding="utf-8"?>
<!-- Generator: Adobe Illustrator 24.2.3, SVG Export Plug-In . SVG Version: 6.00 Build 0)  -->
<svg version="1.1" id="Layer_1" xmlns="http://www.w3.org/2000/svg" xmlns:xlink="http://www.w3.org/1999/xlink" x="0px" y="0px"
	 viewBox="0 0 330.1 340.7" style="enable-background:new 0 0 330.1 340.7;" xml:space="preserve">
<style type="text/css">
	.st0{fill:none;stroke:#FFFFFF;stroke-width:2.7;stroke-miterlimit:10;}
	.st1{fill:#FFFFFF;}
</style>
<g>
	<g>
		
			<ellipse transform="matrix(0.1891 -0.982 0.982 0.1891 69.1304 215.5211)" class="st0" cx="165.1" cy="65.9" rx="22.7" ry="22.7"/>
		<g>
			<path class="st1" d="M171.2,60.9c0,4.4-2.7,7.4-9.9,14.7h10.5l-0.3,2.4H158v-2.3c8.2-8.6,10.2-10.9,10.2-14.7c0-2.5-1.6-4-3.9-4
				c-2,0-3.3,0.8-4.9,2.5l-1.9-1.5c1.9-2.3,4-3.4,6.9-3.4C168.6,54.7,171.2,57.3,171.2,60.9z"/>
		</g>
	</g>
	<g>
		<path class="st1" d="M84.3,297.5c-8.8,0-16-7.2-16-16c0-8.8,7.2-16,16-16c8.8,0,16,7.2,16,16C100.3,290.3,93.1,297.5,84.3,297.5
			 M84.3,267.2c-7.9,0-14.3,6.4-14.3,14.3c0,7.9,6.4,14.3,14.3,14.3c7.9,0,14.3-6.4,14.3-14.3C98.6,273.6,92.2,267.2,84.3,267.2"/>
		<path class="st1" d="M123.1,297.5c-8.8,0-16-7.2-16-16c0-8.8,7.2-16,16-16c8.8,0,16,7.2,16,16C139,290.3,131.9,297.5,123.1,297.5
			 M123.1,267.2c-7.9,0-14.3,6.4-14.3,14.3c0,7.9,6.4,14.3,14.3,14.3c7.9,0,14.3-6.4,14.3-14.3C137.4,273.6,131,267.2,123.1,267.2"
			/>
		<path class="st1" d="M255.3,297.5c-8.8,0-16-7.2-16-16c0-8.8,7.2-16,16-16c8.8,0,16,7.2,16,16
			C271.3,290.3,264.1,297.5,255.3,297.5 M255.3,267.2c-7.9,0-14.3,6.4-14.3,14.3c0,7.9,6.4,14.3,14.3,14.3c7.9,0,14.3-6.4,14.3-14.3
			C269.7,273.6,263.2,267.2,255.3,267.2"/>
		<path class="st1" d="M283.8,277.7H270l-0.2-0.6c-2-6.4-7.8-10.7-14.4-10.7c-6.7,0-12.5,4.3-14.4,10.7l-0.2,0.6h-103l-0.2-0.6
			c-2-6.4-7.8-10.7-14.4-10.7c-6.7,0-12.5,4.3-14.4,10.7l-0.2,0.6h-9.5l-0.2-0.6c-2-6.4-7.8-10.7-14.4-10.7
			c-6.7,0-12.5,4.3-14.4,10.7l-0.2,0.6H46.3v-95.3h172.5l5.5,4.8v59.6h4.4v-44.6h40.5l14.7,28.4V277.7z M271.2,276h11V231l-14-27.1
			h-37.8v44.6h-7.7v-60.6l-4.4-3.9H48v92h20.5c2.3-6.8,8.6-11.3,15.8-11.3c7.2,0,13.5,4.5,15.8,11.3h7.1c2.3-6.8,8.6-11.3,15.8-11.3
			c7.2,0,13.5,4.5,15.8,11.3h100.6c2.3-6.8,8.6-11.3,15.8-11.3C262.5,264.8,268.8,269.3,271.2,276"/>
		<path class="st1" d="M279.7,230.8h-47.4v-25.1h33.3L279.7,230.8z M233.9,229.2h42.9l-12.3-21.8h-30.7V229.2z"/>
		<path class="st1" d="M64.7,193.7c0,2-1.1,3.4-3.3,4.1c2.1,0.2,3.9,1.4,3.9,4.2c0,2.7-2.3,5.2-6.8,5.2c-2.9,0-4.9-1.1-6.2-2.7
			l2.6-2.5c1.1,1.1,2.1,1.6,3.3,1.6c1.2,0,2.2-0.6,2.2-1.9c0-1.4-0.8-2.1-2.4-2.1h-1.5l0.5-3.3h1c1.4,0,2.1-0.7,2.1-1.7
			c0-1-0.7-1.6-1.9-1.6c-1.2,0-2.3,0.5-3.2,1.4l-2.4-2.5c1.6-1.6,3.7-2.4,6.2-2.4C62.6,189.4,64.7,191.2,64.7,193.7"/>
		<path class="st1" d="M81.6,198c0,6.9-4.1,8.7-8.9,8.7h-5.8v-17.3h5.5C77.1,189.4,81.6,190.9,81.6,198 M72,193v10.1h1
			c2.3,0,3.3-1.2,3.3-5.1c0-3.9-1.1-5-3.3-5H72z"/>
		<polygon class="st1" points="99.4,193 93.7,193 93.7,196.2 98.7,196.2 98.7,199.6 93.7,199.6 93.7,203.1 99.8,203.1 99.8,206.7 
			88.6,206.7 88.6,189.4 99.9,189.4 		"/>
		<path class="st1" d="M117.9,207l-3,3.9c-1.4-1.8-3.4-3.9-6.7-3.9c-4.8,0-7.7-3.3-7.7-9.1c0-5.6,2.9-9.1,8.1-9.1
			c5.2,0,8.1,3.4,8.1,9.1c0,4.1-2.2,6.3-4.1,7.5C114.9,205.5,116.4,205.9,117.9,207 M108.6,203.5c2,0,2.8-1.5,2.8-5.5
			c0-4-0.8-5.5-2.8-5.5c-1.9,0-2.8,1.5-2.8,5.5C105.8,202,106.6,203.5,108.6,203.5"/>
		<path class="st1" d="M132.3,200.8c0,3.5-2.3,6.3-7.2,6.3s-7.2-2.6-7.2-6.3v-11.4h5.1v11.3c0,1.9,0.6,2.8,2.1,2.8
			c1.5,0,2.1-0.9,2.1-2.8v-11.3h5.1V200.8z"/>
		<rect x="134.2" y="189.4" class="st1" width="5.1" height="17.3"/>
		<path class="st1" d="M155.1,195.2c0,4-2.8,6.1-6.9,6.1h-1.7v5.4h-5.1v-17.3h6.2C152.3,189.4,155.1,191.3,155.1,195.2 M149.9,195.2
			c0-1.4-0.7-2.3-2.4-2.3h-1v4.7h1.2C149.2,197.7,149.9,196.9,149.9,195.2"/>
		<path class="st1" d="M174,206.7h-5l-0.1-6.1c0-2.2,0-4.5,0.2-7l-2,11.4h-4.8l-2.2-11.4c0.3,2.9,0.4,4.7,0.3,7l-0.1,6.1h-5
			l1.2-17.3h6.3l2,11.2l1.8-11.2h6.3L174,206.7z"/>
		<polygon class="st1" points="186.2,193 180.5,193 180.5,196.2 185.6,196.2 185.6,199.6 180.5,199.6 180.5,203.1 186.6,203.1 
			186.6,206.7 175.4,206.7 175.4,189.4 186.8,189.4 		"/>
		<path class="st1" d="M202.3,206.7h-6.4l-3.8-12.6c0.2,1.7,0.7,4,0.7,7.2v5.4h-4.5v-17.3h6.3l3.9,12.6c-0.3-2-0.7-4-0.7-7.1v-5.5
			h4.5V206.7z"/>
		<polygon class="st1" points="216.8,193.2 212.8,193.2 212.8,206.7 207.7,206.7 207.7,193.2 203.5,193.2 203.5,189.4 217.3,189.4 
					"/>
		<g>
			<path class="st1" d="M60.4,212.6H58v8.1h-2.3v-8.1h-2.5v-1.8h7.5L60.4,212.6z"/>
			<path class="st1" d="M64.8,216.9h-0.9v3.8h-2.3v-9.9h3.2c2.7,0,4.1,1,4.1,3c0,1.3-0.6,2.1-1.9,2.7l2.5,4.2h-2.6L64.8,216.9z
				 M63.9,215.3h1c1,0,1.6-0.4,1.6-1.5c0-1-0.6-1.4-1.7-1.4h-0.8V215.3z"/>
			<path class="st1" d="M75,218.5h-2.9l-0.5,2.1h-2.4l3-9.9H75l3,9.9h-2.5L75,218.5z M74.6,216.8l-1-4.4l-1,4.4H74.6z"/>
			<path class="st1" d="M86.3,220.7h-3l-2.8-7.6c0.1,0.9,0.3,2.2,0.3,4v3.6h-2.1v-9.9h2.9l2.9,7.7c-0.1-0.8-0.3-2.1-0.3-3.7v-4h2.1
				V220.7z"/>
			<path class="st1" d="M94.8,211.8l-1.1,1.3c-0.7-0.6-1.4-0.8-2.2-0.8c-0.8,0-1.3,0.3-1.3,1c0,0.6,0.4,0.9,1.9,1.4
				c1.9,0.6,2.9,1.4,2.9,3.2c0,1.8-1.5,3.1-3.9,3.1c-1.7,0-2.9-0.6-3.7-1.4l1.2-1.3c0.7,0.6,1.5,1,2.5,1c1,0,1.6-0.5,1.6-1.2
				c0-0.7-0.4-1.1-1.8-1.5c-2.2-0.7-3-1.6-3-3.1c0-1.7,1.5-2.8,3.6-2.8C92.9,210.6,93.9,211,94.8,211.8z"/>
			<path class="st1" d="M103.6,214c0,2.3-1.6,3.4-3.9,3.4h-1.1v3.3h-2.3v-9.9h3.2C102.1,210.8,103.6,211.8,103.6,214z M101.2,214
				c0-1.1-0.6-1.6-1.7-1.6h-0.8v3.2h0.9C100.6,215.7,101.2,215.3,101.2,214z"/>
			<path class="st1" d="M113.3,215.7c0,3.2-1.7,5.2-4.5,5.2c-2.8,0-4.4-1.9-4.4-5.2c0-3.2,1.7-5.2,4.4-5.2
				C111.6,210.6,113.3,212.4,113.3,215.7z M106.8,215.7c0,2.5,0.7,3.5,2,3.5c1.3,0,2-1,2-3.5c0-2.5-0.7-3.5-2-3.5
				C107.5,212.3,106.8,213.2,106.8,215.7z"/>
			<path class="st1" d="M117.9,216.9H117v3.8h-2.3v-9.9h3.2c2.7,0,4.1,1,4.1,3c0,1.3-0.6,2.1-1.9,2.7l2.5,4.2H120L117.9,216.9z
				 M117,215.3h1c1,0,1.6-0.4,1.6-1.5c0-1-0.6-1.4-1.7-1.4H117V215.3z"/>
			<path class="st1" d="M129.7,212.6h-2.4v8.1h-2.3v-8.1h-2.5v-1.8h7.5L129.7,212.6z"/>
			<path class="st1" d="M134.9,218.5H132l-0.5,2.1h-2.4l3-9.9h2.8l3,9.9h-2.5L134.9,218.5z M134.5,216.8l-1-4.4l-1,4.4H134.5z"/>
			<path class="st1" d="M144.4,212.6H142v8.1h-2.3v-8.1h-2.5v-1.8h7.5L144.4,212.6z"/>
			<path class="st1" d="M147.9,220.7h-2.3v-9.9h2.3V220.7z"/>
			<path class="st1" d="M158.2,215.7c0,3.2-1.7,5.2-4.5,5.2c-2.8,0-4.4-1.9-4.4-5.2c0-3.2,1.7-5.2,4.4-5.2
				C156.5,210.6,158.2,212.4,158.2,215.7z M151.7,215.7c0,2.5,0.7,3.5,2,3.5c1.3,0,2-1,2-3.5c0-2.5-0.7-3.5-2-3.5
				C152.4,212.3,151.7,213.2,151.7,215.7z"/>
			<path class="st1" d="M167.2,220.7h-3l-2.8-7.6c0.1,0.9,0.3,2.2,0.3,4v3.6h-2.1v-9.9h2.9l2.9,7.7c-0.1-0.8-0.3-2.1-0.3-3.7v-4h2.1
				V220.7z"/>
		</g>
	</g>
</g>
</svg>
