<?xml version="1.0" encoding="utf-8"?>
<!-- Generator: Adobe Illustrator 24.2.3, SVG Export Plug-In . SVG Version: 6.00 Build 0)  -->
<svg version="1.1" xmlns="http://www.w3.org/2000/svg" xmlns:xlink="http://www.w3.org/1999/xlink" x="0px" y="0px"
	 viewBox="0 0 330.1 340.7" style="enable-background:new 0 0 330.1 340.7;" xml:space="preserve">
<style type="text/css">
	.st0{fill:#FFFFFF;}
	.st1{fill:#1A1A1A;}
	.st2{fill:#FF931E;}
	.st3{opacity:0.5;}
	.st4{fill:none;}
	.st5{opacity:0.55;}
	.st6{fill:none;stroke:#FFFFFF;stroke-width:2.81;stroke-miterlimit:10;}
	.st7{fill:none;stroke:#FFFFFF;stroke-width:3;stroke-miterlimit:10;}
	.st8{fill:none;stroke:#FFFFFF;stroke-width:2.5498;stroke-miterlimit:10;}
	.st9{fill:none;stroke:#FFFFFF;stroke-width:2.5497;stroke-miterlimit:10;}
	.st10{fill:#FFFFFF;stroke:#FFFFFF;stroke-miterlimit:10;}
	.st11{fill:#FFFFFF;stroke:#FFFFFF;stroke-width:0.7244;stroke-miterlimit:10;}
	.st12{opacity:0.52;}
	.st13{fill:none;stroke:#FFFFFF;stroke-width:2;stroke-miterlimit:10;}
	.st14{stroke:#FFFFFF;stroke-width:0.8104;stroke-miterlimit:10;}
	.st15{opacity:0.46;fill:#006978;}
	.st16{opacity:0.22;clip-path:url(#SVGID_4_);}
	.st17{fill:none;stroke:#FFFFFF;stroke-width:1.059;stroke-miterlimit:10;}
	.st18{fill:#232323;}
	.st19{opacity:0.72;}
	.st20{fill:none;stroke:#ED1E79;stroke-width:4;stroke-miterlimit:10;}
	.st21{fill:#FF0000;}
</style>
<g id="Enquiry">
</g>
<g id="FAQ">
</g>
<g id="location">
	<g>
		<g>
			<g>
				<circle class="st9" cx="162.3" cy="56.9" r="24.8"/>
				<g>
					<path class="st0" d="M169.1,51.4c0,4.8-3,8.1-10.9,16.1h11.5l-0.4,2.7h-14.7v-2.5c9-9.4,11.2-11.9,11.2-16.1
						c0-2.8-1.7-4.4-4.3-4.4c-2.2,0-3.7,0.9-5.3,2.8l-2.1-1.7c2-2.5,4.4-3.7,7.6-3.7C166.2,44.6,169.1,47.5,169.1,51.4z"/>
				</g>
			</g>
			<g>
				<rect x="62.4" y="299.1" class="st7" width="205.3" height="9.6"/>
				<rect x="69" y="219.5" class="st7" width="8.4" height="79.6"/>
				<rect x="76.8" y="219.5" class="st7" width="8.4" height="79.6"/>
				<rect x="244.4" y="219.5" class="st7" width="8.4" height="79.6"/>
				<rect x="252.1" y="219.5" class="st7" width="8.4" height="79.6"/>
				<polyline class="st7" points="85.2,219.5 85.2,200.3 106.7,208.1 				"/>
				<path class="st7" d="M106.7,299.1V169.2c0,0,12.6-18,58.1-18s57.5,17.4,57.5,17.4v130.5"/>
				<polyline class="st7" points="222.2,207.8 244.4,200.3 244.4,219.5 				"/>
				<path class="st7" d="M106.7,209.9c0,0,18-12,57.5-12s58.1,11.2,58.1,11.2"/>
				<path class="st7" d="M106.7,232.7c0,0,18-9.6,57.5-9.6s58.1,9,58.1,9"/>
				<path class="st7" d="M106.7,256.6c0,0,18-8.4,57.5-8.4s58.1,7.9,58.1,7.9"/>
				<path class="st7" d="M106.7,278.1c0,0,18-7.2,57.5-7.2s58.1,6.7,58.1,6.7"/>
				<line class="st7" x1="164.2" y1="197.9" x2="164.2" y2="299.1"/>
				<line class="st7" x1="194.1" y1="200.3" x2="194.1" y2="299.1"/>
				<line class="st7" x1="210.8" y1="204.5" x2="210.8" y2="296.7"/>
				<line class="st7" x1="136.6" y1="200.3" x2="136.6" y2="299.1"/>
				<line class="st7" x1="148.6" y1="271.6" x2="148.6" y2="299.1"/>
				<line class="st7" x1="179.4" y1="271.6" x2="179.4" y2="299.1"/>
				<line class="st7" x1="118.7" y1="204.5" x2="118.7" y2="299.1"/>
			</g>
		</g>
	</g>
</g>
<g id="Gallery">
</g>
<g id="specs">
</g>
<g id="Key_features">
</g>
<g id="Gom_Main">
</g>
<g id="infos">
</g>
</svg>
