<?xml version="1.0" encoding="utf-8"?>
<!-- Generator: Adobe Illustrator 24.2.3, SVG Export Plug-In . SVG Version: 6.00 Build 0)  -->
<svg version="1.1" xmlns="http://www.w3.org/2000/svg" xmlns:xlink="http://www.w3.org/1999/xlink" x="0px" y="0px"
	 viewBox="0 0 330.1 340.7" style="enable-background:new 0 0 330.1 340.7;" xml:space="preserve">
<style type="text/css">
	.st0{fill:#FFFFFF;}
	.st1{fill:#1A1A1A;}
	.st2{fill:#FF931E;}
	.st3{opacity:0.5;}
	.st4{fill:none;}
	.st5{opacity:0.55;}
	.st6{fill:none;stroke:#FFFFFF;stroke-width:2.81;stroke-miterlimit:10;}
	.st7{fill:none;stroke:#FFFFFF;stroke-width:3;stroke-miterlimit:10;}
	.st8{fill:none;stroke:#FFFFFF;stroke-width:2.5498;stroke-miterlimit:10;}
	.st9{fill:none;stroke:#FFFFFF;stroke-width:2.5497;stroke-miterlimit:10;}
	.st10{fill:#FFFFFF;stroke:#FFFFFF;stroke-miterlimit:10;}
	.st11{fill:#FFFFFF;stroke:#FFFFFF;stroke-width:0.7244;stroke-miterlimit:10;}
	.st12{opacity:0.52;}
	.st13{fill:none;stroke:#FFFFFF;stroke-width:2;stroke-miterlimit:10;}
	.st14{stroke:#FFFFFF;stroke-width:0.8104;stroke-miterlimit:10;}
	.st15{opacity:0.46;fill:#006978;}
	.st16{opacity:0.22;clip-path:url(#SVGID_4_);}
	.st17{fill:none;stroke:#FFFFFF;stroke-width:1.059;stroke-miterlimit:10;}
	.st18{fill:#232323;}
	.st19{opacity:0.72;}
	.st20{fill:none;stroke:#ED1E79;stroke-width:4;stroke-miterlimit:10;}
	.st21{fill:#FF0000;}
</style>
<g id="Enquiry">
</g>
<g id="FAQ">
</g>
<g id="location">
	<g>
	</g>
	<g>
		<g>
			<circle class="st8" cx="165.6" cy="54.8" r="24.9"/>
			<g>
				<path class="st0" d="M172,48.8c0,3.2-2.1,5.2-4.9,5.8c3.2,0.3,5.7,2.3,5.7,6.2c0,4.4-3.3,7.7-8.5,7.7c-3,0-5.6-1.1-7.5-3.4
					l1.9-1.8c1.7,1.8,3.4,2.5,5.5,2.5c3.3,0,5.3-2,5.3-5.1c0-3.6-2-4.7-5.1-4.7h-1.9l0.4-2.5h1.3c2.5,0,4.7-1.5,4.7-4.6
					c0-2.5-1.7-4-4.3-4c-2,0-3.6,0.7-5.3,2.3l-1.7-1.9c2.1-2,4.4-2.9,7.1-2.9C169.4,42.4,172,45.4,172,48.8z"/>
			</g>
		</g>
		<g>
			<polyline class="st7" points="112.4,215.6 87.4,229.2 87.4,310.8 242.7,310.8 242.7,231.1 218.9,217.6 			"/>
			<line class="st7" x1="87.4" y1="229.2" x2="242.7" y2="310.8"/>
			<line class="st7" x1="242.7" y1="231.1" x2="87.4" y2="310.8"/>
			<polyline class="st7" points="112.5,242.4 112.6,153 197.7,153 218.8,173.7 218.8,242.4 			"/>
			<line class="st7" x1="131.2" y1="174.7" x2="169.3" y2="174.7"/>
			<line class="st7" x1="131.2" y1="204.3" x2="200.5" y2="204.3"/>
			<line class="st7" x1="131.2" y1="215.5" x2="200.5" y2="215.5"/>
			<line class="st7" x1="131.2" y1="226.7" x2="200.5" y2="226.7"/>
			<line class="st7" x1="131.2" y1="237.9" x2="154.5" y2="237.9"/>
			<polygon class="st7" points="131.2,184.1 198.3,184.1 198.3,194.9 131.2,195.8 			"/>
			<polyline class="st7" points="197.7,153 197.7,173.7 218.8,173.7 			"/>
		</g>
	</g>
</g>
<g id="Gallery">
</g>
<g id="specs">
</g>
<g id="Key_features">
</g>
<g id="Gom_Main">
</g>
<g id="infos">
</g>
</svg>
