<svg id="Layer_1" data-name="Layer 1" xmlns="http://www.w3.org/2000/svg" xmlns:xlink="http://www.w3.org/1999/xlink" viewBox="0 0 250 280"><defs><style>.cls-1,.cls-5,.cls-6,.cls-7{fill:none;}.cls-2{clip-path:url(#clip-path);}.cls-3{opacity:0.22;}.cls-4,.cls-8{fill:#fff;}.cls-5,.cls-6,.cls-7{stroke:#fff;stroke-miterlimit:10;}.cls-5{stroke-width:2px;}.cls-7{stroke-width:2.7px;}.cls-8{font-size:40px;font-family:FiraSans-Book, Fira Sans;}</style><clipPath id="clip-path"><rect class="cls-1" x="-2455.58" y="587.27" width="1920" height="1382.14"/></clipPath></defs><g class="cls-2"><g class="cls-3"><path class="cls-4" d="M-1528.31,1579.19l-1.6,3m0,0-11.52,22.64m0,0-11.12,23.33m0,0-10.73,24m0,0-10.35,24.75m0,0-10,25.48m0,0-9.58,26.22m0,0-9.22,27m0,0-8.84,27.74m0,0-8.46,28.54m0,0-8.1,29.36m0,0-7.71,30.19m0,0-7.34,31m0,0-7,31.94m0,0-6.58,32.85m0,0-6.18,33.8m0,0-5.78,34.78m0,0-3.54,23.57m-124.57-338.71.1-.08M575.51,2025.24l-38.38,34.15m38.38-730.77-130.88-57.9m0,0,130.88-12.44m-130.88,12.44,130.88-134.24m0,720.08-423.28-274.7m0,0,423.28-4.76m-423.28,4.76,292.4-311.14M95.15,2059.39-111.51,1874m0,0,687,46.27m-687-46.27,263.74-292.18m-424.11,477.53L-111.51,1874m687-1420.35-72.37-5.49m0,0,72.37-27.8m-72.37,27.8,72.37-91.66m0,514.05L234.64,789.68m0,0L575.51,688.8M234.64,789.68,503.14,448.2m-58.51,822.52L1.5,1087.57m0,0,574-122.19M1.5,1087.57,234.64,789.68m-82.41,792.18-362.48-222.35m0,0,654.88-88.79m-654.88,88.79L1.5,1087.57m-113,786.47-299.42-255.39m0,0,563.16-36.79m-563.16,36.79,200.68-259.14M-451,2059.39-609.2,1876.13m0,0,497.69-2.09m-497.69,2.09,198.27-257.48m-338.59,440.74,140.32-183.26M503.14,448.2,44.42,424.39m0,0L575.51,161.66M44.42,424.39,249.63,102.23m-15,687.45-376.19-78.52m0,0,644.69-263m-644.69,263,186-286.77M1.5,1087.57-311.91,968.75m0,0L234.64,789.68M-311.91,968.75l170.36-257.59m-68.7,648.35-263.68-150.94m0,0,475.43-121m-475.43,121,162-239.82m-99,649.9-222.68-178.86m0,0,423.36-80.28m-423.36,80.28,159.68-231.22M-609.2,1876.13l-187.45-205.46m0,0,385.72-52m-385.72,52,163-230.88m-235.55,619.6-100-149.8m0,0,359.91-33.46m-359.91,33.46,172.46-238.92m-282.87,388.72,110.41-149.8M178.05,102.23-132,140m0,0,54-37.8M-132,140l19.41-37.8m157,322.16-323.7-7.65m0,0L240,102.23M-279.28,416.74-132,140m-9.57,571.13L-415.68,663m0,0L44.42,424.39M-415.68,663l136.4-246.28m-32.63,552L-546.23,889m0,0,404.68-177.84M-546.23,889l130.55-226m-58.25,545.55-201.26-106m0,0,363.28-133.82m-363.28,133.82,129-213.57m-87.38,550.79-172.87-129.33m0,0,332.55-101.89m-332.55,101.89,131.29-207.89m-121.46,568.1L-944.19,1519m0,0,310.58-79.19M-944.19,1519l137.71-208.52m-162.63,599.13L-1093,1734.78m0,0,296.39-64.11M-1093,1734.78-944.19,1519M-1259,1965.64l289.85-56.05M-1259,1965.64-1093,1734.78M-132,140l-281,42.11m0,0,98.09-79.91M-413,182.14l34.36-79.91m99.37,314.51-241.58,2.08m0,0L-132,140M-520.86,418.82-413,182.14M-415.68,663l-209.45-29m0,0,345.85-217.27M-625.13,634l104.27-215.19M-546.23,889l-182.53-54.29m0,0L-415.68,663M-728.76,834.71-625.13,634m-50.06,468.56-159.32-75.91m0,0L-546.23,889m-288.28,137.66,105.75-192m-77.72,475.75L-945.17,1215m0,0,270-112.4m-270,112.4,110.66-188.31M-944.19,1519l-119.72-114.35m0,0,257.43-94.17m-257.43,94.17L-945.17,1215M-1093,1734.78-1194.58,1601m0,0L-944.19,1519M-1194.58,1601l130.67-196.41m-278.28,405.94,249.15-75.79m-249.15,75.79L-1194.58,1601M-413,182.14l-213.91,38.8m0,0,127.53-118.71M-626.92,220.94l43.41-118.71m62.65,316.59-187.91,8.35m0,0,295.76-245m-295.76,245,81.85-206.23M-625.13,634-791,617.81m0,0,270.15-199M-791,617.81l82.24-190.64m-20,407.54-146.78-36.79m0,0L-625.13,634M-875.54,797.92-791,617.81m-43.5,408.85-129.77-54.82m0,0,235.52-137.13M-964.28,971.84l88.74-173.92M-945.17,1215l-114.23-71.37m0,0,224.89-116.94M-1059.4,1143.6l95.12-171.76m-99.63,432.79-99.55-87.38m0,0L-945.17,1215m-218.29,102.28,104.06-173.65M-1194.58,1601l-85.17-103.81m0,0,215.84-92.6m-215.84,92.6,116.29-180m-249.14,371.64,218-87.85m-218,87.85,132.85-191.66M-626.92,220.94l-168.92,36.52m0,0,148-155.23m-148,155.23L-747,102.23m38.27,324.94-150.9,12.62m0,0,232.75-218.85M-859.67,439.79l63.83-182.33M-791,617.81l-135.14-7.22m0,0,217.38-183.42M-926.15,610.59l66.48-170.8m-15.87,358.13-121-24.27m0,0L-791,617.81M-996.58,773.65l70.43-163.06m-38.13,361.25-108.17-39.46m0,0,196.91-134.46m-196.91,134.46,75.87-158.73m-62.82,369.95-96.1-53.57m0,0,191.22-118.19M-1155.5,1090l83-157.65m-91,384.87-84.46-67.3m0,0,188.52-106.35M-1247.92,1250-1155.5,1090m-124.25,407.2-72.81-81.34m0,0,189.1-98.64m-189.1,98.64L-1247.92,1250m-225.36,342.43,193.53-95.15m-193.53,95.15,120.72-176.49M-846.51,102.23l-38.91,14.88m0,0L-874,102.23m-11.44,14.88,3.52-14.88m86.06,155.23-137.29,34.87m0,0,162.68-190.1m-162.68,190.1,47.71-175.22m25.75,322.68L-984,455.43m0,0,188.13-198M-984,455.43l50.84-163.1m7,318.26-112.62-.71m0,0,179.1-170.09m-179.1,170.09L-984,455.43m-12.61,318.22-101.92-15m0,0,172.35-148m-172.35,148,59.73-148.75m-33.68,322.5-91.9-28m0,0,167.77-130.77m-167.77,130.77,65.85-145.79m-57,331.4-82.3-40.09m0,0,165.35-117.56m-165.35,117.56,73.45-145.52M-1247.92,1250l-72.87-51.94m0,0,165.29-108m-165.29,108,83-148.07m-114.76,366-63.28-64.06"/></g></g><rect class="cls-5" x="6.32" y="4.98" width="237.36" height="161.22"/><path class="cls-4" d="M6.32,5v9.33H243.68V5ZM223.43,12.4a2.73,2.73,0,1,1,2.73-2.73A2.73,2.73,0,0,1,223.43,12.4Zm7.4,0a2.73,2.73,0,1,1,2.73-2.73A2.73,2.73,0,0,1,230.83,12.4Zm7.4,0A2.73,2.73,0,1,1,241,9.67,2.73,2.73,0,0,1,238.23,12.4Z"/><rect class="cls-5" x="40.38" y="14.63" width="167.66" height="151.58"/><rect class="cls-4" x="152.37" y="113.65" width="19.58" height="19.58"/><circle class="cls-4" cx="162.16" cy="105.31" r="6.34"/><rect class="cls-4" x="158.35" y="105.31" width="7.79" height="10.05"/><polygon class="cls-4" points="122.64 40.59 164.51 102.05 159.8 105.31 118.11 43.49 122.64 40.59"/><circle class="cls-4" cx="119.2" cy="42.41" r="4.44"/><polygon class="cls-4" points="114.75 40.59 84.57 79.21 89.28 83.92 119.19 45.11 114.75 40.59"/><path class="cls-6" d="M78.46,103.1l5.19-5a1.34,1.34,0,0,0,.06-1.85l-.43-.47a1.34,1.34,0,0,1-.23-1.44,7.9,7.9,0,0,1,2.52-3,1.32,1.32,0,0,0,.22-1.91l-2.14-2.56a1.34,1.34,0,0,1,.6-2.12L86,84.18a1.34,1.34,0,0,1,1.36.31L101,97.94a1.39,1.39,0,0,1,.21.27c.43.72,2.15,3.84-.09,3.84-2.07,0-3.77,2.16-4.34,3a1.27,1.27,0,0,1-.54.46l-1.11.5A1.3,1.3,0,0,1,94,106c-1.48-.66-5.36-2.53-5.07-3.56v0a1.31,1.31,0,0,0-1.76-1.54l-2.2.88a1.28,1.28,0,0,0-.63.52l-1.53,2.43a1.35,1.35,0,0,0-.08,1.28c.44.93.89,2.51-1.6,1.73a4.05,4.05,0,0,1-3.07-3.45A1.33,1.33,0,0,1,78.46,103.1Z"/><circle class="cls-4" cx="85.66" cy="82.83" r="5.54"/><line class="cls-6" x1="102.2" y1="101.5" x2="107.05" y2="107.88"/><line class="cls-6" x1="101.07" y1="102.05" x2="107.05" y2="107.88"/><path class="cls-6" d="M87.75,100.73s-.55,2-1.37,2a7.7,7.7,0,0,1-2-.45"/><path class="cls-6" d="M86,90.66l9.41,9s-.27,4.17-6.53,2.72"/><circle class="cls-7" cx="124.66" cy="248.16" r="26.31"/><text class="cls-8" transform="translate(114.82 261.22)">2</text></svg>