<svg id="Layer_1" data-name="Layer 1" xmlns="http://www.w3.org/2000/svg" viewBox="0 0 169.19 168.2"><defs><style>.cls-1{fill:#ff931e;}</style></defs><path class="cls-1" d="M84.6,165.6a81.5,81.5,0,1,1,81.5-81.5A81.59,81.59,0,0,1,84.6,165.6Zm0-162a80.5,80.5,0,1,0,80.5,80.5A80.59,80.59,0,0,0,84.6,3.6Z"/><path class="cls-1" d="M118.43,103.33A13.67,13.67,0,0,0,104.77,116H69.43a13.72,13.72,0,1,0,0,2.11h35.34a13.7,13.7,0,1,0,13.66-14.76ZM64,125.24a11.6,11.6,0,1,1,3.4-8.2A11.62,11.62,0,0,1,64,125.24Zm62.66,0A11.6,11.6,0,1,1,130,117,11.62,11.62,0,0,1,126.63,125.24Z"/><path class="cls-1" d="M122.22,66.33a23.51,23.51,0,0,0-3.47-11.1,30.18,30.18,0,0,0-8.75-9,42.11,42.11,0,0,0-23.7-7,42.12,42.12,0,0,0-23.71,7,30.3,30.3,0,0,0-8.75,9,23.5,23.5,0,0,0-3.46,11.1H42.06v35.73h90.07V66.33Zm-66.58-10a28,28,0,0,1,8.14-8.4A39.9,39.9,0,0,1,86.3,41.32a39.9,39.9,0,0,1,22.51,6.61,28,28,0,0,1,8.14,8.4,21.25,21.25,0,0,1,3.16,10H52.48A21.36,21.36,0,0,1,55.64,56.33ZM130,100H44.17V68.43H130Z"/><polygon class="cls-1" points="52.19 75.18 121.46 75.18 121.46 73.08 50.08 73.08 50.08 78.35 52.19 78.35 52.19 75.18"/><polygon class="cls-1" points="52.19 82.97 121.46 82.97 121.46 80.86 50.08 80.86 50.08 86.14 52.19 86.14 52.19 82.97"/><polygon class="cls-1" points="52.19 91.09 121.46 91.09 121.46 88.98 50.08 88.98 50.08 94.25 52.19 94.25 52.19 91.09"/><path class="cls-1" d="M61.46,53.69,63.12,55a23.74,23.74,0,0,1,9.64-7.08A31.26,31.26,0,0,1,84.67,45.6V43.5A33.26,33.26,0,0,0,72,46,25.93,25.93,0,0,0,61.46,53.69Z"/></svg>