<svg id="Layer_1" data-name="Layer 1" xmlns="http://www.w3.org/2000/svg" viewBox="0 0 169.19 168.2"><defs><style>.cls-1{fill:#ff931e;}</style></defs><path class="cls-1" d="M124.1,94.89V43l2.09-.51-2.35-9.78L69.19,45.83l-5.71-8.26H41.23V74.44H49v45.9H44.7v13.21H39.8v2H77.45v-2H72.54V120.34h-8.7V74.44H76V55.7l-.69-1,46.79-11.27V94.89h-3.76v2h9v8.93L124.56,109h-5.21V103h-2v7.9h8.08l4-4.38V94.89ZM70.56,122.33v11.22H46.69V122.33Zm-8.7-35.48v1.83H50.94V80.46ZM50.94,78.17V74.44H61.86V84.55ZM61.86,90.66v7.27L50.94,91.54v-.88Zm0,9.56v1.83H50.94V93.83Zm0,3.81v8l-10.92-6.39V104Zm0,10.27v1.83H50.94v-8.22Zm0,3.81v2.23H50.94v-2.23ZM74,65v7.5H43.21V39.56H62.44l1.83,2.64H52.54V62.28H74Zm0-4.67H54.52V44.19H65.64L74,56.32ZM74.12,53,70.4,47.57l7.4-1.78,1.43,5.93Zm7-1.7-1.43-5.93,6-1.44-4,7.24Zm3.16-.76,4-7.24.35-.08,1.43,5.92Zm7.73-1.86-1.42-5.92,6-1.45-4,7.24Zm3.16-.76,4-7.24,1-.24,1.42,5.93Zm8.38-2-1.42-5.92,6-1.45-4,7.24Zm3.17-.76,4-7.24.34-.08,1.43,5.92Zm7.73-1.86-1.43-5.92,6-1.45-4,7.24Zm7.63-1.83-4.47,1.07,4-7.24.44-.11Z"/><path class="cls-1" d="M84.6,165.6a81.5,81.5,0,1,1,81.5-81.5A81.59,81.59,0,0,1,84.6,165.6Zm0-162a80.5,80.5,0,1,0,80.5,80.5A80.59,80.59,0,0,0,84.6,3.6Z"/></svg>