<svg id="Layer_1" data-name="Layer 1" xmlns="http://www.w3.org/2000/svg" viewBox="0 0 169.19 168.2"><defs><style>.cls-1{fill:#ff931e;}</style></defs><path class="cls-1" d="M84.6,165.6a81.5,81.5,0,1,1,81.5-81.5A81.59,81.59,0,0,1,84.6,165.6Zm0-162a80.5,80.5,0,1,0,80.5,80.5A80.59,80.59,0,0,0,84.6,3.6Z"/><path class="cls-1" d="M60.64,57.51a6.32,6.32,0,1,0-4.47-10.79,6.32,6.32,0,0,0,4.47,10.79Zm-3-9.3a4.21,4.21,0,1,1,0,6,4.22,4.22,0,0,1,0-6Z"/><path class="cls-1" d="M122.83,62.85V55.62c0-1.41,0-2.69,0-4.22a14.92,14.92,0,0,0-6.48-11.18,14.83,14.83,0,0,0-8.38-2.59H60.64a14.87,14.87,0,0,0-8.39,2.59,15,15,0,0,0-5.48,6.85,14.73,14.73,0,0,0-1,4.33c-.09,1.53,0,2.81-.05,4.22v7.23h-14v55.47h3v9.07h98.67v-9.07h4.14V62.85Zm-14.9-23.11a12.79,12.79,0,0,1,11.9,8.11,12.14,12.14,0,0,1,.85,3.71c.08,1.22,0,2.71,0,4.06v7.23H95.13V55.62c0-1.35,0-2.84,0-4.06A12.44,12.44,0,0,1,96,47.85a12.94,12.94,0,0,1,4.7-5.89A12.78,12.78,0,0,1,107.93,39.74Zm-7.63,0c-.26.15-.52.31-.76.48a15,15,0,0,0-5.48,6.85,14.42,14.42,0,0,0-1,4.33c-.1,1.53,0,2.81,0,4.22v7.23H75.55V55.62c0-1.41,0-2.69,0-4.22A14.85,14.85,0,0,0,69,40.22c-.25-.17-.51-.33-.76-.48ZM47.88,51.56a12.44,12.44,0,0,1,.85-3.71A12.94,12.94,0,0,1,53.43,42a12.79,12.79,0,0,1,19.11,5.89,12.14,12.14,0,0,1,.85,3.71c.09,1.22,0,2.71,0,4.06v7.23H47.84V55.62C47.86,54.27,47.8,52.78,47.88,51.56ZM33.8,116.21V65H88v51.26Zm97.45,9.08H36.8v-7h94.45Zm4.15-9.08H90.13V65H135.4Z"/><path class="cls-1" d="M107.93,57.51a6.41,6.41,0,0,0,4.47-1.85,6.35,6.35,0,0,0,0-8.94,6.33,6.33,0,0,0-8.94,0,6.33,6.33,0,0,0,0,8.94A6.39,6.39,0,0,0,107.93,57.51Zm-3-9.3a4.21,4.21,0,1,1,0,6,4.22,4.22,0,0,1,0-6Z"/></svg>