<svg id="Layer_1" data-name="Layer 1" xmlns="http://www.w3.org/2000/svg" viewBox="0 0 169.19 168.2"><defs><style>.cls-1{fill:#ff931e;}</style></defs><path class="cls-1" d="M84.6,165.6a81.5,81.5,0,1,1,81.5-81.5A81.59,81.59,0,0,1,84.6,165.6Zm0-162a80.5,80.5,0,1,0,80.5,80.5A80.59,80.59,0,0,0,84.6,3.6Z"/><path class="cls-1" d="M140.41,111.09l-39-83.82L77.66,78.46,63.28,44.55,31.64,111.09H25v2.46H144.16v-2.46Zm-39-78.22,24.06,51.75-10.46,5.9-7.58-6.84-12.72,6.9L84.64,83.73l-9.31,5.35ZM34.26,111.09,63.17,50.3l13.15,31L62.49,111.09Zm30.84,0L73.55,92.9l11-6.31,10.07,6.84,12.52-6.8,7.59,6.85,11.81-6.64,11.27,24.25Z"/><polygon class="cls-1" points="118.26 74.02 108.36 52.18 106.25 53.23 116.15 75.07 118.26 74.02"/></svg>