<svg id="Layer_1" data-name="Layer 1" xmlns="http://www.w3.org/2000/svg" viewBox="0 0 169.19 168.2"><defs><style>.cls-1{fill:#ff931e;}</style></defs><path class="cls-1" d="M134.58,118.73V62.62a23.4,23.4,0,0,0-.6-5.4,23.1,23.1,0,0,0-4.85-9.64,23.64,23.64,0,0,0-4-3.71,22.93,22.93,0,0,0-2.29-1.48c-.39-.22-.79-.44-1.2-.64l-.59-.28V34.18H101.83v7.29l-.59.28c-.41.2-.8.42-1.21.64a26.13,26.13,0,0,0-2.28,1.48,23.21,23.21,0,0,0-8.81,13.35,24,24,0,0,0-.61,5.4v7.19a29.22,29.22,0,0,0-3.15-2.73,30.41,30.41,0,0,0-2.89-1.88c-.5-.29-1-.55-1.52-.81L79.84,64V54.84H56.08V64l-.28.12-.91.43c-.59.31-1.19.63-1.76,1a30,30,0,0,0-3.3,2.3,29.34,29.34,0,0,0-5.5,5.85,28.72,28.72,0,0,0-5.26,15c-.11,10.12,0,20-.06,30.07H29.77v7.06H139.42v-7.06ZM90.44,78.21V62.62A21.89,21.89,0,0,1,91,57.7a21.08,21.08,0,0,1,8-12.13,20,20,0,0,1,2.08-1.35c.36-.2.72-.4,1.09-.58l.28-.14.4-.18,1.09-.48V36.29h15v6.55l1.09.48.4.18.28.14c.37.18.74.38,1.09.58a20,20,0,0,1,2.08,1.35,20.95,20.95,0,0,1,8,12.13,21.34,21.34,0,0,1,.56,4.92v56.11h-42ZM41.17,88.77a26.64,26.64,0,0,1,4.88-13.91,27,27,0,0,1,5.09-5.43,29.46,29.46,0,0,1,3.07-2.13c.53-.32,1.08-.62,1.64-.9l.84-.42,1.49-.65V57H77.74v8.38l1.37.6.73.35c.47.24,1,.49,1.41.75a27.36,27.36,0,0,1,2.68,1.75,26.83,26.83,0,0,1,4.4,4.12v45.83H41.12C41.14,108.75,41.07,98.66,41.17,88.77Zm96.15,34.91H31.88v-2.84H137.32Z"/><path class="cls-1" d="M126.67,59.3a15.18,15.18,0,0,1,.39,3.44v40.8h2.1V62.74a17.32,17.32,0,0,0-.44-3.92,16.89,16.89,0,0,0-9.84-11.66l-.82,1.94A14.76,14.76,0,0,1,126.67,59.3Z"/><rect class="cls-1" x="127.06" y="106.21" width="2.1" height="4.22"/><path class="cls-1" d="M84.6,165.6a81.5,81.5,0,1,1,81.5-81.5A81.59,81.59,0,0,1,84.6,165.6Zm0-162a80.5,80.5,0,1,0,80.5,80.5A80.59,80.59,0,0,0,84.6,3.6Z"/></svg>