<svg id="Layer_1" data-name="Layer 1" xmlns="http://www.w3.org/2000/svg" viewBox="0 0 169.19 168.2"><defs><style>.cls-1{fill:#ff931e;}</style></defs><path class="cls-1" d="M38.22,38.81v98.47H131V38.81Zm90.53,21.3v75H40.44V41h88.31Z"/><path class="cls-1" d="M125.55,60.82V44.53H43.65v74.6h81.9Zm-2.22,56.09H45.86V62.58H67v5.7h8V97.4h2.87l6.68,10.94L91.28,97.4h2.87V68.28h8v-5.7h21.16ZM77.26,95.18V68.28H91.93v26.9ZM88.68,97.4l-4.09,6.68L80.51,97.4ZM69.24,66.06V56.87h30.7v9.19Zm54.09-5.71H102.17V54.66H67v5.69H45.86V46.75h77.47Z"/><rect class="cls-1" x="88.5" y="71.36" width="2.22" height="13.61"/><rect class="cls-1" x="88.5" y="86.04" width="2.22" height="2.49"/><path class="cls-1" d="M115.7,132.37h9.85v-9H115.7Zm2.23-6.77h5.4v4.55h-5.4Z"/><path class="cls-1" d="M104.13,132.37H114v-9h-9.84Zm2.22-6.77h5.4v4.55h-5.4Z"/><rect class="cls-1" x="44.75" y="126.77" width="56.3" height="2.22"/><path class="cls-1" d="M84.6,165.6a81.5,81.5,0,1,1,81.5-81.5A81.59,81.59,0,0,1,84.6,165.6Zm0-162a80.5,80.5,0,1,0,80.5,80.5A80.59,80.59,0,0,0,84.6,3.6Z"/></svg>