<svg id="Layer_1" data-name="Layer 1" xmlns="http://www.w3.org/2000/svg" viewBox="0 0 169.19 168.2"><defs><style>.cls-1{fill:#ff931e;}</style></defs><path class="cls-1" d="M84.6,165.6a81.5,81.5,0,1,1,81.5-81.5A81.59,81.59,0,0,1,84.6,165.6Zm0-162a80.5,80.5,0,1,0,80.5,80.5A80.59,80.59,0,0,0,84.6,3.6Z"/><path class="cls-1" d="M134.27,119.81a11.37,11.37,0,0,0-10.43-10.43V83.18h3.92V97.66a5.75,5.75,0,0,0,.91,3.31,5.54,5.54,0,0,0,10.17-3V66.54a5.75,5.75,0,0,0-.91-3.31,5.54,5.54,0,0,0-10.17,3V81h-3.92V55.56h-5.4V41.65H55.14V55.56h-7v54.07a11.4,11.4,0,0,0-8.81,10.18H33V122H39.3a11.56,11.56,0,0,0,23,0h48.92a11.48,11.48,0,0,0,3.3,7.13A11.55,11.55,0,0,0,134.27,122h4.9v-2.17Zm-4.35-25V66.27a3.38,3.38,0,0,1,6.2-1.85,3.46,3.46,0,0,1,.55,2.12V97.93a3.37,3.37,0,0,1-6.19,1.85,3.48,3.48,0,0,1-.56-2.12Zm-72.62-51h59V61.75h-59Zm0,20.09h59V82.15L101,99.86v6.41H72.59V99.86L57.3,82.15Zm.2,63.67a9.45,9.45,0,1,1,2.77-6.68A9.46,9.46,0,0,1,57.5,127.58Zm4.83-7.77a11.51,11.51,0,0,0-11.51-10.53c-.19,0-.37,0-.55,0V57.73h4.87V83l15.28,17.71v7.78h32.73v-7.78L118.44,83V57.73h3.24v51.65a11.4,11.4,0,0,0-10.43,10.43Zm67.12,7.77a9.48,9.48,0,1,1,2.76-6.68A9.47,9.47,0,0,1,129.45,127.58Z"/><rect class="cls-1" x="60.27" y="65.46" width="2.17" height="7.65"/><rect class="cls-1" x="60.27" y="75.05" width="2.17" height="3.48"/></svg>