<svg id="Layer_1" data-name="Layer 1" xmlns="http://www.w3.org/2000/svg" viewBox="0 0 169.19 168.2"><defs><style>.cls-1{fill:#ff931e;}</style></defs><path class="cls-1" d="M84.6,165.6a81.5,81.5,0,1,1,81.5-81.5A81.59,81.59,0,0,1,84.6,165.6Zm0-162a80.5,80.5,0,1,0,80.5,80.5A80.59,80.59,0,0,0,84.6,3.6Z"/><path class="cls-1" d="M109.45,62.61V35.05h-8.73V62.61H68.47V35.05H59.74V62.61H46.48V74.84h5.61v26.94a28.91,28.91,0,0,0,27.79,28.16c1.64.05,3.13,0,4.7,0s3.07,0,4.71,0a28.69,28.69,0,0,0,13.76-4.12,29,29,0,0,0,14-24V74.84h5.61V62.61Zm-6.63-25.45h4.52V62.61h-4.52Zm-41,0h4.51V62.61H61.85ZM115,92.43v9.3a26.49,26.49,0,0,1-1.72,8.76,26.9,26.9,0,0,1-19.6,16.8,25.52,25.52,0,0,1-4.45.54c-1.47,0-3.08,0-4.62,0s-3.15,0-4.61,0a25.52,25.52,0,0,1-4.45-.54A26.85,26.85,0,0,1,54.2,101.73V74.84H115Zm5.61-19.7h-72v-8h72Z"/><path class="cls-1" d="M82.67,95.94,95.73,76.18,66.41,103.64H82L68.79,123.85l34.29-27.91H82.67ZM78,113.66l7.93-12.12H71.73L84.09,90,78.76,98h18.4Z"/></svg>