<svg id="Layer_1" data-name="Layer 1" xmlns="http://www.w3.org/2000/svg" viewBox="0 0 169.19 168.2"><defs><style>.cls-1{fill:#ff931e;}</style></defs><path class="cls-1" d="M127,44.82v9.82H42.19V44.82H32.58v78.56h104V44.82ZM99,56.74a14.4,14.4,0,0,1-28.73,0Zm-56.77,0H68.12a16.51,16.51,0,0,0,32.95,0H127V86.33H42.19Zm0,44.39V88.44H127v12.69a9.59,9.59,0,0,1-.24,2.93,6.07,6.07,0,0,1-3.61,4,6.5,6.5,0,0,1-2.8.43H48.84A6.53,6.53,0,0,1,46,108a6.06,6.06,0,0,1-3.6-4A9.26,9.26,0,0,1,42.19,101.13Zm92.32,20.14H34.68V46.93h5.41v54.2c0,.57,0,1,0,1.68a8.85,8.85,0,0,0,.31,1.84A8.24,8.24,0,0,0,45.27,110a8.54,8.54,0,0,0,1.8.48,12.34,12.34,0,0,0,1.77.09h71.51a12.54,12.54,0,0,0,1.78-.09,8.7,8.7,0,0,0,1.8-.48,8.17,8.17,0,0,0,5.16-7.17c0-.65,0-1.11,0-1.68V46.93h5.4Z"/><path class="cls-1" d="M84.6,165.6a81.5,81.5,0,1,1,81.5-81.5A81.59,81.59,0,0,1,84.6,165.6Zm0-162a80.5,80.5,0,1,0,80.5,80.5A80.59,80.59,0,0,0,84.6,3.6Z"/></svg>