<svg id="Layer_1" data-name="Layer 1" xmlns="http://www.w3.org/2000/svg" viewBox="0 0 169.19 168.2"><defs><style>.cls-1{fill:#ff931e;}</style></defs><path class="cls-1" d="M84.6,165.6a81.5,81.5,0,1,1,81.5-81.5A81.59,81.59,0,0,1,84.6,165.6Zm0-162a80.5,80.5,0,1,0,80.5,80.5A80.59,80.59,0,0,0,84.6,3.6Z"/><polygon class="cls-1" points="40.85 89.54 42.96 89.54 42.96 84.33 65.21 84.33 65.21 82.22 40.85 82.22 40.85 89.54"/><path class="cls-1" d="M139.94,106.7V97.56l-8.45-23.32h-8.56V70.65h-2.11V85.79L107.14,93.3,102.2,79.47h-1.91V61.61H96.9V53.7a5,5,0,0,1,0-.68,4.69,4.69,0,0,1,1-2.42c1.12-1.35,3-1.78,5.13-1.71h6.52v-2.1h-6.52a11.54,11.54,0,0,0-3.53.4,6.65,6.65,0,0,0-3.21,2.06,6.79,6.79,0,0,0-1.49,3.51,7.66,7.66,0,0,0-.06.94v7.91H91.53V79.47H88.21L79.36,45.86H82.7v-2.1H30.44v2.1h4.13V73c-.22.06-.44.1-.66.17a11,11,0,0,0-2.39,1.11,9.93,9.93,0,0,0-3.6,3.87,12.18,12.18,0,0,0-1.29,5c0,3.3,0,6.41,0,9.62v19.14a12.51,12.51,0,0,0,25,1H83.39a12.5,12.5,0,0,0,24.92,0h7.52v-6.71h-4l-.62-1.76h9.66v4.3h21.77V106.7Zm-46.31-43h4.56V79.47H93.63ZM54.06,45.86H77.18L86,79.47H73.67l-2.9-6.7H54.06Zm-17.39,0H52V72.77H36.67Zm9.81,73.42a10.41,10.41,0,0,1-17.77-7.35,10.41,10.41,0,0,1,20.82,0A10.39,10.39,0,0,1,46.48,119.28Zm56.72,0a10.41,10.41,0,1,1,3-7.35A10.36,10.36,0,0,1,103.2,119.28Zm10.52-10.91v2.51h-5.41a12.5,12.5,0,0,0-24.92,0H51.58a12.51,12.51,0,0,0-21.31-7.8,12.93,12.93,0,0,0-1.56,1.9V92.79l0-9.51a8.56,8.56,0,0,1,3.89-7.22,9,9,0,0,1,1.94-.9c.34-.1.69-.2,1-.26l.12,0H69.39l2.9,6.7h28.43l9.58,26.79Zm7.1-6H110.4l-2.54-7.1,13-7.11Zm17,4.3h-14.9V76.35H130l7.82,21.57Z"/></svg>