<svg id="Layer_1" data-name="Layer 1" xmlns="http://www.w3.org/2000/svg" viewBox="0 0 169.19 168.2"><defs><style>.cls-1{fill:#ff931e;}</style></defs><path class="cls-1" d="M122,49.83a14.18,14.18,0,0,0-13.65-10.37H61.52A15.09,15.09,0,0,0,57,40,14.15,14.15,0,0,0,46.66,53.62v46.85a15.09,15.09,0,0,0,.51,4.49,14.15,14.15,0,0,0,13.65,10.37H83.54v12.43H63v4.07H54.35v2.11h60.49v-2.11h-8.65v-4.07H85.65V115.33h22a15.11,15.11,0,0,0,4.5-.51,14.15,14.15,0,0,0,10.37-13.65V54.32A15.12,15.12,0,0,0,122,49.83Zm-17.94,80v2h-39v-2Zm16.34-71.28v42.59a12.06,12.06,0,0,1-8.82,11.62,13.36,13.36,0,0,1-3.94.44H60.82A12.06,12.06,0,0,1,49.2,104.4a13,13,0,0,1-.44-3.93V53.62A12.08,12.08,0,0,1,57.59,42a13.33,13.33,0,0,1,3.93-.44h46.85A12.08,12.08,0,0,1,120,50.39a13,13,0,0,1,.43,3.93Z"/><path class="cls-1" d="M82.37,50.15a4.62,4.62,0,0,0-.88-1.79A4.53,4.53,0,0,0,78,46.68H58.67a4.8,4.8,0,0,0-1,.12,4.73,4.73,0,0,0-1.8.88,4.57,4.57,0,0,0-1.68,3.51V70.5a5,5,0,0,0,.13,1,4.46,4.46,0,0,0,.87,1.79A4.55,4.55,0,0,0,58.71,75H78a4.78,4.78,0,0,0,1-.12,4.59,4.59,0,0,0,1.8-.88,4.51,4.51,0,0,0,1.68-3.51V51.15A4.8,4.8,0,0,0,82.37,50.15Zm-2,8V70.46a2.42,2.42,0,0,1-.89,1.87,2.69,2.69,0,0,1-1,.47,2.39,2.39,0,0,1-.53.06H58.71A2.44,2.44,0,0,1,56.83,72a2.51,2.51,0,0,1-.46-1,2.33,2.33,0,0,1-.07-.53V51.19a2.39,2.39,0,0,1,.9-1.87,2.36,2.36,0,0,1,.95-.47,2.48,2.48,0,0,1,.54-.06H78a2.42,2.42,0,0,1,1.88.89,2.61,2.61,0,0,1,.47,1,3.07,3.07,0,0,1,.06.53v6.94Z"/><path class="cls-1" d="M115.27,50.15a4.52,4.52,0,0,0-4.39-3.47H91.58a4.89,4.89,0,0,0-1,.12,4.69,4.69,0,0,0-1.79.88,4.51,4.51,0,0,0-1.68,3.51V70.5a4.2,4.2,0,0,0,.13,1,4.44,4.44,0,0,0,.87,1.8A4.53,4.53,0,0,0,91.61,75h19.31a4.88,4.88,0,0,0,1-.12,4.62,4.62,0,0,0,1.79-.88,4.53,4.53,0,0,0,1.68-3.51V51.15A4.88,4.88,0,0,0,115.27,50.15Zm-2,8V70.46a2.46,2.46,0,0,1-.9,1.87,2.61,2.61,0,0,1-1,.47,2.33,2.33,0,0,1-.53.06H91.61A2.37,2.37,0,0,1,89.28,71a1.88,1.88,0,0,1-.07-.53V51.19a2.39,2.39,0,0,1,.9-1.87,2.24,2.24,0,0,1,1-.47,2.35,2.35,0,0,1,.54-.06h19.28a2.42,2.42,0,0,1,1.87.89,2.33,2.33,0,0,1,.47,1,1.88,1.88,0,0,1,.06.53v6.94Z"/><path class="cls-1" d="M82.37,83.29a4.62,4.62,0,0,0-.88-1.79A4.53,4.53,0,0,0,78,79.82H58.67a4.8,4.8,0,0,0-1,.12,4.51,4.51,0,0,0-3.48,4.39v19.31a4.9,4.9,0,0,0,.13,1,4.46,4.46,0,0,0,.87,1.79,4.55,4.55,0,0,0,3.52,1.68H78a4.78,4.78,0,0,0,1-.12,4.59,4.59,0,0,0,1.8-.88,4.51,4.51,0,0,0,1.68-3.51V84.29A4.88,4.88,0,0,0,82.37,83.29Zm-2,8V103.6a2.43,2.43,0,0,1-.89,1.87,2.53,2.53,0,0,1-1,.47A2.39,2.39,0,0,1,78,106H58.71a2.41,2.41,0,0,1-1.88-.9,2.5,2.5,0,0,1-.53-1.48V84.33a2.39,2.39,0,0,1,.9-1.87,2.31,2.31,0,0,1,1.49-.53H78a2.42,2.42,0,0,1,1.88.89,2.61,2.61,0,0,1,.47,1,3.07,3.07,0,0,1,.06.53v6.94Z"/><path class="cls-1" d="M115.27,83.29a4.52,4.52,0,0,0-4.39-3.47H91.58a4.72,4.72,0,0,0-1,.12,4.51,4.51,0,0,0-3.48,4.39v19.31a4.29,4.29,0,0,0,.13,1,4.46,4.46,0,0,0,.87,1.79,4.53,4.53,0,0,0,3.51,1.68h19.31a4.88,4.88,0,0,0,1-.12,4.62,4.62,0,0,0,1.79-.88,4.53,4.53,0,0,0,1.68-3.51V84.29A4.88,4.88,0,0,0,115.27,83.29Zm-2,8V103.6a2.42,2.42,0,0,1-1.86,2.34,2.33,2.33,0,0,1-.53.06H91.61a2.41,2.41,0,0,1-1.87-.9,2.22,2.22,0,0,1-.46-.95,1.88,1.88,0,0,1-.07-.53V84.33a2.39,2.39,0,0,1,.9-1.87,2.31,2.31,0,0,1,1.49-.53h19.28a2.42,2.42,0,0,1,1.87.89,2.33,2.33,0,0,1,.47,1,1.88,1.88,0,0,1,.06.53v6.94Z"/><path class="cls-1" d="M84.6,168.2a81.5,81.5,0,1,1,81.5-81.5A81.59,81.59,0,0,1,84.6,168.2Zm0-162a80.5,80.5,0,1,0,80.5,80.5A80.59,80.59,0,0,0,84.6,6.2Z"/></svg>