<svg id="Layer_1" data-name="Layer 1" xmlns="http://www.w3.org/2000/svg" viewBox="0 0 234.69 293.97"><defs><style>.cls-1{fill:none;stroke:#fff;stroke-miterlimit:10;stroke-width:2px;}</style></defs><polyline class="cls-1" points="131.44 50.33 131.47 80.81 164.19 80.81"/><polygon class="cls-1" points="197.65 88.25 117.34 192.34 113.63 212.42 132.96 205.72 216.24 101.63 197.65 88.25"/><line class="cls-1" x1="187.24" y1="101.63" x2="205.08" y2="115.76"/><polyline class="cls-1" points="164.19 167.87 164.19 243.65 19.94 243.65 18.45 50.33 132.96 50.33 164.19 81.55 164.19 131.1"/><polyline class="cls-1" points="31.84 83.78 37.04 90.48 48.2 75.61"/><polyline class="cls-1" points="31.84 200.52 37.04 207.21 48.2 192.34"/><polyline class="cls-1" points="32.21 127.28 48.57 127.28 48.57 143.64 32.21 143.64 32.59 126.97"/><line class="cls-1" x1="59.35" y1="75.6" x2="113.63" y2="75.6"/><line class="cls-1" x1="59.35" y1="88.25" x2="136.68" y2="88.25"/><line class="cls-1" x1="59.35" y1="127.65" x2="113.63" y2="127.65"/><line class="cls-1" x1="59.35" y1="140.29" x2="136.68" y2="140.29"/><line class="cls-1" x1="59.35" y1="192.34" x2="113.63" y2="192.34"/><line class="cls-1" x1="59.35" y1="204.98" x2="109.91" y2="204.98"/></svg>