<svg id="Layer_1" data-name="Layer 1" xmlns="http://www.w3.org/2000/svg" viewBox="0 0 120 150"><defs><style>.cls-1{fill:#fff;}.cls-2{fill:none;}</style></defs><path class="cls-1" d="M89.1,51.76V98.24H3.64V51.76H89.1m.63-.63H3V98.87H89.73V51.13Z"/><path class="cls-1" d="M87.64,51.76,46.37,79,5.1,51.76H87.64m2.09-.63H3L46.37,79.79,89.73,51.13Z"/><path class="cls-1" d="M12.38,91.35l-.74.88a1.7,1.7,0,0,0-1.09-.41c-.35,0-.48.12-.48.29s.19.28.89.51c1.11.37,1.53.86,1.53,1.77s-.84,1.74-2.25,1.74a3,3,0,0,1-2.16-.81l.83-.91a1.89,1.89,0,0,0,1.26.5c.41,0,.54-.18.54-.36s-.14-.38-.77-.58c-1.31-.41-1.64-1-1.64-1.71,0-1,.9-1.64,2.1-1.64A2.71,2.71,0,0,1,12.38,91.35Z"/><path class="cls-1" d="M16.16,92H14.51v.8H16V93.9H14.51v.88h1.76V96H12.79V90.78h3.54Z"/><path class="cls-1" d="M20.66,91.25l-.79.92a1.4,1.4,0,0,0-.86-.34c-.55,0-.84.54-.84,1.53s.3,1.49.87,1.49a1.47,1.47,0,0,0,.93-.41l.74.93a2.52,2.52,0,0,1-1.75.76,2.76,2.76,0,0,1,0-5.51A2.55,2.55,0,0,1,20.66,91.25Z"/><path class="cls-1" d="M25.22,94.19c0,1.06-.71,1.94-2.24,1.94s-2.23-.79-2.23-1.94V90.78h1.72v3.37c0,.52.14.76.51.76s.52-.24.52-.76V90.78h1.72Z"/><path class="cls-1" d="M27.48,94.2h-.17V96H25.59V90.78h2c1.53,0,2.28.51,2.28,1.69A1.58,1.58,0,0,1,29,93.89L30.26,96H28.37Zm-.17-1.14h.33c.35,0,.51-.19.51-.59s-.22-.53-.58-.53h-.26Z"/><path class="cls-1" d="M33.63,92H32v.8h1.45V93.9H32v.88h1.76V96H30.26V90.78H33.8Z"/><path class="cls-1" d="M35.67,90.78h3.41L38.91,92H37.39v1h1.34v1.17H37.39V96H35.67Z"/><path class="cls-1" d="M41,96H39.27V90.78H41Z"/><path class="cls-1" d="M43.15,94.67h1.93L44.9,96H41.44V90.78h1.71Z"/><path class="cls-1" d="M48.73,92H47.07v.8h1.45V93.9H47.07v.88h1.77V96H45.36V90.78H48.9Z"/><path class="cls-1" d="M54.61,92.05H53.49V96H51.78V92.05H50.57V90.78h4.22Z"/><path class="cls-1" d="M56.84,94.2h-.18V96H55V90.78h2c1.52,0,2.28.51,2.28,1.69a1.57,1.57,0,0,1-.87,1.42L59.62,96H57.73Zm-.18-1.14H57c.35,0,.51-.19.51-.59s-.22-.53-.59-.53h-.26Z"/><path class="cls-1" d="M62.17,95H61.11L61,96h-1.8l1.48-5.19h2L64.15,96H62.33ZM62,93.84,61.63,92l-.32,1.88Z"/><path class="cls-1" d="M68.48,96H66.33l-.91-3.65a13.09,13.09,0,0,1,.22,2.21V96H64.13V90.78h2.1l1,3.66A12.22,12.22,0,0,1,67,92.18v-1.4h1.51Z"/><path class="cls-1" d="M73,91.35l-.74.88a1.7,1.7,0,0,0-1.09-.41c-.35,0-.48.12-.48.29s.19.28.89.51c1.11.37,1.53.86,1.53,1.77s-.84,1.74-2.25,1.74a3,3,0,0,1-2.16-.81l.83-.91a1.89,1.89,0,0,0,1.26.5c.41,0,.54-.18.54-.36s-.14-.38-.77-.58c-1.31-.41-1.64-1-1.64-1.71,0-1,.9-1.64,2.1-1.64A2.71,2.71,0,0,1,73,91.35Z"/><path class="cls-1" d="M73.37,90.78h3.42L76.62,92H75.09v1h1.35v1.17H75.09V96H73.37Z"/><path class="cls-1" d="M80.34,92H78.69v.8h1.45V93.9H78.69v.88h1.76V96H77V90.78h3.53Z"/><path class="cls-1" d="M82.71,94.2h-.17V96H80.82V90.78h2c1.53,0,2.29.51,2.29,1.69a1.57,1.57,0,0,1-.87,1.42L85.49,96H83.6Zm-.17-1.14h.33c.35,0,.52-.19.52-.59s-.23-.53-.59-.53h-.26Z"/><polygon class="cls-1" points="116.99 77.01 101.87 66.16 101.87 71.88 84.47 71.88 84.47 77.01 84.47 82.14 101.87 82.14 101.87 87.86 116.99 77.01"/><rect class="cls-2" width="120" height="150"/></svg>