<svg width="104" height="98" viewBox="0 0 104 98" fill="none" xmlns="http://www.w3.org/2000/svg">
<path d="M103.957 72.8042H87.5352V91.6401H103.957V72.8042Z" fill="#FF8A00"/>
<path d="M95.7466 70.8802C98.6833 70.8802 101.064 68.1496 101.064 64.7812C101.064 61.4128 98.6833 58.6821 95.7466 58.6821C92.8099 58.6821 90.4292 61.4128 90.4292 64.7812C90.4292 68.1496 92.8099 70.8802 95.7466 70.8802Z" fill="#FF8A00"/>
<path d="M99.0848 64.781H92.5513V74.4491H99.0848V64.781Z" fill="#FF8A00"/>
<path d="M62.5996 2.52075L97.7164 61.645L93.7661 64.7811L58.8003 5.31054L62.5996 2.52075Z" fill="#FF8A00"/>
<path d="M59.7165 8.54252C61.7732 8.54252 63.4404 6.63021 63.4404 4.27126C63.4404 1.91231 61.7732 0 59.7165 0C57.6599 0 55.9927 1.91231 55.9927 4.27126C55.9927 6.63021 57.6599 8.54252 59.7165 8.54252Z" fill="#FF8A00"/>
<path d="M55.9851 2.52075L30.6729 39.673L34.6232 44.204L59.709 6.86897L55.9851 2.52075Z" fill="#FF8A00"/>
<path d="M25.5471 62.6549L29.9 57.845C30.1064 57.6127 30.2267 57.2981 30.2361 56.9667C30.2455 56.6352 30.1431 56.3124 29.9503 56.0653L29.5897 55.6131C29.4443 55.4283 29.3488 55.1991 29.3146 54.9532C29.2803 54.7074 29.3089 54.4555 29.3968 54.2279C29.8788 53.0776 30.6057 52.0851 31.5103 51.3419C31.6314 51.2384 31.7328 51.1075 31.8082 50.9574C31.8836 50.8073 31.9314 50.641 31.9487 50.4689C31.966 50.2968 31.9524 50.1224 31.9087 49.9566C31.8651 49.7907 31.7923 49.6369 31.6948 49.5045L29.9 47.0418C29.7845 46.881 29.7046 46.6905 29.6673 46.4865C29.63 46.2826 29.6364 46.0713 29.6859 45.8709C29.7353 45.6704 29.8264 45.4866 29.9514 45.3354C30.0763 45.1841 30.2314 45.0698 30.4032 45.0023L31.871 44.454C32.0666 44.3788 32.2766 44.3668 32.4778 44.4194C32.679 44.472 32.8637 44.5872 33.0116 44.7522L44.4516 57.6911C44.5194 57.769 44.5786 57.8562 44.6277 57.9508C44.9884 58.6434 46.431 61.6449 44.5523 61.6449C42.8161 61.6449 41.3903 63.7228 40.9123 64.5308C40.801 64.7247 40.6439 64.8782 40.4594 64.9734L39.5284 65.4544C39.38 65.5347 39.2177 65.5755 39.0536 65.5738C38.8895 65.5722 38.7278 65.528 38.5806 65.4447C37.3394 64.8098 34.0852 63.0109 34.3284 62.02C34.3789 61.7942 34.3738 61.5567 34.3136 61.3339C34.2535 61.1112 34.1406 60.912 33.9876 60.7585C33.8347 60.6049 33.6475 60.5031 33.4471 60.4642C33.2466 60.4254 33.0407 60.4511 32.8523 60.5386L31.0071 61.3851C30.7881 61.4812 30.6025 61.6569 30.4787 61.8854L29.1955 64.223C29.0962 64.4058 29.038 64.614 29.0263 64.829C29.0146 65.0439 29.0497 65.2588 29.1284 65.4544C29.4974 66.349 29.8748 67.869 27.7864 67.1186C27.1136 66.9322 26.5064 66.5145 26.0462 65.9214C25.586 65.3282 25.2948 64.588 25.2116 63.7997C25.181 63.592 25.1957 63.3788 25.2542 63.1791C25.3127 62.9794 25.4133 62.7993 25.5471 62.6549Z" fill="#FF8A00" stroke="#FF8A00" stroke-miterlimit="10"/>
<path d="M31.5874 48.4848C34.1535 48.4848 36.2338 46.0988 36.2338 43.1554C36.2338 40.212 34.1535 37.8259 31.5874 37.8259C29.0212 37.8259 26.9409 40.212 26.9409 43.1554C26.9409 46.0988 29.0212 48.4848 31.5874 48.4848Z" fill="#FF8A00"/>
<path d="M45.4592 61.1155L49.527 67.253" stroke="#FF8A00" stroke-miterlimit="10"/>
<path d="M44.509 61.6448L49.5245 67.2532" stroke="#FF8A00" stroke-miterlimit="10"/>
<path d="M33.3382 60.375C33.3382 60.375 32.8769 62.299 32.1891 62.299C31.6157 62.2411 31.0515 62.0955 30.5117 61.8661" stroke="#FF8A00" stroke-miterlimit="10"/>
<path d="M31.8708 50.687L39.7631 59.345C39.7631 59.345 39.5367 63.3565 34.2863 61.9616" stroke="#FF8A00" stroke-miterlimit="10"/>
<rect y="91.4187" width="104" height="5.77197" fill="#FF8A00"/>
<rect x="33.5466" y="81.7988" width="10.9032" height="9.61995" fill="#FF8A00"/>
<rect x="21.8069" y="79.8748" width="33.5484" height="1.92399" fill="#FF8A00"/>
<ellipse cx="95.6132" cy="64.4828" rx="4.19355" ry="4.80998" fill="#D57300"/>
<ellipse cx="59.5484" cy="3.87671" rx="2.51613" ry="2.88599" fill="#D57300"/>
<ellipse cx="31.4524" cy="42.8378" rx="3.77419" ry="4.32898" fill="#D57300"/>
</svg>
