<svg id="Layer_1" data-name="Layer 1" xmlns="http://www.w3.org/2000/svg" xmlns:xlink="http://www.w3.org/1999/xlink" viewBox="0 0 250 280"><defs><style>.cls-1,.cls-5,.cls-6,.cls-7{fill:none;}.cls-2{clip-path:url(#clip-path);}.cls-3{opacity:0.22;}.cls-4,.cls-8{fill:#fff;}.cls-5,.cls-6,.cls-7{stroke:#fff;stroke-miterlimit:10;}.cls-5{stroke-width:2px;}.cls-7{stroke-width:2.7px;}.cls-8{font-size:40px;font-family:FiraSans-Book, Fira Sans;}</style><clipPath id="clip-path"><rect class="cls-1" x="-2134.91" y="587.27" width="1920" height="1382.14"/></clipPath></defs><g class="cls-2"><g class="cls-3"><path class="cls-4" d="M-1207.64,1579.19l-1.6,3m0,0-11.52,22.64m0,0-11.12,23.33m0,0-10.73,24m0,0L-1253,1676.9m0,0-10,25.48m0,0-9.58,26.22m0,0-9.22,27m0,0-8.84,27.74m0,0-8.46,28.54m0,0-8.1,29.36m0,0-7.71,30.19m0,0-7.34,31m0,0-7,31.94m0,0-6.58,32.85m0,0-6.18,33.8m0,0-5.78,34.78m0,0-3.54,23.57m-124.57-338.71.1-.08M896.18,2025.24l-38.38,34.15m38.38-730.77-130.88-57.9m0,0,130.88-12.44M765.3,1270.72l130.88-134.24m0,720.08L472.9,1581.86m0,0,423.28-4.76m-423.28,4.76,292.4-311.14M415.82,2059.39,209.16,1874m0,0,687,46.27m-687-46.27L472.9,1581.86M48.79,2059.39,209.16,1874m687-1420.35-72.37-5.49m0,0,72.37-27.8m-72.37,27.8,72.37-91.66m0,514.05L555.31,789.68m0,0L896.18,688.8M555.31,789.68,823.81,448.2M765.3,1270.72,322.17,1087.57m0,0,574-122.19m-574,122.19L555.31,789.68M472.9,1581.86,110.42,1359.51m0,0,654.88-88.79m-654.88,88.79,211.75-271.94M209.16,1874-90.26,1618.65m0,0,563.16-36.79m-563.16,36.79,200.68-259.14m-240.73,699.88-158.22-183.26m0,0L209.16,1874m-497.69,2.09,198.27-257.48m-338.59,440.74,140.32-183.26M823.81,448.2,365.09,424.39m0,0L896.18,161.66M365.09,424.39,570.3,102.23m-15,687.45L179.12,711.16m0,0,644.69-263m-644.69,263,186-286.77m-42.92,663.18L8.76,968.75m0,0L555.31,789.68M8.76,968.75,179.12,711.16m-68.7,648.35-263.68-150.94m0,0,475.43-121m-475.43,121,162-239.82m-99,649.9-222.68-178.86m0,0,423.36-80.28m-423.36,80.28,159.68-231.22m-135.27,667.56L-476,1670.67m0,0,385.72-52m-385.72,52,163-230.88m-235.55,619.6-100-149.8m0,0,359.91-33.46m-359.91,33.46L-476,1670.67m-282.87,388.72,110.41-149.8M498.72,102.23l-310,37.8m0,0,54-37.8m-54,37.8,19.41-37.8m157,322.16-323.7-7.65m0,0L560.71,102.23M41.39,416.74,188.69,140m-9.57,571.13L-95,663m0,0,460.1-238.63M-95,663,41.39,416.74m-32.63,552L-225.56,889m0,0L179.12,711.16M-225.56,889-95,663m-58.25,545.55-201.26-106m0,0L8.76,968.75m-363.28,133.82,129-213.57m-87.38,550.79-172.87-129.33m0,0,332.55-101.89m-332.55,101.89,131.29-207.89M-476,1670.67-623.52,1519m0,0,310.58-79.19M-623.52,1519l137.71-208.52m-162.63,599.13-123.93-174.81m0,0L-476,1670.67m-296.39,64.11L-623.52,1519m-314.77,446.66,289.85-56.05m-289.85,56.05,165.92-230.86M188.69,140l-281,42.11m0,0L5.75,102.23m-98.09,79.91L-58,102.23M41.39,416.74l-241.58,2.08m0,0L188.69,140M-200.19,418.82-92.34,182.14M-95,663l-209.45-29m0,0L41.39,416.74M-304.46,634l104.27-215.19M-225.56,889l-182.53-54.29m0,0L-95,663M-408.09,834.71-304.46,634m-50.06,468.56-159.32-75.91m0,0L-225.56,889m-288.28,137.66,105.75-192m-77.72,475.75L-624.5,1215m0,0,270-112.4m-270,112.4,110.66-188.31M-623.52,1519l-119.72-114.35m0,0,257.43-94.17m-257.43,94.17L-624.5,1215m-147.87,519.81L-873.91,1601m0,0L-623.52,1519M-873.91,1601l130.67-196.41m-278.28,405.94,249.15-75.79m-249.15,75.79L-873.91,1601M-92.34,182.14l-213.91,38.8m0,0,127.53-118.71M-306.25,220.94l43.41-118.71m62.65,316.59-187.91,8.35m0,0,295.76-245m-295.76,245,81.85-206.23M-304.46,634l-165.88-16.2m0,0,270.15-199m-270.15,199,82.24-190.64m-20,407.54-146.78-36.79m0,0L-304.46,634M-554.87,797.92l84.53-180.11m-43.5,408.85-129.77-54.82m0,0,235.52-137.13M-643.61,971.84l88.74-173.92M-624.5,1215l-114.23-71.37m0,0,224.89-116.94M-738.73,1143.6l95.12-171.76m-99.63,432.79-99.55-87.38m0,0L-624.5,1215m-218.29,102.28,104.06-173.65M-873.91,1601l-85.17-103.81m0,0,215.84-92.6m-215.84,92.6,116.29-180m-249.14,371.64,218-87.85m-218,87.85,132.85-191.66M-306.25,220.94l-168.92,36.52m0,0,148-155.23m-148,155.23,48.8-155.23m38.27,324.94L-539,439.79m0,0,232.75-218.85M-539,439.79l63.83-182.33m4.83,360.35-135.14-7.22m0,0L-388.1,427.17M-605.48,610.59-539,439.79m-15.87,358.13-121-24.27m0,0,205.57-155.84M-675.91,773.65l70.43-163.06m-38.13,361.25-108.17-39.46m0,0,196.91-134.46M-751.78,932.38l75.87-158.73m-62.82,369.95-96.1-53.57m0,0,191.22-118.19M-834.83,1090l83.05-157.65m-91,384.87-84.46-67.3m0,0,188.52-106.35M-927.25,1250-834.83,1090m-124.25,407.2-72.81-81.34m0,0,189.1-98.64m-189.1,98.64L-927.25,1250m-225.36,342.43,193.53-95.15m-193.53,95.15,120.72-176.49M-525.84,102.23l-38.91,14.88m0,0,11.44-14.88m-11.44,14.88,3.52-14.88m86.06,155.23-137.29,34.87m0,0,162.68-190.1m-162.68,190.1,47.71-175.22M-539,439.79l-124.3,15.64m0,0,188.13-198m-188.13,198,50.84-163.1m7,318.26-112.62-.71m0,0L-539,439.79M-718.1,609.88l54.8-154.45m-12.61,318.22-101.92-15m0,0,172.35-148m-172.35,148,59.73-148.75m-33.68,322.5-91.9-28m0,0,167.77-130.77M-843.68,904.42l65.85-145.79m-57,331.4-82.3-40.09m0,0,165.35-117.56m-165.35,117.56,73.45-145.52M-927.25,1250l-72.87-51.94m0,0,165.29-108m-165.29,108,83-148.07m-114.76,366-63.28-64.06"/></g></g><rect class="cls-4" x="79.5" y="61.13" width="122.67" height="14.61"/><rect class="cls-4" x="78.96" y="82.08" width="122.67" height="14.61"/><rect class="cls-4" x="78.96" y="103.04" width="122.67" height="14.61"/><polygon class="cls-4" points="223.31 35.49 223.31 52.47 232.83 48.18 223.31 35.49"/><rect class="cls-5" x="6.32" y="4.48" width="237.36" height="161.22"/><line class="cls-5" x1="6.32" y1="13.81" x2="243.68" y2="13.81"/><path class="cls-4" d="M6.32,4.48v9.33H243.68V4.48ZM223.43,11.9a2.73,2.73,0,1,1,2.73-2.73A2.73,2.73,0,0,1,223.43,11.9Zm7.4,0a2.73,2.73,0,1,1,2.73-2.73A2.73,2.73,0,0,1,230.83,11.9Zm7.4,0A2.73,2.73,0,1,1,241,9.17,2.73,2.73,0,0,1,238.23,11.9Z"/><rect class="cls-4" x="150.1" y="127.17" width="51.53" height="15.88"/><line class="cls-6" x1="47.22" y1="68.43" x2="69.44" y2="68.43"/><line class="cls-6" x1="47.22" y1="89.39" x2="69.44" y2="89.39"/><line class="cls-6" x1="47.22" y1="110.34" x2="69.44" y2="110.34"/><circle class="cls-7" cx="121.26" cy="247.66" r="26.31"/><text class="cls-8" transform="translate(112.67 261.72)">1</text></svg>