<svg width="14" height="14" viewBox="0 0 14 14" fill="none" xmlns="http://www.w3.org/2000/svg">
<path d="M12.3018 6.18408L12.9463 6.82861C13.21 7.12158 13.21 7.56104 12.9463 7.82471L7.26269 13.5376C6.96973 13.8013 6.53027 13.8013 6.2666 13.5376L0.553711 7.82471C0.290039 7.56103 0.290039 7.12158 0.553711 6.82861L1.19824 6.18408C1.49121 5.92041 1.93066 5.92041 2.22363 6.18408L5.59277 9.729L5.59277 1.3208C5.59277 0.910644 5.88574 0.617675 6.2959 0.617675L7.2334 0.617675C7.61426 0.617675 7.93652 0.910644 7.93652 1.3208L7.93652 9.729L11.2764 6.18408C11.5693 5.92041 12.0088 5.89111 12.3018 6.18408Z" fill="white"/>
</svg>
