<svg id="Layer_1" data-name="Layer 1" xmlns="http://www.w3.org/2000/svg" xmlns:xlink="http://www.w3.org/1999/xlink" viewBox="0 0 250 280"><defs><style>.cls-1,.cls-5,.cls-6{fill:none;}.cls-2{clip-path:url(#clip-path);}.cls-3{opacity:0.22;}.cls-4,.cls-7{fill:#fff;}.cls-5,.cls-6{stroke:#fff;stroke-miterlimit:10;}.cls-5{stroke-width:2px;}.cls-6{stroke-width:2.7px;}.cls-7{font-size:40px;font-family:FiraSans-Book, Fira Sans;}</style><clipPath id="clip-path"><rect class="cls-1" x="-2754.39" y="587.27" width="1920" height="1382.14"/></clipPath></defs><g class="cls-2"><g class="cls-3"><path class="cls-4" d="M-1827.12,1579.19l-1.6,3m0,0-11.52,22.64m0,0-11.12,23.33m0,0-10.73,24m0,0-10.35,24.75m0,0-10,25.48m0,0-9.59,26.22m0,0-9.21,27m0,0-8.84,27.74m0,0-8.47,28.54m0,0-8.09,29.36m0,0-7.72,30.19m0,0-7.34,31m0,0-7,31.94m0,0-6.57,32.85m0,0-6.18,33.8m0,0-5.79,34.78m0,0-3.53,23.57m-124.57-338.71.09-.08M276.7,2025.24l-38.38,34.15m38.38-730.77-130.87-57.9m0,0,130.87-12.44m-130.87,12.44L276.7,1136.48m0,720.08-423.28-274.7m0,0,423.28-4.76m-423.28,4.76,292.41-311.14m-349.49,788.67L-410.31,1874m0,0,687,46.27m-687-46.27,263.73-292.18m-424.11,477.53L-410.31,1874m687-1420.35-72.36-5.49m0,0,72.36-27.8m-72.36,27.8,72.36-91.66m0,514.05L-64.16,789.68m0,0L276.7,688.8M-64.16,789.68,204.34,448.2m-58.51,822.52-443.14-183.15m0,0,574-122.19m-574,122.19L-64.16,789.68m-82.42,792.18-362.48-222.35m0,0,654.89-88.79m-654.89,88.79,211.75-271.94m-113,786.47-299.42-255.39m0,0,563.15-36.79m-563.15,36.79,200.67-259.14m-240.72,699.88L-908,1876.13m0,0,497.69-2.09M-908,1876.13l198.27-257.48m-338.6,440.74L-908,1876.13M204.34,448.2l-458.73-23.81m0,0L276.7,161.66M-254.39,424.39-49.17,102.23m-15,687.45-376.19-78.52m0,0,644.69-263m-644.69,263,186-286.77m-42.92,663.18L-610.72,968.75m0,0L-64.16,789.68M-610.72,968.75l170.37-257.59m-68.71,648.35-263.67-150.94m0,0,475.42-121m-475.42,121,162-239.82m-99,649.9-222.69-178.86m0,0,423.36-80.28m-423.36,80.28,159.69-231.22M-908,1876.13l-187.46-205.46m0,0,385.73-52m-385.73,52,163-230.88M-1168,2059.39l-100-149.8m0,0L-908,1876.13m-359.92,33.46,172.46-238.92m-282.87,388.72,110.41-149.8M-120.76,102.23l-310,37.8m0,0,54-37.8m-54,37.8,19.4-37.8m157,322.16-323.7-7.65m0,0L-58.77,102.23M-578.09,416.74-430.78,140m-9.57,571.13L-714.48,663m0,0,460.09-238.63M-714.48,663l136.39-246.28m-32.63,552L-845,889m0,0,404.69-177.84M-845,889l130.56-226m-58.25,545.55-201.26-106m0,0,363.27-133.82M-974,1102.57-845,889m-87.38,550.79-172.86-129.33m0,0,332.55-101.89m-332.55,101.89L-974,1102.57m-121.47,568.1L-1243,1519m0,0,310.58-79.19M-1243,1519l137.72-208.52m-162.64,599.13-123.92-174.81m0,0,296.38-64.11m-296.38,64.11L-1243,1519m-314.76,446.66,289.84-56.05m-289.84,56.05,165.92-230.86M-430.78,140l-281,42.11m0,0,98.09-79.91m-98.09,79.91,34.36-79.91m99.37,314.51-241.58,2.08m0,0L-430.78,140M-819.67,418.82l107.85-236.68M-714.48,663l-209.45-29m0,0,345.84-217.27M-923.93,634l104.26-215.19M-845,889l-182.53-54.29m0,0L-714.48,663m-313.09,171.69L-923.93,634M-974,1102.57l-159.32-75.91m0,0L-845,889m-288.27,137.66,105.74-192m-77.71,475.75L-1244,1215m0,0,270-112.4M-1244,1215l110.67-188.31M-1243,1519l-119.72-114.35m0,0,257.44-94.17m-257.44,94.17L-1244,1215m-147.86,519.81L-1493.39,1601m0,0L-1243,1519M-1493.39,1601l130.67-196.41M-1641,1810.57l249.16-75.79M-1641,1810.57-1493.39,1601m781.57-1418.9-213.91,38.8m0,0L-798.2,102.23M-925.73,220.94l43.41-118.71m62.65,316.59-187.9,8.35m0,0,295.75-245m-295.75,245,81.84-206.23m1.8,413.07-165.89-16.2m0,0,270.15-199m-270.15,199,82.25-190.64m-20,407.54-146.77-36.79m0,0L-923.93,634m-250.41,163.91,84.52-180.11m-43.49,408.85-129.78-54.82m0,0,235.52-137.13m-235.52,137.13,88.75-173.92M-1244,1215l-114.22-71.37m0,0,224.89-116.94M-1358.2,1143.6l95.11-171.76m-99.63,432.79-99.55-87.38m0,0L-1244,1215m-218.29,102.28,104.07-173.65M-1493.39,1601l-85.16-103.81m0,0,215.83-92.6m-215.83,92.6,116.28-180m-249.13,371.64,218-87.85m-218,87.85,132.85-191.66M-925.73,220.94l-168.92,36.52m0,0,148-155.23m-148,155.23,48.8-155.23m38.28,324.94-150.9,12.62m0,0,232.74-218.85m-232.74,218.85,63.82-182.33m4.83,360.35-135.13-7.22m0,0,217.38-183.42m-217.38,183.42,66.48-170.8m-15.87,358.13-121.05-24.27m0,0,205.57-155.84m-205.57,155.84,70.44-163.06m-38.14,361.25-108.17-39.46m0,0,196.92-134.46m-196.92,134.46,75.87-158.73m-62.81,369.95-96.11-53.57m0,0,191.22-118.19M-1454.31,1090l83-157.65m-91,384.87-84.46-67.3m0,0,188.53-106.35M-1546.73,1250l92.42-159.92m-124.24,407.2-72.82-81.34m0,0,189.1-98.64m-189.1,98.64L-1546.73,1250m-225.36,342.43,193.54-95.15m-193.54,95.15,120.72-176.49m506.05-1313.66-38.91,14.88m0,0,11.45-14.88m-11.45,14.88,3.52-14.88m86.06,155.23-137.29,34.87m0,0,162.69-190.1m-162.69,190.1,47.71-175.22m25.76,322.68-124.31,15.64m0,0,188.13-198m-188.13,198,50.84-163.1m7,318.26-112.62-.71m0,0,179.1-170.09m-179.1,170.09,54.79-154.45m-12.61,318.22-101.92-15m0,0,172.36-148m-172.36,148,59.74-148.75m-33.69,322.5-91.89-28m0,0,167.76-130.77m-167.76,130.77,65.84-145.79m-57,331.4-82.3-40.09m0,0,165.35-117.56m-165.35,117.56,73.46-145.52M-1546.73,1250l-72.86-51.94m0,0,165.28-108m-165.28,108,83-148.07m-114.76,366-63.28-64.06"/></g></g><rect class="cls-5" x="6.32" y="4.98" width="237.36" height="161.22"/><path class="cls-5" d="M6.32,5v9.33H243.68V5ZM98.07,59.72l32.47-16.24,32.15,16.07L130.14,75.83Zm64.62,61.85-32.55,16.27L98.07,121.73m32.07-45.9v62m32.55-78.29v62M98.07,59.72v62m67.16-67.05,5.63,5.64,14.69-14.7M168.4,119.86l5.63,5.63,14.7-14.69M78.49,114.91,91.8,128.22m-13.31,0L91.8,114.91"/><path class="cls-4" d="M6.32,5v9.33H243.68V5ZM223.43,12.4a2.73,2.73,0,1,1,2.73-2.73A2.73,2.73,0,0,1,223.43,12.4Zm7.4,0a2.73,2.73,0,1,1,2.73-2.73A2.73,2.73,0,0,1,230.83,12.4Zm7.4,0A2.73,2.73,0,1,1,241,9.67,2.73,2.73,0,0,1,238.23,12.4Z"/><circle class="cls-6" cx="125" cy="248.16" r="26.31"/><text class="cls-7" transform="translate(115.05 261.22)">3</text></svg>