<svg id="Layer_1" data-name="Layer 1" xmlns="http://www.w3.org/2000/svg" viewBox="0 0 250 280"><defs><style>.cls-1,.cls-2{fill:none;stroke:#fff;stroke-miterlimit:10;}.cls-1{stroke-width:2px;}.cls-2{stroke-width:2.7px;}.cls-3{font-size:40px;fill:#fff;font-family:FiraSans-Book, Fira Sans;}</style></defs><path class="cls-1" d="M232.4,117.69a19.75,19.75,0,0,0-2.37-3.4H214.48l-3.83-2.67h16.6c-4.46-3.56-11.5-6.28-22.61-6.28H74.25L51.35,79.75h-19l14.74,33.42v8.51a6,6,0,0,0,6,6H131L85.68,141a1.57,1.57,0,0,0-.09,3c8.28,2.78,11.36,7.47,33,3l49.55-19.26s34.08.23,58.35.08A6.8,6.8,0,0,0,232.4,117.69ZM83.67,114.51a1.65,1.65,0,0,1-3.29,0v-1.25a1.65,1.65,0,0,1,3.29,0Zm5.69,0a1.65,1.65,0,0,1-3.29,0v-1.25a1.65,1.65,0,0,1,3.29,0Zm5.69,0a1.65,1.65,0,0,1-3.29,0v-1.25a1.65,1.65,0,0,1,3.29,0Zm5.69,0a1.65,1.65,0,0,1-3.29,0v-1.25a1.65,1.65,0,0,1,3.29,0Zm5.69,0a1.64,1.64,0,0,1-3.28,0v-1.25a1.64,1.64,0,0,1,3.28,0Zm5.7,0a1.65,1.65,0,0,1-3.29,0v-1.25a1.65,1.65,0,0,1,3.29,0Zm11.38,0a1.65,1.65,0,0,1-3.29,0v-1.25a1.65,1.65,0,0,1,3.29,0Zm5.69,0a1.65,1.65,0,0,1-3.29,0v-1.25a1.65,1.65,0,0,1,3.29,0Zm5.69,0a1.65,1.65,0,0,1-3.29,0v-1.25a1.65,1.65,0,0,1,3.29,0Zm5.69,0a1.64,1.64,0,0,1-3.28,0v-1.25a1.64,1.64,0,0,1,3.28,0Zm5.7,0a1.65,1.65,0,0,1-3.29,0v-1.25a1.65,1.65,0,0,1,3.29,0Zm5.69,0a1.65,1.65,0,0,1-3.29,0v-1.25a1.65,1.65,0,0,1,3.29,0Zm5.69,0a1.65,1.65,0,0,1-3.29,0v-1.25a1.65,1.65,0,0,1,3.29,0Zm5.69,0a1.65,1.65,0,0,1-3.29,0v-1.25a1.65,1.65,0,0,1,3.29,0Zm5.69,0a1.65,1.65,0,0,1-3.29,0v-1.25a1.65,1.65,0,0,1,3.29,0Zm11.39,0a1.65,1.65,0,0,1-3.29,0v-1.25a1.65,1.65,0,0,1,3.29,0Zm5.69,0a1.65,1.65,0,0,1-3.29,0v-1.25a1.65,1.65,0,0,1,3.29,0Zm5.69,0a1.65,1.65,0,0,1-3.29,0v-1.25a1.65,1.65,0,0,1,3.29,0Zm5.69,0a1.65,1.65,0,0,1-3.29,0v-1.25a1.65,1.65,0,0,1,3.29,0Z"/><path class="cls-1" d="M219.09,59.5a10.87,10.87,0,0,0-20.42-5.19,9.46,9.46,0,0,0-13.31,5.3,11.92,11.92,0,0,0-17.38-3,7.95,7.95,0,0,0-9.8-4.69,16,16,0,1,0-14.05,28.8,10.24,10.24,0,0,0-.1,1.36,10.78,10.78,0,0,0,20.53,4.63,13.07,13.07,0,0,0,3.15.4,12.81,12.81,0,0,0,4.48-.82,14.07,14.07,0,0,0,21.89-1.18,12.75,12.75,0,0,0,19.64-16.26A10.85,10.85,0,0,0,219.09,59.5Z"/><path class="cls-1" d="M101.28,17.9a11,11,0,0,0-4,.75,9.47,9.47,0,0,0-17.35,1,14.1,14.1,0,0,0-11.2-1.11,10.77,10.77,0,0,0-19.53,2.66,7.93,7.93,0,0,0-14.41,4.59c0,.05,0,.1,0,.15a15.76,15.76,0,0,0-2.07-.15,16,16,0,1,0,12,26.59A12.85,12.85,0,0,0,59.36,49.3a11.95,11.95,0,0,0,22.39,1.5,12.75,12.75,0,0,0,18.93-11.16v0l.6,0a10.87,10.87,0,1,0,0-21.74Z"/><circle class="cls-2" cx="132.8" cy="239.69" r="26.31"/><text class="cls-3" transform="translate(122.19 252.75)">4</text></svg>