<svg width="37" height="37" viewBox="0 0 37 37" fill="none" xmlns="http://www.w3.org/2000/svg">
<g clip-path="url(#clip0_195_185)">
<path d="M25.5127 13.5413C26.1006 12.4052 26.3862 11.137 26.342 9.85856C26.2978 8.58016 25.9254 7.33465 25.2605 6.24188C24.5955 5.14912 23.6605 4.24588 22.5455 3.6191C21.4304 2.99232 20.1728 2.66309 18.8936 2.66309C17.6144 2.66309 16.3568 2.99232 15.2417 3.6191C14.1266 4.24588 13.1917 5.14912 12.5267 6.24188C11.8618 7.33465 11.4893 8.58016 11.4452 9.85856C11.401 11.137 11.6866 12.4052 12.2745 13.5413L6.04675 21.9182L11.0206 28.5858H12.942V18.1146H24.8687V28.5858H26.7902L31.764 21.9182L25.5127 13.5413ZM12.3609 17.5256V27.9967H11.2954L6.75356 21.8973L12.5834 14.0753C12.8804 14.5508 13.2318 14.99 13.6305 15.3842C14.8285 16.5803 16.398 17.3328 18.0808 17.5177L12.3609 17.5256ZM18.6069 14.9889V16.9941C17.27 16.9401 15.9778 16.4977 14.8883 15.721C13.7988 14.9443 12.9592 13.867 12.4722 12.6207C11.9852 11.3745 11.8719 10.0133 12.1462 8.70371C12.4205 7.39409 13.0704 6.19278 14.0165 5.24665C14.9626 4.30053 16.164 3.65059 17.4736 3.37633C18.7832 3.10206 20.1443 3.21535 21.3906 3.70233C22.6368 4.18932 23.7142 5.0289 24.4909 6.11841C25.2676 7.20792 25.71 8.50015 25.764 9.83708H23.7588V9.74284C23.7492 9.59455 23.7318 9.44687 23.7064 9.30044C23.5564 8.41787 23.1665 7.59358 22.5793 6.91779C21.9922 6.24201 21.2305 5.74077 20.3775 5.46894C19.5245 5.19711 18.6132 5.16517 17.7433 5.37661C16.8734 5.58805 16.0785 6.03473 15.4455 6.66775C14.8124 7.30077 14.3658 8.09573 14.1543 8.96563C13.9429 9.83552 13.9748 10.7468 14.2467 11.5998C14.5185 12.4527 15.0197 13.2145 15.6955 13.8016C16.3713 14.3888 17.1956 14.7787 18.0781 14.9287C18.2247 14.9523 18.3687 14.9732 18.5179 14.9837H18.6148L18.6069 14.9889ZM17.8949 9.12504C18.1249 8.89622 18.4272 8.7542 18.7502 8.72315C19.0731 8.6921 19.3969 8.77394 19.6663 8.95474C19.9357 9.13555 20.1342 9.40413 20.2278 9.71479C20.3215 10.0254 20.3046 10.3589 20.18 10.6585C20.0555 10.9581 19.8309 11.2053 19.5446 11.358C19.2583 11.5106 18.9279 11.5594 18.6097 11.4958C18.2916 11.4323 18.0052 11.2605 17.7995 11.0096C17.5937 10.7587 17.4813 10.4443 17.4813 10.1198C17.4817 9.93451 17.5189 9.75114 17.5908 9.58037C17.6627 9.4096 17.7679 9.25482 17.9001 9.12504H17.8949ZM16.942 9.83708H14.586C14.6516 8.79075 15.0968 7.80432 15.8381 7.063C16.5794 6.32168 17.5658 5.87646 18.6122 5.81091V8.16693C18.1905 8.22247 17.7989 8.41541 17.498 8.7159C17.197 9.01639 17.0035 9.40767 16.9473 9.82923L16.942 9.83708ZM19.1672 14.4496H19.0886H18.8792H18.6672H18.5546C18.4239 14.4406 18.2937 14.4248 18.1645 14.4025C17.2056 14.24 16.3308 13.7554 15.6845 13.0286C15.0382 12.3019 14.659 11.3765 14.6096 10.4051H16.9473C16.9925 10.714 17.1104 11.0077 17.2912 11.2621C17.4721 11.5165 17.7108 11.7242 17.9877 11.8683C18.2646 12.0124 18.5718 12.0887 18.8839 12.0909C19.196 12.0931 19.5042 12.0211 19.7831 11.8809C20.062 11.7407 20.3036 11.5363 20.488 11.2844C20.6724 11.0326 20.7944 10.7406 20.8439 10.4324C20.8934 10.1242 20.8691 9.80867 20.7728 9.51175C20.6765 9.21483 20.5111 8.94502 20.2902 8.72452C19.9871 8.42059 19.5925 8.22468 19.1672 8.16693V5.83709C20.0434 5.88597 20.8829 6.20514 21.5703 6.7507C22.4031 7.40831 22.9627 8.35122 23.141 9.39729C23.1646 9.52624 23.1803 9.6565 23.1881 9.78735V9.89991V10.112V10.3214V10.3737C23.1881 10.3947 23.1881 10.4104 23.2116 10.4051H25.7431C25.6766 12.1292 24.9629 13.7649 23.7441 14.9861C22.5253 16.2073 20.8911 16.9243 19.1672 16.9941V14.4627C19.1672 14.4627 19.1802 14.4496 19.1672 14.4496ZM26.497 28.0151H25.4289V17.5439H19.7247C21.4078 17.3602 22.9778 16.6075 24.175 15.4104C24.5744 15.0168 24.9258 14.5775 25.2221 14.1015L31.052 21.9339L26.497 28.0151Z" fill="#FF931E"/>
<path d="M21.073 18.9128H16.7144V20.9312H14.9526V32.5673H22.8321V20.9312H21.073V18.9128ZM17.2798 19.4783H20.5075V20.9312H17.2798V19.4783ZM22.2693 30.0228H17.4866V23.0882H22.2693V30.0228ZM22.2693 21.4992V22.5123H16.9185V30.5908H22.2693V32.0018H15.518V21.4992H22.2693Z" fill="#FF931E"/>
</g>
<defs>
<clipPath id="clip0_195_185">
<rect width="36.0947" height="36.0947" fill="white" transform="translate(0.87085 0.858215)"/>
</clipPath>
</defs>
</svg>
