<svg width="37" height="37" viewBox="0 0 37 37" fill="none" xmlns="http://www.w3.org/2000/svg">
<g clip-path="url(#clip0_195_133)">
<path d="M33.1169 20.9325C33.0313 20.3596 32.8142 19.8143 32.4824 19.3395C32.1565 18.8768 31.7589 18.4692 31.3044 18.132C30.8603 17.8004 30.384 17.5143 29.8827 17.2779C29.6337 17.1601 29.3794 17.0504 29.125 16.954C28.9939 16.9058 28.8573 16.8576 28.7368 16.8148L28.4691 16.7318L28.3245 16.3837C28.2522 16.2258 28.1799 16.0678 28.0996 15.9152C27.9446 15.6046 27.773 15.3025 27.5856 15.0103C27.2131 14.4232 26.7836 13.8743 26.3032 13.3717C25.3391 12.3754 24.2152 11.5474 22.9779 10.922C20.5148 9.66365 17.7866 9.08 15.0718 8.85778C13.7097 8.74937 12.3415 8.74132 10.9782 8.83368C10.2464 8.85969 9.53556 9.08461 8.92202 9.48427C8.32776 9.90895 7.86409 10.4913 7.58336 11.1656C7.31184 11.8097 7.11772 12.4838 7.00506 13.1736C6.87387 13.8403 6.80694 14.5364 6.62488 15.1227C6.59208 15.2443 6.53366 15.3575 6.45353 15.4547C6.37857 15.5136 6.42141 15.4948 6.14564 15.5163C5.73801 15.5742 5.36714 15.7836 5.10684 16.1026C4.87263 16.3896 4.69132 16.7159 4.57138 17.0664C4.50896 17.234 4.45534 17.4047 4.41074 17.5778C4.36383 17.7584 4.32806 17.9417 4.30365 18.1266V20.5148C4.30365 20.9164 4.29026 21.2859 4.30365 21.7196C4.33745 22.1394 4.4275 22.5527 4.57138 22.9485C4.85559 23.7276 5.2925 24.4421 5.85649 25.0502C6.13173 25.3544 6.42978 25.6373 6.74804 25.8962L6.99435 26.0863C7.07199 26.1425 7.14963 26.2121 7.26208 26.1934H7.744C7.81491 26.946 8.16401 27.645 8.72303 28.1539C9.28205 28.6627 10.0108 28.9447 10.7667 28.9447C11.5226 28.9447 12.2513 28.6627 12.8104 28.1539C13.3694 27.645 13.7185 26.946 13.7894 26.1934H24.6325C24.7 26.9481 25.0475 27.6503 25.6066 28.1617C26.1658 28.6731 26.8961 28.9567 27.6539 28.9567C28.4116 28.9567 29.1419 28.6731 29.7011 28.1617C30.2602 27.6503 30.6077 26.9481 30.6752 26.1934H31.2267C31.5622 26.1696 31.8782 26.0273 32.1183 25.7918C32.515 25.3527 32.7828 24.8125 32.892 24.2309C33.0168 23.6934 33.0947 23.1461 33.1249 22.5951C33.1437 22.3274 33.149 22.0596 33.1544 21.7919C33.1663 21.5049 33.1537 21.2174 33.1169 20.9325ZM12.5123 27.6659C12.1677 28.0126 11.7279 28.2492 11.2486 28.3456C10.7694 28.4421 10.2723 28.3941 9.82037 28.2077C9.36845 28.0213 8.98205 27.7049 8.71016 27.2986C8.43827 26.8924 8.29312 26.4145 8.29312 25.9257C8.29312 25.4368 8.43827 24.959 8.71016 24.5527C8.98205 24.1465 9.36845 23.8301 9.82037 23.6437C10.2723 23.4573 10.7694 23.4093 11.2486 23.5057C11.7279 23.6021 12.1677 23.8387 12.5123 24.1854C12.9733 24.6472 13.2323 25.2731 13.2323 25.9257C13.2323 26.5782 12.9733 27.2041 12.5123 27.6659ZM29.4008 27.6659C28.9969 28.0699 28.4655 28.3212 27.897 28.3772C27.3285 28.4331 26.7583 28.2902 26.2834 27.9728C25.8085 27.6553 25.4584 27.183 25.2928 26.6364C25.1271 26.0897 25.1562 25.5025 25.375 24.9749C25.5939 24.4472 25.9889 24.0118 26.4928 23.7429C26.9968 23.4739 27.5784 23.388 28.1385 23.4999C28.6987 23.6117 29.2027 23.9143 29.5647 24.3562C29.9267 24.7981 30.1242 25.3518 30.1237 25.923C30.1233 26.5768 29.8633 27.2038 29.4008 27.6659ZM32.56 22.579C32.5326 23.0965 32.461 23.6106 32.3459 24.1158C32.2579 24.5916 32.0444 25.0353 31.7274 25.4009C31.585 25.5458 31.3945 25.6334 31.1919 25.6472H30.6752C30.6077 24.8925 30.2602 24.1903 29.7011 23.6789C29.1419 23.1675 28.4116 22.8839 27.6539 22.8839C26.8961 22.8839 26.1658 23.1675 25.6066 23.6789C25.0475 24.1903 24.7 24.8925 24.6325 25.6472H13.7894C13.7185 24.8946 13.3694 24.1956 12.8104 23.6868C12.2513 23.1779 11.5226 22.8959 10.7667 22.8959C10.0108 22.8959 9.28205 23.1779 8.72303 23.6868C8.16401 24.1956 7.81491 24.8946 7.744 25.6472H7.31563C7.23799 25.5937 7.1657 25.5348 7.09073 25.4759C6.79543 25.2367 6.51968 24.9744 6.26612 24.6914C5.75181 24.1387 5.35312 23.4888 5.09346 22.7798C4.97023 22.4344 4.89282 22.0744 4.86321 21.7089C4.84447 21.3528 4.86321 20.9298 4.86321 20.5443V18.1641C4.93957 17.5512 5.17289 16.9684 5.54057 16.4721C5.70985 16.2589 5.95396 16.1181 6.22328 16.0785C6.29289 16.0785 6.33038 16.0785 6.49101 16.0517C6.62691 16.0224 6.75147 15.9546 6.84978 15.8563C6.9932 15.698 7.09933 15.5095 7.16034 15.3048C7.32992 14.636 7.46309 13.9585 7.55926 13.2753C7.66313 12.6317 7.84287 12.0026 8.09473 11.4012C8.33592 10.8212 8.73473 10.3204 9.24597 9.95548C9.7749 9.6141 10.3865 9.42256 11.0157 9.40127C12.3531 9.31131 13.6954 9.31936 15.0317 9.42537C17.6929 9.64223 20.3568 10.2286 22.7236 11.4307C23.9059 12.0259 24.9801 12.815 25.9016 13.7653C26.3559 14.2418 26.7622 14.7619 27.1144 15.3181C27.2911 15.5859 27.4517 15.8804 27.6016 16.1749C27.6766 16.3221 27.7462 16.4694 27.8132 16.6193L27.9122 16.8469L28.0568 17.2083C28.3781 17.2913 28.4236 17.3127 28.5628 17.3556C28.702 17.3984 28.8064 17.4413 28.9296 17.4868C29.1706 17.5778 29.4115 17.6795 29.6444 17.792C30.1162 18.0147 30.5646 18.2837 30.9831 18.5952C31.7863 19.2056 32.4476 20.049 32.5895 21.0289C32.6245 21.5383 32.6146 22.0499 32.56 22.5576V22.579Z" fill="#FF931E"/>
<path d="M20.4131 13.2084L20.1668 13.7037C21.3337 14.2933 22.2312 15.3066 22.6754 16.5363H17.4011L20.8816 11.2486L13.0451 18.6005H17.2217L13.6823 24.0114L22.7102 16.6595C23.0142 17.5804 23.0486 18.5691 22.8093 19.5089C22.5701 20.4488 22.0671 21.3007 21.3597 21.9642C20.6523 22.6276 19.77 23.0751 18.8168 23.2537C17.8636 23.4324 16.8791 23.3348 15.9795 22.9726L15.768 23.508C17.1338 24.124 18.6884 24.1722 20.0897 23.642C21.491 23.1118 22.6244 22.0466 23.2404 20.6808C23.8563 19.315 23.9045 17.7604 23.3743 16.359C22.8441 14.9577 21.7789 13.8244 20.4131 13.2084ZM16.1508 21.2832L18.2605 18.0276H14.4721L17.7786 14.9379L16.3516 17.1012H21.2752L16.1508 21.2832Z" fill="#FF931E"/>
<path d="M14.1669 21.7248C13.4885 21.0015 13.0379 20.0947 12.8711 19.1171C12.7455 18.387 12.781 17.6382 12.975 16.9232C13.1689 16.2081 13.5168 15.5441 13.9941 14.9775C14.4715 14.4109 15.0668 13.9554 15.7385 13.6429C16.4103 13.3304 17.1421 13.1683 17.883 13.1681V12.6059C16.7823 12.6072 15.7059 12.9292 14.7853 13.5326C13.8648 14.136 13.14 14.9946 12.6997 16.0034C12.2616 17.0125 12.1268 18.1274 12.3118 19.2119C12.4967 20.2963 12.9934 21.3035 13.7412 22.1104L14.1669 21.7248Z" fill="#FF931E"/>
</g>
<defs>
<clipPath id="clip0_195_133">
<rect width="36.0947" height="36.0947" fill="white" transform="translate(0.673492 0.858276)"/>
</clipPath>
</defs>
</svg>
