<svg width="37" height="37" viewBox="0 0 37 37" fill="none" xmlns="http://www.w3.org/2000/svg">
<g clip-path="url(#clip0_195_236)">
<path d="M35.0146 21.2749C34.917 20.619 34.6672 19.9947 34.285 19.4516C33.9104 18.9221 33.4531 18.4556 32.9306 18.0697C32.4207 17.6891 31.873 17.3615 31.296 17.0922C31.0097 16.9573 30.7203 16.8317 30.4248 16.7214C30.277 16.6632 30.117 16.6111 29.9785 16.562L29.6706 16.4671L29.5013 16.0687C29.4213 15.8879 29.3382 15.7071 29.2458 15.5294C29.0673 15.177 28.8702 14.8307 28.6548 14.4937C28.2265 13.8227 27.7326 13.1955 27.1802 12.6214C26.0718 11.4811 24.7795 10.5334 23.3569 9.81761C20.5279 8.3774 17.388 7.7094 14.2666 7.45506C12.7004 7.33303 11.1275 7.32279 9.55982 7.42442C8.7187 7.45571 7.90177 7.71301 7.19566 8.16904C6.51307 8.65711 5.98019 9.32441 5.65649 10.0965C5.34383 10.8335 5.12061 11.605 4.99157 12.3947C4.88431 13.1452 4.73841 13.8898 4.55444 14.6254C4.51603 14.7644 4.44893 14.8938 4.35743 15.0054C4.27431 15.0728 4.32357 15.0483 4.00342 15.0759C3.53528 15.1417 3.10903 15.3801 2.80902 15.7439C2.54203 16.075 2.33381 16.4492 2.19335 16.8501C2.12071 17.0415 2.05905 17.2369 2.00865 17.4354C1.95586 17.6423 1.91475 17.852 1.88552 18.0635V20.7969C1.88552 21.2534 1.87013 21.6794 1.90091 22.1727C1.93407 22.6525 2.03244 23.1257 2.19335 23.5792C2.52217 24.4706 3.02546 25.2883 3.67404 25.9847C3.9897 26.3337 4.33245 26.6574 4.69912 26.953C4.79147 27.0296 4.88382 27.1 4.98233 27.1705C5.08084 27.241 5.16087 27.3176 5.29016 27.2931H5.87505C5.95654 28.1537 6.35759 28.953 6.99977 29.5348C7.64195 30.1167 8.47907 30.4391 9.34742 30.4391C10.2158 30.4391 11.0529 30.1167 11.6951 29.5348C12.3372 28.953 12.7383 28.1537 12.8198 27.2931H25.2901C25.3677 28.1569 25.7673 28.9606 26.4102 29.5459C27.0531 30.1312 27.8928 30.4558 28.764 30.4558C29.6353 30.4558 30.475 30.1312 31.1179 29.5459C31.7608 28.9606 32.1604 28.1569 32.238 27.2931H32.8721C33.2578 27.2659 33.6211 27.1029 33.8972 26.8335C34.3529 26.3317 34.6607 25.7147 34.7868 25.0501C34.931 24.434 35.0196 23.8064 35.0516 23.1747C35.0762 22.8683 35.0823 22.5619 35.0885 22.2554C35.0919 21.9271 35.0672 21.599 35.0146 21.2749ZM11.3237 28.9815C10.8592 29.4444 10.2477 29.7327 9.5936 29.7972C8.93948 29.8617 8.28313 29.6984 7.73637 29.3352C7.18961 28.972 6.78628 28.4313 6.59509 27.8053C6.4039 27.1792 6.43668 26.5066 6.68785 25.9019C6.93901 25.2973 7.39302 24.798 7.97253 24.4891C8.55203 24.1803 9.22118 24.0811 9.86596 24.2083C10.5107 24.3355 11.0913 24.6813 11.5086 25.1868C11.926 25.6923 12.1544 26.3262 12.1549 26.9805C12.1547 27.7307 11.8559 28.4503 11.3237 28.9815ZM30.7419 28.9815C30.2774 29.4421 29.6669 29.7282 29.0143 29.7911C28.3618 29.8541 27.7074 29.6899 27.1628 29.3266C26.6181 28.9634 26.2168 28.4234 26.0271 27.7987C25.8374 27.174 25.871 26.5031 26.1224 25.9003C26.3737 25.2976 26.8271 24.8001 27.4054 24.4927C27.9837 24.1852 28.6512 24.0868 29.2942 24.2142C29.9373 24.3415 30.5161 24.6868 30.9321 25.1912C31.3482 25.6956 31.5757 26.3279 31.5761 26.9805C31.5742 27.731 31.2743 28.4502 30.7419 28.9815ZM34.3743 23.1594C34.3443 23.7518 34.2619 24.3403 34.1281 24.9183C34.0276 25.4622 33.782 25.9692 33.417 26.3861C33.2539 26.5532 33.0347 26.6547 32.8013 26.671H32.2072C32.1296 25.8072 31.73 25.0036 31.0871 24.4183C30.4442 23.833 29.6045 23.5084 28.7333 23.5084C27.862 23.5084 27.0223 23.833 26.3794 24.4183C25.7365 25.0036 25.3369 25.8072 25.2594 26.671H12.789C12.7075 25.8105 12.3065 25.0111 11.6643 24.4293C11.0221 23.8475 10.185 23.525 9.31663 23.525C8.44828 23.525 7.61117 23.8475 6.96899 24.4293C6.32681 25.0111 5.92575 25.8105 5.84427 26.671H5.34865C5.26246 26.6067 5.17627 26.5423 5.09315 26.4719C4.75436 26.1984 4.43737 25.8993 4.14502 25.5771C3.55434 24.944 3.09601 24.2003 2.79671 23.3892C2.6535 22.9892 2.56548 22.5717 2.53505 22.1482C2.51042 21.7406 2.53505 21.2596 2.53505 20.8183V18.1064C2.62256 17.4034 2.89199 16.735 3.31695 16.1668C3.51084 15.9234 3.79029 15.7624 4.09885 15.7163C4.17888 15.7163 4.22198 15.7163 4.40668 15.6887C4.56366 15.6554 4.70719 15.5765 4.81918 15.462C4.98256 15.2867 5.10456 15.0773 5.17627 14.8491C5.37096 14.0837 5.52407 13.3083 5.63494 12.5264C5.75255 11.7893 5.95927 11.0691 6.25061 10.3814C6.52456 9.7157 6.98246 9.1409 7.57121 8.72367C8.17968 8.33403 8.88288 8.11588 9.606 8.09243C11.1438 7.98946 12.6871 7.99868 14.2235 8.12001C17.2834 8.36821 20.3463 9.03928 23.0676 10.4151C24.4277 11.0951 25.663 11.9985 26.7216 13.0872C27.244 13.6314 27.7111 14.2257 28.1161 14.8614C28.3213 15.1785 28.5083 15.5069 28.6763 15.845C28.7625 16.0105 28.8425 16.1821 28.9195 16.3537L29.0334 16.6141L29.1996 17.0278C29.569 17.1228 29.6214 17.1443 29.7814 17.1933L30.2001 17.3434C30.4802 17.4507 30.7573 17.5671 31.0251 17.6958C31.5616 17.9508 32.0711 18.2588 32.5458 18.6151C33.4693 19.3138 34.2327 20.279 34.3928 21.4036C34.4371 21.9801 34.4309 22.5594 34.3743 23.1349V23.1594Z" fill="#FF931E"/>
<path d="M28.051 16.6281L27.9348 16.3488L27.84 16.1355C27.7514 15.9493 27.6535 15.7631 27.5557 15.5799C26.9504 14.4805 26.1281 13.5106 25.1368 12.7268C23.8172 11.7068 22.3141 10.9396 20.7058 10.4653C19.1147 9.98824 17.473 9.69297 15.813 9.58536C14.9879 9.5253 14.1601 9.50725 13.333 9.5313H13.0272L12.7826 9.54632L12.4768 9.56734H12.4003C12.3789 9.56734 12.3392 9.56734 12.3514 9.59738V15.2466C12.3549 15.7346 12.5538 16.2017 12.9049 16.547C13.0817 16.7133 13.2893 16.8448 13.5165 16.9344C13.7435 17.0287 13.9858 17.0826 14.2321 17.0936H28.1489C28.311 17.1356 28.1856 16.9855 28.1673 16.9044L28.051 16.6281ZM17.9108 16.4599H14.2412C14.0793 16.4471 13.9205 16.4096 13.7703 16.3488C13.6164 16.2909 13.476 16.203 13.3575 16.0905C13.2428 15.9762 13.1526 15.8405 13.0922 15.6915C13.0318 15.5424 13.0024 15.383 13.0058 15.2225V14.0212V10.177H13.3697C14.1753 10.152 14.9817 10.169 15.7855 10.2281C17.3937 10.3319 18.9842 10.6181 20.5254 11.081C22.0563 11.5308 23.487 12.2603 24.7423 13.2314C25.3553 13.7205 25.902 14.2847 26.3692 14.9102C26.6008 15.2243 26.8122 15.5523 27.0022 15.8923C27.0939 16.0635 27.1856 16.2347 27.2651 16.4119L27.2927 16.4719L17.9108 16.4599Z" fill="#FF931E"/>
<path d="M18.0144 19.4045C17.8712 19.3225 17.7069 19.2749 17.5373 19.2663C17.3832 19.2663 17.2957 19.2663 17.1688 19.2663H14.3874C14.2636 19.2663 14.173 19.2663 14.019 19.2663C13.8494 19.2749 13.685 19.3225 13.5418 19.4045C13.3977 19.4857 13.2789 19.5984 13.1966 19.7321C13.1142 19.8657 13.071 20.0159 13.071 20.1687C13.071 20.3214 13.1142 20.4716 13.1966 20.6052C13.2789 20.7389 13.3977 20.8516 13.5418 20.9328C13.6844 21.016 13.8491 21.0637 14.019 21.071C14.173 21.071 14.2636 21.071 14.3874 21.071H17.1688C17.2957 21.071 17.3832 21.071 17.5373 21.071C17.7069 21.0624 17.8712 21.0149 18.0144 20.9328C18.1585 20.8516 18.2773 20.7389 18.3597 20.6052C18.442 20.4716 18.4852 20.3214 18.4852 20.1687C18.4852 20.0159 18.442 19.8657 18.3597 19.7321C18.2773 19.5984 18.1585 19.4857 18.0144 19.4045ZM17.6822 20.4505C17.6286 20.4808 17.5673 20.4985 17.504 20.502H14.0582C13.9597 20.502 13.8652 20.4669 13.7956 20.4043C13.7259 20.3418 13.6868 20.2571 13.6868 20.1687C13.6868 20.0803 13.7259 19.9955 13.7956 19.933C13.8652 19.8705 13.9597 19.8354 14.0582 19.8354H17.498C17.5773 19.838 17.6536 19.8633 17.7157 19.9077C17.7778 19.9521 17.8224 20.0132 17.843 20.0819C17.8636 20.1507 17.8591 20.2236 17.8302 20.2899C17.8012 20.3563 17.7494 20.4125 17.6822 20.4505Z" fill="#FF931E"/>
</g>
<defs>
<clipPath id="clip0_195_236">
<rect width="36.0947" height="36.0947" fill="white" transform="translate(0.437866 0.858154)"/>
</clipPath>
</defs>
</svg>
