<svg width="37" height="37" viewBox="0 0 37 37" fill="none" xmlns="http://www.w3.org/2000/svg">
<g clip-path="url(#clip0_195_205)">
<path d="M28.6657 15.2855H27.9601V20.4292H28.6657V15.2855Z" fill="#FF931E"/>
<path d="M28.6657 21.5043H27.9601V23.4832H28.6657V21.5043Z" fill="#FF931E"/>
<path d="M30.3484 15.5107V13.1589H27.1399V9.56739H23.2829V7.01402C23.3452 7.05653 23.4103 7.0947 23.4778 7.12825C23.6142 7.19591 23.7587 7.2456 23.9078 7.27607C24.0466 7.29896 24.1873 7.30797 24.3278 7.30295H31.4269C31.5663 7.30785 31.7058 7.29885 31.8435 7.27607C31.9926 7.2456 32.1372 7.19591 32.2735 7.12825C32.5472 6.99337 32.7779 6.78479 32.9395 6.52596C33.1011 6.26713 33.1873 5.96833 33.1884 5.66318C33.1894 5.35803 33.1053 5.05865 32.9454 4.79871C32.7856 4.53878 32.5564 4.32861 32.2836 4.19186C32.1481 4.12223 32.0032 4.07244 31.8535 4.04404C31.7158 4.022 31.5764 4.01188 31.4369 4.0138H24.3278C24.1872 4.01175 24.0467 4.02187 23.9078 4.04404C23.7583 4.07297 23.6135 4.12273 23.4778 4.19186C23.3967 4.23365 23.3192 4.28196 23.246 4.33633C23.226 4.25377 23.1967 4.17374 23.1586 4.09779C23.066 3.92004 22.9324 3.76687 22.7689 3.65095C22.4678 3.4404 22.1082 3.32991 21.7408 3.33514C21.3802 3.33278 21.0278 3.4432 20.7329 3.65095C20.5692 3.76759 20.4347 3.92053 20.3398 4.09779C20.3021 4.17425 20.2717 4.25412 20.2491 4.33633C20.179 4.2793 20.1023 4.23081 20.0207 4.19186C19.8861 4.12274 19.7425 4.07297 19.594 4.04404C19.4551 4.0221 19.3146 4.01198 19.174 4.0138H12.0615C11.9209 4.01175 11.7804 4.02187 11.6415 4.04404C11.4929 4.07243 11.3492 4.12223 11.2149 4.19186C10.9432 4.32781 10.7148 4.53669 10.5552 4.7951C10.3955 5.05352 10.311 5.35127 10.311 5.65502C10.311 5.95876 10.3955 6.25652 10.5552 6.51493C10.7148 6.77335 10.9432 6.98222 11.2149 7.11817C11.3503 7.18532 11.4936 7.23499 11.6415 7.266C11.7814 7.2888 11.9232 7.2978 12.0649 7.29287H19.1606C19.3011 7.29769 19.4418 7.28869 19.5805 7.266C19.7286 7.2355 19.872 7.1858 20.0072 7.11817C20.0698 7.08735 20.1304 7.05256 20.1886 7.01402V9.56739H16.3418V13.1623H13.1333V15.1781H9.12849C8.79252 15.1781 8.42967 15.1781 8.05002 15.1781C7.67854 15.2067 7.31065 15.2708 6.9514 15.3696C5.86653 15.6625 4.88626 16.2554 4.12319 17.0803C3.36012 17.9051 2.84518 18.9285 2.63753 20.0329C2.56751 20.3971 2.53375 20.7674 2.53674 21.1382V24.6424H8.97394V21.6187H13.1333V25.7914H30.345V21.9546H34.1986V15.5107H30.3484ZM23.797 4.83357C23.8738 4.79563 23.9551 4.76742 24.0389 4.74957C24.1349 4.73983 24.2317 4.73983 24.3278 4.74957H31.4269C31.5218 4.73994 31.6175 4.73994 31.7124 4.74957C31.7961 4.76796 31.8773 4.79615 31.9543 4.83357C32.113 4.90925 32.2469 5.0283 32.3407 5.17694C32.4345 5.32559 32.4842 5.49774 32.4842 5.67349C32.4842 5.84924 32.4345 6.0214 32.3407 6.17004C32.2469 6.31869 32.113 6.43774 31.9543 6.51342C31.8773 6.55084 31.7961 6.57903 31.7124 6.59741C31.6174 6.60536 31.5219 6.60536 31.4269 6.59741H24.3278C24.2317 6.60545 24.135 6.60545 24.0389 6.59741C23.9551 6.57957 23.8738 6.55136 23.797 6.51342C23.6383 6.43774 23.5044 6.31869 23.4106 6.17004C23.3169 6.0214 23.2671 5.84924 23.2671 5.67349C23.2671 5.49774 23.3169 5.32559 23.4106 5.17694C23.5044 5.0283 23.6383 4.90925 23.797 4.83357ZM13.1333 20.903H9.02098C8.93257 20.8982 8.84397 20.8982 8.75556 20.903C8.72105 20.9062 8.68714 20.9142 8.65477 20.9266L8.60101 20.9434H8.57414L8.53382 20.9669C8.51379 20.9801 8.49471 20.9947 8.47671 21.0106C8.37665 21.0962 8.31199 21.2159 8.29528 21.3465C8.292 21.3744 8.292 21.4026 8.29528 21.4305V23.9201H3.25572V21.1315C3.25515 20.8024 3.28552 20.4739 3.34643 20.1505C3.53251 19.1818 3.98663 18.2848 4.65717 17.5614C5.32771 16.838 6.18776 16.3172 7.13954 16.0583C7.45456 15.9704 7.77757 15.9141 8.10378 15.8904C8.42295 15.8668 8.77572 15.8904 9.11169 15.8904H13.1333V20.903ZM20.9076 6.42943V5.68021V4.69246C20.8539 4.31953 21.2873 4.05412 21.7408 4.05076C22.1944 4.0474 22.6312 4.31953 22.574 4.69246V9.56739H20.8942L20.9076 6.42943ZM19.688 6.49662C19.6114 6.53507 19.5301 6.56331 19.4461 6.58062C19.3511 6.58856 19.2556 6.58856 19.1606 6.58062H12.0615C11.9654 6.58865 11.8687 6.58865 11.7726 6.58062C11.6889 6.56223 11.6077 6.53404 11.5307 6.49662C11.3721 6.42094 11.2381 6.30189 11.1443 6.15325C11.0506 6.0046 11.0008 5.83244 11.0008 5.6567C11.0008 5.48095 11.0506 5.30879 11.1443 5.16015C11.2381 5.0115 11.3721 4.89245 11.5307 4.81677C11.6077 4.77935 11.6889 4.75116 11.7726 4.73278C11.8686 4.72303 11.9654 4.72303 12.0615 4.73278H19.1606C19.2555 4.72314 19.3512 4.72314 19.4461 4.73278C19.5301 4.75008 19.6114 4.77832 19.688 4.81677C19.8415 4.8971 19.9695 5.01851 20.0579 5.16743C20.1463 5.31634 20.1916 5.4869 20.1886 5.66005C20.1903 5.83207 20.1445 6.00122 20.0562 6.14883C19.9678 6.29645 19.8404 6.41681 19.688 6.49662ZM17.0507 10.2595H26.4343V13.1455H17.0507V10.2595ZM29.6429 21.5347V25.0724H13.8522V13.851H29.6429V21.5347ZM33.4931 21.2491H30.3484V16.2095H33.4931V21.2491Z" fill="#FF931E"/>
<path d="M8.1445 30.9584C8.11183 30.8183 8.06454 30.682 8.00339 30.5518L7.85556 30.2159L7.55319 29.5842L6.92156 28.3815L6.2765 27.1552L5.3089 25.3577L4.15317 27.5079L3.32668 29.0971C3.05454 29.638 2.78241 30.1487 2.54051 30.7467C2.54051 30.787 2.51027 30.8273 2.49683 30.8811C2.48744 30.9107 2.48069 30.941 2.47667 30.9718V31.0356C2.46256 31.119 2.45358 31.2031 2.44979 31.2876C2.4347 31.4575 2.4347 31.6284 2.44979 31.7983C2.49311 32.1307 2.59551 32.4527 2.75217 32.7491C2.98604 33.2079 3.33866 33.5955 3.7733 33.8717C4.20794 34.1478 4.70868 34.3023 5.22335 34.3191C5.73802 34.336 6.24778 34.2144 6.69951 33.9672C7.15124 33.7201 7.52841 33.3562 7.79173 32.9137C8.14496 32.3247 8.27492 31.6284 8.15794 30.9516L8.1445 30.9584ZM7.44568 31.0793C7.5364 31.5881 7.43845 32.1125 7.17018 32.5542C6.90343 33.0004 6.48543 33.3359 5.99218 33.4999C5.49893 33.6639 4.9632 33.6455 4.48242 33.4479C4.00492 33.2529 3.61125 32.8961 3.37035 32.44C3.25331 32.211 3.17821 31.963 3.14861 31.7076C3.13689 31.5813 3.13689 31.4542 3.14861 31.3279C3.15201 31.2638 3.15873 31.1999 3.16877 31.1364V31.086C3.16877 31.086 2.98735 31.0524 3.08814 31.086H3.15533L3.18221 31.0054C3.39051 30.4981 3.67273 29.9504 3.93478 29.4297L4.75791 27.8473L5.28875 26.8394L6.27314 28.6973L6.89805 29.9202L7.19706 30.535L7.33481 30.8374L7.39192 30.9852L7.41544 31.0491V31.0759H7.51287L7.78837 31.0289L7.44568 31.0793Z" fill="#FF931E"/>
</g>
<defs>
<clipPath id="clip0_195_205">
<rect width="36.0947" height="36.0947" fill="white" transform="translate(0.269958 0.858276)"/>
</clipPath>
</defs>
</svg>
