<svg width="37" height="37" viewBox="0 0 37 37" fill="none" xmlns="http://www.w3.org/2000/svg">
<g clip-path="url(#clip0_195_225)">
<path d="M34.5126 31.3162V13.5846C34.5159 13.0103 34.4522 12.4376 34.323 11.8781C34.0598 10.7559 33.5345 9.71193 32.7903 8.83172C32.4156 8.39344 31.9914 8.00001 31.5262 7.6593C31.2945 7.48918 31.0528 7.333 30.8026 7.19159C30.6793 7.12207 30.5529 7.05255 30.4233 6.98934L30.2369 6.90086V4.59711H24.1631V6.90086L23.9766 6.98934C23.8471 7.05255 23.7238 7.12207 23.5942 7.19159C23.3461 7.33489 23.1056 7.491 22.8737 7.6593C21.4751 8.69127 20.4885 10.1864 20.0896 11.8781C19.961 12.4378 19.8963 13.0103 19.8969 13.5846V15.8567C19.586 15.5458 19.2533 15.2575 18.9014 14.994C18.6085 14.7789 18.3035 14.5805 17.9881 14.3999C17.8301 14.3083 17.6721 14.2261 17.5078 14.1439L17.2139 14.0207V11.126H9.70536V14.0207L9.61687 14.0586L9.3293 14.1945C9.14285 14.2925 8.95324 14.3936 8.77311 14.5105C8.40963 14.7292 8.06123 14.972 7.73026 15.2373C7.06892 15.771 6.48408 16.3931 5.99218 17.086C5.00316 18.4783 4.42701 20.1213 4.32994 21.8263C4.29517 25.0243 4.32993 28.1466 4.31097 31.3289H1.39099V33.5599H36.0421V31.3289L34.5126 31.3162ZM20.5637 18.5113V13.5846C20.5636 13.0613 20.623 12.5397 20.7406 12.0298C21.1024 10.4928 21.9984 9.13428 23.2687 8.19652C23.4788 8.04086 23.6983 7.89838 23.9261 7.7699C24.0398 7.7067 24.1536 7.6435 24.2705 7.58661L24.359 7.54237L24.4854 7.48549L24.8299 7.3338V5.2639H29.5701V7.3338L29.9145 7.48549L30.041 7.54237L30.1294 7.58661C30.2464 7.6435 30.3633 7.7067 30.4739 7.7699C30.7016 7.89838 30.9211 8.04086 31.1312 8.19652C32.4042 9.13176 33.3009 10.4914 33.6593 12.0298C33.7785 12.5394 33.8378 13.0612 33.8363 13.5846V31.3162H20.5637V18.5113ZM4.99357 21.8484C5.08392 20.2672 5.61844 18.7437 6.53572 17.4526C6.99011 16.8091 7.53143 16.2316 8.14424 15.7367C8.45306 15.492 8.7771 15.2672 9.11441 15.0635C9.2819 14.9624 9.45571 14.8676 9.63268 14.7791L9.89813 14.6464L10.369 14.441V11.8086H16.5503V14.4568L16.9832 14.6464L17.2139 14.757C17.3624 14.8328 17.5299 14.9119 17.6595 14.994C17.9523 15.1617 18.2351 15.3463 18.5064 15.547C19.0173 15.9274 19.4837 16.3642 19.8969 16.849V31.332H4.97777C4.98409 28.1624 4.96197 24.9738 4.99357 21.8484ZM35.3785 32.8805H2.05778V31.983H35.3785V32.8805Z" fill="#FF931E"/>
<path d="M32.0129 12.5353C32.0953 12.8918 32.1366 13.2565 32.1361 13.6224V26.5158H32.7998V13.6224C32.8007 13.2055 32.7541 12.7899 32.6607 12.3836C32.4679 11.5685 32.0859 10.8102 31.5457 10.1701C31.0055 9.52997 30.3222 9.02597 29.5511 8.69885L29.292 9.31192C29.9669 9.59767 30.5649 10.0384 31.0376 10.5985C31.5104 11.1585 31.8445 11.822 32.0129 12.5353Z" fill="#FF931E"/>
<path d="M32.7996 27.3595H32.136V28.6931H32.7996V27.3595Z" fill="#FF931E"/>
</g>
<defs>
<clipPath id="clip0_195_225">
<rect width="36.0947" height="36.0947" fill="white" transform="translate(0.669067 0.858276)"/>
</clipPath>
</defs>
</svg>
