<svg width="37" height="37" viewBox="0 0 37 37" fill="none" xmlns="http://www.w3.org/2000/svg">
<g clip-path="url(#clip0_195_177)">
<path d="M14.4975 24.6807C14.0951 24.6735 13.6945 24.626 13.3017 24.5388C13.0726 24.4971 12.8323 24.4498 12.5725 24.4247C12.4592 24.413 12.3528 24.3652 12.2688 24.2886C12.1849 24.212 12.1279 24.1106 12.1063 23.9992C12.0847 23.8879 12.0996 23.7726 12.1488 23.6704C12.1981 23.5681 12.279 23.4843 12.3797 23.4314L17.2746 20.7297L7.02658 23.0279C6.86731 23.0645 6.70234 23.0693 6.54121 23.042C6.38008 23.0147 6.22597 22.9559 6.08778 22.869C5.94959 22.782 5.83006 22.6687 5.73607 22.5356C5.64209 22.4024 5.57553 22.252 5.54023 22.0931L5.26084 20.8298L1.55892 15.8577L5.06247 15.0786L9.53271 18.2533L29.7466 13.7125C31.3335 13.3563 32.655 13.4342 33.6776 13.9184L34.4012 14.2439L34.2894 14.2689C34.4687 14.4058 34.6343 14.5596 34.784 14.728C34.9405 14.9042 35.0485 15.1179 35.0974 15.3481C35.1463 15.5783 35.1344 15.8172 35.0629 16.0414C34.9915 16.2657 34.8628 16.4676 34.6895 16.6276C34.5162 16.7875 34.3043 16.9 34.0743 16.954C30.5344 17.772 25.5836 18.8543 25.0193 18.9768L17.9731 23.7041C16.28 24.4748 15.2714 24.6807 14.4975 24.6807ZM12.7177 23.8821C12.9636 23.91 13.1899 23.9517 13.405 23.9934C14.341 24.1687 15.2239 24.3357 17.7188 23.2116L24.7958 18.4815H24.8489C24.9019 18.4815 30.2131 17.3129 33.9486 16.4503C34.0844 16.4201 34.2099 16.3549 34.3124 16.2611C34.4148 16.1673 34.4908 16.0483 34.5325 15.9161C34.5757 15.7821 34.5829 15.6392 34.5535 15.5016C34.5241 15.3639 34.4591 15.2364 34.3649 15.1315C34.2591 15.0123 34.1432 14.9025 34.0184 14.8032L31.6352 15.3374L30.0399 14.6891L32.4985 14.1326C31.623 14.0017 30.7299 14.0472 29.8723 14.2662L9.41257 18.8404L4.94233 15.6685L2.51723 16.225L5.77212 20.5933L6.08504 21.9845C6.10416 22.0722 6.14062 22.1553 6.1923 22.2288C6.24397 22.3023 6.30983 22.3649 6.38603 22.4128C6.46222 22.4607 6.54723 22.493 6.6361 22.5079C6.72497 22.5227 6.81592 22.5198 6.90365 22.4993L20.957 19.344L12.7177 23.8821ZM11.0135 20.2344C10.9143 20.2331 10.8176 20.2042 10.7341 20.1509C10.6705 20.1142 10.6152 20.0648 10.5715 20.006C10.5277 19.9471 10.4966 19.88 10.4798 19.8087L10.4351 19.6139C10.4095 19.4753 10.4376 19.3321 10.5138 19.2133C10.5901 19.0946 10.7087 19.009 10.8458 18.974C10.934 18.9537 11.0259 18.9561 11.1129 18.9809C11.1999 19.0057 11.2791 19.0522 11.3432 19.1159C11.3571 19.0803 11.3739 19.0458 11.3934 19.0129C11.4718 18.8924 11.5939 18.8066 11.7343 18.7737C11.8037 18.7583 11.8755 18.7568 11.9455 18.7692C12.0155 18.7817 12.0824 18.8077 12.1422 18.846C12.1743 18.8661 12.2043 18.8894 12.2316 18.9156C12.2626 18.8311 12.3144 18.7558 12.3823 18.6965C12.4502 18.6372 12.5319 18.5958 12.62 18.5761C12.7084 18.5573 12.8001 18.5601 12.8872 18.5843C12.9743 18.6085 13.0542 18.6535 13.1201 18.7152C13.1334 18.6802 13.1503 18.6467 13.1704 18.6151C13.2082 18.5548 13.2577 18.5026 13.316 18.4615C13.3742 18.4205 13.4401 18.3913 13.5097 18.3758C13.5794 18.3603 13.6514 18.3587 13.7217 18.3711C13.792 18.3835 13.8591 18.4097 13.9191 18.4481C13.9514 18.468 13.9814 18.4913 14.0085 18.5177C14.0398 18.4334 14.0917 18.3583 14.1595 18.2991C14.2273 18.2398 14.3089 18.1984 14.3969 18.1785C14.4848 18.1586 14.5764 18.1609 14.6632 18.1851C14.75 18.2094 14.8294 18.2548 14.8942 18.3173C14.9355 18.2088 15.0107 18.1164 15.1087 18.0536C15.2067 17.9908 15.3223 17.961 15.4386 17.9684C15.5549 17.9759 15.6657 18.0203 15.7548 18.0951C15.8439 18.1699 15.9065 18.2712 15.9335 18.3841L15.9754 18.5789C15.9921 18.6482 15.9945 18.7202 15.9825 18.7905C15.9705 18.8608 15.9443 18.9279 15.9056 18.9879C15.8274 19.1068 15.7064 19.1915 15.5675 19.2244C15.4979 19.241 15.4256 19.2434 15.355 19.2314C15.2845 19.2195 15.217 19.1934 15.1568 19.1548C15.1258 19.1332 15.096 19.11 15.0674 19.0853C15.0349 19.1688 14.9826 19.2433 14.915 19.3024C14.8474 19.3615 14.7665 19.4035 14.6791 19.4247C14.5909 19.4448 14.499 19.4422 14.4121 19.4174C14.3251 19.3926 14.2459 19.3463 14.1818 19.2828C14.1678 19.3185 14.151 19.3529 14.1315 19.3858C14.0934 19.4459 14.0436 19.4978 13.9851 19.5384C13.9265 19.579 13.8604 19.6076 13.7906 19.6223C13.7214 19.6388 13.6496 19.6412 13.5795 19.6292C13.5094 19.6172 13.4424 19.5912 13.3827 19.5527C13.3506 19.5326 13.3206 19.5093 13.2933 19.4832C13.28 19.5182 13.2631 19.5517 13.243 19.5833C13.166 19.7043 13.044 19.7901 12.9038 19.8219C12.7635 19.8537 12.6163 19.829 12.4942 19.7531C12.4632 19.7314 12.4334 19.7082 12.4048 19.6835C12.3734 19.768 12.3213 19.8434 12.2531 19.9027C12.1849 19.962 12.1029 20.0034 12.0146 20.0231C11.9262 20.0427 11.8344 20.04 11.7473 20.0152C11.6603 19.9904 11.5809 19.9443 11.5164 19.8811C11.5048 19.9176 11.4878 19.9523 11.4661 19.984C11.4286 20.044 11.3793 20.0959 11.3212 20.1365C11.2632 20.1772 11.1974 20.2057 11.128 20.2205C11.0906 20.2301 11.0521 20.2348 11.0135 20.2344ZM17.2271 18.8265C17.1282 18.8238 17.0318 18.795 16.9477 18.743C16.8242 18.671 16.7332 18.5544 16.6935 18.4175L16.6488 18.2255C16.6224 18.1117 16.6338 17.9924 16.6813 17.8856C16.7288 17.7788 16.8097 17.6903 16.9121 17.6332C17.0144 17.5761 17.1326 17.5536 17.2488 17.5691C17.3651 17.5846 17.4731 17.6373 17.5568 17.7191C17.5706 17.6838 17.5884 17.6502 17.6099 17.619C17.647 17.5583 17.6961 17.5058 17.7542 17.4647C17.8123 17.4235 17.8782 17.3946 17.9479 17.3797C18.0878 17.35 18.2338 17.3749 18.3558 17.4492C18.3886 17.4695 18.4186 17.4938 18.4452 17.5216C18.4763 17.4368 18.5283 17.3612 18.5963 17.3015C18.6643 17.2419 18.7463 17.2003 18.8347 17.1803C18.923 17.1604 19.015 17.1629 19.1022 17.1875C19.1894 17.2121 19.269 17.2581 19.3337 17.3212C19.3476 17.2856 19.3644 17.2512 19.384 17.2183C19.4638 17.1005 19.5858 17.0176 19.725 16.9866C19.8643 16.9556 20.0101 16.9787 20.1328 17.0513C20.1644 17.0721 20.1943 17.0954 20.2222 17.1209C20.2547 17.0374 20.307 16.9629 20.3746 16.9038C20.4422 16.8447 20.5231 16.8027 20.6105 16.7815C20.6987 16.7614 20.7905 16.7639 20.8775 16.7888C20.9644 16.8136 21.0437 16.8599 21.1078 16.9234C21.1389 16.8382 21.1911 16.7622 21.2594 16.7024C21.3278 16.6426 21.4102 16.6009 21.499 16.5811C21.5872 16.5631 21.6785 16.5666 21.7651 16.5913C21.8517 16.616 21.931 16.6612 21.9963 16.723C22.0096 16.688 22.0265 16.6545 22.0466 16.6229C22.0845 16.5623 22.1342 16.51 22.1927 16.4689C22.2512 16.4278 22.3175 16.3988 22.3874 16.3836C22.4566 16.367 22.5284 16.3647 22.5986 16.3767C22.6687 16.3886 22.7356 16.4146 22.7953 16.4531C22.8263 16.4748 22.8562 16.498 22.8847 16.5227C22.9161 16.4381 22.9683 16.3628 23.0365 16.3035C23.1046 16.2441 23.1866 16.2028 23.275 16.1831C23.3633 16.1635 23.4552 16.1662 23.5422 16.191C23.6293 16.2158 23.7087 16.2619 23.7732 16.3251C23.7848 16.2886 23.8018 16.2539 23.8235 16.2222C23.861 16.1622 23.9102 16.1103 23.9683 16.0696C24.0264 16.029 24.0921 16.0005 24.1616 15.9857C24.3016 15.9541 24.4485 15.9791 24.57 16.0553C24.6915 16.1314 24.7778 16.2525 24.8097 16.3919L24.8544 16.5867C24.8817 16.7262 24.8543 16.8707 24.7779 16.9908C24.7016 17.1108 24.582 17.1972 24.4437 17.2322C24.3556 17.2525 24.2637 17.2501 24.1767 17.2253C24.0897 17.2005 24.0104 17.154 23.9464 17.0903C23.9325 17.1259 23.9157 17.1603 23.8961 17.1932C23.8581 17.2534 23.8083 17.3053 23.7498 17.3459C23.6912 17.3865 23.6251 17.415 23.5553 17.4298C23.4861 17.4463 23.4143 17.4486 23.3442 17.4367C23.274 17.4247 23.2071 17.3987 23.1474 17.3602C23.1153 17.3401 23.0853 17.3168 23.058 17.2906C23.0266 17.3752 22.9744 17.4506 22.9062 17.5099C22.8381 17.5692 22.7561 17.6105 22.6677 17.6302C22.5794 17.6498 22.4875 17.6471 22.4005 17.6223C22.3134 17.5975 22.234 17.5514 22.1695 17.4882C22.1579 17.5248 22.1409 17.5594 22.1192 17.5911C22.0415 17.7111 21.9205 17.7968 21.7812 17.8304C21.7117 17.8459 21.6399 17.8475 21.5699 17.8351C21.4999 17.8226 21.433 17.7965 21.3732 17.7581C21.3402 17.7381 21.3093 17.7148 21.281 17.6885C21.2505 17.7732 21.1988 17.8488 21.1309 17.9082C21.0629 17.9676 20.981 18.0088 20.8927 18.028C20.8047 18.0478 20.7132 18.0455 20.6263 18.0212C20.5395 17.9969 20.4601 17.9514 20.3954 17.8888C20.3814 17.9236 20.3646 17.9571 20.3451 17.989C20.3072 18.0495 20.2575 18.1019 20.199 18.143C20.1404 18.1841 20.0742 18.2131 20.0042 18.2283C19.8643 18.258 19.7183 18.2331 19.5963 18.1587C19.5641 18.1378 19.5341 18.1135 19.5069 18.0864C19.4743 18.1695 19.4215 18.2432 19.3532 18.301C19.2849 18.3588 19.2034 18.3988 19.1158 18.4175C19.0271 18.436 18.9353 18.4327 18.8481 18.408C18.761 18.3833 18.6812 18.3379 18.6157 18.2756C18.5844 18.3598 18.5325 18.435 18.4647 18.4942C18.3969 18.5534 18.3153 18.5949 18.2273 18.6148C18.1394 18.6347 18.0478 18.6324 17.961 18.6081C17.8742 18.5839 17.7948 18.5385 17.73 18.4759C17.7162 18.5112 17.6984 18.5448 17.6769 18.5761C17.6398 18.6368 17.5907 18.6892 17.5326 18.7304C17.4745 18.7715 17.4086 18.8004 17.3389 18.8154C17.3008 18.8279 17.2614 18.8363 17.2215 18.8404L17.2271 18.8265ZM26.1005 16.8454C26.0015 16.8437 25.9048 16.8148 25.8211 16.762C25.7006 16.6846 25.6146 16.5641 25.5809 16.4253L25.5389 16.2305C25.5224 16.1616 25.52 16.0901 25.532 16.0203C25.544 15.9505 25.5701 15.8838 25.6088 15.8243C25.6871 15.7037 25.8093 15.618 25.9496 15.585C26.0191 15.5697 26.0909 15.5682 26.1609 15.5806C26.2309 15.593 26.2977 15.6191 26.3576 15.6574C26.3898 15.6772 26.4198 15.7005 26.447 15.7269C26.478 15.6425 26.5298 15.5672 26.5977 15.5079C26.6655 15.4485 26.7472 15.4071 26.8353 15.3875C26.9049 15.3709 26.9772 15.3685 27.0478 15.3804C27.1184 15.3924 27.1858 15.4185 27.246 15.457C27.2777 15.4778 27.3076 15.501 27.3354 15.5266C27.3664 15.4421 27.4183 15.3666 27.4862 15.3073C27.5541 15.2479 27.6359 15.2065 27.7241 15.1868C27.8122 15.1672 27.904 15.1699 27.9908 15.1947C28.0777 15.2196 28.1568 15.2658 28.2211 15.329C28.235 15.2934 28.2518 15.259 28.2714 15.2261C28.3497 15.1055 28.4719 15.0198 28.6122 14.9868C28.7523 14.9597 28.8975 14.9869 29.018 15.063C29.1385 15.139 29.2252 15.2581 29.2604 15.3958L29.3023 15.5906C29.3341 15.73 29.3089 15.8763 29.2324 15.9974C29.156 16.1184 29.0344 16.2043 28.8944 16.2361C28.8057 16.2546 28.7139 16.2513 28.6268 16.2266C28.5397 16.2019 28.4599 16.1565 28.3943 16.0942C28.3796 16.1293 28.3598 16.1621 28.3356 16.1916C28.2979 16.2514 28.2486 16.3031 28.1905 16.3437C28.1325 16.3843 28.0669 16.413 27.9976 16.4281C27.9284 16.4446 27.8566 16.447 27.7865 16.435C27.7163 16.423 27.6494 16.397 27.5897 16.3585C27.557 16.3392 27.527 16.3158 27.5003 16.289C27.4675 16.3728 27.4148 16.4475 27.3466 16.5066C27.2785 16.5658 27.197 16.6076 27.1091 16.6284C27.0209 16.6484 26.9291 16.6459 26.8421 16.6211C26.7552 16.5963 26.676 16.55 26.6118 16.4865C26.5979 16.5221 26.5811 16.5566 26.5615 16.5895C26.4832 16.71 26.361 16.7958 26.2207 16.8288C26.1813 16.8386 26.1411 16.8442 26.1005 16.8454Z" fill="#FF931E"/>
</g>
<defs>
<clipPath id="clip0_195_177">
<rect width="36.0947" height="36.0947" fill="white" transform="translate(0.476089 0.858276)"/>
</clipPath>
</defs>
</svg>
