<svg width="35" height="35" viewBox="0 0 35 35" fill="none" xmlns="http://www.w3.org/2000/svg">
<ellipse cx="17.0526" cy="17.2623" rx="17.0526" ry="17.2623" fill="#FF931E"/>
<mask id="mask0_873_973" style="mask-type:alpha" maskUnits="userSpaceOnUse" x="8" y="9" width="16" height="16">
<rect x="8.8418" y="9.59033" width="15.1579" height="15.3443" fill="#D9D9D9"/>
</mask>
<g mask="url(#mask0_873_973)">
<path d="M15.7894 12.1475V10.2295H17.0526V12.1475H15.7894ZM15.7894 24.2951V22.377H17.0526V24.2951H15.7894ZM21.4736 17.9016V16.6229H23.3684V17.9016H21.4736ZM9.47363 17.9016V16.6229H11.3684V17.9016H9.47363ZM20.6526 13.8738L19.7684 12.9787L20.8736 11.8279L21.7894 12.7549L20.6526 13.8738ZM11.9684 22.6967L11.0526 21.7697L12.1894 20.6508L13.0736 21.5459L11.9684 22.6967ZM20.8736 22.6967L19.7684 21.5459L20.6526 20.6508L21.7894 21.7697L20.8736 22.6967ZM12.1894 13.8738L11.0526 12.7549L11.9684 11.8279L13.0736 12.9787L12.1894 13.8738ZM16.421 21.0983C15.3684 21.0983 14.4736 20.7254 13.7368 19.9795C12.9999 19.2336 12.6315 18.3279 12.6315 17.2623C12.6315 16.1967 12.9999 15.291 13.7368 14.5451C14.4736 13.7992 15.3684 13.4262 16.421 13.4262C17.4736 13.4262 18.3684 13.7992 19.1052 14.5451C19.8421 15.291 20.2105 16.1967 20.2105 17.2623C20.2105 18.3279 19.8421 19.2336 19.1052 19.9795C18.3684 20.7254 17.4736 21.0983 16.421 21.0983Z" fill="white"/>
</g>
</svg>
