<svg width="30" height="32" viewBox="0 0 30 32" fill="none" xmlns="http://www.w3.org/2000/svg">
<path d="M14.8594 16.2031C15.224 15.6719 15.6719 15.224 16.2031 14.8594L15.3906 12.9219L17.25 12.1562L18.0469 14.0938C18.3594 14.0312 18.6771 14 19 14C19.3229 14 19.6406 14.0312 19.9531 14.0938L20.75 12.1562L22.6094 12.9219L21.7969 14.8594C22.0677 15.0365 22.3125 15.2344 22.5312 15.4531C22.75 15.6719 22.9531 15.9219 23.1406 16.2031L25.0781 15.3906L25.8438 17.25L23.9062 18.0469C23.9688 18.3594 24 18.6771 24 19C24 19.3229 23.9688 19.6406 23.9062 19.9531L25.8438 20.75L25.0781 22.6094L23.1406 21.7969C22.9635 22.0677 22.7656 22.3125 22.5469 22.5312C22.3281 22.75 22.0781 22.9531 21.7969 23.1406L22.6094 25.0781L20.75 25.8438L19.9531 23.9062C19.6406 23.9688 19.3229 24 19 24C18.6771 24 18.3594 23.9688 18.0469 23.9062L17.25 25.8438L15.3906 25.0781L16.2031 23.1406C15.6719 22.776 15.224 22.3281 14.8594 21.7969L12.9219 22.6094L12.1562 20.75L14.0938 19.9531C14.0312 19.6406 14 19.3229 14 19C14 18.6771 14.0312 18.3594 14.0938 18.0469L12.1562 17.25L12.9219 15.3906L14.8594 16.2031ZM22 19C22 18.5833 21.9219 18.1927 21.7656 17.8281C21.6094 17.4635 21.3958 17.1458 21.125 16.875C20.8542 16.6042 20.5365 16.3906 20.1719 16.2344C19.8073 16.0781 19.4167 16 19 16C18.5833 16 18.1927 16.0781 17.8281 16.2344C17.4635 16.3906 17.1458 16.6042 16.875 16.875C16.6042 17.1458 16.3906 17.4635 16.2344 17.8281C16.0781 18.1927 16 18.5833 16 19C16 19.4167 16.0781 19.8073 16.2344 20.1719C16.3906 20.5365 16.6042 20.8542 16.875 21.125C17.1458 21.3958 17.4635 21.6094 17.8281 21.7656C18.1927 21.9219 18.5833 22 19 22C19.4062 22 19.7917 21.9219 20.1562 21.7656C20.5208 21.6094 20.8385 21.3958 21.1094 21.125C21.3802 20.8542 21.599 20.5312 21.7656 20.1562C21.9323 19.7812 22.0104 19.3958 22 19ZM4.17188 12.6406L6.04688 11.5469C6.01562 11.3594 6 11.1771 6 11C6 10.8229 6.01562 10.6406 6.04688 10.4531L4.17188 9.35938L5.17188 7.64062L7.0625 8.71875C7.36458 8.47917 7.67708 8.30208 8 8.1875V6H10V8.1875C10.3229 8.30208 10.6354 8.47917 10.9375 8.71875L12.8281 7.64062L13.8281 9.35938L11.9531 10.4531C11.9844 10.6406 12 10.8229 12 11C12 11.1771 11.9844 11.3594 11.9531 11.5469L13.8281 12.6406L12.8281 14.3594L10.9375 13.2812C10.7917 13.3958 10.6458 13.4948 10.5 13.5781C10.3542 13.6615 10.1875 13.7396 10 13.8125V16H8V13.8125C7.82292 13.75 7.66146 13.6771 7.51562 13.5938C7.36979 13.5104 7.21875 13.4062 7.0625 13.2812L5.17188 14.3594L4.17188 12.6406ZM9 9.5C8.58333 9.5 8.22917 9.64583 7.9375 9.9375C7.64583 10.2292 7.5 10.5833 7.5 11C7.5 11.4167 7.64583 11.7708 7.9375 12.0625C8.22917 12.3542 8.58333 12.5 9 12.5C9.41667 12.5 9.77083 12.3542 10.0625 12.0625C10.3542 11.7708 10.5 11.4167 10.5 11C10.5 10.5833 10.3542 10.2292 10.0625 9.9375C9.77083 9.64583 9.41667 9.5 9 9.5ZM30 0V32H0V0H30ZM28 2H2V30H28V2Z" fill="#FF931E"/>
</svg>
