<svg width="25" height="32" viewBox="0 0 25 32" fill="none" xmlns="http://www.w3.org/2000/svg">
<path d="M12.3077 0C11.4462 0 10.8234 0.361846 10.5772 0.731077C10.4542 0.854154 10.3545 1.10769 10.2314 1.23077H8.61538C7.26154 1.23077 6.15385 2.33846 6.15385 3.69231H3.69231C1.6 3.69231 0 5.29231 0 7.38462V28.3077C0 30.4 1.6 32 3.69231 32H20.9231C23.0154 32 24.6154 30.4 24.6154 28.3077V7.38462C24.6154 5.29231 23.0154 3.69231 20.9231 3.69231H18.4615C18.4615 2.33846 17.3538 1.23077 16 1.23077H14.384C14.2609 1.10769 14.1625 0.854154 14.0394 0.731077C13.792 0.361846 13.1692 0 12.3077 0ZM8.61538 3.69231H16V6.15385H8.61538V3.69231ZM3.69231 7.38462H6.53908C6.90831 8.12308 7.75385 8.61538 8.61538 8.61538H16C16.8615 8.61538 17.7071 8.12308 18.0775 7.38462H20.9231V28.3077H3.69231V7.38462ZM16.6929 13.1545C16.4615 13.1545 16.2375 13.2382 16.1145 13.4228L10.6929 19.1926L8.61538 17.2308C8.24615 16.8615 7.63077 16.8615 7.38462 17.2308L6.53785 18.0775C6.16862 18.4468 6.16862 19.0622 6.53785 19.3083L9.96185 22.5378C10.4542 23.0302 11.2 22.8763 11.6923 22.384L18.3458 15.2702C18.592 15.024 18.6006 14.5231 18.2314 14.1538L17.3452 13.4228C17.1721 13.2501 16.9375 13.1544 16.6929 13.1545Z" fill="#FF931E"/>
</svg>
