<svg width="32" height="32" viewBox="0 0 32 32" fill="none" xmlns="http://www.w3.org/2000/svg">
<g clip-path="url(#clip0_170_96)">
<path d="M23.6014 12.24C23.7172 12.0988 23.8034 11.9358 23.8551 11.7607C23.9068 11.5856 23.9229 11.4019 23.9024 11.2205C23.8819 11.0391 23.8252 10.8636 23.7357 10.7045C23.6462 10.5453 23.5258 10.4058 23.3814 10.294C23.0878 10.0643 22.7161 9.95829 22.3455 9.99864C21.9749 10.039 21.6347 10.2225 21.3974 10.51L14.7774 18.63L11.2374 15.91C10.9482 15.6746 10.5786 15.5615 10.2072 15.5948C9.83587 15.628 9.49219 15.805 9.24942 16.088C9.13082 16.2267 9.04124 16.3879 8.98597 16.5619C8.93071 16.7359 8.91088 16.9192 8.92766 17.101C8.94444 17.2828 8.99749 17.4593 9.08367 17.6203C9.16985 17.7812 9.28742 17.9232 9.42942 18.038L14.0694 21.658C14.3624 21.8963 14.7378 22.009 15.1137 21.9716C15.4895 21.9341 15.8352 21.7495 16.0754 21.458L23.5954 12.218L23.6014 12.24Z" fill="#FF931E"/>
<path fill-rule="evenodd" clip-rule="evenodd" d="M13.0183 1.42824C14.0863 0.644239 14.6203 0.252239 15.1983 0.100239C15.7148 -0.0308088 16.2558 -0.0308088 16.7723 0.100239C17.3563 0.252239 17.8923 0.644239 18.9523 1.42824L20.3063 2.42224C20.6763 2.69424 20.8623 2.83024 21.0623 2.93624C21.241 3.02957 21.427 3.10691 21.6203 3.16824C21.8383 3.23424 22.0643 3.26824 22.5183 3.33824L24.1783 3.59224C25.4883 3.79224 26.1423 3.89424 26.6583 4.20024C27.1183 4.47024 27.5023 4.85424 27.7723 5.31424C28.0783 5.83424 28.1783 6.49024 28.3803 7.79424L28.6343 9.45424C28.7043 9.90824 28.7383 10.1362 28.8043 10.3542C28.8643 10.5476 28.9416 10.7329 29.0363 10.9102C29.1443 11.1102 29.2783 11.2962 29.5503 11.6662L30.5443 13.0202C31.3283 14.0882 31.7203 14.6222 31.8723 15.2002C32.0033 15.7167 32.0033 16.2578 31.8723 16.7742C31.7223 17.3582 31.3283 17.8942 30.5443 18.9542L29.5503 20.3082C29.36 20.5468 29.1881 20.7995 29.0363 21.0642C28.9414 21.2431 28.8637 21.4307 28.8043 21.6242C28.7383 21.8402 28.7043 22.0662 28.6343 22.5202L28.3803 24.1802C28.1803 25.4902 28.0783 26.1442 27.7723 26.6602C27.5023 27.1202 27.1183 27.5042 26.6583 27.7742C26.1383 28.0802 25.4823 28.1802 24.1783 28.3822L22.5183 28.6362C22.215 28.6706 21.9148 28.7281 21.6203 28.8082C21.427 28.8669 21.241 28.9442 21.0623 29.0402C20.8623 29.1462 20.6763 29.2802 20.3063 29.5542L18.9523 30.5482C17.8843 31.3322 17.3503 31.7242 16.7723 31.8762C16.2558 32.0073 15.7148 32.0073 15.1983 31.8762C14.6143 31.7242 14.0783 31.3322 13.0183 30.5482L11.6643 29.5542C11.4257 29.3639 11.173 29.1921 10.9083 29.0402C10.73 28.9455 10.5432 28.8678 10.3503 28.8082C10.0558 28.7281 9.75556 28.6706 9.45229 28.6362L7.79229 28.3822C6.48229 28.1822 5.82629 28.0822 5.31229 27.7742C4.85392 27.5015 4.47098 27.1186 4.19829 26.6602C3.89229 26.1402 3.79229 25.4842 3.59029 24.1802L3.33629 22.5202C3.26629 22.0662 3.23229 21.8402 3.16629 21.6222C3.10793 21.4289 3.0302 21.242 2.93429 21.0642C2.78243 20.7995 2.6106 20.5468 2.42029 20.3082L1.42629 18.9542C0.642286 17.8862 0.250286 17.3542 0.0982858 16.7742C-0.0327619 16.2578 -0.0327619 15.7167 0.0982858 15.2002C0.248286 14.6162 0.642286 14.0802 1.42629 13.0202L2.42029 11.6662C2.69229 11.2962 2.82829 11.1102 2.93429 10.9102C3.02762 10.7329 3.10495 10.5469 3.16629 10.3522C3.23229 10.1342 3.26629 9.90824 3.33629 9.45424L3.59029 7.79424C3.79029 6.48424 3.89229 5.82824 4.19829 5.31424C4.46829 4.85424 4.85229 4.47424 5.31229 4.20024C5.83229 3.89424 6.48829 3.79424 7.79229 3.59224L9.45229 3.33824C9.90629 3.27024 10.1343 3.23424 10.3503 3.16824C10.5436 3.10824 10.7296 3.03091 10.9083 2.93624C11.1083 2.83024 11.2943 2.69424 11.6643 2.42224L13.0183 1.42824ZM17.7783 3.04024L19.2003 4.08424C19.5023 4.30624 19.8003 4.52624 20.1323 4.70224C20.4256 4.85824 20.7296 4.98424 21.0443 5.08024C21.404 5.17971 21.7702 5.25389 22.1403 5.30224L23.8843 5.57024C25.3663 5.79824 25.5503 5.86024 25.6583 5.92424C25.8276 6.02557 25.9623 6.16024 26.0623 6.32824C26.1263 6.43624 26.1903 6.62024 26.4163 8.10224L26.6843 9.84624C26.7326 10.2163 26.8068 10.5825 26.9063 10.9422C27.0036 11.2596 27.1296 11.5636 27.2843 11.8542C27.4603 12.1862 27.6803 12.4842 27.9023 12.7862L28.9463 14.2082C29.8343 15.4162 29.9183 15.5902 29.9503 15.7142C29.9964 15.9021 29.9964 16.0984 29.9503 16.2862C29.9183 16.4082 29.8343 16.5822 28.9463 17.7922L27.9023 19.2142C27.6803 19.5162 27.4603 19.8142 27.2843 20.1462C27.1296 20.4376 27.0031 20.7429 26.9063 21.0582C26.8068 21.4179 26.7326 21.7842 26.6843 22.1542L26.4163 23.8982C26.1883 25.3802 26.1263 25.5642 26.0623 25.6722C25.9621 25.8375 25.8235 25.9761 25.6583 26.0762C25.5503 26.1402 25.3663 26.2042 23.8843 26.4302L22.1403 26.6982C21.7702 26.7466 21.404 26.8208 21.0443 26.9202C20.729 27.017 20.4236 27.1436 20.1323 27.2982C19.8003 27.4742 19.5023 27.6942 19.2003 27.9162L17.7783 28.9602C16.5703 29.8482 16.3963 29.9322 16.2723 29.9642C16.0844 30.0103 15.8882 30.0103 15.7003 29.9642C15.5783 29.9322 15.4043 29.8482 14.1943 28.9602L12.7723 27.9162C12.4764 27.6888 12.165 27.4822 11.8403 27.2982C11.549 27.1436 11.2436 27.017 10.9283 26.9202C10.5686 26.8208 10.2024 26.7466 9.83229 26.6982L8.08829 26.4302C6.60629 26.2022 6.42229 26.1402 6.31429 26.0762C6.14906 25.9761 6.01046 25.8375 5.91029 25.6722C5.84629 25.5642 5.78229 25.3802 5.55629 23.8982L5.28829 22.1542C5.23994 21.7842 5.16576 21.4179 5.06629 21.0582C4.96949 20.7429 4.84292 20.4376 4.68829 20.1462C4.51229 19.8142 4.29229 19.5162 4.07029 19.2142L3.02629 17.7922C2.13829 16.5842 2.05429 16.4102 2.02229 16.2862C1.97618 16.0984 1.97618 15.9021 2.02229 15.7142C2.05429 15.5922 2.13829 15.4182 3.02629 14.2082L4.07029 12.7862C4.29229 12.4842 4.51229 12.1862 4.68829 11.8542C4.84295 11.5609 4.96895 11.2569 5.06629 10.9422C5.16576 10.5825 5.23994 10.2163 5.28829 9.84624L5.55629 8.10224C5.78429 6.62024 5.84629 6.43624 5.91029 6.32824C6.01046 6.16301 6.14906 6.02442 6.31429 5.92424C6.42229 5.86024 6.60629 5.79624 8.08829 5.57024L9.83229 5.30224C10.2024 5.25389 10.5686 5.17971 10.9283 5.08024C11.2456 4.98291 11.5496 4.85691 11.8403 4.70224C12.1723 4.52624 12.4703 4.30624 12.7723 4.08424L14.1943 3.04024C15.4023 2.15224 15.5763 2.06824 15.7003 2.03624C15.8882 1.99013 16.0844 1.99013 16.2723 2.03624C16.3943 2.06824 16.5683 2.15224 17.7783 3.04024Z" fill="#FF931E"/>
</g>
<defs>
<clipPath id="clip0_170_96">
<rect width="32" height="32" fill="white"/>
</clipPath>
</defs>
</svg>
