<svg width="26" height="26" viewBox="0 0 26 26" fill="none" xmlns="http://www.w3.org/2000/svg">
<path d="M15.898 23.4381C14.8978 22.4379 14.3359 21.0813 14.3359 19.6668C14.3359 18.2523 14.8978 16.8958 15.898 15.8956C16.8982 14.8954 18.2548 14.3335 19.6693 14.3335C21.0838 14.3335 22.4403 14.8954 23.4405 15.8956C24.4407 16.8958 25.0026 18.2523 25.0026 19.6668C25.0026 21.0813 24.4407 22.4379 23.4405 23.4381C22.4403 24.4383 21.0838 25.0002 19.6693 25.0002C18.2548 25.0002 16.8982 24.4383 15.898 23.4381Z" stroke="#FF931E" stroke-width="2" stroke-linecap="round" stroke-linejoin="round"/>
<path d="M19.6667 14.3333V19.6667H25M13 1V6.33333C13 6.68695 13.1405 7.02609 13.3905 7.27614C13.6406 7.52619 13.9797 7.66667 14.3333 7.66667H19.6667" stroke="#FF931E" stroke-width="2" stroke-linecap="round" stroke-linejoin="round"/>
<path d="M12.3333 25H3.66667C2.95942 25 2.28115 24.719 1.78105 24.219C1.28095 23.7189 1 23.0406 1 22.3333V3.66667C1 2.95942 1.28095 2.28115 1.78105 1.78105C2.28115 1.28095 2.95942 1 3.66667 1H13L19.6667 7.66667V10.3333M19.6667 14.3333V19.6667" stroke="#FF931E" stroke-width="2" stroke-linecap="round" stroke-linejoin="round"/>
</svg>
