<svg width="78" height="77" viewBox="0 0 78 77" fill="none" xmlns="http://www.w3.org/2000/svg">
<path fill-rule="evenodd" clip-rule="evenodd" d="M43.893 1.66404L48.8431 5.3694C50.197 6.38278 51.622 6.9014 53.3105 6.99541L59.4841 7.33883C63.1808 7.5444 66.1833 10.0636 67.0276 13.6686L68.438 19.6889C68.8236 21.3354 69.5819 22.6487 70.815 23.8059L75.3236 28.0375C78.0232 30.5712 78.7037 34.431 77.0336 37.7353L74.2442 43.2536C73.4813 44.7628 73.218 46.2562 73.4187 47.9353L74.1526 54.0749C74.592 57.7512 72.6323 61.1453 69.2289 62.6029L63.5449 65.0372C61.9903 65.703 60.8287 66.6777 59.9032 68.0929L56.5188 73.2678C54.4924 76.3664 50.8095 77.7067 47.2655 76.6357L41.3467 74.847C39.728 74.3578 38.2116 74.3578 36.5927 74.847L30.6739 76.6357C27.1299 77.7067 23.4469 76.3664 21.4205 73.2678L18.0362 68.0929C17.1105 66.6777 15.9489 65.703 14.3945 65.0372L8.71009 62.6026C5.30675 61.145 3.34706 57.7509 3.78645 54.0746L4.52037 47.9349C4.72107 46.2558 4.4577 44.7625 3.69487 43.2532L0.905455 37.735C-0.764718 34.4308 -0.0842103 30.5711 2.61541 28.0372L7.12403 23.8056C8.3571 22.6484 9.11522 21.3351 9.50085 19.6886L10.9112 13.6683C11.7556 10.0635 14.758 7.54423 18.4548 7.33851L24.6284 6.99509C26.3169 6.90123 27.7419 6.38245 29.0958 5.36908L34.0459 1.66372C37.0097 -0.554627 40.929 -0.554627 43.893 1.66404ZM35.8117 40.6205L30.4397 35.2485C29.0474 33.8562 26.7889 33.8562 25.3967 35.2485C24.0044 36.6409 24.0044 38.8992 25.3967 40.2915L33.298 48.1926C34.6903 49.5848 36.9488 49.585 38.341 48.1926C43.1034 43.4301 47.8119 38.6141 52.5524 33.8297C53.9347 32.4346 53.9303 30.1835 52.537 28.7979C51.1435 27.4121 48.8858 27.416 47.5021 28.8135L35.8117 40.6205ZM38.9694 11.9444C31.6364 11.9444 24.9974 14.9168 20.1918 19.7224C15.3862 24.5282 12.4138 31.167 12.4138 38.4999C12.4138 45.8329 15.3862 52.4718 20.1918 57.2774C24.9974 62.083 31.6364 65.0554 38.9694 65.0554C46.3023 65.0554 52.9413 62.083 57.7469 57.2774C62.5525 52.4718 65.5249 45.8329 65.5249 38.4999C65.5249 31.167 62.5525 24.528 57.7469 19.7224C52.9413 14.9168 46.3023 11.9444 38.9694 11.9444ZM55.9099 21.5593C51.5746 17.224 45.5851 14.5424 38.9694 14.5424C32.3536 14.5424 26.3641 17.224 22.0288 21.5593C17.6934 25.8947 15.0118 31.8842 15.0118 38.4999C15.0118 45.1157 17.6934 51.1051 22.0288 55.4405C26.3641 59.7759 32.3536 62.4575 38.9694 62.4575C45.5851 62.4575 51.5746 59.7759 55.9099 55.4406C60.2453 51.1053 62.9267 45.1158 62.9267 38.5001C62.9269 31.8842 60.2453 25.8947 55.9099 21.5593Z" fill="#FF931E"/>
</svg>
