<svg width="98" height="110" viewBox="0 0 98 110" fill="none" xmlns="http://www.w3.org/2000/svg">
<path fill-rule="evenodd" clip-rule="evenodd" d="M9.34637 48.9058C10.3377 47.5846 7.5701 42.5883 6.20213 40.6716C5.58009 39.798 4.03228 39.0122 4.268 37.7118C5.38818 31.5212 10.7338 36.2352 13.5816 34.4698C17.117 32.2769 17.411 27.7657 19.4739 24.7404C20.373 23.4215 23.1965 21.5658 23.6193 20.0565C24.1077 18.3115 20.9319 16.7243 20.3949 15.2055C19.299 12.0923 20.3439 8.16474 19.9113 6.80869C19.3597 5.06966 17.2968 4.48847 17.4742 2.40406C17.7658 -1.00525 24.166 -0.180312 26.1244 1.17819C27.8958 2.4069 31.023 4.94284 32.877 5.68717C35.2436 6.639 37.8265 2.71362 39.9502 4.23939C43.855 7.04497 38.0841 9.93091 38.2955 12.6476C38.3733 13.6544 39.8651 15.9286 39.4837 16.7734C38.8131 18.266 36.6699 18.5831 36.1111 20.2207C35.2825 22.6625 41.8358 24.774 42.9657 26.0572C44.3823 27.6703 41.481 29.7954 41.1773 31.3938C41.1409 31.5937 43.8428 32.8861 44.0785 33.0696C45.449 34.1369 46.7368 36.0478 48.3696 36.7089C50.6586 37.6348 53.0689 36.651 55.4064 36.9655C58.7742 37.4179 62.7834 41.8833 66.2824 39.5791C68.3137 38.2417 65.3907 34.0403 67.3297 33.3727C71.9318 31.7874 71.0133 36.7222 72.6413 37.6045C72.8211 37.7023 79.6344 36.8739 80.3245 36.6409C81.0267 36.4029 80.4897 34.7 80.9465 34.0166C82.1493 32.2091 84.4333 29.3069 86.4015 28.2331C89.2468 26.6827 97.4476 29.1266 97.9335 32.8457C98.0818 33.966 96.0941 34.1507 95.3531 34.5789C93.4043 35.7055 90.5104 38.4009 89.6818 40.4759C89.2954 41.4468 90.4448 42.8003 90.6149 43.7937C90.7801 44.7819 89.8106 46.7719 89.3586 47.6605C88.5762 49.1931 85.7649 47.792 85.1161 50.1831C84.4479 52.6358 88.1315 54.9925 86.3554 57.3239C85.6823 58.2055 83.6655 54.5181 83.3909 53.8197C83.2815 53.5404 83.318 53.6113 83.2378 53.4031C83.2014 53.3077 83.1649 53.2131 83.126 53.119C83.092 53.035 83.0458 52.9122 82.9851 52.8449C82.2464 52.0335 78.9734 54.0289 78.3077 52.2495C77.134 49.1118 78.2518 48.1311 79.3695 45.4582C79.5833 44.945 78.2688 45.2665 77.7148 45.1982C76.6238 45.0637 75.5133 45.0675 74.4612 44.7267C72.1626 43.9821 71.1712 39.828 68.9431 42.4026C66.2483 45.5163 72.9401 53.6684 70.8505 57.0707C69.3853 59.4602 66.1244 59.2019 64.2534 60.9733C63.2572 61.9147 63.9521 63.1769 62.9826 64.2187C62.0472 65.2231 60.7156 65.6862 59.7655 66.6987C55.9142 70.8042 52.3885 75.1769 48.4886 79.1901C46.2507 81.4929 42.7396 81.3455 40.854 84.2641C40.1226 85.3965 42.0981 89.1662 42.0058 90.8975C41.911 92.7059 40.6135 94.5444 40.3851 96.4108C40.2417 97.5846 41.1578 99.51 40.6961 100.518C39.7338 102.613 36.4196 104.108 34.7891 105.639C33.4308 106.914 32.5463 109.871 30.119 109.461C25.665 108.709 26.1777 101.134 24.8341 97.9342C24.1318 96.2651 22.6205 94.9575 21.8041 93.2903C20.5502 90.7232 20.8103 87.7613 19.7144 85.1709C18.3853 82.0313 16.2397 79.4905 15.5351 76.0941C14.3907 70.5628 16.0818 66.2664 15.2824 61.1948C15.2459 60.961 14.8085 59.4304 14.4392 59.3844C13.1173 59.22 11.5234 61.6838 10.396 62.1871C8.64405 62.9685 4.70044 60.2704 3.44663 59.3556C1.22327 57.7321 1.14311 57.1678 2.76142 54.9463C3.2401 54.2906 0.333966 52.3424 0.00592443 51.9822C-0.0305029 51.9418 0.112861 51.6496 0.115285 51.6477C0.613385 50.6383 3.24248 49.2655 4.28008 48.6777C5.53631 47.9661 7.84229 49.3388 9.34637 48.9058Z" fill="#FF931E"/>
</svg>
