<svg width="78" height="77" viewBox="0 0 78 77" fill="none" xmlns="http://www.w3.org/2000/svg">
<path d="M3.80138 29.4411L0 76.9576H22.3143L17.2459 29.4411H3.80138ZM4.70727 18.1176L4.16374 24.9117H16.7627L16.038 18.1176H4.70727ZM70.9843 31.7058L58.855 46.3692V31.7058H52.6582L39.8724 47.0751V31.7058H33.6691L23.3755 44.2012L24.9415 58.8823H31.891V63.4117H25.4246L26.8741 76.9999H77.1851V31.7058H70.9843ZM45.4792 63.4117H36.4204V58.8823H45.4792V63.4117ZM59.0675 63.4117H50.0086V58.8823H59.0675V63.4117ZM72.6557 63.4117H63.5969V58.8823H72.6557V63.4117Z" fill="#FF931E"/>
<path d="M20.1082 13.5882L21.6329 27.8829C23.9792 27.6726 26.2133 26.7826 28.0615 25.322C30.1294 26.527 32.5008 27.1765 34.9086 27.1765C38.6557 27.1765 42.2039 25.6288 44.7497 22.9552C46.3777 23.7457 48.1626 24.1569 50.0067 24.1569C52.6611 24.1569 55.2374 23.2724 57.3271 21.6823C59.073 22.8011 61.1052 23.402 63.2175 23.402C69.2532 23.402 74.1635 18.4916 74.1635 12.4559C74.1635 6.42014 69.2532 1.5098 63.2175 1.5098C61.3443 1.51038 59.5025 1.99165 57.8685 2.90758C55.6959 1.04101 52.9236 0 50.0067 0C47.3591 0 44.7912 0.878706 42.7053 2.45962C40.4339 0.862098 37.7306 0 34.9086 0C31.0014 0 27.3377 1.66531 24.7777 4.53349C23.43 4.03181 22.0036 3.77479 20.5655 3.77451C14.6797 3.77451 9.76648 8.0074 8.70312 13.5882H20.1082Z" fill="#FF931E"/>
</svg>
