<svg width="88" height="88" viewBox="0 0 88 88" fill="none" xmlns="http://www.w3.org/2000/svg">
<path d="M62.436 0H25.564C9.548 0 0 9.548 0 25.564V62.436C0 78.452 9.548 88 25.564 88H62.436C78.452 88 88 78.452 88 62.436V25.564C88 9.548 78.452 0 62.436 0ZM35.068 56.76L25.168 66.66C24.508 67.32 23.672 67.628 22.836 67.628C22 67.628 21.12 67.32 20.504 66.66L17.204 63.36C15.884 62.084 15.884 59.972 17.204 58.696C18.48 57.42 20.548 57.42 21.868 58.696L22.836 59.664L30.404 52.096C31.68 50.82 33.748 50.82 35.068 52.096C36.344 53.372 36.344 55.484 35.068 56.76ZM35.068 25.96L25.168 35.86C24.508 36.52 23.672 36.828 22.836 36.828C22 36.828 21.12 36.52 20.504 35.86L17.204 32.56C15.884 31.284 15.884 29.172 17.204 27.896C18.48 26.62 20.548 26.62 21.868 27.896L22.836 28.864L30.404 21.296C31.68 20.02 33.748 20.02 35.068 21.296C36.344 22.572 36.344 24.684 35.068 25.96ZM68.464 64.328H45.364C43.56 64.328 42.064 62.832 42.064 61.028C42.064 59.224 43.56 57.728 45.364 57.728H68.464C69.3392 57.728 70.1786 58.0757 70.7975 58.6946C71.4163 59.3134 71.764 60.1528 71.764 61.028C71.764 61.9032 71.4163 62.7426 70.7975 63.3615C70.1786 63.9803 69.3392 64.328 68.464 64.328ZM68.464 33.528H45.364C43.56 33.528 42.064 32.032 42.064 30.228C42.064 28.424 43.56 26.928 45.364 26.928H68.464C69.3392 26.928 70.1786 27.2757 70.7975 27.8945C71.4163 28.5134 71.764 29.3528 71.764 30.228C71.764 31.1032 71.4163 31.9426 70.7975 32.5615C70.1786 33.1803 69.3392 33.528 68.464 33.528Z" fill="#FF931E"/>
</svg>
