<svg width="26" height="26" viewBox="0 0 26 26" fill="none" xmlns="http://www.w3.org/2000/svg">
<path d="M25.4439 5.23701C24.9549 3.02904 22.8145 1.00643 20.6004 0.576818C19.2517 0.307169 15.4888 -0.0259556 13 0.00146627C10.5112 -0.0259556 6.74832 0.307169 5.39957 0.576818C3.18551 1.00643 1.04508 3.02904 0.556055 5.23701C0.277773 6.57764 0.0040625 8.4017 0 10.8915C0.0040625 13.3813 0.277773 15.2049 0.556055 16.5455C1.04508 18.7535 3.18551 20.7761 5.39957 21.2057C6.12777 21.3514 7.5598 21.5155 9.11523 21.6312C9.29145 21.908 9.48238 22.2025 9.68906 22.5148C10.5143 23.7646 11.146 24.6355 11.6243 25.2423C12.4206 26.2523 13.5799 26.2523 14.3762 25.2423C14.8545 24.6355 15.4857 23.7646 16.3114 22.5148C16.5181 22.202 16.7086 21.908 16.8853 21.6312C18.4407 21.5155 19.8727 21.3514 20.6014 21.2057C22.8155 20.7761 24.9559 18.7535 25.445 16.5455C25.7232 15.2049 25.997 13.3813 26.001 10.8915C25.997 8.4017 25.7232 6.57815 25.445 5.23752L25.4439 5.23701ZM14.4356 18.4401C14.3807 18.7494 14.1004 19.0297 13.7912 19.0846C13.6038 19.1155 13.3484 19.145 12.9995 19.1455C12.6511 19.1455 12.3957 19.116 12.2078 19.0846C11.8986 19.0297 11.6182 18.7494 11.5634 18.4401C11.5324 18.2528 11.503 17.9973 11.5025 17.6485C11.5025 17.3001 11.5319 17.0447 11.5634 16.8568C11.6182 16.5475 11.8986 16.2672 12.2078 16.2124C12.3952 16.1814 12.6506 16.1519 12.9995 16.1514C13.3479 16.1514 13.6033 16.1809 13.7912 16.2124C14.1004 16.2672 14.3807 16.5475 14.4356 16.8568C14.4666 17.0442 14.496 17.2996 14.4965 17.6485C14.4965 17.9968 14.4671 18.2522 14.4356 18.4401ZM17.5271 10.1227C17.1351 10.6772 16.5476 11.1835 15.6782 11.7152C14.5778 12.3936 14.4016 12.6724 14.4016 13.2183V13.4341C14.4016 14.208 13.7719 14.8377 12.998 14.8377C12.2241 14.8377 11.5944 14.208 11.5944 13.4341V12.9339C11.5944 12.29 11.7554 11.7436 12.0864 11.2637C12.4074 10.7986 12.8883 10.3852 13.6018 9.96119C14.9165 9.1878 15.1572 8.75362 15.1572 8.17725C15.1572 7.45311 14.5402 6.9849 13.586 6.9849C12.5399 6.9849 11.8589 7.46022 11.5619 8.39815C11.3659 9.01666 10.793 9.43205 10.137 9.43205C10.1004 9.43205 10.0638 9.43053 10.0273 9.42799C9.56414 9.39448 9.14926 9.15428 8.88926 8.76885C8.6318 8.38748 8.56426 7.91877 8.70391 7.48256C9.02383 6.48522 9.63727 5.65545 10.4777 5.08264C11.3288 4.50272 12.4038 4.19651 13.5855 4.19651C14.7672 4.19651 15.9519 4.58803 16.7929 5.29897C17.6582 6.03072 18.135 7.03924 18.135 8.13967C18.135 8.89529 17.9364 9.54428 17.5271 10.1227Z" fill="#4C4C4C"/>
</svg>
