<svg width="25" height="22" viewBox="0 0 25 22" fill="none" xmlns="http://www.w3.org/2000/svg">
<path fill-rule="evenodd" clip-rule="evenodd" d="M17.9817 20.543H6.39199C5.84655 20.543 5.55562 21.2097 5.95212 21.6062C6.00976 21.6642 6.07829 21.7102 6.15378 21.7417C6.22926 21.7731 6.31021 21.7894 6.39199 21.7895H17.9817C18.5272 21.7895 18.8181 21.1228 18.4217 20.7264C18.364 20.6684 18.2955 20.6223 18.22 20.5908C18.1445 20.5594 18.0635 20.5431 17.9817 20.543ZM24.3737 15.6851H0V17.7379H24.3737V15.6849V15.6851ZM0 14.9996H24.3737V0H0V14.9996ZM1.56295 17.1207C1.5176 17.1213 1.4726 17.1128 1.43055 17.0959C1.3885 17.0789 1.35024 17.0538 1.31798 17.0219C1.28573 16.99 1.26011 16.9521 1.24263 16.9102C1.22515 16.8684 1.21615 16.8235 1.21615 16.7782C1.21615 16.7328 1.22515 16.6879 1.24263 16.6461C1.26011 16.6042 1.28573 16.5663 1.31798 16.5344C1.35024 16.5025 1.3885 16.4774 1.43055 16.4604C1.4726 16.4435 1.5176 16.435 1.56295 16.4356H1.64613C1.69147 16.435 1.73647 16.4435 1.77852 16.4604C1.82057 16.4774 1.85883 16.5025 1.89109 16.5344C1.92334 16.5663 1.94896 16.6042 1.96644 16.6461C1.98392 16.6879 1.99292 16.7328 1.99292 16.7782C1.99292 16.8235 1.98392 16.8684 1.96644 16.9102C1.94896 16.9521 1.92334 16.99 1.89109 17.0219C1.85883 17.0538 1.82057 17.0789 1.77852 17.0959C1.73647 17.1128 1.69147 17.1213 1.64613 17.1207H1.56295ZM13.9845 19.8575V18.4231H10.3892V19.8575H13.9845ZM11.844 9.76828L8.7555 7.98444V4.41548L11.844 6.19861V9.76853V9.76828ZM12.3851 10.6393C12.3271 10.6805 12.2578 10.7026 12.1867 10.7026C12.1156 10.7026 12.0463 10.6805 11.9883 10.6393L10.1285 9.56632L8.26343 8.48951C8.20556 8.46142 8.15677 8.41759 8.12264 8.36306C8.08851 8.30853 8.07043 8.24549 8.07046 8.18116V3.82362H8.07122C8.07123 3.76371 8.08699 3.70484 8.11692 3.65294C8.14685 3.60103 8.18989 3.5579 8.24175 3.52788L10.1287 2.43867L12.0116 1.35149C12.064 1.32028 12.1237 1.30361 12.1846 1.30322C12.2455 1.30283 12.3054 1.31872 12.3581 1.34926L16.11 3.51543C16.1679 3.54354 16.2167 3.58736 16.2508 3.64189C16.2849 3.69642 16.303 3.75945 16.303 3.82378V8.18132H16.3023C16.3023 8.24124 16.2865 8.3001 16.2566 8.35201C16.2266 8.40392 16.1836 8.44705 16.1317 8.47707L14.245 9.56648L14.2446 9.56587L12.3853 10.6394L12.3851 10.6393ZM15.6178 4.41543V7.98444L13.9022 8.97467L13.9025 8.97523L12.5293 9.76808V6.19816L15.6178 4.41502V4.41543ZM12.1868 5.60869L9.09599 3.82418L12.1868 2.03968L15.2777 3.82418L12.1868 5.60869ZM12.4314 13.5945C12.4204 13.6057 12.4087 13.6161 12.3963 13.6257L12.3902 13.6303L12.388 13.6319L12.3837 13.6351L12.3807 13.6372L12.377 13.6396L12.3735 13.642L12.3698 13.6443L12.367 13.6461L12.3616 13.6493L12.3605 13.65L12.3545 13.6535L12.3528 13.6544L12.3473 13.6574L12.3454 13.6584L12.3388 13.6617C12.2916 13.685 12.2397 13.6971 12.187 13.6971C12.1344 13.6971 12.0825 13.685 12.0353 13.6617L12.0287 13.6584L12.0268 13.6574L12.0212 13.6544L12.0196 13.6535L12.0136 13.65L12.0125 13.6493L12.0071 13.6461L12.0043 13.6443L12.0006 13.642L11.9971 13.6396L11.9934 13.6372L11.9904 13.6351L11.9861 13.6319L11.9839 13.6303L11.9778 13.6257C11.9654 13.6161 11.9536 13.6057 11.9427 13.5945L10.9589 12.611C10.8947 12.5468 10.8586 12.4596 10.8586 12.3688C10.8586 12.2779 10.8947 12.1908 10.9589 12.1265C11.0232 12.0623 11.1103 12.0262 11.2012 12.0262C11.292 12.0262 11.3792 12.0623 11.4434 12.1265L11.8442 12.5273V11.4254C11.8442 11.3345 11.8803 11.2474 11.9446 11.1831C12.0088 11.1189 12.096 11.0828 12.1868 11.0828C12.2777 11.0828 12.3649 11.1189 12.4291 11.1831C12.4934 11.2474 12.5295 11.3345 12.5295 11.4254V12.5273L12.9303 12.1265C12.9945 12.0623 13.0817 12.0262 13.1725 12.0262C13.2634 12.0262 13.3505 12.0623 13.4148 12.1265C13.479 12.1908 13.5151 12.2779 13.5151 12.3688C13.5151 12.4596 13.479 12.5468 13.4147 12.611L12.4314 13.5943V13.5945ZM6.7048 2.44364L7.6605 2.99538C7.73894 3.0405 7.79624 3.11493 7.8198 3.2023C7.84336 3.28966 7.83125 3.38281 7.78614 3.46125C7.7638 3.50009 7.73403 3.53415 7.69852 3.56148C7.66302 3.58881 7.62248 3.60888 7.57922 3.62055C7.49186 3.64411 7.39871 3.632 7.32027 3.58688L6.36345 3.03448L6.51071 3.58465C6.52258 3.62814 6.52573 3.67355 6.51998 3.71826C6.51424 3.76298 6.49972 3.80612 6.47725 3.8452C6.45479 3.88428 6.42482 3.91854 6.38907 3.94601C6.35332 3.97347 6.3125 3.9936 6.26894 4.00524C6.22539 4.01688 6.17997 4.0198 6.13528 4.01383C6.0906 4.00785 6.04753 3.99311 6.00857 3.97044C5.9696 3.94778 5.93549 3.91763 5.90821 3.88174C5.88093 3.84585 5.86101 3.80493 5.84959 3.76132L5.48905 2.41485C5.46562 2.32719 5.47797 2.23382 5.52339 2.15527C5.56881 2.07673 5.64357 2.01944 5.73122 1.99601L7.07769 1.63521C7.16518 1.61231 7.25819 1.62498 7.33637 1.67045C7.41455 1.71593 7.47154 1.79051 7.49489 1.87789C7.51824 1.96526 7.50605 2.05833 7.46097 2.13674C7.4159 2.21515 7.34161 2.27253 7.25436 2.29633L6.7046 2.44359L6.7048 2.44364ZM18.01 3.03448L17.0532 3.58688C17.0143 3.60921 16.9715 3.62366 16.927 3.62942C16.8826 3.63518 16.8375 3.63214 16.7942 3.62046C16.751 3.60878 16.7105 3.5887 16.675 3.56136C16.6395 3.53402 16.6097 3.49996 16.5874 3.46112C16.5651 3.42228 16.5506 3.37943 16.5449 3.335C16.5391 3.29058 16.5422 3.24546 16.5538 3.20221C16.5655 3.15896 16.5856 3.11843 16.6129 3.08295C16.6403 3.04746 16.6743 3.01771 16.7132 2.99538L17.6689 2.44364L17.1191 2.29638C17.0319 2.27258 16.9576 2.21521 16.9125 2.13679C16.8674 2.05838 16.8552 1.96531 16.8786 1.87794C16.9019 1.79056 16.9589 1.71598 17.0371 1.6705C17.1153 1.62503 17.2083 1.61236 17.2958 1.63526L18.6423 1.99606C18.7299 2.01949 18.8047 2.07678 18.8501 2.15532C18.8955 2.23387 18.9079 2.32725 18.8844 2.4149L18.5239 3.76137C18.5125 3.80498 18.4925 3.84591 18.4653 3.88179C18.438 3.91768 18.4039 3.94783 18.3649 3.9705C18.3259 3.99316 18.2829 4.0079 18.2382 4.01388C18.1935 4.01985 18.1481 4.01693 18.1045 4.00529C18.061 3.99365 18.0202 3.97352 17.9844 3.94606C17.9487 3.91859 17.9187 3.88433 17.8962 3.84525C17.8738 3.80617 17.8592 3.76303 17.8535 3.71831C17.8478 3.6736 17.8509 3.62819 17.8628 3.5847L18.01 3.03454L18.01 3.03448ZM1.97696 13.7434C1.93162 13.744 1.88662 13.7355 1.84457 13.7186C1.80252 13.7016 1.76426 13.6764 1.732 13.6446C1.69975 13.6127 1.67413 13.5748 1.65665 13.5329C1.63917 13.4911 1.63017 13.4462 1.63017 13.4008C1.63017 13.3555 1.63917 13.3106 1.65665 13.2688C1.67413 13.2269 1.69975 13.189 1.732 13.1571C1.76426 13.1252 1.80252 13.1001 1.84457 13.0831C1.88662 13.0661 1.93162 13.0577 1.97696 13.0582H4.69559C4.74093 13.0577 4.78593 13.0661 4.82798 13.0831C4.87003 13.1001 4.90829 13.1252 4.94055 13.1571C4.97281 13.189 4.99842 13.2269 5.0159 13.2688C5.03338 13.3106 5.04238 13.3555 5.04238 13.4008C5.04238 13.4462 5.03338 13.4911 5.0159 13.5329C4.99842 13.5748 4.97281 13.6127 4.94055 13.6446C4.90829 13.6764 4.87003 13.7016 4.82798 13.7186C4.78593 13.7355 4.74093 13.744 4.69559 13.7434H1.97696ZM1.97696 12.0951C1.93162 12.0957 1.88662 12.0872 1.84457 12.0703C1.80252 12.0533 1.76426 12.0281 1.732 11.9963C1.69975 11.9644 1.67413 11.9265 1.65665 11.8846C1.63917 11.8428 1.63017 11.7979 1.63017 11.7525C1.63017 11.7072 1.63917 11.6623 1.65665 11.6205C1.67413 11.5786 1.69975 11.5407 1.732 11.5088C1.76426 11.4769 1.80252 11.4518 1.84457 11.4348C1.88662 11.4178 1.93162 11.4094 1.97696 11.4099H4.69559C4.74093 11.4094 4.78593 11.4178 4.82798 11.4348C4.87003 11.4518 4.90829 11.4769 4.94055 11.5088C4.97281 11.5407 4.99842 11.5786 5.0159 11.6205C5.03338 11.6623 5.04238 11.7072 5.04238 11.7525C5.04238 11.7979 5.03338 11.8428 5.0159 11.8846C4.99842 11.9265 4.97281 11.9644 4.94055 11.9963C4.90829 12.0281 4.87003 12.0533 4.82798 12.0703C4.78593 12.0872 4.74093 12.0957 4.69559 12.0951H1.97696Z" fill="#636363"/>
</svg>
