<svg width="23" height="25" viewBox="0 0 23 25" fill="none" xmlns="http://www.w3.org/2000/svg">
<path fill-rule="evenodd" clip-rule="evenodd" d="M3.50629 24.3751C2.0185 24.3751 0.8125 23.1691 0.812449 21.6813C0.812449 20.642 1.65445 19.8 2.69379 19.8C2.98474 19.7994 3.2718 19.8667 3.53219 19.9965C4.13852 20.2991 4.85433 19.8563 4.85433 19.1787V8.10357H11.2415L10.1783 11.4487H8.93872C8.6317 11.4487 8.38058 11.6999 8.38058 12.0069C8.38058 12.3139 8.63175 12.5651 8.93872 12.5651H9.82348L9.32593 14.1306L9.81952 17.4463L11.3709 12.5651H15.7572L17.3085 17.4463L17.8021 14.1306L17.3046 12.5651H18.1894C18.4964 12.5651 18.7475 12.3139 18.7475 12.0069C18.7475 11.6999 18.4964 11.4487 18.1894 11.4487H16.9498L15.8867 8.10357H21.9041C22.1838 8.10357 22.4119 8.33168 22.4119 8.61138V23.8673C22.4119 24.147 22.1838 24.3751 21.9041 24.3751H3.50629ZM14.2164 1.56894C15.1117 1.84681 15.762 2.68166 15.762 3.66844C15.762 4.33123 15.4686 4.92548 15.0046 5.32843L15.8786 8.07818H14.3312L13.6279 5.86528C13.5852 5.8665 13.5429 5.8665 13.5002 5.86528L12.7969 8.07818H11.2495L12.1235 5.32838C11.6595 4.92538 11.3661 4.33118 11.3661 3.66839C11.3661 2.68161 12.0164 1.84676 12.9117 1.56889V0.652285C12.9117 0.293566 13.2053 0 13.564 0C13.9228 0 14.2163 0.293516 14.2163 0.652285V1.56894H14.2164ZM13.5641 2.69527C13.0266 2.69527 12.5909 3.13097 12.5909 3.66844C12.5909 4.20591 13.0266 4.64161 13.5641 4.64161C14.1015 4.64161 14.5373 4.20591 14.5373 3.66844C14.5373 3.13097 14.1015 2.69527 13.5641 2.69527ZM8.96538 19.3727V21.8858H17.9126V19.3727H8.96538ZM8.15293 21.8858V19.3727H7.68C7.10328 19.3727 6.63289 19.8431 6.63289 20.4199V20.8387C6.63289 21.4154 7.10328 21.8858 7.68 21.8858H8.15293ZM18.7251 19.6072V21.6512L20.343 20.7172C20.4105 20.6782 20.4105 20.5803 20.343 20.5413L18.7251 19.6072ZM0 21.6813C0 20.1935 1.20605 18.9875 2.69379 18.9875C3.12543 18.9875 3.53336 19.089 3.89497 19.2695C3.91045 19.2773 3.92766 19.281 3.94497 19.2802C3.96228 19.2795 3.9791 19.2743 3.99383 19.2652C4.00857 19.2561 4.02072 19.2433 4.02913 19.2282C4.03754 19.213 4.04193 19.196 4.04188 19.1787V5.77093C3.74903 5.58736 3.10995 5.42059 2.69379 5.40978C1.70468 5.38403 0 6.61583 0 8.10357V21.6813ZM15.4024 11.4487L14.3393 8.10357H12.7889L11.7257 11.4487H15.4024Z" fill="#4C4C4C"/>
</svg>
