<svg width="19" height="24" viewBox="0 0 19 24" fill="none" xmlns="http://www.w3.org/2000/svg">
<path d="M3.69689 9.16463C3.77625 9.16467 3.85382 9.14108 3.91973 9.09688C3.98564 9.05267 4.0369 8.98985 4.06698 8.91641H7.76386C7.96262 8.98579 8.16632 9.0401 8.37323 9.07891V9.73379H10.3123V9.28976C12.9029 9.92026 12.9557 13.0273 12.9561 13.1784H12.3943V15.1174H14.3333V13.1784H13.7719C13.7475 12.3592 13.5645 11.5525 13.2328 10.803C12.8928 10.0183 12.3169 9.35892 11.585 8.91641H14.6222C14.6574 9.0022 14.7214 9.07309 14.8031 9.11697C14.8849 9.16086 14.9793 9.17502 15.0703 9.15703C15.1613 9.13905 15.2432 9.09005 15.3021 9.01838C15.361 8.94671 15.3932 8.85683 15.3932 8.76407C15.3932 8.67131 15.361 8.58143 15.3021 8.50976C15.2432 8.43809 15.1613 8.38909 15.0703 8.37111C14.9793 8.35312 14.8849 8.36728 14.8031 8.41117C14.7214 8.45505 14.6574 8.52594 14.6222 8.61173H10.9253C10.7265 8.54257 10.5228 8.48826 10.3159 8.44923V7.79476H8.37445V8.23879C5.78339 7.60788 5.73058 4.50129 5.73017 4.35016H6.29323V2.41113H4.3542V4.35016H4.91564C4.94006 5.16935 5.12314 5.97603 5.45473 6.72551C5.79494 7.51072 6.37148 8.17033 7.10411 8.61254H4.06698C4.03937 8.5454 3.99404 8.48702 3.93582 8.44365C3.8776 8.40028 3.80869 8.37355 3.73645 8.36632C3.66422 8.35908 3.59138 8.37161 3.52571 8.40256C3.46005 8.43352 3.40403 8.48174 3.36365 8.54207C3.32327 8.6024 3.30004 8.67257 3.29645 8.74508C3.29286 8.81758 3.30904 8.8897 3.34327 8.95372C3.37749 9.01775 3.42847 9.07126 3.49076 9.10856C3.55304 9.14585 3.62429 9.16551 3.69689 9.16545V9.16463Z" fill="#636363"/>
<path d="M18.2812 16.7253V6.04338L18.1622 5.92434L12.3569 0.119031L12.2379 0H2.03125C1.60027 0 1.18695 0.171205 0.882201 0.475951C0.577455 0.780698 0.40625 1.19402 0.40625 1.625V15.3327C0.283084 15.4034 0.180698 15.5052 0.109385 15.628C0.0380721 15.7508 0.000345937 15.8902 0 16.0322V21.9375C0.000645067 22.476 0.214858 22.9923 0.595652 23.3731C0.976445 23.7539 1.49273 23.9681 2.03125 23.9688H16.6562C17.1948 23.9681 17.7111 23.7539 18.0918 23.3731C18.4726 22.9923 18.6869 22.476 18.6875 21.9375V17.4253C18.6872 17.2832 18.6495 17.1437 18.5782 17.0208C18.5069 16.898 18.4045 16.796 18.2812 16.7253ZM7.58144 22.0691C7.30645 22.2733 6.96825 22.374 6.62634 22.3535C6.35522 22.3518 6.0892 22.2796 5.85447 22.1439C5.72336 22.074 5.60618 21.9806 5.50875 21.8684C5.40044 21.7391 5.31324 21.5935 5.25037 21.437L5.89834 21.1526C5.93511 21.2327 5.97747 21.3101 6.02509 21.3842C6.06791 21.4511 6.12064 21.5111 6.1815 21.5621C6.24185 21.6121 6.31064 21.6509 6.38462 21.6767C6.4684 21.7053 6.55653 21.719 6.64503 21.7173C6.71227 21.7174 6.77935 21.7109 6.84531 21.6978C6.90632 21.6863 6.96478 21.664 7.01797 21.632C7.06834 21.6011 7.10957 21.5574 7.13741 21.5053C7.16919 21.4424 7.18443 21.3725 7.18169 21.3021C7.17984 21.24 7.16177 21.1794 7.12927 21.1264C7.09678 21.0733 7.05098 21.0297 6.99644 20.9999C6.84215 20.9001 6.67695 20.8183 6.50406 20.7561C6.20159 20.6533 5.91714 20.5036 5.66109 20.3125C5.56332 20.2277 5.48614 20.1217 5.43539 20.0026C5.38464 19.8835 5.36166 19.7544 5.36819 19.6251C5.36579 19.4874 5.39541 19.351 5.45469 19.2266C5.51398 19.1023 5.60132 18.9934 5.70984 18.9085C5.95093 18.7145 6.2537 18.6136 6.56297 18.6241C6.83486 18.6199 7.10242 18.6926 7.33484 18.8337C7.44989 18.9034 7.55202 18.9925 7.63669 19.097C7.73495 19.2218 7.81547 19.3596 7.87597 19.5065L7.15894 19.7259C7.10908 19.5989 7.03357 19.4835 6.93713 19.3871C6.83343 19.2957 6.69767 19.2492 6.55972 19.2579C6.50632 19.258 6.45309 19.2638 6.40088 19.2749C6.34983 19.2853 6.30065 19.3034 6.25503 19.3286C6.20831 19.3538 6.16958 19.3916 6.14323 19.4377C6.11688 19.4838 6.10396 19.5363 6.10594 19.5894C6.10654 19.6402 6.12286 19.6896 6.15266 19.7308C6.19474 19.786 6.24876 19.831 6.31069 19.8624C6.47956 19.9556 6.65628 20.0339 6.83881 20.0964C7.10608 20.1858 7.35652 20.3193 7.57981 20.4912C7.69469 20.5793 7.78603 20.6943 7.84571 20.8261C7.90539 20.9579 7.93155 21.1025 7.92188 21.2469C7.93058 21.4007 7.90449 21.5545 7.84555 21.6969C7.78661 21.8392 7.69634 21.9665 7.58144 22.0691ZM10.7843 19.3391H9.86294V22.3048H9.08781V19.3375H8.17131V18.6761H10.7843V19.3391ZM13.4656 22.3048H11.1601V18.6761H11.9348V21.6418H13.4656V22.3048ZM17.4688 16.6128H8.56619L7.59119 15.4972C7.51493 15.4101 7.42093 15.3402 7.31549 15.2924C7.21004 15.2445 7.09558 15.2198 6.97978 15.2198H1.21875V1.625C1.21875 1.40951 1.30435 1.20285 1.45673 1.05048C1.6091 0.898102 1.81576 0.8125 2.03125 0.8125H11.6634V4.99281C11.6634 5.42379 11.8346 5.83711 12.1394 6.14186C12.4441 6.44661 12.8575 6.61781 13.2884 6.61781H17.4688V16.6128Z" fill="#636363"/>
</svg>
