<svg width="26" height="26" viewBox="0 0 26 26" fill="none" xmlns="http://www.w3.org/2000/svg">
<path fill-rule="evenodd" clip-rule="evenodd" d="M9.61173 24.1762C9.35982 24.1762 9.15542 23.9718 9.15542 23.7199C9.15542 22.7885 8.39825 22.0328 7.46834 22.0328C6.53843 22.0328 5.78126 22.7885 5.78126 23.7199C5.78126 23.9718 5.57685 24.1762 5.32494 24.1762C5.07159 24.1762 4.86719 23.9718 4.86719 23.7199V10.681C4.86719 9.24582 6.03461 8.07983 7.46834 8.07983C8.90207 8.07983 10.0695 9.24582 10.0695 10.681V23.7199C10.0681 23.9718 9.86364 24.1762 9.61173 24.1762Z" fill="#636363"/>
<path fill-rule="evenodd" clip-rule="evenodd" d="M25.4141 25.9928H7.14129C6.18691 25.9928 5.36784 25.4012 5.03244 24.5663C5.12457 24.5979 5.22246 24.6152 5.3261 24.6152C5.81984 24.6152 6.22146 24.2136 6.22146 23.7199C6.22146 23.0318 6.78142 22.4718 7.46949 22.4718C8.15757 22.4718 8.71753 23.0318 8.71753 23.7199C8.71753 24.2136 9.11771 24.6152 9.61289 24.6152C10.1081 24.6152 10.5082 24.2136 10.5082 23.7199V10.681C10.5082 10.5255 10.4967 10.3729 10.4737 10.2232H25.4141C25.666 10.2232 25.8704 10.4276 25.8704 10.681V25.535C25.8704 25.787 25.666 25.9928 25.4141 25.9928ZM24.4569 24.1589C24.5879 24.1589 24.6944 24.0524 24.6944 23.9214V12.2947C24.6944 12.1637 24.5879 12.0571 24.4569 12.0571H11.9233C11.7923 12.0571 11.6857 12.1637 11.6857 12.2947V23.9214C11.6857 24.0524 11.7923 24.1589 11.9233 24.1589H18.1893H24.4569ZM12.1608 23.6839V18.3448H17.9518V18.8098C17.9518 18.9408 18.0584 19.0473 18.1893 19.0473C18.3203 19.0473 18.4269 18.9408 18.4269 18.8098V15.568C18.4269 15.437 18.3203 15.3305 18.1893 15.3305C18.0584 15.3305 17.9518 15.437 17.9518 15.568V17.8698H12.1608V12.5322H17.9518V13.6982C17.9518 13.8291 18.0584 13.9357 18.1893 13.9357C18.3203 13.9357 18.4269 13.8291 18.4269 13.6982V12.5322H24.2179V17.8698H20.9344C20.8035 17.8698 20.6969 17.9763 20.6969 18.1073C20.6969 18.2397 20.8035 18.3448 20.9344 18.3448H24.2179V23.6839H18.4269V21.4181H21.4311C21.5621 21.4181 21.6686 21.3116 21.6686 21.1806C21.6686 21.0482 21.5621 20.9416 21.4311 20.9416H18.1879C18.185 20.9416 18.1821 20.9431 18.1793 20.9431C18.0785 20.946 18.0123 20.9992 17.9792 21.0698C17.9619 21.1029 17.9518 21.1403 17.9518 21.1806V23.6839H12.1608ZM0.991806 6.18115V4.97918C0.991806 3.10209 2.35212 1.49275 4.16012 1.14295V0.456317C4.16012 0.204407 4.36452 0 4.61787 0H6.52663C6.77854 0 6.98439 0.204407 6.98439 0.456317V1.14295C8.79094 1.49275 10.1527 3.10209 10.1527 4.97918V6.18115H0.991806ZM5.57225 4.95759C6.34957 4.95759 6.98295 4.32422 6.98295 3.54689C6.98295 2.76957 6.34957 2.1362 5.57225 2.1362C4.79493 2.1362 4.16155 2.76957 4.16155 3.54689C4.16155 4.32422 4.79493 4.95759 5.57225 4.95759ZM5.57225 2.61123C6.08759 2.61123 6.50792 3.03156 6.50792 3.54689C6.50792 4.06367 6.08759 4.48256 5.57225 4.48256C5.05548 4.48256 4.63658 4.06223 4.63658 3.54689C4.63658 3.03156 5.05548 2.61123 5.57225 2.61123ZM10.6867 7.53283H0.457757C0.204407 7.53283 0 7.32842 0 7.07651C0 6.8246 0.204407 6.6202 0.457757 6.6202H10.6867C10.9387 6.6202 11.1445 6.8246 11.1445 7.07651C11.1445 7.32842 10.9387 7.53283 10.6867 7.53283ZM22.1882 9.24294H20.6624C20.4537 9.24294 20.2723 9.10187 20.2205 8.90034L19.8951 7.64799C19.7829 7.59041 19.6749 7.52851 19.5698 7.45942L18.3218 7.80489C18.1217 7.85959 17.9086 7.77323 17.805 7.59329L17.0421 6.2704C16.937 6.09047 16.9687 5.86303 17.1169 5.7162L18.0396 4.80788C18.0368 4.74599 18.0339 4.68265 18.0339 4.62075C18.0339 4.55885 18.0368 4.49695 18.0396 4.43362L17.1169 3.5253C16.9687 3.37991 16.937 3.15104 17.0421 2.9711L17.805 1.64965C17.9086 1.46972 18.1217 1.38191 18.3218 1.43805L19.5698 1.78208C19.6749 1.71299 19.7829 1.65109 19.8951 1.59495L20.2205 0.341158C20.2723 0.13963 20.4537 0 20.6624 0H22.1882C22.397 0 22.5783 0.13963 22.6302 0.341158L22.9569 1.59495C23.0678 1.65109 23.1757 1.71299 23.2808 1.78208L24.5288 1.43805C24.7289 1.38191 24.942 1.46972 25.0456 1.64965L25.81 2.9711C25.9136 3.15104 25.882 3.37847 25.7337 3.5253L24.811 4.43362C24.8153 4.49695 24.8167 4.55885 24.8167 4.62075C24.8167 4.68265 24.8153 4.74599 24.811 4.80788L25.7337 5.7162C25.882 5.86303 25.9136 6.09047 25.8085 6.2704L25.0456 7.59329C24.942 7.77323 24.7289 7.85959 24.5288 7.80489L23.2808 7.45942C23.1757 7.52851 23.0678 7.59041 22.9569 7.64799L22.6302 8.90034C22.5783 9.10187 22.397 9.24294 22.1882 9.24294ZM21.4253 6.21426C22.3034 6.21426 23.0188 5.49884 23.0188 4.62075C23.0188 3.74266 22.3034 3.02724 21.4253 3.02724C20.5472 3.02724 19.8318 3.74266 19.8318 4.62075C19.8318 5.49884 20.5472 6.21426 21.4253 6.21426ZM21.4253 3.50371C22.0414 3.50371 22.5438 4.00465 22.5438 4.62075C22.5438 5.23685 22.0414 5.73923 21.4253 5.73923C20.8092 5.73923 20.3083 5.23685 20.3083 4.62075C20.3083 4.00465 20.8092 3.50371 21.4253 3.50371ZM0 9.79138V8.52608C0 8.27417 0.204407 8.06976 0.457757 8.06976H2.9711C3.22301 8.06976 3.42742 8.27417 3.42742 8.52608V9.79138H0.453438H0ZM0 21.1345V13.1339H3.42742V21.1345C3.2921 21.0539 3.13376 21.0093 2.9711 21.0093H0.457757C0.293655 21.0093 0.136751 21.0539 0 21.1345ZM1.71443 25.9928C1.51866 25.9928 1.34592 25.869 1.28258 25.6848L0.0259108 22.0544C-0.0230318 21.9147 -0.00143949 21.7607 0.0849297 21.6398C0.171299 21.5189 0.30949 21.4483 0.457757 21.4483H2.9711C3.11937 21.4483 3.25756 21.5189 3.34393 21.6398C3.42886 21.7607 3.45045 21.9147 3.40295 22.0544L2.14627 25.6848C2.0815 25.869 1.90876 25.9928 1.71443 25.9928ZM0 12.6948V10.229H3.42742V12.6948H0Z" fill="#636363"/>
</svg>
