<svg width="26" height="26" viewBox="0 0 26 26" fill="none" xmlns="http://www.w3.org/2000/svg">
<path d="M22.7906 0H3.20938C1.44071 0 0 1.43056 0 3.20978V11.3678C0 13.147 1.44071 14.5776 3.20938 14.5776H5.71121V12.184C5.75148 11.1734 7.19479 11.1742 7.23465 12.184V14.5776H8.97477V12.184C9.01504 11.1734 10.4583 11.1742 10.4982 12.184V14.5776H12.2383V12.184C12.2786 11.1734 13.7219 11.1742 13.7617 12.184V13.8048C16.7116 10.7118 22.0058 10.6404 25.0371 13.6603C25.6314 13.0776 26 12.266 26 11.3678V3.20978C26 1.43736 24.566 0 22.7906 0ZM14.5776 8.92054C14.5776 9.34121 14.2365 9.68226 13.8159 9.68226H5.65703C5.23636 9.68226 4.89531 9.34121 4.89531 8.92054V5.65698C4.89531 5.23631 5.23636 4.89526 5.65703 4.89526H13.8159C14.2366 4.89526 14.5776 5.23631 14.5776 5.65698L14.5776 8.92054ZM20.343 9.68226C19.0232 9.68226 17.9495 8.60854 17.9495 7.28879C18.081 4.11343 22.6054 4.1144 22.7365 7.28879C22.7364 8.60859 21.6627 9.68226 20.343 9.68226Z" fill="#636363"/>
<path d="M20.3461 6.4187C19.8664 6.4187 19.4761 6.80906 19.4761 7.28879C19.5238 8.44304 21.1685 8.44264 21.2162 7.28879C21.2161 6.80901 20.8258 6.4187 20.3461 6.4187ZM6.42188 6.4187H13.0573V8.15882H6.42188V6.4187ZM19.4761 12.9458C15.877 12.9458 12.949 15.8739 12.949 19.4729C13.3075 28.132 25.6459 28.1294 26.0032 19.4728C26.0031 15.8739 23.0751 12.9458 19.4761 12.9458ZM21.9237 20.2346H19.4761C19.0554 20.2346 18.7143 19.8936 18.7143 19.4729V16.2093C18.7546 15.1987 20.1979 15.1994 20.2378 16.2093V18.7112H21.9237C22.9344 18.7514 22.9336 20.1947 21.9237 20.2346Z" fill="#636363"/>
</svg>
