<svg width="13" height="13" viewBox="0 0 13 13" fill="none" xmlns="http://www.w3.org/2000/svg">
<path d="M8.68611 3.67557C8.23657 1.58766 7.27784 0.266741 6.39111 0.266741C5.50439 0.266741 4.54566 1.58766 4.09612 3.67557H8.68611ZM3.83449 6.2322C3.83438 6.80224 3.87239 7.37165 3.94826 7.93661H8.83397C8.90983 7.37165 8.94784 6.80224 8.94774 6.2322C8.94784 5.66216 8.90983 5.09275 8.83397 4.52778H3.94826C3.87239 5.09275 3.83438 5.66216 3.83449 6.2322ZM4.09612 8.78882C4.54566 10.8767 5.50439 12.1977 6.39111 12.1977C7.27784 12.1977 8.23657 10.8767 8.68611 8.78882H4.09612ZM9.55877 3.67557H12.2432C11.8399 2.75764 11.227 1.94702 10.4538 1.30871C9.68061 0.670402 8.76858 0.222181 7.79086 0C8.59918 0.711168 9.23323 2.02612 9.55877 3.67557ZM12.5496 4.52778H9.6947C9.76499 5.0932 9.80014 5.66243 9.79995 6.2322C9.8 6.80198 9.76471 7.37121 9.69427 7.93661H12.5492C12.8599 6.82158 12.8603 5.64281 12.5496 4.52778ZM7.79086 12.4644C8.76873 12.2423 9.68094 11.7942 10.4543 11.1559C11.2277 10.5175 11.8406 9.70685 12.2441 8.78882H9.55962C9.23323 10.4383 8.59918 11.7532 7.79086 12.4644ZM3.22346 8.78882H0.539001C0.942433 9.70685 1.55542 10.5175 2.32878 11.1559C3.10214 11.7942 4.01435 12.2423 4.99221 12.4644C4.18304 11.7532 3.549 10.4383 3.22346 8.78882ZM4.99136 0C4.0135 0.222061 3.10129 0.670226 2.32793 1.30854C1.55457 1.94685 0.94158 2.75755 0.538149 3.67557H3.2226C3.549 2.02612 4.18304 0.711168 4.99136 0ZM2.98228 6.2322C2.98223 5.66242 3.01752 5.09319 3.08796 4.52778H0.233058C-0.0776861 5.64281 -0.0776861 6.82158 0.233058 7.93661H3.08796C3.01752 7.37121 2.98223 6.80198 2.98228 6.2322Z" fill="white"/>
</svg>
