<svg width="24" height="26" viewBox="0 0 24 26" fill="none" xmlns="http://www.w3.org/2000/svg">
<path d="M22.9394 19.7833L12.0367 25.9025C11.9229 25.9664 11.7945 26 11.6639 26C11.5334 26 11.405 25.9664 11.2912 25.9025L0.388477 19.7833C-0.13 19.4929 -0.128984 18.7449 0.388477 18.4549L3.1002 16.933L10.5457 21.1118C10.8873 21.3035 11.2723 21.4042 11.6639 21.4042C12.0556 21.4042 12.4406 21.3035 12.7821 21.1118L20.2277 16.933L22.9394 18.4549C23.4579 18.7454 23.4569 19.4934 22.9394 19.7833Z" fill="#FF931E"/>
<path d="M22.9394 12.3358L20.2277 10.8138L12.7821 14.9926C12.4406 15.1843 12.0556 15.2849 11.6639 15.2849C11.2723 15.2849 10.8873 15.1843 10.5457 14.9926L3.1002 10.8138L0.388477 12.3358C-0.128984 12.6257 -0.13 13.3737 0.388477 13.6642L11.2912 19.7833C11.405 19.8473 11.5334 19.8808 11.6639 19.8808C11.7945 19.8808 11.9229 19.8473 12.0367 19.7833L22.9394 13.6642C23.4569 13.3742 23.4579 12.6262 22.9394 12.3358ZM4.93035 14.6666C4.50938 14.6666 4.16863 14.3254 4.16863 13.9049C4.16863 13.4839 4.50938 13.1432 4.93035 13.1432C5.35082 13.1432 5.69207 13.4839 5.69207 13.9049C5.69207 14.3254 5.35082 14.6666 4.93035 14.6666ZM8.17375 16.5531C7.75277 16.5531 7.41203 16.2119 7.41203 15.7914C7.41203 15.3704 7.75277 15.0297 8.17375 15.0297C8.59422 15.0297 8.93547 15.3704 8.93547 15.7914C8.93547 16.2119 8.59422 16.5531 8.17375 16.5531ZM11.6639 18.3203C11.2435 18.3203 10.9022 17.9796 10.9022 17.5586C10.9022 17.1381 11.2435 16.7969 11.6639 16.7969C12.0844 16.7969 12.4257 17.1381 12.4257 17.5586C12.4257 17.9796 12.0844 18.3203 11.6639 18.3203ZM15.1541 16.5531C14.7337 16.5531 14.3924 16.2119 14.3924 15.7914C14.3924 15.3704 14.7337 15.0297 15.1541 15.0297C15.5751 15.0297 15.9159 15.3704 15.9159 15.7914C15.9159 16.2119 15.5751 16.5531 15.1541 16.5531ZM18.3975 14.6666C17.9771 14.6666 17.6358 14.3254 17.6358 13.9049C17.6358 13.4839 17.9771 13.1432 18.3975 13.1432C18.8185 13.1432 19.1593 13.4839 19.1593 13.9049C19.1593 14.3254 18.8185 14.6666 18.3975 14.6666Z" fill="#FF931E"/>
<path d="M22.9394 7.54508L12.0367 13.6642C11.9229 13.7281 11.7945 13.7617 11.6639 13.7617C11.5334 13.7617 11.405 13.7281 11.2912 13.6642L0.388477 7.54508C-0.13 7.25461 -0.128984 6.5066 0.388477 6.21664L11.2912 0.0975008C11.405 0.0335757 11.5334 0 11.6639 0C11.7945 0 11.9229 0.0335757 12.0367 0.0975008L22.9394 6.21664C23.4579 6.50711 23.4569 7.25512 22.9394 7.54508Z" fill="#FF931E"/>
</svg>
