<svg width="24" height="24" viewBox="0 0 24 24" fill="none" xmlns="http://www.w3.org/2000/svg">
<path fill-rule="evenodd" clip-rule="evenodd" d="M15.5625 22.6875H1.3125C0.5625 22.6875 0 22.0781 0 21.375V1.3125C0 0.609375 0.609375 0 1.3125 0H15.5625C16.3125 0 16.875 0.609375 16.875 1.3125V10.2656C14.8125 8.85938 12 9.14062 10.1719 10.9688C8.15625 12.9844 8.20312 16.4062 10.2656 18.4219C12.0469 20.1562 14.8125 20.3906 16.875 19.0312V21.375C16.875 22.0781 16.3125 22.6875 15.5625 22.6875ZM9 20.3438H2.57812C2.15625 20.3438 2.15625 19.6875 2.57812 19.6875H8.95312C9.42188 19.6875 9.42188 20.3438 9 20.3438ZM7.6875 17.4375H2.57812C2.15625 17.4375 2.15625 16.7812 2.57812 16.7812H7.6875C8.15625 16.7812 8.15625 17.4375 7.6875 17.4375ZM6.98438 14.5781H2.57812C2.15625 14.5781 2.15625 13.875 2.57812 13.875H6.98438C7.45312 13.875 7.45312 14.5781 6.98438 14.5781ZM7.92188 11.6719H2.57812C2.15625 11.6719 2.15625 10.9688 2.57812 10.9688H7.92188C8.39062 10.9688 8.39062 11.6719 7.92188 11.6719ZM14.25 8.76562H2.57812C2.15625 8.76562 2.15625 8.0625 2.57812 8.0625H14.25C14.7188 8.0625 14.7188 8.76562 14.25 8.76562ZM11.0625 5.85938H5.8125C5.34375 5.85938 5.34375 5.15625 5.8125 5.15625H11.0625C11.5312 5.15625 11.5312 5.85938 11.0625 5.85938Z" fill="#FF931E"/>
<path fill-rule="evenodd" clip-rule="evenodd" d="M11.5781 12.2812C12.8438 10.9687 14.9531 10.9687 16.2656 12.2344C18.375 14.3437 16.9219 17.9531 13.9688 17.9531C11.1562 17.9531 9.46875 14.5312 11.5781 12.2812ZM9.32812 14.6719C9.32812 10.5469 14.25 8.53123 17.1562 11.3437C18.8906 13.0312 19.0312 15.75 17.4844 17.5781L18.7031 18.7969L18.2344 19.2656L17.0156 18.0937C14.1562 20.6719 9.375 18.7031 9.32812 14.6719Z" fill="#FF931E"/>
<path fill-rule="evenodd" clip-rule="evenodd" d="M18.7053 19.5937C18.6115 19.5937 18.5178 19.5468 18.4709 19.4999L16.7834 17.8593C16.4553 17.5312 16.924 17.0624 17.2521 17.3437L18.9396 19.0312C19.174 19.2187 18.9865 19.5937 18.7053 19.5937Z" fill="#FF931E"/>
<path fill-rule="evenodd" clip-rule="evenodd" d="M21.2835 24C21.2367 24 21.1429 23.9531 21.0492 23.9062L17.8617 20.7656C17.5335 20.4375 17.5804 19.9218 17.8617 19.6406L19.0804 18.375C19.3617 18.0937 19.9242 18.0468 20.2523 18.375L23.4398 21.5156C23.5335 21.6093 23.5804 21.8437 23.4398 21.9843L21.5648 23.8593C21.471 23.9531 21.3773 24 21.2835 24Z" fill="#FF931E"/>
</svg>
