<svg width="22" height="32" viewBox="0 0 22 32" fill="none" xmlns="http://www.w3.org/2000/svg">
<path fill-rule="evenodd" clip-rule="evenodd" d="M0.877932 12.1532C0.91162 12.357 0.77162 12.5501 0.56787 12.582C0.36412 12.6157 0.172807 12.4775 0.13912 12.2737C-0.571318 7.93143 1.48381 3.61037 5.284 1.41705C9.82831 -1.20676 15.5968 -0.0959475 18.8407 3.99655L18.7999 3.6493C18.7769 3.4438 18.9239 3.25774 19.1294 3.23474C19.3349 3.20993 19.521 3.35874 19.544 3.56424L19.7619 5.42624V5.42799C19.7974 5.73093 19.4678 5.95062 19.2003 5.79118L17.5863 4.83449C17.4074 4.72993 17.3489 4.49968 17.4534 4.32249C17.5597 4.1453 17.7882 4.08505 17.9672 4.19137L18.0966 4.26755C15.0476 0.61449 9.79462 -0.32451 5.65962 2.06368C2.12693 4.10286 0.21712 8.11918 0.877932 12.1532ZM16.6014 18.3062C16.6102 18.3221 16.6191 18.3381 16.6262 18.354C16.9787 18.2424 17.3596 18.2371 17.7157 18.3434C20.3307 15.9446 21.5691 12.3711 20.9933 8.85618C20.9596 8.65068 20.7683 8.51249 20.5646 8.54611C20.4668 8.56222 20.3793 8.61632 20.3212 8.69663C20.2631 8.77694 20.2392 8.87695 20.2545 8.97486C20.8374 12.5182 19.4236 16.1076 16.6014 18.3062ZM3.03406 16.8605L3.16518 16.9384C3.25096 16.9888 3.35322 17.0031 3.44954 16.9782C3.54585 16.9533 3.62835 16.8912 3.67893 16.8056C3.78343 16.6284 3.72499 16.3981 3.54606 16.2936L1.93206 15.3369C1.66456 15.1792 1.335 15.3971 1.37043 15.7018L1.58837 17.5656C1.61318 17.7711 1.79743 17.9181 2.00293 17.8951C2.20843 17.8702 2.35725 17.686 2.33243 17.4805L2.29168 17.1315C3.39893 18.5293 4.84112 19.6277 6.50468 20.3187V19.5019C5.1636 18.8941 3.97717 17.9911 3.03399 16.8604L3.03406 16.8605ZM8.71218 15.5141V14.4529C8.28168 14.2491 7.87775 13.9674 7.51987 13.6096C5.83856 11.9282 5.83856 9.19993 7.51987 7.51862C9.20293 5.83555 11.9295 5.83555 13.6126 7.51862C15.2939 9.19993 15.2939 11.9282 13.6126 13.6096C13.2547 13.9674 12.8507 14.2491 12.4202 14.4529V16.9544C12.5365 16.9324 12.6545 16.9211 12.7728 16.9207C12.8561 16.9207 12.9376 16.9261 13.0173 16.9367C13.3981 16.7913 13.7646 16.6111 14.1122 16.3981L14.6738 16.9597C14.8935 17.1794 15.2531 17.1794 15.4746 16.9597L16.9611 15.4716C17.1807 15.2519 17.1807 14.8922 16.9611 14.6707L16.4012 14.1109C16.7647 13.5127 17.0337 12.8619 17.1985 12.1816H17.9922C18.304 12.1816 18.5573 11.9283 18.5573 11.6165V9.51355C18.5573 9.20174 18.3039 8.94662 17.9922 8.94662H17.2002C17.0348 8.26622 16.7653 7.61545 16.4012 7.0173L16.9611 6.45743C17.1807 6.23774 17.1807 5.87812 16.9611 5.65662L15.4746 4.17024C15.2532 3.9488 14.8935 3.9488 14.6738 4.17024L14.1122 4.73005C13.5147 4.36603 12.8645 4.09651 12.1846 3.93105V3.13912C12.1846 2.8273 11.9295 2.57218 11.6177 2.57218H9.51474C9.20293 2.57218 8.94781 2.8273 8.94781 3.13912V3.93105C8.26727 4.09606 7.61643 4.36559 7.0185 4.73005L6.46043 4.17024C6.239 3.9488 5.87931 3.9488 5.65962 4.17024L4.17143 5.65662C3.95175 5.87805 3.95175 6.23774 4.17143 6.45743L4.73125 7.0173C4.36774 7.61552 4.09882 8.2663 3.93399 8.94662H3.14031C2.8285 8.94662 2.57512 9.20174 2.57512 9.51355V11.6165C2.57512 11.9283 2.8285 12.1816 3.14031 12.1816H3.93399C4.09882 12.8619 4.36774 13.5127 4.73125 14.1109L4.17143 14.6707C3.95175 14.8922 3.95175 15.2519 4.17143 15.4716L5.65962 16.9597C5.87931 17.1794 6.23893 17.1794 6.46043 16.9597L6.50475 16.9137V15.4804H8.35968C8.48018 15.4804 8.59887 15.4928 8.71224 15.5141L8.71218 15.5141ZM13.0811 13.0798C14.4718 11.6908 14.4718 9.4373 13.0811 8.0483C11.6921 6.6593 9.44031 6.6593 8.05131 8.0483C6.66056 9.4373 6.66056 11.6908 8.05131 13.0798C8.25046 13.2792 8.47224 13.4546 8.71212 13.6024V10.8599C8.71212 9.83943 9.54481 9.0068 10.5671 9.0068C11.5893 9.0068 12.4202 9.83949 12.4202 10.8599V13.6024C12.6601 13.4546 12.8819 13.2792 13.0811 13.0798ZM17.1877 19.0166C16.5819 19.0166 16.084 19.5127 16.084 20.1204V19.2062C16.084 18.5985 15.5879 18.1024 14.9802 18.1024C14.3726 18.1024 13.8765 18.5985 13.8765 19.2062V18.7739C13.8765 18.168 13.3804 17.6701 12.7727 17.6701C12.1651 17.6701 11.6707 18.1679 11.6707 18.7739V10.8599C11.6707 10.2539 11.1729 9.75611 10.567 9.75611C9.96106 9.75611 9.46324 10.2539 9.46324 10.8599V19.7961C9.46324 20.0034 9.29318 20.1717 9.08768 20.1717C8.88218 20.1717 8.71212 20.0034 8.71212 19.7961V16.9189C8.71212 16.5397 8.40387 16.2315 8.02474 16.2315H7.25587V24.3917C7.25587 25.5806 8.48006 26.0217 8.98324 27.501C9.00274 27.4992 9.02224 27.4992 9.04168 27.4992H16.3533C16.4224 27.4992 16.4915 27.5046 16.5606 27.5134C17.0584 26.0252 18.2916 25.5841 18.2916 24.3917V20.1203C18.2916 19.5126 17.7955 19.0166 17.1878 19.0166L17.1877 19.0166ZM16.3533 28.2487H9.04168C8.61649 28.2487 8.2675 28.5977 8.2675 29.0247V30.3481C8.2675 30.7733 8.61649 31.1223 9.04168 31.1223H16.3533C16.7785 31.1223 17.1275 30.7733 17.1275 30.3481V29.0247C17.1275 28.5977 16.7785 28.2487 16.3533 28.2487Z" fill="#FF931E"/>
</svg>
