<svg width="28" height="23" viewBox="0 0 28 23" fill="none" xmlns="http://www.w3.org/2000/svg">
<path d="M5.49108 0C2.45853 0 0 2.37657 0 5.30819C0 8.22774 2.45852 10.6164 5.49108 10.6164C8.52364 10.6164 10.9822 8.22773 10.9822 5.30819C10.9822 2.37657 8.52363 0 5.49108 0ZM7.98708 6.032H5.49108C5.07914 6.032 4.74216 5.70625 4.74216 5.30819V1.68899C4.74216 1.27885 5.07914 0.965178 5.49108 0.965178C5.90302 0.965178 6.24 1.27885 6.24 1.68899V4.58438H7.98708C8.39902 4.58438 8.736 4.89805 8.736 5.30819C8.73599 5.70624 8.39902 6.032 7.98708 6.032Z" fill="#FF931E"/>
<path d="M6.73888 22.55C8.04872 22.55 9.11056 21.5238 9.11056 20.258C9.11056 18.9921 8.04872 17.9659 6.73888 17.9659C5.42903 17.9659 4.36719 18.9921 4.36719 20.258C4.36719 21.5238 5.42903 22.55 6.73888 22.55Z" fill="#FF931E"/>
<path d="M22.9654 22.55C24.2753 22.55 25.3371 21.5238 25.3371 20.258C25.3371 18.9921 24.2753 17.9659 22.9654 17.9659C21.6556 17.9659 20.5938 18.9921 20.5938 20.258C20.5938 21.5238 21.6556 22.55 22.9654 22.55Z" fill="#FF931E"/>
<path d="M15.4777 1.20105H11.0338C11.9381 2.33971 12.482 3.75935 12.482 5.30269C12.482 9.02793 9.34738 12.0586 5.49369 12.0586C3.89682 12.0586 2.42792 11.5326 1.25 10.658V17.3667C1.25 18.298 2.03487 19.0555 2.99769 19.0555H3.59304C3.93338 17.6754 5.21154 16.6427 6.74169 16.6427C8.27183 16.6427 9.54999 17.6754 9.89033 19.0555H17.2254V2.8899C17.2254 1.95859 16.4405 1.20105 15.4777 1.20105ZM26.9339 14.0621L25.285 13.2651H21.7177C21.3045 13.2651 20.9694 12.9411 20.9694 12.5411C20.9694 12.1411 21.3045 11.8171 21.7177 11.8171H24.2493L22.6403 8.70631C22.5562 8.54137 22.3843 8.43947 22.1942 8.43947H18.722V19.0555H19.8171C20.1574 17.6754 21.4356 16.6427 22.9657 16.6427C24.4958 16.6427 25.774 17.6754 26.1143 19.0555H26.7097C26.9851 19.0555 27.2094 18.8394 27.2094 18.5731V14.4927C27.2094 14.3112 27.1009 14.1422 26.9339 14.0621Z" fill="#FF931E"/>
</svg>
