<svg width="11" height="12" viewBox="0 0 11 12" fill="none" xmlns="http://www.w3.org/2000/svg">
<mask id="mask0_156_1340" style="mask-type:alpha" maskUnits="userSpaceOnUse" x="0" y="0" width="12" height="12">
<rect width="11.0054" height="11.25" fill="#D9D9D9"/>
</mask>
<g mask="url(#mask0_156_1340)">
<path d="M1.83118 9.37492C1.57897 9.37492 1.36307 9.28312 1.18347 9.09953C1.00386 8.91594 0.914062 8.69523 0.914062 8.43742V2.81244C0.914062 2.55462 1.00386 2.33392 1.18347 2.15033C1.36307 1.96674 1.57897 1.87494 1.83118 1.87494H9.16812C9.42032 1.87494 9.63623 1.96674 9.81583 2.15033C9.99543 2.33392 10.0852 2.55462 10.0852 2.81244V8.43742C10.0852 8.69523 9.99543 8.91594 9.81583 9.09953C9.63623 9.28312 9.42032 9.37492 9.16812 9.37492H1.83118ZM5.49965 6.09368L9.16812 3.74993V2.81244L5.49965 5.15618L1.83118 2.81244V3.74993L5.49965 6.09368Z" fill="white"/>
</g>
</svg>
