<svg width="34" height="34" viewBox="0 0 34 34" fill="none" xmlns="http://www.w3.org/2000/svg">
<path d="M13.4798 11.601V3.51724C13.4798 2.58441 13.8504 1.68979 14.51 1.03018C15.1696 0.370565 16.0642 0 16.997 0C17.9299 0 18.8245 0.370565 19.4841 1.03018C20.1437 1.68979 20.5143 2.58441 20.5143 3.51724V11.601C21.6793 12.3593 22.5682 13.4737 23.0484 14.7782C23.5286 16.0826 23.5743 17.5074 23.1789 18.84C22.7834 20.1726 21.9679 21.3418 20.8539 22.1732C19.7399 23.0047 18.3871 23.4539 16.997 23.4539C15.607 23.4539 14.2541 23.0047 13.1401 22.1732C12.0261 21.3418 11.2106 20.1726 10.8152 18.84C10.4197 17.5074 10.4655 16.0826 10.9457 14.7782C11.4259 13.4737 12.3147 12.3593 13.4798 11.601ZM16.997 21.6897C18.0069 21.6882 18.9894 21.3608 19.7983 20.7561C20.6071 20.1514 21.1992 19.3018 21.4864 18.3335C21.7735 17.3653 21.7405 16.3303 21.3921 15.3823C21.0438 14.4344 20.3987 13.6243 19.5529 13.0724L18.7557 12.5507V5.27586C18.7557 4.80945 18.5704 4.36213 18.2406 4.03233C17.9108 3.70252 17.4635 3.51724 16.997 3.51724C16.5306 3.51724 16.0833 3.70252 15.7535 4.03233C15.4237 4.36213 15.2384 4.80945 15.2384 5.27586V12.5507L14.4412 13.0724C13.5954 13.6243 12.9503 14.4344 12.602 15.3823C12.2536 16.3303 12.2205 17.3653 12.5077 18.3335C12.7949 19.3018 13.3869 20.1514 14.1958 20.7561C15.0047 21.3608 15.9871 21.6882 16.997 21.6897Z" fill="#636363"/>
<path d="M13.4809 17C13.4809 17.6096 13.6392 18.2087 13.9405 18.7386C14.2417 19.2685 14.6755 19.7111 15.1993 20.0228C15.7231 20.3346 16.3189 20.5048 16.9283 20.517C17.5377 20.5291 18.1399 20.3826 18.6756 20.0919C19.2114 19.8012 19.6624 19.3762 19.9844 18.8587C20.3065 18.3411 20.4885 17.7488 20.5126 17.1397C20.5368 16.5306 20.4022 15.9258 20.1222 15.3843C19.8421 14.8429 19.4261 14.3836 18.9151 14.0514L17.8482 13.3597C17.7667 13.306 17.6999 13.2329 17.6538 13.1469C17.6078 13.0609 17.5839 12.9648 17.5844 12.8673V5.2759C17.5844 5.12043 17.5226 4.97133 17.4127 4.86139C17.3027 4.75146 17.1536 4.6897 16.9982 4.6897C16.8427 4.6897 16.6936 4.75146 16.5837 4.86139C16.4737 4.97133 16.412 5.12043 16.412 5.2759V12.8673C16.4124 12.9648 16.3886 13.0609 16.3425 13.1469C16.2964 13.2329 16.2296 13.306 16.1482 13.3597L15.0813 14.0514C14.59 14.3707 14.1864 14.8077 13.9069 15.3226C13.6274 15.8376 13.481 16.4142 13.4809 17ZM25.2449 21.1035H26.0844C26.1621 21.1035 26.2367 21.1344 26.2916 21.1893C26.3466 21.2443 26.3775 21.3189 26.3775 21.3966V24.3276C26.3775 24.4054 26.4084 24.4799 26.4633 24.5349C26.5183 24.5899 26.5928 24.6207 26.6706 24.6207H28.4292C28.5069 24.6207 28.5815 24.5899 28.6365 24.5349C28.6914 24.4799 28.7223 24.4054 28.7223 24.3276V21.3966C28.7223 21.3189 28.7532 21.2443 28.8082 21.1893C28.8631 21.1344 28.9377 21.1035 29.0154 21.1035H29.8549C29.9106 21.1036 29.9652 21.0878 30.0123 21.0579C30.0594 21.0281 30.097 20.9854 30.1206 20.935C30.1443 20.8845 30.1532 20.8283 30.146 20.773C30.1389 20.7178 30.1162 20.6656 30.0805 20.6228L27.775 17.8565C27.7475 17.8235 27.7131 17.797 27.6742 17.7788C27.6353 17.7605 27.5928 17.7511 27.5499 17.7511C27.5069 17.7511 27.4645 17.7605 27.4256 17.7788C27.3867 17.797 27.3523 17.8235 27.3248 17.8565L25.0192 20.6228C24.9836 20.6656 24.9608 20.7178 24.9537 20.773C24.9466 20.8283 24.9554 20.8845 24.9791 20.935C25.0028 20.9854 25.0404 21.0281 25.0875 21.0579C25.1346 21.0878 25.1892 21.1036 25.2449 21.1035ZM4.14148 21.1035H4.98093C5.05866 21.1035 5.13321 21.1344 5.18818 21.1893C5.24315 21.2443 5.27403 21.3189 5.27403 21.3966V24.3276C5.27403 24.4054 5.30491 24.4799 5.35988 24.5349C5.41485 24.5899 5.4894 24.6207 5.56713 24.6207H7.32575C7.40349 24.6207 7.47804 24.5899 7.53301 24.5349C7.58798 24.4799 7.61886 24.4054 7.61886 24.3276V21.3966C7.61886 21.3189 7.64974 21.2443 7.70471 21.1893C7.75967 21.1344 7.83423 21.1035 7.91196 21.1035H8.75141C8.80715 21.1036 8.86177 21.0878 8.90884 21.0579C8.95592 21.0281 8.99351 20.9854 9.0172 20.935C9.04089 20.8845 9.0497 20.8283 9.0426 20.773C9.0355 20.7178 9.01278 20.6656 8.9771 20.6228L6.67155 17.8565C6.64404 17.8235 6.60962 17.797 6.57072 17.7788C6.53182 17.7605 6.48939 17.7511 6.44644 17.7511C6.40349 17.7511 6.36107 17.7605 6.32217 17.7788C6.28327 17.797 6.24885 17.8235 6.22134 17.8565L3.91579 20.6228C3.88011 20.6656 3.85739 20.7178 3.85029 20.773C3.84318 20.8283 3.85199 20.8845 3.87569 20.935C3.89938 20.9854 3.93697 21.0281 3.98404 21.0579C4.03112 21.0878 4.08573 21.1036 4.14148 21.1035Z" fill="#636363"/>
<path d="M1.17241 31.6552H32.8276C33.4751 31.6552 34 32.1801 34 32.8276C34 33.4751 33.4751 34 32.8276 34H1.17241C0.524906 34 0 33.4751 0 32.8276C0 32.1801 0.524906 31.6552 1.17241 31.6552Z" fill="#636363"/>
<path d="M1.17241 25.7931H32.8276C33.4751 25.7931 34 26.318 34 26.9655C34 27.613 33.4751 28.1379 32.8276 28.1379H1.17241C0.524906 28.1379 0 27.613 0 26.9655C0 26.318 0.524906 25.7931 1.17241 25.7931Z" fill="#636363"/>
<path d="M30.1744 28.7241L31.7396 31.069H32.8299C32.9425 31.069 33.0544 31.0807 33.1641 31.1041L31.5754 28.7241H30.1744ZM27.2434 28.7241L28.8085 31.069H30.2096L28.6444 28.7241H27.2434ZM24.3123 28.7241L25.8775 31.069H27.2785L25.7134 28.7241H24.3123ZM21.3813 28.7241L22.9465 31.069H24.3475L22.7823 28.7241H21.3813ZM18.4503 28.7241L20.0154 31.069H21.4165L19.8513 28.7241H18.4503ZM15.5192 28.7241L17.0844 31.069H18.4854L16.9203 28.7241H15.5192ZM12.5882 28.7241L14.1534 31.069H15.5544L13.9892 28.7241H12.5882ZM9.65717 28.7241L11.2223 31.069H12.6234L11.0582 28.7241H9.65717ZM6.72613 28.7241L8.2913 31.069H9.69234L8.12717 28.7241H6.72613ZM3.7951 28.7241L5.36027 31.069H6.7613L5.19613 28.7241H3.7951ZM0.840614 28.689L2.42923 31.069H3.83027L2.2651 28.7241H1.17475C1.0622 28.7241 0.950234 28.7124 0.840614 28.689Z" fill="#636363"/>
</svg>
