<svg width="27" height="27" viewBox="0 0 27 27" fill="none" xmlns="http://www.w3.org/2000/svg">
<path d="M19.1918 5.83059C19.5227 6.54327 19.7693 7.29207 19.9268 8.06184C21.1233 8.71154 22.1516 9.63145 22.93 10.7484C23.7084 11.8654 24.2154 13.1486 24.4107 14.4959C24.606 15.8433 24.4843 17.2177 24.0551 18.5097C23.6259 19.8017 22.9011 20.9757 21.9384 21.9384C20.9757 22.9011 19.8017 23.6259 18.5097 24.0551C17.2177 24.4843 15.8433 24.606 14.4959 24.4107C13.1486 24.2154 11.8654 23.7084 10.7484 22.93C9.63145 22.1516 8.71154 21.1233 8.06184 19.9268C7.29207 19.7693 6.54327 19.5227 5.83059 19.1918C6.41362 20.8726 7.41412 22.3776 8.73821 23.5657C10.0623 24.7539 11.6666 25.5861 13.4004 25.9843C15.1343 26.3825 16.9409 26.3336 18.6507 25.8423C20.3605 25.351 21.9174 24.4333 23.1753 23.1753C24.4333 21.9174 25.351 20.3605 25.8423 18.6507C26.3336 16.9409 26.3825 15.1343 25.9843 13.4004C25.5861 11.6666 24.7539 10.0623 23.5657 8.73821C22.3776 7.41412 20.8726 6.41362 19.1918 5.83059ZM15.7531 5.25309C16.9237 5.25043 18.0863 5.44568 19.1918 5.83059C18.5107 4.3612 17.485 3.07793 16.2017 2.08981C14.9185 1.10169 13.4157 0.437906 11.8211 0.15486C10.2264 -0.128186 8.58699 -0.0221321 7.04209 0.464011C5.49719 0.950154 4.09246 1.80202 2.94724 2.94724C1.80202 4.09246 0.950154 5.49719 0.464011 7.04209C-0.0221321 8.58699 -0.128186 10.2264 0.15486 11.8211C0.437906 13.4157 1.10169 14.9185 2.08981 16.2017C3.07793 17.485 4.3612 18.5107 5.83059 19.1918C5.44568 18.0863 5.25043 16.9237 5.25309 15.7531C5.25309 12.9683 6.35934 10.2976 8.32847 8.32847C10.2976 6.35934 12.9683 5.25309 15.7531 5.25309Z" fill="#636363"/>
<path d="M7 15.753C6.99974 17.2108 7.36368 18.6455 8.05875 19.9268C9.68732 20.2578 11.3725 20.1803 12.9638 19.7011C14.5551 19.222 16.003 18.3563 17.1781 17.1811C18.3532 16.006 19.219 14.5582 19.6981 12.9669C20.1772 11.3756 20.2547 9.69036 19.9238 8.06179C18.5909 7.33844 17.093 6.9739 15.5768 7.00391C14.0606 7.03393 12.5783 7.45747 11.2751 8.23301C9.97199 9.00855 8.89276 10.1095 8.1433 11.4278C7.39383 12.7461 6.99985 14.2366 7 15.753Z" fill="#636363"/>
</svg>
