<svg width="27" height="27" viewBox="0 0 27 27" fill="none" xmlns="http://www.w3.org/2000/svg">
<path d="M13.8271 21.1484L15.5371 23.3672L16.1582 24.1719H14.6123V26.2754H12.2432V24.1719H10.6963L11.3193 23.3662L13.0352 21.1475L13.4316 20.6348L13.8271 21.1484ZM13.4248 16.3486C17.4167 16.3486 21.4695 16.9745 25.46 18.2012C25.7783 18.2976 26.0499 18.5196 26.2051 18.8203C26.3582 19.117 26.3858 19.4595 26.291 19.7725L26.2881 19.7812C26.0903 20.3924 25.4642 20.7521 24.8467 20.6279L24.7236 20.5967C20.9736 19.4437 17.1981 18.8682 13.4248 18.8682C9.65151 18.8682 5.87593 19.4428 2.12598 20.5957L2.12695 20.5967C1.47157 20.7991 0.772468 20.4333 0.561523 19.7812L0.5625 19.7803C0.458557 19.4639 0.486491 19.1188 0.646484 18.8203H0.645508C0.800744 18.5197 1.07137 18.2976 1.38965 18.2012C5.38086 16.9685 9.43354 16.3487 13.4248 16.3486ZM25.1133 12.1885C25.7938 12.1885 26.3475 12.7414 26.3477 13.4219C26.3477 14.1025 25.7939 14.6562 25.1133 14.6562H1.73633C1.05585 14.6561 0.50293 14.1024 0.50293 13.4219C0.503118 12.7415 1.05596 12.1886 1.73633 12.1885H25.1133ZM1.75391 6.19141C1.88489 6.19141 2.00372 6.21226 2.12012 6.24805C9.62214 8.55285 17.2217 8.55272 24.7178 6.24805L24.8408 6.2168C25.4568 6.0929 26.0809 6.45017 26.2803 7.05859C26.3872 7.37946 26.3582 7.72765 26.2051 8.02441C26.0501 8.32454 25.7795 8.54491 25.4619 8.6416L25.4629 8.64258C21.4708 9.87581 17.417 10.4961 13.4248 10.4961C9.43222 10.4961 5.37889 9.8697 1.3877 8.64258V8.6416C1.07031 8.54487 0.800456 8.3243 0.645508 8.02441C0.492461 7.72789 0.463909 7.38514 0.558594 7.07227L0.5625 7.06152C0.73362 6.53866 1.21948 6.19141 1.75391 6.19141ZM14.6064 0.5V2.60352H16.1602L15.5361 3.40918L13.8203 5.62793L13.4248 6.13867L13.0293 5.62793L11.3135 3.40918L10.6904 2.60352H12.2373V0.5H14.6064Z" fill="#636363" stroke="#636363"/>
</svg>
