<svg width="21" height="30" viewBox="0 0 21 30" fill="none" xmlns="http://www.w3.org/2000/svg">
<path d="M20.7121 22.0312C20.4309 18.5625 18.5559 15.0938 16.2121 13.6406C15.6027 13.0781 15.0402 12.5156 14.5715 11.9062C13.9621 11.1094 13.634 10.0781 13.634 9V3.375H14.1496C15.0871 3.375 15.8371 2.625 15.8371 1.6875C15.8371 0.75 15.0871 0 14.1496 0H6.55585C5.61835 0 4.86835 0.75 4.86835 1.6875C4.86835 2.625 5.61835 3.375 6.55585 3.375H7.07148V9C7.07148 10.0781 6.74335 11.0625 6.13398 11.8594C5.7121 12.4687 5.1496 13.0312 4.54023 13.5938C2.1496 15.0938 0.32148 18.5625 0.0402298 22.0312C-0.194145 24.75 0.60273 27.0469 2.24335 28.5C3.32148 29.4844 4.82148 30 6.41523 30H14.384C15.9777 30 17.4777 29.4844 18.5559 28.5C20.1496 27.0469 20.9465 24.75 20.7121 22.0312ZM5.10273 27.3281C4.11835 27.3281 3.36835 26.5312 3.36835 25.5937C3.36835 24.6562 4.16523 23.8594 5.10273 23.8594C6.0871 23.8594 6.8371 24.6562 6.8371 25.5937C6.8371 26.5312 6.04023 27.3281 5.10273 27.3281ZM14.1027 24.2812C13.1184 24.2812 12.3684 23.4844 12.3684 22.5469C12.3684 21.5625 13.1652 20.8125 14.1027 20.8125C15.0871 20.8125 15.8371 21.6094 15.8371 22.5469C15.8371 23.4844 15.0402 24.2812 14.1027 24.2812ZM17.1965 16.8281H17.1027C15.2277 16.875 13.3996 17.4844 11.8996 18.6562L11.0559 19.2656C10.3059 19.8281 9.50898 20.25 8.66523 20.5781C7.82148 20.8594 6.88398 21.0469 5.99335 21.0469C4.16523 21.0469 2.5246 20.25 1.0246 19.3594C1.7746 17.0625 3.18085 15 4.82148 13.9687C5.47773 13.4062 6.04023 12.7969 6.50898 12.1875C7.11835 11.3438 7.49335 10.3125 7.54023 9.23438H9.88398C10.0246 9.23438 10.1184 9.14063 10.1184 9C10.1184 8.85938 10.0246 8.76563 9.88398 8.76563H7.49335V7.26562H9.88398C10.0246 7.26562 10.1184 7.17188 10.1184 7.03125C10.1184 6.89062 10.0246 6.79688 9.88398 6.79688H7.49335V5.29688H9.88398C10.0246 5.29688 10.1184 5.20313 10.1184 5.0625C10.1184 4.92188 10.0246 4.82813 9.88398 4.82813H7.49335V3.375H13.1652V8.95313C13.1652 10.125 13.5402 11.25 14.1965 12.1406C14.6652 12.75 15.2277 13.3594 15.9309 13.9687C16.9152 14.5781 17.8527 15.6563 18.6027 16.875C18.134 16.8281 17.6652 16.7813 17.1965 16.8281Z" fill="#636363"/>
<path d="M6.17969 18.5156C6.98223 18.5156 7.63281 17.865 7.63281 17.0625C7.63281 16.26 6.98223 15.6094 6.17969 15.6094C5.37715 15.6094 4.72656 16.26 4.72656 17.0625C4.72656 17.865 5.37715 18.5156 6.17969 18.5156Z" fill="#636363"/>
<path d="M11.3359 13.5938C10.6797 13.5938 10.1172 14.1563 10.1172 14.8125C10.1172 15.4688 10.6797 16.0313 11.3359 16.0313C11.9922 16.0313 12.5547 15.4688 12.5547 14.8125C12.5547 14.1563 11.9922 13.5938 11.3359 13.5938ZM14.1016 21.2344C13.3984 21.2344 12.8359 21.7969 12.8359 22.5469C12.8359 23.25 13.3984 23.8125 14.1016 23.8125C14.8047 23.8125 15.4141 23.25 15.4141 22.5469C15.3672 21.8437 14.8047 21.2344 14.1016 21.2344ZM5.10156 24.2812C4.39844 24.2812 3.83594 24.8437 3.83594 25.5937C3.83594 26.3437 4.39844 26.9063 5.10156 26.9063C5.80469 26.9063 6.41406 26.3437 6.41406 25.5937C6.41406 24.8437 5.80469 24.2812 5.10156 24.2812Z" fill="#636363"/>
</svg>
