<svg width="26" height="26" viewBox="0 0 26 26" fill="none" xmlns="http://www.w3.org/2000/svg">
<path d="M13.7083 12.2617C13.4866 12.2617 13.2649 12.18 13.0899 12.005C12.9272 11.8403 12.8359 11.6182 12.8359 11.3867C12.8359 11.1551 12.9272 10.933 13.0899 10.7683L17.7566 6.10165C18.0949 5.76332 18.6549 5.76332 18.9933 6.10165C19.3316 6.43998 19.3316 6.99998 18.9933 7.33832L14.3266 12.005C14.1516 12.18 13.9299 12.2617 13.7083 12.2617Z" fill="#636363"/>
<path d="M25.0133 3.85005C24.9467 3.69144 24.8348 3.55596 24.6916 3.46053C24.5485 3.36509 24.3804 3.31391 24.2083 3.31338H21.7817V0.886712C21.7817 0.536712 21.5717 0.210045 21.245 0.0817116C21.0848 0.0155203 20.9087 -0.00207498 20.7386 0.0311178C20.5685 0.0643106 20.4119 0.146824 20.2883 0.268378L17.815 2.74171C17.6509 2.90565 17.5585 3.12806 17.5583 3.36005V6.66171C17.5583 7.14004 17.955 7.53671 18.4333 7.53671H21.735C21.9683 7.53671 22.19 7.44338 22.3533 7.28005L24.8267 4.80671C25.0717 4.56171 25.1533 4.17671 25.0133 3.85005ZM13.7083 13.4284C13.4397 13.4301 13.1735 13.3784 12.925 13.2764C12.6765 13.1744 12.4508 13.0241 12.2609 12.8342C12.0709 12.6443 11.9206 12.4185 11.8186 12.17C11.7166 11.9216 11.665 11.6553 11.6667 11.3867C11.6667 11.13 11.7133 10.885 11.8067 10.6517C11.0483 10.9434 10.5 11.69 10.5 12.5534C10.5 13.6734 11.4217 14.595 12.5417 14.595C13.405 14.595 14.14 14.0467 14.4433 13.2884C14.21 13.3817 13.965 13.4284 13.7083 13.4284Z" fill="#636363"/>
<path d="M16.2388 11.7366C16.2971 11.9933 16.3321 12.2733 16.3321 12.5533C16.3321 14.6416 14.6288 16.345 12.5404 16.345C10.4521 16.345 8.74875 14.6416 8.74875 12.5533C8.74875 10.465 10.4521 8.76164 12.5404 8.76164C12.8204 8.76164 13.0887 8.79664 13.3571 8.85497L15.6204 6.59164C14.6988 6.1133 13.6604 5.84497 12.5521 5.84497C8.85375 5.84497 5.84375 8.85497 5.84375 12.5533C5.84375 16.2516 8.85375 19.2616 12.5521 19.2616C16.2504 19.2616 19.2604 16.2516 19.2604 12.5533C19.2604 11.445 18.9921 10.4066 18.5138 9.48497L16.2504 11.7483L16.2388 11.7366Z" fill="#636363"/>
<path d="M23.1817 8.10833C22.7967 8.49333 22.2717 8.70333 21.735 8.70333H20.0667C20.6617 9.85833 21 11.165 21 12.5533C21 17.22 17.2083 21.0117 12.5417 21.0117C7.875 21.0117 4.08333 17.22 4.08333 12.5533C4.08333 7.88667 7.875 4.095 12.5417 4.095C13.93 4.095 15.2367 4.43333 16.3917 5.02833V3.36C16.3917 2.82333 16.6133 2.29833 16.9867 1.91333L17.7567 1.14333C16.135 0.396667 14.3617 0 12.5417 0C5.62333 0.0116667 0 5.635 0 12.5533C0 19.4717 5.62333 25.095 12.5417 25.095C19.46 25.095 25.0833 19.4717 25.0833 12.5533C25.0833 10.7333 24.6867 8.96 23.94 7.33833L23.17 8.10833H23.1817Z" fill="#636363"/>
</svg>
