<svg width="28" height="28" viewBox="0 0 28 28" fill="none" xmlns="http://www.w3.org/2000/svg">
<path d="M27.1975 14.8969C26.8453 13.4006 26.0937 12.401 25.4374 11.5207C24.9094 10.8251 24.4535 10.217 24.1656 9.37696C23.8777 8.52909 23.8694 7.76915 23.8615 6.89721C23.8454 5.7934 23.8296 4.54521 23.1974 3.14521C21.9497 0.377587 18.7979 -0.702601 15.374 0.465524C13.0942 1.24121 11.398 2.89715 10.4382 5.04877C11.0301 5.12884 11.6304 5.27277 12.2302 5.48059C12.4782 5.56896 12.7263 5.6569 12.9582 5.7689C13.6538 4.41702 14.758 3.40071 16.1979 2.90502C17.8219 2.34502 20.0216 2.36077 20.8537 4.2009C21.2694 5.11265 21.2777 5.95265 21.2855 6.92084C21.3017 7.88071 21.3096 8.96834 21.7257 10.2003C22.1496 11.4323 22.8054 12.3047 23.3816 13.0725C23.9657 13.8482 24.4697 14.5123 24.6937 15.4884C25.1653 17.4563 23.4293 18.8081 21.8057 19.3603C20.5575 19.7842 19.2779 19.744 18.0616 19.3043C17.9836 19.5785 17.8983 19.8506 17.8057 20.1202C17.614 20.6719 17.4058 21.2078 17.1582 21.7201C18.9099 22.3598 20.7894 22.4158 22.6295 21.7919C26.0613 20.6238 27.8935 17.8561 27.197 14.8965L27.1975 14.8969ZM12.102 10.049C11.7319 9.77865 11.3216 9.56812 10.8862 9.42509C10.4468 9.27646 9.98947 9.18758 9.52642 9.16084C9.4783 10.7288 9.72636 12.4088 10.3021 14.0967C11.0384 16.2728 12.1982 18.0885 13.5982 19.4565C13.6857 19.2325 13.7741 19.0085 13.8542 18.7766C14.118 17.9926 14.3022 17.2165 14.3822 16.4487C13.7102 15.5448 13.1502 14.473 12.7342 13.265C12.3579 12.1608 12.1501 11.081 12.102 10.049ZM0.146423 20.6636C0.499923 19.1673 1.24936 18.1707 1.91042 17.2913C2.43892 16.5883 2.89524 15.9815 3.1818 15.1401C3.46836 14.2988 3.47711 13.5393 3.48717 12.6604C3.49986 11.5601 3.5143 10.3132 4.14736 8.9119C5.39861 6.14252 8.54424 5.06715 11.9751 6.2344C16.9364 7.92359 19.1169 13.7813 17.0475 19.8603C14.9781 25.9394 9.67605 29.2495 4.71436 27.5603C1.28436 26.3926 -0.551827 23.6211 0.146423 20.6636ZM6.49149 9.97065C6.08024 10.8815 6.07017 11.7193 6.05836 12.6897C6.04786 13.6505 6.03517 14.7394 5.61649 15.9688C5.1978 17.1982 4.54374 18.0688 3.96624 18.8366C3.38305 19.6123 2.87949 20.2821 2.64936 21.2547C2.1843 23.2265 3.91811 24.5726 5.54342 25.1261C9.11692 26.3423 13.0159 23.7226 14.6128 19.0317C16.2097 14.3408 14.7191 9.88577 11.146 8.66952C9.5203 8.11609 7.32536 8.12484 6.49105 9.97065H6.49149Z" fill="#636363"/>
</svg>
