<svg width="28" height="28" viewBox="0 0 28 28" fill="none" xmlns="http://www.w3.org/2000/svg">
<path d="M17.3319 8.04617C17.3319 9.88367 15.8373 11.3788 13.9998 11.3788C12.1623 11.3788 10.6677 9.88367 10.6677 8.04617C10.6677 6.20867 12.1623 4.71406 13.9998 4.71406C15.8373 4.71406 17.3319 6.20867 17.3319 8.04617ZM6.77376 8.8667H8.42434C8.87737 8.8667 9.24465 8.49942 9.24465 8.04639C9.24465 7.59336 8.87737 7.22608 8.42434 7.22608H6.77376C6.32073 7.22608 5.95345 7.59336 5.95345 8.04639C5.95345 8.49942 6.32073 8.8667 6.77376 8.8667ZM18.755 8.04639C18.755 8.49942 19.1223 8.8667 19.5753 8.8667H21.2259C21.6789 8.8667 22.0462 8.49942 22.0462 8.04639C22.0462 7.59336 21.6789 7.22608 21.2259 7.22608H19.5753C19.1223 7.22608 18.755 7.59336 18.755 8.04639ZM13.1795 13.6219V15.2725C13.1795 15.7256 13.5468 16.0928 13.9998 16.0928C14.4529 16.0928 14.8201 15.7256 14.8201 15.2725V13.6219C14.8201 13.1689 14.4529 12.8016 13.9998 12.8016C13.5468 12.8016 13.1795 13.1689 13.1795 13.6219ZM13.9998 3.2912C14.4529 3.2912 14.8201 2.92392 14.8201 2.47089V0.820312C14.8201 0.367281 14.4529 0 13.9998 0C13.5468 0 13.1795 0.367281 13.1795 0.820312V2.47089C13.1795 2.92392 13.5468 3.2912 13.9998 3.2912ZM9.47729 11.4089L8.3102 12.576C7.98984 12.8964 7.9899 13.4157 8.3102 13.7361C8.63056 14.0564 9.14993 14.0564 9.47029 13.7361L10.6374 12.5689C10.9577 12.2486 10.9577 11.7292 10.6374 11.4089C10.317 11.0885 9.79759 11.0885 9.47729 11.4089ZM17.3623 11.4089C17.0419 11.7292 17.0419 12.2486 17.3623 12.5689L18.5294 13.7361C18.8497 14.0564 19.3691 14.0564 19.6895 13.7361C20.0098 13.4157 20.0098 12.8964 19.6895 12.576L18.5224 11.4089C18.2021 11.0885 17.6827 11.0885 17.3623 11.4089ZM9.47729 4.68393C9.79759 5.00429 10.317 5.00429 10.6374 4.68393C10.9577 4.36357 10.9577 3.8442 10.6374 3.52384L9.47029 2.3567C9.15004 2.0364 8.63062 2.03634 8.3102 2.3567C7.9899 2.67706 7.98984 3.19643 8.3102 3.51679L9.47729 4.68393ZM18.5224 4.68393L19.6895 3.51679C20.0098 3.19643 20.0098 2.67706 19.6895 2.3567C19.3692 2.0364 18.8497 2.0364 18.5294 2.3567L17.3623 3.52384C17.0419 3.8442 17.0419 4.36357 17.3623 4.68393C17.6827 5.00434 18.2021 5.00429 18.5224 4.68393ZM0 24.0182V27.1797C0 27.5898 0.301875 27.9305 0.695625 27.9907L4.66758 24.0182H0ZM6.98737 24.0182L3.00617 28H5.55291L9.53471 24.0182H6.98737ZM11.8546 24.0182L7.8733 28H10.4201L14.4019 24.0182H11.8546ZM16.7217 24.0182L12.7405 28H15.2873L19.269 24.0182H16.7217ZM21.5889 24.0182L17.6076 28H20.1544L24.1362 24.0182H21.5889ZM26.4566 24.0182L22.4748 28H27.1795C27.6323 28 27.9998 27.6325 27.9998 27.1797V24.0182H26.4566Z" fill="#636363"/>
<path d="M27.9998 20.617C27.9998 20.164 27.6326 19.7967 27.1795 19.7967H16.7707L25.484 14.1407L25.323 14.805C25.1984 15.3195 25.5877 15.8187 26.1209 15.8187C26.4908 15.8187 26.8266 15.5668 26.9175 15.1914C27.6747 12.0667 27.5507 12.5792 27.5658 12.514C27.668 12.0699 27.3893 11.6368 26.9601 11.5328L24.2919 10.8863C23.8512 10.7796 23.4081 11.0501 23.3015 11.4903C23.1948 11.9306 23.4652 12.374 23.9055 12.4807L24.7229 12.6788L14 19.6392L2.64852 12.2708C2.26855 12.0242 1.76055 12.1322 1.5138 12.5122C1.26716 12.8923 1.37528 13.4003 1.75525 13.647L11.2293 19.7967H0.820313C0.367281 19.7967 0 20.164 0 20.617V22.3775H27.9998V20.617Z" fill="#636363"/>
</svg>
