<svg width="23" height="29" viewBox="0 0 23 29" fill="none" xmlns="http://www.w3.org/2000/svg">
<path d="M9.08884 21.9863C9.08656 22.078 9.06065 22.1675 9.01363 22.2461C8.96662 22.3248 8.90008 22.39 8.82046 22.4355C8.74085 22.4809 8.65085 22.505 8.55919 22.5054C8.46753 22.5058 8.37732 22.4826 8.29728 22.4379C7.63003 22.0623 7.20662 21.215 6.95003 20.4601C5.92844 22.7099 5.8615 24.964 6.81987 26.5556C7.7655 28.126 9.63815 28.9112 12.0851 28.7582C14.2653 28.6248 15.772 27.6133 16.3282 25.9102C16.8966 24.1693 16.299 22.0676 14.9066 20.9122C12.5133 18.9269 12.7242 16.6526 13.1975 15.2565C9.24769 17.2773 9.09362 21.7781 9.08884 21.9863Z" fill="#636363"/>
<path d="M1.37221 23.7517C2.27002 25.3305 3.86961 27.1161 6.69055 28.0835C6.39285 27.7894 6.13171 27.4605 5.9128 27.1038C4.57883 24.8885 4.87368 21.6718 6.68205 18.7096C6.73885 18.6164 6.82299 18.5429 6.92301 18.4992C7.02304 18.4555 7.1341 18.4437 7.24108 18.4653C7.34806 18.487 7.44578 18.5411 7.52094 18.6202C7.5961 18.6994 7.64506 18.7998 7.66115 18.9077C7.73605 19.4071 7.92146 20.1317 8.1924 20.7012C8.57596 18.751 9.85521 15.0917 14.1036 13.7434C14.2097 13.7098 14.3236 13.7104 14.4293 13.745C14.535 13.7796 14.6272 13.8465 14.6929 13.9363C14.7585 14.026 14.7944 14.1342 14.7953 14.2454C14.7962 14.3567 14.7622 14.4654 14.6981 14.5562C14.6094 14.6827 12.606 17.621 15.5879 20.0945C17.3299 21.5395 18.0508 24.0667 17.3411 26.2395C17.1026 26.9779 16.6908 27.6485 16.1399 28.195C18.8753 27.4263 20.9073 25.9383 22.0261 23.8154C23.324 21.3536 23.1837 18.2224 21.6776 16.0236C19.3311 12.5981 19.8868 9.48706 20.4366 7.92147C18.0705 8.77253 17.5663 10.8375 17.4643 11.8548C17.4606 12.0636 17.4531 12.2751 17.442 12.4897C17.4352 12.6256 17.3765 12.7537 17.2781 12.8475C17.1796 12.9414 17.0489 12.994 16.9129 12.9944C16.6441 13.013 16.3965 12.7744 16.3811 12.4929C16.3811 12.4822 16.371 12.2682 16.4002 11.9255C16.5931 3.82659 11.3953 0.873906 9.23949 0C9.63368 1.74994 9.92905 5.34916 6.63211 7.80937C1.76374 11.4421 4.6548 17.2423 4.78018 17.4877C4.82426 17.5737 4.84404 17.6701 4.83739 17.7665C4.83075 17.8629 4.79792 17.9557 4.74246 18.0349C4.68749 18.1145 4.61165 18.1773 4.52327 18.2166C4.43489 18.2559 4.33739 18.27 4.24149 18.2575C2.08886 17.9887 1.00033 16.4985 0.521145 15.0965C-0.29273 17.5307 -0.255543 20.8887 1.37221 23.7517ZM21.6532 18.6256C22.0389 20.0425 21.9651 21.4811 21.4333 22.9017C21.4094 22.9677 21.3726 23.0284 21.3251 23.0801C21.2776 23.1319 21.2203 23.1737 21.1565 23.2031C21.0927 23.2326 21.0237 23.2491 20.9535 23.2517C20.8833 23.2543 20.8133 23.243 20.7475 23.2184C20.6817 23.1938 20.6215 23.1563 20.5702 23.1083C20.519 23.0602 20.4778 23.0025 20.4491 22.9384C20.4203 22.8743 20.4045 22.8051 20.4027 22.7349C20.4008 22.6647 20.4129 22.5948 20.4382 22.5293C20.8903 21.3212 20.9541 20.1014 20.6279 18.904C20.5908 18.768 20.6093 18.6229 20.6793 18.5006C20.7492 18.3782 20.8649 18.2887 21.0008 18.2516C21.1368 18.2146 21.2819 18.233 21.4043 18.303C21.5266 18.3729 21.6162 18.4886 21.6532 18.6246V18.6256ZM19.7014 16.1431C19.8083 16.052 19.9469 16.0069 20.087 16.0177C20.227 16.0284 20.3571 16.0941 20.4489 16.2005C20.4627 16.2169 20.5918 16.3689 20.7676 16.6387C20.8422 16.7568 20.8673 16.8995 20.8375 17.0359C20.8077 17.1723 20.7253 17.2915 20.6083 17.3677C20.4913 17.4439 20.3489 17.4709 20.2121 17.443C20.0753 17.415 19.955 17.3343 19.8772 17.2183C19.7466 17.0175 19.6525 16.9038 19.6424 16.8911C19.5515 16.7837 19.5067 16.6447 19.518 16.5044C19.5292 16.3642 19.5955 16.2341 19.7025 16.1426L19.7014 16.1431ZM7.77643 8.30875C7.90205 8.2463 8.04728 8.23607 8.18042 8.2803C8.31356 8.32454 8.4238 8.41964 8.48707 8.54486C8.55034 8.67007 8.56152 8.81523 8.51816 8.94866C8.47479 9.08208 8.38041 9.19294 8.25561 9.25703C8.14936 9.31122 5.66524 10.6075 6.13168 12.946C6.14646 13.0149 6.14742 13.0859 6.13449 13.1552C6.12156 13.2244 6.095 13.2903 6.05636 13.3492C6.01772 13.408 5.96777 13.4586 5.90941 13.498C5.85105 13.5373 5.78544 13.5647 5.71641 13.5785C5.64737 13.5923 5.57628 13.5923 5.50726 13.5784C5.43825 13.5644 5.37269 13.5369 5.3144 13.4975C5.2561 13.458 5.20624 13.4073 5.16769 13.3484C5.12915 13.2895 5.10271 13.2235 5.0899 13.1543C4.58946 10.6447 6.62839 8.88728 7.77643 8.30875Z" fill="#636363"/>
</svg>
