<svg width="28" height="33" viewBox="0 0 28 33" fill="none" xmlns="http://www.w3.org/2000/svg">
<path fill-rule="evenodd" clip-rule="evenodd" d="M13.1887 0C9.13763 2.58055 4.52705 4.38069 0 5.59918V21.7494C0 27.5474 7.25269 30.5386 13.1887 32.6719C14.8522 32.074 16.6193 31.4088 18.3008 30.6333C18.0625 30.2137 17.8799 29.7648 17.7576 29.298C16.1983 30.0216 14.6581 30.5895 13.4593 31.0222L13.1887 31.1199L12.9181 31.0222C9.00588 29.6099 1.46094 26.7608 1.46094 21.7493V6.71148L2.02938 6.54141C5.76174 5.42446 9.42212 3.9355 12.7851 1.95945L13.1887 1.72225L13.5924 1.95945C16.9554 3.9355 20.6158 5.42453 24.3481 6.54141L24.9166 6.71148V21.7494C24.9166 22.0212 24.8931 22.2863 24.8505 22.5456C25.3339 22.6984 25.7942 22.9164 26.2186 23.1938C26.3247 22.7197 26.378 22.2353 26.3775 21.7494V5.59918C21.8504 4.38069 17.2399 2.58055 13.1888 0H13.1887ZM18.3722 27.8779C18.3722 25.2303 20.5185 23.0839 23.1661 23.0839C25.8137 23.0839 27.96 25.2303 27.96 27.8779C27.96 30.5255 25.8137 32.6718 23.1661 32.6718C20.5185 32.6718 18.3722 30.5255 18.3722 27.8779ZM25.0984 25.9563C25.1735 25.8837 25.2742 25.8435 25.3786 25.8444C25.4831 25.8454 25.583 25.8873 25.6569 25.9611C25.7308 26.035 25.7727 26.1349 25.7736 26.2394C25.7745 26.3439 25.7343 26.4445 25.6618 26.5197L22.3819 29.7995C22.1993 29.9821 21.8817 29.9553 21.7421 29.6924L20.6081 27.7285C20.5553 27.6372 20.5409 27.5287 20.568 27.4269C20.5951 27.325 20.6617 27.2381 20.7529 27.1853C20.8441 27.1324 20.9526 27.118 21.0545 27.1451C21.1563 27.1723 21.2432 27.2388 21.2961 27.33L22.185 28.8697L25.0984 25.9563ZM2.25781 7.30475C6.04908 6.1702 9.77699 4.65116 13.1887 2.64636C16.6005 4.65109 20.3284 6.1702 24.1197 7.30475V21.7494C24.1197 21.957 24.1039 22.1608 24.0735 22.3608C20.4311 21.766 17.2101 24.798 17.6083 28.4849C16.8684 28.8338 16.1248 29.1497 15.4132 29.4338V24.1553C17.2348 23.3093 18.506 21.4605 18.506 19.329V10.5234C18.506 9.9697 18.0531 9.51668 17.4994 9.51668C16.9457 9.51668 16.4926 9.9697 16.4926 10.5234V18.1946C16.4926 19.6976 14.1955 19.6976 14.1955 18.1946V10.5234C14.1955 9.9697 13.7426 9.51668 13.1888 9.51668C12.6351 9.51668 12.1821 9.9697 12.1821 10.5234V18.1946C12.1821 19.6976 9.88503 19.6976 9.88503 18.1946V10.5234C9.88503 9.9697 9.43201 9.51668 8.87832 9.51668C8.32462 9.51668 7.87153 9.9697 7.87153 10.5234V19.329C7.87153 21.4605 9.14275 23.3092 10.9643 24.1553V29.4338C7.08674 27.8854 2.25788 25.3959 2.25788 21.7493L2.25781 7.30475Z" fill="#636363"/>
</svg>
