<svg width="24" height="24" viewBox="0 0 24 24" fill="none" xmlns="http://www.w3.org/2000/svg">
<path d="M2.91562 19.4973L1.14112 23.0468C0.829119 23.6768 1.7857 24.167 2.11016 23.5311L4.12733 19.4973H5.62449L7.64166 23.5311C7.96179 24.1621 8.92541 23.6817 8.6107 23.0463L6.8362 19.4968H7.95095C9.96703 19.4962 10.435 16.6238 8.52024 15.9873C5.96177 15.1308 3.63633 13.6937 1.72612 11.7883L0.926077 10.9883C0.607036 10.6497 -0.0164225 10.9027 0.000369166 11.3723V16.789C0.000369166 19.4973 2.91562 19.4973 2.91562 19.4973ZM23.4995 10.8718C23.4005 10.8308 23.2915 10.8201 23.1865 10.841C23.0814 10.8619 22.9848 10.9135 22.9091 10.9893L22.109 11.7894C20.1988 13.6947 17.8734 15.1319 15.3149 15.9884C13.4023 16.6254 13.8649 19.4957 15.8842 19.4973H16.999L15.2245 23.0468C14.913 23.6768 15.8685 24.167 16.1935 23.5311L18.2107 19.4973H19.7078L21.725 23.5311C21.7893 23.6596 21.902 23.7573 22.0383 23.8027C22.1746 23.8481 22.3234 23.8375 22.4519 23.7732C22.5804 23.7089 22.6781 23.5962 22.7235 23.4599C22.7689 23.3236 22.7583 23.1748 22.694 23.0463L20.9185 19.4973C22.4806 19.5991 23.8402 18.3647 23.8337 16.789V11.3723C23.8337 11.2652 23.802 11.1604 23.7425 11.0714C23.683 10.9823 23.5984 10.9128 23.4995 10.8718ZM23.4405 6.47617C23.7893 6.38625 23.9512 5.9345 23.7357 5.64471C22.5223 3.91358 20.9124 2.4979 19.0403 1.51592C17.1682 0.533936 15.0883 0.0141591 12.9744 0C13.0247 0.0335833 13.4321 0.268667 13.4613 0.296292C15.4232 1.77775 16.4047 4.21904 16.2504 6.64733C18.6229 7.20688 21.0929 7.14892 23.4405 6.47617ZM0.392536 6.47617C0.0437025 6.38625 -0.118256 5.9345 0.0973274 5.64471C1.3107 3.91361 2.92065 2.49796 4.79273 1.51598C6.66481 0.534 8.74467 0.0142037 10.8586 0C10.8082 0.0335833 10.4009 0.268667 10.3717 0.296292C8.41028 1.77829 7.42879 4.21904 7.58316 6.64733C5.21121 7.20733 2.73515 7.14839 0.392536 6.47617Z" fill="#636363"/>
<path d="M18.9583 12.9973C18.9583 12.1014 18.2293 11.3723 17.3333 11.3723H12.4583V10.289H11.375V11.3723H6.5C5.60408 11.3723 4.875 12.1014 4.875 12.9973C4.875 13.8932 5.60408 14.6223 6.5 14.6223H11.375V23.289C11.3853 23.9953 12.4459 24.0056 12.4583 23.289V14.6223H17.3333C18.2293 14.6223 18.9583 13.8932 18.9583 12.9973ZM13.2427 6.95991C13.8894 6.89707 14.5351 6.80336 15.1667 6.64736V5.95566C15.1759 3.74511 13.9073 1.6077 11.9167 0.628906C9.65738 1.73391 8.48738 4.18711 8.66667 6.64736C10.1606 6.99999 11.7146 7.10399 13.2427 6.95991ZM11.375 8.09524V9.20566H12.4583V8.09524C12.0976 8.11528 11.7358 8.11528 11.375 8.09524Z" fill="#636363"/>
</svg>
