<svg width="28" height="24" viewBox="0 0 28 24" fill="none" xmlns="http://www.w3.org/2000/svg">
<path d="M20.0041 17.8865C18.4009 19.4897 16.2694 20.3726 14.0022 20.3726C11.735 20.3726 9.60344 19.4897 8.00027 17.8865C7.72233 17.6084 7.46397 17.3115 7.22705 16.9977H4.12041C4.50989 17.4003 4.90009 17.8022 5.291 18.2034L7.00523 21.497L10.6671 22.1115L13.9896 23.7693L17.3136 22.1148L20.9744 21.5004L22.6946 18.2108C22.6946 18.2108 23.3816 17.5054 23.8714 16.9977H20.7772C20.5403 17.3115 20.282 17.6085 20.0041 17.8865ZM8.00027 5.88273C9.60344 4.27957 11.735 3.39664 14.0022 3.39664C16.2694 3.39664 18.4009 4.27957 20.0041 5.88273C20.282 6.16082 20.5404 6.45781 20.7773 6.77157H23.8682C23.3801 6.26626 22.6976 5.56588 22.6976 5.56588L20.9834 2.27227L17.3215 1.65774L13.999 0L10.675 1.65446L7.0142 2.26887L5.29401 5.55844C5.29401 5.55844 4.60702 6.26385 4.11719 6.77157H7.2271C7.46399 6.45779 7.72234 6.16081 8.00027 5.88273Z" fill="#636363"/>
<path d="M14 4.98254C12.1564 4.98254 10.4232 5.70048 9.11952 7.00412C6.42846 9.69524 6.42846 14.074 9.11952 16.7651C10.4232 18.0687 12.1564 18.7867 14 18.7867C15.8436 18.7867 17.5768 18.0687 18.8805 16.7651C21.5715 14.074 21.5715 9.69524 18.8805 7.00412C17.5768 5.70048 15.8436 4.98254 14 4.98254ZM12.9217 15.2439L10.0999 12.4221L11.26 11.262L12.9217 12.9237L16.74 9.10538L17.9001 10.2655L12.9217 15.2439ZM21.7803 8.35747C22.7907 10.5927 22.7907 13.1765 21.7803 15.4117H28L26.9246 11.8846L28 8.35747H21.7803ZM6.21972 8.35747H0L1.0226 11.8846L0 15.4117H6.21972C5.20937 13.1765 5.20931 10.5927 6.21972 8.35747Z" fill="#636363"/>
</svg>
