<svg width="25" height="25" viewBox="0 0 25 25" fill="none" xmlns="http://www.w3.org/2000/svg">
<path fill-rule="evenodd" clip-rule="evenodd" d="M22.4999 18.6718C23.6608 16.8314 24.3049 14.7125 24.3647 12.5374H21.3535C21.267 14.8475 20.309 17.0392 18.6723 18.6718H22.4999ZM14.284 12.5523V10.6812C14.2825 10.5123 14.2143 10.3508 14.0944 10.2319C13.9744 10.113 13.8123 10.0463 13.6434 10.0463C13.4744 10.0463 13.3124 10.113 13.1924 10.2319C13.0724 10.3508 13.0042 10.5123 13.0027 10.6812V11.9436C13.2317 12.0586 13.4234 12.2362 13.5553 12.4559C13.6873 12.6755 13.7542 12.9281 13.7482 13.1842C13.8975 13.1588 14.0332 13.0814 14.1312 12.9659C14.2292 12.8503 14.2833 12.7038 14.284 12.5523ZM12.3971 14.5028C12.62 14.5025 12.8394 14.4471 13.0358 14.3416C13.2321 14.236 13.3993 14.0835 13.5225 13.8978C13.8287 13.9261 14.1354 13.8482 14.3909 13.6772C14.4947 13.9216 14.668 14.1301 14.8892 14.2769C15.1105 14.4237 15.37 14.5022 15.6355 14.5028C15.8586 14.503 16.0782 14.4475 16.2745 14.3414C16.2716 14.9433 16.2656 15.5446 16.2656 16.1466C16.2656 16.7824 15.6505 17.1931 15.0581 17.1931C14.9638 17.1931 14.8734 17.2305 14.8068 17.2972C14.7401 17.3638 14.7026 17.4543 14.7026 17.5485V24.675H9.53819V17.3601C9.53821 17.2796 9.5109 17.2015 9.46073 17.1385C9.41057 17.0756 9.34052 17.0315 9.26204 17.0135C8.58965 16.7485 8.08112 16.4626 8.08727 15.6252V13.1512C8.08832 12.9814 8.15635 12.8189 8.27657 12.6989C8.39678 12.579 8.55948 12.5113 8.7293 12.5106H12.3971C12.567 12.5106 12.7299 12.5781 12.8501 12.6982C12.9702 12.8184 13.0377 12.9813 13.0377 13.1512C13.0377 13.3211 12.9702 13.4841 12.8501 13.6042C12.7299 13.7243 12.567 13.7918 12.3971 13.7918H9.91895C9.83103 13.7917 9.74619 13.8242 9.68083 13.883C9.61546 13.9418 9.5742 14.0227 9.56502 14.1102C9.55584 14.1976 9.57939 14.2854 9.63112 14.3565C9.68285 14.4275 9.75909 14.4769 9.84511 14.4951C10.5294 14.7107 11.0343 15.1151 11.0229 15.8822C11.0222 15.9288 11.0308 15.975 11.048 16.0183C11.0652 16.0616 11.0909 16.101 11.1234 16.1343C11.1559 16.1677 11.1946 16.1943 11.2374 16.2127C11.2802 16.231 11.3262 16.2407 11.3728 16.2413C11.4193 16.2418 11.4656 16.2332 11.5088 16.2158C11.552 16.1985 11.5914 16.1728 11.6247 16.1402C11.6579 16.1077 11.6845 16.0688 11.7027 16.026C11.721 15.9832 11.7306 15.9371 11.731 15.8906C11.7388 15.3638 11.5807 14.8889 11.2185 14.5028H12.3971ZM9.01845 11.7997H10.2997V9.4836C10.2997 9.3137 10.2322 9.15076 10.112 9.03063C9.99189 8.91049 9.82895 8.843 9.65905 8.843C9.48915 8.843 9.32621 8.91049 9.20607 9.03063C9.08594 9.15076 9.01845 9.3137 9.01845 9.4836V11.7998V11.7997ZM11.0106 11.7997H12.2918V10.0824C12.2918 9.91246 12.2243 9.74952 12.1042 9.62939C11.984 9.50925 11.8211 9.44176 11.6512 9.44176C11.4813 9.44176 11.3184 9.50925 11.1982 9.62939C11.0781 9.74952 11.0106 9.91246 11.0106 10.0824V11.7997ZM15.6355 10.6395C15.4659 10.6403 15.3033 10.708 15.1834 10.828C15.0634 10.9479 14.9957 11.1105 14.9949 11.2801V13.1512C14.9949 13.3211 15.0624 13.4841 15.1826 13.6042C15.3027 13.7243 15.4656 13.7918 15.6355 13.7918C15.8054 13.7918 15.9684 13.7243 16.0885 13.6042C16.2087 13.4841 16.2762 13.3211 16.2762 13.1512V11.2801C16.2754 11.1105 16.2077 10.948 16.0877 10.828C15.9677 10.708 15.8052 10.6403 15.6355 10.6395ZM17.0924 7.66142L15.7569 9.93403C15.4505 9.90623 15.1439 9.98432 14.8881 10.1553C14.7873 9.91801 14.621 9.7144 14.4086 9.56832C14.1961 9.42223 13.9465 9.33974 13.6888 9.3305L16.8839 7.45266C16.913 7.43565 16.9469 7.42876 16.9804 7.43308C17.0138 7.4374 17.0449 7.45268 17.0687 7.47654C17.0926 7.50039 17.1078 7.53146 17.1122 7.56491C17.1165 7.59836 17.1096 7.6323 17.0926 7.66142H17.0924ZM24.3643 11.8265C24.2812 8.84038 23.1004 5.98967 21.0476 3.81946L18.9183 5.94877C20.4072 7.5534 21.2711 9.63898 21.3529 11.8265H24.3643ZM20.5449 3.31683L18.4156 5.44614C16.8111 3.95702 14.7254 3.09311 12.5379 3.01148V0.000152357C15.524 0.0831382 18.3748 1.26397 20.5449 3.31683ZM11.827 0C8.84083 0.0830729 5.99012 1.26396 3.81997 3.31683L5.94923 5.44609C7.55384 3.95709 9.63944 3.09322 11.827 3.01148V0.000152357V0ZM3.31734 3.81946L5.44659 5.94877C3.95759 7.55339 3.0937 9.63897 3.01194 11.8265H0.000609331C0.0836375 8.84037 1.26449 5.98963 3.31734 3.81946ZM0 12.5374C0.059842 14.7125 0.703964 16.8314 1.86479 18.6718H5.69258C4.05582 17.0393 3.09785 14.8476 3.01133 12.5374H0Z" fill="#636363"/>
</svg>
