<svg width="24" height="24" viewBox="0 0 24 24" fill="none" xmlns="http://www.w3.org/2000/svg">
<path d="M4.71764 19.5V17.3203L0.609375 21.4286H2.78906C3.85373 21.4274 4.71652 20.5646 4.71764 19.5Z" fill="#636363"/>
<path d="M7.28573 19.5V15.6428C7.28752 14.1051 8.53369 12.8589 10.0715 12.8571H12.8572V11.1428H0V12.8571H2.78573C4.32352 12.8589 5.56969 14.1051 5.57147 15.6428V19.5C5.56969 21.0378 4.32352 22.284 2.78573 22.2857H0V24H12.8572V22.2857H10.0714C8.53364 22.284 7.28752 21.0378 7.28573 19.5ZM23.394 0H10.8917L0.606 10.2857H13.1083L23.394 0ZM13.7143 10.8917V12.2512L18.3398 7.62558L24 1.96542V0.606L13.7143 10.8917ZM13.7143 22.0286V23.3572L21.5464 15.1333L24 12.6797V11.3203L22.1602 13.1602L13.7143 22.0286Z" fill="#636363"/>
<path d="M23.3918 10.7143H21.2121C21.1756 10.7118 21.1395 10.7046 21.1049 10.6927C21.0703 10.7046 21.0343 10.7119 20.9978 10.7143C19.8023 10.7123 18.7411 9.94867 18.3594 8.8158L13.5866 13.5886C13.5061 13.6688 13.3971 13.714 13.2835 13.7143H10.0692C9.00458 13.7155 8.1418 14.5782 8.14062 15.6429V19.5C8.1418 20.5646 9.00458 21.4274 10.0692 21.4286H13.0998L21.5444 12.5617L23.3918 10.7143ZM10.1592 19.997C10.0993 20.0574 10.0227 20.0986 9.93926 20.1153C9.85581 20.1321 9.76927 20.1236 9.69066 20.0909C9.61206 20.0583 9.54494 20.003 9.49788 19.9321C9.45081 19.8612 9.42591 19.7779 9.42636 19.6928C9.42636 19.5791 9.47151 19.4701 9.55189 19.3897C9.63226 19.3093 9.74127 19.2642 9.85494 19.2642C9.9686 19.2642 10.0776 19.3093 10.158 19.3897C10.2384 19.4701 10.2835 19.5791 10.2835 19.6928C10.2841 19.7492 10.2734 19.8052 10.252 19.8574C10.2307 19.9097 10.1992 19.9571 10.1592 19.997ZM11.8794 18.1938L11.4508 18.6429C11.3721 18.7241 11.2645 18.7709 11.1514 18.7731C11.0383 18.7753 10.929 18.7327 10.8471 18.6546C10.7653 18.5766 10.7176 18.4693 10.7145 18.3563C10.7114 18.2432 10.7531 18.1335 10.8305 18.0511L11.2591 17.602C11.3376 17.5197 11.4455 17.472 11.5592 17.4694C11.6729 17.4667 11.7829 17.5093 11.8652 17.5877C11.9474 17.6662 11.9951 17.7742 11.9978 17.8878C12.0005 18.0015 11.9579 18.1115 11.8794 18.1938ZM13.5937 16.3979L13.1651 16.8469C13.0864 16.9281 12.9788 16.975 12.8657 16.9772C12.7526 16.9794 12.6432 16.9368 12.5614 16.8587C12.4796 16.7807 12.4319 16.6734 12.4288 16.5604C12.4257 16.4473 12.4674 16.3376 12.5448 16.2551L12.9734 15.8061C13.0521 15.7249 13.1597 15.6781 13.2728 15.6759C13.3859 15.6736 13.4953 15.7162 13.5771 15.7943C13.6589 15.8724 13.7066 15.9796 13.7097 16.0927C13.7128 16.2057 13.6711 16.3154 13.5937 16.3979ZM15.308 14.602L14.8794 15.0511C14.8007 15.1323 14.693 15.1791 14.58 15.1813C14.4669 15.1835 14.3575 15.1409 14.2757 15.0629C14.1938 14.9848 14.1462 14.8775 14.1431 14.7645C14.14 14.6514 14.1817 14.5417 14.2591 14.4593L14.6877 14.0102C14.7664 13.929 14.874 13.8822 14.9871 13.88C15.1002 13.8778 15.2095 13.9203 15.2914 13.9984C15.3732 14.0765 15.4209 14.1837 15.424 14.2968C15.4271 14.4098 15.3854 14.5195 15.308 14.602ZM17.0223 12.8061L16.5937 13.2551C16.5152 13.3374 16.4073 13.3851 16.2936 13.3878C16.1799 13.3904 16.0699 13.3478 15.9876 13.2693C15.9054 13.1909 15.8577 13.0829 15.855 12.9693C15.8524 12.8556 15.895 12.7455 15.9734 12.6633L16.402 12.2142C16.4407 12.173 16.4873 12.1398 16.5389 12.1166C16.5905 12.0934 16.6462 12.0807 16.7028 12.0791C16.7593 12.0775 16.8156 12.0872 16.8685 12.1075C16.9213 12.1278 16.9696 12.1584 17.0105 12.1975C17.0514 12.2365 17.0842 12.2833 17.107 12.3351C17.1298 12.3869 17.1421 12.4427 17.1432 12.4993C17.1442 12.5559 17.1341 12.6121 17.1134 12.6648C17.0926 12.7174 17.0617 12.7655 17.0223 12.8061ZM18.3021 11.4643C18.2625 11.505 18.2152 11.5373 18.163 11.5594C18.1107 11.5814 18.0546 11.5928 17.9978 11.5928C17.9411 11.5928 17.8849 11.5814 17.8327 11.5594C17.7804 11.5373 17.7331 11.505 17.6936 11.4643C17.6534 11.4255 17.6216 11.3788 17.6002 11.3272C17.5788 11.2755 17.5683 11.2201 17.5693 11.1642C17.5688 11.079 17.5936 10.9957 17.6407 10.9247C17.6877 10.8538 17.7549 10.7984 17.8335 10.7658C17.9121 10.7332 17.9987 10.7247 18.0822 10.7414C18.1657 10.7582 18.2423 10.7994 18.3022 10.8599C18.3811 10.9417 18.4256 11.0506 18.4265 11.1642C18.4274 11.2201 18.4168 11.2755 18.3954 11.3272C18.3741 11.3788 18.3423 11.4254 18.3021 11.4643Z" fill="#636363"/>
</svg>
