<svg width="26" height="21" viewBox="0 0 26 21" fill="none" xmlns="http://www.w3.org/2000/svg">
<path d="M4.08285 2.70714L4.37169 3.64436C4.48935 4.02584 4.69841 4.3728 4.98069 4.65509C5.26297 4.93737 5.60994 5.14643 5.99141 5.26408L6.92863 5.55333C7.07854 5.59924 7.07854 5.81171 6.92863 5.85802L5.99141 6.14646C5.60989 6.26415 5.2629 6.47327 4.98061 6.75562C4.69832 7.03798 4.48929 7.38503 4.37169 7.76658L4.08285 8.7038C4.07291 8.73646 4.05273 8.76505 4.0253 8.78537C3.99788 8.80569 3.96464 8.81666 3.93051 8.81666C3.89637 8.81666 3.86314 8.80569 3.83571 8.78537C3.80828 8.76505 3.78811 8.73646 3.77816 8.7038L3.48891 7.76658C3.37126 7.3851 3.1622 7.03814 2.87992 6.75586C2.59764 6.47357 2.25067 6.26452 1.86919 6.14686L0.931976 5.85802C0.89932 5.84807 0.870724 5.8279 0.850404 5.80047C0.830084 5.77304 0.819115 5.73981 0.819115 5.70567C0.819115 5.67154 0.830084 5.63831 0.850404 5.61088C0.870724 5.58345 0.89932 5.56327 0.931976 5.55333L1.86919 5.26408C2.25067 5.14643 2.59764 4.93737 2.87992 4.65509C3.1622 4.3728 3.37126 4.02584 3.48891 3.64436L3.77816 2.70714C3.78811 2.67449 3.80828 2.64589 3.83571 2.62557C3.86314 2.60525 3.89637 2.59428 3.93051 2.59428C3.96464 2.59428 3.99788 2.60525 4.0253 2.62557C4.05273 2.64589 4.07291 2.67449 4.08285 2.70714ZM19.8007 15.1713L19.5557 15.9651C19.456 16.2882 19.279 16.5821 19.0399 16.8212C18.8008 17.0603 18.5069 17.2374 18.1838 17.337L17.3904 17.582C17.3628 17.5904 17.3386 17.6075 17.3214 17.6307C17.3042 17.654 17.2949 17.6821 17.2949 17.711C17.2949 17.7399 17.3042 17.768 17.3214 17.7912C17.3386 17.8144 17.3628 17.8315 17.3904 17.84L18.1838 18.0845C18.5069 18.1842 18.8009 18.3613 19.04 18.6005C19.279 18.8397 19.4561 19.1336 19.5557 19.4568L19.8007 20.2502C19.8091 20.2779 19.8262 20.302 19.8494 20.3192C19.8726 20.3364 19.9008 20.3457 19.9296 20.3457C19.9585 20.3457 19.9867 20.3364 20.0099 20.3192C20.0331 20.302 20.0502 20.2779 20.0586 20.2502L20.3036 19.4568C20.4032 19.1336 20.5802 18.8397 20.8193 18.6005C21.0584 18.3613 21.3523 18.1842 21.6755 18.0845L22.4689 17.84C22.4965 17.8315 22.5207 17.8144 22.5379 17.7912C22.5551 17.768 22.5644 17.7399 22.5644 17.711C22.5644 17.6821 22.5551 17.654 22.5379 17.6307C22.5207 17.6075 22.4965 17.5904 22.4689 17.582L21.6755 17.337C21.3524 17.2374 21.0585 17.0603 20.8194 16.8212C20.5803 16.5821 20.4033 16.2882 20.3036 15.9651L20.0586 15.1713C20.0502 15.1437 20.0331 15.1195 20.0099 15.1023C19.9867 15.0851 19.9585 15.0758 19.9296 15.0758C19.9008 15.0758 19.8726 15.0851 19.8494 15.1023C19.8262 15.1195 19.8091 15.1437 19.8007 15.1713ZM23.7133 2.93749L23.5109 3.59399C23.4285 3.86121 23.282 4.10425 23.0843 4.302C22.8866 4.49974 22.6435 4.6462 22.3763 4.72864L21.7198 4.93095C21.6969 4.93795 21.6769 4.9521 21.6626 4.97134C21.6484 4.99057 21.6407 5.01387 21.6407 5.0378C21.6407 5.06173 21.6484 5.08503 21.6626 5.10426C21.6769 5.1235 21.6969 5.13765 21.7198 5.14464L22.3763 5.34696C22.6435 5.4294 22.8866 5.57586 23.0843 5.7736C23.282 5.97134 23.4285 6.21439 23.5109 6.48161L23.7133 7.13811C23.7458 7.24333 23.8944 7.24333 23.9269 7.13811L24.1293 6.48161C24.2117 6.21439 24.3582 5.97134 24.5559 5.7736C24.7536 5.57586 24.9967 5.4294 25.2639 5.34696L25.9204 5.14464C25.9433 5.13765 25.9633 5.1235 25.9776 5.10426C25.9918 5.08503 25.9995 5.06173 25.9995 5.0378C25.9995 5.01387 25.9918 4.99057 25.9776 4.97134C25.9633 4.9521 25.9433 4.93795 25.9204 4.93095L25.2639 4.72864C24.9967 4.6462 24.7536 4.49974 24.5559 4.302C24.3582 4.10425 24.2117 3.86121 24.1293 3.59399L23.9269 2.93749C23.92 2.9146 23.9058 2.89456 23.8866 2.88033C23.8673 2.86609 23.844 2.85841 23.8201 2.85841C23.7962 2.85841 23.7729 2.86609 23.7536 2.88033C23.7344 2.89456 23.7202 2.9146 23.7133 2.93749ZM16.7054 0.0206114C15.7694 -0.150014 13.8008 0.741299 12.3151 2.59827C12.1071 2.85095 12.1364 3.22227 12.3744 3.45261C12.4191 3.4973 12.4638 3.54199 12.5154 3.58667C12.8128 3.84667 13.0951 4.06199 13.3551 4.24033C13.0281 4.35896 12.5601 4.49261 11.9881 4.52999C11.8394 4.5373 11.7057 4.54461 11.5721 4.5373C11.3121 4.5373 11.0817 4.70061 10.9928 4.93827C10.9777 4.97564 10.9631 5.0053 10.9554 5.02033C10.1384 7.2933 9.35841 9.57399 7.76144 11.3493C7.66476 11.4606 7.56076 11.5723 7.46407 11.6836C7.38124 11.778 7.32908 11.8954 7.31449 12.0201C7.29991 12.1448 7.3236 12.271 7.38241 12.382C7.44944 12.5079 7.52338 12.642 7.59773 12.7679C7.77784 13.0755 7.98158 13.3686 8.2071 13.6446C7.85773 13.667 7.3751 13.6519 6.81773 13.5187C6.72144 13.4959 6.62476 13.474 6.53538 13.4516C6.41338 13.4103 6.28139 13.4089 6.15854 13.4476C6.03569 13.4863 5.92835 13.5632 5.85207 13.667C4.99041 14.8183 4.21773 16.0366 3.60876 17.3439C3.54944 17.4703 3.48973 17.5893 3.43001 17.7156C5.28738 17.025 7.46407 15.8363 9.37344 13.7783C10.9781 12.0476 12.1737 9.90061 12.8347 7.56792C12.9258 7.24974 13.1177 6.96976 13.3817 6.77017C13.6457 6.57058 13.9675 6.46218 14.2984 6.4613C14.4471 6.4613 14.5881 6.47633 14.7217 6.52061C15.1158 6.63192 15.4351 6.88461 15.6358 7.2413C15.8361 7.59799 15.8808 8.00627 15.7694 8.39992C14.9817 11.186 13.5408 13.7636 11.6094 15.851C9.31413 18.3396 6.69138 19.766 4.47041 20.583C7.82076 21.1996 12.181 20.0479 14.6774 17.2103C14.9744 16.869 15.2641 16.5196 15.5537 16.1703C15.6397 16.0603 15.687 15.925 15.6884 15.7854C15.6898 15.6458 15.6452 15.5097 15.5614 15.398L15.5537 15.3903C15.2783 15.0125 15.0582 14.5973 14.9001 14.1573C15.2048 14.2467 15.5541 14.3206 15.9401 14.3726C16.1257 14.4023 16.3041 14.4173 16.4824 14.4323C16.5923 14.4397 16.7023 14.4182 16.8013 14.3699C16.9004 14.3217 16.9851 14.2484 17.0471 14.1573C18.1168 12.575 18.993 10.8667 19.4911 9.0613C19.5263 8.93115 19.5177 8.79304 19.4667 8.66825C19.4157 8.54345 19.325 8.43889 19.2088 8.37067C19.1494 8.34061 19.0974 8.30364 19.0381 8.27399C18.6477 8.01711 18.293 7.70976 17.9831 7.35992C18.2951 7.33027 18.6514 7.27096 19.0304 7.18199C19.1864 7.15233 19.3351 7.10764 19.4761 7.07027C19.7288 6.98902 19.9067 6.76558 19.9144 6.50558C19.9217 6.46902 19.9217 6.43164 19.9217 6.39427C20.0481 3.77233 18.1988 0.295643 16.7054 0.0206114ZM0.911663 20.7678C3.18504 20.3859 7.52623 19.1741 11.0659 15.3496C12.9184 13.3468 14.2988 10.8744 15.0565 8.19964C15.0845 8.10071 15.0928 7.99721 15.0809 7.89507C15.0689 7.79292 15.037 7.69413 14.9868 7.60435C14.9367 7.51456 14.8694 7.43553 14.7887 7.37177C14.708 7.30801 14.6155 7.26078 14.5166 7.23277C14.4176 7.20448 14.3141 7.19602 14.2119 7.20787C14.1097 7.21972 14.0108 7.25164 13.9209 7.30181C13.8311 7.35198 13.7521 7.4194 13.6883 7.50021C13.6246 7.58101 13.5775 7.67361 13.5497 7.77267C12.8591 10.2114 11.6025 12.4636 9.91579 14.2857C6.69301 17.7693 2.72923 18.8743 0.653288 19.2232C0.551898 19.2403 0.454852 19.2771 0.367692 19.3316C0.280531 19.3861 0.204964 19.4573 0.145304 19.541C0.0248146 19.7101 -0.0235664 19.9201 0.010804 20.1249C0.0278225 20.2263 0.0646447 20.3233 0.119168 20.4105C0.173692 20.4977 0.244849 20.5732 0.328577 20.6329C0.497673 20.7534 0.707708 20.8018 0.912476 20.7674L0.911663 20.7678Z" fill="#636363"/>
</svg>
