<svg width="25" height="25" viewBox="0 0 25 25" fill="none" xmlns="http://www.w3.org/2000/svg">
<path d="M13.7436 5.5055C13.5469 5.31001 13.3909 5.07739 13.2847 4.82115C13.1785 4.5649 13.1242 4.29013 13.125 4.01275V3.5H9.62502V4.01275C9.62502 4.56838 9.39927 5.1135 9.00639 5.50638C8.64653 5.86409 8.36123 6.28966 8.16703 6.75843C7.97282 7.2272 7.87357 7.72985 7.87502 8.23725V8.75H14.875V8.23725C14.875 7.20475 14.4734 6.23525 13.7436 5.5055ZM22.6258 11.375C22.6993 11.0933 22.75 10.8036 22.75 10.5C22.75 8.97575 21.7648 7.6895 20.4015 7.21C20.4936 7.03981 20.6087 6.88316 20.7436 6.7445C20.9079 6.58043 21.0003 6.35781 21.0005 6.12562C21.0007 5.89343 20.9086 5.67068 20.7445 5.50638C20.5804 5.34207 20.3578 5.24968 20.1256 5.24951C19.8934 5.24935 19.6707 5.34143 19.5064 5.5055C19.0739 5.94366 18.7536 6.47977 18.5728 7.06825C17.778 7.22567 17.0624 7.65367 16.5477 8.27937C16.0331 8.90508 15.7512 9.68982 15.75 10.5C15.75 10.8036 15.8008 11.0933 15.8743 11.375H22.6258ZM12.523 18.4713L14 19.6525V16.625H10.5V19.6525L11.9761 18.4713C12.0539 18.4094 12.1503 18.3758 12.2496 18.3758C12.3489 18.3758 12.4453 18.4094 12.523 18.4713Z" fill="#636363"/>
<path d="M14.8746 16.625V20.5625C14.8747 20.645 14.8514 20.7258 14.8074 20.7956C14.7635 20.8654 14.7007 20.9214 14.6264 20.957C14.552 20.9927 14.4691 21.0066 14.3871 20.9972C14.3052 20.9878 14.2276 20.9554 14.1633 20.9037L12.2496 19.3725L10.3351 20.9037C10.2707 20.9548 10.1932 20.9866 10.1116 20.9957C10.0299 21.0048 9.9473 20.9908 9.87322 20.9552C9.79914 20.9196 9.73655 20.864 9.6926 20.7945C9.64865 20.7251 9.6251 20.6447 9.62464 20.5625V16.625H2.62464V23.625C2.62464 23.8571 2.71683 24.0796 2.88093 24.2437C3.04502 24.4078 3.26758 24.5 3.49964 24.5H20.9996C21.2317 24.5 21.4543 24.4078 21.6184 24.2437C21.7825 24.0796 21.8746 23.8571 21.8746 23.625V16.625H14.8746ZM13.1246 2.625H9.62464C9.39258 2.625 9.17002 2.53281 9.00593 2.36872C8.84183 2.20462 8.74964 1.98206 8.74964 1.75V0.875C8.74964 0.642936 8.84183 0.420376 9.00593 0.256282C9.17002 0.0921872 9.39258 0 9.62464 0H13.1246C13.3567 0 13.5793 0.0921872 13.7434 0.256282C13.9075 0.420376 13.9996 0.642936 13.9996 0.875V1.75C13.9996 1.98206 13.9075 2.20462 13.7434 2.36872C13.5793 2.53281 13.3567 2.625 13.1246 2.625ZM7.87464 9.625H14.8746V11.375H7.87464V9.625ZM4.81214 3.5C4.23198 3.5 3.67558 3.73047 3.26535 4.1407C2.85511 4.55094 2.62464 5.10734 2.62464 5.6875V6.125H3.93714C4.05318 6.125 4.16446 6.17109 4.2465 6.25314C4.32855 6.33519 4.37464 6.44647 4.37464 6.5625C4.37464 6.67853 4.32855 6.78981 4.2465 6.87186C4.16446 6.95391 4.05318 7 3.93714 7H2.62464V7.875H3.93714C4.05318 7.875 4.16446 7.92109 4.2465 8.00314C4.32855 8.08519 4.37464 8.19647 4.37464 8.3125C4.37464 8.42853 4.32855 8.53981 4.2465 8.62186C4.16446 8.70391 4.05318 8.75 3.93714 8.75H2.62464V9.625H3.93714C4.05318 9.625 4.16446 9.67109 4.2465 9.75314C4.32855 9.83519 4.37464 9.94647 4.37464 10.0625C4.37464 10.1785 4.32855 10.2898 4.2465 10.3719C4.16446 10.4539 4.05318 10.5 3.93714 10.5H2.62464V11.375H6.99964V5.6875C6.99964 5.10734 6.76918 4.55094 6.35894 4.1407C5.9487 3.73047 5.3923 3.5 4.81214 3.5ZM2.62464 12.25H21.8746C22.0265 12.25 22.1757 12.2896 22.3077 12.3647C22.4396 12.4399 22.5497 12.5481 22.6271 12.6787L24.4078 15.05C24.6326 15.3388 24.4191 15.75 24.0455 15.75H0.453769C0.0801439 15.75 -0.132481 15.3388 0.0915188 15.05L1.87214 12.6787C1.94959 12.5481 2.05969 12.4399 2.19163 12.3647C2.32356 12.2896 2.47279 12.25 2.62464 12.25Z" fill="#636363"/>
</svg>
