<svg width="28" height="33" viewBox="0 0 28 33" fill="none" xmlns="http://www.w3.org/2000/svg">
<path fill-rule="evenodd" clip-rule="evenodd" d="M15.8137 1.3196V31.6705C15.8137 32.0205 15.6747 32.3561 15.4272 32.6036C15.1797 32.8511 14.8441 32.9901 14.4941 32.9901H12.6426C12.2926 32.9901 11.957 32.8511 11.7095 32.6036C11.462 32.3561 11.323 32.0205 11.323 31.6705V1.3196C11.323 0.969623 11.462 0.633977 11.7095 0.386503C11.957 0.139029 12.2926 0 12.6426 0H14.4941C14.8441 0 15.1797 0.139029 15.4272 0.386503C15.6747 0.633977 15.8137 0.969623 15.8137 1.3196ZM0 9.78863L10.0101 14.7715V29.0074L0.364911 24.1848C0.255284 24.13 0.163077 24.0458 0.0986247 23.9416C0.0341724 23.8373 2.16666e-05 23.7172 0 23.5947V9.78863ZM18.7424 26.7243L21.1032 25.5441C21.2595 25.4678 21.4396 25.4563 21.6043 25.512C21.7691 25.5678 21.9051 25.6864 21.9829 25.8419C22.0607 25.9975 22.0739 26.1774 22.0197 26.3427C21.9654 26.5079 21.8482 26.6451 21.6933 26.7243L19.3325 27.9046C19.1763 27.9809 18.9962 27.9924 18.8314 27.9366C18.6667 27.8809 18.5307 27.7623 18.4529 27.6068C18.3751 27.4512 18.3619 27.2712 18.4161 27.106C18.4703 26.9407 18.5876 26.8036 18.7424 26.7243ZM23.4637 24.3639L25.8242 23.1833C25.9801 23.1103 26.1584 23.101 26.321 23.1576C26.4836 23.2141 26.6177 23.332 26.6946 23.486C26.7716 23.6399 26.7854 23.8179 26.733 23.9819C26.6806 24.1459 26.5663 24.283 26.4143 24.3639L24.0538 25.5441C23.8975 25.6204 23.7175 25.6319 23.5527 25.5762C23.388 25.5204 23.2519 25.4018 23.1742 25.2463C23.0964 25.0907 23.0832 24.9108 23.1374 24.7455C23.1916 24.5803 23.3089 24.4431 23.4637 24.3639ZM27.1367 21.3554C27.1367 21.5304 27.0672 21.6982 26.9435 21.8219C26.8197 21.9457 26.6519 22.0152 26.4769 22.0152C26.3019 22.0152 26.1341 21.9457 26.0104 21.8219C25.8866 21.6982 25.8171 21.5304 25.8171 21.3554V18.7162C25.8171 18.5412 25.8866 18.3733 26.0104 18.2496C26.1341 18.1259 26.3019 18.0564 26.4769 18.0564C26.6519 18.0564 26.8197 18.1259 26.9435 18.2496C27.0672 18.3733 27.1367 18.5412 27.1367 18.7162V21.3554ZM27.1367 16.077C27.1367 16.2519 27.0672 16.4198 26.9435 16.5435C26.8197 16.6672 26.6519 16.7368 26.4769 16.7368C26.3019 16.7368 26.1341 16.6672 26.0104 16.5435C25.8866 16.4198 25.8171 16.2519 25.8171 16.077V13.4377C25.8171 13.2628 25.8866 13.0949 26.0104 12.9712C26.1341 12.8475 26.3019 12.7779 26.4769 12.7779C26.6519 12.7779 26.8197 12.8475 26.9435 12.9712C27.0672 13.0949 27.1367 13.2628 27.1367 13.4377V16.077ZM17.1266 13.3327L19.1003 12.346C19.2565 12.2697 19.4366 12.2582 19.6014 12.314C19.7661 12.3697 19.9021 12.4883 19.9799 12.6439C20.0577 12.7994 20.0709 12.9794 20.0167 13.1446C19.9625 13.3099 19.8452 13.447 19.6904 13.5263L17.3296 14.7069C17.2657 14.7387 17.1972 14.7601 17.1266 14.7701V13.3327ZM10.0101 13.3048L0.667208 8.65418L10.0101 3.98271V13.3048ZM21.4607 11.1658L23.8212 9.98556C23.9775 9.90925 24.1576 9.89773 24.3223 9.9535C24.487 10.0093 24.6231 10.1278 24.7009 10.2834C24.7786 10.4389 24.7919 10.6189 24.7376 10.7842C24.6834 10.9494 24.5661 11.0866 24.4113 11.1658L22.0509 12.346C21.8946 12.4224 21.7145 12.4339 21.5497 12.3781C21.385 12.3223 21.249 12.2038 21.1712 12.0482C21.0934 11.8927 21.0802 11.7127 21.1344 11.5474C21.1886 11.3822 21.3059 11.245 21.4607 11.1658ZM27.1367 10.7985C27.1367 10.9735 27.0672 11.1413 26.9435 11.2651C26.8197 11.3888 26.6519 11.4583 26.4769 11.4583C26.3019 11.4583 26.1341 11.3888 26.0104 11.2651C25.8866 11.1413 25.8171 10.9735 25.8171 10.7985V9.80311L25.0762 9.43281C24.9197 9.35445 24.8008 9.2172 24.7454 9.05121C24.6901 8.88522 24.7028 8.70405 24.7809 8.54747C24.8593 8.39101 24.9966 8.27207 25.1626 8.21677C25.3286 8.16148 25.5098 8.17435 25.6663 8.25257L26.7718 8.80533C26.8814 8.8601 26.9736 8.94432 27.0381 9.04855C27.1025 9.15278 27.1367 9.2729 27.1367 9.39545V10.7985ZM22.7157 8.25257L20.3549 7.072C20.2001 6.99276 20.0828 6.85561 20.0286 6.69036C19.9744 6.52511 19.9876 6.34514 20.0653 6.18958C20.1431 6.03402 20.2792 5.91547 20.4439 5.8597C20.6086 5.80392 20.7887 5.81545 20.945 5.89176L23.3058 7.072C23.4624 7.15025 23.5814 7.2875 23.6368 7.45353C23.6922 7.61956 23.6793 7.80079 23.601 7.95735C23.5228 8.1139 23.3856 8.23296 23.2195 8.28832C23.0535 8.34369 22.8723 8.33083 22.7157 8.25257ZM17.1266 3.98271L18.5845 4.71153C18.741 4.78989 18.8599 4.92713 18.9153 5.09313C18.9706 5.25912 18.9579 5.44029 18.8798 5.59687C18.8014 5.75333 18.6641 5.87227 18.4981 5.92756C18.3321 5.98286 18.1509 5.96998 17.9944 5.89176L17.1266 5.45784V3.98271Z" fill="#636363"/>
</svg>
