<svg width="32" height="32" viewBox="0 0 32 32" fill="none" xmlns="http://www.w3.org/2000/svg">
<path d="M13.716 15.8877L15.343 17.5149C15.5549 17.7265 15.8984 17.7265 16.1101 17.5149L17.7373 15.8877C17.8389 15.7859 17.896 15.6479 17.896 15.5041V8.13548H13.5571V15.5041C13.5571 15.6479 13.6142 15.7859 13.716 15.8877ZM9.26045 1.29342L11.3811 6.38329C11.4634 6.58102 11.6025 6.74993 11.7807 6.86872C11.9589 6.98752 12.1683 7.05087 12.3825 7.05079H19.3425C19.7803 7.05079 19.9035 6.78761 20.072 6.38329L22.1926 1.29342C22.2269 1.21102 22.2404 1.12141 22.2318 1.03254C22.2232 0.943681 22.1928 0.858314 22.1433 0.784022C22.0938 0.70973 22.0267 0.648812 21.948 0.606676C21.8693 0.564539 21.7814 0.542488 21.6921 0.54248H9.76095C9.67168 0.542509 9.5838 0.564572 9.5051 0.606712C9.4264 0.648853 9.35932 0.709768 9.30981 0.784052C9.2603 0.858336 9.22989 0.943693 9.22128 1.03255C9.21267 1.1214 9.22613 1.21101 9.26045 1.29342Z" fill="#636363"/>
<path d="M2.1528 9.40973L1.00267 10.5604C0.952291 10.6107 0.912323 10.6705 0.885054 10.7363C0.857785 10.8021 0.84375 10.8726 0.84375 10.9439C0.84375 11.0151 0.857785 11.0857 0.885054 11.1515C0.912323 11.2173 0.952291 11.2771 1.00267 11.3274L14.7692 25.0943C14.8951 25.2202 15.0446 25.3201 15.2091 25.3883C15.3736 25.4564 15.5499 25.4915 15.728 25.4915C15.9061 25.4915 16.0824 25.4564 16.2469 25.3883C16.4114 25.3201 16.5608 25.2202 16.6867 25.0943L30.4536 11.3274C30.5553 11.2257 30.6124 11.0877 30.6124 10.9439C30.6124 10.8001 30.5553 10.6621 30.4536 10.5604L29.3032 9.40973C29.2014 9.30812 29.0635 9.25103 28.9197 9.25098C28.8484 9.25095 28.7779 9.26496 28.7121 9.2922C28.6463 9.31944 28.5865 9.35937 28.5361 9.40973L16.1115 21.8345C15.8999 22.0464 15.5564 22.0464 15.3444 21.8345L2.91986 9.40973C2.81809 9.30812 2.68017 9.25103 2.53636 9.25098C2.39253 9.25102 2.25459 9.30811 2.1528 9.40973Z" fill="#636363"/>
<path d="M30.9153 19.5254H25.2266C25.1407 19.5254 25.0561 19.5457 24.9796 19.5848C24.9032 19.6239 24.8371 19.6806 24.7869 19.7502L18.0608 29.0632C18.0106 29.1329 17.9445 29.1895 17.8681 29.2286C17.7916 29.2677 17.707 29.2881 17.6211 29.2881H13.8367C13.7508 29.2881 13.6662 29.2678 13.5897 29.2287C13.5133 29.1896 13.4472 29.1329 13.397 29.0632L6.67088 19.7502C6.62059 19.6807 6.55452 19.624 6.47808 19.5849C6.40165 19.5458 6.31704 19.5254 6.23119 19.5254H0.5425C0.39862 19.5254 0.260633 19.5825 0.158895 19.6843C0.0571561 19.786 0 19.924 0 20.0679L0 31.4575C0 31.6014 0.0571561 31.7394 0.158895 31.8411C0.260633 31.9428 0.39862 32 0.5425 32H30.9153C31.2149 32 31.4575 31.7571 31.4575 31.4575V20.0679C31.4575 19.7683 31.2149 19.5254 30.9153 19.5254ZM6.50856 0C6.36468 0 6.2267 0.0571561 6.12496 0.158895C6.02322 0.260633 5.96606 0.39862 5.96606 0.5425V7.2625L5.34644 6.2295C5.29773 6.14722 5.22816 6.07927 5.14475 6.03253C5.06134 5.98579 4.96706 5.96192 4.87146 5.96334C4.77586 5.96475 4.68233 5.9914 4.60034 6.04059C4.51835 6.08978 4.45081 6.15975 4.40456 6.24344C4.35832 6.32714 4.33504 6.42159 4.3371 6.5172C4.33915 6.61281 4.36646 6.70617 4.41625 6.78781L6.04344 9.49975C6.04956 9.50975 6.05838 9.51706 6.06519 9.52687C6.07644 9.54275 6.08838 9.55788 6.10131 9.57225C6.1247 9.59948 6.1508 9.62428 6.17919 9.64625C6.19313 9.657 6.20631 9.66794 6.22119 9.67725C6.26 9.70162 6.3015 9.721 6.34494 9.73462C6.35181 9.73681 6.35719 9.74169 6.36431 9.74362L6.36888 9.74413C6.41192 9.75552 6.45622 9.7615 6.50075 9.76194L6.50856 9.76269H6.50906C6.51369 9.76269 6.51856 9.761 6.52344 9.76075C6.56552 9.75998 6.60738 9.75441 6.64819 9.74413C6.66038 9.741 6.67163 9.73387 6.68363 9.72975C6.71725 9.71926 6.74971 9.70536 6.7805 9.68825L6.78763 9.68531C6.79294 9.68219 6.79544 9.67675 6.80056 9.67356C6.84849 9.64218 6.89111 9.60336 6.92681 9.55856C6.93625 9.54669 6.94606 9.53588 6.95456 9.52319C6.96019 9.51488 6.96831 9.50831 6.97338 9.4995L8.60056 6.78762C8.65043 6.70599 8.67781 6.61262 8.67993 6.51698C8.68204 6.42134 8.65881 6.32685 8.61259 6.24309C8.56637 6.15934 8.49882 6.0893 8.41678 6.0401C8.33475 5.99089 8.24115 5.96427 8.1455 5.96294C8.04989 5.96151 7.95561 5.9854 7.87221 6.03217C7.78881 6.07894 7.71927 6.14693 7.67063 6.22925L7.05075 7.26244V0.5425C7.05075 0.243 6.80813 6.25e-05 6.50856 6.25e-05V0ZM23.043 6.04344C22.7861 6.1975 22.7029 6.53075 22.8569 6.78762L24.4841 9.4995C24.4903 9.5095 24.499 9.51687 24.5056 9.52662C24.5169 9.5425 24.5288 9.55762 24.5418 9.572C24.5652 9.59937 24.5913 9.624 24.6196 9.646C24.6336 9.65675 24.6468 9.66775 24.6616 9.677C24.7002 9.70138 24.7419 9.72075 24.7854 9.73438C24.7923 9.73656 24.7976 9.74144 24.8044 9.74344L24.8093 9.74387C24.8524 9.75527 24.8967 9.76136 24.9412 9.762L24.9492 9.76269H24.9497C24.9546 9.76269 24.9593 9.761 24.9641 9.76075C25.0062 9.75999 25.048 9.75441 25.0889 9.74413C25.1011 9.741 25.1123 9.73387 25.1245 9.72975C25.1581 9.71918 25.1906 9.70528 25.2214 9.68825L25.2283 9.68531C25.2336 9.68219 25.2361 9.67675 25.2412 9.67356C25.2891 9.64218 25.3317 9.60336 25.3674 9.55856C25.3769 9.54669 25.3867 9.53588 25.3953 9.52319C25.4011 9.51488 25.4089 9.50831 25.4141 9.4995L27.0413 6.78762C27.0911 6.70599 27.1185 6.61262 27.1206 6.51698C27.1227 6.42134 27.0995 6.32685 27.0533 6.24309C27.0071 6.15934 26.9395 6.0893 26.8575 6.0401C26.7754 5.99089 26.6818 5.96427 26.5862 5.96294C26.4906 5.96151 26.3963 5.9854 26.3129 6.03217C26.2295 6.07894 26.16 6.14693 26.1113 6.22925L25.4914 7.26244V0.5425C25.4914 0.243 25.2488 6.25e-05 24.9492 6.25e-05C24.6496 6.25e-05 24.4067 0.243 24.4067 0.542562V7.2625L23.7871 6.2295C23.7131 6.10616 23.5931 6.01727 23.4536 5.98238C23.314 5.94749 23.1664 5.96945 23.043 6.04344Z" fill="#636363"/>
</svg>
