<svg width="23" height="23" viewBox="0 0 23 23" fill="none" xmlns="http://www.w3.org/2000/svg">
<path d="M0 2.4375V7.76994C0 9.11381 1.09362 10.2074 2.4375 10.2074H7.76994C9.11381 10.2074 10.2074 9.11381 10.2074 7.76994V2.4375C10.2074 1.09362 9.11381 0 7.76994 0H2.4375C1.09362 0 0 1.09362 0 2.4375ZM0 20.3125C0 21.6564 1.09362 22.75 2.4375 22.75H7.76994C9.11381 22.75 10.2074 21.6564 10.2074 20.3125V14.9801C10.2074 13.6362 9.11381 12.5426 7.76994 12.5426H2.4375C1.09362 12.5426 0 13.6362 0 14.9801V20.3125ZM20.3125 12.5434H14.9801C13.6362 12.5434 12.5426 13.6362 12.5426 14.9809V20.3125C12.5426 21.6564 13.6362 22.75 14.9801 22.75H20.3125C21.6564 22.75 22.75 21.6564 22.75 20.3125V14.9801C22.75 13.6362 21.6564 12.5434 20.3125 12.5434ZM21.9375 4.29081H18.4592V0.8125C18.4592 0.597012 18.3736 0.390349 18.2212 0.237976C18.0688 0.0856024 17.8622 0 17.6467 0C17.4312 0 17.2245 0.0856024 17.0722 0.237976C16.9198 0.390349 16.8342 0.597012 16.8342 0.8125V4.29081H13.3551C13.2484 4.29081 13.1427 4.31183 13.0441 4.35266C12.9456 4.39349 12.856 4.45334 12.7805 4.52879C12.7051 4.60424 12.6452 4.69381 12.6044 4.79238C12.5636 4.89096 12.5426 4.99661 12.5426 5.10331C12.5426 5.21001 12.5636 5.31567 12.6044 5.41424C12.6452 5.51282 12.7051 5.60239 12.7805 5.67784C12.856 5.75328 12.9456 5.81313 13.0441 5.85396C13.1427 5.8948 13.2484 5.91581 13.3551 5.91581H16.8342V9.39413C16.8342 9.60961 16.9198 9.81628 17.0722 9.96865C17.2245 10.121 17.4312 10.2066 17.6467 10.2066C17.8622 10.2066 18.0688 10.121 18.2212 9.96865C18.3736 9.81628 18.4592 9.60961 18.4592 9.39413V5.91662H21.9375C22.153 5.91662 22.3597 5.83102 22.512 5.67865C22.6644 5.52628 22.75 5.31961 22.75 5.10412C22.75 4.88864 22.6644 4.68197 22.512 4.5296C22.3597 4.37723 22.153 4.29081 21.9375 4.29081Z" fill="#636363"/>
</svg>
