<svg width="32" height="32" viewBox="0 0 32 32" fill="none" xmlns="http://www.w3.org/2000/svg">
<path d="M28.1661 21.5624C28.0972 21.4741 28.0091 21.4027 27.9084 21.3535C27.8078 21.3044 27.6972 21.2789 27.5852 21.2789C27.4732 21.2789 27.3627 21.3044 27.2621 21.3535C27.1614 21.4027 27.0733 21.4741 27.0044 21.5624C26.5086 22.2708 24.0436 25.9258 24.0436 27.6258C24.0436 28.5651 24.4167 29.4659 25.0809 30.1301C25.7451 30.7943 26.6459 31.1674 27.5852 31.1674C28.5245 31.1674 29.4254 30.7943 30.0896 30.1301C30.7538 29.4659 31.1269 28.5651 31.1269 27.6258C31.1269 25.9258 28.6619 22.2708 28.1661 21.5624ZM27.5711 16.6749L27.7836 16.4908C27.8514 16.4219 27.9044 16.34 27.9394 16.2499C28.1537 15.9514 28.2767 15.597 28.2936 15.2299C28.3927 13.2183 26.0411 9.44993 22.4427 5.85159C18.8444 2.25326 15.2319 0.000758105 13.1352 0.000758105C12.8906 -0.00623614 12.647 0.0352236 12.4185 0.122751C12.1899 0.210278 11.9809 0.342144 11.8036 0.510758C11.7359 0.575897 11.6743 0.647019 11.6194 0.723258L9.87691 2.83409C6.37774 3.00409 1.37691 5.49743 1.37691 9.20909C1.37129 10.1818 1.74774 11.1178 2.42524 11.8158C2.62977 12.0285 2.85256 12.2228 3.09107 12.3966L3.36024 12.5666L3.62941 12.7508C5.33748 13.6552 7.23602 14.1407 9.16857 14.1674C10.9392 14.2706 12.7124 14.0152 14.3819 13.4166C14.5569 13.3558 14.7485 13.3645 14.9173 13.441C15.086 13.5174 15.2189 13.6558 15.2886 13.8274C15.3227 13.9148 15.3391 14.0081 15.3369 14.1019C15.3347 14.1957 15.3139 14.2881 15.2757 14.3737C15.2374 14.4594 15.1826 14.5366 15.1143 14.6009C15.046 14.6652 14.9656 14.7153 14.8777 14.7483C13.064 15.4048 11.1377 15.6937 9.21107 15.5983C6.73051 15.6256 4.30006 14.8994 2.24107 13.5158C2.09349 13.4059 1.90895 13.3578 1.72651 13.3816C1.54407 13.4054 1.37804 13.4992 1.26357 13.6433L0.456074 14.6491C0.16931 14.946 0.00709463 15.3414 0.00274071 15.7541C-0.0822593 17.4683 1.81607 20.5141 4.83357 23.5316C7.85107 26.5491 10.7269 28.3341 12.4552 28.3341C12.8673 28.3464 13.2682 28.1992 13.5744 27.9233L27.5144 16.6749H27.5711ZM20.4877 7.86326C22.2498 9.55073 23.7535 11.4888 24.9502 13.6149C22.8322 12.4066 20.8998 10.8989 19.2127 9.13826C17.443 7.45055 15.93 5.51277 14.7219 3.38659C16.8308 4.59582 18.7537 6.10365 20.4311 7.86326H20.4877ZM8.63024 4.43493L3.45941 10.8383C3.0311 10.4044 2.79175 9.81875 2.79357 9.20909C2.79357 6.87159 5.89607 5.01576 8.63024 4.43493Z" fill="#636363"/>
</svg>
