<svg width="27" height="24" viewBox="0 0 27 24" fill="none" xmlns="http://www.w3.org/2000/svg">
<path fill-rule="evenodd" clip-rule="evenodd" d="M26.5105 18.6976C25.9199 19.2883 24.9534 19.2883 24.3627 18.6976L20.2281 14.563C19.9551 14.29 19.9434 13.8521 20.1928 13.5648L20.0187 13.3907C19.6199 12.9918 19.021 12.917 18.5363 13.2053C17.9721 13.5411 17.3638 13.7965 16.7291 13.9641V12.217C18.8342 11.4697 20.3418 9.46072 20.3418 7.09931C20.3418 4.10069 17.9109 1.66972 14.9122 1.66972C11.9136 1.66972 9.48265 4.10069 9.48265 7.09931C9.48265 8.56543 10.064 9.89559 11.0084 10.8725L10.5737 11.4169C10.4681 11.402 10.3615 11.3945 10.2548 11.3946C9.95915 11.3942 9.66633 11.452 9.39296 11.5645C8.40487 10.345 7.81288 8.7914 7.81288 7.09942C7.81288 3.17855 10.9914 0 14.9123 0C18.8332 0 22.0117 3.17855 22.0117 7.09942C22.0117 8.42335 21.6493 9.66257 21.0182 10.7234C20.7299 11.2081 20.8047 11.807 21.2035 12.2058L21.3777 12.3799C21.6649 12.1305 22.1029 12.1422 22.3759 12.4153L26.5105 16.5499C27.1012 17.1405 27.1012 18.107 26.5105 18.6976ZM2.5568 19.6098H0.441219C0.368743 19.6099 0.299277 19.6388 0.248029 19.69C0.196781 19.7413 0.167926 19.8107 0.167781 19.8832V23.7131C0.167781 23.8637 0.290609 23.9865 0.441219 23.9865H2.5568C2.70741 23.9865 2.83024 23.8637 2.83024 23.7131V19.8832C2.83024 19.7326 2.70741 19.6098 2.5568 19.6098ZM6.93459 14.5603H4.81901C4.74653 14.5605 4.67707 14.5893 4.62582 14.6406C4.57457 14.6918 4.54572 14.7613 4.54557 14.8338V23.7132C4.54557 23.8638 4.6684 23.9866 4.81901 23.9866H6.93459C7.0852 23.9866 7.20803 23.8638 7.20803 23.7132V14.8338C7.20803 14.6832 7.0852 14.5603 6.93459 14.5603ZM11.3124 16.4266H9.19685C9.12438 16.4268 9.05491 16.4556 9.00366 16.5069C8.95241 16.5581 8.92356 16.6276 8.92341 16.7001V23.7132C8.92341 23.8638 9.04624 23.9866 9.19685 23.9866H11.3124C11.463 23.9866 11.5858 23.8638 11.5858 23.7132V16.7001C11.5858 16.5495 11.463 16.4266 11.3124 16.4266ZM15.6902 11.7372H13.5746C13.5022 11.7374 13.4327 11.7663 13.3815 11.8175C13.3302 11.8687 13.3013 11.9382 13.3012 12.0107V23.7132C13.3012 23.8638 13.424 23.9866 13.5746 23.9866H15.6902C15.8408 23.9866 15.9636 23.8638 15.9636 23.7132V12.0107C15.9636 11.8601 15.8408 11.7372 15.6902 11.7372ZM16.1303 8.17529C16.1303 9.00271 15.4593 9.67367 14.6319 9.67367C14.4167 9.67367 14.2123 9.62795 14.0273 9.54625L11.4574 12.7646C11.65 13.0228 11.7538 13.3365 11.7533 13.6586C11.7533 14.4861 11.0824 15.157 10.2549 15.157C9.42752 15.157 8.75656 14.4861 8.75656 13.6586C8.75656 13.5382 8.77116 13.4211 8.79807 13.3089L6.96987 12.322C6.69643 12.6137 6.30793 12.7963 5.87666 12.7963C5.67124 12.7965 5.46799 12.7542 5.27964 12.6722L2.69609 15.9525C2.89165 16.2118 2.99722 16.5279 2.99677 16.8527C2.99677 17.6801 2.3258 18.3511 1.49838 18.3511C0.670961 18.3511 0 17.6801 0 16.8527C0 16.0253 0.670961 15.3543 1.49838 15.3543C1.71052 15.3543 1.91226 15.3987 2.09513 15.4783L4.67879 12.1979C4.48331 11.9386 4.3778 11.6226 4.37828 11.2978C4.37828 10.4704 5.04924 9.79945 5.87666 9.79945C6.70409 9.79945 7.37505 10.4704 7.37505 11.2978C7.37505 11.4183 7.36045 11.5353 7.33354 11.6476L9.16174 12.6345C9.43518 12.3428 9.82368 12.1602 10.2549 12.1602C10.4698 12.1602 10.6739 12.2058 10.8586 12.2872L13.4291 9.06866C13.2368 8.81054 13.1331 8.49713 13.1336 8.17523C13.1336 7.34781 13.8045 6.67685 14.632 6.67685C15.4594 6.67685 16.1304 7.34781 16.1304 8.17523L16.1303 8.17529ZM2.23092 16.8527C2.23092 16.4479 1.90291 16.1199 1.49816 16.1199C1.09342 16.1199 0.765406 16.4479 0.765406 16.8527C0.765406 17.2574 1.09342 17.5854 1.49816 17.5854C1.90291 17.5854 2.23092 17.2574 2.23092 16.8527ZM6.60926 11.2978C6.60926 10.893 6.28124 10.565 5.8765 10.565C5.47176 10.565 5.14374 10.893 5.14374 11.2978C5.14374 11.7025 5.47176 12.0305 5.8765 12.0305C6.28124 12.0305 6.60926 11.7025 6.60926 11.2978ZM10.9876 13.6585C10.9876 13.2538 10.6596 12.9258 10.2548 12.9258C9.85009 12.9258 9.52208 13.2538 9.52208 13.6585C9.52208 14.0633 9.85009 14.3913 10.2548 14.3913C10.6596 14.3913 10.9876 14.0633 10.9876 13.6585ZM15.3646 8.17523C15.3646 7.77049 15.0366 7.44248 14.6319 7.44248C14.2271 7.44248 13.8991 7.77049 13.8991 8.17523C13.8991 8.57998 14.2271 8.90799 14.6319 8.90799C15.0366 8.90799 15.3646 8.57998 15.3646 8.17523Z" fill="#636363"/>
</svg>
