<svg width="30" height="30" viewBox="0 0 30 30" fill="none" xmlns="http://www.w3.org/2000/svg">
<path d="M7.96875 26.4844C7.48301 26.4844 7.08984 26.8775 7.08984 27.3633V29.1211C7.08984 29.6068 7.48301 30 7.96875 30C8.45449 30 8.84766 29.6068 8.84766 29.1211V27.3633C8.84766 26.8775 8.45449 26.4844 7.96875 26.4844ZM12.1058 24.9841C11.7625 24.6407 11.2063 24.6407 10.863 24.9841C10.5197 25.3274 10.5196 25.8836 10.863 26.2269L12.6208 27.9847C12.7023 28.0664 12.7991 28.1313 12.9058 28.1755C13.0124 28.2197 13.1268 28.2423 13.2422 28.2422C13.467 28.2422 13.692 28.1563 13.8636 27.9847C14.2069 27.6414 14.2069 27.0852 13.8636 26.7419L12.1058 24.9841ZM3.83174 24.9841L2.07393 26.7419C1.73057 27.0852 1.73057 27.6414 2.07393 27.9847C2.41729 28.328 2.9734 28.328 3.3167 27.9847L5.07451 26.2269C5.41787 25.8836 5.41787 25.3274 5.07451 24.9841C4.73115 24.6408 4.17504 24.6407 3.83174 24.9841ZM22.0312 3.51562C22.517 3.51562 22.9102 3.12246 22.9102 2.63672V0.878906C22.9102 0.393164 22.517 0 22.0312 0C21.5455 0 21.1523 0.393164 21.1523 0.878906V2.63672C21.1523 3.12246 21.5455 3.51562 22.0312 3.51562ZM26.1683 5.07451L27.9261 3.3167C28.2694 2.9734 28.2694 2.41723 27.9261 2.07393C27.5827 1.73063 27.0266 1.73057 26.6833 2.07393L24.9255 3.83174C24.5821 4.17504 24.5821 4.73121 24.9255 5.07451C25.2688 5.41781 25.825 5.41787 26.1683 5.07451ZM17.8942 5.07451C18.2375 5.41787 18.7937 5.41787 19.137 5.07451C19.4803 4.73115 19.4804 4.17504 19.137 3.83174L17.3792 2.07393C17.0359 1.73057 16.4797 1.73057 16.1364 2.07393C15.7931 2.41729 15.7931 2.9734 16.1364 3.3167L17.8942 5.07451ZM17.6367 15C17.6367 14.0291 16.8498 13.2422 15.8789 13.2422H15C14.5146 13.2422 14.1211 12.8487 14.1211 12.3633V7.08984H9.72656V6.21094C9.72656 4.75705 8.54367 3.57422 7.08984 3.57422C5.63602 3.57422 4.45312 4.75711 4.45312 6.21094V7.08984H0.878906C0.393164 7.08984 0 7.48301 0 7.96875V12.3633C0 12.8487 0.393457 13.2422 0.878906 13.2422H1.81641C2.7873 13.2422 3.57422 14.0291 3.57422 15C3.57422 15.9709 2.7873 16.7578 1.81641 16.7578H0.878906C0.393457 16.7578 0 17.1513 0 17.6367V22.0312C0 22.517 0.393164 22.9102 0.878906 22.9102H4.45312C4.93857 22.9102 5.33203 22.5167 5.33203 22.0312V21.1523C5.33203 20.1814 6.11895 19.3945 7.08984 19.3945C8.06074 19.3945 8.84766 20.1814 8.84766 21.1523V22.0312C8.84766 22.517 9.24082 22.9102 9.72656 22.9102H14.1211V17.6367C14.1211 17.1513 14.5146 16.7578 15 16.7578H15.8789C16.8498 16.7578 17.6367 15.9709 17.6367 15Z" fill="#636363"/>
<path d="M28.1797 13.2422H29.1172C29.6026 13.2422 29.9961 12.8487 29.9961 12.3633V7.96875C29.9961 7.48301 29.6029 7.08984 29.1172 7.08984H25.543C25.0575 7.08984 24.6641 7.4833 24.6641 7.96875V8.84766C24.6641 9.81855 23.8771 10.6055 22.9062 10.6055C21.9354 10.6055 21.1484 9.81855 21.1484 8.84766V7.96875C21.1484 7.48301 20.7553 7.08984 20.2695 7.08984H15.875V11.4844C17.8727 11.4844 19.3906 13.1502 19.3906 15C19.3906 16.85 17.8729 18.5156 15.875 18.5156V22.9102H20.2695V23.7891C20.2695 25.2429 21.4524 26.4258 22.9062 26.4258C24.3601 26.4258 25.543 25.2429 25.543 23.7891V22.9102H29.1172C29.6029 22.9102 29.9961 22.517 29.9961 22.0312V17.6367C29.9961 17.1513 29.6026 16.7578 29.1172 16.7578H28.1797C27.2088 16.7578 26.4219 15.9709 26.4219 15C26.4219 14.0291 27.2088 13.2422 28.1797 13.2422Z" fill="#636363"/>
</svg>
