<svg width="24" height="24" viewBox="0 0 24 24" fill="none" xmlns="http://www.w3.org/2000/svg">
<path d="M21.7364 17.2482C21.6239 17.1357 21.4739 17.0982 21.3614 17.0982C21.2489 17.0982 21.0614 17.1357 20.9864 17.2482L20.7239 17.5107L20.8739 18.9732L21.7364 18.0732C21.9614 17.8482 21.9614 17.4732 21.7364 17.2482ZM20.4239 21.8982L19.5614 14.6607V14.6232L19.2989 12.2232L18.9614 9.93575C18.9239 9.59825 18.5489 9.48575 18.2864 9.71075L14.2364 13.4232C14.0864 13.5732 14.0489 13.7607 14.1614 13.9482C15.7364 16.3857 17.9114 20.3982 19.2614 23.6607C19.2989 23.6982 19.2989 23.7357 19.3364 23.7732C19.4489 23.8857 19.6364 23.9232 19.7864 23.7732C20.2739 23.2857 20.4989 22.6107 20.4239 21.8982ZM10.0364 22.1607L9.02393 18.6732C8.94893 18.4482 8.68643 18.3357 8.46143 18.4107C8.08643 18.5982 7.63643 18.7482 7.18643 18.8232C6.92393 18.8607 6.77393 19.1982 6.92393 19.4232L9.09893 22.6857C9.24893 22.9107 9.54893 22.9107 9.69893 22.7607L9.88643 22.5732C10.0364 22.4232 10.0739 22.2732 10.0364 22.1607ZM7.11143 16.5357C7.07393 16.4982 6.99893 16.4607 6.92393 16.4607C6.84893 16.4607 6.77393 16.4982 6.73643 16.5357L4.48643 18.8232C4.37393 18.9357 4.37393 19.0857 4.48643 19.1607C4.56143 19.2732 4.74893 19.2732 4.82393 19.1607L7.11143 16.8732C7.22393 16.7982 7.22393 16.6107 7.11143 16.5357ZM5.01143 14.7357L1.74893 13.9482C1.59893 13.9107 1.48643 13.9482 1.37393 14.0607L1.14893 14.2857C0.961435 14.4732 0.998935 14.7732 1.18643 14.8857L4.18643 16.9107C4.44893 17.0607 4.74893 16.9482 4.82393 16.6482C4.89893 16.1982 5.08643 15.7107 5.27393 15.2982C5.38643 15.0732 5.27393 14.8107 5.01143 14.7357ZM13.7489 5.09825L11.5739 4.76075L9.17393 4.49825L1.93643 3.63575C1.26143 3.56075 0.586435 3.78575 0.0989347 4.27325C-0.0510653 4.42325 -0.0135653 4.61075 0.0989347 4.72325C0.136435 4.76075 0.136435 4.76075 0.211435 4.79825C3.24893 6.03575 7.14893 8.21075 9.69893 9.86075C9.84893 9.97325 10.0739 9.93574 10.1864 9.78574L13.9739 5.77325C14.1989 5.54825 14.0489 5.17325 13.7489 5.09825ZM6.58643 2.28575C6.36143 2.06075 5.98643 2.06075 5.76143 2.28575L4.86143 3.14825L6.28643 3.29825L6.54893 3.03575C6.66143 2.92325 6.69893 2.77325 6.69893 2.66075C6.73643 2.54825 6.69893 2.39825 6.58643 2.28575ZM11.6114 3.03575C11.3864 2.81075 11.0114 2.81075 10.7864 3.03575L10.0364 3.74825L11.4614 3.89825L11.5739 3.78575C11.8364 3.59825 11.8364 3.26075 11.6114 3.03575ZM23.6864 0.298245C22.8614 -0.526755 20.1614 0.485745 18.8114 1.79825L6.47393 14.8857C6.21143 15.1482 5.87393 15.7857 5.72393 16.4607L6.21143 15.9732C6.62393 15.5607 7.29893 15.5607 7.71143 15.9732C8.12393 16.3857 8.12393 17.0607 7.71143 17.4732L7.11143 17.9982C7.82393 17.8482 8.53643 17.4732 8.83643 17.2107L22.1489 5.06075C23.1614 4.08575 23.9864 2.36075 23.9864 1.19825C23.9864 0.785745 23.8739 0.485745 23.6864 0.298245ZM21.9614 3.52325C21.9239 3.52325 21.9239 3.52325 21.9614 3.52325C21.7364 3.52325 21.5489 3.37325 21.5114 3.18575C21.4739 3.03575 21.3614 2.58575 20.7989 2.54825H20.6864C20.4614 2.54825 20.2739 2.36075 20.3114 2.13575C20.3489 1.91075 20.4989 1.72325 20.7239 1.72325H20.8364C21.6239 1.76075 22.1864 2.28575 22.2989 3.07325C22.3364 3.29825 22.1489 3.48575 21.9614 3.52325ZM21.0239 12.2232C20.9114 12.1107 20.7614 12.0732 20.6489 12.0732C20.5364 12.0732 20.3489 12.1482 20.2739 12.2232L20.1614 12.3357L20.3114 13.7607L21.0239 13.0107C21.2114 12.8232 21.2114 12.4482 21.0239 12.2232Z" fill="#636363"/>
</svg>
