<svg width="34" height="34" viewBox="0 0 34 34" fill="none" xmlns="http://www.w3.org/2000/svg">
<path d="M11.1119 22.0786C11.1119 20.7527 11.996 19.6294 13.2057 19.2673C12.9762 18.8438 12.8543 18.3672 12.8543 17.872C12.8543 17.365 12.9828 16.8779 13.2231 16.447C12.744 16.5975 12.2447 16.6739 11.7426 16.6735C9.0193 16.6735 6.81162 14.4658 6.81162 11.7426C6.81162 9.0193 9.0193 6.81162 11.7426 6.81162C14.4658 6.81162 16.6735 9.0193 16.6735 11.7426C16.6739 12.2447 16.5975 12.744 16.447 13.2231C16.8779 12.9828 17.365 12.8543 17.872 12.8543C18.3672 12.8543 18.8438 12.9762 19.2673 13.2058C19.6294 11.996 20.7527 11.1119 22.0786 11.1119H23.4851V10.0243C23.4851 9.47418 23.0391 9.02819 22.489 9.02819H20.7138C20.536 8.43538 20.2995 7.86178 20.0079 7.31591L21.2608 6.06296C21.6498 5.67395 21.6498 5.04329 21.2608 4.65428L18.8309 2.22434C18.4419 1.83534 17.8112 1.83534 17.4222 2.22434L16.1752 3.47119C15.6277 3.17646 15.052 2.93735 14.4568 2.75745V0.996094C14.4568 0.445984 14.0109 0 13.4607 0H10.0243C9.47418 0 9.02819 0.445984 9.02819 0.996094V2.75739C8.433 2.93733 7.85733 3.17643 7.3098 3.47112L6.06296 2.22434C5.67395 1.83534 5.04329 1.83534 4.65428 2.22434L2.22434 4.65428C1.83534 5.04329 1.83534 5.67395 2.22434 6.06296L3.4773 7.31591C3.18559 7.86176 2.9491 8.43537 2.77133 9.02819H0.996094C0.445984 9.02819 0 9.47418 0 10.0243V13.4607C0 14.0109 0.445984 14.4568 0.996094 14.4568H2.78302C2.96228 15.0451 3.1994 15.6141 3.49091 16.1555L2.22434 17.4221C1.83534 17.8111 1.83534 18.4417 2.22434 18.8308L4.65428 21.2607C5.04329 21.6497 5.67395 21.6497 6.06296 21.2607L7.33563 19.988C7.87543 20.2765 8.44236 20.511 9.02819 20.6881V22.4889C9.02819 23.039 9.47418 23.485 10.0243 23.485H11.1119V22.0786Z" fill="#636363"/>
<path d="M33.9974 25.0254V22.0786C33.9974 21.5585 33.5757 21.137 33.0557 21.137H31.5316C31.3734 20.6095 31.163 20.0992 30.9035 19.6135L31.9791 18.5378C32.3469 18.1701 32.3469 17.5739 31.9791 17.2061L29.8954 15.1223C29.5276 14.7546 28.9314 14.7546 28.5637 15.1223L27.4935 16.1925C27.0063 15.9303 26.4941 15.7175 25.9645 15.5575V14.0458C25.9645 13.5257 25.5429 13.1041 25.0229 13.1041H22.076C21.5559 13.1041 21.1344 13.5257 21.1344 14.0458V15.5575C20.6048 15.7176 20.0926 15.9304 19.6055 16.1925L18.5353 15.1223C18.1675 14.7546 17.5713 14.7546 17.2035 15.1223L15.1198 17.2061C14.752 17.5739 14.752 18.1701 15.1198 18.5378L16.1954 19.6135C15.9359 20.0991 15.7255 20.6095 15.5673 21.137H14.0432C13.5232 21.137 13.1016 21.5586 13.1016 22.0786V25.0254C13.1016 25.5455 13.5232 25.9671 14.0432 25.9671H15.5777C15.7372 26.4905 15.9482 26.9967 16.2076 27.4785L15.1198 28.5663C14.752 28.934 14.752 29.5302 15.1198 29.898L17.2035 31.9818C17.5713 32.3495 18.1675 32.3495 18.5353 31.9818L19.6284 30.8886C20.1087 31.1453 20.6131 31.3539 21.1344 31.5115V33.0584C21.1344 33.5785 21.556 34 22.076 34H25.0229C25.543 34 25.9645 33.5784 25.9645 33.0584V31.5115C26.4858 31.3539 26.9902 31.1453 27.4705 30.8886L28.5637 31.9818C28.9314 32.3495 29.5276 32.3495 29.8954 31.9818L31.9791 29.898C32.3469 29.5302 32.3469 28.934 31.9791 28.5663L30.8913 27.4785C31.1507 26.9967 31.3617 26.4905 31.5212 25.9671H33.0557C33.5757 25.9671 33.9974 25.5455 33.9974 25.0254ZM23.8246 27.7552C21.2857 27.9175 19.1838 25.8157 19.3461 23.2767C19.4803 21.1781 21.1754 19.4829 23.2741 19.3488C25.813 19.1865 27.9149 21.2882 27.7526 23.8273C27.6184 25.9259 25.9233 27.6211 23.8246 27.7552Z" fill="#636363"/>
</svg>
