<svg width="31" height="31" viewBox="0 0 31 31" fill="none" xmlns="http://www.w3.org/2000/svg">
<path d="M5.84375 19.125C4.29475 19.1278 2.81 19.7444 1.7147 20.8397C0.61939 21.935 0.0028087 23.4198 0 24.9688C0 28.1881 2.62438 30.8125 5.84375 30.8125C9.06312 30.8125 11.6875 28.1881 11.6875 24.9688C11.6875 21.7494 9.06312 19.125 5.84375 19.125ZM6.90625 24.4375C7.78812 24.4375 8.5 25.1494 8.5 26.0312C8.5 26.9131 7.78812 27.625 6.90625 27.625H6.375V28.1562C6.375 28.4538 6.14125 28.6875 5.84375 28.6875C5.54625 28.6875 5.3125 28.4538 5.3125 28.1562V27.625H3.71875C3.42125 27.625 3.1875 27.3913 3.1875 27.0938C3.1875 26.7962 3.42125 26.5625 3.71875 26.5625H5.3125V25.5H4.78125C3.89938 25.5 3.1875 24.7881 3.1875 23.9062C3.1875 23.0244 3.89938 22.3125 4.78125 22.3125H5.3125V21.7812C5.3125 21.4837 5.54625 21.25 5.84375 21.25C6.14125 21.25 6.375 21.4837 6.375 21.7812V22.3125H7.96875C8.26625 22.3125 8.5 22.5462 8.5 22.8438C8.5 23.1413 8.26625 23.375 7.96875 23.375H6.375V24.4375H6.90625ZM24.9688 0C23.4198 0.0028087 21.935 0.61939 20.8397 1.7147C19.7444 2.81 19.1278 4.29475 19.125 5.84375C19.125 9.06312 21.7494 11.6875 24.9688 11.6875C28.1881 11.6875 30.8125 9.06312 30.8125 5.84375C30.8125 2.62438 28.1881 0 24.9688 0ZM27.4656 4.62187L24.2781 7.80938C24.1825 7.91563 24.0444 7.96875 23.9062 7.96875C23.7681 7.96875 23.63 7.91563 23.5344 7.80938L22.4719 6.74687C22.2594 6.53437 22.2594 6.205 22.4719 5.9925C22.6737 5.79062 23.0138 5.79062 23.2156 5.9925L23.9062 6.68312L26.7219 3.8675C26.9237 3.66562 27.2638 3.66562 27.4656 3.8675C27.6781 4.08 27.6781 4.40937 27.4656 4.62187Z" fill="#636363"/>
<path d="M5.31457 23.3749V24.4374H4.78332C4.48582 24.4374 4.25207 24.2037 4.25207 23.9062C4.25207 23.6087 4.48582 23.3749 4.78332 23.3749H5.31457ZM7.43957 26.0312C7.43957 26.3287 7.20582 26.5624 6.90832 26.5624H6.37707V25.4999H6.90832C7.20582 25.4999 7.43957 25.7337 7.43957 26.0312ZM2.7072 17.1041C2.78119 17.1041 2.85438 17.0887 2.92207 17.0588C2.98975 17.0289 3.05045 16.9852 3.10026 16.9305C3.15007 16.8757 3.18791 16.8112 3.21134 16.741C3.23477 16.6709 3.24328 16.5965 3.23632 16.5229C3.1577 15.6793 3.17257 14.8016 3.27989 13.9134C3.47116 12.3193 3.97674 10.7789 4.76735 9.38155C5.55797 7.98416 6.61791 6.75747 7.88582 5.7725C10.3737 3.8224 13.5244 2.92009 16.6674 3.25756L16.5069 3.38294C16.4497 3.42502 16.4015 3.47816 16.3651 3.53922C16.3288 3.60027 16.305 3.66799 16.2953 3.73838C16.2856 3.80877 16.2901 3.88038 16.3086 3.949C16.327 4.01761 16.3591 4.08183 16.4028 4.13784C16.4465 4.19385 16.501 4.24053 16.5631 4.2751C16.6252 4.30968 16.6936 4.33145 16.7642 4.33913C16.8348 4.3468 16.9063 4.34023 16.9743 4.3198C17.0424 4.29938 17.1057 4.2655 17.1604 4.22019L18.3451 3.29581C18.4001 3.25285 18.446 3.19947 18.4804 3.13873C18.5147 3.07799 18.5368 3.01107 18.5453 2.94181C18.5538 2.87254 18.5485 2.80228 18.5298 2.73505C18.5112 2.66781 18.4794 2.60491 18.4364 2.54994L17.5121 1.36525C17.4692 1.31021 17.4158 1.26415 17.3551 1.22972C17.2944 1.19528 17.2275 1.17314 17.1583 1.16456C17.089 1.15597 17.0187 1.16112 16.9515 1.17969C16.8842 1.19827 16.8212 1.22991 16.7662 1.27281C16.655 1.35947 16.5828 1.48673 16.5655 1.62661C16.5482 1.76649 16.5871 1.90752 16.6738 2.01869L16.8193 2.20463C13.3892 1.82535 9.94698 2.80567 7.23132 4.93525C5.85346 6.00592 4.70168 7.33929 3.84267 8.85815C2.98366 10.377 2.43449 12.0512 2.22695 13.7838C2.10902 14.7256 2.09335 15.6775 2.1802 16.6228C2.19262 16.7543 2.25359 16.8765 2.35123 16.9654C2.44886 17.0544 2.57509 17.1039 2.7072 17.1041ZM22.9319 25.0324C20.4443 26.9831 17.2933 27.8851 14.1503 27.5463L14.3108 27.4209C14.368 27.3789 14.4162 27.3257 14.4526 27.2647C14.4889 27.2036 14.5127 27.1359 14.5224 27.0655C14.5321 26.9951 14.5276 26.9235 14.5091 26.8549C14.4907 26.7863 14.4586 26.7221 14.4149 26.666C14.3712 26.61 14.3167 26.5633 14.2546 26.5288C14.1925 26.4942 14.1242 26.4724 14.0535 26.4648C13.9829 26.4571 13.9114 26.4636 13.8434 26.4841C13.7753 26.5045 13.7121 26.5384 13.6573 26.5837L12.4726 27.5102C12.3622 27.5969 12.2906 27.7238 12.2735 27.8632C12.2564 28.0026 12.2951 28.1431 12.3813 28.2539L13.3056 29.4386C13.3485 29.4937 13.4019 29.5397 13.4626 29.5742C13.5233 29.6086 13.5902 29.6307 13.6594 29.6393C13.7287 29.6479 13.799 29.6428 13.8662 29.6242C13.9335 29.6056 13.9965 29.574 14.0515 29.5311C14.1066 29.4882 14.1526 29.4348 14.187 29.3741C14.2215 29.3134 14.2436 29.2465 14.2522 29.1773C14.2608 29.108 14.2556 29.0377 14.2371 28.9705C14.2185 28.9032 14.1869 28.8402 14.1439 28.7852L13.9963 28.5961C14.4786 28.6481 14.9599 28.6853 15.437 28.6853C18.3844 28.6853 21.2287 27.711 23.5864 25.8697C24.9642 24.7989 26.1159 23.4655 26.9749 21.9467C27.8339 20.4279 28.3831 18.7537 28.5908 17.0212C28.7087 16.0793 28.7243 15.1274 28.6375 14.1822C28.6332 14.111 28.6146 14.0415 28.5829 13.9777C28.5511 13.9139 28.5069 13.8571 28.4527 13.8107C28.3986 13.7644 28.3357 13.7294 28.2677 13.7079C28.1998 13.6863 28.1282 13.6787 28.0573 13.6854C27.9863 13.6921 27.9174 13.713 27.8547 13.7469C27.792 13.7808 27.7368 13.8269 27.6923 13.8826C27.6478 13.9383 27.6149 14.0023 27.5957 14.0709C27.5765 14.1396 27.5712 14.2114 27.5803 14.2821C27.6589 15.1246 27.6441 16.0033 27.5368 16.8916C27.3457 18.4856 26.8403 20.0259 26.0499 21.4233C25.2594 22.8207 24.1996 24.0474 22.9319 25.0324Z" fill="#636363"/>
<path d="M18.2538 9.55823C18.3946 9.55823 18.5298 9.50226 18.6294 9.40263C18.729 9.303 18.785 9.16787 18.785 9.02698C18.785 8.88608 18.729 8.75096 18.6294 8.65133C18.5298 8.5517 18.3946 8.49573 18.2538 8.49573H9.03125C8.89035 8.49573 8.75523 8.5517 8.6556 8.65133C8.55597 8.75096 8.5 8.88608 8.5 9.02698V18.2495C8.5 18.3904 8.55597 18.5255 8.6556 18.6251C8.75523 18.7248 8.89035 18.7807 9.03125 18.7807C9.17215 18.7807 9.30727 18.7248 9.4069 18.6251C9.50653 18.5255 9.5625 18.3904 9.5625 18.2495V11.6832H19.7731C19.914 11.6832 20.0491 11.6273 20.1488 11.5276C20.2484 11.428 20.3044 11.2929 20.3044 11.152C20.3044 11.0111 20.2484 10.876 20.1488 10.7763C20.0491 10.6767 19.914 10.6207 19.7731 10.6207H9.5625V9.55823H18.2538ZM22.3125 12.5587V18.5937C22.3125 18.6681 22.3019 18.7319 22.27 18.7956C22.2487 18.8594 22.2063 18.9231 22.1531 18.9656L18.9656 22.1531C18.9231 22.2062 18.8594 22.2487 18.7956 22.27C18.7319 22.3019 18.6681 22.3125 18.5938 22.3125H12.5587C12.2612 22.3125 12.0275 22.0787 12.0275 21.7812C12.0275 21.4837 12.2612 21.25 12.5587 21.25H18.0625V18.5937C18.0625 18.2962 18.2962 18.0625 18.5938 18.0625H21.25V12.5587C21.25 12.2612 21.4837 12.0275 21.7812 12.0275C22.0788 12.0275 22.3125 12.2612 22.3125 12.5587Z" fill="#636363"/>
<path d="M11.1562 14.8707C11.4497 14.8707 11.6875 14.6329 11.6875 14.3395C11.6875 14.0461 11.4497 13.8082 11.1562 13.8082C10.8628 13.8082 10.625 14.0461 10.625 14.3395C10.625 14.6329 10.8628 14.8707 11.1562 14.8707Z" fill="#636363"/>
<path d="M13.2812 14.8707C13.5747 14.8707 13.8125 14.6329 13.8125 14.3395C13.8125 14.0461 13.5747 13.8082 13.2812 13.8082C12.9878 13.8082 12.75 14.0461 12.75 14.3395C12.75 14.6329 12.9878 14.8707 13.2812 14.8707Z" fill="#636363"/>
<path d="M15.4062 14.8707C15.6997 14.8707 15.9375 14.6329 15.9375 14.3395C15.9375 14.0461 15.6997 13.8082 15.4062 13.8082C15.1128 13.8082 14.875 14.0461 14.875 14.3395C14.875 14.6329 15.1128 14.8707 15.4062 14.8707Z" fill="#636363"/>
<path d="M17.5312 14.8707C17.8247 14.8707 18.0625 14.6329 18.0625 14.3395C18.0625 14.0461 17.8247 13.8082 17.5312 13.8082C17.2378 13.8082 17 14.0461 17 14.3395C17 14.6329 17.2378 14.8707 17.5312 14.8707Z" fill="#636363"/>
<path d="M19.6562 14.8707C19.9497 14.8707 20.1875 14.6329 20.1875 14.3395C20.1875 14.0461 19.9497 13.8082 19.6562 13.8082C19.3628 13.8082 19.125 14.0461 19.125 14.3395C19.125 14.6329 19.3628 14.8707 19.6562 14.8707Z" fill="#636363"/>
<path d="M11.1562 16.9957C11.4497 16.9957 11.6875 16.7579 11.6875 16.4645C11.6875 16.1711 11.4497 15.9332 11.1562 15.9332C10.8628 15.9332 10.625 16.1711 10.625 16.4645C10.625 16.7579 10.8628 16.9957 11.1562 16.9957Z" fill="#636363"/>
<path d="M13.2812 16.9957C13.5747 16.9957 13.8125 16.7579 13.8125 16.4645C13.8125 16.1711 13.5747 15.9332 13.2812 15.9332C12.9878 15.9332 12.75 16.1711 12.75 16.4645C12.75 16.7579 12.9878 16.9957 13.2812 16.9957Z" fill="#636363"/>
<path d="M15.4062 16.9957C15.6997 16.9957 15.9375 16.7579 15.9375 16.4645C15.9375 16.1711 15.6997 15.9332 15.4062 15.9332C15.1128 15.9332 14.875 16.1711 14.875 16.4645C14.875 16.7579 15.1128 16.9957 15.4062 16.9957Z" fill="#636363"/>
<path d="M17.5312 16.9957C17.8247 16.9957 18.0625 16.7579 18.0625 16.4645C18.0625 16.1711 17.8247 15.9332 17.5312 15.9332C17.2378 15.9332 17 16.1711 17 16.4645C17 16.7579 17.2378 16.9957 17.5312 16.9957Z" fill="#636363"/>
<path d="M19.6562 16.9957C19.9497 16.9957 20.1875 16.7579 20.1875 16.4645C20.1875 16.1711 19.9497 15.9332 19.6562 15.9332C19.3628 15.9332 19.125 16.1711 19.125 16.4645C19.125 16.7579 19.3628 16.9957 19.6562 16.9957Z" fill="#636363"/>
<path d="M11.1562 19.1207C11.4497 19.1207 11.6875 18.8829 11.6875 18.5895C11.6875 18.2961 11.4497 18.0582 11.1562 18.0582C10.8628 18.0582 10.625 18.2961 10.625 18.5895C10.625 18.8829 10.8628 19.1207 11.1562 19.1207Z" fill="#636363"/>
<path d="M13.2812 19.1207C13.5747 19.1207 13.8125 18.8829 13.8125 18.5895C13.8125 18.2961 13.5747 18.0582 13.2812 18.0582C12.9878 18.0582 12.75 18.2961 12.75 18.5895C12.75 18.8829 12.9878 19.1207 13.2812 19.1207Z" fill="#636363"/>
<path d="M15.4062 19.1207C15.6997 19.1207 15.9375 18.8829 15.9375 18.5895C15.9375 18.2961 15.6997 18.0582 15.4062 18.0582C15.1128 18.0582 14.875 18.2961 14.875 18.5895C14.875 18.8829 15.1128 19.1207 15.4062 19.1207Z" fill="#636363"/>
</svg>
