<svg width="34" height="26" viewBox="0 0 34 26" fill="none" xmlns="http://www.w3.org/2000/svg">
<path d="M33.7344 14.5084L31.025 13.4459L29.4259 9.59969L30.5894 7.01781C30.6638 6.85844 30.6266 6.6725 30.5044 6.55031L27.3222 3.39469C27.2448 3.31688 27.1397 3.27294 27.03 3.2725C26.9609 3.2725 26.8972 3.28844 26.8388 3.315L24.3259 4.58469L20.5116 2.96438L19.7359 0.297501C19.7107 0.211483 19.6581 0.135986 19.5863 0.0823446C19.5145 0.0287028 19.4272 -0.000190783 19.3375 9.48082e-07H14.7209C14.5403 9.48082e-07 14.3809 0.116876 14.3278 0.286876L13.4884 2.975L9.46687 4.62719L7.08688 3.26719C7.02197 3.23103 6.94866 3.2127 6.87437 3.21406C6.76812 3.21406 6.66187 3.25125 6.5875 3.33094L3.29906 6.51313C3.16625 6.64594 3.13437 6.83719 3.21937 7.00188L4.57937 9.63156L2.95375 13.43L0.27625 14.3969C0.111562 14.4553 0 14.6147 0 14.79V19.3269C0 19.5606 0.19125 19.7466 0.414375 19.7466L5.97656 19.7412L6.05094 19.72C6.0775 19.7147 6.10406 19.7041 6.13594 19.6881C6.15719 19.6722 6.17844 19.6616 6.19969 19.6456L6.25281 19.5819C6.26875 19.5606 6.28469 19.5447 6.29531 19.5181L6.32719 19.4437C6.33781 19.4172 6.34312 19.3906 6.34312 19.38L6.34844 19.3428V19.3216C6.34844 19.3056 6.34844 19.2844 6.34312 19.2844V19.2578L6.33781 19.2313C6.18375 18.5247 6.10406 17.7809 6.10406 17.0159C6.10406 11.0553 10.9597 6.19969 16.9362 6.19969C22.8969 6.19969 27.7578 11.05 27.7578 17.0159C27.7578 17.7809 27.6781 18.5247 27.5187 19.2631L27.5134 19.3641L27.5347 19.4437C27.54 19.4703 27.5506 19.4969 27.5613 19.5181L27.6037 19.5819C27.625 19.6084 27.6409 19.6244 27.6622 19.6456L27.7259 19.6881C27.7525 19.7041 27.7791 19.7147 27.7897 19.7147L27.8216 19.7306L27.8428 19.7359C27.8694 19.7413 27.8959 19.7466 27.9331 19.7466H33.5856C33.8141 19.7466 34 19.5553 34 19.3269V14.8909C34 14.7263 33.8938 14.5722 33.7344 14.5084Z" fill="#636363"/>
<path d="M25.0067 12.3037H23.498L23.1686 11.0872V11.0553C23.1687 10.9756 23.1446 10.8978 23.0995 10.8322L22.9561 10.3009C22.8713 9.99067 22.6873 9.71673 22.4321 9.52101C22.1769 9.32529 21.8646 9.21857 21.543 9.21716H12.448C11.7892 9.21716 11.2048 9.66341 11.0348 10.3062L10.4983 12.2984H8.99484C8.60667 12.2984 8.2344 12.4526 7.95993 12.7271C7.68545 13.0016 7.53125 13.3738 7.53125 13.762C7.53125 14.1502 7.68545 14.5224 7.95993 14.7969C8.2344 15.0714 8.60667 15.2256 8.99484 15.2256H9.38797C9.21266 15.454 9.06922 15.6506 8.93641 15.8472C8.65484 16.2881 8.42641 16.7131 8.24047 17.1593C8.16609 17.34 8.10766 17.5312 8.06516 17.7544L8.05984 17.7915C8.01734 18.004 8.00141 18.2059 8.00141 18.4131V22.185C8.00141 22.6472 8.25641 23.0722 8.65484 23.3006V24.5012C8.65484 25.1068 9.14891 25.6009 9.75984 25.6009H11.9433C12.5489 25.6009 13.043 25.1068 13.043 24.5012V23.4653H20.9214V24.5012C20.9214 25.1068 21.4155 25.6009 22.0211 25.6009H24.2098C24.8155 25.6009 25.3095 25.1068 25.3095 24.5012V23.2847C25.7027 23.0509 25.9417 22.6418 25.9417 22.185V18.5565C25.9417 18.3175 25.9205 18.0837 25.878 17.8606L25.862 17.7862C25.8302 17.6322 25.793 17.4515 25.7292 17.2815C25.5698 16.8406 25.3361 16.3731 25.0439 15.895L25.012 15.8525C24.8845 15.6506 24.7411 15.4487 24.5764 15.2203H24.9961C25.8036 15.2203 26.457 14.5615 26.457 13.754C26.4677 12.9625 25.8089 12.3037 25.0067 12.3037ZM11.1995 12.904C11.2261 12.8509 11.242 12.7978 11.2367 12.7712L11.582 11.475H22.4036L23.1952 14.4022H10.8064L11.1995 12.904ZM8.99484 14.4022C8.82647 14.4022 8.665 14.3353 8.54594 14.2162C8.42688 14.0972 8.36 13.9357 8.36 13.7673C8.36 13.5989 8.42688 13.4375 8.54594 13.3184C8.665 13.1994 8.82647 13.1325 8.99484 13.1325H10.2805L9.94578 14.4022H8.99484ZM12.2142 24.5065C12.2142 24.6553 12.092 24.7775 11.9433 24.7775H9.75984C9.61109 24.7775 9.48891 24.6553 9.48891 24.5065V23.4706H12.2089V24.5065H12.2142ZM24.4861 24.5065C24.4861 24.6553 24.3639 24.7775 24.2152 24.7775H22.0264C21.9555 24.7761 21.8879 24.7469 21.8383 24.6963C21.7886 24.6456 21.7608 24.5775 21.7608 24.5065V23.4706H24.4808V24.5065H24.4861ZM25.1077 18.4131C25.113 18.4609 25.1183 18.514 25.1183 18.5672V22.1956C25.1183 22.4453 24.9164 22.6418 24.672 22.6418H22.5789L21.867 21.3934C21.5642 20.8569 20.9798 20.5222 20.353 20.5222H13.7123C13.1386 20.5222 12.602 20.8037 12.278 21.2659L11.3217 22.6472H9.28703C9.04266 22.6472 8.84609 22.4453 8.84609 22.2009V18.3865L11.7042 18.9975C11.7627 19.0081 11.8264 19.0134 11.8848 19.0134C12.0867 19.0134 12.2833 18.939 12.4373 18.8009C12.6392 18.6256 12.7348 18.3706 12.7189 18.0997L12.6339 17.17C12.5861 16.66 12.2036 16.235 11.6989 16.134L10.0202 15.81C10.1742 15.6081 10.3123 15.4275 10.4664 15.2469H23.5352C23.6839 15.4328 23.8273 15.6187 23.9814 15.8365L22.2655 16.1659C21.7608 16.2615 21.3783 16.6865 21.3358 17.1965L21.2508 18.1209C21.2242 18.3919 21.3252 18.6468 21.527 18.8275C21.6811 18.9656 21.8723 19.04 22.0795 19.04C22.138 19.04 22.2017 19.0347 22.2602 19.024L25.1077 18.4131ZM25.0067 14.4022H24.0611L23.7211 13.1325H25.012C25.3573 13.1325 25.6442 13.414 25.6442 13.7647C25.6389 14.1206 25.352 14.4022 25.0067 14.4022Z" fill="#636363"/>
<path d="M10.3778 19.9006C10.139 19.9012 9.9057 19.9724 9.70735 20.1054C9.50901 20.2384 9.35451 20.4272 9.26337 20.648C9.17222 20.8687 9.14851 21.1115 9.19523 21.3457C9.24195 21.5799 9.357 21.795 9.52587 21.9638C9.69473 22.1327 9.90984 22.2478 10.144 22.2945C10.3782 22.3412 10.621 22.3175 10.8417 22.2263C11.0625 22.1352 11.2513 21.9807 11.3843 21.7823C11.5173 21.584 11.5885 21.3507 11.5891 21.1119C11.5891 20.4478 11.0472 19.9006 10.3778 19.9006ZM23.5634 22.3178C23.884 22.3178 24.1914 22.1905 24.418 21.9638C24.6447 21.7372 24.772 21.4298 24.772 21.1092C24.772 20.7887 24.6447 20.4813 24.418 20.2546C24.1914 20.028 23.884 19.9006 23.5634 19.9006C23.4046 19.9006 23.2474 19.932 23.1007 19.9929C22.9541 20.0539 22.8209 20.1432 22.7088 20.2557C22.5968 20.3683 22.5081 20.5018 22.4478 20.6488C22.3875 20.7957 22.3568 20.9531 22.3575 21.1119C22.359 21.4313 22.4866 21.7371 22.7124 21.9629C22.9382 22.1887 23.2441 22.3163 23.5634 22.3178ZM19.8978 17.8978H14.0966C13.9903 17.9032 13.8901 17.9492 13.8168 18.0263C13.7435 18.1035 13.7026 18.2058 13.7026 18.3122C13.7026 18.4186 13.7435 18.5209 13.8168 18.5981C13.8901 18.6752 13.9903 18.7212 14.0966 18.7266H19.8978C20.0041 18.7212 20.1042 18.6752 20.1775 18.5981C20.2508 18.5209 20.2917 18.4186 20.2917 18.3122C20.2917 18.2058 20.2508 18.1035 20.1775 18.0263C20.1042 17.9492 20.0041 17.9032 19.8978 17.8978ZM19.8978 19.3853H14.0966C13.8681 19.3853 13.6822 19.5713 13.6822 19.805C13.6822 20.0388 13.8681 20.2194 14.0966 20.2194H19.8978C20.1262 20.2194 20.3122 20.0335 20.3122 19.805C20.3122 19.5766 20.1262 19.3853 19.8978 19.3853Z" fill="#636363"/>
</svg>
