<svg width="32" height="32" viewBox="0 0 32 32" fill="none" xmlns="http://www.w3.org/2000/svg">
<path d="M20.8016 9.59999C20.8016 12.2492 18.6508 14.4 16.0016 14.4C13.3524 14.4 11.2016 12.2492 11.2016 9.59999C11.2016 6.9508 13.3524 4.79999 16.0016 4.79999C18.6508 4.79999 20.8016 6.9508 20.8016 9.59999V9.59999M28.8016 12.8C28.8016 14.5661 27.3677 16 25.6016 16C23.8354 16 22.4016 14.5661 22.4016 12.8C22.4016 11.0339 23.8354 9.59999 25.6016 9.59999C27.3677 9.59999 28.8016 11.0339 28.8016 12.8V12.8M22.4016 24C22.4016 20.4677 19.5338 17.6 16.0016 17.6C12.4693 17.6 9.60156 20.4677 9.60156 24V28.8H22.4016V24V24M9.60156 12.8C9.60156 14.5661 8.16769 16 6.40156 16C4.63543 16 3.20156 14.5661 3.20156 12.8C3.20156 11.0339 4.63543 9.59999 6.40156 9.59999C8.16769 9.59999 9.60156 11.0339 9.60156 12.8V12.8M25.6016 28.8V24C25.6039 22.3732 25.1908 20.7728 24.4016 19.3504C25.839 18.9825 27.3658 19.299 28.5387 20.2078C29.7115 21.1167 30.399 22.5162 30.4016 24V28.8H25.6016V28.8M7.60156 19.3504C6.81236 20.7729 6.39932 22.3733 6.40156 24V28.8H1.60156V24C1.60412 22.5162 2.29162 21.1167 3.46447 20.2078C4.63731 19.299 6.1641 18.9825 7.60156 19.3504V19.3504" fill="#2563EB"/>
</svg>
